<svg xmlns="http://www.w3.org/2000/svg" viewBox="0 0 1000 1000"><path fill="#fff" d="M0 0h1000v1000H0z"></path><g opacity=".1"><path d="M566.64 267.54V237.6c0-6.74-5.46-12.2-12.2-12.2h-5.37v-68.2c0-6.74-5.46-12.2-12.2-12.2h-73.72c-6.74 0-12.2 5.46-12.2 12.2v68.18h-5.37c-6.74 0-12.2 5.46-12.2 12.2v29.94c-43.58 4.54-76.71 41.22-76.81 85.03v490.23c0 6.74 5.46 12.21 12.2 12.21h262.49c6.74 0 12.2-5.46 12.2-12.2V352.56c-.11-43.81-33.24-80.49-76.82-85.02zM500 166.48c15.23 0 27.58 12.35 27.58 27.58 0 15.23-12.35 27.58-27.58 27.58-15.23 0-27.58-12.35-27.58-27.58 0-15.23 12.35-27.58 27.58-27.58zm-42.23 83.32h84.46v17.33h-84.46V249.8zm161.27 580.79H380.96V352.56c.04-33.68 27.34-60.98 61.02-61.02h116.03c33.68.04 60.98 27.34 61.02 61.02v478.03z"></path><path d="M419.04 406.1c-6.74 0-12.2 5.46-12.2 12.2v263.14c0 6.74 5.46 12.2 12.2 12.2s12.2-5.46 12.2-12.2V418.31c.01-6.74-5.46-12.21-12.2-12.21z"></path></g></svg>