<svg width="23" height="23" viewBox="0 0 23 23" fill="none" xmlns="http://www.w3.org/2000/svg">
<path d="M11.5007 3.83301C12.0299 3.83301 12.459 4.26207 12.459 4.79134V10.5413H18.209C18.7383 10.5413 19.1673 10.9704 19.1673 11.4997C19.1673 12.029 18.7383 12.458 18.209 12.458H12.459V18.208C12.459 18.7373 12.0299 19.1663 11.5007 19.1663C10.9714 19.1663 10.5423 18.7373 10.5423 18.208V12.458H4.79232C4.26304 12.458 3.83398 12.029 3.83398 11.4997C3.83398 10.9704 4.26304 10.5413 4.79232 10.5413H10.5423V4.79134C10.5423 4.26207 10.9714 3.83301 11.5007 3.83301Z" fill="#0D0D0D"/>
</svg>
