<svg width="31" height="18" viewBox="0 0 31 18" fill="none" xmlns="http://www.w3.org/2000/svg">
<path d="M16.1059 7.55361C17.1975 6.92179 18.2238 6.32751 19.3213 5.69235C18.9659 5.06876 19.0526 5.21868 18.7288 4.63032C18.3858 4.00699 18.5151 3.76192 19.2236 3.75678C21.2864 3.74238 23.3498 3.74058 25.4127 3.75138C26.0255 3.75472 26.1733 4.01702 25.866 4.55755C24.8457 6.35194 23.814 8.13991 22.773 9.92248C22.4405 10.4915 22.1497 10.4903 21.8023 9.93353C21.4454 9.36137 21.5405 9.50281 21.1586 8.85427C20.0825 9.47915 19.0071 10.1038 17.9535 10.7155C18.0168 10.8806 18.0975 10.9866 18.1636 11.1015C18.9574 12.4832 19.312 13.143 20.1323 14.509C21.1044 16.1278 23.142 16.2252 24.2992 14.7291C24.4278 14.5628 24.5456 14.3861 24.6507 14.204C26.5976 10.8318 28.5455 7.46026 30.4808 4.0813C30.6771 3.73929 30.854 3.36565 30.9391 2.98404C31.2783 1.463 30.1499 0.0250135 28.564 0.0165275C24.392 -0.00558744 20.2193 -0.00893039 16.0473 0.0278421C14.1469 0.0445569 13.0049 1.94721 13.8396 3.61946C14.1117 4.16385 14.438 4.68124 14.7438 5.20865C15.319 6.20151 15.471 6.46277 16.1059 7.55361Z" fill="#306E9A"/>
<path d="M6.82989 17.9721C6.83169 16.7206 6.83504 14.2707 6.83504 14.2707C6.83504 14.2707 6.32202 14.2653 5.62874 14.2653C4.92286 14.2653 4.77732 14.0159 5.12576 13.4056C6.14099 11.6285 7.16753 9.85749 8.20462 8.09292C8.51268 7.56885 8.78552 7.52282 9.12213 8.10552C10.1461 9.87909 11.1734 11.6509 12.184 13.4321C12.5067 14.0007 12.3607 14.2496 11.7098 14.2704C11.0379 14.2704 10.4634 14.2697 10.4634 14.2697L10.4632 17.9822C10.4632 17.9822 13.2023 17.9827 14.8036 17.9827C16.6764 17.9549 17.7752 16.2554 17.0681 14.5173C16.9896 14.3242 16.8968 14.1352 16.7929 13.9541C14.8697 10.6037 12.9472 7.25281 11.0127 3.90883C10.8168 3.57042 10.5845 3.23226 10.2996 2.9692C9.16353 1.92028 7.36759 2.17203 6.57043 3.52824C4.47285 7.09672 2.39122 10.6752 0.344044 14.2728C-0.588383 15.9116 0.474934 17.8394 2.32565 17.9562C2.92815 17.9942 5.50094 17.9721 6.82989 17.9721Z" fill="#1F4066"/>
</svg>
