<svg width="25" height="25" viewBox="0 0 25 25" fill="none" xmlns="http://www.w3.org/2000/svg">
<g clip-path="url(#clip0)">
<path d="M23.2855 4.40723H1.71447C0.769138 4.40723 0 5.17636 0 6.1218V12.4056C0 13.9776 1.27895 15.2565 2.85093 15.2565H22.1492C23.7211 15.2565 25.0001 13.9776 25.0001 12.4056V6.1218C25 5.17636 24.2309 4.40723 23.2855 4.40723ZM3.71686 5.78297H21.2831V7.40261C21.2831 8.03938 20.7651 8.55755 20.1283 8.55755H4.8718C4.23503 8.55755 3.71696 8.03948 3.71696 7.40261V5.78297H3.71686ZM23.6241 12.4056C23.6241 13.219 22.9624 13.8808 22.149 13.8808H2.85083C2.03747 13.8808 1.37564 13.2191 1.37564 12.4056V6.1218C1.37564 5.93499 1.52757 5.78297 1.71437 5.78297H2.34102V7.40261C2.34102 8.79801 3.4763 9.93329 4.8716 9.93329H20.1281C21.5235 9.93329 22.6587 8.79801 22.6587 7.40261V5.78297H23.2853C23.4721 5.78297 23.624 5.93499 23.624 6.1218V12.4056H23.6241Z" fill="black" fill-opacity="0.87"/>
<path d="M21.9717 11.7178H3.02967C2.64977 11.7178 2.3418 12.0257 2.3418 12.4056C2.3418 12.7855 2.64977 13.0935 3.02967 13.0935H21.9717C22.3516 13.0935 22.6596 12.7855 22.6596 12.4056C22.6596 12.0257 22.3516 11.7178 21.9717 11.7178Z" fill="black" fill-opacity="0.87"/>
<path d="M8.27144 17.4274C8.24845 17.4145 8.22703 17.402 8.20708 17.39C8.53097 17.2508 8.70048 16.8845 8.58816 16.5434C8.46936 16.1825 8.08061 15.9862 7.71977 16.105C7.54888 16.1612 6.69258 16.4805 6.61839 17.244C6.56749 17.7682 6.89708 18.2335 7.59802 18.627C7.82472 18.7543 7.87887 18.8498 7.88014 18.8666C7.88722 18.9622 7.70051 19.2141 7.52029 19.3539C7.21713 19.5829 7.1569 20.0142 7.38576 20.3173C7.52098 20.4965 7.72685 20.5908 7.93527 20.5908C8.07963 20.5908 8.22516 20.5455 8.34917 20.4518C8.44823 20.3771 9.31495 19.6947 9.25264 18.7738C9.22709 18.3965 9.03606 17.8566 8.27144 17.4274Z" fill="black" fill-opacity="0.87"/>
<path d="M12.8379 17.4274C12.8149 17.4145 12.7934 17.402 12.7735 17.39C13.0974 17.2508 13.2669 16.8845 13.1546 16.5434C13.0358 16.1825 12.6472 15.9862 12.2862 16.105C12.1153 16.1612 11.259 16.4805 11.1848 17.244C11.1339 17.7682 11.4635 18.2335 12.1644 18.627C12.3911 18.7543 12.4453 18.8498 12.4466 18.8666C12.4536 18.9622 12.2669 19.2141 12.0867 19.3539C11.7835 19.5829 11.7233 20.0142 11.9522 20.3173C12.0874 20.4965 12.2933 20.5908 12.5017 20.5908C12.646 20.5908 12.7916 20.5455 12.9156 20.4518C13.0146 20.3771 13.8814 19.6947 13.819 18.7738C13.7935 18.3965 13.6026 17.8566 12.8379 17.4274Z" fill="black" fill-opacity="0.87"/>
<path d="M17.4004 17.4274C17.3774 17.4145 17.3559 17.402 17.336 17.39C17.6599 17.2508 17.8294 16.8845 17.7171 16.5434C17.5983 16.1825 17.2096 15.9862 16.8487 16.105C16.6778 16.1612 15.8215 16.4805 15.7473 17.244C15.6964 17.7682 16.026 18.2335 16.7269 18.627C16.9536 18.7543 17.0078 18.8498 17.0091 18.8666C17.0161 18.9622 16.8294 19.2141 16.6492 19.3539C16.346 19.5829 16.2858 20.0142 16.5147 20.3173C16.6499 20.4965 16.8558 20.5908 17.0642 20.5908C17.2085 20.5908 17.3541 20.5455 17.4781 20.4518C17.5771 20.3771 18.4439 19.6947 18.3816 18.7738C18.356 18.3965 18.1651 17.8566 17.4004 17.4274Z" fill="black" fill-opacity="0.87"/>
</g>
<defs>
<clipPath id="clip0">
<rect width="25" height="25" fill="white"/>
</clipPath>
</defs>
</svg>
