<svg width="39" height="21" viewBox="0 0 39 21" fill="none" xmlns="http://www.w3.org/2000/svg">
<path d="M3.34375 8.06439H4.70565L4.0247 6.33105L3.34375 8.06439Z" fill="#2FABF7"/>
<path d="M20.2431 6.57851C20.1193 6.5166 19.9336 6.5166 19.7479 6.5166H18.5098V7.50708H19.7479C19.9336 7.50708 20.1193 7.50708 20.2431 7.44517C20.3669 7.38327 20.4288 7.19755 20.4288 7.01184C20.4907 6.76422 20.3669 6.64041 20.2431 6.57851Z" fill="#228FE0"/>
<path d="M33.4905 4.72168V5.46454L33.119 4.72168H30.2095V5.46454L29.8381 4.72168H25.8762C25.1952 4.72168 24.6381 4.84549 24.1429 5.09311V4.72168H21.3571V5.09311C21.0476 4.84549 20.6762 4.72168 20.181 4.72168H10.2143L9.53333 6.2693L8.85238 4.72168H5.69524V5.46454L5.32381 4.72168H2.66191L1.42381 7.6312L0 10.8502H1.42381H3.15714L3.52857 9.85977H4.39524L4.76667 10.8502H8.35714V10.1074L8.66667 10.8502H10.4619L10.7714 10.1074V10.8502H19.3762V9.24072H19.5C19.6238 9.24072 19.6238 9.24072 19.6238 9.42644V10.7883H24.081V10.4169C24.4524 10.6026 25.0095 10.7883 25.7524 10.7883H27.6095L27.981 9.79786H28.8476L29.219 10.7883H32.8095V9.85977L33.3667 10.7883H36.2762V4.72168H33.4905ZM12.5667 9.92167H11.5143V6.51692L10.0286 9.92167H9.1L7.61429 6.51692V9.92167H5.50952L5.07619 8.9931H2.97143L2.6 9.98358H1.42381L3.28095 5.58835H4.82857L6.56191 9.73596V5.58835H8.23333L9.59524 8.55977L10.8333 5.58835H12.5667V9.92167ZM16.7762 6.51692H14.3619V7.32168H16.7143V8.18834H14.3619V9.05501H16.7762V9.98358H13.3095V5.58835H16.7762V6.51692ZM21.419 8.31215C21.5429 8.55977 21.6048 8.74548 21.6048 9.11691V9.98358H20.5524V9.42644C20.5524 9.17882 20.5524 8.80739 20.3667 8.55977C20.181 8.37406 19.9952 8.37406 19.6238 8.37406H18.5095V9.98358H17.4571V5.58835H19.8095C20.3667 5.58835 20.7381 5.58835 21.0476 5.77406C21.3571 5.95977 21.5429 6.2693 21.5429 6.76454C21.5429 7.44549 21.1095 7.81691 20.8 7.94072C21.1095 8.00263 21.2952 8.18834 21.419 8.31215ZM23.2762 9.92167H22.2238V5.52644H23.2762V9.92167ZM35.4714 9.92167H33.9857L32.0048 6.64073V9.92167H29.9L29.5286 8.9931H27.3619L26.9905 9.98358H25.8143C25.319 9.98358 24.7 9.85977 24.3286 9.48834C23.9571 9.11691 23.7714 8.62168 23.7714 7.81691C23.7714 7.19787 23.8952 6.57882 24.3286 6.08358C24.6381 5.71216 25.1952 5.58835 25.8762 5.58835H26.8667V6.51692H25.8762C25.5048 6.51692 25.319 6.57882 25.0714 6.76454C24.8857 6.95025 24.7619 7.32168 24.7619 7.75501C24.7619 8.25025 24.8238 8.55977 25.0714 8.80739C25.2571 8.9931 25.5048 9.05501 25.8143 9.05501H26.2476L27.6714 5.65025H29.219L30.9524 9.79786V5.65025H32.5L34.2952 8.68358V5.65025H35.3476V9.92167H35.4714Z" fill="#0571C1"/>
<path d="M27.7344 8.06439H29.1582L28.4772 6.33105L27.7344 8.06439Z" fill="#228FE0"/>
<path d="M17.2111 16.9788V13.4502L15.6016 15.1835L17.2111 16.9788Z" fill="#228FE0"/>
<path d="M10.5859 13.8838V14.6885H12.8764V15.5552H10.5859V16.4838H13.124L14.3002 15.1838L13.1859 13.8838H10.5859Z" fill="#2FABF7"/>
<path d="M19.5617 13.8838H18.2617V14.9981H19.6236C19.9951 14.9981 20.2427 14.8124 20.2427 14.4409C20.1808 14.0695 19.9331 13.8838 19.5617 13.8838Z" fill="#228FE0"/>
<path d="M38.6912 14.9361V12.1504H37.9483H36.0912C35.534 12.1504 35.1007 12.2742 34.7912 12.5218V12.1504H31.9436C31.5102 12.1504 30.9531 12.2742 30.7055 12.5218V12.1504H25.6912V12.5218C25.3198 12.2123 24.6388 12.1504 24.3293 12.1504H20.9864V12.5218C20.6769 12.2123 19.934 12.1504 19.5626 12.1504H15.8483L14.9817 13.079L14.1769 12.1504H8.60547V18.2171H14.0531L14.9198 17.2885L15.7245 18.2171H19.0674V16.7932H19.5007C19.934 16.7932 20.4912 16.7932 20.9245 16.6075V18.279H23.7102V16.6694H23.834C24.0198 16.6694 24.0198 16.6694 24.0198 16.8552V18.279H32.4388C32.9959 18.279 33.5531 18.1552 33.8626 17.9075V18.279H36.5245C37.0817 18.279 37.6388 18.2171 38.0102 17.9694C38.6293 17.598 39.0007 16.9171 39.0007 16.1123C39.0007 15.679 38.8769 15.2456 38.6912 14.9361ZM19.5007 15.9266H18.2626V17.4123H16.2817L15.0436 15.9885L13.7436 17.4123H9.65785V13.0171H13.8055L15.0436 14.4409L16.3436 13.0171H19.6245C20.4293 13.0171 21.3578 13.2647 21.3578 14.4409C21.2959 15.679 20.4293 15.9266 19.5007 15.9266ZM25.6912 15.679C25.815 15.8647 25.8769 16.1123 25.8769 16.4837V17.3504H24.8245V16.7932C24.8245 16.5456 24.8245 16.1123 24.6388 15.9266C24.515 15.7409 24.2674 15.7409 23.8959 15.7409H22.7817V17.3504H21.7293V12.9552H24.0817C24.5769 12.9552 25.0102 12.9552 25.3198 13.1409C25.6293 13.3266 25.8769 13.6361 25.8769 14.1313C25.8769 14.8123 25.4436 15.1837 25.134 15.3075C25.4436 15.4313 25.6293 15.5552 25.6912 15.679ZM29.9626 13.8837H27.5483V14.6885H29.9007V15.5552H27.5483V16.4218H29.9626V17.3504H26.4959V12.9552H29.9626V13.8837ZM32.5626 17.3504H30.5817V16.4218H32.5626C32.7483 16.4218 32.8721 16.4218 32.9959 16.298C33.0578 16.2361 33.1198 16.1123 33.1198 15.9885C33.1198 15.8647 33.0578 15.7409 32.9959 15.679C32.934 15.6171 32.8102 15.5552 32.6245 15.5552C31.634 15.4932 30.4578 15.5552 30.4578 14.1932C30.4578 13.5742 30.8293 12.8932 31.9436 12.8932H33.9864V13.9456H32.0674C31.8817 13.9456 31.7578 13.9456 31.634 14.0075C31.5102 14.0694 31.5102 14.1932 31.5102 14.3171C31.5102 14.5028 31.634 14.5647 31.7578 14.6266C31.8817 14.6885 32.0055 14.6885 32.1293 14.6885H32.6864C33.2436 14.6885 33.615 14.8123 33.8626 15.0599C34.0483 15.2456 34.1721 15.5552 34.1721 15.9885C34.1721 16.9171 33.615 17.3504 32.5626 17.3504ZM37.8864 16.9171C37.6388 17.1647 37.2055 17.3504 36.5864 17.3504H34.6055V16.4218H36.5864C36.7721 16.4218 36.8959 16.4218 37.0198 16.298C37.0817 16.2361 37.1436 16.1123 37.1436 15.9885C37.1436 15.8647 37.0817 15.7409 37.0198 15.679C36.9578 15.6171 36.834 15.5552 36.6483 15.5552C35.6579 15.4932 34.4817 15.5552 34.4817 14.1932C34.4817 13.5742 34.8531 12.8932 35.9674 12.8932H38.0102V13.9456H36.1531C35.9674 13.9456 35.8436 13.9456 35.7198 14.0075C35.5959 14.0694 35.5959 14.1932 35.5959 14.3171C35.5959 14.5028 35.6578 14.5647 35.8436 14.6266C35.9674 14.6885 36.0912 14.6885 36.215 14.6885H36.7721C37.3293 14.6885 37.7007 14.8123 37.9483 15.0599C38.0102 15.0599 38.0102 15.1218 38.0102 15.1218C38.1959 15.3694 38.2578 15.679 38.2578 15.9885C38.2578 16.3599 38.134 16.6694 37.8864 16.9171Z" fill="#0571C1"/>
<path d="M24.5771 14.0072C24.4533 13.9453 24.2676 13.9453 24.0818 13.9453H22.8438V14.9358H24.0818C24.2676 14.9358 24.4533 14.9358 24.5771 14.8739C24.7009 14.812 24.7628 14.6263 24.7628 14.4405C24.8247 14.1929 24.7009 14.0691 24.5771 14.0072Z" fill="#228FE0"/>
<path d="M20.2451 6.57851C20.1212 6.5166 19.9355 6.5166 19.7498 6.5166H18.5117V7.50708H19.7498C19.9355 7.50708 20.1212 7.50708 20.2451 7.44517C20.3689 7.38327 20.4308 7.19755 20.4308 7.01184C20.4927 6.76422 20.3689 6.64041 20.2451 6.57851Z" fill="#228FE0"/>
<path d="M27.7344 8.06439H29.1582L28.4772 6.33105L27.7344 8.06439Z" fill="#228FE0"/>
<path d="M17.2111 16.9788V13.4502L15.6016 15.1835L17.2111 16.9788Z" fill="#228FE0"/>
<path d="M19.5617 13.8838H18.2617V14.9981H19.6236C19.9951 14.9981 20.2427 14.8124 20.2427 14.4409C20.1808 14.0695 19.9331 13.8838 19.5617 13.8838Z" fill="#228FE0"/>
<path d="M24.5771 14.0072C24.4533 13.9453 24.2676 13.9453 24.0818 13.9453H22.8438V14.9358H24.0818C24.2676 14.9358 24.4533 14.9358 24.5771 14.8739C24.7009 14.812 24.7628 14.6263 24.7628 14.4405C24.8247 14.1929 24.7009 14.0691 24.5771 14.0072Z" fill="#228FE0"/>
<path d="M19.1273 17.2266L18.2607 16.298V17.3504H16.2178L14.9797 15.9266L13.6178 17.3504H9.53209V13.0171H13.6797L14.9797 14.4409L15.5988 13.698L14.0511 12.1504H8.60352V18.2171H14.0511L14.9797 17.2885L15.7845 18.2171H19.1273V17.2266Z" fill="#2FABF7"/>
<path d="M12.6905 10.7883L11.8857 9.92168H11.5143V9.55025L10.5857 8.62168L9.96667 9.92168H9.1L7.61429 6.51692V9.92168H5.50952L5.07619 8.9931H2.97143L2.5381 9.92168H1.42381L3.28095 5.58835H4.82857L6.56191 9.73596V5.58835H7.49048L6.62381 4.72168H5.69524V5.46454L5.38571 4.72168H2.66191L1.42381 7.6312L0 10.7883H1.42381H3.21905L3.59048 9.85977H4.45714L4.89048 10.7883H8.35714V10.0455L8.66667 10.7883H10.4619L10.7714 10.0455V10.7883H12.6905Z" fill="#2FABF7"/>
<path d="M9.84204 7.94067L8.85156 6.9502L9.59442 8.55972L9.84204 7.94067Z" fill="#2FABF7"/>
<path d="M38.0104 17.9067C38.5675 17.5353 38.9389 16.9162 39.0008 16.2353L38.1342 15.3686C38.1961 15.5543 38.258 15.7401 38.258 15.9877C38.258 16.3591 38.1342 16.6686 37.8866 16.9162C37.6389 17.1639 37.2056 17.3496 36.5866 17.3496H34.6056V16.421H36.5866C36.7723 16.421 36.8961 16.421 37.0199 16.2972C37.0818 16.2353 37.1437 16.1115 37.1437 15.9877C37.1437 15.8639 37.0818 15.7401 37.0199 15.6782C36.958 15.6162 36.8342 15.5543 36.6485 15.5543C35.658 15.4924 34.4818 15.5543 34.4818 14.1924C34.4818 13.5734 34.8532 13.0162 35.7818 12.8924L35.1008 12.2115C34.977 12.2734 34.9151 12.3353 34.8532 12.3353V11.9639H32.0056C31.5723 11.9639 31.0151 12.0877 30.7675 12.3353V11.9639H25.6913V12.3353C25.3199 12.0258 24.6389 11.9639 24.3294 11.9639H20.9866V12.3353C20.677 12.0258 19.9342 11.9639 19.5628 11.9639H15.8485L14.9818 12.8924L14.177 11.9639H13.4961L15.3532 13.821L16.2818 12.8305H19.5628C20.3675 12.8305 21.2961 13.0782 21.2961 14.2543C21.2961 15.4924 20.4294 15.7401 19.5009 15.7401H18.2628V16.6686L19.1913 17.5972V16.6686H19.5009C19.9342 16.6686 20.4913 16.6686 20.9247 16.4829V18.1543H23.7104V16.5448H23.8342C24.0199 16.5448 24.0199 16.5448 24.0199 16.7305V18.1543H32.4389C32.9961 18.1543 33.5532 18.0305 33.8628 17.7829V18.1543H36.5247C37.0199 18.2162 37.577 18.1543 38.0104 17.9067ZM25.6913 15.6782C25.8151 15.8639 25.877 16.1115 25.877 16.4829V17.3496H24.8247V16.7924C24.8247 16.5448 24.8247 16.1115 24.6389 15.9258C24.5151 15.7401 24.2675 15.7401 23.8961 15.7401H22.7818V17.3496H21.7294V12.9543H24.0818C24.577 12.9543 25.0104 12.9543 25.3199 13.1401C25.6294 13.3258 25.877 13.6353 25.877 14.1305C25.877 14.8115 25.4437 15.1829 25.1342 15.3067C25.4437 15.4305 25.6294 15.5543 25.6913 15.6782ZM29.9628 13.8829H27.5485V14.6877H29.9009V15.5543H27.5485V16.421H29.9628V17.3496H26.4961V12.9543H29.9628V13.8829ZM32.5628 17.3496H30.5818V16.421H32.5628C32.7485 16.421 32.8723 16.421 32.9961 16.2972C33.058 16.2353 33.1199 16.1115 33.1199 15.9877C33.1199 15.8639 33.058 15.7401 32.9961 15.6782C32.9342 15.6162 32.8104 15.5543 32.6247 15.5543C31.6342 15.4924 30.458 15.5543 30.458 14.1924C30.458 13.5734 30.8294 12.8924 31.9437 12.8924H33.9866V13.9448H32.0675C31.8818 13.9448 31.758 13.9448 31.6342 14.0067C31.5104 14.0686 31.5104 14.1924 31.5104 14.3162C31.5104 14.502 31.6342 14.5639 31.758 14.6258C31.8818 14.6877 32.0056 14.6877 32.1294 14.6877H32.6866C33.2437 14.6877 33.6151 14.8115 33.8628 15.0591C34.0485 15.2448 34.1723 15.5543 34.1723 15.9877C34.1723 16.9162 33.6151 17.3496 32.5628 17.3496Z" fill="#228FE0"/>
<path d="M35.5332 14.3167C35.5332 14.5025 35.5951 14.5644 35.7808 14.6263C35.9046 14.6882 36.0284 14.6882 36.1523 14.6882H36.7094C37.0808 14.6882 37.3284 14.7501 37.5761 14.8739L36.6475 13.9453H36.0903C35.9046 13.9453 35.7808 13.9453 35.657 14.0072C35.5951 14.0691 35.5332 14.1929 35.5332 14.3167Z" fill="#228FE0"/>
<path d="M33.3672 10.6025L33.491 10.7883H33.5529L33.3672 10.6025Z" fill="#228FE0"/>
<path d="M29.9629 7.19727L31.0153 9.73537V8.24965L29.9629 7.19727Z" fill="#228FE0"/>
<path d="M19.3765 9.24035H19.5003C19.6241 9.24035 19.6241 9.24035 19.6241 9.42606V10.788H24.0813V10.4165C24.4527 10.6023 25.0099 10.788 25.7527 10.788H27.6098L27.9813 9.79749H28.8479L29.2194 10.788H32.8098V10.1689L31.9432 9.30225V9.9832H29.8384L29.5289 8.99273H27.3622L26.9908 9.9832H25.8146C25.3194 9.9832 24.7003 9.85939 24.3289 9.48796C23.9575 9.11654 23.7718 8.6213 23.7718 7.81654C23.7718 7.19749 23.8956 6.57844 24.3289 6.0832C24.6384 5.71177 25.1956 5.58797 25.8765 5.58797H26.867V6.51654H25.8765C25.5051 6.51654 25.3194 6.57844 25.0718 6.76416C24.886 6.94987 24.7622 7.3213 24.7622 7.75463C24.7622 8.24987 24.8241 8.55939 25.0718 8.80701C25.2575 8.99273 25.5051 9.05463 25.8146 9.05463H26.2479L27.6718 5.64987H28.2908L27.4241 4.7832H25.8146C25.1337 4.7832 24.5765 4.90701 24.0813 5.15463V4.7832H21.3575V5.15463C21.0479 4.90701 20.6765 4.7832 20.1813 4.7832H10.2146L9.53367 6.33082L8.85272 4.7832H6.12891L6.99557 5.64987H8.23367L9.28605 7.94035L9.65748 8.31177L10.7718 5.58797H12.5051V9.9832H11.4527V6.57844L10.4003 9.05463L12.1956 10.8499H19.3146L19.3765 9.24035ZM22.2241 5.58797H23.2765V9.9832H22.2241V5.58797ZM16.7765 6.51654H14.3622V7.3213H16.7146V8.18796H14.3622V9.05463H16.7765V9.9832H13.3099V5.58797H16.7765V6.51654ZM18.5099 9.9213H17.4575V5.52606H19.8099C20.367 5.52606 20.7384 5.52606 21.0479 5.71177C21.3575 5.89749 21.5432 6.20701 21.5432 6.70225C21.5432 7.3832 21.1099 7.75463 20.8003 7.87844C21.0479 7.94035 21.2337 8.12606 21.2956 8.24987C21.4194 8.49749 21.4813 8.6832 21.4813 9.05463V9.9213H20.4289V9.36415C20.4289 9.11654 20.4289 8.74511 20.2432 8.49749C20.1813 8.37368 19.9956 8.37368 19.6241 8.37368H18.5099V9.9213Z" fill="#228FE0"/>
</svg>
