<svg width="75" height="75" viewBox="0 0 75 75" fill="none" xmlns="http://www.w3.org/2000/svg">
<circle cx="37.5" cy="37.5" r="37.5" fill="#90C63E"/>
<mask id="mask0" mask-type="alpha" maskUnits="userSpaceOnUse" x="0" y="0" width="75" height="75">
<circle cx="37.5" cy="37.5" r="37.5" fill="#90C63E"/>
</mask>
<g mask="url(#mask0)">
<path d="M37.5488 10C65.2498 10 68.429 32.2207 63.5819 51.5752C58.7347 70.9298 87.416 67.8935 75.3798 101.912H37.5556V10H37.5488Z" fill="#303030"/>
<path d="M38.6738 10C12.2731 10 7.79362 32.2207 12.6408 51.5752C17.4947 70.9298 -11.1933 67.8935 0.849661 101.912H38.6738V10Z" fill="#303030"/>
<path d="M46.9799 67.09L38.5859 66.4297L30.1919 67.09L28.8848 79.3577H38.5859H48.287L46.9799 67.09Z" fill="#EFF7E4"/>
<path d="M30.1914 67.0903C30.1914 67.0903 33.9629 72.8906 38.5854 72.8906C43.2079 72.8906 46.9794 67.0903 46.9794 67.0903H30.1914Z" fill="#C8D3B7"/>
<path d="M61.0638 49.1244C59.9882 52.1402 57.1425 53.8081 54.6985 52.8482C52.2613 51.8815 51.1517 48.6546 52.2273 45.6388C53.3029 42.6229 56.1554 40.955 58.5926 41.9149C61.0366 42.8816 62.1395 46.1085 61.0638 49.1244Z" fill="#EFF7E4"/>
<path d="M59.3003 49.5535L58.7965 49.4037C58.8033 49.3697 59.702 46.1905 57.5371 44.4817L57.8571 44.0732C60.3079 45.9998 59.3412 49.4038 59.3003 49.5535Z" fill="#303030"/>
<path d="M15.6687 49.1244C16.7443 52.1402 19.59 53.8081 22.034 52.8482C24.4712 51.8815 25.5808 48.6546 24.5052 45.6388C23.4296 42.6229 20.5771 40.955 18.1399 41.9149C15.7027 42.8816 14.5931 46.1085 15.6687 49.1244Z" fill="#EFF7E4"/>
<path d="M17.0656 49.5535C17.0247 49.4106 16.058 46.0067 18.5088 44.0732L18.8288 44.4817C16.6571 46.1905 17.5557 49.3697 17.5694 49.4037L17.0656 49.5535Z" fill="#303030"/>
<path d="M57.1153 37.6941C57.1221 37.6056 57.1357 37.5239 57.1425 37.4354V37.415C57.2038 36.7682 57.231 36.1147 57.231 35.4543C57.231 24.5891 48.9051 15.7798 38.6321 15.7798C28.3591 15.7798 20.0332 24.5891 20.0332 35.4543C20.0332 36.1147 20.0672 36.7682 20.1217 37.415V37.4354C20.1285 37.5171 20.1421 37.5988 20.1489 37.6805L22.0755 54.6115C22.0755 54.6455 22.0823 54.6796 22.0892 54.7136L22.1368 55.1221C23.1988 63.7543 32.1375 70.4192 38.6253 70.4192C45.0451 70.4192 53.9088 63.8973 55.0866 55.3944L55.107 55.1833C55.1342 54.9655 55.1614 54.7544 55.1819 54.5366L57.1153 37.6941Z" fill="#EFF7E4"/>
<path d="M58.3129 41.6633L56.8696 48.614C56.8696 48.614 53.8674 41.2412 53.9627 32.7382C53.9627 32.7382 41.2117 37.1974 29.2708 27.6392C29.2708 27.6392 27.46 32.9901 22.4971 36.5574C22.4971 36.5574 21.8912 43.6988 20.4139 48.6072C20.4139 48.6072 8.0441 14.7725 39.0604 14.7725C64.9777 14.7793 58.3129 41.6633 58.3129 41.6633Z" fill="#303030"/>
<path d="M39.6936 53.8148C38.4002 53.7195 37.556 53.2566 37.1816 52.4396C36.2489 50.4109 38.795 46.9594 38.9039 46.8164L39.5303 47.2861C38.8699 48.178 37.2769 50.7785 37.8896 52.1197C38.1347 52.6575 38.761 52.9707 39.7481 53.0387L39.6936 53.8148Z" fill="#303030"/>
<path d="M51.8045 41.3629L44.8379 39.7617L44.3697 41.7986L51.3364 43.3998L51.8045 41.3629Z" fill="#303030"/>
<path d="M31.9853 41.7981L31.5176 39.7612L24.551 41.361L25.0187 43.3979L31.9853 41.7981Z" fill="#303030"/>
<path d="M27.2288 75.5181L27.2083 75.3139C26.902 71.91 28.6244 68.3087 28.6993 68.1589L28.7878 67.9751L29.1554 68.1521L29.0669 68.3359C29.0465 68.3699 27.3241 71.9849 27.6168 75.2731L27.6372 75.4773L27.2288 75.5181Z" fill="#303030"/>
<path d="M49.9246 75.5187L49.5162 75.4846L49.5366 75.2804C49.8294 71.9922 48.107 68.3773 48.0866 68.3432L47.998 68.1594L48.3657 67.9824L48.4542 68.1662C48.5291 68.316 50.2446 71.9173 49.9451 75.3212L49.9246 75.5187Z" fill="#303030"/>
<path d="M32.207 58.3149C32.207 58.3149 32.2343 58.8732 32.493 59.6152H39.6616H44.4202C44.6789 58.8732 44.7062 58.3149 44.7062 58.3149H32.207Z" fill="white"/>
<path d="M39.6628 59.6084H32.4941C33.0115 61.0925 34.448 63.3323 38.4305 63.3391C38.1106 61.5078 39.0024 60.2551 39.6628 59.6084Z" fill="#303030"/>
<path d="M44.4215 59.6084H39.6629C39.0025 60.2551 38.1039 61.501 38.4306 63.3391C38.4375 63.3391 38.4511 63.3391 38.4579 63.3391C42.4609 63.3459 43.9041 61.0993 44.4215 59.6084Z" fill="#C8D3B7"/>
<path d="M33.248 47.4697H32.1723C32.1723 46.6255 31.4847 45.9379 30.6406 45.9379C29.7964 45.9379 29.1088 46.6255 29.1088 47.4697H28.0332C28.0332 46.0332 29.2041 44.8623 30.6406 44.8623C32.077 44.8623 33.248 46.0332 33.248 47.4697Z" fill="#303030"/>
<path d="M48.6952 47.4697H47.6196C47.6196 46.6255 46.932 45.9379 46.0879 45.9379C45.2437 45.9379 44.5561 46.6255 44.5561 47.4697H43.4805C43.4805 46.0332 44.6514 44.8623 46.0879 44.8623C47.5243 44.8623 48.6952 46.0332 48.6952 47.4697Z" fill="#303030"/>
</g>
<path d="M39.1377 25.3965C39.1494 24.6992 39.2285 24.1484 39.375 23.7441C39.5215 23.3398 39.8203 22.8916 40.2715 22.3994L41.4229 21.2129C41.915 20.6562 42.1611 20.0586 42.1611 19.4199C42.1611 18.8047 42 18.3242 41.6777 17.9785C41.3555 17.627 40.8867 17.4512 40.2715 17.4512C39.6738 17.4512 39.1934 17.6094 38.8301 17.9258C38.4668 18.2422 38.2852 18.667 38.2852 19.2002H36.6592C36.6709 18.251 37.0078 17.4863 37.6699 16.9062C38.3379 16.3203 39.2051 16.0273 40.2715 16.0273C41.3789 16.0273 42.2402 16.3262 42.8555 16.9238C43.4766 17.5156 43.7871 18.3301 43.7871 19.3672C43.7871 20.3926 43.3125 21.4033 42.3633 22.3994L41.4053 23.3486C40.9775 23.8232 40.7637 24.5059 40.7637 25.3965H39.1377ZM39.0674 28.1826C39.0674 27.9189 39.1465 27.6992 39.3047 27.5234C39.4688 27.3418 39.709 27.251 40.0254 27.251C40.3418 27.251 40.582 27.3418 40.7461 27.5234C40.9102 27.6992 40.9922 27.9189 40.9922 28.1826C40.9922 28.4463 40.9102 28.666 40.7461 28.8418C40.582 29.0117 40.3418 29.0967 40.0254 29.0967C39.709 29.0967 39.4688 29.0117 39.3047 28.8418C39.1465 28.666 39.0674 28.4463 39.0674 28.1826Z" fill="white"/>
</svg>
