<svg width="75" height="75" viewBox="0 0 75 75" fill="none" xmlns="http://www.w3.org/2000/svg">
<circle cx="37.5" cy="37.5" r="37.5" fill="#90C63E"/>
<mask id="mask0" mask-type="alpha" maskUnits="userSpaceOnUse" x="0" y="0" width="75" height="75">
<circle cx="37.5" cy="37.5" r="37.5" fill="#90C63E"/>
</mask>
<g mask="url(#mask0)">
<path d="M61.5869 44.4821C60.5036 47.5257 57.634 49.2023 55.1708 48.2286C52.714 47.2549 51.5984 44.0049 52.6817 40.9613C53.765 37.9177 56.6346 36.2411 59.0978 37.2148C61.5546 38.1885 62.6702 41.4385 61.5869 44.4821Z" fill="#EFF7E4"/>
<path d="M59.7942 44.9074L59.3041 44.7655C59.3106 44.7333 60.2198 41.522 58.0273 39.7938L58.3433 39.394C60.813 41.335 59.8393 44.7591 59.7942 44.9074Z" fill="#303030"/>
<path d="M14.4278 44.4821C15.5111 47.5257 18.3806 49.2023 20.8439 48.2286C23.3007 47.2549 24.4163 44.0049 23.333 40.9613C22.2496 37.9177 19.3801 36.2411 16.9169 37.2148C14.46 38.1885 13.3445 41.4385 14.4278 44.4821Z" fill="#EFF7E4"/>
<path d="M15.836 44.9074C15.7909 44.7655 14.8172 41.335 17.2869 39.394L17.6029 39.7938C15.4104 41.5155 16.3197 44.7268 16.3261 44.7655L15.836 44.9074Z" fill="#303030"/>
<path d="M48.1989 57.7979L49.3468 74.7764H26.7969L28.0414 57.7979H48.1989Z" fill="#EFF7E4"/>
<path d="M21.4531 73.4739C21.4531 73.4739 23.3812 84.7779 38.2511 84.7779C53.1209 84.7779 54.5589 73.5707 54.5589 73.5707L38.2511 71.3589L21.4531 73.4739Z" fill="#EFF7E4"/>
<path d="M27.457 65.826C27.457 65.826 31.4099 72.7386 38.013 72.7386C44.6161 72.7386 48.7495 65.7873 48.7495 65.7873V60.3643H27.4635V65.826H27.457Z" fill="#C8D3B7"/>
<path d="M57.7616 36.37C57.7744 36.2862 57.7873 36.1959 57.7938 36.1121V36.0928C57.8583 35.4415 57.8905 34.7837 57.8905 34.1196C57.8905 23.1703 49.0176 14.2974 38.0683 14.2974C27.119 14.2974 18.2461 23.1703 18.2461 34.1196C18.2461 34.7837 18.2783 35.4479 18.3428 36.0928V36.1121C18.3493 36.1959 18.3622 36.2798 18.3751 36.3636L20.4256 53.4259C20.4321 53.4582 20.4321 53.4969 20.4385 53.5291L20.4901 53.9353C21.625 62.6342 29.06 69.3533 38.0683 69.3533C46.9799 69.3533 54.3568 62.776 55.6078 54.2126L55.6336 53.9998C55.6594 53.7806 55.6916 53.5678 55.711 53.3485L57.7616 36.37Z" fill="#EFF7E4"/>
<path d="M38.0948 14.0457C38.0948 14.0457 19.0012 13.7362 18.2854 33.2811C18.221 35.106 18.3564 36.9309 18.6208 38.7364L19.3236 43.5598C19.3236 43.5598 23.8439 39.1298 26.1008 32.1333H38.0948H50.0887C52.3521 39.1298 56.8659 43.5598 56.8659 43.5598L57.5688 38.7364C57.8332 36.9309 57.9686 35.106 57.9041 33.2811C57.1948 13.7362 38.0948 14.0457 38.0948 14.0457Z" fill="#303030"/>
<path d="M57.7878 36.944C60.9733 22.7705 62.45 17.1218 51.9263 16.7349C51.9263 16.7349 43.5434 7.55885 29.9374 8.13921C16.3314 8.71956 20.7292 16.6123 20.7292 16.6123C20.7292 16.6123 5.90444 16.6123 19.317 30.9921L39.7905 22.5835L53.9769 27.8453L57.7878 36.944Z" fill="#303030"/>
<path d="M18.4011 36.9439L17.2598 25.3369L21.3674 28.3225L18.4011 36.9439Z" fill="#303030"/>
<path d="M38.3465 53.1425C37.1601 53.0586 36.3798 52.633 36.0316 51.8721C35.1933 50.0344 37.36 47.0423 37.6114 46.707L38.224 47.1649C37.6179 47.9773 36.1735 50.3439 36.728 51.5562C36.9473 52.0398 37.5147 52.3171 38.4046 52.3816L38.3465 53.1425Z" fill="#303030"/>
<path d="M51.3904 41.017L44.6094 39.4585L44.1544 41.4381L50.9354 42.9967L51.3904 41.017Z" fill="#303030"/>
<path d="M32.0999 41.4528L31.6445 39.4731L24.8635 41.0331L25.3189 43.0127L32.0999 41.4528Z" fill="#303030"/>
<path d="M33.2187 46.5391H32.1999C32.1999 45.7395 31.5486 45.0882 30.749 45.0882C29.9494 45.0882 29.2981 45.7395 29.2981 46.5391H28.2793C28.2793 45.1785 29.3884 44.0693 30.749 44.0693C32.1096 44.0693 33.2187 45.172 33.2187 46.5391Z" fill="#303030"/>
<path d="M47.8574 46.5391H46.8386C46.8386 45.7395 46.1873 45.0882 45.3877 45.0882C44.5881 45.0882 43.9368 45.7395 43.9368 46.5391H42.918C42.918 45.1785 44.0271 44.0693 45.3877 44.0693C46.7483 44.0693 47.8574 45.172 47.8574 46.5391Z" fill="#303030"/>
</g>
<path d="M36.1377 25.3965C36.1494 24.6992 36.2285 24.1484 36.375 23.7441C36.5215 23.3398 36.8203 22.8916 37.2715 22.3994L38.4229 21.2129C38.915 20.6562 39.1611 20.0586 39.1611 19.4199C39.1611 18.8047 39 18.3242 38.6777 17.9785C38.3555 17.627 37.8867 17.4512 37.2715 17.4512C36.6738 17.4512 36.1934 17.6094 35.8301 17.9258C35.4668 18.2422 35.2852 18.667 35.2852 19.2002H33.6592C33.6709 18.251 34.0078 17.4863 34.6699 16.9062C35.3379 16.3203 36.2051 16.0273 37.2715 16.0273C38.3789 16.0273 39.2402 16.3262 39.8555 16.9238C40.4766 17.5156 40.7871 18.3301 40.7871 19.3672C40.7871 20.3926 40.3125 21.4033 39.3633 22.3994L38.4053 23.3486C37.9775 23.8232 37.7637 24.5059 37.7637 25.3965H36.1377ZM36.0674 28.1826C36.0674 27.9189 36.1465 27.6992 36.3047 27.5234C36.4688 27.3418 36.709 27.251 37.0254 27.251C37.3418 27.251 37.582 27.3418 37.7461 27.5234C37.9102 27.6992 37.9922 27.9189 37.9922 28.1826C37.9922 28.4463 37.9102 28.666 37.7461 28.8418C37.582 29.0117 37.3418 29.0967 37.0254 29.0967C36.709 29.0967 36.4688 29.0117 36.3047 28.8418C36.1465 28.666 36.0674 28.4463 36.0674 28.1826Z" fill="white"/>
</svg>
