<svg width="13" height="13" viewBox="0 0 13 13" fill="none" xmlns="http://www.w3.org/2000/svg">
<path d="M6.5 0C2.91049 0 0 2.91049 0 6.5C0 10.0895 2.91049 13 6.5 13C10.0895 13 13 10.0895 13 6.5C13 2.91049 10.0895 0 6.5 0ZM6.5 11.8973C3.51987 11.8973 1.10268 9.48013 1.10268 6.5C1.10268 3.51987 3.51987 1.10268 6.5 1.10268C9.48013 1.10268 11.8973 3.51987 11.8973 6.5C11.8973 9.48013 9.48013 11.8973 6.5 11.8973Z" fill="#90C63E"/>
<path d="M8.56931 8.91677L6.50033 7.4209V3.82994C6.50033 3.7661 6.4481 3.71387 6.38426 3.71387H5.68638C5.62254 3.71387 5.57031 3.7661 5.57031 3.82994V7.8257C5.57031 7.86342 5.58772 7.89824 5.61819 7.92001L8.01797 9.66978C8.0702 9.70751 8.14275 9.6959 8.18047 9.64512L8.59542 9.07927C8.63315 9.02559 8.62154 8.95304 8.56931 8.91677Z" fill="#90C63E"/>
</svg>
