<svg width="19" height="25" viewBox="0 0 19 25" fill="none" xmlns="http://www.w3.org/2000/svg">
<path d="M13.7906 7.80664H5.21289C4.8084 7.80664 4.48047 8.13457 4.48047 8.53906V24.2674C4.48047 24.5233 4.61401 24.7607 4.83281 24.8935C5.05147 25.0263 5.32373 25.0354 5.55078 24.9172L9.50176 22.8628L13.4527 24.9172C13.5588 24.9724 13.6748 24.9998 13.7906 24.9998C13.9225 24.9998 14.0542 24.9642 14.1707 24.8935C14.3895 24.7606 14.523 24.5233 14.523 24.2674V8.53906C14.523 8.13457 14.1951 7.80664 13.7906 7.80664Z" fill="#E50058"/>
<path d="M13.7889 7.80664H9.5V22.8628L13.451 24.9173C13.5571 24.9725 13.673 24.9999 13.7888 24.9999C13.9208 24.9999 14.0524 24.9643 14.1689 24.8935C14.3877 24.7606 14.5213 24.5233 14.5213 24.2674V8.53906C14.5213 8.13457 14.1934 7.80664 13.7889 7.80664Z" fill="#B40042"/>
<path d="M9.50151 18.3308C14.6185 18.3308 18.7667 14.2273 18.7667 9.16538C18.7667 4.10348 14.6185 0 9.50151 0C4.38449 0 0.236328 4.10348 0.236328 9.16538C0.236328 14.2273 4.38449 18.3308 9.50151 18.3308Z" fill="#D56A54"/>
<path d="M18.7652 9.16538C18.7652 4.11157 14.6088 0 9.5 0V18.3308C14.6088 18.3308 18.7652 14.2192 18.7652 9.16538Z" fill="#BB4633"/>
<path d="M9.50225 15.577C13.0804 15.577 15.9811 12.7065 15.9811 9.16548C15.9811 5.62446 13.0804 2.75391 9.50225 2.75391C5.9241 2.75391 3.02344 5.62446 3.02344 9.16548C3.02344 12.7065 5.9241 15.577 9.50225 15.577Z" fill="white"/>
<path d="M15.9788 9.16548C15.9788 5.63018 13.0725 2.75391 9.5 2.75391V15.577C13.0724 15.5771 15.9788 12.7008 15.9788 9.16548Z" fill="white"/>
</svg>
