<svg width="25" height="25" viewBox="0 0 25 25" fill="none" xmlns="http://www.w3.org/2000/svg">
<g clip-path="url(#clip0)">
<path d="M23.2909 8.83789H17.6311V7.37305H18.3587C18.7632 7.37305 19.0912 7.04512 19.0912 6.64062C19.0912 6.23613 18.7632 5.9082 18.3587 5.9082H17.6311V4.4458C17.6311 2.82905 16.3156 1.51367 14.6987 1.51367C13.0817 1.51367 11.7663 2.829 11.7663 4.4458V5.17578C11.7663 5.58027 12.0942 5.9082 12.4987 5.9082C12.9033 5.9082 13.2312 5.58027 13.2312 5.17578V4.4458C13.2312 3.63677 13.8895 2.97852 14.6986 2.97852C15.5078 2.97852 16.1661 3.63672 16.1661 4.4458V8.83789C15.3199 8.83789 2.56411 8.83789 1.70908 8.83789C0.766699 8.83789 0 9.60454 0 10.5469V12.5C0 12.9045 0.32793 13.2324 0.732471 13.2324H1.57476L2.02739 18.6635C2.16353 20.297 3.36294 21.6254 4.94473 21.9471V22.7539C4.94473 23.1584 5.27266 23.4863 5.6772 23.4863C6.08174 23.4863 6.40967 23.1584 6.40967 22.7539V22.0215H18.5927V22.7539C18.5927 23.1584 18.9206 23.4863 19.3251 23.4863C19.7297 23.4863 20.0576 23.1584 20.0576 22.7539V21.9471C21.6385 21.6255 22.8387 20.2979 22.975 18.6635L23.4277 13.2324H24.2675C24.6721 13.2324 25 12.9045 25 12.5V10.5469C25 9.60454 24.2333 8.83789 23.2909 8.83789ZM10.3057 16.1621H5.91123V10.3027H10.3018L10.3057 16.1621ZM1.46499 10.5469C1.46499 10.4123 1.57451 10.3027 1.70913 10.3027H4.44624V11.7676H1.46499V10.5469ZM21.5151 18.5418C21.4209 19.6716 20.459 20.5566 19.3252 20.5566H5.67725C4.54341 20.5566 3.58149 19.6716 3.48735 18.5418L3.04482 13.2324H4.44624V16.8945C4.44624 17.299 4.77417 17.627 5.17871 17.627H11.0387C11.4432 17.627 11.7714 17.2987 11.7711 16.894L11.7687 13.2324H21.9576L21.5151 18.5418ZM23.535 11.7676H11.7678L11.7668 10.3027H23.2909C23.4255 10.3027 23.535 10.4123 23.535 10.5469V11.7676Z" fill="black"/>
</g>
<defs>
<clipPath id="clip0">
<rect width="25" height="25" fill="white"/>
</clipPath>
</defs>
</svg>
