<svg width="30" height="30" viewBox="0 0 30 30" fill="none" xmlns="http://www.w3.org/2000/svg">
<g clip-path="url(#clip0)">
<path d="M8.5 19.5H1H0.5V26.5L1 29.5H5.5L8.5 29V19.5Z" fill="#90C63E"/>
<path d="M19.9995 13C18.3995 14.6 20.6662 18.6667 21.9995 20.5H27L28 19.5C28.1667 18.6667 28.6 16.7 29 15.5C29.5 14 29 13 28 11.5C27.2 10.3 24.6667 10 23.5 10C22.9998 10.3333 21.5995 11.4 19.9995 13Z" fill="#90C63E"/>
<path d="M12.1231 15.2596C12.0136 15.1506 11.863 15.0879 11.7083 15.0879C11.5542 15.0879 11.4031 15.1506 11.2941 15.2596C11.1852 15.3686 11.123 15.5197 11.123 15.6738C11.123 15.8278 11.1852 15.979 11.2941 16.088C11.4037 16.197 11.5543 16.2596 11.7083 16.2596C11.863 16.2596 12.0136 16.197 12.1231 16.088C12.2321 15.979 12.2942 15.8278 12.2942 15.6738C12.2942 15.5197 12.2321 15.3685 12.1231 15.2596Z" fill="black"/>
<path d="M28.3601 11.0147C27.866 10.5368 27.2947 10.1651 26.6758 9.90976C26.2739 7.45697 25.1313 5.23029 23.3666 3.46557C18.7522 -1.14868 11.2442 -1.14868 6.62993 3.46557C5.16831 4.92719 4.1206 6.73351 3.58101 8.71298C3.24749 8.70015 2.91222 8.78382 2.6124 8.96335C2.07714 9.2838 1.75763 9.84753 1.75763 10.4714V15.0961C1.34431 15.2773 1.05457 15.6898 1.05457 16.1693V18.753C0.4633 18.8121 0 19.3123 0 19.9189V28.2383C0 29.2074 0.788436 29.9959 1.75763 29.9959H7.14766C8.1168 29.9959 8.9053 29.2075 8.9053 28.2383V21.9833C10.2395 22.7877 11.706 23.3128 13.2408 23.5398V26.477H12.9577C11.3405 26.477 10.0247 27.7928 10.0247 29.41C10.0247 29.7336 10.2871 29.9959 10.6106 29.9959H19.3861C19.7097 29.9959 19.972 29.7336 19.972 29.41C19.972 27.7928 18.6562 26.477 17.039 26.477H16.7561V23.5393C18.3923 23.2974 19.9467 22.7183 21.3441 21.8269V27.6812C21.3441 28.9576 22.3825 29.9959 23.6589 29.9959H25.3872C26.6636 29.9959 27.702 28.9576 27.702 27.6812V20.7808L29.4438 17.246C30.4784 15.1462 30.043 12.642 28.3601 11.0147ZM2.92939 10.4714C2.92939 10.1717 3.12867 10.0201 3.21427 9.96876C3.29994 9.91743 3.52769 9.81337 3.79189 9.95499L5.66665 10.9595C5.85737 11.0617 5.97579 11.2596 5.97579 11.4759V14.9975H2.92939V10.4714ZM2.22638 16.1694H6.67903V18.7472H2.22638V16.1694ZM7.73354 28.2383C7.73354 28.5613 7.47075 28.8242 7.14766 28.8242H1.75763C1.43461 28.8242 1.17176 28.5614 1.17176 28.2383V19.919H7.73348V28.2383H7.73354ZM17.039 27.6487C17.8049 27.6487 18.4582 28.1401 18.7001 28.8242H11.2967C11.5386 28.1401 12.1919 27.6487 12.9578 27.6487H13.8266H16.1701H17.039ZM14.4125 26.477V23.6539C14.6058 23.6633 14.7996 23.6684 14.9943 23.6684C15.0478 23.6684 15.1015 23.6681 15.1551 23.6674C15.2986 23.6655 15.4416 23.6607 15.5843 23.6538V26.477H14.4125ZM8.90524 20.586V19.9189C8.9053 19.3123 8.442 18.8121 7.85073 18.7531V16.1693C7.85073 15.6899 7.56104 15.2773 7.14766 15.0961V11.476C7.14766 10.8269 6.79229 10.2333 6.22018 9.92675L4.68901 9.10638C5.1679 7.29021 6.12057 5.63219 7.45856 4.2942C11.616 0.136748 18.3807 0.136806 22.5381 4.2942C23.9985 5.75465 24.9864 7.5659 25.4183 9.56347C25.1589 9.52532 24.8951 9.50564 24.6287 9.50564C24.3269 9.50564 24.0288 9.53206 23.7365 9.58087C23.2635 7.74648 22.2104 6.08746 20.7378 4.87211C19.1278 3.54338 17.0895 2.81161 14.9985 2.81161C13.4121 2.81161 11.8517 3.22926 10.486 4.01951C9.16158 4.78586 8.04526 5.88449 7.25752 7.19681C7.091 7.4742 7.18088 7.83414 7.45838 8.00066C7.73577 8.16706 8.09565 8.0773 8.26223 7.7998C9.69666 5.41006 12.215 3.98324 14.9986 3.98324C15.7497 3.98324 16.4811 4.09117 17.1764 4.29326L12.8527 8.61689C12.6239 8.8457 12.6239 9.21665 12.8527 9.4454C12.9672 9.55984 13.1171 9.61702 13.267 9.61702C13.4169 9.61702 13.5669 9.55978 13.6813 9.4454L18.3752 4.75152C19.1219 5.10906 19.8068 5.58168 20.4045 6.14846L12.8765 13.6765C12.6477 13.9053 12.6477 14.2763 12.8765 14.5051C12.991 14.6195 13.1409 14.6767 13.2908 14.6767C13.4407 14.6767 13.5907 14.6195 13.7051 14.5051L21.1936 7.01658C21.8474 7.85306 22.3372 8.82829 22.6085 9.89816C21.9791 10.1537 21.3985 10.5299 20.8971 11.0148L20.8307 11.0791C19.1925 12.6632 18.7334 15.1178 19.6883 17.1869L20.0076 17.8788C18.6011 19.0458 16.8358 19.6846 14.9983 19.6846C13.4825 19.6846 12.0116 19.252 10.7445 18.4335C10.4728 18.2579 10.1101 18.336 9.93455 18.6078C9.75895 18.8796 9.83699 19.2423 10.1088 19.4178C11.5657 20.3589 13.2565 20.8563 14.9983 20.8563C17.0061 20.8563 18.9385 20.1923 20.5133 18.9744L21.2163 20.4977C17.5872 23.1058 12.5772 23.1476 8.90524 20.586ZM26.5301 27.6812C26.5301 28.3114 26.0173 28.8242 25.387 28.8242H23.6587C23.0284 28.8242 22.5157 28.3114 22.5157 27.6812V24.012H26.53V27.6812H26.5301ZM26.5301 22.8403H22.5157V21.2194H26.5301V22.8403ZM28.3925 16.7281L26.7567 20.0477H26.4561V17.6417C26.4561 17.3181 26.1938 17.0558 25.8703 17.0558C25.5467 17.0558 25.2844 17.3181 25.2844 17.6417V20.0477H22.2991L20.7523 16.6959C20.0058 15.0784 20.3647 13.1597 21.6454 11.9212L21.7118 11.8569C23.3474 10.2752 25.91 10.2751 27.5457 11.8569C28.8611 13.1291 29.2015 15.0866 28.3925 16.7281Z" fill="black"/>
<path d="M26.2852 15.2596C26.1762 15.1506 26.0251 15.0879 25.871 15.0879C25.7169 15.0879 25.5658 15.1506 25.4568 15.2596C25.3479 15.3686 25.2852 15.5197 25.2852 15.6738C25.2852 15.8278 25.3479 15.979 25.4568 16.088C25.5658 16.197 25.717 16.2596 25.871 16.2596C26.0251 16.2596 26.1762 16.197 26.2852 16.088C26.3942 15.979 26.4569 15.8278 26.4569 15.6738C26.4569 15.5197 26.3942 15.3685 26.2852 15.2596Z" fill="black"/>
</g>
<defs>
<clipPath id="clip0">
<rect width="30" height="30" fill="white"/>
</clipPath>
</defs>
</svg>
