<svg width="26" height="26" viewBox="0 0 26 26" fill="none" xmlns="http://www.w3.org/2000/svg">
<path d="M9.75 2.16699C10.3483 2.16699 10.8333 2.65202 10.8333 3.25033V4.33366H15.1667V3.25033C15.1667 2.65202 15.6517 2.16699 16.25 2.16699C16.8483 2.16699 17.3333 2.65202 17.3333 3.25033V4.33366H20.5833C21.78 4.33366 22.75 5.30371 22.75 6.50033V20.5837C22.75 21.7803 21.78 22.7503 20.5833 22.7503H5.41667C4.22005 22.7503 3.25 21.7803 3.25 20.5837V6.50033C3.25 5.30371 4.22005 4.33366 5.41667 4.33366H8.66667V3.25033C8.66667 2.65202 9.15169 2.16699 9.75 2.16699ZM8.66667 6.50033H5.41667V9.75033H20.5833V6.50033H17.3333V7.58366C17.3333 8.18197 16.8483 8.66699 16.25 8.66699C15.6517 8.66699 15.1667 8.18197 15.1667 7.58366V6.50033H10.8333V7.58366C10.8333 8.18197 10.3483 8.66699 9.75 8.66699C9.15169 8.66699 8.66667 8.18197 8.66667 7.58366V6.50033ZM20.5833 11.917H5.41667V20.5837H20.5833V11.917Z" fill="#A6AEC1"/>
</svg>
