<?xml version="1.0" encoding="UTF-8"?>
<svg width="25px" height="25px" viewBox="0 0 25 25" version="1.1" xmlns="http://www.w3.org/2000/svg" xmlns:xlink="http://www.w3.org/1999/xlink">
    <!-- Generator: Sketch 63.1 (92452) - https://sketch.com -->
    <title>call</title>
    <desc>Created with Sketch.</desc>
    <g id="Page-1" stroke="none" stroke-width="1" fill="none" fill-rule="evenodd">
        <g id="iPhone-11-Pro-Copy-18" transform="translate(-314.000000, -261.000000)" fill="#08B030" fill-rule="nonzero">
            <path d="M326.5,261 C319.595483,261 314,266.595483 314,273.5 C314,280.404517 319.595483,286 326.5,286 C333.404517,286 339,280.404517 339,273.5 C339,266.595483 333.404517,261 326.5,261 Z M328.373717,279.557495 C322.957906,276.88809 321.546201,272.088296 321.340862,270.342916 C321.135524,268.597536 324.164271,267.057495 324.164271,267.057495 L326.063655,270.291581 C326.063655,270.291581 324.010267,271.395277 324.292608,271.985626 C325.806982,275.168378 327.7577,276.349076 327.7577,276.349076 C328.399384,276.580082 329.811088,275.014374 329.811088,275.014374 L332.531828,277.581109 C332.557495,277.581109 330.273101,280.48152 328.373717,279.557495 Z" id="call"></path>
        </g>
    </g>
</svg>