<svg width="40" height="31" viewBox="0 0 40 31" fill="none" xmlns="http://www.w3.org/2000/svg">
<path d="M36.2034 5.42818H29.3442L26.9709 1.47161C26.7011 1.02379 26.3204 0.653094 25.8656 0.395313C25.4108 0.137533 24.8971 0.00137986 24.3743 0H14.7301C14.2075 0.00131306 13.694 0.137365 13.2393 0.395017C12.7846 0.652669 12.404 1.02322 12.1343 1.47087L9.76022 5.42818H3.02748C2.22479 5.42899 1.4552 5.74821 0.887614 6.3158C0.320025 6.88339 0.000801491 7.65297 0 8.45567V27.9613C0.000801491 28.764 0.320025 29.5336 0.887614 30.1012C1.4552 30.6688 2.22479 30.988 3.02748 30.9888H36.2034C37.0061 30.988 37.7757 30.6688 38.3433 30.1012C38.9108 29.5336 39.2301 28.764 39.2309 27.9613V8.45567C39.2301 7.65297 38.9108 6.88339 38.3433 6.3158C37.7757 5.74821 37.0061 5.42899 36.2034 5.42818ZM36.2034 27.9613H3.02748V8.45567H10.6176C10.8791 8.45565 11.136 8.3879 11.3635 8.25901C11.591 8.13012 11.7812 7.9445 11.9155 7.72023L14.7301 3.02748H24.3743L27.1889 7.72023C27.3234 7.94444 27.5136 8.13001 27.741 8.25889C27.9685 8.38777 28.2254 8.45556 28.4869 8.45567H36.2034V27.9613Z" fill="white"/>
<path d="M19.6175 9.56592C18.0515 9.56592 16.5205 10.0303 15.2184 10.9004C13.9162 11.7705 12.9013 13.0071 12.302 14.454C11.7027 15.9009 11.5458 17.493 11.8514 19.029C12.1569 20.565 12.911 21.9759 14.0184 23.0833C15.1258 24.1907 16.5367 24.9449 18.0727 25.2504C19.6087 25.5559 21.2008 25.3991 22.6477 24.7998C24.0946 24.2005 25.3313 23.1856 26.2014 21.8834C27.0715 20.5813 27.5359 19.0504 27.5359 17.4843C27.5334 15.3849 26.6984 13.3723 25.214 11.8878C23.7295 10.4034 21.7169 9.56834 19.6175 9.56592ZM19.6175 22.3751C18.6502 22.3751 17.7046 22.0882 16.9003 21.5508C16.096 21.0134 15.4692 20.2496 15.099 19.3559C14.7288 18.4622 14.632 17.4788 14.8207 16.5301C15.0094 15.5813 15.4752 14.7099 16.1592 14.0259C16.8432 13.3419 17.7147 12.8761 18.6634 12.6874C19.6121 12.4987 20.5955 12.5955 21.4892 12.9657C22.3829 13.3359 23.1467 13.9627 23.6841 14.767C24.2215 15.5713 24.5084 16.5169 24.5084 17.4843C24.507 18.781 23.9913 20.0242 23.0744 20.9411C22.1575 21.858 20.9143 22.3737 19.6175 22.3751Z" fill="white"/>
<path d="M31.0299 13.9505C31.9245 13.9505 32.6497 13.2253 32.6497 12.3307C32.6497 11.4361 31.9245 10.7109 31.0299 10.7109C30.1353 10.7109 29.4102 11.4361 29.4102 12.3307C29.4102 13.2253 30.1353 13.9505 31.0299 13.9505Z" fill="white"/>
</svg>
