<svg width="42" height="42" viewBox="0 0 42 42" fill="none" xmlns="http://www.w3.org/2000/svg">
<path d="M35.5378 32.7206C37.4227 30.4528 38.7336 27.7643 39.3598 24.8826C39.9859 22.001 39.9088 19.0109 39.1349 16.1653C38.361 13.3198 36.9132 10.7025 34.9139 8.53479C32.9145 6.36713 30.4225 4.7129 27.6487 3.71202C24.8748 2.71115 21.9007 2.39309 18.9779 2.78474C16.0551 3.17639 13.2696 4.26623 10.8571 5.96207C8.44462 7.65791 6.47604 9.90986 5.11793 12.5274C3.75981 15.145 3.05211 18.0511 3.05469 21C3.05569 25.2869 4.56636 29.4365 7.32163 32.7206L7.29538 32.743C7.38726 32.8532 7.49226 32.9477 7.58676 33.0567C7.70488 33.1918 7.83219 33.3191 7.95426 33.4504C8.32176 33.8494 8.69976 34.2326 9.09613 34.5923C9.21688 34.7025 9.34157 34.8049 9.46363 34.9099C9.88363 35.2721 10.3154 35.616 10.763 35.9363C10.8208 35.9756 10.8733 36.0268 10.931 36.0675V36.0518C14.005 38.215 17.6721 39.376 21.431 39.376C25.1899 39.376 28.857 38.215 31.931 36.0518V36.0675C31.9887 36.0268 32.0399 35.9756 32.099 35.9363C32.5452 35.6147 32.9784 35.2721 33.3984 34.9099C33.5204 34.8049 33.6451 34.7012 33.7659 34.5923C34.1622 34.2313 34.5402 33.8494 34.9077 33.4504C35.0298 33.3191 35.1558 33.1918 35.2752 33.0567C35.3684 32.9477 35.4747 32.8532 35.5666 32.7416L35.5378 32.7206ZM21.4297 10.5C22.5978 10.5 23.7397 10.8464 24.711 11.4954C25.6823 12.1444 26.4393 13.0668 26.8864 14.1461C27.3334 15.2253 27.4503 16.4128 27.2225 17.5585C26.9946 18.7042 26.432 19.7566 25.606 20.5826C24.78 21.4086 23.7276 21.9711 22.5819 22.199C21.4362 22.4269 20.2487 22.31 19.1695 21.8629C18.0902 21.4159 17.1678 20.6589 16.5188 19.6876C15.8698 18.7163 15.5234 17.5744 15.5234 16.4063C15.5234 14.8398 16.1457 13.3376 17.2533 12.2299C18.361 11.1223 19.8633 10.5 21.4297 10.5ZM10.9389 32.7206C10.9616 30.9973 11.662 29.3522 12.8884 28.1413C14.1148 26.9303 15.7687 26.2509 17.4922 26.25H25.3672C27.0907 26.2509 28.7446 26.9303 29.971 28.1413C31.1974 29.3522 31.8977 30.9973 31.9205 32.7206C29.042 35.3146 25.3045 36.7501 21.4297 36.7501C17.5549 36.7501 13.8174 35.3146 10.9389 32.7206Z" fill="#A6AEC1"/>
</svg>
