<svg xmlns="http://www.w3.org/2000/svg" width="35" height="30" viewBox="0 0 35 30">
  <g id="card" transform="translate(-100 -390)">
    <rect id="Rectangle_199" data-name="Rectangle 199" width="35" height="30" transform="translate(100 390)" fill="#1c1b1b" opacity="0"/>
    <path id="Path_112" data-name="Path 112" d="M27.173,171.845h26.55a3.189,3.189,0,0,1,2.213.9l.014.014a3.081,3.081,0,0,1,.9,2.178v13.719a3.1,3.1,0,0,1-.911,2.191,3.188,3.188,0,0,1-2.213.9H27.173a3.164,3.164,0,0,1-2.214-.9,3.1,3.1,0,0,1-.911-2.191V174.938a3.1,3.1,0,0,1,.911-2.192,3.165,3.165,0,0,1,2.214-.9Zm.294,15.467a.307.307,0,0,1-.308-.292.3.3,0,0,1,.308-.291h8.687a.3.3,0,0,1,.294.291.3.3,0,0,1-.294.292Zm0-1.262a.292.292,0,1,1,0-.583h5.927a.291.291,0,1,1,0,.583Zm0-1.248a.3.3,0,1,1,0-.6h5.927a.3.3,0,0,1,0,.6Zm18-1.068a2.884,2.884,0,0,1,1.878.679,3.676,3.676,0,0,1,.742-.457,3.121,3.121,0,0,1,1.135-.222,2.908,2.908,0,0,1,2.046.832h0a2.844,2.844,0,0,1,0,4.037h0a2.908,2.908,0,0,1-2.046.832,3.12,3.12,0,0,1-1.135-.222,3.2,3.2,0,0,1-.742-.472,2.822,2.822,0,0,1-1.878.694,2.872,2.872,0,0,1-2.032-.832h0a2.81,2.81,0,0,1,0-4.037,2.872,2.872,0,0,1,2.032-.832Zm1.625,1.248a2.316,2.316,0,0,0-3.25,0,2.278,2.278,0,0,0,0,3.2,2.316,2.316,0,0,0,3.25,0,2.323,2.323,0,0,0,.659-1.346h0v-.028h0v-.083h0V186.7h0v-.028h0v-.014l.014-.014h0v-.028h0v-.069h0v-.028h0v-.014l-.014-.014h0v-.028h0v-.028h0v-.083h0v-.028h0a2.322,2.322,0,0,0-.659-1.346Zm9.163-4.924H24.637v8.6a2.482,2.482,0,0,0,.743,1.776,2.533,2.533,0,0,0,1.794.735h26.55a2.523,2.523,0,0,0,2.536-2.511Zm-31.622-3.482H56.259v-1.636a2.521,2.521,0,0,0-.728-1.762l-.015-.014a2.528,2.528,0,0,0-1.793-.735H27.173a2.531,2.531,0,0,0-1.794.735,2.481,2.481,0,0,0-.743,1.776v1.636Z" transform="translate(77.428 223.405)"/>
  </g>
</svg>
