<svg width="22" height="22" viewBox="0 0 22 22" fill="none" xmlns="http://www.w3.org/2000/svg">
<g clip-path="url(#clip0)">
<path d="M20.4761 1.4873H1.52389C0.68366 1.4873 0 2.17097 0 3.01119V15.8692C0 16.7094 0.68366 17.3931 1.52389 17.3931H12.5752L12.2415 19.4281C12.1787 19.8112 12.3055 20.1582 12.5805 20.3562C12.8555 20.5542 13.2246 20.5648 13.5681 20.3838L15.9524 19.1288C16.019 19.0947 16.2023 19.0947 16.2688 19.1288L18.6531 20.3838C18.8162 20.4697 18.9851 20.5124 19.147 20.5124C19.3261 20.5124 19.4964 20.4601 19.6408 20.3561C19.9158 20.1581 20.0425 19.811 19.9798 19.4279L19.6462 17.393H20.4762C21.3164 17.393 22.0001 16.7093 22.0001 15.8691V3.01119C22 2.17088 21.3163 1.4873 20.4761 1.4873ZM16.1106 14.781C14.6462 14.781 13.4547 13.5895 13.4547 12.1251C13.4547 10.6607 14.6462 9.46918 16.1106 9.46918C17.5751 9.46918 18.7666 10.6607 18.7666 12.1251C18.7666 13.5895 17.5751 14.781 16.1106 14.781ZM16.8772 17.973C16.433 17.7391 15.7882 17.7391 15.3441 17.973L13.6584 18.8603L14.1943 15.5914C14.7627 15.9069 15.4159 16.0871 16.1107 16.0871C16.8055 16.0871 17.4587 15.9068 18.0272 15.5914L18.236 16.8658C18.2365 16.8679 18.2367 16.8701 18.2371 16.8722L18.5631 18.8603L16.8772 17.973ZM20.6938 15.8692C20.6938 15.9872 20.5941 16.0869 20.4761 16.0869H19.4319L19.1934 14.6319C19.1925 14.6261 19.1909 14.6206 19.1898 14.6149C19.7414 13.9341 20.0728 13.0676 20.0728 12.1251C20.0728 9.94036 18.2955 8.16298 16.1107 8.16298C13.926 8.16298 12.1486 9.94036 12.1486 12.1251C12.1486 13.0676 12.48 13.9339 13.0317 14.6149C13.0306 14.6205 13.029 14.6261 13.028 14.6318L12.7893 16.088C12.782 16.0877 12.775 16.0869 12.7677 16.0869H1.52389C1.4059 16.0869 1.30619 15.9872 1.30619 15.8692V3.01119C1.30619 2.8932 1.4059 2.7935 1.52389 2.7935H20.4761C20.5941 2.7935 20.6938 2.8932 20.6938 3.01119V15.8692Z" fill="#A6AEC1"/>
<path d="M18.1656 5.24609H3.36208C3.00131 5.24609 2.70898 5.53842 2.70898 5.89919C2.70898 6.25996 3.00131 6.55229 3.36208 6.55229H18.1656C18.5263 6.55229 18.8187 6.25996 18.8187 5.89919C18.8187 5.53842 18.5263 5.24609 18.1656 5.24609Z" fill="#A6AEC1"/>
<path d="M9.6318 8.78711H3.36208C3.00131 8.78711 2.70898 9.07943 2.70898 9.44021C2.70898 9.80098 3.00131 10.0933 3.36208 10.0933H9.6318C9.99257 10.0933 10.2849 9.80098 10.2849 9.44021C10.2849 9.07943 9.99257 8.78711 9.6318 8.78711Z" fill="#A6AEC1"/>
</g>
<defs>
<clipPath id="clip0">
<rect width="22" height="22" fill="white"/>
</clipPath>
</defs>
</svg>
