<svg width="25" height="25" viewBox="0 0 25 25" fill="none" xmlns="http://www.w3.org/2000/svg">
<path d="M12.4987 22.9163C6.74557 22.9163 2.08203 18.2528 2.08203 12.4997C2.08203 6.74655 6.74557 2.08301 12.4987 2.08301C18.2518 2.08301 22.9154 6.74655 22.9154 12.4997C22.9154 18.2528 18.2518 22.9163 12.4987 22.9163ZM12.4987 20.833C14.7088 20.833 16.8285 19.955 18.3913 18.3922C19.9541 16.8294 20.832 14.7098 20.832 12.4997C20.832 10.2895 19.9541 8.16992 18.3913 6.60712C16.8285 5.04432 14.7088 4.16634 12.4987 4.16634C10.2886 4.16634 8.16895 5.04432 6.60614 6.60712C5.04334 8.16992 4.16536 10.2895 4.16536 12.4997C4.16536 14.7098 5.04334 16.8294 6.60614 18.3922C8.16895 19.955 10.2886 20.833 12.4987 20.833ZM11.4602 16.6663L7.04037 12.2466L8.51328 10.7736L11.4602 13.7205L17.3518 7.8278L18.8258 9.30072L11.4602 16.6663Z" fill="#90C63E"/>
</svg>
