<svg width="18" height="18" viewBox="0 0 18 18" fill="none" xmlns="http://www.w3.org/2000/svg">
<path d="M8.99935 2.33366C5.31745 2.33366 2.33268 5.31843 2.33268 9.00033C2.33268 12.6822 5.31745 15.667 8.99935 15.667C12.6812 15.667 15.666 12.6822 15.666 9.00033C15.666 5.31843 12.6812 2.33366 8.99935 2.33366ZM0.666016 9.00033C0.666016 4.39795 4.39698 0.666992 8.99935 0.666992C13.6017 0.666992 17.3327 4.39795 17.3327 9.00033C17.3327 13.6027 13.6017 17.3337 8.99935 17.3337C4.39698 17.3337 0.666016 13.6027 0.666016 9.00033ZM8.99935 4.00033C9.45959 4.00033 9.83268 4.37342 9.83268 4.83366V8.65515L12.0886 10.9111C12.414 11.2365 12.414 11.7641 12.0886 12.0896C11.7632 12.415 11.2355 12.415 10.9101 12.0896L8.41009 9.58958C8.25381 9.4333 8.16602 9.22134 8.16602 9.00033V4.83366C8.16602 4.37342 8.53911 4.00033 8.99935 4.00033Z" fill="#A6AEC1"/>
</svg>
