<svg width="14" height="14" viewBox="0 0 14 14" fill="none" xmlns="http://www.w3.org/2000/svg">
<path d="M3.08687 3.08785C3.31468 2.86004 3.68402 2.86004 3.91183 3.08785L6.99935 6.17537L10.0869 3.08785C10.3147 2.86004 10.684 2.86004 10.9118 3.08785C11.1396 3.31565 11.1396 3.685 10.9118 3.9128L7.82431 7.00033L10.9118 10.0878C11.1396 10.3157 11.1396 10.685 10.9118 10.9128C10.684 11.1406 10.3147 11.1406 10.0869 10.9128L6.99935 7.82528L3.91183 10.9128C3.68402 11.1406 3.31468 11.1406 3.08687 10.9128C2.85906 10.685 2.85906 10.3157 3.08687 10.0878L6.17439 7.00033L3.08687 3.9128C2.85906 3.685 2.85906 3.31565 3.08687 3.08785Z" fill="#A6AEC1" stroke="#A6AEC1" stroke-width="0.5" stroke-miterlimit="10" stroke-linecap="round" stroke-linejoin="round"/>
</svg>
