<svg width="24" height="24" viewBox="0 0 24 24" fill="none" xmlns="http://www.w3.org/2000/svg">
<path d="M19.7812 9.87793V8.47168H1.40625V11.9873C1.40625 15.257 3.12975 18.1296 5.72386 19.7686H0V20.4717C0 22.4102 1.57711 23.9873 3.51562 23.9873H17.6719C19.6104 23.9873 21.1875 22.4102 21.1875 20.4717V19.7686H15.4636C16.0891 19.3734 16.6622 18.9073 17.1898 18.3623H19.0781C21.792 18.3623 24 16.1334 24 13.3936V9.87793H19.7812ZM19.6608 21.1748C19.3706 21.9933 18.5886 22.5811 17.6719 22.5811H3.51562C2.59894 22.5811 1.81692 21.9933 1.52672 21.1748H19.6608ZM10.5938 19.7686C6.30314 19.7686 2.8125 16.2779 2.8125 11.9873V9.87793H18.375V11.9873C18.375 16.2779 14.8844 19.7686 10.5938 19.7686ZM22.5938 13.3936C22.5938 15.3579 21.0166 16.9561 19.0781 16.9561H18.3112C19.2678 15.484 19.7812 13.7726 19.7812 11.9873V11.2842H22.5938V13.3936Z" fill="black" fill-opacity="0.87"/>
<path d="M7.502 0.0126953L6.72195 1.18279C7.00123 1.36898 7.16141 1.66832 7.16141 2.00399C7.16141 2.33966 7.00123 2.63901 6.72195 2.8252C6.05464 3.27009 5.65625 4.02327 5.65625 4.83993C5.65625 5.65659 6.05469 6.40977 6.72195 6.85462L7.502 5.68452C7.22272 5.49834 7.0625 5.19046 7.0625 4.83988C7.0625 4.4893 7.22267 4.18148 7.502 3.99524C8.16931 3.55035 8.5677 2.80593 8.5677 2.00395C8.5677 1.20196 8.16931 0.457539 7.502 0.0126953Z" fill="black" fill-opacity="0.87"/>
<path d="M11.0176 0.0126953L10.2376 1.18279C10.5169 1.36898 10.677 1.66832 10.677 2.00399C10.677 2.33966 10.5169 2.63901 10.2376 2.8252C9.57027 3.27009 9.17188 4.02327 9.17188 4.83993C9.17188 5.65659 9.57031 6.40977 10.2376 6.85462L11.0176 5.68452C10.7383 5.49834 10.5781 5.19046 10.5781 4.83988C10.5781 4.4893 10.7383 4.18148 11.0176 3.99524C11.6849 3.55035 12.0833 2.80593 12.0833 2.00395C12.0833 1.20196 11.6849 0.457539 11.0176 0.0126953Z" fill="black" fill-opacity="0.87"/>
<path d="M14.5801 0.0126953L13.8001 1.18279C14.0794 1.36898 14.2395 1.66832 14.2395 2.00399C14.2395 2.33966 14.0794 2.63901 13.8001 2.8252C13.1328 3.27009 12.7344 4.02327 12.7344 4.83993C12.7344 5.65659 13.1328 6.40977 13.8001 6.85462L14.5801 5.68452C14.3008 5.49834 14.1406 5.19046 14.1406 4.83988C14.1406 4.4893 14.3008 4.18148 14.5801 3.99524C15.2474 3.55035 15.6458 2.80593 15.6458 2.00395C15.6458 1.20196 15.2474 0.457539 14.5801 0.0126953Z" fill="black" fill-opacity="0.87"/>
</svg>
