<svg width="23" height="20" viewBox="0 0 23 20" fill="none" xmlns="http://www.w3.org/2000/svg">
<path d="M7.18645 7.9375C6.4259 7.9375 5.81145 8.55195 5.81145 9.3125C5.81145 10.073 6.4259 10.6875 7.18645 10.6875C7.94699 10.6875 8.56145 10.073 8.56145 9.3125C8.56145 8.55195 7.94699 7.9375 7.18645 7.9375ZM11.9989 7.9375C11.2384 7.9375 10.6239 8.55195 10.6239 9.3125C10.6239 10.073 11.2384 10.6875 11.9989 10.6875C12.7595 10.6875 13.3739 10.073 13.3739 9.3125C13.3739 8.55195 12.7595 7.9375 11.9989 7.9375ZM16.8114 7.9375C16.0509 7.9375 15.4364 8.55195 15.4364 9.3125C15.4364 10.073 16.0509 10.6875 16.8114 10.6875C17.572 10.6875 18.1864 10.073 18.1864 9.3125C18.1864 8.55195 17.572 7.9375 16.8114 7.9375ZM11.9989 0.375C5.92316 0.375 0.998946 4.37539 0.998946 9.3125C0.998946 11.3578 1.85402 13.2312 3.27199 14.7395C2.63176 16.4324 1.29973 17.8676 1.27824 17.8848C0.994649 18.1855 0.917305 18.6238 1.08059 19.002C1.24387 19.3801 1.6177 19.625 2.0302 19.625C4.67277 19.625 6.75676 18.5207 8.00715 17.6355C9.24895 18.0266 10.5896 18.25 11.9989 18.25C18.0747 18.25 22.9989 14.2496 22.9989 9.3125C22.9989 4.37539 18.0747 0.375 11.9989 0.375ZM11.9989 16.1875C10.8517 16.1875 9.71731 16.0113 8.6302 15.6676L7.65481 15.3582L6.81691 15.9512C6.20246 16.3852 5.36027 16.8707 4.34621 17.1973C4.65988 16.6773 4.96496 16.093 5.20129 15.4699L5.65676 14.2625L4.7716 13.3258C3.99387 12.4965 3.06145 11.1258 3.06145 9.3125C3.06145 5.52266 7.07043 2.4375 11.9989 2.4375C16.9275 2.4375 20.9364 5.52266 20.9364 9.3125C20.9364 13.1023 16.9275 16.1875 11.9989 16.1875Z" fill="#90C63E"/>
</svg>
