<svg width="23" height="20" viewBox="0 0 23 20" fill="none" xmlns="http://www.w3.org/2000/svg">
<path d="M7.18645 8.08137C6.4259 8.08137 5.81145 8.68133 5.81145 9.42393C5.81145 10.1665 6.4259 10.7665 7.18645 10.7665C7.94699 10.7665 8.56145 10.1665 8.56145 9.42393C8.56145 8.68133 7.94699 8.08137 7.18645 8.08137ZM11.9989 8.08137C11.2384 8.08137 10.6239 8.68133 10.6239 9.42393C10.6239 10.1665 11.2384 10.7665 11.9989 10.7665C12.7595 10.7665 13.3739 10.1665 13.3739 9.42393C13.3739 8.68133 12.7595 8.08137 11.9989 8.08137ZM16.8114 8.08137C16.0509 8.08137 15.4364 8.68133 15.4364 9.42393C15.4364 10.1665 16.0509 10.7665 16.8114 10.7665C17.572 10.7665 18.1864 10.1665 18.1864 9.42393C18.1864 8.68133 17.572 8.08137 16.8114 8.08137ZM11.9989 0.697266C5.92317 0.697266 0.998946 4.60329 0.998946 9.42393C0.998946 11.421 1.85402 13.2502 3.27199 14.7229C2.63176 16.3759 1.29973 17.7772 1.27824 17.794C0.994649 18.0877 0.917305 18.5156 1.08059 18.8848C1.24387 19.254 1.6177 19.4932 2.0302 19.4932C4.67277 19.4932 6.75676 18.4149 8.00715 17.5506C9.24895 17.9324 10.5896 18.1506 11.9989 18.1506C18.0747 18.1506 22.9989 14.2446 22.9989 9.42393C22.9989 4.60329 18.0747 0.697266 11.9989 0.697266ZM11.9989 16.1368C10.8517 16.1368 9.71731 15.9647 8.6302 15.6291L7.65481 15.327L6.81692 15.906C6.20246 16.3297 5.36027 16.8038 4.34621 17.1227C4.65988 16.615 4.96496 16.0445 5.20129 15.4361L5.65676 14.2572L4.7716 13.3425C3.99387 12.5328 3.06145 11.1944 3.06145 9.42393C3.06145 5.72349 7.07043 2.71111 11.9989 2.71111C16.9275 2.71111 20.9364 5.72349 20.9364 9.42393C20.9364 13.1244 16.9275 16.1368 11.9989 16.1368Z" fill="#A6AEC1"/>
</svg>
