<svg width="24" height="21" viewBox="0 0 24 21" fill="none" xmlns="http://www.w3.org/2000/svg">
<path d="M19.2133 3H2.78667C1.24667 3 0 4.23636 0 5.76364V16.2364C0 17.7636 1.24667 19 2.78667 19H19.2133C20.7533 19 22 17.7636 22 16.2364V5.76364C22 4.23636 20.7533 3 19.2133 3ZM20.5333 16.2364C20.5333 16.9564 19.9393 17.5455 19.2133 17.5455H2.78667C2.06067 17.5455 1.46667 16.9564 1.46667 16.2364V5.76364C1.46667 5.04364 2.06067 4.45455 2.78667 4.45455H19.2133C19.9393 4.45455 20.5333 5.04364 20.5333 5.76364V16.2364Z" fill="black" fill-opacity="0.87"/>
<path d="M6.60026 14.6367H3.66693C3.26198 14.6367 2.93359 14.9624 2.93359 15.364C2.93359 15.7656 3.26198 16.0913 3.66693 16.0913H6.60026C7.00521 16.0913 7.33359 15.7656 7.33359 15.364C7.33359 14.9624 7.00521 14.6367 6.60026 14.6367Z" fill="black" fill-opacity="0.87"/>
<path d="M18.3336 6.63672H3.66693C3.26198 6.63672 2.93359 6.96239 2.93359 7.36399C2.93359 7.76559 3.26198 8.09126 3.66693 8.09126H18.3336C18.7385 8.09126 19.0669 7.76559 19.0669 7.36399C19.0669 6.96239 18.7385 6.63672 18.3336 6.63672Z" fill="black" fill-opacity="0.87"/>
</svg>
