<?xml version="1.0" encoding="UTF-8"?>
<svg width="25px" height="18px" viewBox="0 0 25 18" version="1.1" xmlns="http://www.w3.org/2000/svg" xmlns:xlink="http://www.w3.org/1999/xlink">
    <!-- Generator: Sketch 63.1 (92452) - https://sketch.com -->
    <title>credit_card</title>
    <desc>Created with Sketch.</desc>
    <g id="Page-1" stroke="none" stroke-width="1" fill="none" fill-rule="evenodd">
        <g id="iPhone-11-Pro-Copy-14" transform="translate(-30.000000, -169.000000)" fill-rule="nonzero">
            <g id="credit_card" transform="translate(30.000000, 169.000000)">
                <path d="M23.6133621,18 L1.38663793,18 C0.620689655,18 0,17.3828571 0,16.6212857 L0,1.37871429 C0,0.617142857 0.620689655,0 1.38663793,0 L23.6133621,0 C24.3793103,0 25,0.617142857 25,1.37871429 L25,16.6212857 C25,17.3828571 24.3793103,18 23.6133621,18" id="XMLID_115_" fill="#ADADAD"></path>
                <polygon id="XMLID_114_" fill="#696663" points="0 2 25 2 25 5 0 5"></polygon>
                <path d="M6.54545455,9 L2.45454545,9 C2.20363636,9 2,8.776 2,8.5 C2,8.224 2.20363636,8 2.45454545,8 L6.54545455,8 C6.79636364,8 7,8.224 7,8.5 C7,8.776 6.79636364,9 6.54545455,9" id="XMLID_113_" fill="#EAEAEA"></path>
                <path d="M12.5454545,9 L8.45454545,9 C8.20363636,9 8,8.776 8,8.5 C8,8.224 8.20363636,8 8.45454545,8 L12.5454545,8 C12.7963636,8 13,8.224 13,8.5 C13,8.776 12.7963636,9 12.5454545,9" id="XMLID_112_" fill="#EAEAEA"></path>
                <path d="M2.66666667,11 L2.33333333,11 C2.14933333,11 2,10.776 2,10.5 C2,10.224 2.14933333,10 2.33333333,10 L2.66666667,10 C2.85066667,10 3,10.224 3,10.5 C3,10.776 2.85066667,11 2.66666667,11" id="XMLID_111_" fill="#EAEAEA"></path>
                <path d="M5.5,11 L4.5,11 C4.224,11 4,10.776 4,10.5 C4,10.224 4.224,10 4.5,10 L5.5,10 C5.776,10 6,10.224 6,10.5 C6,10.776 5.776,11 5.5,11" id="XMLID_110_" fill="#EAEAEA"></path>
                <path d="M7.66666667,11 L7.33333333,11 C7.14933333,11 7,10.776 7,10.5 C7,10.224 7.14933333,10 7.33333333,10 L7.66666667,10 C7.85066667,10 8,10.224 8,10.5 C8,10.776 7.85066667,11 7.66666667,11" id="XMLID_109_" fill="#EAEAEA"></path>
                <path d="M10.5,11 L9.5,11 C9.224,11 9,10.776 9,10.5 C9,10.224 9.224,10 9.5,10 L10.5,10 C10.776,10 11,10.224 11,10.5 C11,10.776 10.776,11 10.5,11" id="XMLID_108_" fill="#EAEAEA"></path>
                <path d="M12.5,11 C12.37,11 12.24,10.9446541 12.145,10.8540881 C12.055,10.7584906 12,10.6327044 12,10.4968553 C12,10.3660377 12.055,10.2352201 12.145,10.1396226 C12.33,9.95345912 12.665,9.95345912 12.855,10.1396226 C12.945,10.2352201 13,10.3660377 13,10.4968553 C13,10.627673 12.945,10.7584906 12.855,10.8540881 C12.76,10.9446541 12.63,11 12.5,11" id="XMLID_107_" fill="#EAEAEA"></path>
                <path d="M20,13.5 C20,14.8808333 18.8808333,16 17.5,16 C16.1191667,16 15,14.8808333 15,13.5 C15,12.1191667 16.1191667,11 17.5,11 C18.8808333,11 20,12.1191667 20,13.5" id="XMLID_106_" fill="#787271"></path>
                <path d="M23,13.5 C23,14.8808333 21.8808333,16 20.5,16 C19.1191667,16 18,14.8808333 18,13.5 C18,12.1191667 19.1191667,11 20.5,11 C21.8808333,11 23,12.1191667 23,13.5" id="XMLID_105_" fill="#555656"></path>
            </g>
        </g>
    </g>
</svg>