<svg width="16" height="22" viewBox="0 0 16 22" fill="none" xmlns="http://www.w3.org/2000/svg">
<path d="M8.4997 14.5669V13.5001H9.5667V12.4333H8.4997V11.8998H7.43314V12.4333C6.78986 12.4333 5.83308 12.8594 5.83308 14.0331C5.83308 15.2073 6.78986 15.6332 7.43314 15.6332V16.7H6.36636V17.7668H7.43314V18.3003H8.4997V17.7668C9.14298 17.7668 10.0998 17.3406 10.0998 16.1669C10.0998 14.9928 9.14298 14.5669 8.4997 14.5669ZM7.43314 14.5664C7.18806 14.5587 6.89986 14.4595 6.89986 14.0334C6.89986 13.6037 7.19312 13.5062 7.43314 13.5001V14.5664ZM8.4997 16.7002V15.6336C8.74478 15.6413 9.0332 15.7406 9.0332 16.1669C9.0332 16.5966 8.73994 16.694 8.4997 16.7002ZM10.0195 5.44588L11.7755 1.05556C9.812 -0.72996 7.26198 1.00012 7.02724 1.0648C5.87972 0.35816 4.9852 0 4.36634 0C3.64694 0 3.20012 0.47234 3.20012 1.23288C3.20012 2.78212 4.17406 4.74958 4.90314 6.00534C1.9118 8.02714 0 12.5675 0 16.1667C0 20.9519 3.11498 22 7.96642 22C12.0815 22 15.9328 21.3664 15.9328 16.1669C15.9328 12.8363 14.034 7.20654 10.0195 5.44588ZM7.21358 2.62856C7.93408 2.50976 9.3082 1.67552 9.78098 1.82578L8.31006 5.49978C8.31006 5.49978 7.27496 5.4472 6.4911 5.75498C6.06232 5.00984 5.39748 3.65728 5.07254 2.71788C5.775 2.83932 6.79382 2.72514 7.21358 2.62856ZM7.96642 20.4338C3.12136 20.4338 1.56618 19.3972 1.56618 16.1669C1.56618 12.294 4.09068 7.46922 7.11502 6.67898C6.34458 7.78844 5.82538 9.29676 6.39386 11.002L7.40542 10.6645C6.95552 9.31458 7.37462 8.17696 7.93562 7.35658C8.20622 7.72442 8.49992 8.2401 8.49992 8.69968H9.5667C9.5667 7.89052 9.10778 7.13086 8.7494 6.66094C11.8041 7.39552 14.3667 12.2648 14.3667 16.1667C14.3667 19.3972 12.8113 20.4338 7.96642 20.4338Z" fill="black"/>
</svg>
