<svg width="27" height="28" viewBox="0 0 27 28" fill="none" xmlns="http://www.w3.org/2000/svg">
<path d="M2.81248 4.64941H24.1875C25.7408 4.64941 26.9999 5.95044 26.9999 7.55533V20.3415C26.9999 21.9464 25.7408 23.2474 24.1875 23.2474H2.81248C1.25919 23.2474 0 21.9464 0 20.3415V7.55539C0 5.95044 1.25919 4.64941 2.81248 4.64941Z" fill="#2196F3"/>
<path d="M27 8.13672H0V12.7862H27V8.13672Z" fill="#455A64"/>
<path d="M8.4375 17.4358H3.93752C3.62686 17.4358 3.375 17.1756 3.375 16.8546C3.375 16.5337 3.62686 16.2734 3.93752 16.2734H8.4375C8.74816 16.2734 9.00002 16.5337 9.00002 16.8546C9.00002 17.1756 8.74816 17.4358 8.4375 17.4358Z" fill="#FAFAFA"/>
<path d="M11.8125 19.761H3.93752C3.62686 19.761 3.375 19.5008 3.375 19.1798C3.375 18.8589 3.62686 18.5986 3.93752 18.5986H11.8125C12.1232 18.5986 12.375 18.8589 12.375 19.1798C12.375 19.5008 12.1232 19.761 11.8125 19.761Z" fill="#FAFAFA"/>
</svg>
