<svg width="22" height="24" viewBox="0 0 22 24" fill="none" xmlns="http://www.w3.org/2000/svg">
<path d="M20.1152 3.43772L20.1153 3.4377C20.3448 3.40186 20.5783 3.46787 20.7548 3.61893C20.9312 3.76988 21.0328 3.99048 21.0328 4.22266V9.06089C21.0328 12.1314 20.1065 15.0875 18.3544 17.6089C16.6023 20.1304 14.1548 22.0294 11.2771 23.1001M20.1152 3.43772L11.2248 22.9596M20.1152 3.43772L19.6694 3.50767C18.2259 3.73402 16.7228 3.63103 15.3237 3.20964L15.2804 3.35327L15.3237 3.20964C13.9245 2.78825 12.6146 2.04416 11.5362 1.05817C11.2326 0.780609 10.7674 0.780609 10.4639 1.05817C9.38548 2.04416 8.0755 2.78825 6.67637 3.20964C5.27719 3.63099 3.77414 3.73411 2.33059 3.50763L2.33058 3.50762L1.88482 3.43771L1.88479 3.43771C1.65525 3.40176 1.42168 3.46789 1.24521 3.61892C1.06878 3.76988 0.967187 3.99048 0.967187 4.22266V9.06089C0.967187 12.1314 1.89346 15.0875 3.64557 17.6089C5.39772 20.1304 7.84524 22.0294 10.7229 23.1001M20.1152 3.43772L10.7752 22.9596M11.2771 23.1001L11.2248 22.9596M11.2771 23.1001C11.2771 23.1001 11.2771 23.1001 11.2771 23.1001L11.2248 22.9596M11.2771 23.1001C11.1877 23.1334 11.0938 23.15 11 23.15C10.9062 23.15 10.8123 23.1334 10.7229 23.1001M11.2248 22.9596C11.1523 22.9866 11.0761 23 11 23C10.9239 23 10.8477 22.9866 10.7752 22.9596M10.7229 23.1001L10.7752 22.9596M10.7229 23.1001C10.7229 23.1001 10.7229 23.1001 10.7229 23.1001L10.7752 22.9596M14.8654 4.73122L14.9087 4.58759L14.8654 4.73122C16.3398 5.17522 17.9126 5.31515 19.4438 5.14127V9.06089C19.4438 9.84369 19.3759 10.618 19.2433 11.3773H11.7945V3.27519C12.7388 3.90917 13.7786 4.4039 14.8654 4.73122ZM7.1346 4.73122L7.09135 4.58759L7.1346 4.73122C8.22142 4.4039 9.26118 3.90917 10.2055 3.2752V11.3773H2.75671C2.62408 10.618 2.55625 9.8437 2.55625 9.06089V5.14126C4.08738 5.31507 5.6602 5.17523 7.1346 4.73122ZM17.0495 16.7021L17.1727 16.7877L17.0495 16.7021C15.7054 18.6364 13.9039 20.1601 11.7945 21.1585V12.9664H18.8643C18.4616 14.2879 17.8529 15.546 17.0495 16.7021ZM4.9505 16.7021C4.14716 15.546 3.53846 14.2879 3.13574 12.9664H10.2055V21.1585C8.09605 20.1601 6.29459 18.6364 4.9505 16.7021Z" fill="#FD6D6D" stroke="#FD6D6D" stroke-width="0.3"/>
</svg>
