<svg width="24" height="24" viewBox="0 0 24 24" fill="none" xmlns="http://www.w3.org/2000/svg">
<path fill-rule="evenodd" clip-rule="evenodd" d="M20.3333 5.42829C20.5616 5.43249 20.7456 5.60662 20.75 5.82268V18.4432C20.75 18.6653 20.5597 18.8454 20.325 18.8454H3.66667C3.43521 18.8411 3.25 18.6623 3.25 18.4432V5.82268C3.25443 5.60662 3.43841 5.43248 3.66667 5.42829H20.3333ZM20.3333 4.24512H3.66667C2.74619 4.24512 2 4.95142 2 5.82268V18.4432C2 19.3144 2.74619 20.0207 3.66667 20.0207H20.3333C21.2538 20.0207 22 19.3144 22 18.4432V5.82268C22 4.95142 21.2538 4.24512 20.3333 4.24512Z" fill="#212529"/>
<path d="M2.96484 8.18164H20.8898" stroke="#212529" stroke-width="1.25" stroke-linecap="round" stroke-linejoin="round"/>
<path d="M2.99219 11.3438H20.9172" stroke="#212529" stroke-width="1.25" stroke-linecap="round" stroke-linejoin="round"/>
<path d="M6.16797 16.0771H11.168" stroke="#212529" stroke-width="1.25" stroke-linecap="round" stroke-linejoin="round"/>
<path d="M16.168 16.0771H17.8346" stroke="#212529" stroke-width="1.25" stroke-linecap="round" stroke-linejoin="round"/>
</svg>
