<svg width="21" height="21" viewBox="0 0 21 21" fill="none" xmlns="http://www.w3.org/2000/svg">
<path d="M20.3848 0H0.615234C0.275461 0 0 0.275461 0 0.615234V20.3848C0 20.7245 0.275461 21 0.615234 21H5.57812C5.9179 21 6.19336 20.7245 6.19336 20.3848C6.19336 17.8754 5.25451 15.2803 3.93717 13.1056C4.57911 13.5121 5.41673 14.1618 6.45561 15.2006C6.57571 15.3208 6.73317 15.3809 6.89062 15.3809C7.43379 15.3809 7.71438 14.7193 7.32564 14.3306C6.13983 13.1448 5.16879 12.4037 4.40245 11.9421C7.00346 10.6069 7.77845 6.80847 7.83571 3.89653H13.1643C13.2215 6.8074 13.996 10.6066 16.5975 11.9421C15.8312 12.4037 14.8602 13.1448 13.6743 14.3306C13.4341 14.5708 13.4341 14.9604 13.6743 15.2007C13.9146 15.4409 14.3041 15.4409 14.5444 15.2007C15.5833 14.1618 16.4209 13.5121 17.0628 13.1056C15.7461 15.2792 14.8066 17.8744 14.8066 20.3848C14.8066 20.7245 15.0821 21 15.4219 21H20.3848C20.7245 21 21 20.7245 21 20.3848C21 19.1577 21 1.49982 21 0.615234C21 0.275461 20.7245 0 20.3848 0ZM1.23047 1.23047H19.7695V2.66602C19.1191 2.66602 1.88069 2.66602 1.23047 2.66602V1.23047ZM4.94218 19.7695H1.23047V12.4277H1.9555C2.57656 13.252 4.71134 16.3088 4.94218 19.7695ZM4.7072 10.194C4.07535 10.8499 3.31267 11.1773 2.37891 11.1955C2.26886 11.1932 2.76474 11.1973 1.23047 11.1973V3.89648H6.60278C6.57074 5.23733 6.32174 8.51817 4.7072 10.194ZM16.2928 10.194C14.6783 8.51817 14.4293 5.23733 14.3972 3.89648H19.7695V11.1973C18.3239 11.1973 18.7414 11.1939 18.6631 11.1955C17.7288 11.1776 16.9249 10.8501 16.2928 10.194ZM19.7695 19.7695H16.0578C16.2887 16.3088 18.4234 13.252 19.0445 12.4277H19.7695V19.7695Z" fill="black" fill-opacity="0.87"/>
</svg>
