<svg xmlns="http://www.w3.org/2000/svg" width="35" height="30" viewBox="0 0 35 30">
  <g id="curtain" transform="translate(-24 -392)">
    <rect id="Rectangle_198" data-name="Rectangle 198" width="35" height="30" transform="translate(24 392)" fill="#1c1b1b" opacity="0"/>
    <path id="Union_1" data-name="Union 1" d="M-933.076,24l-4.325-1.771-4.257,1.743a.4.4,0,0,1-.221.082h-.01a.477.477,0,0,1-.164-.021.516.516,0,0,1-.174-.082l-4.177-1.711-4.21,1.724a.421.421,0,0,1-.25.09.325.325,0,0,1-.216-.054l-4.487-1.838a.52.52,0,0,1-.325-.487V3.608a1.812,1.812,0,0,1-.655-1.175h-.912A.511.511,0,0,1-958,1.892a.511.511,0,0,1,.541-.541h.912c.147-.8.616-1.352,1.2-1.352s1.049.552,1.2,1.352h6.583c.147-.8.616-1.352,1.2-1.352s1.049.552,1.2,1.352h6.637c.147-.8.616-1.352,1.2-1.352s1.049.552,1.2,1.352h6.583c.147-.8.616-1.352,1.2-1.352s1.049.552,1.2,1.352h1.075a.511.511,0,0,1,.541.541.511.511,0,0,1-.541.541h-1.071a1.677,1.677,0,0,1-.713,1.224V21.68a.473.473,0,0,1-.324.487l-4.419,1.81a.4.4,0,0,1-.228.082h0A.325.325,0,0,1-933.076,24Zm-.325-1.243V5.46L-936.914,4V21.285Zm-9.029,0V5.46l-3.461-1.438V21.307Zm1.081-.045,3.406-1.415V4.055l-3.406,1.432Zm9.029-.009,3.406-1.406V4.055l-3.406,1.406Zm-18-17.247V22.707l3.406-1.406V4.055ZM-954.81,21.3l3.406,1.406V5.46l-3.406-1.406Zm3.92-16.729,3.553-1.455a2.3,2.3,0,0,1-.234-.684h-6.583a2.285,2.285,0,0,1-.244.7Zm18.1-.038,3.459-1.417a2.3,2.3,0,0,1-.234-.684h-6.583a2.331,2.331,0,0,1-.211.639Zm-9.029,0,3.5-1.435a2.309,2.309,0,0,1-.225-.666h-6.637a2.335,2.335,0,0,1-.211.639Zm13.45-1.885a1.363,1.363,0,0,0,.084-.216h-.169A1.387,1.387,0,0,0-928.372,2.649Zm-8.975,0a1.4,1.4,0,0,0,.084-.216h-.168A1.393,1.393,0,0,0-937.347,2.649Zm-9.029,0a1.372,1.372,0,0,0,.085-.216h-.169A1.408,1.408,0,0,0-946.376,2.649Zm-8.974,0a1.393,1.393,0,0,0,.084-.216h-.168A1.387,1.387,0,0,0-955.351,2.649Zm27.086-1.3a.485.485,0,0,0-.107-.217,1.4,1.4,0,0,0-.084.217Zm-9,0a1.427,1.427,0,0,0-.084-.217,1.407,1.407,0,0,0-.084.217Zm-9.029,0a1.386,1.386,0,0,0-.085-.217,1.423,1.423,0,0,0-.084.217Zm-8.975,0a1.407,1.407,0,0,0-.084-.217,1.4,1.4,0,0,0-.084.217Z" transform="translate(983.32 395.462)"/>
  </g>
</svg>
