<svg width="27" height="27" viewBox="0 0 27 27" fill="none" xmlns="http://www.w3.org/2000/svg">
<path d="M24.8906 3.79688H2.10938C0.946318 3.79688 0 4.74319 0 5.90625V21.0938C0 22.2568 0.946318 23.2031 2.10938 23.2031H24.8906C26.0537 23.2031 27 22.2568 27 21.0938V5.90625C27 4.74319 26.0537 3.79688 24.8906 3.79688Z" fill="#5D647F"/>
<path d="M9.28125 12.2344H4.21875C3.75274 12.2344 3.375 11.8566 3.375 11.3906V8.01562C3.375 7.54961 3.75274 7.17188 4.21875 7.17188H9.28125C9.74726 7.17188 10.125 7.54961 10.125 8.01562V11.3906C10.125 11.8566 9.74726 12.2344 9.28125 12.2344Z" fill="#FFD100"/>
<path d="M6.32812 17.7188H4.21875C3.75274 17.7188 3.375 17.341 3.375 16.875V16.4531C3.375 15.9871 3.75274 15.6094 4.21875 15.6094H6.32812C6.79414 15.6094 7.17188 15.9871 7.17188 16.4531V16.875C7.17188 17.341 6.79414 17.7188 6.32812 17.7188Z" fill="#B8BAC0"/>
<path d="M11.8125 17.7188H9.70312C9.23711 17.7188 8.85938 17.341 8.85938 16.875V16.4531C8.85938 15.9871 9.23711 15.6094 9.70312 15.6094H11.8125C12.2785 15.6094 12.6562 15.9871 12.6562 16.4531V16.875C12.6562 17.341 12.2785 17.7188 11.8125 17.7188Z" fill="#B8BAC0"/>
<path d="M17.2969 17.7188H15.1875C14.7215 17.7188 14.3438 17.341 14.3438 16.875V16.4531C14.3438 15.9871 14.7215 15.6094 15.1875 15.6094H17.2969C17.7629 15.6094 18.1406 15.9871 18.1406 16.4531V16.875C18.1406 17.341 17.7629 17.7188 17.2969 17.7188Z" fill="#B8BAC0"/>
<path d="M22.7812 17.7188H20.6719C20.2059 17.7188 19.8281 17.341 19.8281 16.875V16.4531C19.8281 15.9871 20.2059 15.6094 20.6719 15.6094H22.7812C23.2473 15.6094 23.625 15.9871 23.625 16.4531V16.875C23.625 17.341 23.2473 17.7188 22.7812 17.7188Z" fill="#B8BAC0"/>
<path d="M12.2344 20.25H3.79688C3.56368 20.25 3.375 20.0611 3.375 19.8281C3.375 19.5951 3.56368 19.4062 3.79688 19.4062H12.2344C12.4676 19.4062 12.6562 19.5951 12.6562 19.8281C12.6562 20.0611 12.4676 20.25 12.2344 20.25Z" fill="#8A8895"/>
<path d="M17.7188 20.25H13.9219C13.6887 20.25 13.5 20.0611 13.5 19.8281C13.5 19.5951 13.6887 19.4062 13.9219 19.4062H17.7188C17.9519 19.4062 18.1406 19.5951 18.1406 19.8281C18.1406 20.0611 17.9519 20.25 17.7188 20.25Z" fill="#8A8895"/>
<path d="M19.4062 11.3907C18.9427 11.9085 18.2692 12.2344 17.5195 12.2344C16.1215 12.2344 14.9883 11.1011 14.9883 9.70312C14.9883 8.30514 16.1215 7.17188 17.5195 7.17188C18.269 7.17188 18.9425 7.49762 19.4059 8.01526" fill="#FF4F19"/>
<path d="M10.125 10.125H5.90625V9.28125H10.125V8.4375H5.90625V7.17188H5.0625V12.2344H5.90625V10.9688H10.125V10.125Z" fill="#FF9500"/>
<path d="M21.0938 12.2344C22.4917 12.2344 23.625 11.1011 23.625 9.70312C23.625 8.30515 22.4917 7.17188 21.0938 7.17188C19.6958 7.17188 18.5625 8.30515 18.5625 9.70312C18.5625 11.1011 19.6958 12.2344 21.0938 12.2344Z" fill="#FFD100"/>
</svg>
