<svg width="25" height="22" viewBox="0 0 25 22" fill="none" xmlns="http://www.w3.org/2000/svg">
<path d="M6.50156 15.7997C6.50156 16.1862 6.72158 16.5093 7.07271 16.772C7.42317 17.0342 7.91522 17.2454 8.48999 17.4111C9.64072 17.7427 11.1507 17.8995 12.6012 17.8995C14.0516 17.8995 15.5616 17.7427 16.7123 17.4111C17.2871 17.2454 17.7791 17.0342 18.1296 16.772C18.4807 16.5093 18.7007 16.1862 18.7007 15.7997C18.7007 15.4132 18.4807 15.09 18.1296 14.8273C17.7791 14.5651 17.2871 14.3539 16.7123 14.1883C15.5616 13.8566 14.0516 13.6998 12.6012 13.6998C11.1507 13.6998 9.64072 13.8566 8.48999 14.1883C7.91522 14.3539 7.42317 14.5651 7.07271 14.8273C6.72158 15.09 6.50156 15.4132 6.50156 15.7997ZM7.50151 15.7997C7.50151 15.7937 7.50718 15.7653 7.55639 15.714C7.60287 15.6655 7.67701 15.6085 7.78231 15.5465C7.99233 15.4227 8.31229 15.2868 8.74296 15.1607C9.60333 14.9088 10.8936 14.6998 12.6012 14.6998C14.3088 14.6998 15.599 14.9088 16.4593 15.1607C16.89 15.2868 17.21 15.4227 17.42 15.5465C17.5253 15.6085 17.5994 15.6655 17.6459 15.714C17.6951 15.7653 17.7008 15.7937 17.7008 15.7997C17.7008 15.8056 17.6951 15.834 17.6459 15.8854C17.5994 15.9338 17.5253 15.9908 17.42 16.0529C17.21 16.1767 16.89 16.3126 16.4593 16.4386C15.599 16.6905 14.3088 16.8996 12.6012 16.8996C10.8936 16.8996 9.60333 16.6905 8.74296 16.4386C8.31229 16.3126 7.99233 16.1767 7.78231 16.0529C7.67701 15.9908 7.60287 15.9338 7.55639 15.8854C7.50718 15.834 7.50151 15.8056 7.50151 15.7997Z" fill="#90C63E" stroke="#90C63E" stroke-width="0.2"/>
<path d="M16.8234 1.35279L16.8235 1.35285C17.0026 1.44204 17.2 1.48847 17.4001 1.48847C17.6002 1.48847 17.7976 1.44204 17.9767 1.35285L18.7764 0.952993L18.7765 0.952951C18.861 0.910602 18.9558 0.893094 19.0499 0.902458C19.144 0.911826 19.2336 0.9477 19.3081 1.00592C19.3827 1.06413 19.4392 1.1423 19.4711 1.23134C19.503 1.32036 19.509 1.4166 19.4884 1.50889L16.8234 1.35279ZM16.8234 1.35279C16.5054 1.19499 16.1552 1.11288 15.8002 1.11288C15.4452 1.11288 15.095 1.19499 14.777 1.35279L14.7769 1.35285M16.8234 1.35279L14.7769 1.35285M14.7769 1.35285C14.5978 1.44204 14.4004 1.48847 14.2003 1.48847C14.0002 1.48847 13.8028 1.44204 13.6237 1.35285L13.6236 1.35279M14.7769 1.35285L13.6236 1.35279M13.6236 1.35279C13.3056 1.19499 12.9554 1.11288 12.6004 1.11288C12.2454 1.11288 11.8952 1.19499 11.5772 1.35279L11.5771 1.35285M13.6236 1.35279L11.5771 1.35285M11.5771 1.35285C11.398 1.44204 11.2006 1.48847 11.0005 1.48847C10.8004 1.48847 10.6031 1.44204 10.4239 1.35285L10.4238 1.35279M11.5771 1.35285L10.4238 1.35279M10.4238 1.35279C10.1058 1.19499 9.75563 1.11288 9.40063 1.11288C9.04563 1.11288 8.69544 1.19499 8.37745 1.35279L8.37736 1.35283M10.4238 1.35279L8.37736 1.35283M8.37736 1.35283C8.19858 1.44177 8.00162 1.48806 7.80194 1.48806M8.37736 1.35283L7.80194 1.48806M6.64304 5.70007H2.99986L2.99974 5.70007C2.44306 5.70074 1.90937 5.92217 1.51574 6.31581C1.1221 6.70944 0.900667 7.24313 0.9 7.79982V7.79993V20.5991C0.9 20.7317 0.952675 20.8588 1.04644 20.9526C1.1402 21.0464 1.26737 21.099 1.39997 21.099H23.7985C23.9311 21.099 24.0582 21.0464 24.152 20.9526C24.2458 20.8588 24.2984 20.7317 24.2984 20.5991V7.79993V7.79982C24.2978 7.24313 24.0763 6.70944 23.6827 6.31581C23.2891 5.92217 22.7554 5.70074 22.1987 5.70007L22.1986 5.80007V5.70007H18.5555L19.4883 1.50896L6.64304 5.70007ZM6.64304 5.70007L5.71488 1.50896L5.71484 1.50879L5.81247 1.48716L6.64304 5.70007ZM7.80194 1.48806C7.6023 1.48806 7.40538 1.44179 7.22662 1.35289M7.80194 1.48806L7.22662 1.35289M7.22662 1.35289C7.22659 1.35287 7.22656 1.35285 7.22652 1.35283M7.22662 1.35289L7.22652 1.35283M7.22652 1.35283L6.42684 0.952993L7.22652 1.35283ZM8.19975 8.09991L6.91464 2.31275C7.1947 2.42944 7.49555 2.4898 7.79994 2.4898C8.15494 2.4898 8.50512 2.40769 8.82312 2.2499L8.82325 2.24983C9.00237 2.16064 9.19973 2.11422 9.39983 2.11422C9.59993 2.11422 9.7973 2.16064 9.97641 2.24983L9.97654 2.2499C10.2945 2.40769 10.6447 2.4898 10.9997 2.4898C11.3547 2.4898 11.7049 2.40769 12.0229 2.2499L12.023 2.24983C12.2021 2.16064 12.3995 2.11422 12.5996 2.11422C12.7997 2.11422 12.9971 2.16064 13.1762 2.24983L13.1763 2.2499C13.4943 2.40769 13.8445 2.4898 14.1995 2.4898C14.5545 2.4898 14.9047 2.40769 15.2227 2.2499L15.2228 2.24983C15.4019 2.16064 15.5993 2.11422 15.7994 2.11422C15.9995 2.11422 16.1969 2.16064 16.376 2.24983L16.3761 2.24988C16.6939 2.40771 17.044 2.48984 17.3989 2.48984C17.7033 2.48984 18.0042 2.4294 18.2842 2.31259L16.9987 8.09991H15.609L16.289 4.69976L16.3086 4.60208L16.211 4.58217L15.427 4.42218L15.3287 4.4021L15.309 4.50055L14.5891 8.09991H13.0992V4.60015V4.50015H12.9992H12.1992H12.0992V4.60015V8.09991H10.6093L9.88946 4.50055L9.86985 4.40249L9.77179 4.4221L8.98784 4.57889L8.8898 4.5985L8.9094 4.69654L9.58945 8.09991H8.19975ZM6.86498 6.70002L7.17611 8.09991H6.19965H6.09965V8.19991V8.99985V9.09985H6.19965H18.9988H19.0988V8.99985V8.19991V8.09991H18.9988H18.0223L18.3334 6.70002H22.1986C22.4903 6.70002 22.77 6.8159 22.9763 7.02217C23.1826 7.22845 23.2985 7.50822 23.2985 7.79993V10.4997H1.89995V7.79993C1.89995 7.50822 2.01583 7.22845 2.2221 7.02217C2.42838 6.8159 2.70815 6.70002 2.99986 6.70002H6.86498ZM23.2985 20.0991H1.89995V11.4997H23.2985V20.0991Z" fill="#90C63E" stroke="#90C63E" stroke-width="0.2"/>
</svg>
