<?xml version="1.0" encoding="UTF-8"?>
<svg width="188px" height="188px" viewBox="0 0 188 188" version="1.1" xmlns="http://www.w3.org/2000/svg" xmlns:xlink="http://www.w3.org/1999/xlink">
    <!-- Generator: Sketch 63.1 (92452) - https://sketch.com -->
    <title>default_circle</title>
    <desc>Created with Sketch.</desc>
    <g id="Page-1" stroke="none" stroke-width="1" fill="none" fill-rule="evenodd">
        <g id="default_circle">
            <rect id="Mask" fill="#F2F2F2" x="0" y="0" width="188" height="188" rx="94"></rect>
            <path d="M54.0620727,140.132068 C54.086996,141.133154 53.5030788,141.677069 53.0978973,142.336165 C51.6423769,144.698103 49.8934737,146.804082 48.7847432,149.466773 C48.0989965,151.11558 48.4799669,151.932517 50.0152418,152.138707 C52.4363618,152.464345 54.7649096,151.746947 57.0948816,151.119846 C63.8889716,149.290445 70.4024965,146.248792 77.1759358,144.31843 C81.3772911,143.119685 85.6085544,142.179745 89.96301,142.569372 C90.7669577,142.57072 91.5283563,142.930238 92.0394764,143.54984 L85.6306293,144.734364 C89.3798049,146.641974 92.9808648,148.826874 97.1743871,148.666188 C100.962016,148.523988 104.75819,148.679697 108.550803,148.703871 L108.555,148.705 L128.499455,148.708145 C128.501101,148.707433 128.502747,148.70672 128.504392,148.706004 L142,148.706004 C134.999403,150.387517 127.869916,150.693246 120.708386,150.566688 L120.690874,150.563611 C120.697187,150.565578 120.703499,150.567552 120.70981,150.569532 L114.455487,150.620724 L114.476054,150.613965 C114.468723,150.615266 114.461393,150.616571 114.454063,150.61788 C111.031027,151.014618 107.602293,150.787809 104.177121,150.701067 C99.8226652,150.591573 95.448271,151.204454 91.1173145,150.213322 C89.2745871,149.849081 87.5359808,149.080442 86.0272657,147.96301 C83.4409399,145.952305 80.7221645,145.716254 77.8118359,146.630598 C71.4286242,148.636326 65.2077699,151.294751 58.8658597,153.461165 C55.4549288,154.625781 51.9870304,155.405747 48.41303,154.775802 C46.1343289,154.374088 45.4443097,152.998305 46.4504986,150.472837 C48.1680697,146.167738 51.0883677,143.118263 54.0620727,140.132068 Z M82.7445118,131.81338 C82.9082935,132.448302 82.1905026,132.417729 81.7632461,132.456834 C81.7622404,132.456213 81.7623872,132.456879 81.7625341,132.457545 L81.0682423,132.783894 L81.0682517,132.785316 C75.502495,135.750655 70.1591995,139.114662 65.0803051,142.850928 C62.4944944,144.673429 59.6254506,146.057821 56.5885827,146.948415 C55.937931,147.28231 55.1394449,147.05612 54.7613491,146.430808 C54.3857416,145.773901 54.4280261,144.958677 54.8695874,144.344026 C55.3680533,143.395553 55.8828974,142.460589 56.3913326,141.519938 L56.3899084,141.517805 C56.4974346,141.079118 56.5978399,140.33968 57.0628373,140.697312 C57.504272,141.036573 57.0232296,141.547293 56.7651166,141.916154 C56.7649507,141.916688 56.7650667,141.917392 56.765182,141.918097 C56.1955067,144.900027 56.6889879,145.454606 59.1606666,144.548793 C61.7466789,143.470934 64.1934451,142.086391 66.4482379,140.424999 C70.68591,137.561807 74.7946931,134.37582 79.4994989,132.659469 C79.7935938,132.552108 80.0997943,132.495939 80.400298,132.415596 L80.401,132.415 L80.400298,132.414174 C80.7591934,132.024547 81.2227667,132.060097 81.6535837,131.959846 C82.0096307,131.634208 82.5728972,131.148596 82.7445118,131.81338 Z M77.8381833,122.025769 C80.4636744,126.220662 80.5049758,126.187956 83.7599581,122.905274 C87.9705706,118.658477 92.732344,118.079724 97.8430435,119.786122 C101.474858,121.038457 104.866782,122.898669 107.873601,125.287121 C116.503233,131.986153 125.434317,132.649752 134.666855,127.277918 C135.05637,127.051109 135.434492,126.561942 135.982093,126.94517 C135.825432,128.015935 135.091263,128.433291 134.433288,128.874821 C127.009707,133.851814 119.485008,134.525841 111.850647,129.574444 C110.478442,128.684985 109.091994,127.814011 107.778181,126.807947 C102.163319,122.507115 96.0136737,121.42924 89.5371777,122.301636 C87.6273412,122.559018 85.998782,123.684529 84.4485531,124.983524 C83.9792831,125.376707 83.5356484,125.816815 83.0549849,126.187245 C80.9486105,127.811167 79.999389,127.684609 78.2611673,125.560144 C77.1666786,124.222044 76.1462477,122.787248 74.9805496,121.545844 C72.3963601,118.799255 69.3386279,117.866425 65.9782557,118.626483 C60.0913736,119.958184 57.5192897,125.956171 59.7566894,133.083935 C60.2644125,134.700036 60.9081456,136.246459 61.6672379,138.31191 C57.8276264,134.834415 56.3635609,129.253073 57.6453303,124.052116 C58.8131647,119.316152 62.3145315,116.224017 66.7829221,115.835101 C71.4357451,115.429831 75.0432139,117.565672 77.8381833,122.025769 Z M110.338871,107.146693 C113.071888,109.790188 113.501993,117.245723 111.419118,121.330412 C111.347909,116.597292 111.566521,112.016325 110.338871,107.146693 Z M108.415505,65.456559 C108.776537,65.9236853 108.278783,66.2343918 108.092926,66.5429653 C105.961454,69.8986416 104.580812,73.6742886 104.045383,77.611797 C103.712835,80.4557928 103.773363,83.3708885 103.613854,86.2447463 C103.376883,92.4817554 101.136095,98.477082 97.2228095,103.344271 C93.4192708,107.996888 89.8953434,112.870567 86.6695746,117.939658 C86.5201441,118.329301 86.1453485,118.585956 85.7274741,118.585956 C87.2121904,114.593696 89.3185648,111.344431 91.4555592,108.120762 C93.2735355,105.377728 95.1249802,102.666689 96.9230179,99.9037471 C100.115343,95.0566946 101.769397,89.3610278 101.669125,83.5607252 C101.61643,78.8389812 102.131986,74.3113399 103.926464,70.0673871 C104.615952,68.2769006 105.84255,66.742783 107.438512,65.6748356 C107.739016,65.4828659 108.095775,65.0427576 108.415505,65.456559 Z M114.026095,83.6929711 C115.119871,86.1373854 114.8507,88.49648 114.251828,90.8854364 C112.131212,99.35059 107.587339,105.645775 101.960372,110.963336 C100.73557,112.120842 99.4594972,113.200139 98.1990906,114.305031 C98.1485319,114.349113 98.0146582,114.253128 97.8850571,114.211179 C97.8423314,113.348737 98.3835229,112.898675 98.7993859,112.390311 C100.365993,110.463504 101.9326,108.541673 103.528403,106.654682 C108.498108,100.783253 111.324409,93.4720506 113.26273,85.5579213 C113.380225,85.077286 113.486327,84.5916737 113.618777,84.1167264 C113.645836,84.0171866 113.764044,83.9574627 114.026095,83.6929711 Z M104.491154,44.9470832 C104.923395,47.3986076 105.312199,49.860797 105.756545,52.3087663 C106.628149,57.1080093 108.754462,59.6917795 112.791323,60.3117705 C118.4247,61.1770563 121.747331,65.1799804 123.481992,71.3806022 C125.507188,78.6178605 127.39851,85.9112878 129.356057,93.1755641 C130.218021,96.8226317 131.777341,100.269153 133.948352,103.325785 C134.308408,103.752977 134.53802,104.274424 134.609887,104.828126 C133.715497,105.124612 133.140837,104.410058 132.544814,103.846947 C129.92146,101.358451 128.312127,98.0423519 127.317331,94.2527275 C125.545641,87.5039254 123.788905,80.7487244 122.3284,73.8890065 C121.416207,69.6016828 119.306985,66.5308784 116.069805,64.5443473 C114.11917,63.4229107 112.087373,62.448502 109.991369,61.6292516 C107.56028,60.5940371 106.057761,58.655143 105.275882,55.6326864 C104.136531,51.2202269 103.566856,46.5923348 101.753864,42.4237479 C99.1262371,36.3745688 94.4107498,33.6784608 89.4730892,35.560475 C84.7177247,37.3728114 82.3072861,42.5794567 83.1881465,48.5205639 C84.7041949,58.7518388 90.5782593,63.7572715 97.9961437,66.9276158 C99.9187979,67.7502416 101.289579,66.8223879 102.328524,64.4440964 C102.852626,63.2567282 103.263504,61.998971 103.724229,60.7717869 C103.957713,62.8292729 103.691731,64.912645 102.948758,66.8458509 C102.084276,68.9923567 100.502715,70.0453462 98.6420131,69.7083327 C90.0705362,68.164754 81.4093354,56.7880597 80.7570572,46.3477511 C80.4636744,41.6551581 82.026721,38.2053911 85.1934035,35.6877439 C92.5913494,29.8077825 102.541441,33.8775405 104.491154,44.9470832 Z M99.1290855,73.7979986 C96.7720539,79.8045178 97.5781445,86.2049303 95.7979092,91.9889068 C94.9867684,94.58382 93.9290059,97.0953563 92.6390597,99.4892348 C92.4368249,99.8696192 92.2118032,100.193835 91.6542335,100.151886 C92.2032581,97.6057985 92.7558431,95.0924172 93.284929,92.572637 C94.1486992,88.458086 94.9939549,84.3385581 95.8534525,80.2225852 C96.4530358,77.3508604 97.4407103,75.3074494 99.1290855,73.7979986 Z" id="Combined-Shape" fill="#817F7F" fill-rule="nonzero"></path>
        </g>
    </g>
</svg>