<?xml version="1.0" encoding="UTF-8"?>
<svg width="25px" height="25px" viewBox="0 0 25 25" version="1.1" xmlns="http://www.w3.org/2000/svg" xmlns:xlink="http://www.w3.org/1999/xlink">
    <!-- Generator: Sketch 63.1 (92452) - https://sketch.com -->
    <title>directions</title>
    <desc>Created with Sketch.</desc>
    <g id="Page-1" stroke="none" stroke-width="1" fill="none" fill-rule="evenodd">
        <g id="iPhone-11-Pro-Copy-18" transform="translate(-273.000000, -261.000000)" fill="#0370C3">
            <path d="M285.5,261 C292.403559,261 298,266.596441 298,273.5 C298,280.403559 292.403559,286 285.5,286 C278.596441,286 273,280.403559 273,273.5 C273,266.596441 278.596441,261 285.5,261 Z M288.409404,267.25 C288.373117,267.25 288.336831,267.26139 288.306004,267.284883 C288.244352,267.33169 288.221452,267.414626 288.249989,267.487417 L289.096566,269.652824 L288.006901,269.656027 C288.006901,269.656027 287.902444,269.6619 287.757649,269.674358 L287.758178,269.655849 L287.646837,269.655785 C286.930887,269.6603 283.005538,269.752162 281.656126,271.089605 C280.750538,271.986771 280.291667,273.209272 280.291667,274.723295 L280.291667,280.791667 L282.347162,280.791667 L282.347162,274.723296 C282.347162,273.774695 282.592011,273.071165 283.095624,272.572127 C283.812555,271.861478 287.298602,271.751134 287.619723,271.734938 L289.096566,271.734938 L288.249989,273.900523 C288.221452,273.973136 288.244528,274.055894 288.306004,274.102879 C288.367657,274.150042 288.452914,274.149686 288.514214,274.101994 L292.724553,270.831365 C292.766653,270.798262 292.791667,270.747896 292.791667,270.693792 C292.791667,270.639866 292.766653,270.589143 292.724553,270.556396 L288.514214,267.285773 C288.483211,267.261746 288.446572,267.25 288.409404,267.25 Z" id="directions"></path>
        </g>
    </g>
</svg>