<svg width="22" height="22" viewBox="0 0 22 22" fill="none" xmlns="http://www.w3.org/2000/svg">
<path d="M10.9994 2.51537L2.5144 11.0004L10.9994 19.4854L19.4844 11.0004L10.9994 2.51537ZM11.7064 0.393372L21.6064 10.2934C21.7939 10.4809 21.8992 10.7352 21.8992 11.0004C21.8992 11.2655 21.7939 11.5198 21.6064 11.7074L11.7064 21.6074C11.5189 21.7948 11.2646 21.9002 10.9994 21.9002C10.7342 21.9002 10.4799 21.7948 10.2924 21.6074L0.392396 11.7074C0.204925 11.5198 0.0996094 11.2655 0.0996094 11.0004C0.0996094 10.7352 0.204925 10.4809 0.392396 10.2934L10.2924 0.393372C10.4799 0.205901 10.7342 0.100586 10.9994 0.100586C11.2646 0.100586 11.5189 0.205901 11.7064 0.393372ZM11.9994 9.00037V6.50037L15.4994 10.0004L11.9994 13.5004V11.0004H8.9994V14.0004H6.9994V10.0004C6.9994 9.73516 7.10475 9.4808 7.29229 9.29327C7.47983 9.10573 7.73418 9.00037 7.9994 9.00037H11.9994Z" fill="#3E9DC6"/>
</svg>
