<svg width="7" height="12" viewBox="0 0 7 12" fill="none" xmlns="http://www.w3.org/2000/svg">
<path d="M3.48 11.2C3.4 11.2 3.332 11.172 3.276 11.116C3.228 11.068 3.204 11.004 3.204 10.924V10.084C2.644 10.036 2.16 9.908 1.752 9.7C1.344 9.484 1.032 9.22 0.816 8.908C0.608 8.588 0.496 8.248 0.48 7.888C0.48 7.824 0.504 7.768 0.552 7.72C0.608 7.664 0.672 7.636 0.744 7.636H1.368C1.512 7.636 1.612 7.716 1.668 7.876C1.748 8.212 1.956 8.5 2.292 8.74C2.628 8.98 3.104 9.1 3.72 9.1C4.384 9.1 4.884 8.984 5.22 8.752C5.556 8.512 5.724 8.18 5.724 7.756C5.724 7.484 5.64 7.264 5.472 7.096C5.312 6.928 5.072 6.78 4.752 6.652C4.432 6.524 3.952 6.364 3.312 6.172C2.688 5.996 2.192 5.808 1.824 5.608C1.456 5.408 1.18 5.16 0.996 4.864C0.812 4.568 0.72 4.196 0.72 3.748C0.72 3.156 0.94 2.656 1.38 2.248C1.82 1.832 2.428 1.584 3.204 1.504V0.676C3.204 0.595999 3.228 0.531999 3.276 0.483999C3.332 0.428 3.4 0.4 3.48 0.4H3.936C4.016 0.4 4.08 0.428 4.128 0.483999C4.184 0.531999 4.212 0.595999 4.212 0.676V1.516C4.724 1.58 5.16 1.724 5.52 1.948C5.888 2.172 6.164 2.436 6.348 2.74C6.54 3.044 6.644 3.348 6.66 3.652C6.66 3.716 6.636 3.772 6.588 3.82C6.548 3.868 6.488 3.892 6.408 3.892H5.772C5.604 3.892 5.5 3.816 5.46 3.664C5.412 3.328 5.224 3.052 4.896 2.836C4.568 2.612 4.156 2.5 3.66 2.5C3.116 2.5 2.688 2.604 2.376 2.812C2.064 3.02 1.908 3.328 1.908 3.736C1.908 4.008 1.98 4.232 2.124 4.408C2.276 4.584 2.504 4.74 2.808 4.876C3.112 5.004 3.556 5.152 4.14 5.32C4.82 5.504 5.356 5.696 5.748 5.896C6.14 6.088 6.432 6.332 6.624 6.628C6.816 6.916 6.912 7.284 6.912 7.732C6.912 8.412 6.672 8.96 6.192 9.376C5.712 9.784 5.052 10.024 4.212 10.096V10.924C4.212 11.004 4.184 11.068 4.128 11.116C4.08 11.172 4.016 11.2 3.936 11.2H3.48Z" fill="#90C63E"/>
</svg>
