<svg width="22" height="22" viewBox="0 0 22 22" fill="none" xmlns="http://www.w3.org/2000/svg">
<path d="M18.7693 3.23073C16.6859 1.14735 13.9267 0 11 0C8.07327 0 5.31407 1.14735 3.23073 3.23073C1.14735 5.31407 0 8.07327 0 11C0 13.9267 1.14735 16.6859 3.23073 18.7693C5.31407 20.8526 8.07327 22 11 22C13.9267 22 16.6859 20.8526 18.7693 18.7693C20.8526 16.6859 22 13.9267 22 11C22 8.07327 20.8526 5.31407 18.7693 3.23073ZM11 20.7109C5.64536 20.7109 1.28906 16.3546 1.28906 11C1.28906 5.64536 5.64536 1.28906 11 1.28906C16.3546 1.28906 20.7109 5.64536 20.7109 11C20.7109 16.3546 16.3546 20.7109 11 20.7109Z" fill="black"/>
<path d="M11 2.62109C6.37987 2.62109 2.62109 6.37987 2.62109 11C2.62109 15.6201 6.37987 19.3789 11 19.3789C15.6201 19.3789 19.3789 15.6201 19.3789 11C19.3789 6.37987 15.6201 2.62109 11 2.62109ZM11 18.0898C7.09066 18.0898 3.91016 14.9093 3.91016 11C3.91016 7.09066 7.09066 3.91016 11 3.91016C14.9093 3.91016 18.0898 7.09066 18.0898 11C18.0898 14.9093 14.9093 18.0898 11 18.0898Z" fill="black"/>
<path d="M12.9336 9.05961C12.9336 9.41557 13.2222 9.70415 13.5781 9.70415C13.9341 9.70415 14.2227 9.41557 14.2227 9.05961C14.2227 8.34582 13.8535 7.65952 13.2097 7.17672C12.77 6.84694 12.229 6.62664 11.6445 6.53292V5.83691C11.6445 5.48096 11.356 5.19238 11 5.19238C10.644 5.19238 10.3555 5.48096 10.3555 5.83691V6.53292C9.77096 6.62664 9.22995 6.84694 8.79029 7.17672C8.14653 7.65952 7.77734 8.34582 7.77734 9.05961C7.77734 9.77341 8.14653 10.4597 8.79029 10.9425C9.22999 11.2723 9.77101 11.4926 10.3555 11.5863V14.139C9.61297 13.9576 9.06641 13.4757 9.06641 12.9268C9.06641 12.5708 8.77783 12.2823 8.42188 12.2823C8.06592 12.2823 7.77734 12.5708 7.77734 12.9268C7.77734 13.6406 8.14653 14.3269 8.79029 14.8097C9.22999 15.1395 9.77101 15.3598 10.3555 15.4535V16.156C10.3555 16.5119 10.644 16.8005 11 16.8005C11.356 16.8005 11.6445 16.5119 11.6445 16.156V15.4535C12.229 15.3598 12.7701 15.1395 13.2097 14.8097C13.8535 14.3269 14.2227 13.6406 14.2227 12.9268C14.2227 12.213 13.8535 11.5267 13.2097 11.0439C12.77 10.7141 12.229 10.4938 11.6445 10.4001V7.84738C12.387 8.02888 12.9336 8.51069 12.9336 9.05961ZM9.06641 9.05961C9.06641 8.51069 9.61297 8.02884 10.3555 7.84738V10.2718C9.61297 10.0904 9.06641 9.60854 9.06641 9.05961ZM12.9336 12.9268C12.9336 13.4757 12.387 13.9576 11.6445 14.139V11.7146C12.387 11.8961 12.9336 12.3779 12.9336 12.9268Z" fill="black"/>
</svg>
