<svg width="22" height="22" viewBox="0 0 22 22" fill="none" xmlns="http://www.w3.org/2000/svg">
<path d="M0 1.97656H1.28906V21.3125H20.7109V1.97656H22V0.6875H0V1.97656ZM2.57812 1.97656H10.3555V17.4453H2.57812V1.97656ZM2.57812 18.7344H10.3555V20.0234H2.57812V18.7344ZM11.6445 20.0234V18.7344H19.4219V20.0234H11.6445ZM19.4219 17.4453H11.6445V1.97656H19.4219V17.4453Z" fill="black"/>
<path d="M9.06641 5.84375C9.06641 4.42209 7.90994 3.26562 6.48828 3.26562C5.06662 3.26562 3.91016 4.42209 3.91016 5.84375C3.91016 7.26541 5.06662 8.42188 6.48828 8.42188C7.90994 8.42188 9.06641 7.26541 9.06641 5.84375ZM6.48828 7.13281C5.77745 7.13281 5.19922 6.55458 5.19922 5.84375C5.19922 5.13292 5.77745 4.55469 6.48828 4.55469C7.19911 4.55469 7.77734 5.13292 7.77734 5.84375C7.77734 6.55458 7.19911 7.13281 6.48828 7.13281Z" fill="black"/>
<path d="M15.5117 8.42188C16.9334 8.42188 18.0898 7.26541 18.0898 5.84375C18.0898 4.42209 16.9334 3.26562 15.5117 3.26562C14.0901 3.26562 12.9336 4.42209 12.9336 5.84375C12.9336 7.26541 14.0901 8.42188 15.5117 8.42188ZM15.5117 4.55469C16.2225 4.55469 16.8008 5.13292 16.8008 5.84375C16.8008 6.55458 16.2225 7.13281 15.5117 7.13281C14.8009 7.13281 14.2227 6.55458 14.2227 5.84375C14.2227 5.13292 14.8009 4.55469 15.5117 4.55469Z" fill="black"/>
<path d="M12.9336 9.71094H14.2227V13.5781H12.9336V9.71094Z" fill="black"/>
<path d="M7.77734 9.71094H9.06641V13.5781H7.77734V9.71094Z" fill="black"/>
</svg>
