<svg width="30" height="30" viewBox="0 0 30 30" fill="none" xmlns="http://www.w3.org/2000/svg">
<path opacity="0.1" fill-rule="evenodd" clip-rule="evenodd" d="M0 15C0 6.71573 6.71573 0 15 0C23.2843 0 30 6.71573 30 15C30 23.2843 23.2843 30 15 30C6.71573 30 0 23.2843 0 15Z" fill="black" fill-opacity="0.37"/>
<path fill-rule="evenodd" clip-rule="evenodd" d="M23 14.9884C23 15.5294 22.9449 16.0697 22.8367 16.5964C22.7312 17.1105 22.575 17.6152 22.3703 18.0978C22.1703 18.5718 21.9222 19.0285 21.6324 19.4545C21.3468 19.8777 21.0179 20.2748 20.6566 20.6368C20.2944 20.9972 19.896 21.3253 19.4729 21.612C19.0455 21.8999 18.5881 22.1476 18.1139 22.3485C17.6306 22.5521 17.1247 22.7081 16.611 22.8135C16.0837 22.9219 15.5414 22.9773 14.9996 22.9773C14.4574 22.9773 13.9152 22.9219 13.3886 22.8135C12.8742 22.7081 12.3683 22.5521 11.8854 22.3485C11.4112 22.1476 10.9533 21.8999 10.526 21.612C10.1029 21.3253 9.70446 20.9972 9.34311 20.6368C8.98138 20.2748 8.65244 19.8777 8.36649 19.4545C8.07819 19.0285 7.82973 18.5717 7.62895 18.0978C7.42423 17.6152 7.2676 17.1105 7.16173 16.5964C7.0547 16.0697 7 15.5294 7 14.9884C7 14.447 7.05467 13.9056 7.16176 13.3801C7.26763 12.8659 7.42426 12.3604 7.62898 11.8787C7.82976 11.4043 8.07823 10.9472 8.36652 10.5212C8.65247 10.0976 8.98141 9.70122 9.34314 9.33883C9.70449 8.97838 10.1029 8.65113 10.526 8.36481C10.9534 8.07574 11.4112 7.82807 11.8855 7.62677C12.3683 7.42272 12.8742 7.26632 13.3887 7.16179C13.9152 7.05414 14.4575 6.99951 14.9997 6.99951C15.5415 6.99951 16.0837 7.05414 16.6111 7.16179C17.1247 7.26635 17.6306 7.42275 18.1139 7.62677C18.5881 7.82804 19.0456 8.07574 19.4729 8.36481C19.896 8.65113 20.2945 8.97838 20.6566 9.33883C21.0179 9.70122 21.3469 10.0976 21.6324 10.5212C21.9222 10.9472 22.1703 11.4044 22.3703 11.8787C22.575 12.3604 22.7312 12.8659 22.8367 13.3801C22.9449 13.9056 23 14.447 23 14.9884ZM12.0846 8.81768C10.1794 9.71606 8.75747 11.4691 8.31408 13.5818C8.49419 13.5833 11.3412 13.6192 14.6214 12.7489C13.439 10.6511 12.1756 8.93903 12.0846 8.81768ZM15.1875 13.7995C11.6697 14.8511 8.29416 14.7754 8.17307 14.7708C8.1711 14.8441 8.16759 14.9151 8.16759 14.9884C8.16759 16.741 8.82974 18.3388 9.91807 19.5469C9.91573 19.5434 11.7854 16.2312 15.4723 15.0407C15.5613 15.0111 15.652 14.9845 15.7418 14.9588C15.5704 14.5711 15.3832 14.1825 15.1875 13.7995ZM19.5116 9.86819C18.3088 8.80909 16.7294 8.16666 14.9996 8.16666C14.4445 8.16666 13.9058 8.23376 13.3898 8.3578C13.4921 8.49513 14.7754 10.1951 15.9438 12.3374C18.5217 11.3723 19.4948 9.89314 19.5116 9.86819ZM16.2075 16.0892C16.1923 16.0943 16.1771 16.0986 16.1622 16.104C12.1312 17.5073 10.8148 20.3352 10.8006 20.3661C11.9604 21.2668 13.4152 21.8102 14.9997 21.8102C15.9458 21.8102 16.847 21.6178 17.667 21.2695C17.5658 20.6735 17.1689 18.5842 16.2075 16.0892ZM18.8174 20.6462C20.3514 19.6125 21.4409 17.971 21.7449 16.0697C21.6042 16.0244 19.6928 15.4202 17.4876 15.7732C18.3837 18.2323 18.7479 20.235 18.8174 20.6462ZM16.4697 13.354C16.6282 13.6793 16.7818 14.0104 16.9236 14.3432C16.974 14.4626 17.0232 14.5796 17.0712 14.6966C19.4182 14.4017 21.7305 14.8979 21.8293 14.9182C21.8137 13.3009 21.2343 11.8166 20.2757 10.6546C20.2628 10.6729 19.1671 12.2539 16.4697 13.354Z" fill="black" fill-opacity="0.37"/>
</svg>
