<svg width="25" height="25" viewBox="0 0 25 25" fill="none" xmlns="http://www.w3.org/2000/svg">
<path d="M4.90193 3.4301C4.49514 3.0233 3.83559 3.0233 3.42879 3.4301C3.022 3.83689 3.022 4.49644 3.42879 4.90324L5.95397 7.42841C4.46369 8.54935 3.16459 10.089 2.192 12.0342C2.04537 12.3274 2.04537 12.6726 2.192 12.9659C4.44015 17.4621 8.43294 19.7917 12.4987 19.7917C14.1186 19.7917 15.727 19.4219 17.2181 18.6925L20.0955 21.5699C20.5023 21.9767 21.1618 21.9767 21.5686 21.5699C21.9754 21.1631 21.9754 20.5036 21.5686 20.0968L4.90193 3.4301ZM15.638 17.1125C14.6177 17.5116 13.5543 17.7083 12.4987 17.7083C9.40621 17.7083 6.24667 16.02 4.30042 12.5C5.15204 10.9598 6.23597 9.77021 7.44493 8.91937L9.67825 11.1527C9.48302 11.5606 9.3737 12.0176 9.3737 12.5C9.3737 14.2259 10.7728 15.625 12.4987 15.625C12.9811 15.625 13.4381 15.5157 13.846 15.3205L15.638 17.1125Z" fill="#0D0D0D" fill-opacity="0.9"/>
<path d="M19.324 14.4745C19.8271 13.896 20.2887 13.2383 20.6969 12.5C18.7507 8.97998 15.5911 7.29167 12.4987 7.29167C12.382 7.29167 12.2652 7.29407 12.1484 7.29888L10.2897 5.44019C11.0168 5.28595 11.7565 5.20833 12.4987 5.20833C16.5644 5.20833 20.5572 7.53786 22.8053 12.0342C22.952 12.3274 22.952 12.6726 22.8053 12.9658C22.2387 14.0991 21.5612 15.0948 20.7997 15.9501L19.324 14.4745Z" fill="#0D0D0D" fill-opacity="0.9"/>
</svg>
