<svg width="84" height="84" viewBox="0 0 84 84" fill="none" xmlns="http://www.w3.org/2000/svg">
<rect x="-5" y="-4" width="92" height="96" fill="white"/>
<path d="M28.3061 49.5615L41.1204 51.2846L58.526 49.1639C58.526 49.1639 63.112 41.6196 60.4399 35.777C57.7679 29.9345 54.1574 19.5537 49.916 17.8095C45.6746 16.0652 30.6018 25.269 27.3518 32.9194C24.1019 40.5698 28.3061 49.5615 28.3061 49.5615Z" fill="#303030"/>
<path d="M28.758 32.3788C28.758 32.3788 27.1675 28.2275 25.4709 29.9453C23.7744 31.663 25.3278 36.1006 26.4729 37.5321C27.308 38.4568 28.4045 39.1058 29.6169 39.393L28.758 32.3788Z" fill="white" stroke="#303030" stroke-width="0.7" stroke-miterlimit="10"/>
<path d="M54.4786 32.3788C54.4786 32.3788 56.0691 28.2275 57.771 29.9453C59.4728 31.663 57.9141 36.1006 56.7689 37.5321C55.9559 38.4376 54.8614 39.0428 53.6621 39.2498L54.4786 32.3788Z" fill="white" stroke="#303030" stroke-width="0.7" stroke-miterlimit="10"/>
<path d="M76.2731 72.5702C71.263 67.7085 53.375 62.8415 53.375 62.8415L41.181 58.6001L30.5775 62.8415C30.5775 62.8415 12.7319 67.7297 7.72171 72.5702C2.71157 77.4107 3.00317 84.6157 3.00317 84.6157H80.997C80.997 84.6157 81.2833 77.4584 76.2731 72.5702Z" fill="#90C63E" stroke="#303030" stroke-width="0.7" stroke-miterlimit="10"/>
<path d="M34.1989 45.835C34.7414 50.1511 34.4005 54.5326 33.1968 58.7129C31.1928 65.1545 32.7674 72.3065 33.4831 73.5948C34.1989 74.8832 41.0699 81.8655 41.0699 81.8655C41.0699 81.8655 50.2313 72.1634 50.6554 70.3078C51.0796 68.4522 50.6554 61.5758 49.2293 58.7129C47.8031 55.8499 47.6388 48.2685 47.6388 48.2685L34.1989 45.835Z" fill="white" stroke="#303030" stroke-width="0.7" stroke-miterlimit="10"/>
<path d="M32.7344 60.489L42.8713 53.268L36.0586 46.169L34.1977 45.835C34.7402 50.1511 34.3993 54.5326 33.1956 58.7129C33.0154 59.3173 32.8616 59.8952 32.7344 60.489Z" fill="#303030"/>
<path d="M42.4983 11.3619C38.9886 11.2877 35.3145 12.136 33.093 13.859C28.9259 17.0878 27.4573 23.0522 28.0405 28.0836C28.0405 28.0836 29.1857 37.9607 29.7583 40.3942C30.3308 42.8277 35.5902 50.4675 36.9156 51.9838C37.4796 52.6708 38.1889 53.2242 38.9924 53.6042C39.7959 53.9842 40.6737 54.1813 41.5626 54.1813C42.4514 54.1813 43.3292 53.9842 44.1328 53.6042C44.9363 53.2242 45.6456 52.6708 46.2095 51.9838C47.535 50.441 52.7943 42.8277 53.3669 40.3942C53.9395 37.9607 55.0846 28.0836 55.0846 28.0836C55.2428 24.8438 54.732 21.6061 53.5843 18.5723C52.7148 16.3349 51.3363 14.2195 49.2262 12.9736C47.482 11.9451 45.0379 11.4096 42.4983 11.3619Z" fill="white" stroke="#303030" stroke-width="0.7" stroke-miterlimit="10"/>
<path d="M38.2539 44.5728C38.2539 44.5728 41.3183 47.2236 45.3741 44.8325" stroke="black" stroke-width="0.7" stroke-linecap="round" stroke-linejoin="round"/>
<path d="M33.4824 33.3806C33.4824 33.3806 36.0591 31.0902 38.4926 33.2374" stroke="black" stroke-width="0.7" stroke-linecap="round" stroke-linejoin="round"/>
<path d="M44.9336 33.3806C44.9336 33.3806 47.5102 31.0902 49.9437 33.2374" stroke="black" stroke-width="0.7" stroke-linecap="round" stroke-linejoin="round"/>
<path d="M31.4766 30.374C31.4766 30.374 34.9121 26.2227 39.0633 29.0963" stroke="black" stroke-width="0.7" stroke-linecap="round" stroke-linejoin="round"/>
<path d="M52.0854 30.374C52.0854 30.374 48.6552 26.2227 44.5039 29.0963" stroke="black" stroke-width="0.7" stroke-linecap="round" stroke-linejoin="round"/>
<path d="M39.4941 41.54C39.4941 41.54 41.2119 43.5441 44.7959 41.54" stroke="black" stroke-width="0.7" stroke-linecap="round" stroke-linejoin="round"/>
<path d="M28.6183 40.1085C28.6183 40.1085 34.7736 28.5136 43.0762 23.5088C51.3787 18.504 49.5178 19.3575 49.5178 19.3575C49.5178 19.3575 51.7074 24.0814 53.1017 28.2273C54.4961 32.3733 55.8215 40.4213 55.8215 44.9755C55.8154 47.7569 55.5724 50.5326 55.0952 53.2727C55.0952 53.2727 55.9541 52.1276 59.5327 50.4098C62.1836 49.1374 66.7431 48.6814 67.4482 45.2141C67.8565 43.1782 67.5331 41.0575 67.655 38.9952C67.7663 37.0335 67.7186 34.9818 66.4038 33.3806C64.3997 30.9471 61.1021 27.7979 61.1021 23.9382C61.1021 20.0786 62.6926 18.2124 60.1 14.9253C57.5075 11.6382 54.9467 12.0624 54.231 11.2141C53.5153 10.3658 56.6645 4.32182 41.0668 3.19785C25.4691 2.07388 20.3211 16.0652 19.8917 19.6438C19.4622 23.2225 21.0368 25.5129 18.4602 29.9451C16.2547 33.7411 12.4321 39.1701 13.8159 43.7985C15.1625 48.3315 22.8288 52.5729 27.2399 53.1985C27.5421 53.2409 31.1791 53.1985 31.195 53.2727C31.2109 53.347 28.6183 44.6892 28.6183 42.3989V40.1085Z" fill="#303030"/>
<path d="M33.9139 56.279C33.9139 56.279 30.9078 55.5633 30.3352 56.9948C29.7626 58.4262 24.7578 65.7267 24.7578 65.7267C24.7578 65.7267 25.0441 70.7369 23.8989 73.7376C22.7537 76.7384 22.4674 77.873 23.1832 77.873C23.8989 77.873 30.3352 72.5713 30.7647 71.8661C31.1941 71.161 31.9098 70.0052 32.3552 70.5778C32.8005 71.1504 33.4845 73.5945 33.4845 73.5945C33.4845 73.5945 35.3454 70.1643 33.9139 66.5856C32.4824 63.0069 33.055 57.9968 33.9139 56.279Z" fill="white" stroke="#303030" stroke-width="0.7" stroke-linecap="round" stroke-linejoin="round"/>
<path d="M48.3699 56.279C48.3699 56.279 51.9538 55.5633 52.5264 56.9948C53.099 58.4262 58.1091 65.7267 58.1091 65.7267C58.1091 65.7267 57.8229 70.7369 58.968 73.7376C60.1132 76.7384 60.3995 77.8889 59.6838 77.8889C58.968 77.8889 52.5264 72.5872 52.097 71.882C51.6675 71.1769 50.9518 70.0211 50.5065 70.5937C50.0611 71.1663 48.0624 73.9497 48.0624 73.9497C47.7695 71.4608 48.0674 68.9379 48.9318 66.5856C50.3792 63.0281 49.2287 57.9968 48.3699 56.279Z" fill="white" stroke="#303030" stroke-width="0.7" stroke-linecap="round" stroke-linejoin="round"/>
</svg>
