<?xml version="1.0" encoding="UTF-8"?>
<svg width="13px" height="20px" viewBox="0 0 13 20" version="1.1" xmlns="http://www.w3.org/2000/svg" xmlns:xlink="http://www.w3.org/1999/xlink">
    <!-- Generator: Sketch 63.1 (92452) - https://sketch.com -->
    <title>female</title>
    <desc>Created with Sketch.</desc>
    <g id="Page-1" stroke="none" stroke-width="1" fill="none" fill-rule="evenodd">
        <g id="iPhone-11-Pro-Copy-7" transform="translate(-16.000000, -254.000000)" fill-rule="nonzero">
            <g id="female" transform="translate(16.000000, 254.000000)">
                <path d="M12.5785958,6.26769543 C12.5785958,2.81167954 9.76202605,0 6.3,0 C2.83797395,0 0.0214042343,2.81167954 0.0214042343,6.26769543 C0.0214042343,9.47660208 2.44968249,12.1294928 5.56810396,12.4926174 L5.56810396,16.3559377 L4.47781239,16.3559377 C4.07359493,16.3559377 3.74591695,16.6830468 3.74591695,17.0865631 C3.74591695,17.4900782 4.07359493,17.8171885 4.47781239,17.8171885 L5.56810396,17.8171885 L5.56810396,19.2693758 C5.56810396,19.6728909 5.89582135,20 6.29999941,20 C6.70421687,20 7.03189485,19.6728909 7.03189485,19.2693746 L7.03189485,17.8171873 L8.12222582,17.8171873 C8.52644269,17.8171873 8.85412187,17.4900389 8.85412187,17.0865619 C8.85412187,16.6830468 8.52644389,16.3559365 8.12222582,16.3559365 L7.03189485,16.3559365 L7.03189485,12.4926162 C10.1503175,12.1295309 12.5785958,9.47660148 12.5785958,6.26769543 Z M1.48519572,6.26769543 C1.48519572,3.61742198 3.64511738,1.46125018 6.3,1.46125018 C8.95492142,1.46125018 11.1148037,3.61742198 11.1148037,6.26769543 C11.1148037,8.91800761 8.95488202,11.0741401 6.2999994,11.0741401 C3.64511678,11.0741401 1.48519572,8.91800761 1.48519572,6.26769543 Z" id="Shape" fill="#FF94D4"></path>
                <g id="Group" transform="translate(0.743478, 0.000000)" fill="#FF73C6">
                    <path d="M5.19057372,1.47507816 C5.06977785,1.46597654 4.94773049,1.46128908 4.8246257,1.46128908 C2.16974308,1.46128908 0.00982141826,3.61746103 0.00982141826,6.26773432 C0.00982141826,8.9180471 2.16974308,11.0741796 4.8246257,11.0741796 C4.94772989,11.0741796 5.06977785,11.0694923 5.19057372,11.0603906 C2.70598695,10.8731248 0.741716867,8.79511729 0.741716867,6.26773432 C0.741717462,3.7403515 2.70598695,1.66234374 5.19057372,1.47507816 L5.19057372,1.47507816 Z" id="Path"></path>
                    <path d="M5.55652174,19.2693746 C5.55652174,19.5396483 5.40911746,19.7750783 5.19057372,19.9014449 C5.31751298,19.9748433 5.46808657,20.0120688 5.62867803,19.9964845 C6.00628649,19.959805 6.28841659,19.6314848 6.28841659,19.2527342 L6.28841659,17.8171873 L5.75980344,17.8171873 C5.64753869,17.8171873 5.55648174,17.9080463 5.55648174,18.0201566 L5.55648174,19.2693746 L5.55652174,19.2693746 Z" id="Path"></path>
                    <path d="M5.55652174,0 C5.4336522,0 5.31172187,0.0039453125 5.19057372,0.0109375 C8.48293085,0.200781254 11.1032215,2.93433582 11.1032215,6.26769548 C11.1032215,9.41679721 8.76455224,12.030468 5.73006512,12.4699212 C5.63036061,12.484374 5.55652174,12.5698042 5.55652174,12.6703894 L5.55652174,16.1529672 C5.55652174,16.2650371 5.64753869,16.3559365 5.75984404,16.3559365 L6.28845719,16.3559365 L6.28845719,12.4926162 C9.40691807,12.1295297 11.8351963,9.47660088 11.8351963,6.26769423 C11.8351175,2.81167954 9.01854779,0 5.55652174,0 Z" id="Path"></path>
                    <path d="M7.37874756,16.3559377 L6.64685152,16.3559377 C7.05106838,16.3559377 7.37874756,16.6830468 7.37874756,17.0865631 C7.37874756,17.4900782 7.05106958,17.8171885 6.64685152,17.8171885 L7.37874756,17.8171885 C7.78296443,17.8171885 8.1106436,17.4900401 8.1106436,17.0865631 C8.1106436,16.6830468 7.78292621,16.3559377 7.37874756,16.3559377 Z" id="Path"></path>
                </g>
            </g>
        </g>
    </g>
</svg>