<svg width="160" height="192" viewBox="0 0 160 192" fill="none" xmlns="http://www.w3.org/2000/svg">
<path d="M123.266 84.3566C125.886 85.0466 126.266 86.9066 126.026 89.2666C125.478 94.0092 123.223 98.3907 119.683 101.594C116.143 104.797 111.559 106.604 106.786 106.677C105.086 106.737 103.386 106.677 101.486 106.677C102.226 109.677 104.546 109.847 106.486 110.337C114.906 112.487 123.356 114.517 131.796 116.577C148.646 120.687 159.796 134.577 159.886 151.957C159.966 162.907 159.886 173.867 159.886 184.817C159.886 189.337 158.046 191.237 153.606 191.237C104.566 191.237 55.5256 191.237 6.48556 191.237C1.82556 191.237 0.0455556 189.387 0.0355556 184.607C0.0355556 173.607 -0.0444444 162.707 0.0355556 151.747C0.195556 134.637 11.3156 120.747 27.9556 116.617C36.3956 114.537 44.8456 112.517 53.2756 110.387C55.2156 109.897 57.4456 109.627 58.5656 106.687C56.8456 106.687 55.4356 106.687 54.0256 106.687C42.1456 106.527 33.8656 98.3066 33.7556 86.4566C33.6756 77.9866 33.7056 69.5266 33.7556 61.0566C33.7556 58.9966 33.6556 57.7966 30.9856 57.4166C27.0656 56.8666 24.4556 52.9966 24.8856 48.8466C24.9812 48.1405 24.9157 47.422 24.694 46.7448C24.4723 46.0677 24.1002 45.4495 23.6056 44.9366C19.6056 39.9966 21.7056 33.3966 27.7456 31.5566C27.9856 31.4866 28.3256 31.5566 28.4656 31.3966C31.8956 27.8266 37.4656 26.2166 39.9956 22.5466C52.1056 4.64662 71.9756 -3.77338 91.9756 1.60662C111.866 6.93662 125.536 24.7466 126.076 46.3166C126.296 55.0266 126.076 63.7366 126.146 72.4566C126.146 74.6866 125.586 76.3666 123.236 77.0066C117.666 74.7666 121.786 69.6466 119.936 66.3066C116.006 67.6166 116.046 67.6266 114.666 71.6366C112.346 78.4966 107.876 83.9266 102.826 88.9966C100.886 90.9366 99.6356 97.6566 100.646 100.057C100.759 100.335 100.957 100.572 101.212 100.731C101.466 100.891 101.765 100.967 102.066 100.947C111.556 101.897 119.256 98.1766 120.286 88.1466C120.486 86.1266 121.306 84.8266 123.266 84.3566ZM52.5756 185.517C59.6656 185.517 66.7655 185.437 73.8556 185.517C76.1556 185.517 77.1456 185.097 77.0956 182.517C76.9256 174.517 77.0156 166.587 77.0956 158.627C77.1394 157.264 76.7924 155.918 76.0956 154.747C68.7622 142.627 61.4289 130.49 54.0956 118.337C53.9602 118 53.7585 117.695 53.5025 117.438C53.2465 117.181 52.9414 116.979 52.6055 116.842C52.2695 116.706 51.9095 116.639 51.547 116.645C51.1845 116.651 50.8269 116.73 50.4956 116.877C42.8056 118.877 35.0356 120.597 27.3656 122.687C15.5956 125.877 6.45556 136.897 5.97556 149.087C5.53556 160.397 5.83556 171.727 5.72556 183.087C5.72556 185.087 6.53556 185.617 8.38556 185.567C12.2356 185.477 16.0956 185.457 19.9556 185.567C21.8956 185.627 22.5656 184.977 22.5156 183.017C22.3956 178.667 22.5156 174.307 22.5156 169.957C22.5156 167.877 23.0456 166.007 25.4556 166.037C27.8656 166.067 28.3256 168.037 28.3256 170.037C28.3256 173.897 28.5156 177.767 28.2556 181.607C28.0556 184.607 28.8456 185.727 32.0856 185.607C38.8756 185.327 45.7256 185.517 52.5756 185.517ZM107.156 185.517C114.156 185.517 121.086 185.387 128.046 185.577C130.896 185.647 131.916 184.957 131.856 181.907C131.656 172.077 131.766 162.247 131.796 152.427C131.788 151.185 131.902 149.946 132.136 148.727C132.242 148.167 132.553 147.667 133.008 147.323C133.462 146.98 134.028 146.817 134.596 146.867C135.164 146.819 135.732 146.974 136.198 147.303C136.664 147.632 137 148.115 137.146 148.667C137.378 149.754 137.475 150.866 137.436 151.977C137.436 162.057 137.546 172.137 137.386 182.207C137.386 184.857 138.156 185.647 140.746 185.497C144.216 185.287 147.746 185.367 151.186 185.497C153.126 185.557 154.126 185.177 154.096 182.877C153.976 171.807 154.246 160.727 153.906 149.667C153.516 136.987 144.206 125.777 131.906 122.617C124.456 120.697 116.906 119.007 109.516 116.997C107.516 116.457 106.636 116.997 105.656 118.617C98.4489 130.67 91.1889 142.687 83.8756 154.667C83.111 155.942 82.7324 157.411 82.7856 158.897C82.7856 166.737 82.8856 174.577 82.7856 182.407C82.7856 184.777 83.3556 185.647 85.8756 185.587C92.9756 185.407 100.066 185.517 107.156 185.517ZM41.6256 57.7766C41.8156 60.6866 43.4056 61.7266 45.7556 62.0266C46.763 62.0897 47.7145 62.5118 48.4374 63.2163C49.1602 63.9208 49.6066 64.8611 49.6956 65.8666C51.0856 74.8066 56.7556 81.0766 63.1156 86.7166C68.4956 91.4766 74.9756 93.9966 82.3156 93.2666C93.4256 92.0966 107.636 78.8366 109.716 67.6966C110.326 64.4366 111.386 62.3666 115.106 61.6966C118.826 61.0266 118.526 57.6966 118.476 54.7566C118.476 52.2466 117.946 49.7566 114.976 49.3966C104.816 48.0566 96.2756 43.8166 89.8556 35.6966C89.0356 34.6966 88.4856 34.6166 87.5156 35.4166C78.0721 43.2274 66.4672 47.9657 54.2556 48.9966C53.2556 49.0866 52.6056 49.2066 52.1756 50.5166C50.1356 56.6766 48.3756 57.8166 41.6256 57.7766ZM65.0656 95.0866V104.227C65.0656 107.937 63.7256 111.227 60.7156 113.227C58.6456 114.667 59.0756 115.667 60.1156 117.357C64.4956 124.427 68.7556 131.567 73.0556 138.687C75.2656 142.347 77.4756 146.017 79.9756 150.147C86.9756 138.477 93.6256 127.327 100.346 116.207C101.046 115.057 100.766 114.527 99.7756 113.837C96.1256 111.257 94.6156 107.647 94.7756 103.227C94.8556 100.707 94.7756 98.2266 94.7756 95.0466C84.6156 100.687 74.9756 100.367 65.0656 95.0866ZM100.846 11.7266C81.9756 0.296621 57.5256 5.99662 45.8956 24.2766C43.8956 27.4366 45.0656 30.4266 48.7156 31.4466C53.1956 32.7066 55.7156 35.5966 55.2756 40.0766C54.9756 43.3666 56.4056 43.0766 58.6256 42.6666C77.6656 39.1066 90.6556 27.3966 100.846 11.7266ZM120.036 44.9966C120.666 35.3066 114.036 21.0966 106.776 15.9066C105.186 14.7666 104.966 15.9066 104.386 16.7366C101.617 21.0064 98.4164 24.9805 94.8356 28.5966C93.3656 30.0466 93.3656 31.0666 94.6456 32.5966C99.3687 38.2796 105.99 42.0594 113.286 43.2366C115.586 43.6074 117.847 44.1967 120.036 44.9966ZM39.5056 66.1166C39.5056 72.7466 39.5056 79.1966 39.5056 85.6466C39.5056 96.3566 46.9356 102.567 57.5956 100.927C58.3256 100.817 59.3156 100.927 59.2356 99.9266C58.9456 96.1666 60.6956 92.1966 57.0356 88.8266C51.8056 83.9966 47.2756 78.4166 45.2056 71.4666C44.3156 68.4966 42.9756 66.7566 39.5056 66.1166ZM31.2656 37.0466C29.4956 36.6866 27.9456 36.9866 27.3556 38.8866C26.7656 40.7866 28.0756 41.8866 29.6556 42.5366C32.3056 43.5966 32.5856 45.2166 31.1356 47.5366C30.2556 48.9166 30.1356 50.3666 31.4456 51.5366C32.7556 52.7066 34.2856 52.2866 35.4456 51.1166C37.6156 48.8066 39.5956 48.8166 41.7456 51.1166C42.7456 52.1666 44.0056 52.7166 45.4056 51.7266C45.7272 51.5288 46.0038 51.2656 46.2174 50.9542C46.431 50.6428 46.5769 50.2901 46.6457 49.9188C46.7145 49.5475 46.7047 49.1659 46.6168 48.7986C46.5289 48.4313 46.365 48.0866 46.1356 47.7866C44.4756 45.1666 44.8156 43.5066 47.8056 42.3266C49.2356 41.7666 50.3456 40.5966 49.7056 38.8166C49.5917 38.4532 49.4057 38.1165 49.1586 37.8267C48.9116 37.5369 48.6086 37.2999 48.2678 37.13C47.927 36.9601 47.5554 36.8607 47.1753 36.8377C46.7951 36.8148 46.4143 36.8689 46.0556 36.9966C43.2456 37.5866 41.7456 36.3366 41.3556 33.6766C41.0856 31.8966 40.4956 30.4466 38.4656 30.4766C36.4356 30.5066 35.8956 31.9966 35.6456 33.7366C35.2956 36.2266 33.8456 37.4366 31.2656 37.0466Z" fill="#090605"/>
<path d="M123.266 84.3566C121.266 84.8266 120.486 86.1266 120.266 88.0966C119.266 98.0966 111.536 101.847 102.046 100.897C101.746 100.917 101.447 100.841 101.192 100.681C100.937 100.522 100.739 100.286 100.626 100.007C99.6258 97.6066 100.866 90.8866 102.806 88.9466C107.856 83.9466 112.326 78.4966 114.676 71.6366C116.056 67.6366 116.016 67.6366 119.946 66.3066C121.796 69.6466 117.676 74.7666 123.246 77.0066L123.266 84.3566Z" fill="#272727"/>
<path d="M52.5759 185.517C45.7259 185.517 38.8759 185.327 32.0459 185.597C28.8059 185.717 28.0459 184.597 28.2159 181.597C28.4759 177.757 28.2759 173.887 28.2859 170.027C28.2859 168.027 27.8159 166.027 25.4159 166.027C23.0159 166.027 22.4159 167.867 22.4759 169.947C22.4759 174.297 22.3959 178.657 22.4759 183.007C22.5259 185.007 21.8559 185.617 19.9159 185.557C16.0559 185.437 12.1959 185.457 8.3459 185.557C6.4959 185.607 5.6659 185.117 5.6859 183.077C5.7959 171.747 5.4959 160.417 5.9359 149.077C6.4159 136.887 15.5559 125.867 27.3059 122.687C34.9759 120.597 42.7459 118.887 50.4359 116.877C50.7673 116.73 51.1249 116.651 51.4874 116.645C51.8499 116.639 52.2098 116.706 52.5458 116.842C52.8818 116.979 53.1869 117.181 53.4429 117.438C53.6989 117.695 53.9006 118 54.0359 118.337C61.3026 130.51 68.6359 142.647 76.0359 154.747C76.7327 155.918 77.0797 157.264 77.0359 158.627C77.0359 166.627 76.9059 174.557 77.0359 182.517C77.0359 185.127 76.0959 185.587 73.7959 185.517C66.7659 185.437 59.6659 185.517 52.5759 185.517ZM28.2759 152.817C28.2759 151.947 28.2759 151.077 28.2759 150.207C28.1759 148.427 27.4959 146.917 25.5059 146.857C23.3159 146.797 22.5059 148.317 22.5059 150.307C22.5059 151.927 22.4559 153.547 22.5059 155.157C22.5959 156.977 23.4259 158.347 25.4159 158.327C27.4059 158.307 28.1259 156.837 28.2559 155.057C28.3059 154.317 28.2659 153.567 28.2759 152.817Z" fill="#90C63E"/>
<path d="M107.156 185.517C100.066 185.517 92.9659 185.407 85.8859 185.517C83.3659 185.577 82.7559 184.707 82.7959 182.337C82.9259 174.507 82.8659 166.667 82.7959 158.827C82.7428 157.341 83.1214 155.872 83.8859 154.597C91.1859 142.597 98.4459 130.58 105.666 118.547C106.666 116.917 107.526 116.387 109.526 116.927C116.956 118.927 124.466 120.627 131.916 122.547C144.176 125.707 153.486 136.917 153.916 149.597C154.256 160.657 153.986 171.737 154.106 182.807C154.106 185.107 153.106 185.487 151.196 185.427C147.716 185.317 144.196 185.237 140.756 185.427C138.166 185.577 137.356 184.787 137.396 182.137C137.556 172.067 137.466 161.987 137.446 151.907C137.485 150.796 137.388 149.684 137.156 148.597C137.01 148.045 136.674 147.562 136.208 147.233C135.742 146.904 135.175 146.749 134.606 146.797C134.038 146.747 133.472 146.91 133.018 147.253C132.564 147.597 132.253 148.097 132.146 148.657C131.913 149.876 131.799 151.115 131.806 152.357C131.806 162.177 131.666 172.007 131.866 181.837C131.926 184.887 130.866 185.577 128.056 185.507C121.086 185.387 114.116 185.517 107.156 185.517ZM108.476 167.267H115.196C121.766 167.267 123.566 165.447 123.616 158.817C123.616 157.817 123.616 156.817 123.616 155.817C123.386 151.077 121.366 148.957 116.696 148.817C111.216 148.707 105.696 148.697 100.266 148.817C95.8659 148.917 93.6759 151.197 93.5059 155.577C93.4359 157.317 93.4159 159.067 93.5059 160.807C93.7459 164.747 95.9559 166.997 99.8859 167.167C102.746 167.357 105.606 167.257 108.476 167.267Z" fill="#90C63E"/>
<path d="M41.625 57.7766C48.375 57.7766 50.135 56.6766 52.175 50.5166C52.605 49.2066 53.265 49.0866 54.255 48.9966C66.4644 47.9713 78.0691 43.2401 87.515 35.4366C88.515 34.6366 89.035 34.6766 89.855 35.7166C96.275 43.8366 104.855 48.0766 114.975 49.4166C117.975 49.8066 118.435 52.2666 118.475 54.7766C118.475 57.6666 118.775 61.0866 115.105 61.7166C111.435 62.3466 110.325 64.4366 109.715 67.7166C107.635 78.8566 93.425 92.1166 82.315 93.2866C74.975 93.9966 68.495 91.4766 63.115 86.7166C56.755 81.0766 51.115 74.8066 49.695 65.8666C49.6129 64.8557 49.1695 63.9082 48.446 63.1976C47.7224 62.4869 46.7672 62.0605 45.755 61.9966C43.405 61.7266 41.815 60.6866 41.625 57.7766Z" fill="#F7F9FA"/>
<path d="M65.0654 95.0864C74.9654 100.366 84.6154 100.686 94.7654 95.0864C94.7654 98.2264 94.8354 100.746 94.7654 103.266C94.6254 107.686 96.1354 111.266 99.7654 113.876C100.765 114.566 101.035 115.096 100.335 116.246C93.6254 127.366 86.9754 138.516 79.9754 150.186C77.4754 146.056 75.2654 142.386 73.0554 138.726C68.7554 131.606 64.4954 124.466 60.1154 117.396C59.1154 115.706 58.6454 114.706 60.7154 113.266C63.7154 111.186 65.0654 107.936 65.0654 104.266V95.0864Z" fill="#F7F9FA"/>
<path d="M100.846 11.7265C90.6556 27.3965 77.6656 39.1065 58.6256 42.6665C56.4056 43.0865 54.9755 43.3665 55.2755 40.0765C55.6855 35.5965 53.1956 32.7065 48.7156 31.4465C45.0656 30.4465 43.8855 27.4465 45.8955 24.2765C57.5255 5.9965 81.9756 0.296502 100.846 11.7265Z" fill="#272727"/>
<path d="M120.036 44.9969C117.846 44.2072 115.586 43.6279 113.286 43.2669C105.99 42.087 99.368 38.3035 94.6465 32.6168C93.3665 31.0668 93.3665 30.0469 94.8365 28.6169C98.4178 24.9976 101.618 21.0201 104.386 16.7469C104.966 15.8769 105.186 14.7469 106.776 15.9169C113.976 21.0869 120.666 35.2969 120.036 44.9969Z" fill="#272727"/>
<path d="M39.5055 66.1167C42.9855 66.7567 44.3155 68.4967 45.2055 71.4667C47.2755 78.4667 51.8055 83.9767 57.0355 88.7967C60.6955 92.1667 58.9455 96.1367 59.2355 99.8967C59.3155 100.897 58.3255 100.817 57.5955 100.897C46.9355 102.537 39.5955 96.3267 39.5055 85.6167C39.4755 79.1967 39.5055 72.7467 39.5055 66.1167Z" fill="#272727"/>
<path d="M31.2655 37.0465C33.8455 37.4365 35.2655 36.2265 35.6455 33.7365C35.8955 31.9565 36.4455 30.4865 38.4655 30.4665C40.4855 30.4465 41.0855 31.8865 41.3555 33.6665C41.7455 36.3265 43.2455 37.5765 46.0555 36.9865C46.4119 36.8668 46.7886 36.8192 47.1635 36.8466C47.5385 36.8741 47.9042 36.976 48.2394 37.1463C48.5745 37.3167 48.8724 37.5521 49.1155 37.8389C49.3587 38.1257 49.5422 38.458 49.6555 38.8165C50.2955 40.5965 49.1855 41.8165 47.7555 42.3265C44.7555 43.5065 44.4255 45.1665 46.0855 47.7865C46.3149 48.0865 46.4789 48.4312 46.5667 48.7985C46.6546 49.1657 46.6645 49.5474 46.5957 49.9187C46.5269 50.29 46.381 50.6427 46.1673 50.9541C45.9537 51.2655 45.6772 51.5287 45.3555 51.7265C43.9555 52.7265 42.6655 52.1665 41.6955 51.1165C39.5455 48.7965 37.5655 48.7865 35.3955 51.1165C34.2855 52.2865 32.8655 52.8065 31.3955 51.5365C29.9255 50.2665 30.2055 48.8865 31.0855 47.5365C32.5355 45.2665 32.2555 43.6465 29.6055 42.5365C28.0255 41.9065 26.6955 40.8565 27.3055 38.8865C27.9155 36.9165 29.4955 36.6865 31.2655 37.0465ZM38.4955 44.7965C39.9955 44.5765 41.0355 43.8465 41.0955 42.2265C41.1475 41.8879 41.1238 41.5419 41.0262 41.2135C40.9286 40.8851 40.7595 40.5824 40.531 40.3272C40.3025 40.0719 40.0203 39.8704 39.7047 39.7371C39.389 39.6039 39.0478 39.5422 38.7055 39.5565C38.3377 39.4849 37.9582 39.5019 37.5983 39.6061C37.2384 39.7103 36.9084 39.8987 36.6358 40.1558C36.3631 40.4128 36.1556 40.731 36.0304 41.0841C35.9051 41.4373 35.8657 41.8151 35.9155 42.1865C35.9755 43.7865 36.9755 44.5665 38.4955 44.7965Z" fill="#90C63E"/>
<path d="M28.2655 152.817C28.2655 153.567 28.2655 154.317 28.2655 155.057C28.1355 156.837 27.4455 158.297 25.4255 158.327C23.4055 158.357 22.6055 156.977 22.5155 155.157C22.4455 153.547 22.5155 151.927 22.5155 150.307C22.5155 148.307 23.3355 146.797 25.5155 146.857C27.5155 146.917 28.1855 148.427 28.2855 150.207C28.3155 151.077 28.2755 151.997 28.2655 152.817Z" fill="#090605"/>
<path d="M108.475 167.257C105.605 167.257 102.745 167.357 99.8852 167.257C95.9552 167.087 93.7452 164.837 93.5052 160.897C93.4052 159.157 93.4252 157.407 93.5052 155.667C93.6752 151.287 95.8652 149.007 100.265 148.907C105.735 148.787 111.265 148.797 116.695 148.907C121.365 148.997 123.385 151.117 123.615 155.907C123.615 156.907 123.615 157.907 123.615 158.907C123.615 165.537 121.765 167.337 115.195 167.357L108.475 167.257ZM108.325 161.467C110.795 161.467 113.325 161.337 115.735 161.467C118.805 161.677 117.915 159.467 117.925 157.997C117.935 156.527 118.775 154.407 115.715 154.537C111.155 154.717 106.565 154.737 101.995 154.537C99.5652 154.417 99.3152 155.357 99.1752 157.477C98.9652 160.627 99.7352 162.047 103.175 161.477C104.889 161.34 106.611 161.337 108.325 161.467Z" fill="#090605"/>
<path d="M38.4954 44.7967C36.9754 44.5667 35.9354 43.7967 35.9154 42.1867C35.8657 41.8153 35.905 41.4374 36.0303 41.0843C36.1555 40.7311 36.3631 40.4129 36.6357 40.1559C36.9084 39.8989 37.2383 39.7105 37.5982 39.6063C37.9581 39.5021 38.3377 39.4851 38.7054 39.5567C39.0477 39.5424 39.389 39.604 39.7046 39.7373C40.0202 39.8705 40.3024 40.072 40.5309 40.3273C40.7594 40.5826 40.9286 40.8853 41.0262 41.2137C41.1238 41.5421 41.1474 41.888 41.0954 42.2267C41.0354 43.8467 39.9754 44.5767 38.4954 44.7967Z" fill="#090605"/>
<path d="M108.325 161.467C106.597 161.348 104.861 161.365 103.135 161.517C99.7352 162.067 98.9652 160.647 99.1352 157.517C99.2752 155.397 99.5252 154.457 101.955 154.577C106.525 154.797 111.115 154.777 115.675 154.577C118.735 154.447 117.895 156.507 117.885 158.037C117.875 159.567 118.765 161.717 115.695 161.507C113.275 161.337 110.795 161.467 108.325 161.467Z" fill="#F7F9FA"/>
</svg>
