<svg width="20" height="20" viewBox="0 0 20 20" fill="none" xmlns="http://www.w3.org/2000/svg">
<path fill-rule="evenodd" clip-rule="evenodd" d="M4.1667 3.99799C5.43093 3.73821 6.39198 3.72243 7.18836 3.82198C8.12085 3.93854 8.86983 4.21645 9.70745 4.53056L9.73246 4.53994C10.5549 4.8484 11.4657 5.18998 12.605 5.33239C13.525 5.44739 14.5677 5.43057 15.8334 5.20018V12.6693C14.5692 12.929 13.6081 12.9448 12.8118 12.8453C11.8793 12.7287 11.1303 12.4508 10.2927 12.1367L10.2677 12.1273C9.44516 11.8188 8.53437 11.4773 7.39508 11.3348C6.47512 11.2199 5.43237 11.2367 4.16672 11.4671L4.1667 3.99799ZM16.4646 3.3585C14.8812 3.75436 13.7356 3.79408 12.8118 3.6786C11.8793 3.56204 11.1303 3.28412 10.2927 2.97001L10.2677 2.96064C9.44516 2.65217 8.53437 2.31059 7.39508 2.16818C6.23946 2.02373 4.89009 2.08727 3.14853 2.52086C2.77723 2.60493 2.5 2.93691 2.5 3.33363V17.5003C2.5 17.9605 2.8731 18.3336 3.33333 18.3336C3.79357 18.3336 4.16667 17.9605 4.16667 17.5003V13.1647C5.43091 12.9049 6.39198 12.8891 7.18836 12.9886C8.12085 13.1052 8.86983 13.3831 9.70745 13.6972L9.73245 13.7066C10.5549 14.0151 11.4657 14.3567 12.605 14.4991C13.7645 14.644 15.1189 14.5795 16.8688 14.1421C17.2398 14.0493 17.5001 13.716 17.5001 13.3336V4.16695C17.5001 3.91034 17.3818 3.66804 17.1796 3.51012C16.9773 3.35219 16.7136 3.29626 16.4646 3.3585Z" fill="#A6AEC1"/>
</svg>
