<svg width="172" height="132" viewBox="0 0 172 132" fill="none" xmlns="http://www.w3.org/2000/svg">
<path d="M167.955 81.3875C167.983 99.3909 162.014 116.891 150.991 131.125H22.1392C11.1162 116.891 5.14775 99.3909 5.17588 81.3875C5.17588 36.437 41.6165 0 86.567 0C131.517 0 167.955 36.4382 167.955 81.3875Z" fill="#F3F8E7"/>
<path d="M113.247 34.562C113.247 34.562 113.635 43.4985 115.565 46.7826C121.127 56.2367 122.558 66.7599 116.643 72.1024C110.728 77.4449 73.8128 76.6618 71.3097 63.9985C69.2023 53.3371 74.2812 52.3141 75.7142 43.5931C76.3626 39.6471 78.086 31.3809 78.086 31.3809" fill="#0A0A0A"/>
<path d="M81.6602 62.6066C81.7237 62.5982 82.431 74.334 96.0645 73.311C105.503 72.6037 108.868 62.5899 109.085 62.5899C108.067 62.3737 106.353 62.0591 105.901 61.8179C104.415 61.0193 102.576 60.1885 102.097 57.3023C101.821 55.6386 102.289 47.1284 102.145 45.4453L87.6573 48.679C87.8597 52.2339 89.2768 60.4742 84.3108 61.9337C83.4845 62.174 82.5946 62.3952 81.6602 62.6066Z" fill="#FBC8B4"/>
<path opacity="0.52" d="M87.4531 58.5649C87.6801 57.8336 87.8263 57.0796 87.889 56.3164C88.0483 54.5748 88.0165 52.8211 87.7943 51.0864C90.739 50.6891 93.5132 49.4736 95.8015 47.5781C96.0702 48.5716 97.55 52.9129 97.1404 53.8571C96.366 55.642 92.7275 58.5649 87.4531 58.5649Z" fill="#0C0C0C"/>
<path d="M88.75 54.8552C94.4477 55.5418 101.889 53.4285 103.597 45.8593L105.138 39.0298C106.845 31.4609 104.254 24.4282 97.1276 22.8197C90.0011 21.2118 83.2899 26.1462 81.5823 33.716L80.9001 36.7395C80.2452 39.6433 78.5844 53.6321 88.75 54.8552Z" fill="#FBC8B4"/>
<path d="M87.3885 46.4942C88.4824 46.5148 89.5561 46.7921 90.5231 47.3038C90.5622 47.325 90.5915 47.3605 90.6048 47.4029C90.6181 47.4453 90.6143 47.4913 90.5943 47.5309C90.5743 47.5706 90.5396 47.6009 90.4976 47.6154C90.4556 47.63 90.4096 47.6275 90.3693 47.6086C88.2832 46.5566 86.3272 46.5656 84.7131 47.6346C84.6804 47.6572 84.6467 47.6781 84.6119 47.6973C84.5717 47.7142 84.5265 47.7151 84.4856 47.6997C84.4447 47.6843 84.4113 47.6539 84.3922 47.6146C84.3731 47.5754 84.3698 47.5303 84.3829 47.4887C84.396 47.447 84.4245 47.412 84.4626 47.3907C84.4755 47.3835 84.4967 47.3692 84.5259 47.3498C85.3737 46.7862 86.3705 46.4883 87.3885 46.4942Z" fill="#0C0C0C"/>
<path d="M87.1109 44.1774H87.0966C86.8037 44.1328 86.5135 44.0721 86.2272 43.9956C85.7994 43.8783 85.2376 43.6777 85.2928 43.2937C85.3561 42.8561 87.2378 38.3083 87.4521 37.7912C87.4609 37.7682 87.4743 37.7472 87.4914 37.7294C87.5085 37.7117 87.5289 37.6975 87.5516 37.6878C87.5743 37.6781 87.5986 37.673 87.6233 37.6729C87.6479 37.6727 87.6724 37.6775 87.6951 37.687C87.7179 37.6964 87.7385 37.7103 87.7558 37.7279C87.7731 37.7455 87.7867 37.7663 87.7958 37.7893C87.8049 37.8122 87.8093 37.8367 87.8088 37.8613C87.8083 37.886 87.8028 37.9102 87.7927 37.9327C86.99 39.8693 85.7003 43.0519 85.6579 43.3466C85.7114 43.4797 86.4225 43.7069 87.1506 43.8123C87.1976 43.8194 87.24 43.8443 87.269 43.8819C87.2981 43.9194 87.3115 43.9668 87.3066 44.014C87.3016 44.0612 87.2786 44.1047 87.2424 44.1355C87.2062 44.1662 87.1595 44.1817 87.1121 44.1789L87.1109 44.1774Z" fill="#0C0C0C"/>
<path d="M110.798 41.6263L104.409 40.2232C99.6079 38.0825 98.429 29.5998 98.429 29.5998C98.429 29.5998 92.3121 35.1596 78.0898 31.3802C78.0898 31.3802 81.6615 11.4871 102.639 18.0389C109.403 20.1516 114.064 27.2038 113.133 36.3815C112.479 42.8112 110.798 41.6263 110.798 41.6263Z" fill="#0A0A0A"/>
<path d="M102.635 48.0653C104.801 48.554 107.08 46.6324 107.568 44.4674C108.057 42.3025 106.571 40.7111 104.404 40.2227L102.96 41.4218L100.773 47.6474L102.635 48.0653Z" fill="#FBC8B4"/>
<path d="M86.288 33.7473C85.6664 33.3145 84.9398 33.0567 84.1843 33.001C83.8125 32.9714 83.4383 32.9979 83.0744 33.0795C82.714 33.1588 82.3651 33.2832 82.0358 33.4497C81.9905 33.4712 81.9554 33.5095 81.9379 33.5565C81.9204 33.6034 81.9219 33.6554 81.9421 33.7013C81.9623 33.7472 81.9997 33.7833 82.0461 33.8021C82.0926 33.8209 82.1446 33.8209 82.191 33.8019L82.2048 33.7963C82.5086 33.66 82.8283 33.5623 83.1565 33.5055C83.4808 33.4478 83.8121 33.4394 84.1389 33.4807C84.7874 33.5579 85.404 33.805 85.9262 34.1972L85.9429 34.2106C86.0035 34.2578 86.0803 34.2789 86.1564 34.2695C86.2325 34.26 86.3018 34.2207 86.349 34.1602C86.3961 34.0996 86.4173 34.0229 86.4078 33.9467C86.3983 33.8706 86.359 33.8013 86.2985 33.7542L86.288 33.7473Z" fill="#0C0C0C"/>
<path d="M91.8704 35.0415C92.5098 34.9083 93.1731 34.9466 93.7929 35.1525C94.1063 35.2543 94.4025 35.4027 94.6715 35.5929C94.9444 35.7837 95.1922 36.0081 95.4092 36.2607L95.419 36.2714C95.453 36.3081 95.5 36.3302 95.5499 36.3328C95.5999 36.3355 95.6489 36.3187 95.6866 36.2859C95.7244 36.2531 95.7479 36.2068 95.7521 36.157C95.7564 36.1072 95.7411 36.0576 95.7095 36.0189C95.4822 35.7283 95.2192 35.4675 94.9268 35.2427C94.6323 35.014 94.305 34.8309 93.956 34.6997C93.2486 34.4286 92.4813 34.3527 91.7346 34.48C91.6964 34.4857 91.6597 34.4991 91.6267 34.5192C91.5937 34.5394 91.5651 34.566 91.5425 34.5974C91.52 34.6288 91.504 34.6644 91.4954 34.7021C91.4869 34.7398 91.486 34.7789 91.4928 34.8169C91.4996 34.855 91.514 34.8913 91.5351 34.9237C91.5561 34.9562 91.5835 34.984 91.6155 35.0057C91.6476 35.0273 91.6836 35.0423 91.7215 35.0498C91.7595 35.0573 91.7985 35.0571 91.8364 35.0493L91.8483 35.0469L91.8704 35.0415Z" fill="#0C0C0C"/>
<path d="M104.394 40.1416L104.464 39.9658C96.4181 36.7569 98.6893 28.8306 98.7129 28.7506L98.532 28.6963C98.5084 28.7775 96.1849 36.8676 104.394 40.1416Z" fill="#0C0C0C"/>
<path d="M82.8256 36.9665C83.3225 36.9665 83.7253 36.5637 83.7253 36.0668C83.7253 35.5698 83.3225 35.167 82.8256 35.167C82.3286 35.167 81.9258 35.5698 81.9258 36.0668C81.9258 36.5637 82.3286 36.9665 82.8256 36.9665Z" fill="#0C0C0C"/>
<path d="M91.7201 38.4978C92.217 38.4978 92.6199 38.0949 92.6199 37.598C92.6199 37.1011 92.217 36.6982 91.7201 36.6982C91.2232 36.6982 90.8203 37.1011 90.8203 37.598C90.8203 38.0949 91.2232 38.4978 91.7201 38.4978Z" fill="#0C0C0C"/>
<path opacity="0.3" d="M94.4898 43.972C94.5881 43.2846 93.908 42.6186 92.9709 42.4846C92.0337 42.3506 91.1943 42.7992 91.096 43.4867C90.9977 44.1742 91.6777 44.8401 92.6149 44.9741C93.552 45.1081 94.3914 44.6595 94.4898 43.972Z" fill="#FD6D6D"/>
<path opacity="0.3" d="M82.7498 41.9876C82.6497 42.6742 81.8106 43.122 80.8732 42.9895C80.7113 42.9661 80.5522 42.9261 80.3985 42.8701C80.3738 42.0482 80.3896 41.258 80.4308 40.5284C80.6933 40.4693 80.9645 40.4597 81.2305 40.5C82.1676 40.6317 82.8474 41.2986 82.7498 41.9876Z" fill="#FD6D6D"/>
<path d="M15.8885 61.9165C16.014 61.6681 16.2135 61.4647 16.4595 61.3346C16.7055 61.2044 16.9858 61.1538 17.2618 61.1899C17.2594 61.1733 17.261 61.1563 17.2666 61.1405C17.2723 61.1247 17.2816 61.1104 17.294 61.0991C17.3063 61.0877 17.3213 61.0795 17.3375 61.0752C17.3538 61.0709 17.3708 61.0706 17.3872 61.0744L16.456 60.4068C16.1775 60.2162 15.9774 59.9312 15.8927 59.6045C15.8079 59.2777 15.8443 58.9314 15.9951 58.6294C16.1537 58.336 16.4156 58.112 16.73 58.0008C17.0444 57.8895 17.3889 57.899 17.6967 58.0273C17.6943 58.0141 17.7033 58.0016 17.7054 57.9882L17.3227 57.7138C17.061 57.533 16.8697 57.2674 16.7813 56.9618C16.6929 56.6563 16.7128 56.3296 16.8376 56.037C16.9196 55.8551 17.041 55.6938 17.193 55.5645C17.3449 55.4353 17.5237 55.3413 17.7163 55.2895C17.909 55.2377 18.1107 55.2293 18.307 55.2649C18.5033 55.3005 18.6893 55.3793 18.8514 55.4954L19.7342 56.1283C19.7369 56.1229 19.7342 56.117 19.7378 56.1119C19.7414 56.1068 19.7509 56.1053 19.756 56.1C19.553 55.8721 19.4336 55.582 19.4173 55.2772C19.4011 54.9725 19.4889 54.6713 19.6664 54.4231C20.0844 53.7526 21.045 53.8896 21.6161 54.2986L26.8123 57.8882L25.8836 56.3245C25.697 56.0236 25.6315 55.6632 25.7002 55.3159C25.769 54.9686 25.9669 54.6603 26.2541 54.4533C26.4061 54.3515 26.5773 54.2818 26.7572 54.2484C26.9371 54.215 27.1219 54.2186 27.3003 54.259C27.4788 54.2993 27.6471 54.3756 27.7951 54.4832C27.9431 54.5908 28.0676 54.7274 28.1611 54.8846L33.2328 63.4226C33.8278 64.4242 34.0087 65.6184 33.7372 66.7513C33.4658 67.8842 32.7633 68.8667 31.779 69.4899C30.6375 70.2127 29.3061 70.5781 27.9556 70.5393C26.6051 70.5006 25.2969 70.0594 24.1987 69.2723L16.3513 63.648C16.0902 63.4538 15.9024 63.1771 15.8184 62.8628C15.7345 62.5485 15.7591 62.215 15.8885 61.9165Z" fill="#FBC8B4"/>
<g opacity="0.25">
<path opacity="0.25" d="M24.8765 59.6785C24.8575 59.7049 24.8289 59.7227 24.7969 59.7283C24.7649 59.7339 24.732 59.7267 24.7052 59.7084L19.7678 56.2866C19.7538 56.2775 19.7417 56.2658 19.7324 56.252C19.723 56.2381 19.7165 56.2226 19.7133 56.2062C19.7101 56.1899 19.7102 56.173 19.7136 56.1567C19.717 56.1404 19.7236 56.1249 19.7331 56.1112C19.7426 56.0975 19.7548 56.0858 19.7689 56.0769C19.783 56.068 19.7987 56.062 19.8152 56.0593C19.8317 56.0566 19.8485 56.0572 19.8647 56.0611C19.8809 56.065 19.8962 56.0722 19.9096 56.0821L24.847 59.5021C24.874 59.5209 24.8924 59.5496 24.8983 59.582C24.9042 59.6144 24.897 59.6478 24.8783 59.6749L24.8765 59.6785Z" fill="#0C0C0C"/>
</g>
<g opacity="0.25">
<path opacity="0.25" d="M23.4302 61.8963C23.4112 61.9227 23.3826 61.9406 23.3506 61.9462C23.3186 61.9517 23.2856 61.9446 23.2588 61.9262L17.7489 58.1086C17.7218 58.0898 17.7033 58.0611 17.6973 58.0287C17.6914 57.9963 17.6986 57.9629 17.7172 57.9357C17.7367 57.9095 17.7654 57.8917 17.7976 57.8858C17.8298 57.88 17.8629 57.8867 17.8904 57.9044L23.4006 61.7211C23.4277 61.7399 23.4461 61.7687 23.452 61.8011C23.4579 61.8334 23.4507 61.8668 23.432 61.8939L23.4302 61.8963Z" fill="#0C0C0C"/>
</g>
<g opacity="0.25">
<path opacity="0.25" d="M21.8771 64.3078C21.8582 64.3342 21.8296 64.3521 21.7976 64.3577C21.7657 64.3633 21.7327 64.356 21.706 64.3376L17.3105 61.2926C17.2851 61.2732 17.2682 61.2447 17.2632 61.2131C17.2583 61.1815 17.2656 61.1493 17.2838 61.123C17.302 61.0967 17.3296 61.0784 17.3609 61.0719C17.3922 61.0654 17.4248 61.0712 17.452 61.0881L21.8475 64.1331C21.8746 64.1519 21.8931 64.1807 21.899 64.2132C21.9049 64.2457 21.8976 64.2791 21.8789 64.3063L21.8771 64.3078Z" fill="#0C0C0C"/>
</g>
<path d="M35.4655 60.3428L48.0879 89.4927L65.5042 65.656L80.5978 79.2618L54.8234 112.642L54.6544 112.881C53.6227 114.294 52.2483 115.421 50.6607 116.156C49.073 116.891 47.3244 117.209 45.5796 117.082C43.8347 116.954 42.1511 116.384 40.6874 115.426C39.2237 114.468 38.028 113.153 37.2131 111.604L19.0625 69.4667L35.4655 60.3428Z" fill="#1E262A"/>
<path d="M49.5493 92.542C49.5817 92.542 49.6136 92.5337 49.6419 92.5179C49.6701 92.5021 49.6939 92.4793 49.7108 92.4516C49.7277 92.424 49.7372 92.3925 49.7384 92.3601C49.7396 92.3277 49.7325 92.2956 49.7177 92.2667L48.2576 89.4059C48.2339 89.3628 48.1944 89.3305 48.1473 89.316C48.1003 89.3015 48.0494 89.3059 48.0056 89.3283C47.9617 89.3507 47.9283 89.3892 47.9125 89.4358C47.8966 89.4824 47.8995 89.5334 47.9205 89.5779L49.3807 92.439C49.3965 92.47 49.4207 92.4961 49.4505 92.5143C49.4802 92.5325 49.5144 92.5421 49.5493 92.542Z" fill="#0C0C0C"/>
<path d="M64.72 88.4427C65.1496 93.4878 67.2384 124.963 67.6513 131.177H125.968C126.29 125.572 126.319 101.065 127.538 90.1049C128.702 79.6465 130.984 74.4103 129.311 71.3184C126.576 66.2652 122.649 61.7078 115.12 61.0788C111.992 60.817 106.219 61.9332 106.219 61.9332C106.219 61.9332 105.822 69.9473 96.3755 70.393C83.5151 70.9999 84.3698 61.9538 84.3101 61.932C81.6592 60.9627 72.4319 60.4692 68.3686 63.153C60.6158 68.2722 63.8086 77.7514 64.72 88.4427Z" fill="#1E262A"/>
<path d="M65.1589 91.7169L64.7812 91.7383L65.2359 99.7499L65.6135 99.7284L65.1589 91.7169Z" fill="#0C0C0C"/>
<path d="M171.326 65.4537C171.179 65.2182 170.962 65.0342 170.705 64.9273C170.448 64.8203 170.165 64.7957 169.893 64.8567C169.894 64.8399 169.891 64.8232 169.884 64.808C169.877 64.7928 169.866 64.7795 169.853 64.7693C169.84 64.7591 169.824 64.7524 169.807 64.7496C169.791 64.7468 169.774 64.7481 169.758 64.7534L170.624 64.0029C170.883 63.7874 171.056 63.4851 171.111 63.152C171.165 62.8189 171.097 62.4773 170.919 62.1905C170.734 61.9131 170.452 61.7142 170.129 61.6324C169.806 61.5506 169.464 61.5918 169.169 61.7478C169.169 61.7344 169.16 61.7227 169.157 61.7096L169.513 61.4012C169.757 61.1971 169.922 60.9149 169.982 60.6025C170.042 60.2901 169.992 59.9666 169.841 59.6867C169.742 59.5133 169.607 59.3638 169.444 59.2491C169.28 59.1344 169.094 59.0573 168.897 59.0235C168.701 58.9897 168.499 58.9999 168.307 59.0534C168.115 59.1069 167.937 59.2024 167.786 59.333L166.965 60.0444C166.962 60.0393 166.965 60.033 166.96 60.0286C166.955 60.0241 166.946 60.0232 166.941 60.0184C167.122 59.7726 167.214 59.4727 167.202 59.1678C167.19 58.8629 167.074 58.5711 166.875 58.3404C166.397 57.7111 165.453 57.9362 164.922 58.3959L160.078 62.4487L160.859 60.8068C161.018 60.49 161.05 60.1247 160.95 59.7848C160.849 59.445 160.624 59.156 160.318 58.9762C160.157 58.8889 159.98 58.8352 159.798 58.8185C159.616 58.8017 159.432 58.8223 159.258 58.8789C159.084 58.9356 158.924 59.0271 158.786 59.1478C158.649 59.2686 158.537 59.4161 158.459 59.5814L154.195 68.5501C153.695 69.6023 153.625 70.808 153.999 71.9112C154.374 73.0143 155.164 73.9279 156.201 74.458C157.405 75.0725 158.764 75.3137 160.105 75.1507C161.447 74.9877 162.709 74.4279 163.73 73.543L171.026 67.2192C171.268 67.0019 171.429 66.7093 171.483 66.3888C171.538 66.0683 171.483 65.7388 171.326 65.4537Z" fill="#FBC8B4"/>
<g opacity="0.25">
<path opacity="0.25" d="M162.168 64.0507C162.189 64.0751 162.219 64.09 162.252 64.0925C162.284 64.0949 162.316 64.0847 162.341 64.0639L166.942 60.2039C166.955 60.1934 166.965 60.1806 166.973 60.1661C166.98 60.1516 166.985 60.1358 166.986 60.1195C166.988 60.1033 166.986 60.0869 166.981 60.0713C166.976 60.0558 166.968 60.0413 166.958 60.0288C166.947 60.0163 166.934 60.006 166.92 59.9984C166.905 59.9909 166.89 59.9863 166.873 59.9849C166.857 59.9834 166.841 59.9852 166.825 59.9901C166.81 59.995 166.795 60.0029 166.783 60.0134L162.181 63.8734C162.156 63.8946 162.14 63.9249 162.137 63.9577C162.134 63.9905 162.145 64.0231 162.166 64.0484L162.168 64.0507Z" fill="#0C0C0C"/>
</g>
<g opacity="0.25">
<path opacity="0.25" d="M163.816 66.1258C163.837 66.1502 163.868 66.1652 163.9 66.1676C163.932 66.1701 163.964 66.1598 163.989 66.1389L169.124 61.8311C169.149 61.8099 169.165 61.7795 169.168 61.7467C169.171 61.7139 169.161 61.6812 169.139 61.6559C169.118 61.6316 169.087 61.6166 169.055 61.6138C169.022 61.6109 168.99 61.6206 168.964 61.6407L163.829 65.9484C163.804 65.9697 163.788 66.0001 163.786 66.0329C163.783 66.0658 163.793 66.0984 163.814 66.1237L163.816 66.1258Z" fill="#0C0C0C"/>
</g>
<g opacity="0.25">
<path opacity="0.25" d="M165.586 68.3861C165.607 68.4104 165.637 68.4254 165.669 68.4279C165.702 68.4303 165.734 68.4201 165.759 68.3993L169.855 64.9617C169.88 64.9405 169.896 64.9102 169.899 64.8773C169.902 64.8445 169.892 64.8119 169.871 64.7866C169.849 64.7614 169.819 64.7455 169.786 64.7427C169.753 64.7398 169.721 64.7501 169.695 64.7712L165.599 68.2076C165.574 68.2288 165.558 68.2591 165.555 68.2919C165.552 68.3247 165.563 68.3573 165.584 68.3826L165.586 68.3861Z" fill="#0C0C0C"/>
</g>
<path d="M152.197 65.0781L142.602 89.6868L128.591 70.0137L113.5 83.6201L135.111 116.621L135.28 116.86C136.312 118.273 137.687 119.4 139.274 120.135C140.862 120.87 142.611 121.189 144.355 121.061C146.1 120.933 147.784 120.363 149.248 119.405C150.711 118.447 151.907 117.132 152.722 115.584L168.225 73.8244L152.197 65.0781Z" fill="#1E262A"/>
<path d="M141.139 92.7374C141.106 92.7373 141.074 92.729 141.046 92.7131C141.018 92.6973 140.994 92.6744 140.977 92.6468C140.96 92.6191 140.951 92.5876 140.949 92.5553C140.948 92.5229 140.955 92.4907 140.97 92.4618L142.43 89.601C142.453 89.557 142.493 89.5239 142.54 89.5088C142.588 89.4938 142.639 89.4981 142.684 89.5207C142.728 89.5434 142.761 89.5826 142.777 89.6299C142.793 89.6771 142.789 89.7287 142.767 89.7733L141.307 92.6341C141.291 92.6652 141.267 92.6912 141.237 92.7095C141.208 92.7277 141.173 92.7374 141.139 92.7374Z" fill="#0C0C0C"/>
<path d="M159.279 131.386H15.6911C15.5991 131.383 15.5118 131.345 15.4477 131.279C15.3835 131.213 15.3477 131.124 15.3477 131.032C15.3477 130.94 15.3835 130.852 15.4477 130.786C15.5118 130.72 15.5991 130.681 15.6911 130.679H159.279C159.371 130.681 159.458 130.72 159.522 130.786C159.586 130.852 159.622 130.94 159.622 131.032C159.622 131.124 159.586 131.213 159.522 131.279C159.458 131.345 159.371 131.383 159.279 131.386Z" fill="#1E262A"/>
<path d="M49.1129 42.296V6.16586C49.1129 5.35492 48.7908 4.57717 48.2175 4.00364C47.6442 3.43011 46.8666 3.10774 46.0556 3.10742H3.55844C2.74729 3.10742 1.96936 3.42965 1.3958 4.00322C0.822227 4.57678 0.5 5.35471 0.5 6.16586L0.5 33.1058C0.5 33.9169 0.822227 34.6948 1.3958 35.2684C1.96936 35.842 2.74729 36.1642 3.55844 36.1642H38.09L47.7211 43.014C47.8529 43.1077 48.008 43.1634 48.1693 43.1749C48.3306 43.1864 48.492 43.1533 48.6358 43.0791C48.7795 43.005 48.9001 42.8927 48.9842 42.7545C49.0684 42.6164 49.1129 42.4577 49.1129 42.296Z" fill="#90C63E"/>
<path d="M23.4968 31.7816C24.5305 31.7816 25.3686 30.9436 25.3686 29.9099C25.3686 28.8761 24.5305 28.0381 23.4968 28.0381C22.463 28.0381 21.625 28.8761 21.625 29.9099C21.625 30.9436 22.463 31.7816 23.4968 31.7816Z" fill="white"/>
<path d="M23.4114 25.8463C23.0882 25.8463 22.7783 25.7178 22.5499 25.4893C22.3214 25.2608 22.1931 24.9509 22.1931 24.6278V20.102C22.1931 19.8286 22.2851 19.5632 22.4542 19.3484C22.6234 19.1336 22.8599 18.9819 23.1257 18.9178C23.1785 18.9046 28.6294 17.5251 28.6294 13.8571C28.6294 11.5554 26.7424 9.94636 24.0407 9.94636C21.1151 9.94636 19.6111 12.872 19.5487 12.9955C19.4025 13.2802 19.1502 13.4959 18.8463 13.5961C18.5424 13.6963 18.2113 13.673 17.9244 13.5311C17.6376 13.3893 17.4181 13.1403 17.3133 12.8379C17.2085 12.5356 17.2268 12.2041 17.3644 11.9152C17.4539 11.736 19.5836 7.50977 24.0407 7.50977C28.1114 7.50977 31.066 10.1783 31.066 13.8556C31.066 18.2873 26.6179 20.3173 24.63 21.0033V24.6278C24.6299 24.9509 24.5015 25.2608 24.273 25.4893C24.0444 25.7179 23.7345 25.8463 23.4114 25.8463Z" fill="white"/>
</svg>
