<svg width="40" height="31" viewBox="0 0 40 31" fill="none" xmlns="http://www.w3.org/2000/svg">
<path d="M39.32 6.18239C39.32 4.54272 38.6687 2.9702 37.5092 1.81078C36.3498 0.651357 34.7773 0 33.1376 0H6.18239C4.54272 0 2.9702 0.651357 1.81078 1.81078C0.651357 2.9702 0 4.54272 0 6.18239V24.254C0 25.8937 0.651357 27.4662 1.81078 28.6256C2.9702 29.785 4.54272 30.4364 6.18239 30.4364H33.1376C34.7773 30.4364 36.3498 29.785 37.5092 28.6256C38.6687 27.4662 39.32 25.8937 39.32 24.254V6.18239ZM2.85341 24.254V6.18239C2.85341 5.29949 3.20414 4.45275 3.82845 3.82845C4.45275 3.20414 5.29949 2.85341 6.18239 2.85341H33.1376C34.0205 2.85341 34.8673 3.20414 35.4916 3.82845C36.1159 4.45275 36.4666 5.29949 36.4666 6.18239V20.925L31.2591 16.0885C30.6183 15.4923 29.7684 15.1724 28.8934 15.1982C28.0185 15.224 27.1889 15.5934 26.5843 16.2264L23.65 19.2986L19.7789 16.8637C19.1477 16.4667 18.4016 16.2931 17.66 16.3707C16.9184 16.4483 16.2243 16.7726 15.689 17.2917L5.2265 27.4403C4.54101 27.2348 3.93998 26.8139 3.51253 26.24C3.08507 25.666 2.85394 24.9696 2.85341 24.254ZM21.6336 21.4006L15.7318 27.583H9.1975L17.6721 19.3414C17.7486 19.267 17.8478 19.2204 17.9539 19.2092C18.06 19.198 18.1668 19.2228 18.2571 19.2796L21.6336 21.4006ZM33.1376 27.583H19.66L28.6483 18.1953C28.7372 18.1081 28.8567 18.0593 28.9811 18.0593C29.1056 18.0593 29.2252 18.1081 29.314 18.1953L36.4143 24.7961C36.286 25.5732 35.8864 26.2796 35.2865 26.7899C34.6866 27.3001 33.9252 27.5811 33.1376 27.583Z" fill="white"/>
<path d="M10.3537 16.883C11.4516 16.8839 12.5251 16.5592 13.4384 15.95C14.3517 15.3407 15.0638 14.4743 15.4845 13.4602C15.9053 12.4462 16.0159 11.3302 15.8023 10.2533C15.5887 9.17639 15.0605 8.18705 14.2845 7.41041C13.5085 6.63377 12.5197 6.10472 11.443 5.89019C10.3663 5.67566 9.25012 5.78529 8.23573 6.20521C7.22134 6.62513 6.35429 7.33647 5.74425 8.24924C5.13421 9.16202 4.80859 10.2352 4.80859 11.3331C4.80985 12.8038 5.39432 14.214 6.43382 15.2544C7.47333 16.2948 8.88301 16.8805 10.3537 16.883ZM10.3537 8.64137C10.887 8.64137 11.4084 8.79952 11.8518 9.09581C12.2952 9.3921 12.6409 9.81323 12.8449 10.3059C13.049 10.7987 13.1024 11.3408 12.9984 11.8639C12.8943 12.387 12.6375 12.8674 12.2604 13.2445C11.8833 13.6216 11.4028 13.8785 10.8798 13.9825C10.3567 14.0866 9.81454 14.0332 9.32183 13.8291C8.82911 13.625 8.40798 13.2794 8.11169 12.8359C7.81539 12.3925 7.65725 11.8712 7.65725 11.3378C7.65725 10.9837 7.727 10.6331 7.86251 10.3059C7.99802 9.9788 8.19664 9.68154 8.44703 9.43115C8.69742 9.18076 8.99468 8.98214 9.32183 8.84663C9.64898 8.71112 9.99962 8.64137 10.3537 8.64137Z" fill="white"/>
</svg>
