<svg width="19" height="24" viewBox="0 0 19 24" fill="none" xmlns="http://www.w3.org/2000/svg">
<path d="M7.73083 17.8405V19.2548H5.6025C5.30986 19.2548 5.07042 19.4905 5.07042 19.7786C5.07042 20.0667 5.30986 20.3024 5.6025 20.3024H7.73083V22.4762C7.73083 22.7643 7.97027 23 8.26291 23C8.55556 23 8.79499 22.7643 8.79499 22.4762V20.3024H10.9233C11.216 20.3024 11.4554 20.0667 11.4554 19.7786C11.4554 19.4905 11.216 19.2548 10.9233 19.2548H8.79499V17.8405C12.5462 17.5786 15.5258 14.4619 15.5258 10.6905C15.5258 8.88333 14.8341 7.23333 13.7167 5.97619L16.9358 2.80714V5.97619C16.9358 6.26429 17.1753 6.5 17.4679 6.5C17.7606 6.5 18 6.26429 18 5.97619V1.55C18 1.52381 18 1.47143 18 1.44524C18 1.41905 18 1.41905 17.9734 1.39286C17.9734 1.36667 17.9734 1.36667 17.9468 1.34048C17.9468 1.31429 17.9202 1.31429 17.9202 1.2881C17.9202 1.2619 17.8936 1.2619 17.8936 1.23571C17.867 1.18333 17.8404 1.15714 17.7606 1.10476L17.734 1.07857C17.7074 1.07857 17.7074 1.05238 17.6808 1.05238C17.6541 1.05238 17.6541 1.05238 17.6275 1.02619C17.6009 1.02619 17.6009 1.02619 17.5743 1C17.5477 1 17.4945 1 17.4679 1H12.9718C12.6792 1 12.4398 1.23571 12.4398 1.52381C12.4398 1.8119 12.6792 2.04762 12.9718 2.04762H16.1909L12.9718 5.24286C11.6948 4.19524 10.0454 3.54048 8.26291 3.54048C4.2457 3.54048 1 6.76191 1 10.6905C1 14.4619 3.97966 17.5786 7.73083 17.8405ZM8.26291 4.5881C11.6948 4.5881 14.4617 7.3381 14.4617 10.6905C14.4617 14.069 11.6682 16.7929 8.26291 16.7929C4.85759 16.7929 2.06416 14.069 2.06416 10.6905C2.06416 7.3381 4.83099 4.5881 8.26291 4.5881Z" fill="black" stroke="black" stroke-width="0.5"/>
</svg>
