<svg width="14" height="24" viewBox="0 0 14 24" fill="none" xmlns="http://www.w3.org/2000/svg">
<path d="M11.375 17.5063H7.875V14.0063C7.875 14.0063 7.875 14.0063 7.875 13.9451C9.64166 13.7225 11.2571 12.835 12.3925 11.4633C13.5278 10.0916 14.0978 8.33876 13.9863 6.56163C13.8747 4.7845 13.0902 3.11665 11.7923 1.89762C10.4943 0.678586 8.78063 0 7 0C5.21937 0 3.50567 0.678586 2.20775 1.89762C0.909828 3.11665 0.125257 4.7845 0.0137492 6.56163C-0.097759 8.33876 0.472178 10.0916 1.60754 11.4633C2.7429 12.835 4.35834 13.7225 6.125 13.9451C6.125 13.9451 6.125 13.9888 6.125 14.0063V17.5063H2.62501C2.39294 17.5063 2.17038 17.5985 2.00629 17.7626C1.84219 17.9267 1.75001 18.1493 1.75001 18.3813C1.75001 18.6134 1.84219 18.8359 2.00629 19C2.17038 19.1641 2.39294 19.2563 2.62501 19.2563H6.125V22.7563C6.125 22.9884 6.21719 23.2109 6.38128 23.375C6.54538 23.5391 6.76794 23.6313 7 23.6313C7.23206 23.6313 7.45462 23.5391 7.61872 23.375C7.78281 23.2109 7.875 22.9884 7.875 22.7563V19.2563H11.375C11.6071 19.2563 11.8296 19.1641 11.9937 19C12.1578 18.8359 12.25 18.6134 12.25 18.3813C12.25 18.1493 12.1578 17.9267 11.9937 17.7626C11.8296 17.5985 11.6071 17.5063 11.375 17.5063ZM1.75001 7.00634C1.75001 5.96799 2.05791 4.95295 2.63479 4.0896C3.21167 3.22624 4.0316 2.55334 4.99091 2.15598C5.95022 1.75862 7.00582 1.65465 8.02422 1.85722C9.04262 2.05979 9.97808 2.55981 10.7123 3.29403C11.4465 4.02826 11.9465 4.96372 12.1491 5.98211C12.3517 7.00051 12.2477 8.05611 11.8504 9.01542C11.453 9.97473 10.7801 10.7947 9.91674 11.3715C9.05338 11.9484 8.03835 12.2563 7 12.2563C5.60762 12.2563 4.27226 11.7032 3.28769 10.7186C2.30313 9.73408 1.75001 8.39872 1.75001 7.00634Z" fill="black"/>
</svg>
