<svg width="10" height="16" viewBox="0 0 10 16" fill="none" xmlns="http://www.w3.org/2000/svg">
<path fill-rule="evenodd" clip-rule="evenodd" d="M5 0.975914C3.93913 0.975914 2.92172 1.37857 2.17157 2.09531C1.42143 2.81205 1 3.78415 1 4.79777C1 5.81138 1.42143 6.78349 2.17157 7.50022C2.92172 8.21696 3.93913 8.61962 5 8.61962C6.06087 8.61962 7.07828 8.21696 7.82843 7.50022C8.57857 6.78349 9 5.81138 9 4.79777C9 3.78415 8.57857 2.81205 7.82843 2.09531C7.07828 1.37857 6.06087 0.975914 5 0.975914ZM3.95006e-10 4.79777C1.21561e-05 3.87327 0.280771 2.96864 0.808227 2.19359C1.33568 1.41854 2.08717 0.80636 2.97156 0.431304C3.85594 0.0562485 4.83523 -0.0655725 5.79064 0.0806159C6.74605 0.226804 7.63655 0.634721 8.35413 1.25489C9.0717 1.87507 9.58553 2.68085 9.8333 3.57452C10.0811 4.46819 10.0521 5.41135 9.74997 6.28962C9.44783 7.16788 8.88547 7.94351 8.13109 8.52245C7.37672 9.10138 6.46274 9.45875 5.5 9.5512V11.486H7.5C7.63261 11.486 7.75979 11.5363 7.85355 11.6259C7.94732 11.7155 8 11.837 8 11.9637C8 12.0904 7.94732 12.212 7.85355 12.3015C7.75979 12.3911 7.63261 12.4415 7.5 12.4415H5.5V14.8301C5.5 14.9568 5.44732 15.0783 5.35355 15.1679C5.25979 15.2575 5.13261 15.3079 5 15.3079C4.86739 15.3079 4.74021 15.2575 4.64645 15.1679C4.55268 15.0783 4.5 14.9568 4.5 14.8301V12.4415H2.5C2.36739 12.4415 2.24021 12.3911 2.14645 12.3015C2.05268 12.212 2 12.0904 2 11.9637C2 11.837 2.05268 11.7155 2.14645 11.6259C2.24021 11.5363 2.36739 11.486 2.5 11.486H4.5V9.5512C3.26668 9.43276 2.12337 8.88085 1.29188 8.00252C0.460384 7.1242 -1.55717e-05 5.98209 3.95006e-10 4.79777Z" fill="white"/>
</svg>
