<svg width="27" height="20" viewBox="0 0 27 20" fill="none" xmlns="http://www.w3.org/2000/svg">
<g id="gift">
<path id="Shape" d="M25.4614 19.436H2.80203C1.9538 19.436 1.26367 18.723 1.26367 17.8466V4.51518C1.26367 3.63877 1.9538 2.92578 2.80203 2.92578H25.4614C26.3096 2.92578 26.9997 3.63877 26.9997 4.51518V17.8466C26.9998 18.723 26.3097 19.436 25.4614 19.436Z" fill="#FFEF31"/>
<path id="Path" d="M25.461 2.92578H14.127V19.436H25.461C26.3092 19.436 26.9993 18.723 26.9993 17.8466V4.51518C26.9994 3.63877 26.3093 2.92578 25.461 2.92578Z" fill="#EAD000"/>
<path id="Path_2" d="M23.0454 13.7147H17.4024C16.9655 13.7147 16.6113 13.3488 16.6113 12.8974C16.6113 12.446 16.9655 12.0801 17.4024 12.0801H23.0454C23.4822 12.0801 23.8364 12.446 23.8364 12.8974C23.8364 13.3488 23.4822 13.7147 23.0454 13.7147Z" fill="#152659"/>
<path id="Path_3" d="M21.1993 16.9843H17.4024C16.9655 16.9843 16.6113 16.6183 16.6113 16.1669C16.6113 15.7156 16.9655 15.3496 17.4024 15.3496H21.1993C21.6361 15.3496 21.9903 15.7156 21.9903 16.1669C21.9903 16.6183 21.6361 16.9843 21.1993 16.9843Z" fill="#152659"/>
<path id="Shape_2" fill-rule="evenodd" clip-rule="evenodd" d="M27 7.31245H11.2136C11.8352 7.05226 12.5168 6.68794 12.9752 6.21431C14.3489 4.79496 14.3489 2.48551 12.9752 1.06621C12.3097 0.378651 11.425 0 10.4839 0C9.54285 0 8.65812 0.378651 7.99267 1.06621C7.57705 1.49564 7.24817 2.11481 7.00273 2.70532C6.75729 2.11481 6.42842 1.49564 6.01279 1.06621C5.34735 0.378651 4.46256 0 3.52156 0C2.58046 0 1.69573 0.378651 1.03029 1.06621C-0.343428 2.48551 -0.343428 4.79495 1.03029 6.21436C1.48868 6.68799 2.17032 7.05231 2.79188 7.3125H1.26397V8.9472H4.90398L3.80593 10.0505C3.49272 10.3652 3.4857 10.8826 3.79026 11.2063C4.09482 11.53 4.59567 11.5371 4.90888 11.2224L6.32632 9.79823V18.6192C6.32632 19.0706 6.6805 19.4365 7.11738 19.4365C7.55426 19.4365 7.90845 19.0706 7.90845 18.6192V9.89287L9.30484 11.4062C9.46026 11.5747 9.66868 11.6595 9.87747 11.6595C10.0736 11.6595 10.27 11.5846 10.4233 11.4338C10.7395 11.1223 10.7514 10.6049 10.4499 10.2782L9.22178 8.94715H27V7.31245ZM8.07378 4.47373C8.34132 3.4917 8.75838 2.58673 9.11156 2.22181C9.4782 1.84299 9.9656 1.6344 10.4841 1.6344C11.0026 1.6344 11.49 1.84304 11.8566 2.22181C12.6135 3.0038 12.6135 4.27615 11.8566 5.05814C11.5035 5.42301 10.6276 5.85392 9.67712 6.1304C8.72526 6.40727 8.08333 6.42917 7.82154 6.39092C7.78457 6.1207 7.80577 5.45728 8.07378 4.47373ZM3.52121 1.6344C3.00269 1.6344 2.51529 1.84299 2.14866 2.2218C1.39182 3.00378 1.39182 4.27612 2.14861 5.05816C2.50174 5.42308 3.37766 5.85393 4.3281 6.13041C5.27996 6.40722 5.92199 6.42918 6.18367 6.39092C6.22064 6.12071 6.19949 5.4573 5.93148 4.4737C5.66389 3.49168 5.24684 2.58672 4.89371 2.2218C4.52708 1.84304 4.03967 1.6344 3.52121 1.6344Z" fill="#F90053"/>
<rect id="Rectangle" x="14.127" y="7.3125" width="12.8724" height="1.63477" fill="#A50043"/>
</g>
</svg>
