<svg width="23" height="15" viewBox="0 0 23 15" fill="none" xmlns="http://www.w3.org/2000/svg">
<path d="M5.19922 0.00780006C6.72039 0.00780006 8.24136 0.00585108 9.76214 0.00195312C13.4524 0.00195312 17.1425 0.00195312 20.8323 0.00195312C21.3962 0.00195312 21.8498 0.208935 22.1539 0.703585C22.1198 0.713843 22.0866 0.726947 22.0546 0.742759C20.6603 1.5738 19.268 2.40699 17.8776 3.24232C17.5046 3.46568 17.1304 3.68494 16.7621 3.91881C16.7276 3.94045 16.5648 3.95448 16.6949 4.06908C16.3611 4.0264 16.1112 4.16438 15.9163 4.42808L15.8655 4.47369H15.8696C15.7797 4.46667 15.7266 4.53859 15.66 4.57776C15.3045 4.78767 14.952 5.00283 14.5982 5.21625C14.297 4.91455 14.4558 4.00126 14.8183 3.69312C14.9198 3.59831 15.0492 3.53884 15.1872 3.52356C15.3553 3.5107 15.5018 3.55981 15.5707 3.74224C15.6332 3.90653 15.5707 4.02932 15.4464 4.12521C15.322 4.2211 15.1784 4.17549 15.1674 4.03458C15.1522 3.85333 15.0652 3.89776 14.9648 3.93928C14.9265 3.9528 14.8929 3.97729 14.8683 4.00971C14.8437 4.04214 14.8292 4.08107 14.8265 4.1217C14.8246 4.16957 14.8371 4.2169 14.8624 4.25756C14.8877 4.29821 14.9246 4.33033 14.9683 4.34973C15.1744 4.46667 15.3898 4.47836 15.5911 4.35792C15.6901 4.30157 15.7704 4.21748 15.8223 4.11598C15.8741 4.01449 15.8952 3.90002 15.883 3.78667C15.8806 3.67204 15.8408 3.56135 15.7698 3.47143C15.6988 3.38151 15.6004 3.31728 15.4896 3.28851C15.3127 3.22866 15.1231 3.2171 14.9403 3.25502C14.7574 3.29294 14.588 3.37897 14.4494 3.50427C14.0618 3.83637 13.924 4.27606 13.924 4.77247C13.8032 4.82275 13.7945 4.95781 13.7192 5.04376C13.5977 5.18233 13.4471 5.27296 13.2784 5.19812C13.1098 5.12328 13.1891 4.95489 13.2142 4.82626C13.2919 4.42691 13.3818 4.02932 13.4647 3.63114C13.4962 3.47912 13.5149 3.32301 13.739 3.37154C13.84 3.39317 13.8592 3.30489 13.8686 3.23355C13.882 3.13357 13.798 3.15754 13.7489 3.16047C13.6018 3.16924 13.5773 3.11661 13.6182 2.97804C13.6713 2.79737 13.6882 2.60618 13.7384 2.42492C13.7705 2.30798 13.7518 2.25595 13.6357 2.21209C13.3425 2.09023 13.0373 1.99969 12.7251 1.94197C12.083 1.84608 11.5909 2.05423 11.4409 2.76872C11.3318 3.29495 11.2208 3.82117 11.0948 4.34739C11.0306 4.61109 11.0265 4.90402 10.7988 5.10749C10.6821 5.21274 10.5431 5.27062 10.4007 5.1876C10.2676 5.11042 10.3137 4.97535 10.3424 4.85198C10.4591 4.34096 10.5612 3.82819 10.6809 3.31833C10.7095 3.19496 10.6838 3.15813 10.5642 3.16164C10.4182 3.16573 10.2723 3.16865 10.127 3.16164C9.99913 3.15462 9.94542 3.21075 9.92091 3.3312C9.85378 3.65921 9.76797 3.98313 9.70727 4.31173C9.6489 4.61051 9.54383 4.90168 9.57068 5.21449C9.59519 5.50684 9.78665 5.68751 10.0773 5.70797C10.368 5.72844 10.5963 5.61969 10.821 5.45539C10.8683 5.61501 10.7743 5.66178 10.6733 5.68926C10.505 5.73629 10.3436 5.8055 10.1935 5.89508C10.0844 5.95634 9.99902 6.05251 9.95097 6.16816C9.90292 6.28382 9.89501 6.41228 9.9285 6.53298C9.98161 6.73937 10.2303 6.91946 10.4754 6.92881C10.9944 6.94811 11.3265 6.70312 11.4497 6.17807C11.6324 5.39984 11.7999 4.61694 11.975 3.83929C12.0824 3.3616 12.0853 3.36628 12.5902 3.37563C12.7391 3.37563 12.7765 3.41422 12.7403 3.56917C12.627 4.05037 12.5225 4.53333 12.4332 5.01921C12.3702 5.36184 12.6083 5.72961 12.9924 5.71031C13.4425 5.68809 13.739 5.46942 13.9456 5.09054L14.175 5.4741C13.2475 6.03131 12.3171 6.58501 11.393 7.1469C10.9161 7.43925 10.4223 7.70061 9.96644 8.02394L8.17326 8.02745C8.20613 7.73132 8.13492 7.43296 7.97188 7.18374C7.87731 7.03114 7.79676 6.87093 7.70687 6.71599C7.81567 6.71419 7.92426 6.7056 8.032 6.69026C8.58886 6.58034 8.82877 6.16754 8.95602 5.67172C9.0932 5.13731 9.20294 4.59589 9.3261 4.05739C9.43234 3.58963 9.43292 3.60132 8.95894 3.58963C8.78674 3.58612 8.72954 3.65629 8.70094 3.80421C8.66241 4.00418 8.61046 4.20064 8.56843 4.39943C8.55602 4.47148 8.522 4.53804 8.47091 4.59026C8.41982 4.64248 8.35408 4.67789 8.28241 4.69178C7.91467 4.78767 7.60472 4.58653 7.51774 4.21058C7.47052 3.99708 7.47172 3.7757 7.52125 3.56274C7.6269 3.06692 7.81836 2.6167 8.24564 2.30857C8.50773 2.11913 8.75989 2.09574 8.9029 2.2501C9.08736 2.45123 9.0033 2.65295 8.87664 2.84766C8.84453 2.89677 8.81243 2.94471 8.88014 2.99792C9.0751 3.1517 9.43 3.02833 9.48195 2.78626C9.56017 2.42258 9.37572 2.08054 9.01498 1.98874C8.38515 1.82912 7.80026 1.93553 7.30994 2.38575C6.78459 2.86695 6.62582 3.48906 6.69937 4.17491C6.75774 4.70523 7.05602 5.02154 7.5551 5.11743C7.85513 5.1759 8.13882 5.08586 8.45052 4.96775C8.34779 5.36359 8.27249 5.73253 8.15516 6.08803C8.03784 6.44352 7.88607 6.51193 7.5265 6.43884L7.43427 6.34938L7.39049 6.31021C7.39049 6.23712 7.38407 6.16404 7.39049 6.09095C7.39424 6.03285 7.41172 5.97647 7.4415 5.92647C7.47128 5.87647 7.5125 5.83428 7.56176 5.80338C7.61103 5.77248 7.66692 5.75376 7.72483 5.74876C7.78274 5.74376 7.84101 5.75263 7.89482 5.77463C7.9532 5.79743 8.00223 5.89157 8.06352 5.83661C8.12481 5.78165 8.09504 5.69687 8.08628 5.62612C8.06527 5.44252 7.9316 5.37002 7.76991 5.34956C7.24982 5.28407 6.9638 5.55128 6.94862 6.10966C6.51725 6.05119 6.12791 6.19736 5.73624 6.39265C5.73624 5.84596 5.61191 5.38113 5.20155 5.03382L5.19922 0.00780006ZM10.4679 2.89209C10.7013 2.89209 10.884 2.72604 10.884 2.51263C10.8852 2.40655 10.8447 2.30427 10.7714 2.22774C10.698 2.15121 10.5976 2.10655 10.4918 2.10334C10.2618 2.10042 10.0575 2.28693 10.0569 2.50093C10.0606 2.60707 10.1057 2.70752 10.1825 2.78068C10.2594 2.85383 10.3618 2.89384 10.4679 2.89209Z" fill="#FD6F68"/>
<path d="M22.3685 10.0809C22.3685 11.0088 22.3848 11.9367 22.3685 12.864C22.3574 13.5838 21.6791 14.1994 20.9267 14.2006C18.9241 14.2029 16.9214 14.2029 14.9185 14.2006H5.37236C5.31399 14.2006 5.25562 14.1971 5.19724 14.1948C5.19724 13.979 5.19374 13.7627 5.19141 13.5469L5.20191 13.4557C5.44941 13.2645 5.52004 12.9926 5.54514 12.6997L5.72726 12.1413C5.87669 12.2162 6.01912 12.3009 6.17614 12.3641C6.70965 12.581 7.27761 12.4933 7.55371 11.977C7.67045 11.7589 7.78369 11.5391 7.90394 11.3233C7.98024 11.198 8.01192 11.0504 7.99383 10.9047C8.12459 10.6451 8.21039 10.3755 8.17303 10.0791L22.3685 10.0809Z" fill="#DE5757"/>
<path d="M9.96484 8.02153C10.4207 7.69645 10.9146 7.43275 11.3914 7.14449C12.3155 6.58143 13.2459 6.0289 14.1734 5.47169C14.6404 5.77865 15.1138 5.78567 15.5866 5.49741C15.6929 5.43251 15.7361 5.44479 15.8114 5.53659C15.9631 5.72077 16.1686 5.75409 16.3799 5.64008C16.4696 5.58338 16.5552 5.52047 16.6362 5.45181C16.7885 5.71316 16.9589 5.76169 17.2426 5.6354C17.287 5.61552 17.3173 5.54711 17.388 5.59798C17.6629 5.79385 17.852 5.72544 17.9215 5.40795C17.9799 5.13081 18.0429 4.85367 18.0995 4.57594C18.1073 4.52139 18.1314 4.47048 18.1686 4.42988C18.2057 4.38929 18.2543 4.36092 18.3079 4.34849C18.4124 4.32042 18.4165 4.41631 18.4509 4.47537C18.5005 4.56015 18.5753 4.56658 18.6587 4.53091C18.7784 4.48005 18.8117 4.38123 18.7942 4.26254C18.7755 4.13391 18.6938 4.07836 18.5665 4.07485C18.4393 4.07135 18.3394 4.1649 18.2256 4.20758C18.2116 4.1684 18.2052 4.10116 18.1818 4.09473C18.0483 4.05923 17.9082 4.05622 17.7732 4.08596C17.6641 4.10701 17.7149 4.23506 17.6798 4.30932C17.6673 4.35094 17.6585 4.3936 17.6536 4.43678C17.5777 4.70106 17.5561 4.97996 17.4452 5.2343C17.3985 5.34188 17.3179 5.42666 17.1918 5.38515C17.0658 5.34364 17.0985 5.23021 17.1212 5.12847C17.1866 4.83612 17.238 4.54378 17.315 4.25845C17.3535 4.1111 17.3261 4.07836 17.1743 4.06842C17.0132 4.0579 16.8539 4.15788 16.6951 4.06842C16.5649 3.95148 16.7278 3.93979 16.7622 3.91816C17.1306 3.6872 17.5047 3.4656 17.8777 3.24225C19.2681 2.40731 20.6605 1.57334 22.0548 0.740346C22.0867 0.724534 22.1199 0.71143 22.154 0.701172C22.2943 0.880151 22.3707 1.10101 22.3712 1.32855C22.3758 3.56052 22.3758 5.79229 22.3712 8.02387C21.4104 8.02387 20.4494 8.02387 19.4882 8.02387L9.96484 8.02153ZM18.7113 5.14718C18.7177 5.37229 18.7696 5.55237 18.9611 5.64885C19.1526 5.74532 19.3504 5.70323 19.5075 5.56348C19.6032 5.4787 19.6382 5.48923 19.7188 5.58395C19.86 5.75 20.1612 5.73363 20.278 5.56816C20.3276 5.49741 20.3877 5.41556 20.2301 5.38047C20.097 5.35065 20.1058 5.25126 20.1315 5.13783C20.2482 4.62739 20.3568 4.1152 20.4688 3.60359C20.4805 3.54921 20.5272 3.48665 20.4618 3.44397C20.3451 3.36737 20.0054 3.52349 19.9721 3.66264C19.9441 3.78309 19.9137 3.90295 19.8915 4.02457C19.8758 4.11286 19.8483 4.12631 19.7614 4.09298C19.5384 4.00703 19.33 4.06316 19.1502 4.20992C18.8444 4.45373 18.7504 4.80163 18.7113 5.14718Z" fill="#DE5858"/>
<path d="M8.17869 10.0811C8.21604 10.3775 8.13024 10.6471 7.99948 10.9073C7.88274 11.0137 7.82437 11.1593 7.76074 11.2937C7.43094 11.9837 6.82038 12.1427 6.11349 11.8755C5.99675 11.8305 5.85374 11.6826 5.7691 11.7486C5.68446 11.8147 5.73875 12.0071 5.73233 12.1433L5.54904 12.7023L5.19881 13.0999L4.81356 13.2425C4.36176 13.2191 3.90704 13.2899 3.45758 13.1981C3.30815 13.1396 3.19024 13.0385 3.06824 12.9397L2.89313 12.7058C2.84643 12.5888 2.80032 12.4748 2.75362 12.3596C2.73903 12.2877 2.72443 12.2158 2.71042 12.1439C2.71311 12.0125 2.69337 11.8816 2.65205 11.7568C2.52071 11.7703 2.41856 11.8439 2.30182 11.8884C1.64572 12.1462 1.00363 12.0053 0.690762 11.3493C0.601763 11.1829 0.50435 11.0211 0.398903 10.8646C0.28216 10.6167 0.210362 10.3606 0.255309 10.0823C0.395984 9.69169 0.395984 9.69169 0.0078125 9.69344V8.41589H0.39365L0.253557 8.02473C0.207181 7.80146 0.242832 7.56892 0.353957 7.36987C0.488212 7.11202 0.631222 6.85768 0.783573 6.60977C1.02757 6.2151 1.39356 6.08355 1.84419 6.12214C2.13138 6.14786 2.38704 6.26363 2.66139 6.38759C2.67598 5.92626 2.77522 5.51055 3.06591 5.15973C3.10597 5.11812 3.15224 5.08301 3.20308 5.05566C3.464 4.96386 3.46225 4.7598 3.46167 4.52943C3.45641 3.02092 3.46167 1.51241 3.46167 0.00390625H4.80422C4.80422 1.46915 4.81706 2.93439 4.80013 4.39905C4.79604 4.73291 4.84858 4.96327 5.20173 5.0311C5.61033 5.37841 5.73525 5.84324 5.73641 6.38993C6.12809 6.19464 6.51743 6.04788 6.94879 6.10694L7.393 6.30924L7.4362 6.34841L7.52842 6.43846L7.71054 6.71151C7.79868 6.86821 7.88099 7.02841 7.97555 7.17926C8.13881 7.42924 8.20964 7.72853 8.17577 8.02531C8.12732 8.14985 8.07945 8.27439 8.02458 8.4153H22.3724V9.69344H8.4326C8.02458 9.69227 8.02458 9.69227 8.17869 10.0811ZM5.12059 10.5635C5.45565 11.1248 5.91386 11.5241 6.56879 11.6557C6.72259 11.6879 6.88261 11.6711 7.02636 11.6075C7.17011 11.544 7.29037 11.4369 7.37024 11.3013C7.49807 11.0897 7.62065 10.8745 7.73915 10.6582C7.91426 10.3407 7.87807 10.015 7.64517 9.76478C7.39242 9.49231 7.13383 9.15903 6.6727 9.30053C6.56036 9.32892 6.44527 9.34499 6.32947 9.34847L5.94305 9.0801C6.01226 9.05915 6.08315 9.04429 6.15494 9.03566C6.60773 9.01993 7.04445 8.86362 7.40468 8.58837C7.8016 8.29603 7.94637 7.82827 7.74323 7.46401C7.62649 7.25469 7.50216 7.04888 7.3895 6.83722C7.24299 6.563 7.00833 6.45249 6.71064 6.44664C6.09131 6.43495 5.42646 6.9869 5.12117 7.54645L5.07506 7.60375C4.97466 7.44939 5.0628 7.27281 5.01669 7.11202C5.05113 7.05355 5.07506 6.98339 5.12234 6.94889C5.38793 6.76355 5.40895 6.49809 5.38151 6.21218C5.37684 6.1619 5.38151 6.11044 5.38151 6.05899C5.35991 5.65672 5.07681 5.27024 4.77153 5.21528C4.5282 5.16428 4.2782 5.15342 4.03137 5.18312C3.83525 5.21235 3.62277 5.1685 3.44124 5.29597C3.14354 5.50353 3.07408 5.82219 3.01746 6.14552C2.94858 6.54136 3.1056 6.83605 3.41439 7.06583C3.37644 7.24124 3.41439 7.4301 3.32157 7.59206C3.11727 7.0442 2.28197 6.4443 1.71402 6.44313C1.44434 6.44313 1.21727 6.5361 1.07193 6.78226C0.926583 7.02841 0.78474 7.27164 0.646983 7.51955C0.569799 7.6544 0.544472 7.81285 0.575769 7.96509C0.683173 8.48722 1.32526 8.91112 1.83777 8.79652C1.92232 8.77688 2.00848 8.76494 2.09519 8.76086L2.45826 9.02397C2.39215 9.05351 2.32103 9.07018 2.2487 9.07308C1.70935 9.13155 1.21494 9.29176 0.832021 9.70397C0.546583 10.0115 0.499886 10.3308 0.694264 10.6787C0.811007 10.8886 0.922497 11.1014 1.0515 11.3037C1.19101 11.5218 1.37838 11.6668 1.65915 11.6598C2.44483 11.6411 2.92698 11.1686 3.31982 10.5576L3.37236 10.5646C3.38753 10.7206 3.40291 10.8776 3.41847 11.0359C3.2883 11.2066 3.06065 11.3189 3.02913 11.5434C2.98185 11.8767 3.01396 12.2158 3.18849 12.5146C3.29881 12.704 3.44591 12.8654 3.68757 12.8981C4.02492 12.9417 4.36622 12.9452 4.7044 12.9087C4.96474 12.8859 5.13285 12.7192 5.24784 12.4912C5.37699 12.2298 5.43555 11.9392 5.4177 11.6481C5.40603 11.3598 5.16203 11.2265 5.0091 11.0301C5.06222 10.8546 4.97408 10.6664 5.06747 10.4974L5.12059 10.5635ZM1.09294 9.05145C0.812758 8.9082 0.65282 8.6562 0.403573 8.46676C0.412328 8.77314 0.557674 8.98363 0.713527 9.18944C0.723152 9.20502 0.736298 9.21812 0.751906 9.22768C0.767513 9.23724 0.785144 9.24299 0.803378 9.24447C0.821612 9.24594 0.839937 9.24311 0.856877 9.23619C0.873817 9.22928 0.888896 9.21847 0.9009 9.20464C0.954602 9.15786 1.01122 9.11518 1.09119 9.05145H1.09294ZM7.9808 8.49014C7.8448 8.68134 7.66793 8.81406 7.48581 8.94211C7.43503 8.97778 7.3142 9.02105 7.4111 9.09004C7.48406 9.14149 7.55294 9.32392 7.6907 9.19002C7.87574 9.00292 8.00065 8.78074 7.97614 8.49014H7.9808Z" fill="#71A489"/>
<path d="M3.06405 5.15984C2.77219 5.51066 2.67413 5.92696 2.65954 6.3877C2.38519 6.26375 2.12952 6.14798 1.84233 6.12225C1.3917 6.08191 1.02513 6.21522 0.781718 6.60988C0.629368 6.85721 0.486357 7.11155 0.352102 7.36999C0.240663 7.56848 0.204396 7.80056 0.249952 8.02367H0.00770903C0.00537416 6.27973 0.00284472 4.53559 0.000120706 2.79125C0.000120706 2.35332 0.000120706 1.91421 0.000120706 1.47803C-0.00237552 1.28391 0.033868 1.09124 0.106724 0.911333C0.17958 0.731429 0.28758 0.567916 0.424385 0.430393C0.56119 0.292869 0.724043 0.184105 0.903385 0.110485C1.08273 0.0368656 1.27494 -0.000126282 1.46875 0.00168094C1.99994 -0.00241191 2.53112 0.00168094 3.06172 0.00635849C3.0625 1.72497 3.06328 3.4428 3.06405 5.15984Z" fill="#FC6E68"/>
<path d="M22.3679 8.4144H8.01953C8.0744 8.27349 8.12227 8.14895 8.17071 8.02441L9.96389 8.02148L19.4861 8.02499C20.4469 8.02499 21.4079 8.02499 22.3691 8.02499C22.3685 8.15421 22.3685 8.28401 22.3679 8.4144Z" fill="#FAC55C"/>
<path d="M8.17506 10.0802C8.02096 9.69141 8.02096 9.69141 8.42898 9.69141H22.3687C22.3687 9.82121 22.3687 9.95101 22.3687 10.0808L8.17506 10.0802Z" fill="#F7C75D"/>
<path d="M2.70515 12.1427C2.71916 12.2146 2.73375 12.2865 2.74834 12.3584C2.70673 12.3701 2.66628 12.3855 2.62751 12.4046C2.09224 12.7256 1.55581 13.0478 1.02463 13.3735C0.823827 13.498 0.583335 13.5664 0.433904 13.7681C0.302019 13.6469 0.196131 13.5 0.122677 13.3365C0.0492238 13.1729 0.00973889 12.9961 0.00662286 12.8168C-0.00388405 11.9047 0.00662286 10.9932 0.00662286 10.0811H0.255286C0.21034 10.3594 0.281554 10.6155 0.398881 10.864C0.399899 10.9215 0.404775 10.979 0.413474 11.0359C0.492859 11.399 0.719925 11.6895 0.89504 12.0053C1.11218 12.3959 1.5132 12.5572 1.94573 12.4643C2.223 12.4046 2.45707 12.2602 2.70515 12.1427Z" fill="#FC6E68"/>
<path d="M0.433594 13.7681C0.583609 13.5658 0.823517 13.498 1.02432 13.3734C1.5555 13.0454 2.09194 12.7256 2.6272 12.4046C2.66597 12.3855 2.70642 12.37 2.74803 12.3584C2.79473 12.4753 2.84084 12.5888 2.88754 12.7045C2.89221 12.8975 2.9284 13.0805 3.05624 13.2343L3.06616 13.3296C3.06616 13.6184 3.0646 13.9071 3.06149 14.1955C2.49353 14.1955 1.92499 14.2107 1.35762 14.1955C1.18248 14.192 1.00996 14.1523 0.850931 14.0787C0.691899 14.0051 0.549802 13.8994 0.433594 13.7681Z" fill="#DE5858"/>
<path d="M3.06445 5.15954C3.06445 3.4425 3.06445 1.72525 3.06445 0.0078125H3.46313C3.46313 1.51632 3.45729 3.02483 3.46313 4.53334C3.46313 4.76137 3.46313 4.96543 3.20454 5.05956C3.15295 5.08541 3.10569 5.11914 3.06445 5.15954Z" fill="#FDC85C"/>
<path d="M5.19904 5.02993C4.84414 4.95977 4.79044 4.7294 4.79744 4.39904C4.81437 2.93731 4.80269 1.46915 4.80153 0.00390625H5.20021C5.19982 1.6812 5.19943 3.35654 5.19904 5.02993Z" fill="#FDC85C"/>
<path d="M4.79958 14.1948H3.45703L3.46228 13.6738C3.90416 13.765 4.3507 13.7007 4.79433 13.7188C4.79705 13.8779 4.7988 14.0365 4.79958 14.1948Z" fill="#71A489"/>
<path d="M3.46527 13.6741L3.46001 14.195H3.0625C3.0625 13.9062 3.06406 13.6176 3.06717 13.3291C3.21252 13.4075 3.27381 13.5916 3.44834 13.632L3.46527 13.6741Z" fill="#FAC55C"/>
<path d="M4.79883 14.1945C4.79883 14.0363 4.79883 13.8778 4.79883 13.7192C4.80643 13.7068 4.81232 13.6934 4.81634 13.6794C4.96752 13.7081 5.06384 13.5777 5.19459 13.5479C5.19459 13.7636 5.19867 13.9799 5.20043 14.1957L4.79883 14.1945Z" fill="#FAC55C"/>
<path d="M0.255309 10.0814H0.0078125V9.6926C0.395984 9.69084 0.395984 9.69084 0.255309 10.0814Z" fill="#F7C75D"/>
<path d="M0.0078125 8.02246H0.250055C0.293834 8.14408 0.337613 8.26628 0.390147 8.41362H0.00839622C0.00839622 8.28323 0.0078125 8.15285 0.0078125 8.02246Z" fill="#F7C75D"/>
<path d="M13.9437 5.08849C13.737 5.46737 13.4405 5.68605 12.9904 5.70827C12.604 5.72756 12.3682 5.35745 12.4312 5.01716C12.5205 4.53128 12.625 4.04832 12.7383 3.56712C12.7745 3.41218 12.7383 3.37651 12.5883 3.37359C12.0833 3.36423 12.0804 3.35955 11.973 3.83725C11.7979 4.61723 11.6315 5.40013 11.4477 6.17602C11.3245 6.70225 10.9924 6.94606 10.4735 6.92677C10.2283 6.91741 9.97963 6.73733 9.92651 6.53093C9.89302 6.41023 9.90093 6.28177 9.94898 6.16612C9.99703 6.05046 10.0824 5.9543 10.1915 5.89303C10.3417 5.80345 10.503 5.73424 10.6713 5.68722C10.7723 5.65681 10.8663 5.61004 10.819 5.45334C10.5943 5.61764 10.359 5.72581 10.0754 5.70593C9.79167 5.68605 9.5932 5.50655 9.56869 5.21245C9.54184 4.89964 9.64924 4.60846 9.70528 4.30968C9.76365 3.98108 9.85179 3.65716 9.91892 3.32915C9.94344 3.2087 9.99714 3.15374 10.125 3.15959C10.2703 3.16778 10.4168 3.16485 10.5622 3.15959C10.6818 3.15608 10.7075 3.19292 10.6789 3.31629C10.5593 3.82614 10.4542 4.33892 10.3404 4.84994C10.3129 4.97331 10.2668 5.10837 10.3987 5.18555C10.5412 5.26858 10.6783 5.21069 10.7968 5.10545C11.0245 4.90315 11.0303 4.61021 11.0928 4.34535C11.2189 3.82263 11.3298 3.29641 11.4389 2.7696C11.5866 2.0551 12.081 1.84695 12.7231 1.94284C13.0377 2.00009 13.3452 2.09064 13.6407 2.21297C13.7574 2.25682 13.7755 2.31062 13.7434 2.4258C13.6932 2.60705 13.6763 2.79825 13.6232 2.97892C13.5823 3.11749 13.6068 3.17011 13.7539 3.16134C13.803 3.15842 13.887 3.13445 13.8736 3.23443C13.8643 3.30576 13.845 3.39405 13.744 3.37242C13.5199 3.32389 13.5012 3.48 13.4697 3.63202C13.3868 4.0302 13.2946 4.42779 13.2193 4.82713C13.1942 4.95577 13.1212 5.12708 13.2835 5.199C13.4457 5.27092 13.6028 5.18321 13.7242 5.04464C13.7995 4.95869 13.8082 4.82363 13.9291 4.77334C13.9337 4.87742 13.939 4.98208 13.9437 5.08849ZM12.4844 3.15901C12.8258 3.15901 12.8252 3.15901 12.9 2.80819C12.9227 2.70178 12.9583 2.59712 12.9753 2.49012C12.9864 2.42755 12.9969 2.35856 12.9367 2.30711C12.7482 2.14632 12.3793 2.23402 12.2847 2.46907C12.2473 2.57158 12.2174 2.67672 12.1954 2.78363C12.1067 3.15901 12.1079 3.15901 12.4849 3.15901H12.4844ZM10.7495 5.97372C10.739 5.91525 10.7793 5.81644 10.6585 5.85678C10.4834 5.91525 10.3199 5.98717 10.2312 6.16784C10.1758 6.28127 10.1728 6.37891 10.2896 6.45141C10.4063 6.52391 10.4968 6.48883 10.5785 6.39294C10.6818 6.27074 10.7005 6.11463 10.7501 5.97313L10.7495 5.97372Z" fill="#FDC85C"/>
<path d="M7.7059 6.71196L7.52378 6.4389C7.88335 6.51082 8.03511 6.443 8.15244 6.08809C8.26977 5.73318 8.34507 5.36365 8.4478 4.96781C8.1361 5.08475 7.85241 5.17538 7.55238 5.1175C7.0533 5.02161 6.75269 4.70821 6.69665 4.17497C6.6231 3.48913 6.78187 2.86701 7.30722 2.38581C7.79754 1.9356 8.38242 1.82918 9.01225 1.9888C9.37474 2.0806 9.5592 2.42264 9.47923 2.78632C9.42728 3.02839 9.07063 3.15176 8.87742 2.99798C8.8097 2.94478 8.84181 2.89683 8.87391 2.84772C9.00058 2.65301 9.08463 2.45129 8.90018 2.25016C8.75717 2.09522 8.505 2.1186 8.24292 2.30863C7.81564 2.61676 7.62418 3.06873 7.51852 3.5628C7.46939 3.77627 7.4688 3.99807 7.51677 4.21181C7.60375 4.58776 7.9137 4.7889 8.28144 4.69301C8.35311 4.67912 8.41885 4.64371 8.46994 4.59149C8.52103 4.53927 8.55505 4.47271 8.56746 4.40066C8.60949 4.20187 8.66144 4.00541 8.69997 3.80544C8.72857 3.65752 8.78577 3.58735 8.95797 3.59086C9.43195 3.60197 9.43136 3.59086 9.32513 4.05862C9.20196 4.59712 9.09164 5.13855 8.95505 5.67295C8.8278 6.16877 8.58789 6.58157 8.03103 6.69149C7.92318 6.70507 7.81459 6.71191 7.7059 6.71196Z" fill="#FDC85C"/>
<path d="M13.9443 5.08903C13.9396 4.98496 13.9344 4.8803 13.9297 4.77564C13.9297 4.27923 14.0657 3.84013 14.455 3.50744C14.5936 3.38215 14.7631 3.29611 14.9459 3.25819C15.1287 3.22027 15.3183 3.23183 15.4952 3.29168C15.606 3.32045 15.7044 3.38468 15.7754 3.4746C15.8464 3.56452 15.8862 3.67521 15.8886 3.78984C15.9009 3.90319 15.8798 4.01766 15.8279 4.11916C15.7761 4.22065 15.6957 4.30474 15.5968 4.36109C15.3954 4.48153 15.18 4.46809 14.974 4.3529C14.9302 4.3335 14.8933 4.30138 14.868 4.26073C14.8428 4.22007 14.8302 4.17274 14.8321 4.12487C14.8346 4.08428 14.849 4.04531 14.8733 4.01279C14.8977 3.98027 14.9311 3.95561 14.9693 3.94186C15.0697 3.90035 15.1567 3.85591 15.1718 4.03717C15.1829 4.17808 15.3312 4.22135 15.4509 4.1278C15.5705 4.03424 15.6376 3.90912 15.5752 3.74482C15.5063 3.5624 15.3598 3.51094 15.1917 3.52615C15.0537 3.54143 14.9243 3.60089 14.8228 3.69571C14.4603 4.00384 14.3015 4.91713 14.6027 5.21883C14.8164 5.54451 15.4917 5.4071 15.6849 5.09371C15.7941 4.9183 15.8139 4.68442 15.8741 4.47627H15.87L15.9207 4.43067C16.1145 4.16697 16.3655 4.02898 16.6994 4.07166C16.8582 4.16054 17.0176 4.06056 17.1787 4.07166C17.3304 4.0816 17.3579 4.11435 17.3193 4.26169C17.2429 4.54877 17.1909 4.84171 17.1255 5.13171C17.1028 5.23345 17.0637 5.34513 17.1962 5.38839C17.3287 5.43166 17.4028 5.34513 17.4495 5.23754C17.5604 4.9832 17.582 4.7043 17.6579 4.44002C17.6629 4.39684 17.6717 4.35418 17.6842 4.31256C17.7198 4.2383 17.6684 4.11025 17.7776 4.08921C17.9125 4.05947 18.0526 4.06247 18.1862 4.09798C18.2095 4.10441 18.2159 4.17165 18.2299 4.21082L18.2054 4.22836C18.2107 4.22836 18.2177 4.22836 18.22 4.22836C18.2244 4.22296 18.2277 4.21682 18.2299 4.21024C18.3467 4.16755 18.4377 4.07459 18.5708 4.07751C18.7039 4.08044 18.7798 4.13598 18.7985 4.2652C18.816 4.38214 18.7827 4.4827 18.6631 4.53357C18.5796 4.56924 18.5049 4.56281 18.4553 4.47803C18.4208 4.41956 18.4167 4.32308 18.3122 4.35115C18.2587 4.36357 18.2101 4.39195 18.1729 4.43254C18.1357 4.47313 18.1116 4.52405 18.1039 4.57859C18.0455 4.85632 17.9871 5.13347 17.9258 5.41061C17.8564 5.7281 17.6672 5.79651 17.3923 5.60064C17.3217 5.54977 17.2913 5.61818 17.247 5.63806C16.9633 5.76435 16.7928 5.71582 16.6405 5.45446C16.5599 5.52248 16.4746 5.5848 16.3854 5.64098C16.1741 5.755 15.9686 5.72167 15.8168 5.53749C15.7415 5.44569 15.7001 5.43341 15.5921 5.49832C15.1193 5.78657 14.6447 5.77955 14.1789 5.47259L13.9443 5.08903ZM16.2068 5.0674C16.2097 5.21299 16.1916 5.34337 16.3276 5.37728C16.4636 5.4112 16.5436 5.31881 16.6019 5.20948C16.6216 5.1706 16.6361 5.12932 16.6451 5.08669C16.6901 4.8955 16.7356 4.70489 16.7741 4.51252C16.7905 4.43008 16.8243 4.33127 16.7228 4.27865C16.6212 4.22602 16.5389 4.28917 16.4753 4.36109C16.3099 4.55918 16.2154 4.80697 16.2068 5.06506V5.0674Z" fill="#FCE8A9"/>
<path d="M7.38835 6.31051L6.94531 6.10821C6.96049 5.55158 7.24651 5.28438 7.7666 5.34811C7.92829 5.36857 8.06196 5.44108 8.08298 5.62467C8.09173 5.69542 8.11567 5.7878 8.06021 5.83516C8.00476 5.88252 7.94814 5.79598 7.89152 5.77318C7.8377 5.75118 7.77944 5.74231 7.72153 5.74731C7.66361 5.75231 7.60772 5.77103 7.55846 5.80193C7.50919 5.83283 7.46797 5.87502 7.43819 5.92502C7.40841 5.97502 7.39093 6.0314 7.38719 6.0895C7.38193 6.16434 7.38719 6.23743 7.38835 6.31051Z" fill="#FDC85C"/>
<path d="M15.8709 4.47313C15.8108 4.67895 15.791 4.91282 15.6818 5.08823C15.4886 5.40163 14.8132 5.53903 14.5996 5.21336C14.9533 4.99994 15.3059 4.78478 15.6614 4.57487C15.7279 4.53804 15.7811 4.46612 15.8709 4.47313Z" fill="#DE5858"/>
<path d="M10.4672 2.89132C10.3616 2.89246 10.2597 2.85217 10.1834 2.77908C10.107 2.70599 10.0622 2.60589 10.0586 2.50016C10.0586 2.28617 10.2635 2.09965 10.4935 2.10257C10.5993 2.10578 10.6997 2.15045 10.773 2.22697C10.8464 2.3035 10.8868 2.40578 10.8857 2.51186C10.8834 2.72527 10.7007 2.89191 10.4672 2.89132Z" fill="#FDC85C"/>
<path d="M7.42991 6.34874L7.38672 6.30957L7.42991 6.34874Z" fill="#FDC85C"/>
<path d="M15.9141 4.42773L15.8633 4.47334L15.9141 4.42773Z" fill="#DE5858"/>
<path d="M5.72829 12.1433C5.73471 12.007 5.67517 11.8193 5.76506 11.7486C5.85495 11.6779 5.98979 11.8305 6.10945 11.8755C6.81634 12.1427 7.4269 11.9836 7.75671 11.2937C7.82091 11.1592 7.88045 11.0136 7.99545 10.9072C8.01345 11.0527 7.98176 11.2001 7.90555 11.3253C7.78472 11.541 7.67207 11.7609 7.55532 11.979C7.27922 12.4953 6.71127 12.583 6.17775 12.366C6.02306 12.3029 5.87772 12.2181 5.72829 12.1433Z" fill="#BC4544"/>
<path d="M5.196 13.5477C5.06525 13.5775 4.96894 13.7079 4.81775 13.6792L4.8125 13.2384L5.196 13.0986L5.20476 13.4594L5.196 13.5477Z" fill="#D59F43"/>
<path d="M5.20348 13.4566L5.19531 13.0988L5.54554 12.7041C5.52161 12.9935 5.45098 13.2654 5.20348 13.4566Z" fill="#BC4544"/>
<path d="M18.7109 5.14656C18.75 4.80042 18.844 4.45253 19.1499 4.20696C19.3297 4.06254 19.5381 4.00641 19.761 4.09002C19.848 4.12335 19.8778 4.1099 19.8912 4.02161C19.9128 3.9 19.9438 3.78013 19.9718 3.65969C20.005 3.52053 20.3465 3.36734 20.4615 3.44101C20.5246 3.48369 20.4802 3.54626 20.4685 3.60063C20.3564 4.11224 20.2473 4.62443 20.1311 5.13487C20.1054 5.2483 20.0967 5.3477 20.2298 5.37752C20.3874 5.4126 20.3273 5.49445 20.2776 5.5652C20.1609 5.73067 19.8597 5.74704 19.7184 5.58099C19.6379 5.48627 19.6017 5.47574 19.5071 5.56052C19.3501 5.70027 19.1569 5.7447 18.9608 5.64589C18.7646 5.54708 18.7174 5.37225 18.7109 5.14656ZM19.2223 5.08108C19.2275 5.19801 19.2001 5.32197 19.3308 5.37342C19.4418 5.41494 19.5293 5.34594 19.5894 5.25941C19.6235 5.20371 19.6472 5.1423 19.6595 5.07815C19.7019 4.90158 19.7408 4.72422 19.7762 4.54608C19.7955 4.45019 19.8527 4.33091 19.7284 4.2742C19.604 4.21748 19.5182 4.31045 19.4528 4.39815C19.3085 4.59728 19.2281 4.83567 19.2223 5.08166V5.08108Z" fill="#FCE8A9"/>
<path d="M2.4598 9.0255L2.09673 8.76239C1.92687 8.53787 1.84106 8.30399 1.98524 8.03386C2.03018 7.95084 2.08097 7.87015 2.1265 7.78712C2.35707 7.37082 2.60631 7.27902 3.0476 7.45502C3.14158 7.49302 3.22856 7.5474 3.31903 7.59359C3.41301 7.4287 3.3739 7.24277 3.41184 7.06736C3.49998 6.90073 3.57879 6.73116 3.77492 6.65399C4.27283 6.4587 4.77949 6.64405 5.0124 7.11472C5.05793 7.27551 4.96978 7.45209 5.07077 7.60645L5.1163 7.54272C5.25114 7.49477 5.38364 7.4404 5.52023 7.40064C5.83135 7.31001 6.05608 7.40064 6.22419 7.67194C6.26564 7.74035 6.30008 7.81285 6.34386 7.8795C6.60478 8.27593 6.5966 8.56535 6.07535 8.9378C6.02281 8.97522 5.95393 8.99159 5.90548 9.03252C5.85704 9.07345 5.91774 9.06818 5.93817 9.07637L6.32459 9.34474C6.57909 9.64937 6.54874 9.95516 6.32985 10.2633C6.2919 10.3165 6.26213 10.3756 6.22886 10.4317C6.07184 10.6954 5.84011 10.7936 5.54299 10.71C5.39823 10.6697 5.25814 10.6106 5.11571 10.5603L5.07018 10.4978C4.97445 10.6667 5.0626 10.8568 5.01181 11.031C4.89157 11.2953 4.73863 11.4952 4.40066 11.4923C3.99614 11.4882 3.58346 11.5391 3.41826 11.0363C3.4027 10.8803 3.38733 10.7233 3.37215 10.565H3.36865L3.39433 10.5153L3.38266 10.4884L3.36048 10.5106C3.33479 10.5165 3.3167 10.5282 3.31962 10.558C3.21571 10.544 3.1445 10.6165 3.05869 10.655C2.64309 10.8305 2.36816 10.7433 2.14401 10.3522C2.08972 10.2569 2.03252 10.1639 1.9829 10.0663C1.93115 9.97324 1.90721 9.86728 1.91394 9.76101C1.92067 9.65475 1.95778 9.55266 2.02085 9.46694C2.12902 9.31991 2.27152 9.20167 2.43587 9.12256C2.46856 9.1021 2.5818 9.08923 2.4598 9.0255ZM2.883 9.06409C2.883 9.85635 3.4206 10.3896 4.21737 10.3896C4.39235 10.3905 4.56577 10.3568 4.72767 10.2903C4.88957 10.2238 5.03674 10.1259 5.16071 10.0022C5.28468 9.87852 5.383 9.73149 5.45001 9.56958C5.51702 9.40768 5.5514 9.2341 5.55117 9.05883C5.55117 8.2882 4.97737 7.71403 4.21387 7.71403C3.3669 7.71345 2.82754 8.45192 2.883 9.06409Z" fill="#FC6F69"/>
<path d="M2.45923 9.02539C2.58123 9.08912 2.46799 9.10199 2.4353 9.12011C2.2712 9.20045 2.12929 9.31991 2.02203 9.468C1.95905 9.55378 1.92205 9.65589 1.91542 9.76216C1.9088 9.86843 1.93284 9.97436 1.98467 10.0673C2.03429 10.165 2.09149 10.2579 2.14578 10.3532C2.36992 10.7444 2.64485 10.8338 3.06046 10.6561C3.14568 10.6199 3.21748 10.545 3.32138 10.559C2.92854 11.17 2.44581 11.6425 1.66071 11.6612C1.37994 11.6682 1.19373 11.5232 1.05306 11.3051C0.924056 11.1028 0.81315 10.89 0.695823 10.6801C0.501445 10.3322 0.548142 10.0129 0.83358 9.70539C1.2165 9.29318 1.70916 9.13122 2.25026 9.0745C2.32239 9.07153 2.39331 9.05486 2.45923 9.02539Z" fill="#95CBB2"/>
<path d="M5.93711 9.07601C5.91668 9.06782 5.86298 9.06782 5.90442 9.03215C5.94586 8.99649 6.02116 8.97368 6.07428 8.93743C6.59554 8.56498 6.60371 8.27556 6.34279 7.87914C6.29901 7.81248 6.26457 7.73998 6.22313 7.67157C6.05502 7.39911 5.83029 7.30965 5.51917 7.40028C5.38258 7.44003 5.25007 7.49441 5.11523 7.54236C5.42169 6.9828 6.08537 6.43144 6.70469 6.44255C7.00239 6.44839 7.23704 6.55949 7.38356 6.83312C7.49621 7.04478 7.62055 7.25059 7.73729 7.45991C7.94042 7.82359 7.79566 8.29252 7.39873 8.58428C7.03851 8.85953 6.60179 9.01584 6.149 9.03157C6.07721 9.04019 6.00631 9.05506 5.93711 9.07601Z" fill="#95CBB2"/>
<path d="M3.321 7.59326C3.23052 7.54707 3.14588 7.49269 3.04957 7.45469C2.60828 7.27928 2.35903 7.37049 2.12847 7.78679C2.08294 7.86982 2.03215 7.95051 1.98721 8.03353C1.84128 8.30366 1.92883 8.53929 2.09695 8.76206C2.01024 8.76614 1.92408 8.77808 1.83953 8.79773C1.32702 8.91466 0.684933 8.48842 0.577529 7.96629C0.546232 7.81405 0.571559 7.6556 0.648743 7.52076C0.7865 7.27285 0.931262 7.02845 1.07369 6.78346C1.21612 6.53847 1.44377 6.44375 1.71578 6.44434C2.2814 6.44551 3.1167 7.0454 3.321 7.59326Z" fill="#95CBB2"/>
<path d="M5.11523 10.5609C5.25766 10.6111 5.39775 10.6702 5.54252 10.7105C5.83963 10.7942 6.07136 10.6959 6.22838 10.4322C6.26166 10.3738 6.29143 10.3153 6.32937 10.2638C6.54826 9.95571 6.57861 9.64991 6.32411 9.34529C6.43992 9.3418 6.555 9.32573 6.66734 9.29734C7.12848 9.15585 7.38706 9.48912 7.63981 9.76159C7.8733 10.0136 7.90657 10.3375 7.73379 10.655C7.61705 10.8719 7.49272 11.0871 7.36488 11.2982C7.28501 11.4337 7.16475 11.5408 7.021 11.6043C6.87725 11.6679 6.71724 11.6847 6.56344 11.6525C5.90851 11.5209 5.45029 11.1222 5.11523 10.5609Z" fill="#95CBB2"/>
<path d="M3.41793 11.0375C3.58487 11.5403 3.99581 11.4895 4.40032 11.4935C4.7383 11.4965 4.89123 11.2965 5.01148 11.0322C5.16149 11.2281 5.40549 11.3614 5.42008 11.6497C5.43793 11.9407 5.37937 12.2314 5.25022 12.4928C5.13347 12.7208 4.96711 12.8875 4.70678 12.9103C4.3686 12.9468 4.02729 12.9433 3.68994 12.8997C3.44828 12.8647 3.30118 12.7056 3.19086 12.5162C3.01575 12.2174 2.98423 11.8783 3.03151 11.545C3.06011 11.3205 3.28776 11.2082 3.41793 11.0375Z" fill="#95CBB2"/>
<path d="M5.0139 7.11169C4.78041 6.64393 4.27433 6.45566 3.77642 6.65095C3.58029 6.72813 3.50148 6.89769 3.41334 7.06433C3.10456 6.83454 2.94637 6.5381 3.01642 6.14402C3.07479 5.81776 3.1425 5.50086 3.44019 5.29446C3.62231 5.16699 3.8342 5.21085 4.028 5.18161C4.27354 5.15275 4.52213 5.164 4.76406 5.21494C5.06935 5.2699 5.35245 5.65638 5.37405 6.05865C5.37697 6.11011 5.37405 6.16156 5.37405 6.21184C5.40148 6.49776 5.38047 6.76321 5.11488 6.94856C5.07052 6.98306 5.04834 7.05614 5.0139 7.11169Z" fill="#95CBB2"/>
<path d="M2.70607 12.143C2.45858 12.2599 2.22451 12.4049 1.94724 12.4646C1.51354 12.5575 1.11253 12.3962 0.89655 12.0056C0.721435 11.6898 0.494369 11.3993 0.414984 11.0362C0.406284 10.9792 0.401409 10.9218 0.400391 10.8643C0.505965 11.0205 0.603381 11.1821 0.692249 11.3484C1.00512 12.0038 1.64721 12.1453 2.30331 11.8875C2.41655 11.843 2.51987 11.7705 2.65354 11.7559C2.69317 11.8809 2.71095 12.0119 2.70607 12.143Z" fill="#DE5858"/>
<path d="M4.80849 13.2378L4.81375 13.6787C4.80973 13.6926 4.80384 13.706 4.79624 13.7184C4.35261 13.7003 3.90607 13.7646 3.46419 13.6734L3.44727 13.6319L3.45252 13.1934C3.90198 13.2852 4.3567 13.215 4.80849 13.2378Z" fill="#639376"/>
<path d="M1.08781 9.04993C1.00784 9.11366 0.951218 9.15634 0.897516 9.20312C0.885512 9.21695 0.870433 9.22775 0.853493 9.23467C0.836553 9.24159 0.818228 9.24442 0.799994 9.24294C0.78176 9.24146 0.764129 9.23571 0.748522 9.22615C0.732914 9.2166 0.719768 9.2035 0.710142 9.18791C0.55429 8.9821 0.408944 8.77161 0.398438 8.46582C0.647685 8.65468 0.807623 8.90668 1.08781 9.04993Z" fill="#639376"/>
<path d="M7.97127 8.48926C7.9952 8.7816 7.87087 9.00203 7.67941 9.19089C7.54166 9.32712 7.47278 9.14236 7.39982 9.09091C7.30292 9.02191 7.42375 8.97865 7.47453 8.94298C7.6584 8.81318 7.83527 8.68045 7.97127 8.48926Z" fill="#639376"/>
<path d="M3.45299 13.195L3.44773 13.6335C3.27262 13.5931 3.21424 13.409 3.06656 13.3306C3.06306 13.299 3.05956 13.2669 3.05664 13.2353L3.06365 12.9365C3.18564 13.0353 3.30355 13.1388 3.45299 13.195Z" fill="#D59F43"/>
<path d="M3.06242 12.9351L3.05541 13.2338C2.92758 13.0801 2.89139 12.8971 2.88672 12.7041L3.06242 12.9351Z" fill="#BC4544"/>
<path d="M3.32031 10.5601C3.32031 10.5302 3.33549 10.5185 3.36117 10.5127L3.36935 10.5215V10.5671H3.37285L3.32031 10.5601Z" fill="#95CBB2"/>
<path d="M5.07227 10.5L5.1178 10.5626L5.07227 10.5Z" fill="#95CBB2"/>
<path d="M5.1178 7.53906L5.07227 7.60162L5.1178 7.53906Z" fill="#95CBB2"/>
<path d="M12.486 3.15789C12.1089 3.15789 12.1077 3.15789 12.197 2.78368C12.2191 2.67677 12.2489 2.57163 12.2864 2.46912C12.3809 2.23524 12.7498 2.14637 12.9384 2.30716C12.9967 2.35861 12.988 2.4276 12.9769 2.49017C12.9594 2.59658 12.9244 2.70124 12.901 2.80707C12.8269 3.15789 12.8275 3.15789 12.486 3.15789Z" fill="#FD6F68"/>
<path d="M10.7502 5.97338C10.7006 6.11487 10.6825 6.27099 10.5786 6.39202C10.4969 6.48674 10.4035 6.5189 10.2897 6.45049C10.1758 6.38208 10.1764 6.28034 10.2313 6.16691C10.32 5.98624 10.4829 5.9114 10.6586 5.85585C10.78 5.8161 10.7403 5.91491 10.7502 5.97338Z" fill="#FC6F69"/>
<path d="M16.207 5.06442C16.215 4.80532 16.3096 4.5564 16.4755 4.35752C16.5392 4.2856 16.6191 4.2207 16.723 4.27508C16.8269 4.32946 16.7907 4.4271 16.7744 4.50896C16.7359 4.70132 16.6903 4.89193 16.6454 5.08313C16.6364 5.12576 16.6219 5.16703 16.6022 5.20591C16.5438 5.31525 16.458 5.40646 16.3279 5.37372C16.1977 5.34098 16.2099 5.21001 16.207 5.06442Z" fill="#DE5858"/>
<path d="M18.2237 4.20605C18.2215 4.21264 18.2182 4.21878 18.2138 4.22418C18.2138 4.22418 18.2045 4.22418 18.1992 4.22418L18.2237 4.20664V4.20605Z" fill="#DE5858"/>
<path d="M19.2227 5.08135C19.229 4.83444 19.3105 4.59536 19.4561 4.39609C19.5215 4.30839 19.6132 4.22068 19.7317 4.27213C19.8501 4.32359 19.7988 4.44754 19.7795 4.54402C19.7433 4.72254 19.7044 4.8999 19.6628 5.07609C19.6505 5.14024 19.6268 5.20164 19.5927 5.25734C19.5344 5.34388 19.445 5.41287 19.3341 5.37136C19.2005 5.32166 19.2279 5.19536 19.2227 5.08135Z" fill="#DE5858"/>
<path d="M2.88124 9.06451C2.82287 8.45233 3.36514 7.71387 4.21212 7.71387C4.97562 7.71387 5.54649 8.28862 5.54941 9.05866C5.54965 9.23393 5.51527 9.40751 5.44826 9.56942C5.38124 9.73132 5.28292 9.87835 5.15895 10.002C5.03498 10.1257 4.88781 10.2236 4.72592 10.2901C4.56402 10.3566 4.39059 10.3903 4.21562 10.3894C3.41885 10.39 2.88241 9.85677 2.88124 9.06451Z" fill="#FDC95B"/>
<path d="M3.35938 10.5125L3.38156 10.4902C3.38564 10.499 3.38914 10.5084 3.39323 10.5171L3.36755 10.5212L3.35938 10.5125Z" fill="#95CBB2"/>
<path d="M3.36914 10.5217L3.39482 10.5176L3.36914 10.5673V10.5217Z" fill="#71A489"/>
</svg>
