<svg width="57" height="57" viewBox="0 0 57 57" fill="none" xmlns="http://www.w3.org/2000/svg">
<g clip-path="url(#clip0)">
<path d="M52.9831 50.15V30.6315C52.9831 28.2635 51.8427 26.0404 49.9195 24.659L42.793 19.54H34.8008V37.5915C34.8008 39.8575 36.0345 41.9436 38.02 43.0354C38.4375 43.265 38.6969 43.7036 38.6969 44.1801V50.15H52.9831Z" fill="#CCC8C4"/>
<path d="M52.9825 30.6306V50.1497H50.6013V31.8218C50.6013 29.4539 49.4604 27.2311 47.5378 25.849L39.4395 19.5391H42.792L49.9191 24.6578C51.8427 26.0399 52.9825 28.2626 52.9825 30.6306Z" fill="#CCC8C3"/>
<path d="M44.2617 33.5848H3.58757C2.48755 33.5848 1.5957 32.693 1.5957 31.5929V2.8278C1.5957 1.72778 2.48744 0.835938 3.58757 0.835938H44.2617C45.3618 0.835938 46.2536 1.72767 46.2536 2.8278V31.5929C46.2536 32.6929 45.3618 33.5848 44.2617 33.5848Z" fill="#F3EAE6"/>
<path d="M46.2529 2.82758V31.5928C46.2529 32.6925 45.3609 33.5844 44.2613 33.5844H3.58734C2.48655 33.5844 1.5957 32.6925 1.5957 31.5928V30.7801H41.582C42.6816 30.7801 43.5736 29.8892 43.5736 28.7884V0.835938H44.2613C45.361 0.835938 46.2529 1.72678 46.2529 2.82758Z" fill="#E8DCD9"/>
<path d="M1.5957 13.249H46.2536V21.1712H1.5957V13.249Z" fill="#A6AEC1"/>
<path d="M43.5742 13.249H46.2537V21.1712H43.5742V13.249Z" fill="#A6AEC1"/>
<path d="M33.8471 17.2098C33.8471 18.434 31.8854 19.2594 31.4439 20.3239C30.9862 21.4275 31.7725 23.3944 30.9408 24.2261C30.1091 25.0578 28.1424 24.2714 27.0387 24.729C25.9741 25.1704 25.1488 27.1323 23.9245 27.1323C22.7002 27.1323 21.8749 25.1705 20.8103 24.729C19.7067 24.2713 17.7398 25.0576 16.9082 24.226C16.0765 23.3943 16.8628 21.4275 16.4052 20.3238C15.9638 19.2592 14.002 18.4339 14.002 17.2097C14.002 15.9854 15.9637 15.1601 16.4052 14.0955C16.8629 12.9919 16.0766 11.025 16.9083 10.1933C17.74 9.36166 19.7067 10.148 20.8104 9.69041C21.875 9.249 22.7003 7.28711 23.9246 7.28711C25.1489 7.28711 25.9742 9.24888 27.0388 9.69041C28.1424 10.1481 30.1093 9.36177 30.9409 10.1934C31.7726 11.0251 30.9863 12.9919 31.4439 14.0956C31.8853 15.1602 33.8471 15.9855 33.8471 17.2098Z" fill="#A6AEC1"/>
<path d="M33.8462 17.2106C33.8462 18.4342 31.8846 19.2603 31.4437 20.3242C30.986 21.4284 31.7719 23.3944 30.9402 24.226C30.1085 25.0578 28.1414 24.2718 27.0384 24.7295C25.9734 25.1705 25.1484 27.1332 23.9235 27.1332C23.2425 27.1332 22.6855 26.5258 22.1406 25.9107C23.1856 25.6014 24.0898 23.4791 25.0533 23.0804C26.1563 22.6228 27.8499 23.113 28.6817 22.2812C29.5133 21.4495 28.8648 20.256 29.3224 19.1519C29.7634 18.088 30.4373 18.0622 30.806 16.9729C31.0619 16.2172 29.7925 15.5315 29.3514 14.4663C29.0042 13.6301 29.3425 10.7554 29.1795 9.79746C29.8805 9.76849 30.5415 9.79523 30.94 10.1937C31.7716 11.0254 30.9858 12.9925 31.4434 14.0956C31.8846 15.1608 33.8462 15.9859 33.8462 17.2106Z" fill="#A6AEC1"/>
<path d="M44.794 37.646H43.3351C42.267 37.646 41.4013 36.7803 41.4013 35.7122V33.4876C41.4013 32.9794 41.2012 32.4916 40.8444 32.1298L37.0806 28.3131C35.8764 27.0919 35.9042 25.1215 37.1425 23.9348C38.3407 22.7865 40.234 22.7964 41.4201 23.9573L47.9114 30.3106V37.6461H44.794V37.646Z" fill="#CCC8C4"/>
<path d="M54.5435 56.1639H36.6658C36.1902 56.1639 35.8047 55.7783 35.8047 55.3028V50.5818C35.8047 50.1062 36.1903 49.7207 36.6658 49.7207H54.5435C55.0191 49.7207 55.4046 50.1063 55.4046 50.5818V55.3028C55.4046 55.7784 55.0191 56.1639 54.5435 56.1639Z" fill="#CCC8C3"/>
<path d="M55.4047 50.5822V55.3032C55.4047 55.7779 55.019 56.1637 54.5432 56.1637H36.665C36.1904 56.1637 35.8047 55.778 35.8047 55.3032V54.4313H52.6223C53.0981 54.4313 53.4826 54.0457 53.4826 53.5709V49.7207H54.5432C55.019 49.7207 55.4047 50.1065 55.4047 50.5822Z" fill="#CCC8C3"/>
<path d="M54.5424 48.8852H53.8188V45.5502C53.8188 45.0885 53.4447 44.7144 52.983 44.7144C52.5214 44.7144 52.1473 45.0885 52.1473 45.5502V48.8852H39.5327V44.1796C39.5327 43.3984 39.1074 42.6792 38.4226 42.3025C36.704 41.3576 35.6364 39.5522 35.6364 37.591V34.4204H40.5652V35.7127C40.5652 37.2398 41.8075 38.4824 43.3348 38.4824H44.7937C45.2554 38.4824 45.6295 38.1083 45.6295 37.6466C45.6295 37.1849 45.2554 36.8108 44.7937 36.8108H43.3348C42.7293 36.8108 42.2367 36.3182 42.2367 35.7127V33.488C42.2367 32.7556 41.9535 32.0649 41.4392 31.5435L37.6755 27.7268C37.2514 27.2968 37.0226 26.7272 37.0312 26.1232C37.0397 25.5193 37.2845 24.9565 37.7207 24.5386C38.5981 23.6975 39.9665 23.7045 40.8354 24.5549L47.3267 30.9082C47.6567 31.231 48.1858 31.2252 48.5087 30.8955C48.8314 30.5656 48.8258 30.0364 48.496 29.7136L47.0894 28.3369V23.6546L49.4319 25.3374C51.1323 26.5586 52.1473 28.5376 52.1473 30.6311V41.6684C52.1473 42.1301 52.5214 42.5042 52.983 42.5042C53.4447 42.5042 53.8188 42.1301 53.8188 41.6684V30.6311C53.8188 28.0006 52.5435 25.5142 50.4071 23.9796L47.0894 21.5963V2.82766C47.0893 1.26851 45.8207 0 44.2616 0H3.58742C2.02828 0 0.759766 1.26851 0.759766 2.82766V24.0238C0.759766 24.4855 1.13387 24.8596 1.59556 24.8596C2.05725 24.8596 2.43135 24.4855 2.43135 24.0238V22.007H15.6993C15.6986 22.0187 15.6981 22.0304 15.6974 22.042C15.6437 22.9986 15.5827 24.0828 16.3172 24.8174C17.0519 25.5519 18.1362 25.4909 19.0926 25.4372C19.6304 25.4069 20.1867 25.3757 20.4903 25.5014C20.7655 25.6155 21.1365 26.0353 21.4638 26.4056C22.1113 27.1381 22.8451 27.9683 23.9245 27.9683C25.0039 27.9683 25.7377 27.1381 26.3852 26.4055C26.7126 26.0353 27.0836 25.6155 27.3587 25.5014C27.6622 25.3757 28.2185 25.4068 28.7563 25.4372C29.7133 25.4909 30.7972 25.5519 31.5316 24.8174C32.2663 24.0828 32.2053 22.9986 32.1515 22.042C32.1508 22.0303 32.1503 22.0186 32.1496 22.007H45.4177V26.7008L42.0045 23.3603C40.4869 21.8753 38.0972 21.8626 36.5639 23.3317C35.8022 24.0617 35.3745 25.0447 35.3596 26.0997C35.3447 27.1546 35.7445 28.1493 36.4854 28.9004L40.249 32.7172C40.259 32.7273 40.2677 32.7384 40.2773 32.7488H3.58742C2.94988 32.7488 2.43135 32.2303 2.43135 31.5928V27.9428C2.43135 27.4811 2.05725 27.107 1.59556 27.107C1.13387 27.107 0.759766 27.4811 0.759766 27.9428V31.5928C0.759766 33.1519 2.02828 34.4204 3.58742 34.4204H33.965V37.591C33.965 40.1619 35.3645 42.5286 37.6173 43.7673C37.7677 43.8501 37.8611 44.008 37.8611 44.1796V48.8852H36.6646C35.7289 48.8852 34.9677 49.6465 34.9677 50.5822V55.3031C34.9677 56.2388 35.7289 57.0001 36.6646 57.0001H54.5424C55.4781 57.0001 56.2394 56.2389 56.2394 55.3031V50.5822C56.2393 49.6465 55.4781 48.8852 54.5424 48.8852ZM2.43135 20.3354V14.0848H15.4238C15.2384 14.2986 14.9732 14.5334 14.7289 14.7494C13.9964 15.3969 13.1662 16.1307 13.1662 17.2101C13.1662 18.2895 13.9964 19.0233 14.7289 19.6708C14.9732 19.8868 15.2384 20.1214 15.4238 20.3354H2.43135ZM32.013 18.4184C31.4823 18.8874 30.9336 19.3724 30.6717 20.0041C30.3996 20.6604 30.4418 21.4105 30.4826 22.1358C30.515 22.7124 30.5554 23.4297 30.3498 23.6353C30.1443 23.8412 29.4267 23.8006 28.8503 23.7682C28.1251 23.7276 27.3749 23.685 26.7185 23.9573C26.0868 24.2193 25.6018 24.7679 25.1328 25.2985C24.7399 25.7432 24.2506 26.2967 23.9246 26.2967C23.5987 26.2967 23.1096 25.7432 22.7164 25.2986C22.2474 24.7679 21.7624 24.2192 21.1306 23.9573C20.7132 23.7841 20.2578 23.7382 19.795 23.7382C19.5301 23.7382 19.2629 23.7534 18.9988 23.7682C18.4223 23.8006 17.7051 23.841 17.4994 23.6355C17.2937 23.4297 17.3341 22.7124 17.3665 22.1358C17.4073 21.4105 17.4496 20.6604 17.1774 20.0042C16.9154 19.3722 16.3668 18.8874 15.8361 18.4183C15.3915 18.0253 14.838 17.5361 14.838 17.2101C14.838 16.8841 15.3915 16.395 15.8361 16.0019C16.3668 15.5329 16.9155 15.0478 17.1774 14.4162C17.4496 13.7599 17.4073 13.0098 17.3665 12.2844C17.3341 11.7079 17.2938 10.9905 17.4993 10.7849C17.7051 10.5793 18.4225 10.6195 18.9989 10.6521C19.724 10.6929 20.4742 10.7352 21.1306 10.463C21.7625 10.201 22.2474 9.65241 22.7163 9.12174C23.1093 8.6771 23.5985 8.12358 23.9246 8.12358C24.2507 8.12358 24.7398 8.6771 25.133 9.12185C25.6019 9.65241 26.0869 10.201 26.7186 10.463C27.375 10.7353 28.1252 10.6928 28.8505 10.6521C29.4272 10.6195 30.1445 10.5795 30.35 10.785C30.5557 10.9906 30.5152 11.7079 30.4827 12.2844C30.4419 13.0098 30.3997 13.7599 30.6718 14.4162C30.9339 15.048 31.4824 15.5329 32.0131 16.0019C32.4578 16.3949 33.0114 16.8841 33.0114 17.2101C33.0114 17.5361 32.4577 18.0254 32.013 18.4184ZM32.4251 20.3354C32.6105 20.1216 32.8757 19.8868 33.12 19.6709C33.8526 19.0233 34.6828 18.2895 34.6828 17.2101C34.6828 16.1307 33.8525 15.3969 33.12 14.7494C32.8757 14.5334 32.6105 14.2988 32.4251 14.0848H35.5204C35.9821 14.0848 36.3562 13.7107 36.3562 13.249C36.3562 12.7873 35.9821 12.4132 35.5204 12.4132H32.1496C32.1503 12.4016 32.1508 12.3899 32.1515 12.3783C32.2053 11.4217 32.2664 10.3375 31.5318 9.60293C30.7971 8.86833 29.7129 8.92928 28.7563 8.98311C28.2181 9.01331 27.662 9.04473 27.3587 8.91892C27.0835 8.8048 26.7125 8.38501 26.3853 8.01481C25.7378 7.28221 25.0039 6.45199 23.9245 6.45199C22.8451 6.45199 22.1113 7.28221 21.4637 8.0147C21.1364 8.38501 20.7654 8.8048 20.4902 8.91892C20.1867 9.04462 19.6303 9.0132 19.0927 8.98311C18.1358 8.92906 17.0518 8.86833 16.3172 9.60293C15.5827 10.3375 15.6437 11.4217 15.6974 12.3783C15.6981 12.3899 15.6986 12.4016 15.6993 12.4132H2.43135V2.82766C2.43135 2.19011 2.94988 1.67159 3.58742 1.67159H44.2616C44.8991 1.67159 45.4177 2.19011 45.4177 2.82766V12.4133H39.3651C38.9034 12.4133 38.5293 12.7874 38.5293 13.2491C38.5293 13.7108 38.9034 14.0849 39.3651 14.0849H45.4177V20.3355L32.4251 20.3354ZM54.5677 55.3031C54.5677 55.317 54.5562 55.3285 54.5423 55.3285H36.6646C36.6506 55.3285 36.6393 55.317 36.6393 55.3031V50.5822C36.6393 50.5683 36.6506 50.5568 36.6646 50.5568H54.5424C54.5563 50.5568 54.5678 50.5683 54.5678 50.5822L54.5677 55.3031Z" fill="#939393"/>
</g>
<defs>
<clipPath id="clip0">
<rect width="57" height="57" fill="white"/>
</clipPath>
</defs>
</svg>
