<?xml version="1.0" encoding="UTF-8"?>
<svg width="77px" height="54px" viewBox="0 0 77 54" version="1.1" xmlns="http://www.w3.org/2000/svg" xmlns:xlink="http://www.w3.org/1999/xlink">
    <!-- Generator: Sketch 63.1 (92452) - https://sketch.com -->
    <title>gift-card</title>
    <desc>Created with Sketch.</desc>
    <g id="Page-1" stroke="none" stroke-width="1" fill="none" fill-rule="evenodd">
        <g id="iPhone-11-Pro" transform="translate(-269.000000, -209.000000)" fill-rule="nonzero">
            <g id="gift-card" transform="translate(269.000000, 209.000000)">
                <path d="M72.02,53.843 L7.928,53.843 C5.52615129,53.8402446 3.57975536,51.8938487 3.577,49.492 L3.577,12.992 C3.57975536,10.5901513 5.52615129,8.64375536 7.928,8.641 L72.02,8.641 C74.4218487,8.64375536 76.3682446,10.5901513 76.371,12.992 L76.371,49.492 C76.3682446,51.8938487 74.4218487,53.8402446 72.02,53.843 L72.02,53.843 Z" id="Path_186" fill="#FDD33A"></path>
                <path d="M72.02,8.645 L39.962,8.645 L39.962,53.845 L72.02,53.845 C74.4218487,53.8422446 76.3682446,51.8958487 76.371,49.494 L76.371,12.994 C76.3671431,10.5929324 74.4210691,8.64775295 72.02,8.645 L72.02,8.645 Z" id="Path_187" fill="#ECC22A"></path>
                <path d="M65.184,38.18 L49.223,38.18 C48.4123423,38.1971388 47.6558203,37.7744618 47.2454631,37.0751289 C46.8351058,36.3757959 46.8351058,35.5092041 47.2454631,34.8098711 C47.6558203,34.1105382 48.4123423,33.6878612 49.223,33.705 L65.184,33.705 C66.4013064,33.7307361 67.3746951,34.7249216 67.3746951,35.9425 C67.3746951,37.1600784 66.4013064,38.1542639 65.184,38.18 Z" id="Path_188" fill="#FFFFFF"></path>
                <path d="M59.962,47.13 L49.223,47.13 C48.4123423,47.1471388 47.6558203,46.7244618 47.2454631,46.0251289 C46.8351058,45.3257959 46.8351058,44.4592041 47.2454631,43.7598711 C47.6558203,43.0605382 48.4123423,42.6378612 49.223,42.655 L59.962,42.655 C60.7726577,42.6378612 61.5291797,43.0605382 61.9395369,43.7598711 C62.3498942,44.4592041 62.3498942,45.3257959 61.9395369,46.0251289 C61.5291797,46.7244618 60.7726577,47.1471388 59.962,47.13 L59.962,47.13 Z" id="Path_189" fill="#FFFFFF"></path>
                <path d="M76.371,20.653 L31.72,20.653 C33.5557249,19.9761218 35.24581,18.955962 36.7,17.647 C39.2575566,15.1380192 40.2713786,11.4492059 39.3553234,7.98554843 C38.4392681,4.52189094 35.7343558,1.81659468 32.2708283,0.900047846 C28.8073009,-0.0164989839 25.1183437,0.99679948 22.609,3.554 C21.4110871,4.86734071 20.4622842,6.38779736 19.809,8.041 C19.1557158,6.38779736 18.2069129,4.86734071 17.009,3.554 C13.1173255,-0.33767449 6.80767449,-0.33767449 2.916,3.554 C-0.97567449,7.44567449 -0.97567449,13.7553255 2.916,17.647 C4.37140803,18.9563552 6.06287876,19.9765319 7.9,20.653 L3.577,20.653 L3.577,25.128 L13.877,25.128 L10.771,28.148 C10.197946,28.7053343 9.96575654,29.5260531 10.1618952,30.3009996 C10.3580339,31.0759461 10.9527025,31.6873875 11.7218952,31.9049997 C12.4910879,32.1226118 13.317946,31.9133343 13.891,31.356 L17.9,27.456 L17.9,51.604 C17.9257361,52.8213064 18.9199216,53.7946951 20.1375,53.7946951 C21.3550784,53.7946951 22.3492639,52.8213064 22.375,51.604 L22.375,27.717 L26.325,31.86 C27.1832291,32.7255409 28.576289,32.7451168 29.4585005,31.9040335 C30.3407119,31.0629502 30.3876138,29.6705424 29.564,28.772 L26.09,25.128 L76.371,25.128 L76.371,20.653 Z M22.838,12.883 C23.595,10.195 24.774,7.717 25.773,6.718 C27.9172456,4.57403068 31.3935306,4.57425457 33.5374999,6.71850008 C35.6814693,8.86274559 35.6812455,12.3390306 33.537,14.483 C32.537,15.483 30.061,16.661 27.372,17.418 C25.6807633,17.9736216 23.9021722,18.2152633 22.124,18.131 C22.0400589,16.3527664 22.2820397,14.5741738 22.838,12.883 L22.838,12.883 Z M6.08,6.718 C8.22397465,4.57404328 11.7000254,4.57404328 13.844,6.718 C14.844,7.718 16.022,10.194 16.779,12.883 C17.3346216,14.5742367 17.5762633,16.3528278 17.492,18.131 C15.7138278,18.2152633 13.9352367,17.9736216 12.244,17.418 C9.556,16.661 7.078,15.482 6.079,14.483 C3.940161,12.3363566 3.94060817,8.86409248 6.08,6.718 L6.08,6.718 Z" id="Path_190" fill="#F90053"></path>
                <rect id="Rectangle_1527" fill="#A50043" x="39.962" y="20.653" width="36.409" height="4.475"></rect>
            </g>
        </g>
    </g>
</svg>