<?xml version="1.0" encoding="UTF-8"?>
<svg width="58px" height="9px" viewBox="0 0 58 9" version="1.1" xmlns="http://www.w3.org/2000/svg" xmlns:xlink="http://www.w3.org/1999/xlink">
    <!-- Generator: Sketch 63.1 (92452) - https://sketch.com -->
    <title>green_star</title>
    <desc>Created with Sketch.</desc>
    <g id="Page-1" stroke="none" stroke-width="1" fill="none" fill-rule="evenodd">
        <g id="iPhone-11-Pro-Copy-27" transform="translate(-12.000000, -223.000000)" fill="#049834" fill-rule="nonzero">
            <g id="green_star" transform="translate(12.000000, 223.000000)">
                <polygon id="Path" points="1.77099141 9.06535 2.44298485 6.47494649 2.63327176 5.74149137 2.07871058 5.25021439 -2.91322522e-13 3.40871216 2.51085687 3.31336364 3.28123939 3.28410348 3.543946 2.52629377 4.41974516 -2.66453526e-15 5.248138 2.50900575 5.50405578 3.28413084 6.28778924 3.31338187 8.89 3.4105358 6.81334199 5.25021439 6.26844956 5.73292942 6.44444917 6.45663724 7.07863856 9.06430141 5.11641844 7.57850746 4.45288488 7.07606986 3.78468591 7.5716962"></polygon>
                <polygon id="Path" points="38.6598803 9.06535 39.3318737 6.47494649 39.5221606 5.74149137 38.9675995 5.25021439 36.8888889 3.40871216 39.3997458 3.31336364 40.1701283 3.28410348 40.4328349 2.52629377 41.308634 -2.66453526e-15 42.1370269 2.50900575 42.3929447 3.28413084 43.1766781 3.31338187 45.7788889 3.4105358 43.7022309 5.25021439 43.1573384 5.73292942 43.3333381 6.45663724 43.9675274 9.06430141 42.0053073 7.57850746 41.3417738 7.07606986 40.6735748 7.5716962"></polygon>
                <polygon id="Path" points="14.0672877 9.06535 14.7392811 6.47494649 14.9295681 5.74149137 14.3750069 5.25021439 12.2962963 3.40871216 14.8071532 3.31336364 15.5775357 3.28410348 15.8402423 2.52629377 16.7160415 -1.77635684e-15 17.5444343 2.50900575 17.8003521 3.28413084 18.5840855 3.31338187 21.1862963 3.4105358 19.1096383 5.25021439 18.5647459 5.73292942 18.7407455 6.45663724 19.3749349 9.06430141 17.4127147 7.57850746 16.7491812 7.07606986 16.0809822 7.5716962"></polygon>
                <polygon id="Path" points="26.363584 9.06535 27.0355774 6.47494649 27.2258643 5.74149137 26.6713032 5.25021439 24.5925926 3.40871216 27.1034495 3.31336364 27.873832 3.28410348 28.1365386 2.52629377 29.0123377 -2.66453526e-15 29.8407306 2.50900575 30.0966484 3.28413084 30.8803818 3.31338187 33.4825926 3.4105358 31.4059346 5.25021439 30.8610422 5.73292942 31.0370418 6.45663724 31.6712312 9.06430141 29.709011 7.57850746 29.0454775 7.07606986 28.3772785 7.5716962"></polygon>
                <polygon id="Path" points="50.9561766 9.06535 51.62817 6.47494649 51.8184569 5.74149137 51.2638958 5.25021439 49.1851852 3.40871216 51.6960421 3.31336364 52.4664246 3.28410348 52.7291312 2.52629377 53.6049303 -2.66453526e-15 54.4333232 2.50900575 54.689241 3.28413084 55.4729744 3.31338187 58.0751852 3.4105358 55.9985272 5.25021439 55.4536347 5.73292942 55.6296344 6.45663724 56.2638237 9.06430141 54.3016036 7.57850746 53.6380701 7.07606986 52.9698711 7.5716962"></polygon>
            </g>
        </g>
    </g>
</svg>