<svg width="71" height="79" viewBox="0 0 71 79" fill="none" xmlns="http://www.w3.org/2000/svg">
<path d="M4.29688 0L5.37724 2.91964L8.29688 4L5.37724 5.08036L4.29688 8L3.21651 5.08036L0.296875 4L3.21651 2.91964L4.29688 0Z" fill="#90C63E"/>
<path d="M59.2969 75L59.8371 76.4598L61.2969 77L59.8371 77.5402L59.2969 79L58.7567 77.5402L57.2969 77L58.7567 76.4598L59.2969 75Z" fill="#90C63E"/>
<path d="M68.2969 10L68.8371 11.4598L70.2969 12L68.8371 12.5402L68.2969 14L67.7567 12.5402L66.2969 12L67.7567 11.4598L68.2969 10Z" fill="#90C63E"/>
<path d="M60.2975 32.4064C55.7974 28.8923 50.1469 26.7812 43.9909 26.7812C29.3276 26.7812 17.4453 38.6636 17.4453 53.3268C17.4453 55.2862 17.6728 57.1949 18.0774 59.0405H60.2975V32.4064Z" fill="#CDF6FC"/>
<path d="M58.7119 36.6024C57.9535 34.4788 55.4253 33.556 53.3522 34.4282L33.5062 42.847C34.0877 42.4298 34.5681 41.8484 34.8462 41.1405C35.6552 39.1432 34.6945 36.8932 32.6972 36.0842L22.079 31.7863C19.9048 30.9015 17.4651 30.9267 15.3035 31.8495L6.21484 35.7049L11.3723 47.8654L15.5943 46.0704L28.8797 51.4427C30.2702 52.0115 31.8377 51.9989 33.2155 51.4048L56.5883 41.4818C57.5742 41.0646 58.2948 40.2809 58.674 39.3708C59.0026 38.5238 59.0532 37.5252 58.7119 36.6024Z" fill="white"/>
<path d="M5.39811 55.5134L0.796875 35.1112L5.15794 33.2656L12.6033 50.811L5.39811 55.5134Z" fill="#FF9D9C"/>
<path d="M40.7969 33C47.7004 33 53.2969 27.4036 53.2969 20.5C53.2969 13.5964 47.7004 8 40.7969 8C33.8933 8 28.2969 13.5964 28.2969 20.5C28.2969 27.4036 33.8933 33 40.7969 33Z" fill="#FDE4A1"/>
<path d="M59.2086 38.0056C58.703 37.8665 58.1721 38.1826 58.0456 38.6755C57.9824 38.9157 58.0204 39.1812 58.1468 39.3961C58.2732 39.611 58.4754 39.7627 58.7156 39.8385C58.8041 39.8511 58.8799 39.8638 58.9684 39.8638C59.3856 39.8638 59.7648 39.573 59.8786 39.1559C60.0176 38.6503 59.7142 38.132 59.2086 38.0056Z" fill="#505050"/>
<path d="M57.0083 40.2436C56.8061 40.3952 56.5912 40.5343 56.351 40.6354L32.9783 50.5458C31.8406 51.0261 30.526 51.0388 29.3757 50.5711L16.0776 45.1987C15.85 45.0976 15.5846 45.1102 15.3571 45.1987L12.0073 46.6271L7.59563 36.2112L15.8121 32.7349C17.7335 31.9133 19.933 31.9007 21.867 32.6717L32.4853 36.9696C33.5977 37.4247 34.3308 38.4865 34.3308 39.6874C34.3308 40.0539 34.255 40.4332 34.1033 40.7871C33.9263 41.2422 33.623 41.634 33.2437 41.9374C32.8898 41.9753 32.5611 41.9627 32.1945 41.8742C32.0681 41.8489 31.9544 41.811 31.8153 41.7604L22.6002 39.0553C22.1072 38.9036 21.5637 39.207 21.4246 39.6874C21.2729 40.193 21.5637 40.7239 22.0567 40.8756L31.1454 43.5302C31.335 43.606 31.5372 43.6692 31.7521 43.7198C32.144 43.8209 32.5358 43.8715 32.9403 43.8715C33.2311 43.8715 33.5345 43.8335 33.8252 43.783C33.8631 43.7703 33.901 43.745 33.939 43.7324C33.9642 43.7198 33.9895 43.7324 34.0148 43.7198L53.8734 35.301C54.2653 35.1367 54.6951 35.0482 55.1249 35.0482C56.389 35.0482 57.4761 35.7434 57.9185 36.8053C58.1081 37.273 58.6769 37.5132 59.1573 37.3109C59.3848 37.2224 59.5744 37.0328 59.6755 36.8053C59.764 36.5777 59.764 36.3123 59.6755 36.0721C58.9297 34.3024 57.1474 33.1521 55.1249 33.1521C54.4296 33.1521 53.7597 33.2911 53.1276 33.5566L36.0879 40.7871C36.1764 40.4205 36.2269 40.0539 36.2269 39.6874C36.2269 37.7154 35.0387 35.9583 33.1932 35.2125L22.5749 30.9147C20.1858 29.954 17.4428 29.9666 15.0663 30.9905L6.84983 34.4794L6.17987 32.8866C5.97762 32.4189 5.40878 32.1914 4.94107 32.3936L0.580012 34.2392C0.150226 34.4162 -0.0773073 34.8712 0.0238188 35.3137L4.61241 55.7285C4.67562 56.0319 4.89051 56.272 5.18125 56.3984C5.29501 56.4364 5.42142 56.4616 5.53519 56.4616C5.7248 56.4616 5.90177 56.4111 6.05346 56.31L13.2713 51.6076C13.6506 51.3548 13.8022 50.8618 13.6253 50.4446L12.7404 48.3716L15.7363 47.1075L28.6551 52.3281C29.4515 52.6568 30.2858 52.8211 31.1454 52.8211C32.0302 52.8211 32.9024 52.6441 33.7241 52.2902L57.0968 42.3798C57.4761 42.2155 57.8426 42.0006 58.1713 41.7352C58.5884 41.4191 58.6643 40.825 58.3356 40.4079C58.0322 40.0034 57.4129 39.9275 57.0083 40.2436ZM6.16723 53.9714L2.04634 35.6676L4.80202 34.5047L5.47199 36.0847C5.47199 36.0847 10.6421 48.2704 10.6547 48.2704L11.5775 50.4573L6.16723 53.9714Z" fill="#505050"/>
<path d="M40.7917 34C48.2365 34 54.2969 27.9396 54.2969 20.4949C54.2969 13.0501 48.2365 7 40.7917 7C33.347 7 27.2969 13.0501 27.2969 20.4949C27.2969 27.9396 33.347 34 40.7917 34ZM40.7917 8.53817C47.3854 8.53817 52.7587 13.9013 52.7587 20.4949C52.7587 27.0885 47.3956 32.4618 40.7917 32.4618C34.1879 32.4618 28.8248 27.0987 28.8248 20.4949C28.835 13.9013 34.1981 8.53817 40.7917 8.53817Z" fill="#505050"/>
<path d="M41.5078 12.3896V28.4205" stroke="#505050" stroke-width="2" stroke-linecap="round" stroke-linejoin="round"/>
<path d="M45.1521 15.3037H39.6871C39.0107 15.3037 38.362 15.5724 37.8837 16.0507C37.4054 16.529 37.1367 17.1777 37.1367 17.8541C37.1367 18.5305 37.4054 19.1792 37.8837 19.6574C38.362 20.1357 39.0107 20.4044 39.6871 20.4044H43.3305C44.0068 20.4044 44.6555 20.6731 45.1338 21.1514C45.6121 21.6297 45.8808 22.2784 45.8808 22.9548C45.8808 23.6312 45.6121 24.2799 45.1338 24.7582C44.6555 25.2365 44.0068 25.5052 43.3305 25.5052H37.1367" stroke="#505050" stroke-width="2" stroke-linecap="round" stroke-linejoin="round"/>
<path d="M57.2969 65C62.8197 65 67.2969 60.5228 67.2969 55C67.2969 49.4772 62.8197 45 57.2969 45C51.774 45 47.2969 49.4772 47.2969 55C47.2969 60.5228 51.774 65 57.2969 65Z" fill="#90C63E" stroke="#505050" stroke-width="1.5" stroke-linejoin="round"/>
<path d="M51.9648 55L55.2982 58.3333L62.6315 51" fill="#90C63E"/>
<path d="M51.9648 55L55.2982 58.3333L62.6315 51" stroke="#505050" stroke-width="1.5" stroke-linejoin="round"/>
</svg>
