<svg width="30" height="30" viewBox="0 0 30 30" fill="none" xmlns="http://www.w3.org/2000/svg">
<g clip-path="url(#clip0)">
<path d="M8.00032 15V9.99999H8.5L11.5 11.5H14.5L17.5 12.5L19.5 14.5L20 18L21.5 21V20.5L23 18L23.5 15.5L22 12L23.5 12.5L26 14.5V13.5L25 9.99999L22 6.5H22.5L25.5 7C25.1667 6.5 24.2 5.1 23 3.5C21.5 1.5 18.5 0.999986 16 0.499986C14 0.0999858 11.5 1.33332 10.5 1.99999L9.5 2.49999L7 3.99999C6.50011 4.49999 5.30032 6.19999 4.50032 8.99999C3.70032 11.8 4.16698 15.1667 4.50032 16.5L6.00032 20L7.50032 18.5C7.66698 17.5 8.00032 15.4 8.00032 15Z" fill="#90C63E"/>
<path d="M25.8636 10.3942C25.294 9.13969 24.3829 8.06917 23.146 7.19815C23.6283 7.28437 24.2893 7.5012 25.2317 7.94588C25.4359 8.04223 25.6772 8.01382 25.8534 7.87255C26.0296 7.73127 26.1099 7.50197 26.0602 7.28162C25.186 3.40236 21.5083 1.17652 18.358 0.387031C16.6902 -0.0309364 15.0183 -0.112117 13.5229 0.151983C11.9905 0.42276 10.7286 1.04836 9.85657 1.96665C8.21258 2.22109 7.17475 3.13416 6.29834 4.08999C4.64586 5.8923 3.62811 8.51274 3.43243 11.4684C3.23076 14.515 3.8805 17.7116 5.31141 20.7126C5.39335 20.8845 5.55313 21.0063 5.74056 21.0399C5.92811 21.0735 6.1201 21.0146 6.25669 20.882C6.85008 20.3051 7.3292 19.6166 7.70078 18.8075C8.23202 19.6859 8.93283 20.5005 9.73117 21.1801V25.2984H6.20544C4.90826 25.2984 3.85291 26.353 3.85291 27.6492V29.4092C3.85291 29.7355 4.11748 30 4.44378 30H15.8164C16.1427 30 16.4072 29.7355 16.4072 29.4092C16.4072 29.0829 16.1427 28.8183 15.8164 28.8183H5.03465V27.6492C5.03465 27.0046 5.55987 26.4801 6.20538 26.4801H22.5106C23.1561 26.4801 23.6813 27.0046 23.6813 27.6492V28.8183H21.0364C20.7101 28.8183 20.4456 29.0829 20.4456 29.4092C20.4456 29.7355 20.7101 30 21.0364 30H24.2722C24.5985 30 24.8631 29.7355 24.8631 29.4092V27.6492C24.8631 26.353 23.8078 25.2984 22.5106 25.2984H18.9832V20.7542C19.4328 20.2313 19.8051 19.663 20.1133 19.0926C20.2314 19.86 20.3232 20.6951 20.3889 21.6002C20.406 21.8349 20.5605 22.037 20.7825 22.115C20.8465 22.1374 20.9126 22.1483 20.9782 22.1483C21.1397 22.1483 21.2977 22.0819 21.4115 21.9592C22.8672 20.3897 23.774 18.6905 24.0338 17.0453C24.2547 15.6458 24.0001 14.3028 23.2948 13.0929C24.0309 13.4025 24.8543 14.037 25.434 15.3175C25.5453 15.5632 25.809 15.7024 26.0747 15.6557C26.3404 15.609 26.5407 15.3882 26.5614 15.1192C26.7028 13.2855 26.4744 11.7399 25.8636 10.3942ZM10.9129 25.2983V22.0402C11.3644 22.3174 11.8325 22.5501 12.3079 22.7271C13.0111 22.989 13.6361 23.1198 14.2612 23.1198C14.8834 23.1198 15.5057 22.9901 16.2047 22.7308C16.7998 22.51 17.3294 22.2119 17.8015 21.8613V25.2983H10.9129ZM15.7937 21.6228C14.6601 22.0433 13.8559 22.0424 12.7204 21.6196C12.0348 21.3643 11.3576 20.9655 10.7353 20.4713C10.7074 20.444 10.6767 20.4195 10.6439 20.3982C9.60213 19.5476 8.72461 18.43 8.23929 17.2715C8.3559 16.8215 8.45014 16.3444 8.52025 15.8362C8.70979 14.4624 8.73773 12.8732 8.60249 10.8073C9.98624 11.7628 11.6055 11.8675 13.1833 11.9694C14.8825 12.0792 16.4876 12.183 17.7475 13.3424C18.6051 14.1318 19.256 15.3789 19.7106 17.1122C19.0992 18.7679 17.9328 20.8295 15.7937 21.6228ZM21.9024 11.6272C21.6668 11.6272 21.4537 11.7672 21.3601 11.9833C21.2665 12.1995 21.3103 12.4507 21.4715 12.6225C24.0245 15.3424 22.7333 18.2786 21.4357 20.0718C21.0158 16.3227 20.0863 13.8889 18.5477 12.4729C16.9806 11.0306 15.0889 10.9083 13.2595 10.7901C11.3841 10.6689 9.61285 10.5545 8.35596 8.96304C8.24139 8.81789 8.06908 8.7383 7.89207 8.7383C7.81862 8.7383 7.7443 8.752 7.67307 8.78053C7.43012 8.87758 7.27994 9.12282 7.30384 9.38335C7.6555 13.2094 7.72151 17.0306 6.00618 19.3739C3.7476 13.9937 4.18841 8.1401 7.16936 4.88867C8.04864 3.92974 8.90325 3.26038 10.2161 3.11061C10.3635 3.0938 10.4992 3.02211 10.5962 2.90989C11.9987 1.28728 14.9326 0.746895 18.0706 1.5334C20.5336 2.15062 23.3519 3.72444 24.5188 6.3648C22.7691 5.73275 21.9768 5.97735 21.3227 6.29943C21.2862 6.31747 21.2509 6.33487 21.2161 6.35109C21.0103 6.4468 20.8775 6.65186 20.8744 6.87882C20.8713 7.10573 20.9984 7.31442 21.2015 7.41569C23.7495 8.68634 25.1042 10.5241 25.3704 13.1202C24.05 11.76 22.4642 11.6272 21.9024 11.6272Z" fill="black"/>
<path d="M19.0715 4.16264C18.1443 3.35728 16.5727 2.88337 15.1597 2.98412C14.0788 3.06102 13.1954 3.462 12.6051 4.14389C12.3915 4.39066 12.4184 4.76376 12.6651 4.97737C12.9117 5.19098 13.2849 5.16409 13.4986 4.91745C13.9793 4.36225 14.7128 4.20065 15.2436 4.16287C16.3289 4.08562 17.6127 4.46083 18.2966 5.05486C18.4085 5.15203 18.5464 5.19965 18.6838 5.19965C18.849 5.19965 19.0134 5.13077 19.1302 4.99623C19.3442 4.74982 19.3179 4.3766 19.0715 4.16264Z" fill="black"/>
<path d="M18.4326 28.8184H18.421C18.0946 28.8184 17.8301 29.0829 17.8301 29.4092C17.8301 29.7355 18.0946 30.0001 18.421 30.0001H18.4326C18.7589 30.0001 19.0234 29.7355 19.0234 29.4092C19.0234 29.0829 18.7589 28.8184 18.4326 28.8184Z" fill="black"/>
</g>
<defs>
<clipPath id="clip0">
<rect width="30" height="30" fill="white"/>
</clipPath>
</defs>
</svg>
