<?xml version="1.0" encoding="UTF-8"?>
<svg width="11px" height="11px" viewBox="0 0 11 11" version="1.1" xmlns="http://www.w3.org/2000/svg" xmlns:xlink="http://www.w3.org/1999/xlink">
    <!-- Generator: Sketch 63.1 (92452) - https://sketch.com -->
    <title>half_star</title>
    <desc>Created with Sketch.</desc>
    <g id="Page-1" stroke="none" stroke-width="1" fill="none" fill-rule="evenodd">
        <g id="iPhone-11-Pro-Copy-20" transform="translate(-287.000000, -289.000000)" fill-rule="nonzero">
            <g id="half_star" transform="translate(287.000000, 289.000000)">
                <polygon id="Path" fill="#999999" points="2.0545112 10.516631 2.83408474 7.51152716 3.05483487 6.66065247 2.41149344 6.09072647 -4.26325641e-14 3.95441631 2.91282246 3.84380334 3.80653629 3.8098589 4.11129986 2.93073067 5.12730658 3.90798505e-14 6.08831767 2.91067499 6.38520558 3.80989063 7.29440772 3.84382449 10.313209 3.95653189 7.90409673 6.09072647 7.27197193 6.65071983 7.47614749 7.49028676 8.21186489 10.5154145 5.93551099 8.79175831 5.16575168 8.20888497 4.39058006 8.78385663"></polygon>
                <polygon fill="#EECC00" points="2.0545112 10.516631 2.83408474 7.51152716 3.05483487 6.66065247 2.41149344 6.09072647 5.97299987e-13 3.95441631 2.91282246 3.84380334 3.80653629 3.8098589 4.11129986 2.93073067 5.12730658 3.90798505e-14 5.16575168 8.20888497 4.39058006 8.78385663"></polygon>
            </g>
        </g>
    </g>
</svg>