<?xml version="1.0" encoding="UTF-8"?>
<svg width="35px" height="30px" viewBox="0 0 35 30" version="1.1" xmlns="http://www.w3.org/2000/svg" xmlns:xlink="http://www.w3.org/1999/xlink">
    <!-- Generator: Sketch 63.1 (92452) - https://sketch.com -->
    <title>health</title>
    <desc>Created with Sketch.</desc>
    <g id="Page-1" stroke="none" stroke-width="1" fill="none" fill-rule="evenodd">
        <g id="health" fill-rule="nonzero">
            <rect id="Rectangle_202-Copy-2" fill-opacity="0.0143684441" fill="#FFFFFF" x="0" y="0" width="35" height="30"></rect>
            <path d="M29.7463838,12.9816779 C29.7463838,14.3293153 29.7463838,15.6706847 29.7463838,17.0183221 C29.9532305,16.8114754 30.1663452,16.5983607 30.3731919,16.391514 C27.3582449,16.391514 24.3370299,16.391514 21.3220829,16.391514 C20.8895853,16.391514 20.4570878,16.391514 20.0183221,16.391514 C19.6798457,16.391514 19.391514,16.6798457 19.391514,17.0183221 C19.391514,20.033269 19.391514,23.0544841 19.391514,26.0694311 C19.391514,26.5019286 19.391514,26.9344262 19.391514,27.3731919 C19.5983607,27.1663452 19.8114754,26.9532305 20.0183221,26.7463838 C18.6706847,26.7463838 17.3293153,26.7463838 15.9816779,26.7463838 C16.1885246,26.9532305 16.4016393,27.1663452 16.608486,27.3731919 C16.608486,24.3582449 16.608486,21.3370299 16.608486,18.3220829 C16.608486,17.8895853 16.608486,17.4570878 16.608486,17.0183221 C16.608486,16.6798457 16.3201543,16.391514 15.9816779,16.391514 C12.966731,16.391514 9.94551591,16.391514 6.93056895,16.391514 C6.49807136,16.391514 6.06557377,16.391514 5.6268081,16.391514 C5.83365477,16.5983607 6.04676953,16.8114754 6.2536162,17.0183221 C6.2536162,15.6706847 6.2536162,14.3293153 6.2536162,12.9816779 C6.04676953,13.1885246 5.83365477,13.4016393 5.6268081,13.608486 C8.64175506,13.608486 11.6629701,13.608486 14.6779171,13.608486 C15.1104147,13.608486 15.5429122,13.608486 15.9816779,13.608486 C16.3201543,13.608486 16.608486,13.3201543 16.608486,12.9816779 C16.608486,9.96673095 16.608486,6.94551591 16.608486,3.93056895 C16.608486,3.49807136 16.608486,3.06557377 16.608486,2.6268081 C16.4016393,2.83365477 16.1885246,3.04676953 15.9816779,3.2536162 C17.3293153,3.2536162 18.6706847,3.2536162 20.0183221,3.2536162 C19.8114754,3.04676953 19.5983607,2.83365477 19.391514,2.6268081 C19.391514,5.64175506 19.391514,8.66297011 19.391514,11.6779171 C19.391514,12.1104147 19.391514,12.5429122 19.391514,12.9816779 C19.391514,13.3201543 19.6798457,13.608486 20.0183221,13.608486 C23.033269,13.608486 26.0544841,13.608486 29.0694311,13.608486 C29.5019286,13.608486 29.9344262,13.608486 30.3731919,13.608486 C31.1817743,13.608486 31.1817743,12.3548698 30.3731919,12.3548698 C27.3582449,12.3548698 24.3370299,12.3548698 21.3220829,12.3548698 C20.8895853,12.3548698 20.4570878,12.3548698 20.0183221,12.3548698 C20.2251688,12.5617165 20.4382835,12.7748312 20.6451302,12.9816779 C20.6451302,9.96673095 20.6451302,6.94551591 20.6451302,3.93056895 C20.6451302,3.49807136 20.6451302,3.06557377 20.6451302,2.6268081 C20.6451302,2.28833173 20.3567985,2 20.0183221,2 C18.6706847,2 17.3293153,2 15.9816779,2 C15.6432015,2 15.3548698,2.28833173 15.3548698,2.6268081 C15.3548698,5.64175506 15.3548698,8.66297011 15.3548698,11.6779171 C15.3548698,12.1104147 15.3548698,12.5429122 15.3548698,12.9816779 C15.5617165,12.7748312 15.7748312,12.5617165 15.9816779,12.3548698 C12.966731,12.3548698 9.94551591,12.3548698 6.93056895,12.3548698 C6.49807136,12.3548698 6.06557377,12.3548698 5.6268081,12.3548698 C5.28833173,12.3548698 5,12.6432015 5,12.9816779 C5,14.3293153 5,15.6706847 5,17.0183221 C5,17.3567985 5.28833173,17.6451302 5.6268081,17.6451302 C8.64175506,17.6451302 11.6629701,17.6451302 14.6779171,17.6451302 C15.1104147,17.6451302 15.5429122,17.6451302 15.9816779,17.6451302 C15.7748312,17.4382835 15.5617165,17.2251688 15.3548698,17.0183221 C15.3548698,20.033269 15.3548698,23.0544841 15.3548698,26.0694311 C15.3548698,26.5019286 15.3548698,26.9344262 15.3548698,27.3731919 C15.3548698,27.7116683 15.6432015,28 15.9816779,28 C17.3293153,28 18.6706847,28 20.0183221,28 C20.3567985,28 20.6451302,27.7116683 20.6451302,27.3731919 C20.6451302,24.3582449 20.6451302,21.3370299 20.6451302,18.3220829 C20.6451302,17.8895853 20.6451302,17.4570878 20.6451302,17.0183221 C20.4382835,17.2251688 20.2251688,17.4382835 20.0183221,17.6451302 C23.033269,17.6451302 26.0544841,17.6451302 29.0694311,17.6451302 C29.5019286,17.6451302 29.9344262,17.6451302 30.3731919,17.6451302 C30.7116683,17.6451302 31,17.3567985 31,17.0183221 C31,15.6706847 31,14.3293153 31,12.9816779 C31,12.1730955 29.7463838,12.1730955 29.7463838,12.9816779 Z" id="Path" fill="#000000"></path>
        </g>
    </g>
</svg>