<svg width="22" height="20" viewBox="0 0 22 20" fill="none" xmlns="http://www.w3.org/2000/svg">
<path d="M10.6273 19.5165L10.2715 19.1949C2.17881 12.3954 0 10.0064 0 6.10127C0 2.88529 2.53453 0.3125 5.60266 0.3125C8.18166 0.3125 9.64903 1.8286 10.6273 2.97717C11.6055 1.8286 13.0729 0.3125 15.6519 0.3125C18.7645 0.3125 21.2545 2.93123 21.2545 6.10127C21.2545 10.0064 19.0757 12.3954 10.983 19.1949L10.6273 19.5165ZM5.60266 1.50701C3.15705 1.50701 1.1561 3.57443 1.1561 6.10127C1.1561 9.45509 3.20152 11.6603 10.6273 17.9545C18.053 11.6603 20.0984 9.45509 20.0984 6.10127C20.0984 3.57443 18.0975 1.50701 15.6519 1.50701C13.4286 1.50701 12.228 2.88529 11.2943 3.98791L10.6273 4.76894L9.96029 3.98791C9.02651 2.88529 7.82594 1.50701 5.60266 1.50701Z" fill="white"/>
</svg>
