<svg width="26" height="26" viewBox="0 0 26 26" fill="none" xmlns="http://www.w3.org/2000/svg">
<path d="M13.0004 4.90639C15.5452 2.62164 19.4777 2.69748 21.9293 5.1534C24.3798 7.61039 24.4643 11.5234 22.1849 14.0757L12.9983 23.2754L3.81377 14.0757C1.53444 11.5234 1.62002 7.6039 4.06944 5.1534C6.52319 2.70073 10.4481 2.61839 13.0004 4.90639ZM20.3953 6.68415C18.7703 5.05698 16.1486 4.9909 14.4478 6.5184L13.0015 7.81623L11.5542 6.51948C9.84794 4.98981 7.23169 5.05698 5.60236 6.68631C3.98819 8.30048 3.90694 10.8842 5.39436 12.5916L12.9994 20.2085L20.6044 12.5926C22.0929 10.8842 22.0116 8.30373 20.3953 6.68415Z" fill="#A6AEC1"/>
</svg>
