<svg width="26" height="26" viewBox="0 0 26 26" fill="none" xmlns="http://www.w3.org/2000/svg">
<path d="M22.75 21.6665C22.75 21.9538 22.6359 22.2293 22.4327 22.4325C22.2295 22.6357 21.954 22.7498 21.6667 22.7498H4.33333C4.04602 22.7498 3.77047 22.6357 3.5673 22.4325C3.36414 22.2293 3.25 21.9538 3.25 21.6665V10.2806C3.24989 10.1156 3.2875 9.95262 3.35998 9.8043C3.43245 9.65597 3.53786 9.52617 3.66817 9.42481L12.3348 2.68431C12.525 2.53637 12.7591 2.45605 13 2.45605C13.2409 2.45605 13.475 2.53637 13.6652 2.68431L22.3318 9.42481C22.4621 9.52617 22.5676 9.65597 22.64 9.8043C22.7125 9.95262 22.7501 10.1156 22.75 10.2806V21.6665ZM20.5833 20.5831V10.8093L13 4.91164L5.41667 10.8093V20.5831H20.5833ZM7.58333 16.2498H18.4167V18.4165H7.58333V16.2498Z" fill="#90C63E"/>
</svg>
