<svg width="12" height="12" viewBox="0 0 12 12" fill="none" xmlns="http://www.w3.org/2000/svg">
<path d="M5.99935 11.8332C2.7776 11.8332 0.166016 9.22159 0.166016 5.99984C0.166016 2.77809 2.7776 0.166504 5.99935 0.166504C9.2211 0.166504 11.8327 2.77809 11.8327 5.99984C11.8327 9.22159 9.2211 11.8332 5.99935 11.8332ZM5.99935 10.6665C7.23703 10.6665 8.42401 10.1748 9.29918 9.29967C10.1744 8.4245 10.666 7.23751 10.666 5.99984C10.666 4.76216 10.1744 3.57518 9.29918 2.70001C8.42401 1.82484 7.23703 1.33317 5.99935 1.33317C4.76167 1.33317 3.57469 1.82484 2.69952 2.70001C1.82435 3.57518 1.33268 4.76216 1.33268 5.99984C1.33268 7.23751 1.82435 8.4245 2.69952 9.29967C3.57469 10.1748 4.76167 10.6665 5.99935 10.6665ZM3.08268 5.70817L8.33268 3.6665L6.29102 8.91767L5.41602 6.58317L3.08268 5.70817Z" fill="#A6AEC1"/>
</svg>
