<svg width="23" height="23" viewBox="0 0 23 23" fill="none" xmlns="http://www.w3.org/2000/svg">
<g clip-path="url(#clip0)">
<path d="M0 14.0967V17.1386C0 18.3999 1.00161 19.2902 2.22581 19.2902H20.7742C21.9984 19.2902 23 18.3999 23 17.1386V14.0967H0Z" fill="#359846"/>
<path d="M20.7742 3.70996H2.22581C1.00161 3.70996 0 4.60028 0 5.86157V8.90351H23V5.86157C23 4.60028 21.9984 3.70996 20.7742 3.70996Z" fill="#EA8634"/>
<path d="M23 8.90332H0V14.0969H23V8.90332Z" fill="#FCFBF0"/>
<path d="M20.7011 19.2902C21.9253 19.2902 23.0011 18.3999 23.0011 17.1386V14.0967H14.6172L20.7011 19.2902Z" fill="#21872F"/>
<path d="M20.775 3.70996H2.22656L8.38463 8.90351H23.0008V5.86157C23.0008 4.60028 21.9991 3.70996 20.775 3.70996Z" fill="#E27423"/>
<path d="M14.6541 14.0969H23.0009V8.90332H8.34766L14.6541 14.0969Z" fill="#F7F4E2"/>
<path d="M20.775 3.70996H2.22656L19.4024 8.90351H23.0008V5.86157C23.0008 4.60028 21.9991 3.70996 20.775 3.70996Z" fill="#D86619"/>
<path d="M22.9987 9.94203V8.90332H19.2148L22.9987 9.94203Z" fill="#F2E9C2"/>
<path d="M23 17.1015C23 18.437 21.9984 19.2903 20.7742 19.2903H2.22581C1.00161 19.2903 0 18.3257 0 17.0645" fill="#167A20"/>
<path d="M11.5012 9.16309C10.2028 9.16309 9.16406 10.2018 9.16406 11.5002C9.16406 12.7986 10.2028 13.8373 11.5012 13.8373C12.7995 13.8373 13.8383 12.7986 13.8383 11.5002C13.8383 10.2018 12.7995 9.16309 11.5012 9.16309ZM13.4302 11.7599C13.4302 11.797 13.4673 11.8712 13.5044 11.8712C13.4673 11.9824 13.4673 12.0937 13.4302 12.205C13.3931 12.1679 13.3189 12.205 13.2818 12.2421C13.2447 12.2792 13.2818 12.3534 13.3189 12.3905C13.2818 12.5018 13.2076 12.576 13.1705 12.6873C13.1334 12.6502 13.0592 12.6502 13.0221 12.7244C12.985 12.7615 12.985 12.8357 13.0221 12.8728C12.985 12.9099 12.9479 12.947 12.9108 12.9841L12.0947 12.0566L11.7608 11.797L11.7979 11.7599L12.1318 12.0195L13.2076 12.576L12.2431 11.8341L11.8721 11.6857C11.8721 11.6486 11.8721 11.6486 11.9092 11.6115L12.2802 11.7599L13.4673 12.0195L12.3173 11.6486L11.9092 11.5744C11.9092 11.5373 11.9092 11.5373 11.9092 11.5002L12.3173 11.5373L13.5415 11.4631L12.3173 11.3889L11.9092 11.426C11.9092 11.3889 11.9092 11.3889 11.9092 11.3518L12.3173 11.2776L13.4673 10.9066L12.2802 11.1663L11.9092 11.3147C11.9092 11.2776 11.9092 11.2776 11.8721 11.2405L12.2431 11.0921L13.2818 10.4244L12.206 10.9808L11.8721 11.2405L11.835 11.2034L12.1689 10.9437L12.985 10.0163C13.0221 10.0534 13.0592 10.0905 13.0963 10.1276C13.0592 10.1647 13.0592 10.2389 13.0963 10.276C13.1334 10.3131 13.2076 10.3131 13.2447 10.3131C13.3189 10.3873 13.356 10.4986 13.3931 10.6099C13.356 10.647 13.3189 10.6841 13.356 10.7582C13.3931 10.7953 13.4302 10.8324 13.5044 10.7953C13.5415 10.9066 13.5786 11.0179 13.5786 11.1292C13.5415 11.1292 13.5044 11.2034 13.5044 11.2405C13.5044 11.2776 13.5786 11.3518 13.6157 11.3147C13.6157 11.3518 13.6157 11.426 13.6157 11.4631C13.6157 11.5002 13.6157 11.5744 13.6157 11.6115C13.4673 11.6486 13.4302 11.6857 13.4302 11.7599ZM10.2028 9.94212C10.2399 9.97922 10.3141 9.97922 10.3512 9.94212C10.3883 9.90502 10.3883 9.83083 10.3883 9.79373C10.4624 9.71954 10.5737 9.68244 10.685 9.64534C10.7221 9.68244 10.7592 9.71954 10.8334 9.68244C10.8705 9.64534 10.9076 9.60825 10.8705 9.53405C10.9818 9.49696 11.0931 9.45986 11.2044 9.45986C11.2044 9.49696 11.2786 9.53405 11.3157 9.53405C11.3528 9.53405 11.427 9.45986 11.3899 9.42276C11.427 9.42276 11.5012 9.42276 11.5383 9.42276C11.5754 9.42276 11.6495 9.42276 11.6866 9.42276C11.6866 9.45986 11.7237 9.53405 11.7608 9.53405C11.7979 9.53405 11.8721 9.49696 11.8721 9.45986C11.9834 9.49696 12.0947 9.49696 12.206 9.53405C12.1689 9.57115 12.206 9.64534 12.2431 9.68244C12.2802 9.71954 12.3544 9.68244 12.3915 9.64534C12.5028 9.68244 12.577 9.75663 12.6883 9.79373C12.6512 9.83083 12.6512 9.90502 12.7254 9.94212C12.7624 9.97922 12.8366 9.97922 12.8737 9.94212C12.9108 9.97922 12.9479 10.0163 12.985 10.0534L12.0576 10.8695L11.7979 11.2034L11.7608 11.1663L12.0205 10.8324L12.577 9.75663L11.835 10.7582L11.6866 11.1292C11.6495 11.1292 11.6495 11.1292 11.6124 11.0921L11.7608 10.7212L12.0205 9.53405L11.6495 10.6841L11.5754 11.0921C11.5383 11.0921 11.5383 11.0921 11.5012 11.0921L11.5383 10.6841L11.5012 9.45986L11.427 10.6841L11.4641 11.0921C11.427 11.0921 11.427 11.0921 11.3899 11.0921L11.3157 10.6841L10.9447 9.53405L11.2044 10.7212L11.3528 11.0921C11.3157 11.0921 11.3157 11.0921 11.2786 11.1292L11.1302 10.7582L10.4624 9.71954L11.0189 10.7953L11.2786 11.1292L11.2415 11.1663L10.9818 10.8324L10.0544 10.0163C10.0915 10.0163 10.1286 9.97922 10.2028 9.94212ZM10.0544 12.947C10.0173 12.9099 9.98019 12.8728 9.94309 12.8357C9.98019 12.7986 9.98019 12.7244 9.94309 12.6873C9.906 12.6502 9.8318 12.6502 9.79471 12.6502C9.72051 12.576 9.68342 12.4647 9.64632 12.3534C9.68342 12.3163 9.72051 12.2792 9.68342 12.205C9.64632 12.1679 9.60922 12.1308 9.53503 12.1679C9.49793 12.0566 9.46084 11.9453 9.46084 11.8341C9.49793 11.8341 9.53503 11.7599 9.53503 11.7228C9.53503 11.6857 9.46084 11.6115 9.42374 11.6486C9.42374 11.6115 9.42374 11.5373 9.42374 11.5002C9.42374 11.4631 9.42374 11.3889 9.42374 11.3518C9.46084 11.3518 9.53503 11.3147 9.53503 11.2776C9.53503 11.2405 9.49793 11.1663 9.46084 11.1663C9.49793 11.055 9.49793 10.9437 9.53503 10.8324C9.57213 10.8695 9.64632 10.8324 9.68342 10.7953C9.72051 10.7582 9.68342 10.6841 9.64632 10.647C9.68342 10.5357 9.75761 10.4615 9.79471 10.3502C9.8318 10.3873 9.906 10.3873 9.94309 10.3131C9.98019 10.2389 9.98019 10.2018 9.94309 10.1647C9.98019 10.1276 10.0173 10.0905 10.0544 10.0534L10.8705 10.9808L11.2044 11.2405L11.1673 11.2776L10.8334 11.0179L9.75761 10.4615L10.7963 11.1292L11.1673 11.2776C11.1673 11.3147 11.1673 11.3147 11.1302 11.3518L10.7592 11.2034L9.57213 10.9437L10.7221 11.3147L11.1302 11.3889C11.1302 11.426 11.1302 11.426 11.1302 11.4631L10.7221 11.426L9.46084 11.5002L10.685 11.5744L11.0931 11.5373C11.0931 11.5744 11.0931 11.5744 11.0931 11.6115L10.685 11.6857L9.53503 12.0566L10.7221 11.797L11.0931 11.6486C11.0931 11.6857 11.0931 11.6857 11.1302 11.7228L10.7592 11.8712L9.72051 12.5389L10.7963 11.9824L11.1302 11.7228L11.1673 11.7599L10.8334 12.0195L10.0544 12.947ZM11.3528 13.5405C11.3528 13.5034 11.3157 13.4292 11.2786 13.4292C11.2415 13.4292 11.1673 13.4663 11.1673 13.5034C11.056 13.4663 10.9447 13.4663 10.8334 13.4292C10.8705 13.3921 10.8334 13.3179 10.7963 13.2808C10.7592 13.2437 10.685 13.2808 10.6479 13.3179C10.5366 13.2808 10.4624 13.2066 10.3512 13.1695C10.3883 13.1324 10.3883 13.0582 10.3141 13.0212C10.277 12.9841 10.2028 12.9841 10.1657 13.0212C10.1286 12.9841 10.0915 12.947 10.0544 12.9099L10.9818 12.0937L11.2415 11.7599L11.2786 11.797L11.0189 12.1308L10.4624 13.2066L11.1302 12.1679L11.2786 11.797C11.3157 11.797 11.3157 11.797 11.3528 11.8341L11.2044 12.205L10.9447 13.3921L11.3157 12.2421L11.3899 11.8341C11.427 11.8341 11.427 11.8341 11.4641 11.8341L11.427 12.2421L11.5012 13.4663L11.5754 12.2421L11.5383 11.8341C11.5754 11.8341 11.5754 11.8341 11.6124 11.8341L11.6866 12.2421L12.0576 13.3921L11.7979 12.205L11.6495 11.8341C11.6866 11.8341 11.6866 11.8341 11.7237 11.797L11.8721 12.1679L12.5399 13.2066L11.9834 12.1308L11.7237 11.797L11.7608 11.7599L12.0205 12.0937L12.9479 12.9099C12.9108 12.947 12.8737 12.9841 12.8366 13.0212C12.7995 12.9841 12.7254 12.9841 12.6883 13.0212C12.6512 13.0582 12.6512 13.1324 12.6512 13.1695C12.577 13.2437 12.4657 13.2808 12.3544 13.3179C12.3173 13.2808 12.2802 13.2437 12.206 13.2808C12.1318 13.3179 12.1318 13.355 12.1689 13.4292C12.0576 13.4663 11.9463 13.5034 11.835 13.5034C11.835 13.4663 11.7608 13.4292 11.7237 13.4292C11.6866 13.4292 11.6124 13.5034 11.6495 13.5405C11.6124 13.5405 11.5383 13.5405 11.5012 13.5405C11.4641 13.5405 11.3899 13.5405 11.3528 13.5405Z" fill="#7D7DBC"/>
<path d="M12.0195 11.9453L12.1308 12.0566V12.0195L12.0195 11.9453Z" fill="#6060B2"/>
<path d="M11.4994 9.16309C10.7946 9.16309 10.1639 9.49696 9.71875 9.97921L9.94133 10.1647C9.97843 10.1276 10.0155 10.0905 10.0526 10.0534C10.0897 10.0163 10.1268 9.97921 10.1639 9.94212C10.201 9.97921 10.2752 9.97921 10.3123 9.94212C10.3494 9.90502 10.3494 9.83083 10.3494 9.79373C10.3865 9.75663 10.4607 9.75663 10.4978 9.71954L11.0542 10.7953L11.3139 11.1292L11.2768 11.1663L11.0171 10.8324L10.0897 10.0163L10.8687 10.9066L10.98 10.9808L11.2026 11.1663L11.8333 11.6857L11.8704 11.6486L12.2042 11.9082L13.28 12.4647C13.2429 12.5018 13.2429 12.576 13.2058 12.6131C13.1687 12.576 13.0946 12.576 13.0575 12.6502C13.0204 12.6873 13.0204 12.7615 13.0575 12.7986L13.28 12.9841C13.6139 12.576 13.8365 12.0566 13.8365 11.4631C13.8365 10.2018 12.7978 9.16309 11.4994 9.16309ZM11.3139 11.1292L11.1655 10.7582L10.4978 9.75663C10.5349 9.71954 10.572 9.68244 10.6462 9.68244C10.6833 9.71954 10.7204 9.75663 10.7946 9.71954C10.8317 9.68244 10.8687 9.64534 10.8317 9.57115C10.8687 9.57115 10.9429 9.53405 10.98 9.53405L11.2397 10.7211L11.3881 11.0921C11.351 11.1292 11.351 11.1292 11.3139 11.1292ZM11.5365 11.0921L11.5736 10.6841L11.4994 9.45986L11.4252 10.6841L11.4623 11.0921C11.4252 11.0921 11.4252 11.0921 11.3881 11.0921L11.3139 10.6841L10.9429 9.53405C10.98 9.53405 11.0542 9.49696 11.0913 9.49696C11.0913 9.53405 11.1655 9.57115 11.2026 9.57115C11.2397 9.57115 11.3139 9.49696 11.2768 9.45986C11.3139 9.45986 11.3881 9.45986 11.4252 9.45986C11.4623 9.45986 11.5365 9.45986 11.5736 9.45986C11.5736 9.49696 11.6107 9.57115 11.6478 9.57115C11.6849 9.57115 11.7591 9.53405 11.7591 9.49696C11.7962 9.49696 11.8704 9.53405 11.9075 9.53405L11.5365 10.6841L11.4623 11.0921C11.5736 11.0921 11.5365 11.0921 11.5365 11.0921ZM11.6107 11.1292L11.7591 10.7582L12.0187 9.57115C12.0558 9.57115 12.13 9.60825 12.1671 9.60825C12.13 9.64534 12.1671 9.71954 12.2042 9.75663C12.2413 9.79373 12.3155 9.75663 12.3526 9.71954C12.3897 9.75663 12.4639 9.75663 12.501 9.79373L11.8333 10.7582L11.6849 11.1292C11.6478 11.1292 11.6478 11.1292 11.6107 11.1292ZM13.28 12.2421C13.2429 12.2792 13.28 12.3534 13.3171 12.3905C13.28 12.4276 13.28 12.5018 13.2429 12.5389L12.2413 11.8341L11.8704 11.6857C11.8704 11.6486 11.8704 11.6486 11.9075 11.6115L12.2784 11.7599L13.4655 12.0195C13.4655 12.0566 13.4284 12.1308 13.4284 12.1679C13.3542 12.1679 13.3171 12.205 13.28 12.2421ZM13.5397 11.3518C13.5397 11.3889 13.5397 11.4631 13.5397 11.5002C13.5397 11.5373 13.5397 11.6115 13.5397 11.6486C13.5026 11.6486 13.4284 11.6857 13.4284 11.7228C13.4284 11.7599 13.4655 11.8341 13.5026 11.8341C13.5026 11.8711 13.4655 11.9453 13.4655 11.9824L12.3155 11.6115L11.9075 11.5373C11.9075 11.5002 11.9075 11.5002 11.9075 11.4631L12.3155 11.5002L13.5397 11.426L12.3155 11.3518L11.9075 11.3889C11.9075 11.3518 11.9075 11.3518 11.9075 11.3147L12.3155 11.2405L13.4655 10.8695C13.4655 10.9066 13.5026 10.9808 13.5026 11.0179C13.4655 11.0179 13.4284 11.0921 13.4284 11.1292C13.4284 11.3147 13.4655 11.3518 13.5397 11.3518ZM13.28 10.7582C13.3171 10.7953 13.3542 10.8324 13.4284 10.7953C13.4284 10.8324 13.4655 10.9066 13.4655 10.9437L12.2784 11.2034L11.9075 11.3518C11.9075 11.3147 11.9075 11.3147 11.8704 11.2776L12.2413 11.1292L13.2429 10.4615C13.28 10.4986 13.3171 10.5357 13.3171 10.6099C13.28 10.647 13.2429 10.7211 13.28 10.7582ZM13.2429 10.4986L12.1671 11.055L11.8333 11.3147L11.7962 11.2776L12.13 11.0179L12.9462 10.0905L12.0187 10.9066L11.7591 11.2405L11.722 11.2034L11.9817 10.8695L12.5381 9.79373C12.5752 9.83083 12.6494 9.83083 12.6865 9.86792C12.6494 9.90502 12.6494 9.97921 12.7236 10.0163C12.7607 10.0534 12.8349 10.0534 12.872 10.0163C12.9091 10.0534 12.9462 10.0905 12.9833 10.1276C13.0204 10.1647 13.0575 10.2018 13.0946 10.2389C13.0575 10.276 13.0575 10.3502 13.0946 10.3873C13.1317 10.4244 13.2058 10.4244 13.2429 10.4244C13.2058 10.3873 13.2429 10.4244 13.2429 10.4986Z" fill="#6060B2"/>
</g>
<defs>
<clipPath id="clip0">
<rect width="23" height="23" fill="white"/>
</clipPath>
</defs>
</svg>
