<svg width="20" height="20" viewBox="0 0 20 20" fill="none" xmlns="http://www.w3.org/2000/svg">
<path d="M10 0.311523C4.47309 0.311523 0 4.54489 0 9.77686C0 15.0083 4.4725 19.2422 10 19.2422C15.5269 19.2422 20 15.0088 20 9.77686C20 4.54545 15.5275 0.311523 10 0.311523ZM10 17.9214C5.25539 17.9214 1.39535 14.2678 1.39535 9.77686C1.39535 5.28593 5.25539 1.63227 10 1.63227C14.7446 1.63227 18.6046 5.28593 18.6046 9.77686C18.6046 14.2678 14.7446 17.9214 10 17.9214Z" fill="#3498DB"/>
<path d="M9.99844 7.83984C9.61312 7.83984 9.30078 8.13552 9.30078 8.5002V13.9153C9.30078 14.28 9.61316 14.5756 9.99844 14.5756C10.3837 14.5756 10.6961 14.2799 10.6961 13.9153V8.50024C10.6961 8.13553 10.3837 7.83984 9.99844 7.83984Z" fill="#3498DB"/>
<path d="M9.99844 4.97852C9.61312 4.97852 9.30078 5.27419 9.30078 5.63887V6.43132C9.30078 6.79603 9.61316 7.09167 9.99844 7.09167C10.3837 7.09167 10.6961 6.796 10.6961 6.43132V5.63887C10.6961 5.27419 10.3837 4.97852 9.99844 4.97852Z" fill="#3498DB"/>
</svg>
