<svg width="30" height="30" viewBox="0 0 30 30" fill="none" xmlns="http://www.w3.org/2000/svg">
<path opacity="0.1" fill-rule="evenodd" clip-rule="evenodd" d="M0 15C0 6.71573 6.71573 0 15 0C23.2843 0 30 6.71573 30 15C30 23.2843 23.2843 30 15 30C6.71573 30 0 23.2843 0 15Z" fill="black" fill-opacity="0.37"/>
<path fill-rule="evenodd" clip-rule="evenodd" d="M15.0008 6.99951C12.8281 6.99951 12.5554 7.00901 11.702 7.04785C10.8504 7.08685 10.269 7.22168 9.76036 7.41952C9.23419 7.62385 8.78785 7.89719 8.34318 8.34203C7.89818 8.7867 7.62484 9.23303 7.41984 9.75904C7.2215 10.2679 7.0865 10.8494 7.04817 11.7007C7.01 12.5541 7 12.8269 7 14.9996C7 17.1723 7.00967 17.4441 7.04833 18.2975C7.0875 19.1491 7.22234 19.7305 7.42 20.2391C7.62451 20.7653 7.89784 21.2117 8.34268 21.6563C8.78719 22.1013 9.23352 22.3753 9.75936 22.5797C10.2684 22.7775 10.8499 22.9123 11.7014 22.9513C12.5547 22.9902 12.8272 22.9997 14.9998 22.9997C17.1726 22.9997 17.4444 22.9902 18.2978 22.9513C19.1495 22.9123 19.7315 22.7775 20.2405 22.5797C20.7665 22.3753 21.2121 22.1013 21.6567 21.6563C22.1017 21.2117 22.375 20.7653 22.58 20.2393C22.7767 19.7305 22.9117 19.149 22.9517 18.2976C22.99 17.4443 23 17.1723 23 14.9996C23 12.8269 22.99 12.5542 22.9517 11.7009C22.9117 10.8492 22.7767 10.2679 22.58 9.75921C22.375 9.23303 22.1017 8.7867 21.6567 8.34203C21.2116 7.89702 20.7666 7.62368 20.24 7.41952C19.73 7.22168 19.1483 7.08685 18.2966 7.04785C17.4433 7.00901 17.1716 6.99951 14.9983 6.99951H15.0008ZM14.283 8.44117C14.496 8.44084 14.7337 8.44117 15.0007 8.44117C17.1367 8.44117 17.3899 8.44884 18.2334 8.48717C19.0134 8.52284 19.4368 8.65317 19.7188 8.76267C20.0921 8.90768 20.3583 9.08101 20.6381 9.36101C20.9181 9.64102 21.0914 9.90769 21.2368 10.281C21.3463 10.5627 21.4768 10.986 21.5123 11.766C21.5506 12.6094 21.559 12.8627 21.559 14.9977C21.559 17.1328 21.5506 17.3861 21.5123 18.2294C21.4766 19.0094 21.3463 19.4328 21.2368 19.7145C21.0918 20.0878 20.9181 20.3536 20.6381 20.6335C20.3581 20.9135 20.0923 21.0868 19.7188 21.2318C19.4371 21.3418 19.0134 21.4718 18.2334 21.5075C17.3901 21.5458 17.1367 21.5541 15.0007 21.5541C12.8645 21.5541 12.6114 21.5458 11.768 21.5075C10.988 21.4715 10.5647 21.3411 10.2825 21.2316C9.90916 21.0866 9.64249 20.9133 9.36249 20.6333C9.08249 20.3533 8.90915 20.0873 8.76382 19.7138C8.65432 19.4321 8.52382 19.0088 8.48831 18.2288C8.44998 17.3854 8.44231 17.1321 8.44231 14.9957C8.44231 12.8594 8.44998 12.6074 8.48831 11.764C8.52398 10.984 8.65432 10.5607 8.76382 10.2787C8.90882 9.90535 9.08249 9.63868 9.36249 9.35868C9.64249 9.07868 9.90916 8.90534 10.2825 8.76001C10.5645 8.65001 10.988 8.52 11.768 8.48417C12.506 8.45084 12.792 8.44084 14.283 8.43917V8.44117ZM19.2711 9.76952C18.7411 9.76952 18.3111 10.199 18.3111 10.7292C18.3111 11.2592 18.7411 11.6892 19.2711 11.6892C19.8011 11.6892 20.2311 11.2592 20.2311 10.7292C20.2311 10.1992 19.8011 9.76952 19.2711 9.76952ZM15.0008 10.8912C12.7319 10.8912 10.8924 12.7307 10.8924 14.9996C10.8924 17.2684 12.7319 19.1071 15.0008 19.1071C17.2696 19.1071 19.1085 17.2684 19.1085 14.9996C19.1085 12.7307 17.2696 10.8912 15.0008 10.8912ZM15.0007 12.3329C16.4734 12.3329 17.6674 13.5267 17.6674 14.9996C17.6674 16.4723 16.4734 17.6663 15.0007 17.6663C13.5279 17.6663 12.334 16.4723 12.334 14.9996C12.334 13.5267 13.5279 12.3329 15.0007 12.3329Z" fill="black" fill-opacity="0.37"/>
</svg>
