<svg width="16" height="24" viewBox="0 0 16 24" fill="none" xmlns="http://www.w3.org/2000/svg">
<mask id="path-1-outside-1" maskUnits="userSpaceOnUse" x="-0.636719" y="-0.22168" width="17" height="24" fill="black">
<rect fill="white" x="-0.636719" y="-0.22168" width="17" height="24"/>
<path d="M15.4842 0.880723C15.4369 0.840409 15.3814 0.810864 15.3216 0.794136C15.2617 0.777408 15.199 0.773899 15.1376 0.783851L0.72388 3.11345C0.623314 3.12964 0.531799 3.18158 0.465725 3.25911C0.399652 3.33663 0.363336 3.43515 0.363281 3.53701V22.7938C0.363281 22.9076 0.408486 23.0167 0.488952 23.0972C0.569418 23.1776 0.678552 23.2228 0.792348 23.2228H15.2061C15.3199 23.2228 15.429 23.1776 15.5095 23.0972C15.5899 23.0167 15.6351 22.9076 15.6351 22.7938V1.20744C15.6351 1.14529 15.6217 1.08389 15.5956 1.02748C15.5695 0.971072 15.5315 0.920997 15.4842 0.880723ZM1.2214 22.3647V12.4342H2.83554V18.1175C2.83554 18.2313 2.88074 18.3405 2.96121 18.4209C3.04167 18.5014 3.15081 18.5466 3.2646 18.5466C3.6371 18.547 3.99423 18.6952 4.25763 18.9586C4.52103 19.222 4.66919 19.5791 4.66962 19.9516C4.66962 20.0654 4.71482 20.1745 4.79529 20.255C4.87575 20.3355 4.98489 20.3807 5.09868 20.3807H10.8678C10.9816 20.3807 11.0907 20.3355 11.1712 20.255C11.2517 20.1745 11.2969 20.0654 11.2969 19.9516C11.2972 19.5794 11.4451 19.2224 11.7082 18.9591C11.9712 18.6957 12.328 18.5474 12.7002 18.5466L12.7264 18.5473C12.7289 18.5473 12.7313 18.5474 12.7338 18.5474C12.8476 18.5474 12.9567 18.5022 13.0372 18.4217C13.1177 18.3413 13.1629 18.2321 13.1629 18.1183V12.4342H14.777V22.3647H1.2214ZM12.3047 11.5761H10.8554V11.2329C10.8555 11.103 10.8207 10.9755 10.7548 10.8636C10.6889 10.7517 10.5943 10.6594 10.4807 10.5964C10.3672 10.5333 10.2388 10.5018 10.109 10.5051C9.97915 10.5084 9.85256 10.5464 9.74234 10.6151L8.04381 11.6739C8.00933 11.6663 7.97404 11.6629 7.93874 11.664L6.25612 10.6151C6.1459 10.5464 6.01931 10.5084 5.88947 10.5051C5.75962 10.5018 5.63127 10.5333 5.5177 10.5964C5.40414 10.6594 5.3095 10.7517 5.24361 10.8636C5.17772 10.9755 5.14297 11.103 5.14297 11.2329V11.5761H3.69367V8.56901C4.13076 8.48195 4.53279 8.26882 4.85015 7.95592C5.16751 7.64302 5.38631 7.24404 5.47954 6.80823H10.487C10.5813 7.24945 10.8044 7.6528 11.1279 7.96728C11.4515 8.28175 11.861 8.49323 12.3047 8.57499L12.3047 11.5761ZM5.14295 12.4342V12.9525C5.14199 13.0826 5.17634 13.2105 5.24232 13.3226C5.3083 13.4347 5.40346 13.5268 5.51765 13.5891C5.63092 13.653 5.75943 13.6851 5.88947 13.6818C6.01952 13.6785 6.14624 13.64 6.25612 13.5703L7.42111 12.8441L6.49586 15.415C6.47659 15.468 6.46797 15.5244 6.47051 15.5808C6.47304 15.6372 6.48669 15.6925 6.51065 15.7436C6.53462 15.7947 6.56844 15.8406 6.61017 15.8786C6.6519 15.9167 6.70073 15.9461 6.75385 15.9652C6.80697 15.9843 6.86334 15.9928 6.91973 15.9901C6.97612 15.9873 7.03142 15.9735 7.08247 15.9494C7.13351 15.9253 7.17929 15.8913 7.21718 15.8495C7.25508 15.8076 7.28434 15.7587 7.3033 15.7055L8.05007 13.6306L8.79683 15.7055C8.81579 15.7587 8.84506 15.8076 8.88295 15.8495C8.92085 15.8913 8.96663 15.9253 9.01767 15.9494C9.06871 15.9735 9.12401 15.9873 9.1804 15.9901C9.23679 15.9928 9.29316 15.9843 9.34628 15.9652C9.39941 15.9461 9.44823 15.9167 9.48996 15.8786C9.5317 15.8406 9.56551 15.7947 9.58948 15.7436C9.61345 15.6925 9.62709 15.6372 9.62963 15.5808C9.63217 15.5244 9.62355 15.468 9.60427 15.415L8.70849 12.9259L9.74229 13.5703C9.85251 13.6391 9.97911 13.677 10.1089 13.6803C10.2388 13.6836 10.3671 13.6521 10.4807 13.5891C10.5943 13.5261 10.6889 13.4338 10.7548 13.3219C10.8207 13.2099 10.8554 13.0824 10.8554 12.9525V12.4342H12.3047V17.7234C11.8547 17.8045 11.4396 18.0197 11.1139 18.3407C10.7882 18.6617 10.5671 19.0737 10.4795 19.5225H5.48695C5.40043 19.0791 5.18356 18.6716 4.86409 18.3521C4.54462 18.0327 4.1371 17.8158 3.69367 17.7293V12.4342L5.14295 12.4342ZM13.1629 11.5761V8.18053C13.1629 8.12356 13.1515 8.06716 13.1295 8.01462C13.1075 7.96208 13.0752 7.91446 13.0346 7.87452C12.9939 7.83459 12.9458 7.80314 12.8929 7.78202C12.84 7.7609 12.7834 7.75053 12.7264 7.75151L12.7004 7.75227C12.3328 7.75018 11.9806 7.60476 11.7186 7.34695C11.4567 7.08914 11.3056 6.73929 11.2977 6.37183C11.2957 6.25932 11.2497 6.15207 11.1694 6.07318C11.0892 5.9943 10.9812 5.95009 10.8686 5.95009H5.09787C4.98535 5.95009 4.87733 5.99429 4.79709 6.07317C4.71684 6.15205 4.67079 6.25929 4.66886 6.3718C4.66088 6.73953 4.50963 7.08961 4.24733 7.34746C3.98503 7.60532 3.63242 7.75056 3.2646 7.75226C3.15081 7.75226 3.04167 7.79746 2.96121 7.87793C2.88074 7.95839 2.83554 8.06753 2.83554 8.18132V11.5761H1.2214V3.96608H14.777V11.5761L13.1629 11.5761Z"/>
</mask>
<path d="M15.4842 0.880723C15.4369 0.840409 15.3814 0.810864 15.3216 0.794136C15.2617 0.777408 15.199 0.773899 15.1376 0.783851L0.72388 3.11345C0.623314 3.12964 0.531799 3.18158 0.465725 3.25911C0.399652 3.33663 0.363336 3.43515 0.363281 3.53701V22.7938C0.363281 22.9076 0.408486 23.0167 0.488952 23.0972C0.569418 23.1776 0.678552 23.2228 0.792348 23.2228H15.2061C15.3199 23.2228 15.429 23.1776 15.5095 23.0972C15.5899 23.0167 15.6351 22.9076 15.6351 22.7938V1.20744C15.6351 1.14529 15.6217 1.08389 15.5956 1.02748C15.5695 0.971072 15.5315 0.920997 15.4842 0.880723ZM1.2214 22.3647V12.4342H2.83554V18.1175C2.83554 18.2313 2.88074 18.3405 2.96121 18.4209C3.04167 18.5014 3.15081 18.5466 3.2646 18.5466C3.6371 18.547 3.99423 18.6952 4.25763 18.9586C4.52103 19.222 4.66919 19.5791 4.66962 19.9516C4.66962 20.0654 4.71482 20.1745 4.79529 20.255C4.87575 20.3355 4.98489 20.3807 5.09868 20.3807H10.8678C10.9816 20.3807 11.0907 20.3355 11.1712 20.255C11.2517 20.1745 11.2969 20.0654 11.2969 19.9516C11.2972 19.5794 11.4451 19.2224 11.7082 18.9591C11.9712 18.6957 12.328 18.5474 12.7002 18.5466L12.7264 18.5473C12.7289 18.5473 12.7313 18.5474 12.7338 18.5474C12.8476 18.5474 12.9567 18.5022 13.0372 18.4217C13.1177 18.3413 13.1629 18.2321 13.1629 18.1183V12.4342H14.777V22.3647H1.2214ZM12.3047 11.5761H10.8554V11.2329C10.8555 11.103 10.8207 10.9755 10.7548 10.8636C10.6889 10.7517 10.5943 10.6594 10.4807 10.5964C10.3672 10.5333 10.2388 10.5018 10.109 10.5051C9.97915 10.5084 9.85256 10.5464 9.74234 10.6151L8.04381 11.6739C8.00933 11.6663 7.97404 11.6629 7.93874 11.664L6.25612 10.6151C6.1459 10.5464 6.01931 10.5084 5.88947 10.5051C5.75962 10.5018 5.63127 10.5333 5.5177 10.5964C5.40414 10.6594 5.3095 10.7517 5.24361 10.8636C5.17772 10.9755 5.14297 11.103 5.14297 11.2329V11.5761H3.69367V8.56901C4.13076 8.48195 4.53279 8.26882 4.85015 7.95592C5.16751 7.64302 5.38631 7.24404 5.47954 6.80823H10.487C10.5813 7.24945 10.8044 7.6528 11.1279 7.96728C11.4515 8.28175 11.861 8.49323 12.3047 8.57499L12.3047 11.5761ZM5.14295 12.4342V12.9525C5.14199 13.0826 5.17634 13.2105 5.24232 13.3226C5.3083 13.4347 5.40346 13.5268 5.51765 13.5891C5.63092 13.653 5.75943 13.6851 5.88947 13.6818C6.01952 13.6785 6.14624 13.64 6.25612 13.5703L7.42111 12.8441L6.49586 15.415C6.47659 15.468 6.46797 15.5244 6.47051 15.5808C6.47304 15.6372 6.48669 15.6925 6.51065 15.7436C6.53462 15.7947 6.56844 15.8406 6.61017 15.8786C6.6519 15.9167 6.70073 15.9461 6.75385 15.9652C6.80697 15.9843 6.86334 15.9928 6.91973 15.9901C6.97612 15.9873 7.03142 15.9735 7.08247 15.9494C7.13351 15.9253 7.17929 15.8913 7.21718 15.8495C7.25508 15.8076 7.28434 15.7587 7.3033 15.7055L8.05007 13.6306L8.79683 15.7055C8.81579 15.7587 8.84506 15.8076 8.88295 15.8495C8.92085 15.8913 8.96663 15.9253 9.01767 15.9494C9.06871 15.9735 9.12401 15.9873 9.1804 15.9901C9.23679 15.9928 9.29316 15.9843 9.34628 15.9652C9.39941 15.9461 9.44823 15.9167 9.48996 15.8786C9.5317 15.8406 9.56551 15.7947 9.58948 15.7436C9.61345 15.6925 9.62709 15.6372 9.62963 15.5808C9.63217 15.5244 9.62355 15.468 9.60427 15.415L8.70849 12.9259L9.74229 13.5703C9.85251 13.6391 9.97911 13.677 10.1089 13.6803C10.2388 13.6836 10.3671 13.6521 10.4807 13.5891C10.5943 13.5261 10.6889 13.4338 10.7548 13.3219C10.8207 13.2099 10.8554 13.0824 10.8554 12.9525V12.4342H12.3047V17.7234C11.8547 17.8045 11.4396 18.0197 11.1139 18.3407C10.7882 18.6617 10.5671 19.0737 10.4795 19.5225H5.48695C5.40043 19.0791 5.18356 18.6716 4.86409 18.3521C4.54462 18.0327 4.1371 17.8158 3.69367 17.7293V12.4342L5.14295 12.4342ZM13.1629 11.5761V8.18053C13.1629 8.12356 13.1515 8.06716 13.1295 8.01462C13.1075 7.96208 13.0752 7.91446 13.0346 7.87452C12.9939 7.83459 12.9458 7.80314 12.8929 7.78202C12.84 7.7609 12.7834 7.75053 12.7264 7.75151L12.7004 7.75227C12.3328 7.75018 11.9806 7.60476 11.7186 7.34695C11.4567 7.08914 11.3056 6.73929 11.2977 6.37183C11.2957 6.25932 11.2497 6.15207 11.1694 6.07318C11.0892 5.9943 10.9812 5.95009 10.8686 5.95009H5.09787C4.98535 5.95009 4.87733 5.99429 4.79709 6.07317C4.71684 6.15205 4.67079 6.25929 4.66886 6.3718C4.66088 6.73953 4.50963 7.08961 4.24733 7.34746C3.98503 7.60532 3.63242 7.75056 3.2646 7.75226C3.15081 7.75226 3.04167 7.79746 2.96121 7.87793C2.88074 7.95839 2.83554 8.06753 2.83554 8.18132V11.5761H1.2214V3.96608H14.777V11.5761L13.1629 11.5761Z" fill="black"/>
<path d="M15.4842 0.880723C15.4369 0.840409 15.3814 0.810864 15.3216 0.794136C15.2617 0.777408 15.199 0.773899 15.1376 0.783851L0.72388 3.11345C0.623314 3.12964 0.531799 3.18158 0.465725 3.25911C0.399652 3.33663 0.363336 3.43515 0.363281 3.53701V22.7938C0.363281 22.9076 0.408486 23.0167 0.488952 23.0972C0.569418 23.1776 0.678552 23.2228 0.792348 23.2228H15.2061C15.3199 23.2228 15.429 23.1776 15.5095 23.0972C15.5899 23.0167 15.6351 22.9076 15.6351 22.7938V1.20744C15.6351 1.14529 15.6217 1.08389 15.5956 1.02748C15.5695 0.971072 15.5315 0.920997 15.4842 0.880723ZM1.2214 22.3647V12.4342H2.83554V18.1175C2.83554 18.2313 2.88074 18.3405 2.96121 18.4209C3.04167 18.5014 3.15081 18.5466 3.2646 18.5466C3.6371 18.547 3.99423 18.6952 4.25763 18.9586C4.52103 19.222 4.66919 19.5791 4.66962 19.9516C4.66962 20.0654 4.71482 20.1745 4.79529 20.255C4.87575 20.3355 4.98489 20.3807 5.09868 20.3807H10.8678C10.9816 20.3807 11.0907 20.3355 11.1712 20.255C11.2517 20.1745 11.2969 20.0654 11.2969 19.9516C11.2972 19.5794 11.4451 19.2224 11.7082 18.9591C11.9712 18.6957 12.328 18.5474 12.7002 18.5466L12.7264 18.5473C12.7289 18.5473 12.7313 18.5474 12.7338 18.5474C12.8476 18.5474 12.9567 18.5022 13.0372 18.4217C13.1177 18.3413 13.1629 18.2321 13.1629 18.1183V12.4342H14.777V22.3647H1.2214ZM12.3047 11.5761H10.8554V11.2329C10.8555 11.103 10.8207 10.9755 10.7548 10.8636C10.6889 10.7517 10.5943 10.6594 10.4807 10.5964C10.3672 10.5333 10.2388 10.5018 10.109 10.5051C9.97915 10.5084 9.85256 10.5464 9.74234 10.6151L8.04381 11.6739C8.00933 11.6663 7.97404 11.6629 7.93874 11.664L6.25612 10.6151C6.1459 10.5464 6.01931 10.5084 5.88947 10.5051C5.75962 10.5018 5.63127 10.5333 5.5177 10.5964C5.40414 10.6594 5.3095 10.7517 5.24361 10.8636C5.17772 10.9755 5.14297 11.103 5.14297 11.2329V11.5761H3.69367V8.56901C4.13076 8.48195 4.53279 8.26882 4.85015 7.95592C5.16751 7.64302 5.38631 7.24404 5.47954 6.80823H10.487C10.5813 7.24945 10.8044 7.6528 11.1279 7.96728C11.4515 8.28175 11.861 8.49323 12.3047 8.57499L12.3047 11.5761ZM5.14295 12.4342V12.9525C5.14199 13.0826 5.17634 13.2105 5.24232 13.3226C5.3083 13.4347 5.40346 13.5268 5.51765 13.5891C5.63092 13.653 5.75943 13.6851 5.88947 13.6818C6.01952 13.6785 6.14624 13.64 6.25612 13.5703L7.42111 12.8441L6.49586 15.415C6.47659 15.468 6.46797 15.5244 6.47051 15.5808C6.47304 15.6372 6.48669 15.6925 6.51065 15.7436C6.53462 15.7947 6.56844 15.8406 6.61017 15.8786C6.6519 15.9167 6.70073 15.9461 6.75385 15.9652C6.80697 15.9843 6.86334 15.9928 6.91973 15.9901C6.97612 15.9873 7.03142 15.9735 7.08247 15.9494C7.13351 15.9253 7.17929 15.8913 7.21718 15.8495C7.25508 15.8076 7.28434 15.7587 7.3033 15.7055L8.05007 13.6306L8.79683 15.7055C8.81579 15.7587 8.84506 15.8076 8.88295 15.8495C8.92085 15.8913 8.96663 15.9253 9.01767 15.9494C9.06871 15.9735 9.12401 15.9873 9.1804 15.9901C9.23679 15.9928 9.29316 15.9843 9.34628 15.9652C9.39941 15.9461 9.44823 15.9167 9.48996 15.8786C9.5317 15.8406 9.56551 15.7947 9.58948 15.7436C9.61345 15.6925 9.62709 15.6372 9.62963 15.5808C9.63217 15.5244 9.62355 15.468 9.60427 15.415L8.70849 12.9259L9.74229 13.5703C9.85251 13.6391 9.97911 13.677 10.1089 13.6803C10.2388 13.6836 10.3671 13.6521 10.4807 13.5891C10.5943 13.5261 10.6889 13.4338 10.7548 13.3219C10.8207 13.2099 10.8554 13.0824 10.8554 12.9525V12.4342H12.3047V17.7234C11.8547 17.8045 11.4396 18.0197 11.1139 18.3407C10.7882 18.6617 10.5671 19.0737 10.4795 19.5225H5.48695C5.40043 19.0791 5.18356 18.6716 4.86409 18.3521C4.54462 18.0327 4.1371 17.8158 3.69367 17.7293V12.4342L5.14295 12.4342ZM13.1629 11.5761V8.18053C13.1629 8.12356 13.1515 8.06716 13.1295 8.01462C13.1075 7.96208 13.0752 7.91446 13.0346 7.87452C12.9939 7.83459 12.9458 7.80314 12.8929 7.78202C12.84 7.7609 12.7834 7.75053 12.7264 7.75151L12.7004 7.75227C12.3328 7.75018 11.9806 7.60476 11.7186 7.34695C11.4567 7.08914 11.3056 6.73929 11.2977 6.37183C11.2957 6.25932 11.2497 6.15207 11.1694 6.07318C11.0892 5.9943 10.9812 5.95009 10.8686 5.95009H5.09787C4.98535 5.95009 4.87733 5.99429 4.79709 6.07317C4.71684 6.15205 4.67079 6.25929 4.66886 6.3718C4.66088 6.73953 4.50963 7.08961 4.24733 7.34746C3.98503 7.60532 3.63242 7.75056 3.2646 7.75226C3.15081 7.75226 3.04167 7.79746 2.96121 7.87793C2.88074 7.95839 2.83554 8.06753 2.83554 8.18132V11.5761H1.2214V3.96608H14.777V11.5761L13.1629 11.5761Z" stroke="black" stroke-width="0.6" mask="url(#path-1-outside-1)"/>
</svg>
