<?xml version="1.0" encoding="UTF-8"?>
<svg width="25px" height="24px" viewBox="0 0 25 24" version="1.1" xmlns="http://www.w3.org/2000/svg" xmlns:xlink="http://www.w3.org/1999/xlink">
    <!-- Generator: Sketch 63.1 (92452) - https://sketch.com -->
    <title>like_selected</title>
    <desc>Created with Sketch.</desc>
    <g id="Page-1" stroke="none" stroke-width="1" fill="none" fill-rule="evenodd">
        <g id="iPhone-11-Pro-Copy-27" transform="translate(-87.000000, -521.000000)">
            <g id="like_selected" transform="translate(87.000000, 521.000000)">
                <polygon id="bounds-copy-6" fill-opacity="0.01" fill="#FFFFFF" transform="translate(12.500000, 12.000000) scale(1, -1) translate(-12.500000, -12.000000) " points="25 0 0 0 0 24 25 24"></polygon>
                <path d="M12.8816096,4.22586095 C13.4296641,3.9363046 13.994014,3.93160183 14.5663452,4.17480229 C14.8689724,4.30312077 15.0585301,4.52448693 15.1706019,4.82680795 C15.3704689,5.36225205 15.5793149,5.89568069 15.7635517,6.43717122 C15.9680745,7.03946186 15.9527769,7.65451717 15.831726,8.27427525 C15.8019067,8.42689138 15.7747109,8.57995539 15.748833,8.73324334 L15.5989358,9.65386681 C15.5733289,9.810066 15.5793149,9.82014337 15.7396076,9.82014337 C16.9873628,9.81980746 18.2354506,9.81376104 19.4832059,9.82350249 C19.7182606,9.82196657 19.9519974,9.85906555 20.1752577,9.9333458 C20.6039242,10.08585 20.8433655,10.4284804 20.9537745,10.8651663 C20.9680745,10.9189123 20.9853675,10.9716505 21,11.0250606 L21,11.0250606 L21,11.4986968 C20.9900925,11.5082071 20.9821764,11.5196299 20.976721,11.5322881 C20.9115397,11.8682003 20.7838377,12.1725368 20.5543731,12.4308533 C20.5281011,12.4604136 20.5357499,12.5319629 20.5450615,12.5810061 C20.5833056,12.7855766 20.6584636,12.9884676 20.6644496,13.19371 C20.6774194,13.6287163 20.5147988,14.0136718 20.2487529,14.3526072 C20.191553,14.4251642 20.1912205,14.4819334 20.2178251,14.5672551 C20.2680412,14.7258057 20.3192551,14.8897309 20.3292318,15.0543279 C20.359162,15.5316592 20.1922182,15.9498699 19.9118723,16.3277712 C19.8839375,16.3653933 19.8599933,16.4332476 19.8742933,16.4715416 C19.9760559,16.7453101 19.9890256,17.0278123 19.9674094,17.3130018 C19.9112072,18.0630938 19.4655803,18.6180208 18.7562355,18.8531594 C18.3990688,18.9714005 18.0329232,18.9942425 17.6624543,18.9942425 C15.5320918,18.9942425 13.4013967,18.9871884 11.2707017,19 C10.8024609,19.0026403 10.3874293,18.8901097 10,18.6428783 C10.0115287,16.619343 10.017293,14.5959196 10.017293,12.5726083 L10.017293,12.5726083 L10.017293,10.9689632 C10.029265,10.9566464 10.0403503,10.9438818 10.0505487,10.9306692 C10.3368806,10.5598221 10.6434985,10.200396 10.8879282,9.80234002 C11.3608247,9.02974187 11.7988028,8.23598125 12.2514134,7.45095435 C12.3471854,7.28597007 12.3924318,7.09602862 12.3814433,6.90509697 C12.3574992,6.31288369 12.3531759,5.71966268 12.3372132,5.12711349 C12.3259062,4.70621545 12.5310941,4.4109486 12.8816096,4.22586095 Z M9,11 C8.99165474,11.3279388 8.98820537,11.7850979 8.98695915,11.9483416 L8.98634413,11.9894851 C8.97431396,13.0756512 8.97171284,14.1624472 8.97236312,15.2486133 C8.9730134,16.3347795 8.97333854,17.4215755 8.98634413,18.5077416 C8.98699441,18.5578142 8.98829497,18.7615688 8.99089609,18.9971305 C7.57003512,19.0024842 6.14917414,18.9987051 4.72863831,18.9987051 C4.5202237,18.9987051 4.33196775,18.9328864 4.19703472,18.7782597 C4.11509949,18.683783 4.06502796,18.562853 4,18.4538899 L4,18.4538899 L4,11.5974071 C4.02275979,11.5451301 4.04421901,11.492853 4.06892964,11.4430953 C4.22272077,11.1228196 4.49453765,11 4.84601379,11 L4.84601379,11 Z" id="Combined-Shape" fill="#1C63E2" fill-rule="nonzero"></path>
            </g>
        </g>
    </g>
</svg>