<svg width="16" height="19" viewBox="0 0 16 19" fill="none" xmlns="http://www.w3.org/2000/svg">
<path d="M8 16.4169L12.125 12.2919C12.9408 11.4761 13.4963 10.4367 13.7213 9.30516C13.9463 8.17362 13.8308 7.00076 13.3892 5.93489C12.9477 4.86902 12.2 3.95802 11.2408 3.31707C10.2815 2.67612 9.1537 2.33401 8 2.33401C6.8463 2.33401 5.71851 2.67612 4.75924 3.31707C3.79997 3.95802 3.05229 4.86902 2.61076 5.93489C2.16923 7.00076 2.05368 8.17362 2.27871 9.30516C2.50374 10.4367 3.05926 11.4761 3.875 12.2919L8 16.4169ZM8 18.7736L2.69667 13.4703C1.64779 12.4214 0.933489 11.085 0.644107 9.63013C0.354725 8.17528 0.503256 6.66729 1.07092 5.29684C1.63858 3.9264 2.59987 2.75507 3.83324 1.93096C5.0666 1.10686 6.51665 0.666992 8 0.666992C9.48336 0.666992 10.9334 1.10686 12.1668 1.93096C13.4001 2.75507 14.3614 3.9264 14.9291 5.29684C15.4968 6.66729 15.6453 8.17528 15.3559 9.63013C15.0665 11.085 14.3522 12.4214 13.3033 13.4703L8 18.7736ZM8 9.83359C8.44203 9.83359 8.86595 9.658 9.17852 9.34544C9.49108 9.03288 9.66667 8.60895 9.66667 8.16693C9.66667 7.7249 9.49108 7.30098 9.17852 6.98842C8.86595 6.67586 8.44203 6.50026 8 6.50026C7.55798 6.50026 7.13405 6.67586 6.82149 6.98842C6.50893 7.30098 6.33334 7.7249 6.33334 8.16693C6.33334 8.60895 6.50893 9.03288 6.82149 9.34544C7.13405 9.658 7.55798 9.83359 8 9.83359ZM8 11.5003C7.11595 11.5003 6.2681 11.1491 5.64298 10.5239C5.01786 9.89883 4.66667 9.05098 4.66667 8.16693C4.66667 7.28287 5.01786 6.43503 5.64298 5.8099C6.2681 5.18478 7.11595 4.83359 8 4.83359C8.88406 4.83359 9.73191 5.18478 10.357 5.8099C10.9821 6.43503 11.3333 7.28287 11.3333 8.16693C11.3333 9.05098 10.9821 9.89883 10.357 10.5239C9.73191 11.1491 8.88406 11.5003 8 11.5003Z" fill="#A6AEC1"/>
</svg>
