<svg width="12" height="12" viewBox="0 0 12 12" fill="none" xmlns="http://www.w3.org/2000/svg">
<path d="M5.99935 11.8337C2.7776 11.8337 0.166016 9.22208 0.166016 6.00033C0.166016 2.77858 2.7776 0.166992 5.99935 0.166992C9.2211 0.166992 11.8327 2.77858 11.8327 6.00033C11.8327 9.22208 9.2211 11.8337 5.99935 11.8337ZM5.99935 10.667C7.23703 10.667 8.42401 10.1753 9.29918 9.30016C10.1744 8.42499 10.666 7.238 10.666 6.00033C10.666 4.76265 10.1744 3.57566 9.29918 2.70049C8.42401 1.82532 7.23703 1.33366 5.99935 1.33366C4.76167 1.33366 3.57469 1.82532 2.69952 2.70049C1.82435 3.57566 1.33268 4.76265 1.33268 6.00033C1.33268 7.238 1.82435 8.42499 2.69952 9.30016C3.57469 10.1753 4.76167 10.667 5.99935 10.667ZM3.08268 5.70866L8.33268 3.66699L6.29102 8.91816L5.41602 6.58366L3.08268 5.70866Z" fill="#E63950"/>
</svg>
