<svg width="25" height="25" viewBox="0 0 25 25" fill="none" xmlns="http://www.w3.org/2000/svg">
<path d="M12.5013 4.16634C14.2177 4.16634 15.6263 5.57497 15.6263 7.29134V10.4163H9.3763V7.29134C9.3763 5.57497 10.7849 4.16634 12.5013 4.16634ZM17.7096 10.4163V7.29134C17.7096 4.42438 15.3683 2.08301 12.5013 2.08301C9.63434 2.08301 7.29297 4.42438 7.29297 7.29134V10.4163H6.2513C5.10071 10.4163 4.16797 11.3491 4.16797 12.4997V20.833C4.16797 21.9836 5.10071 22.9163 6.2513 22.9163H18.7513C19.9019 22.9163 20.8346 21.9836 20.8346 20.833V12.4997C20.8346 11.3491 19.9019 10.4163 18.7513 10.4163H17.7096ZM6.2513 12.4997H18.7513V20.833H6.2513V12.4997Z" fill="#0D0D0D"/>
</svg>
