<svg width="278" height="230" viewBox="0 0 278 230" fill="none" xmlns="http://www.w3.org/2000/svg">
<g opacity="0.05" clip-path="url(#clip0_2399:736)">
<path d="M6.08182 164.974C-13.3762 118.399 2.56285 47.3982 43.3418 19.6602C84.3278 -8.07781 150.568 7.65419 201.076 44.5002C251.791 81.3462 286.774 139.306 273.112 178.015C259.243 216.724 196.936 236.182 138.562 234.94C79.9808 233.698 25.5398 211.549 6.08182 164.974Z" fill="#90C63E"/>
</g>
<path fill-rule="evenodd" clip-rule="evenodd" d="M79.7465 155.357C63.3546 153.337 49.0823 139.651 45.7594 122.661C41.6614 101.686 54.5292 80.9968 75.1775 75.5004C88.1309 72.0758 100.014 74.5629 110.787 82.4565C112.038 83.3726 112.038 83.9248 111.053 85.0721C107.751 88.9247 104.548 92.833 101.375 96.7798C100.575 97.7815 100.009 97.9099 99.0074 97.0538C97.8158 96.0314 96.5713 95.0795 95.2186 94.0448C94.6853 93.6369 94.1352 93.2161 93.5648 92.7731C92.637 99.6711 91.7404 106.393 90.8364 113.17C90.4888 115.776 90.14 118.39 89.788 121.026L116.029 110.234C115.183 109.573 114.376 108.946 113.593 108.336C112.545 107.52 111.539 106.738 110.539 105.953C110.454 105.883 110.362 105.818 110.272 105.753C109.812 105.425 109.387 105.122 110.064 104.335C112.836 101.047 115.559 97.7189 118.323 94.3417C118.851 93.6965 119.381 93.0495 119.913 92.4007C123.792 98.1451 126.084 104.813 126.554 111.728C126.966 117.348 126.924 122.974 126.88 128.71C126.851 132.634 126.821 136.61 126.935 140.67C126.727 140.343 126.546 140.055 126.383 139.795C126.037 139.244 125.77 138.82 125.488 138.41C122.735 134.386 118.688 133.701 114.299 134.347C110.445 134.9 107.773 137.147 106.715 140.961C105.555 145.139 105.803 149.176 108.668 152.69C109.708 153.975 110.959 155.049 112.689 155.34C112.86 155.985 112.45 155.951 112.122 155.924C112.056 155.918 111.993 155.913 111.939 155.914C106.698 155.931 101.455 155.931 96.2112 155.914C95.6474 155.912 94.4309 155.881 92.8727 155.832C98.5331 155.58 103.045 150.912 103.045 145.189C103.045 139.306 98.2753 134.536 92.3917 134.536C91.4154 134.536 90.4699 134.667 89.5717 134.913V142.702C90.2606 141.922 91.2687 141.429 92.3917 141.429C94.4683 141.429 96.1517 143.113 96.1517 145.189C96.1517 147.266 94.4683 148.949 92.3917 148.949C90.5286 148.949 88.982 147.594 88.6837 145.816H88.6317V125.763L81.7383 123.256V145.816H81.7565C82.0581 151.016 86.0888 155.215 91.2139 155.778C87.4653 155.653 82.6258 155.47 79.7465 155.357Z" fill="#90C63E"/>
<path d="M162.458 143.208C164.719 140.302 166.735 137.772 168.671 135.178C169.215 134.341 170.174 133.878 171.161 133.977C173.177 134.058 175.193 133.977 177.692 133.977C175.481 136.725 173.635 139.195 171.585 141.481C170.518 142.674 170.607 143.503 171.445 144.746C173.686 148.075 175.786 151.503 178.145 155.208C175.392 155.208 172.961 155.182 170.522 155.208C169.793 155.208 169.573 154.742 169.285 154.259C168.264 152.55 167.256 150.84 166.197 149.178C165.888 148.687 165.702 147.695 165.033 147.939C164.186 148.255 163.216 148.746 162.94 149.823C162.908 150.174 162.901 150.527 162.919 150.879C162.788 152.272 163.491 154.614 162.631 154.879C160.632 155.494 158.341 155.169 156.164 155.148C155.418 155.148 155.651 154.43 155.647 153.99C155.647 145.101 155.636 136.211 155.613 127.319C155.613 126.203 156.058 126.037 156.986 126.075C158.879 126.156 161.34 125.443 162.492 126.387C163.733 127.383 162.86 129.977 162.877 131.866C162.94 135.515 163.106 139.148 162.458 143.208Z" fill="black"/>
<path d="M119.424 145.145C119.374 146.449 119.424 147.655 118.905 148.781C118.428 149.822 117.694 150.474 116.478 150.474C115.186 150.474 114.274 149.902 113.882 148.726C113.105 146.37 113.079 143.83 113.806 141.459C114.084 140.312 115.124 139.516 116.301 139.55C117.622 139.52 118.521 140.189 118.994 141.488C119.467 142.788 119.365 143.994 119.424 145.145Z" fill="#91C63E"/>
<path d="M120.898 154.621C123.784 154.07 125.274 151.957 126.934 149.791V154.847C124.903 155.503 122.846 155.217 120.789 155.008C120.818 154.877 120.855 154.748 120.898 154.621Z" fill="#97CA4A"/>
<path fill-rule="evenodd" clip-rule="evenodd" d="M141.01 155.936C147.603 155.898 151.546 151.754 151.516 144.948C151.473 138.252 147.368 134.057 140.835 134.087C134.203 134.117 130.29 138.179 130.35 145.041C130.41 151.78 134.516 155.979 141.01 155.936ZM138.448 141.172C137.973 142.379 137.782 143.683 137.89 144.979C137.779 146.273 137.969 147.575 138.444 148.781C138.794 149.815 139.763 150.499 140.838 150.473C141.996 150.494 142.883 150.067 143.299 148.955C144.228 146.441 144.24 143.673 143.332 141.151C142.937 140.03 142.008 139.552 140.892 139.552C139.82 139.502 138.836 140.154 138.448 141.172Z" fill="black"/>
<path fill-rule="evenodd" clip-rule="evenodd" d="M215.453 142.083H216.08H220.78C223.029 142.083 224.853 143.776 224.853 145.865C224.853 147.954 223.029 149.648 220.78 149.648H204.81C203.916 152.153 202.11 154.226 199.792 155.467H220.78H221.093V155.462C226.659 155.308 231.12 151.071 231.12 145.865C231.12 140.66 226.659 136.422 221.093 136.268V136.264H220.78H216.08C213.83 136.264 212.006 134.57 212.006 132.481C212.006 130.392 213.83 128.699 216.08 128.699H230.493L233 122.88H216.08H215.453V122.897C210.034 123.198 205.74 127.374 205.74 132.481C205.74 137.589 210.034 141.765 215.453 142.065V142.083ZM194.146 150.409C194.351 150.438 194.561 150.454 194.773 150.454C195.718 150.454 196.592 150.155 197.308 149.648H194.146V150.409Z" fill="#90C63E"/>
<path d="M189.134 125.387L182.867 122.88V144.813C182.867 150.697 187.637 155.467 193.521 155.467C199.404 155.467 204.174 150.697 204.174 144.813V128.52H197.907V144.813C197.907 147.236 195.943 149.2 193.521 149.2C191.098 149.2 189.134 147.236 189.134 144.813V125.387Z" fill="#90C63E"/>
<defs>
<clipPath id="clip0_2399:736">
<rect width="278" height="230" fill="white" transform="translate(278 230) rotate(-180)"/>
</clipPath>
</defs>
</svg>
