<svg width="278" height="230" viewBox="0 0 278 230" fill="none" xmlns="http://www.w3.org/2000/svg">
<path d="M93.6807 152.324C98.6107 151.644 101.341 148.444 101.087 143.714C100.924 140.707 99.2078 138.978 96.4508 138.043C97.3288 137.372 98.2551 136.872 98.9312 136.148C100.098 134.885 100.715 133.21 100.646 131.492C100.577 129.774 99.8273 128.154 98.5624 126.989C97.8986 126.373 97.1115 125.904 96.2533 125.615C92.5832 124.298 88.742 124.68 84.949 124.663C79.5273 124.632 79.5273 124.663 79.5273 130.078C79.5273 136.951 79.4747 143.828 79.5625 150.705C79.5625 152.293 79.2025 152.6 77.6221 152.407C60.8171 150.336 46.1852 136.306 42.7785 118.887C38.5773 97.3832 51.7693 76.1731 72.9379 70.5382C86.2177 67.0273 98.4 69.5771 109.445 77.6696C110.727 78.6088 110.727 79.1749 109.717 80.3511C106.333 84.3008 103.049 88.3076 99.796 92.3539C98.9751 93.3808 98.3956 93.5125 97.3683 92.6347C95.665 91.1733 93.8563 89.8524 91.7886 88.2461C90.4716 98.0371 89.2161 107.481 87.9166 117.211L114.819 106.147C112.79 104.563 110.982 103.163 109.191 101.759C108.659 101.32 107.874 101.065 108.703 100.1C112.088 96.0842 115.403 92.0116 118.8 87.8643C122.778 93.7535 125.127 100.589 125.609 107.679C126.32 117.382 125.71 127.103 126 137.35C125.333 136.301 124.942 135.652 124.516 135.033C121.693 130.908 117.545 130.205 113.045 130.868C109.094 131.434 106.355 133.738 105.27 137.648C104.081 141.932 104.335 146.07 107.272 149.673C108.339 150.99 109.621 152.091 111.394 152.39C111.605 153.184 110.955 152.973 110.626 152.978C105.253 152.995 99.878 152.995 94.5017 152.978C94.1373 152.93 93.5754 153.057 93.6807 152.324Z" fill="#90C63E"/>
<path d="M182.724 133.863C182.724 131.072 182.767 128.277 182.702 125.473C182.667 124.196 182.99 123.68 184.389 123.644C190.267 123.486 190.263 123.437 190.267 129.345C190.267 133.32 190.21 137.294 190.315 141.268C190.403 144.642 192.212 146.17 195.332 145.83C197.168 145.631 198.208 144.651 198.663 142.871C199.205 140.769 198.969 138.632 198.991 136.508C199.034 132.834 199.043 129.156 198.991 125.468C198.991 124.21 199.227 123.671 200.647 123.64C206.495 123.512 206.49 123.459 206.49 129.381C206.49 132.913 206.407 136.446 206.49 139.979C206.766 149.314 200.603 153.054 192.505 152.176C185.98 151.469 182.89 147.83 182.737 141.136C182.68 138.711 182.737 136.278 182.737 133.858L182.724 133.863Z" fill="#90C63E"/>
<path d="M162.415 139.952C164.734 136.973 166.801 134.379 168.785 131.719C169.343 130.862 170.326 130.387 171.338 130.488C173.405 130.572 175.472 130.488 178.034 130.488C175.767 133.305 173.874 135.838 171.773 138.182C170.678 139.404 170.769 140.254 171.629 141.529C173.926 144.942 176.08 148.456 178.498 152.254C175.676 152.254 173.184 152.228 170.683 152.254C169.936 152.254 169.71 151.777 169.415 151.282C168.368 149.529 167.335 147.777 166.249 146.072C165.932 145.569 165.741 144.552 165.055 144.802C164.187 145.126 163.193 145.63 162.91 146.734C162.877 147.094 162.87 147.455 162.889 147.816C162.754 149.244 163.475 151.645 162.593 151.917C160.544 152.548 158.195 152.215 155.963 152.193C155.199 152.193 155.438 151.457 155.433 151.006C155.433 141.893 155.422 132.778 155.398 123.662C155.398 122.519 155.854 122.348 156.805 122.387C158.746 122.471 161.269 121.739 162.45 122.707C163.722 123.728 162.828 126.387 162.845 128.324C162.91 132.066 163.08 135.79 162.415 139.952Z" fill="black"/>
<path d="M211.412 143.977C213.746 144.785 215.754 145.689 217.956 145.938C218.317 145.978 218.675 146.104 219.037 146.109C220.709 146.139 222.765 146.51 223.286 144.405C223.78 142.422 221.715 142.077 220.427 141.379C218.759 140.475 216.98 139.754 215.352 138.758C212.316 136.95 211.2 134.12 211.588 130.753C211.976 127.386 214.095 125.28 217.325 124.307C221.587 123.027 225.74 123.595 229.817 125.136C229.954 125.189 230.161 125.193 230.218 125.289C231.37 127.202 229.459 128.499 229.199 130.137C229.036 131.15 228.493 131.382 227.474 130.932C225.746 130.115 223.863 129.669 221.949 129.622C220.727 129.622 219.452 129.827 219.138 131.203C218.86 132.421 219.955 132.95 220.864 133.439C222.686 134.378 224.553 135.229 226.384 136.151C229.852 137.898 231.397 140.724 230.911 144.558C230.47 148.122 228.264 150.314 224.954 151.419C220.833 152.795 216.716 152.481 212.66 151.022C212.025 150.795 211.398 150.585 211.398 149.712C211.412 147.908 211.412 146.047 211.412 143.977Z" fill="#90C63E"/>
<path d="M151.2 141.735C151.231 148.713 147.188 152.961 140.429 153C133.771 153.043 129.562 148.739 129.501 141.831C129.439 134.796 133.451 130.631 140.249 130.6C146.947 130.57 151.156 134.87 151.2 141.735Z" fill="black"/>
<path d="M118.3 141.937C118.248 143.274 118.3 144.51 117.768 145.665C117.279 146.732 116.526 147.4 115.279 147.4C113.955 147.4 113.02 146.814 112.617 145.608C111.822 143.193 111.794 140.59 112.54 138.158C112.825 136.983 113.891 136.167 115.097 136.201C116.452 136.171 117.374 136.856 117.859 138.189C118.343 139.521 118.239 140.757 118.3 141.937Z" fill="#91C63E"/>
<path d="M86.8123 143.475C86.9944 142.086 86.0885 140.255 88.7395 140.409C91.808 140.594 93.1313 141.39 93.1002 143.61C93.0692 145.758 91.8569 146.468 88.855 146.685C85.8531 146.902 87.1231 144.713 86.8123 143.475Z" fill="#93C742"/>
<path d="M86.8497 132.921C86.7682 131.657 86.5451 130.451 88.664 130.615C91.2375 130.8 92.4385 131.439 92.3999 133.019C92.3613 134.6 91.0874 135.337 88.634 135.49C86.2792 135.642 86.9097 134.102 86.8497 132.921Z" fill="#93C742"/>
<path d="M119.81 151.652C122.77 151.087 124.297 148.92 125.999 146.7V151.883C123.916 152.556 121.808 152.263 119.699 152.048C119.729 151.915 119.766 151.782 119.81 151.652Z" fill="#97CA4A"/>
<path d="M93.2859 152.3C93.3862 152.386 93.4821 152.543 93.5867 152.547C99.2543 152.756 104.922 152.73 110.589 152.547C110.69 152.547 110.786 152.386 110.882 152.3L113.236 152.633C113.381 152.715 113.429 152.798 113.38 152.88C113.332 152.962 113.284 153 113.236 153H81.8984C85.6914 152.569 89.5104 152.801 93.2859 152.3Z" fill="#F0F7E5"/>
<path d="M113.398 152.958V152.613C115.308 152.52 117.234 152.851 119.127 152.3C121.156 153.009 123.231 152.644 125.298 152.479C124.834 153.24 123.96 152.94 123.253 152.947C119.966 152.982 116.68 152.961 113.398 152.958Z" fill="#F7FBF2"/>
<path d="M137.231 141.766C137.12 140.438 137.316 139.102 137.803 137.864C138.2 136.821 139.209 136.152 140.309 136.203C141.453 136.203 142.405 136.693 142.81 137.842C143.74 140.427 143.728 143.266 142.776 145.843C142.349 146.983 141.44 147.421 140.253 147.399C139.151 147.426 138.158 146.725 137.799 145.665C137.311 144.429 137.117 143.093 137.231 141.766Z" fill="#FDFDFD"/>
<g opacity="0.05" clip-path="url(#clip0)">
<path d="M8.25565 159.422C-11.2024 112.847 4.73668 41.8464 45.5157 14.1084C86.5017 -13.6296 152.742 2.10244 203.25 38.9484C253.965 75.7944 288.948 133.754 275.286 172.463C261.417 211.172 199.11 230.63 140.736 229.388C82.1547 228.146 27.7136 205.997 8.25565 159.422Z" fill="#90C63E"/>
</g>
<defs>
<clipPath id="clip0">
<rect width="278" height="230" fill="white" transform="translate(278 230) rotate(-180)"/>
</clipPath>
</defs>
</svg>
