<svg width="84" height="84" viewBox="0 0 84 84" fill="none" xmlns="http://www.w3.org/2000/svg">
<rect x="-3" y="-9" width="89" height="106" fill="white"/>
<path d="M78.2042 76.7427C77.4261 74.5435 57.791 63.5296 57.791 63.5296L43.5885 61.9106V61.8477L43.3097 61.8791L43.0354 61.8477V61.9106L28.8329 63.5296C28.8329 63.5296 9.19325 74.5435 8.41971 76.7427C7.64618 78.9419 4.64648 93.9718 4.64648 93.9718H81.9999C81.9999 93.9718 78.9822 78.9464 78.2042 76.7427Z" fill="#303030"/>
<path d="M60.8202 64.1419C60.8202 64.1419 57.6721 58.2954 56.2195 56.6764C54.7669 55.0574 52.028 55.1428 52.028 55.1428L43.5416 54.9764V54.9404H42.6422H41.7427V54.9764L33.2608 55.1428C33.2608 55.1428 30.4995 55.0439 29.0694 56.6764C27.6392 58.3089 24.4327 64.1419 24.4327 64.1419C24.4327 64.1419 22.184 81.7218 23.0835 81.6139C23.9829 81.5059 30.7289 76.2171 32.8966 75.7899C34.4121 75.502 42.0395 81.1641 42.6107 80.7729C43.1819 81.1641 50.8093 75.502 52.3204 75.7899C54.4656 76.1991 61.216 81.5149 62.1334 81.6139C63.0509 81.7128 60.8202 64.1419 60.8202 64.1419Z" fill="#90C63E" stroke="#303030" stroke-width="0.7" stroke-miterlimit="10"/>
<path d="M53.2184 46.3549L43.3874 45.7388C43.3874 45.7388 43.3559 47.4837 43.3154 50.2361C43.2749 47.4927 43.2479 45.7388 43.2479 45.7388L33.4304 46.3549C33.4304 46.3549 31.8518 60.0491 32.2251 63.1163C32.6343 66.4983 34.2938 70.0106 35.5036 73.1048C36.3401 75.2455 37.2216 77.3637 38.202 79.4325C39.1014 81.2898 39.9514 83.6509 41.6379 84.8022C43.8866 86.3448 46.3601 83.9522 47.4844 81.8745C48.7211 79.6259 49.5262 77.1389 50.5021 74.7418C51.9682 71.144 53.7086 67.2538 54.4012 63.3547C54.4012 63.2737 54.4282 63.1972 54.4372 63.1163C54.797 60.0491 53.2184 46.3549 53.2184 46.3549Z" fill="white" stroke="#303030" stroke-width="0.7" stroke-miterlimit="10"/>
<path d="M43.5449 54.9402L35.7016 46.2109L33.4305 46.3549C33.4305 46.3549 32.1308 57.6475 32.1667 62.0189L44.5343 56.3838L43.5449 54.9402Z" fill="#303030"/>
<path d="M54.2471 19.6905C48.54 15.8858 38.3267 15.8948 32.6331 19.6905C30.0202 21.4309 30.3125 26.0766 30.3125 26.0766C30.3125 26.0766 31.6167 46.8316 32.3408 47.848C33.0648 48.8644 38.583 55.9791 40.0357 56.5548C41.6682 57.2069 45.1985 57.2159 46.8445 56.5548C48.2972 55.9746 53.8109 48.8644 54.5394 47.848C55.268 46.8316 56.5722 26.0766 56.5722 26.0766C56.5722 26.0766 56.86 21.4309 54.2471 19.6905Z" fill="white" stroke="#303030" stroke-width="0.7" stroke-miterlimit="10"/>
<path d="M57.9591 11.0058C57.9591 11.0058 59.3892 9.88152 58.2649 8.65376C57.1406 7.426 54.5861 7.7543 54.5861 7.7543C54.5861 7.7543 53.3584 4.6062 51.1097 2.9467C48.8611 1.2872 50.9073 4.68715 50.9073 4.68715C50.9073 4.68715 44.9799 1.47609 41.6024 2.09221C38.225 2.70834 41.9128 3.72473 41.9128 3.72473C41.9128 3.72473 28.214 4.13399 25.5561 10.2683C22.8982 16.4026 27.4989 20.3872 28.3174 22.4335C29.1359 24.4797 29.2169 30.9153 29.2169 30.9153L31.0563 33.164L30.9394 32.1431C30.9394 32.1431 31.8928 30.5106 31.8928 29.7955C31.8928 29.0805 31.4835 27.2411 31.4835 25.7075C31.4835 25.0734 31.9962 23.967 32.8327 22.8517C33.4077 23.1467 34.0102 23.3847 34.6316 23.5623C37.0827 24.2773 39.1289 23.8681 38.6162 23.2565C38.1994 22.6521 37.8566 21.9998 37.5954 21.3136C37.5954 21.3136 39.2773 22.9417 42.4254 23.0451C45.5735 23.1485 45.4926 22.5324 44.1659 21.3091C43.5668 20.763 43.1046 20.0836 42.8167 19.3258C47.4354 19.5957 53.2459 20.5311 54.1859 21.615C55.535 23.1485 54.5951 25.9099 54.6985 27.5424C54.802 29.1749 56.1602 32.1431 56.1602 32.1431C56.1602 32.1431 57.5498 25.9144 57.5498 24.6866C57.5498 23.4588 59.3892 20.5986 60.7204 17.3245C62.0516 14.0505 57.9591 11.0058 57.9591 11.0058Z" fill="#303030"/>
<path d="M30.7713 32.1436C30.7713 32.1436 29.0039 29.1304 27.9875 33.3399C26.9711 37.5493 31.3335 40.1488 31.3335 40.1488L30.7713 32.1436Z" fill="white" stroke="#303030" stroke-width="0.7" stroke-miterlimit="10"/>
<path d="M56.1579 32.1436C56.1579 32.1436 57.9253 29.1304 58.9417 33.3399C59.9581 37.5493 55.5957 40.1533 55.5957 40.1533L56.1579 32.1436Z" fill="white" stroke="#303030" stroke-width="0.7" stroke-miterlimit="10"/>
<path d="M34.9902 34.8053C34.9902 34.8053 36.3934 33.1188 39.1367 34.4545" stroke="black" stroke-width="0.7" stroke-linecap="round" stroke-linejoin="round"/>
<path d="M52.0664 34.8053C52.0664 34.8053 50.6633 33.1188 47.9199 34.4545" stroke="black" stroke-width="0.7" stroke-linecap="round" stroke-linejoin="round"/>
<path d="M40.2625 41.2725L40.1321 41.8931C40.0509 42.2853 40.1232 42.6936 40.334 43.0341C40.5448 43.3746 40.8782 43.6213 41.2654 43.7235C42.2953 43.9933 43.6265 44.2722 44.337 44.1732C44.8851 44.073 45.4248 43.9317 45.9516 43.7505C46.3173 43.6322 46.6267 43.3834 46.8207 43.0517C47.0148 42.7199 47.08 42.3283 47.0039 41.9515L46.869 41.3084" fill="white"/>
<path d="M40.2625 41.2725L40.1321 41.8931C40.0509 42.2853 40.1232 42.6936 40.334 43.0341C40.5448 43.3746 40.8782 43.6213 41.2654 43.7235C42.2953 43.9933 43.6265 44.2722 44.337 44.1732C44.8851 44.073 45.4248 43.9317 45.9516 43.7505C46.3173 43.6322 46.6267 43.3834 46.8207 43.0517C47.0148 42.7199 47.08 42.3283 47.0039 41.9515L46.869 41.3084" stroke="#303030" stroke-width="0.7" stroke-miterlimit="10"/>
<path d="M44.9685 31.0824C48.5183 30.0194 52.2983 29.996 55.861 31.0149C55.861 31.0149 57.6599 31.4331 56.9178 31.7839L56.1578 32.1392C56.1578 32.1392 55.9329 36.7759 54.5972 37.7608C53.2615 38.7457 50.4507 38.8132 48.2695 38.395C46.0884 37.9767 45.2474 36.0744 44.8291 34.5992C44.5336 33.4944 44.2979 32.3745 44.123 31.2443L44.9685 31.0824Z" stroke="black" stroke-width="0.7" stroke-linecap="round" stroke-linejoin="round"/>
<path d="M42.1327 31.0824C38.5829 30.0194 34.8029 29.996 31.2402 31.0149C31.2402 31.0149 29.4413 31.4331 30.1834 31.7839L30.9389 32.1392C30.9389 32.1392 31.1818 36.7759 32.504 37.7608C33.8262 38.7457 36.6505 38.8132 38.8272 38.395C41.0039 37.9767 41.8494 36.0744 42.2721 34.5992C42.5672 33.4946 42.8014 32.3746 42.9737 31.2443L42.1327 31.0824Z" stroke="black" stroke-width="0.7" stroke-linecap="round" stroke-linejoin="round"/>
<path d="M42.9727 31.2212H44.124" stroke="black" stroke-width="0.7" stroke-linecap="round" stroke-linejoin="round"/>
<path d="M33.0918 29.9577C35.6425 28.9666 38.4679 28.9442 41.034 29.8947" stroke="black" stroke-width="0.7" stroke-linecap="round" stroke-linejoin="round"/>
<path d="M46.0234 29.9577C48.5741 28.9666 51.3996 28.9442 53.9657 29.8947" stroke="black" stroke-width="0.7" stroke-linecap="round" stroke-linejoin="round"/>
<path d="M38.2207 46.8984C39.7173 48.1577 41.6076 48.8531 43.5635 48.8638C45.4667 48.9586 47.3397 48.3593 48.8343 47.1773" stroke="black" stroke-width="0.7" stroke-linecap="round" stroke-linejoin="round"/>
<path d="M52.7279 46.4673C52.7999 46.13 52.8538 45.8782 52.8808 45.7388C52.9754 45.3846 52.9705 45.0112 52.8665 44.6597C52.7626 44.3082 52.5637 43.9922 52.2917 43.7465C52.0404 43.5509 51.745 43.42 51.4314 43.3651C51.1178 43.3102 50.7955 43.3331 50.4928 43.4316C49.5933 43.67 46.4452 43.724 45.3434 43.724H45.2579L43.6749 43.8904L42.0963 43.724H42.0154C40.8911 43.724 37.7699 43.67 36.866 43.4316C36.5632 43.3331 36.241 43.3102 35.9273 43.3651C35.6137 43.42 35.3183 43.5509 35.0671 43.7465C34.7963 43.9931 34.5983 44.3092 34.4944 44.6604C34.3906 45.0116 34.3849 45.3845 34.4779 45.7388C34.5049 45.8782 34.5634 46.13 34.6308 46.4673C35.0806 48.6395 35.5843 50.8836 35.98 52.4082C37.617 54.3735 39.3395 56.2669 40.0591 56.5547C41.6916 57.2068 45.2219 57.2158 46.868 56.5547C47.6865 56.2264 49.7957 53.8249 51.6126 51.6077C51.9364 50.1551 52.3412 48.2887 52.7279 46.4673ZM49.6203 53.69C49.2695 54.4365 47.6415 55.8127 44.7632 56.3389L44.5024 56.3838L44.336 50.4699C44.3168 50.3044 44.2375 50.1517 44.1132 50.0409C43.9888 49.9301 43.828 49.8688 43.6614 49.8688C43.4948 49.8688 43.334 49.9301 43.2096 50.0409C43.0852 50.1517 43.0059 50.3044 42.9868 50.4699L42.8204 56.3838L42.5596 56.3389C39.6813 55.8127 38.0623 54.4365 37.7025 53.69C37.3427 52.9434 36.3038 47.884 35.9485 46.2335L35.7911 45.4959C35.7479 45.3522 35.7413 45.2 35.7719 45.0531C35.8026 44.9062 35.8695 44.7693 35.9665 44.6549C36.0404 44.5928 36.1356 44.5621 36.2319 44.5695C36.3174 44.5701 36.4023 44.5838 36.4837 44.6099C37.707 44.9337 41.3903 44.9517 41.9794 44.9517L43.5984 45.1226C43.6493 45.1271 43.7005 45.1271 43.7513 45.1226L45.3704 44.9517C45.9595 44.9517 49.6428 44.9517 50.866 44.6099C51.2168 44.5155 51.3158 44.6099 51.3832 44.6549C51.4803 44.7693 51.5472 44.9062 51.5778 45.0531C51.6085 45.2 51.6019 45.3522 51.5586 45.4959L51.4192 46.2335C51.0459 47.9064 49.9666 52.9884 49.6203 53.69Z" fill="#303030"/>
</svg>
