<svg width="162" height="192" viewBox="0 0 162 192" fill="none" xmlns="http://www.w3.org/2000/svg">
<path d="M62.1327 105.061C50.9226 97.7594 44.8666 87.7765 44.1732 74.6888C44.1241 73.7439 43.8848 73.4616 42.946 73.3266C37.4238 72.3817 33.6626 68.6021 33.1656 63.6075C32.6379 58.3246 35.3622 53.9682 40.7985 51.9495C42.265 51.3973 41.6023 50.8573 41.2832 50.1701C39.4425 46.2371 37.0863 42.5556 36.2457 38.1869C34.2455 27.756 39.6266 17.1104 49.4193 13.0301C52.4885 11.7064 55.3754 9.99491 58.0095 7.93735C64.636 2.79569 72.7848 0.00460337 81.1721 0.00375563C84.3902 -0.0457775 87.5972 0.394914 90.6826 1.31068C97.7927 3.41097 104.579 6.48118 110.851 10.4346C122.675 18.0921 127.05 33.266 121.638 46.4764C121.024 47.9612 119.84 49.4461 119.895 50.8941C119.957 52.6306 122.313 52.287 123.521 53.1582C127.203 55.7782 129.13 60.0672 128.185 64.5647C127.185 69.3138 124.166 72.2099 119.466 73.1917C118.061 73.4862 117.625 73.8052 117.49 75.3944C116.576 88.1569 110.55 97.9312 99.8066 104.926C100.261 105.938 101.255 106.442 102.052 107.117C107.151 111.412 112.305 115.608 117.361 119.934C118.632 121.02 120.148 121.78 121.779 122.149C128.449 123.769 135.118 125.42 141.763 127.162C153.802 130.322 161.613 140.385 161.674 152.847C161.729 164.02 161.674 175.193 161.674 186.373C161.674 189.772 160.398 191.018 156.925 191.018C106.182 191.018 55.4385 191.018 4.69542 191.018C1.25324 191.018 0.0138025 189.79 0.00766673 186.311C-0.00460489 175.114 -0.00460489 163.94 0.0260741 152.785C0.0812964 140.465 7.89218 130.334 19.7711 127.199C26.5634 125.407 33.3926 123.769 40.2156 122.106C41.6263 121.784 42.9379 121.125 44.0382 120.186C49.9838 115.142 55.9846 110.184 62.1327 105.061ZM69.827 135.421C64.4152 139.023 59.3532 142.41 54.2727 145.772C51.2048 147.821 49.088 147.14 47.6706 143.643C45.9158 139.348 44.1609 135.053 42.4797 130.678C42.0809 129.647 41.6391 129.205 40.4795 129.506C33.8282 131.224 27.1157 132.721 20.5197 134.617C16.7553 135.761 13.4534 138.075 11.0933 141.223C8.73328 144.37 7.43787 148.189 7.39518 152.123C7.30314 162.075 7.39518 172.027 7.33996 181.973C7.33996 183.201 7.53017 183.704 8.92299 183.685C15.1938 183.606 21.4769 183.593 27.7477 183.685C29.2939 183.685 29.4595 183.127 29.435 181.845C29.3552 178.163 29.435 174.482 29.435 170.8C29.435 165.106 29.435 165.149 35.1597 165.223C36.436 165.223 36.8409 165.536 36.8225 166.855C36.7427 171.905 36.8225 176.96 36.7612 182.01C36.7612 183.311 37.1109 183.655 38.4055 183.655C66.7243 183.618 95.0431 183.618 123.362 183.655C124.663 183.655 125.031 183.299 125 182.004C124.914 178.255 124.97 174.506 124.97 170.751C124.97 165.082 124.97 165.137 130.737 165.229C132.081 165.229 132.363 165.664 132.351 166.916C132.283 171.825 132.382 176.733 132.29 181.611C132.259 183.115 132.504 183.716 134.216 183.685C140.352 183.569 146.488 183.599 152.581 183.685C153.912 183.685 154.421 183.483 154.421 181.973C154.342 172.101 154.421 162.228 154.36 152.356C154.356 148.304 153.024 144.366 150.568 141.143C148.113 137.92 144.668 135.592 140.763 134.513C134.37 132.727 127.878 131.249 121.472 129.549C120.061 129.175 119.595 129.745 119.153 130.899C117.594 134.961 115.962 138.992 114.355 143.036C112.63 147.331 110.722 147.944 106.869 145.379L91.9221 135.409V137.98C91.9221 146.778 91.9221 155.573 91.9221 164.364C91.9221 167.646 90.6213 168.929 87.3263 168.941C83.1172 168.941 78.908 168.941 74.6988 168.941C71.0971 168.941 69.8822 167.714 69.8822 164.13C69.8209 154.724 69.827 145.312 69.827 135.421ZM110.244 64.3438C110.176 63.1176 110.176 61.8886 110.244 60.6623C110.906 54.8333 109.495 49.5565 106.482 44.5559C105.458 42.8501 105.028 42.3286 103.151 43.7214C90.2654 53.281 73.8582 53.87 60.8871 45.4701C59.3839 44.5006 57.8683 42.2549 56.4203 42.844C55.1318 43.3716 54.5366 45.8137 53.8187 47.4888C52.9351 49.5565 51.3644 51.3236 51.4073 53.8086C51.4932 60.4599 51.4073 67.1111 51.4503 73.7684C51.5853 88.7398 62.9549 101.054 78.0919 102.699C92.2963 104.239 105.936 94.44 109.385 80.3153C110.698 75.0324 110.023 69.6758 110.244 64.3438ZM65.7528 11.5759C66.0535 12.3674 66.6793 12.2938 67.1579 12.4779C70.958 13.92 74.3548 16.2561 77.0611 19.2886C80.6383 23.3321 80.6076 23.2462 76.2328 26.3264C74.6927 27.4063 73.9257 27.5535 72.7354 25.768C71.3304 23.5592 69.4044 21.7292 67.1267 20.4389C64.8489 19.1487 62.2891 18.4376 59.6723 18.3682C53.1376 18.0553 48.1001 20.8225 44.9463 26.6332C41.5287 32.9285 43.1056 38.8005 46.9098 44.7645C48.4989 41.6045 49.9777 38.69 51.4319 35.7939C53.021 32.6769 55.1133 32.1615 57.9051 34.1802C60.1324 35.8001 62.28 37.5365 64.5748 39.0459C71.5573 43.6293 79.1473 44.9976 87.3509 43.2612C93.4867 41.9665 98.2787 38.3526 103.101 34.6711C106.709 31.9345 108.544 32.407 110.593 36.5118L114.447 44.2429C119.355 33.2844 115.091 20.6937 104.801 15.3433C100.607 13.1438 96.2956 11.1774 91.8852 9.4529C82.8963 5.95549 74.1528 6.82677 65.7528 11.5575V11.5759ZM91.7993 108.552C84.6437 110.718 77.0071 110.718 69.8516 108.552C69.8516 111.105 69.8516 113.393 69.8516 115.682C69.9129 120.462 73.0483 124.15 77.5581 124.782C85.0254 125.831 89.8972 123.64 91.4312 118.548C91.6199 118.047 91.7397 117.522 91.7871 116.989C91.8239 114.24 91.7993 111.504 91.7993 108.534V108.552ZM67.7163 127.978C63.9489 124.297 62.3352 119.891 62.4211 114.394C57.7886 118.259 53.5303 121.812 49.2598 125.358C49.0071 125.532 48.8285 125.794 48.7593 126.092C48.69 126.391 48.735 126.705 48.8855 126.972C50.1863 130.15 51.4666 133.339 52.7265 136.538C53.0149 137.262 53.3831 137.556 54.0887 137.084L67.7163 127.978ZM94.0634 127.978C98.6101 131.016 103.059 133.967 107.482 136.949C108.55 137.673 108.777 136.949 109.072 136.176C110.207 133.341 111.268 130.476 112.514 127.69C113.091 126.395 112.839 125.653 111.771 124.794C108.262 121.971 104.838 119.038 101.341 116.204C100.727 115.719 100.334 114.823 99.2482 115.013C99.4445 120.014 97.6774 124.266 94.0634 127.966V127.978ZM77.2084 139.458V141.52C77.2084 147.042 77.2084 146.993 82.8533 146.92C84.1173 146.92 84.5775 146.619 84.5223 145.287C84.418 142.772 84.5223 140.25 84.5223 137.734C84.5223 132.052 84.5223 132.083 78.7607 132.212C77.6011 132.212 77.1409 132.482 77.2084 133.721C77.3066 135.605 77.2084 137.538 77.2084 139.446V139.458ZM84.4548 157.989C84.4548 154.307 84.4548 154.307 80.7733 154.307C77.2268 154.307 77.2268 154.307 77.2268 157.866C77.2268 161.547 77.2268 161.547 80.9083 161.547C84.4548 161.541 84.4548 161.541 84.4548 157.976V157.989ZM44.0321 58.8584C41.6821 59.2143 40.5163 60.331 40.4488 62.2577C40.3813 64.1843 41.5962 65.5219 44.0321 65.9391V58.8584ZM117.594 58.6743C117.594 60.8587 117.649 62.8467 117.594 64.8102C117.545 66.1846 118.116 66.16 119.091 65.6876C119.773 65.415 120.35 64.9315 120.737 64.3078C121.125 63.6841 121.303 62.9528 121.245 62.2208C121.104 60.2267 119.901 59.1039 117.594 58.6743Z" fill="#020202"/>
<path d="M69.8276 135.421C69.8276 145.312 69.8276 154.724 69.8276 164.143C69.8276 167.738 71.0547 168.947 74.6442 168.953C78.8533 168.953 83.0625 168.953 87.2717 168.953C90.5666 168.953 91.8612 167.659 91.8674 164.376C91.8674 155.577 91.8674 146.783 91.8674 137.992V135.421L106.814 145.392C110.667 147.957 112.576 147.361 114.3 143.048C115.907 139.004 117.54 134.973 119.098 130.911C119.54 129.758 120.006 129.187 121.417 129.561C127.835 131.261 134.303 132.74 140.708 134.525C144.614 135.604 148.058 137.933 150.514 141.155C152.969 144.378 154.301 148.317 154.305 152.368C154.385 162.241 154.305 172.113 154.367 181.986C154.367 183.495 153.876 183.71 152.526 183.698C146.39 183.63 140.254 183.599 134.161 183.698C132.45 183.728 132.204 183.127 132.235 181.624C132.327 176.715 132.235 171.806 132.296 166.928C132.296 165.701 132.026 165.259 130.683 165.241C124.915 165.161 124.915 165.106 124.915 170.763C124.915 174.518 124.86 178.267 124.946 182.016C124.946 183.311 124.608 183.667 123.307 183.667C94.9844 183.63 66.6656 183.63 38.3509 183.667C37.0562 183.667 36.6881 183.323 36.7065 182.022C36.7801 176.973 36.7065 171.917 36.7678 166.867C36.7678 165.548 36.3813 165.247 35.105 165.235C29.3803 165.161 29.3803 165.118 29.3803 170.812C29.3803 174.494 29.3312 178.175 29.3803 181.857C29.3803 183.145 29.2392 183.728 27.693 183.698C21.4222 183.599 15.1391 183.612 8.86833 183.698C7.4755 183.698 7.27916 183.201 7.28529 181.986C7.32824 172.04 7.24848 162.087 7.34051 152.135C7.38321 148.201 8.67861 144.383 11.0387 141.235C13.3987 138.087 16.7006 135.773 20.465 134.63C27.061 132.734 33.7736 131.236 40.4248 129.518C41.5844 129.218 42.0262 129.66 42.4251 130.69C44.1063 135.035 45.8611 139.342 47.616 143.655C49.0333 147.153 51.1195 147.834 54.2181 145.784C59.3537 142.41 64.4219 139.023 69.8276 135.421Z" fill="#90C63E"/>
<path d="M110.242 64.3437C110.021 69.6757 110.696 75.0323 109.401 80.3275C105.953 94.4398 92.3128 104.257 78.1085 102.711C62.9714 101.066 51.6018 88.7519 51.4668 73.7806C51.4054 67.1232 51.5097 60.472 51.4238 53.8208C51.4238 51.3665 52.9516 49.5687 53.8352 47.5009C54.5531 45.8258 55.1483 43.3838 56.4368 42.8561C57.8848 42.2425 59.4004 44.5128 60.9036 45.4822C73.8747 53.8821 90.2696 53.2931 103.167 43.7335C105.045 42.3407 105.474 42.8622 106.499 44.568C109.512 49.5687 110.923 54.8455 110.26 60.6745C110.186 61.8963 110.18 63.1212 110.242 64.3437Z" fill="white"/>
<path d="M65.7515 11.5577C74.1514 6.82699 82.895 5.95571 91.9023 9.45312C96.3126 11.1776 100.624 13.1441 104.818 15.3435C115.108 20.6939 119.366 33.2846 114.464 44.2431L110.61 36.512C108.561 32.4256 106.726 31.9531 103.119 34.6713C98.2958 38.3221 93.5038 41.9483 87.368 43.2614C79.1644 44.9978 71.5744 43.6296 64.5919 39.0461C62.2971 37.5367 60.1495 35.8003 57.9222 34.1804C55.1366 32.1617 53.0136 32.6771 51.449 35.7941C49.9641 38.6902 48.516 41.6047 46.9269 44.7954C43.1411 38.8314 41.5458 32.9594 44.9634 26.6641C48.0988 20.8719 53.1363 18.0739 59.6893 18.3991C62.3008 18.4688 64.8554 19.1776 67.1296 20.4633C69.4037 21.749 71.328 23.5726 72.7341 25.7744C73.9244 27.5722 74.6914 27.4126 76.2315 26.3327C80.6063 23.2648 80.637 23.3384 77.0598 19.295C74.3562 16.2535 70.9592 13.9089 67.1566 12.4597C66.678 12.2756 66.0522 12.3492 65.7515 11.5577Z" fill="#272727"/>
<path d="M91.8007 108.534C91.8007 111.503 91.8007 114.24 91.8007 116.977C91.7533 117.51 91.6336 118.034 91.4449 118.535C89.9109 123.628 85.0391 125.818 77.5718 124.769C73.062 124.155 69.9266 120.474 69.8652 115.67C69.8652 113.381 69.8652 111.092 69.8652 108.54C77.0176 110.701 84.6496 110.699 91.8007 108.534Z" fill="white"/>
<path d="M67.7153 127.96L54.0877 137.066C53.3821 137.538 53.0139 137.244 52.7255 136.52C51.4697 133.325 50.1894 130.136 48.8845 126.954C48.7341 126.687 48.689 126.373 48.7583 126.074C48.8276 125.776 49.0061 125.514 49.2588 125.34C53.5539 121.794 57.7876 118.241 62.4201 114.375C62.3342 119.873 63.9479 124.26 67.7153 127.96Z" fill="white"/>
<path d="M94.0625 127.966C97.6765 124.285 99.4436 119.989 99.2534 114.983C100.339 114.792 100.751 115.688 101.346 116.173C104.837 119.026 108.261 121.959 111.777 124.763C112.844 125.622 113.096 126.365 112.519 127.659C111.292 130.445 110.212 133.31 109.077 136.145C108.782 136.887 108.555 137.642 107.488 136.918C103.076 133.955 98.6091 131.003 94.0625 127.966Z" fill="white"/>
<path d="M77.2076 139.446C77.2076 137.538 77.2812 135.623 77.2076 133.721C77.1401 132.494 77.6003 132.236 78.76 132.212C84.5215 132.071 84.5215 132.04 84.5215 137.734C84.5215 140.25 84.4479 142.771 84.5215 145.287C84.5767 146.619 84.1165 146.901 82.8525 146.919C77.2076 146.993 77.2076 147.03 77.2076 141.52V139.446Z" fill="white"/>
<path d="M84.4523 157.976C84.4523 161.541 84.4523 161.541 80.912 161.541C77.2305 161.541 77.2305 161.541 77.2305 157.86C77.2305 154.301 77.2305 154.301 80.777 154.301C84.4523 154.319 84.4523 154.319 84.4523 157.976Z" fill="white"/>
<path d="M44.0302 58.8589V65.9273C41.5759 65.5224 40.3487 64.2523 40.4469 62.2459C40.545 60.2394 41.6802 59.2148 44.0302 58.8589Z" fill="white"/>
<path d="M117.594 58.6743C119.901 59.1038 121.103 60.2267 121.226 62.2392C121.284 62.9712 121.106 63.7025 120.718 64.3262C120.331 64.9499 119.754 65.4334 119.072 65.706C118.097 66.1784 117.526 66.203 117.575 64.8285C117.649 62.8467 117.594 60.8587 117.594 58.6743Z" fill="white"/>
</svg>
