<svg width="30" height="30" viewBox="0 0 30 30" fill="none" xmlns="http://www.w3.org/2000/svg">
<path d="M3 11.5V19L22.5 19.5L23.5 18.5L24 17.5L21 14.5L19.5 13.5L19 15.5L17.5 17L16 18L14 17.5L12 16L10.5 13L9 9H7.5L4.5 8L3 9.5V11.5Z" fill="#90C63E"/>
<path d="M27.3343 18.8863H24.0514C24.1365 18.7486 24.2094 18.6009 24.2661 18.4429C24.5995 17.515 24.3236 16.5099 23.5629 15.8823L19.6663 12.6674C19.217 10.6147 17.3856 9.07297 15.2 9.07297C13.0992 9.07297 11.3258 10.4976 10.7923 12.4312L9.81211 9.00008C11.2131 8.21773 12.1632 6.72072 12.1632 5.00533C12.1632 2.48398 10.1119 0.432617 7.59047 0.432617C5.069 0.432617 3.0177 2.48381 3.0177 5.00521C3.0177 5.97629 3.32291 6.87699 3.84111 7.61826C2.91193 8.50098 2.38559 9.71404 2.38559 11.0111V18.9011C1.04689 19.0415 0 20.1768 0 21.552C0 23.0178 1.18922 24.2107 2.65354 24.2174V25.7933C2.65354 26.0927 2.89629 26.3354 3.1957 26.3354C3.49512 26.3354 3.73787 26.0927 3.73787 25.7933V24.2176H5.1024V28.4831H3.73787V28.3735C3.73787 28.074 3.49512 27.8313 3.1957 27.8313C2.89629 27.8313 2.65354 28.074 2.65354 28.3735V29.0254C2.65354 29.3248 2.89629 29.5675 3.1957 29.5675H5.64457C5.94398 29.5675 6.18674 29.3248 6.18674 29.0254V28.5163L14.9044 24.2783L23.7633 28.585C23.7798 28.5931 23.7965 28.5997 23.8133 28.606V29.0254C23.8133 29.3248 24.056 29.5675 24.3554 29.5675H26.8043C27.1037 29.5675 27.3465 29.3248 27.3465 29.0254V24.2173C28.8108 24.2107 30 23.0177 30 21.5519C30 20.0821 28.8042 18.8863 27.3343 18.8863ZM19.7458 14.1388L22.8728 16.7188C23.3623 17.1226 23.3863 17.6847 23.2457 18.0763C23.105 18.4678 22.7286 18.8863 22.0938 18.8863H15.7422V18.1851C16.593 18.084 17.3725 17.7488 18.015 17.2453C18.0602 17.2575 18.1076 17.2647 18.1567 17.2647H20.1326C20.432 17.2647 20.6747 17.0219 20.6747 16.7225C20.6747 16.4231 20.432 16.1803 20.1326 16.1803H19.0037C19.4028 15.5834 19.6651 14.8879 19.7458 14.1388ZM15.2 10.1573C17.1235 10.1573 18.6884 11.7222 18.6884 13.6457C18.6884 15.5692 17.1236 17.1341 15.2 17.1341C13.2765 17.1341 11.7117 15.5692 11.7117 13.6457C11.7117 11.7222 13.2766 10.1573 15.2 10.1573ZM11.3963 16.1803H10.2675C9.96809 16.1803 9.72533 16.4231 9.72533 16.7225C9.72533 17.0219 9.96809 17.2647 10.2675 17.2647H12.1397C12.2158 17.2647 12.2881 17.2489 12.3537 17.2207C13.002 17.7379 13.7931 18.0825 14.6579 18.1852V18.8864H8.30602C7.67133 18.8863 7.2948 18.4679 7.15406 18.0763C7.01338 17.6848 7.03746 17.1226 7.52695 16.7188L10.6543 14.1386C10.735 14.8878 10.9972 15.5834 11.3963 16.1803ZM7.59035 1.51678C9.51381 1.51678 11.0787 3.08164 11.0787 5.00516C11.0787 6.92867 9.51381 8.49354 7.59035 8.49354C5.66689 8.49354 4.10197 6.92873 4.10197 5.00516C4.10197 3.08164 5.66689 1.51678 7.59035 1.51678ZM3.46986 11.0111C3.46986 10.0263 3.86432 9.10414 4.56252 8.42768C5.36971 9.14264 6.4299 9.57787 7.59035 9.57787C8.01 9.57787 8.41611 9.51992 8.80242 9.41357L9.92314 13.336L8.27467 14.696L7.44229 12.1901C7.34789 11.9059 7.04092 11.7521 6.75686 11.8465C6.47268 11.9409 6.31887 12.2478 6.41326 12.5319L7.37795 15.436L6.83695 15.8823C6.07641 16.5099 5.80031 17.515 6.13371 18.4429C6.19043 18.601 6.26338 18.7486 6.3484 18.8863H3.46986V11.0111ZM6.18674 27.3106V24.2176H12.5491L6.18674 27.3106ZM26.2621 28.4831H24.8976V24.2176H26.2621V28.4831ZM27.3343 23.1332H22.6988C22.3994 23.1332 22.1566 23.376 22.1566 23.6754C22.1566 23.9748 22.3994 24.2176 22.6988 24.2176H23.8134V27.4037L17.2597 24.2176H19.7732C20.0726 24.2176 20.3153 23.9748 20.3153 23.6754C20.3153 23.376 20.0726 23.1332 19.7732 23.1332H2.66566C1.79373 23.1332 1.08434 22.4238 1.08434 21.5519C1.08434 20.68 1.79373 19.9706 2.66566 19.9706H8.30602H22.0937H27.3343C28.2063 19.9706 28.9157 20.68 28.9157 21.5519C28.9157 22.4238 28.2063 23.1332 27.3343 23.1332Z" fill="black"/>
</svg>
