<svg width="16" height="18" viewBox="0 0 16 18" fill="none" xmlns="http://www.w3.org/2000/svg">
<rect x="4" y="5" width="6" height="8" fill="#6FB5E3"/>
<path d="M8.07682 0.0142867C8.5928 0.0142867 9.11064 -0.0322598 9.62428 0.0426801C9.83343 0.0706251 10.0261 0.17112 10.1687 0.326614C10.1556 1.97529 10.1524 3.62397 10.1687 5.27265H9.74955V3.53227C9.74955 3.43359 9.75374 3.33492 9.75188 3.23624C9.74722 3.02492 9.66433 2.92438 9.46036 2.85921C9.37593 2.83818 9.2887 2.83064 9.20191 2.83687C6.64066 2.83687 4.07941 2.84292 1.51536 2.83128C0.930467 2.83128 0.760958 2.96394 0.819634 3.56625C0.819634 3.63049 0.815909 3.69425 0.815909 3.75802C0.815909 7.4864 0.815909 11.2145 0.815909 14.9422C0.815909 15.3034 0.946766 15.4347 1.31046 15.4351H9.23497C9.61404 15.4351 9.75141 15.2983 9.75235 14.9231C9.75421 14.0099 9.75576 13.0968 9.757 12.1839C9.84455 12.1839 9.9321 12.1909 10.0187 12.1839C10.1286 12.176 10.1724 12.2109 10.1719 12.3296C10.1687 13.7413 10.1761 15.1535 10.1668 16.5653C10.1631 17.1429 9.80683 17.4618 9.24662 17.4585C7.2698 17.4474 5.29297 17.4711 3.31662 17.4474C2.28141 17.4348 1.23968 17.5698 0.210988 17.3477C-0.0358234 16.9963 0.00189691 16.5956 0.0121419 16.199C0.13391 16.1008 0.231438 15.9759 0.297171 15.834C0.362905 15.6921 0.39508 15.537 0.391207 15.3807C0.398658 13.3792 0.391207 11.3814 0.398192 9.38177C0.400902 9.11421 0.331923 8.8508 0.198415 8.61888C0.155106 8.543 0.112729 8.46527 0.0121419 8.45131C0.0105896 7.39315 0.00872691 6.33515 0.00655373 5.2773C0.00655373 3.95786 0.00655373 2.63811 0.00655373 1.31805C0.00795078 0.492319 0.493191 0.00777022 1.31931 0.00777022C1.44132 0.00777022 1.56333 0.0119594 1.68534 0.0142867C1.69186 0.0799173 1.73982 0.112034 1.78825 0.145548C2.05095 0.32983 2.36469 0.427471 2.68562 0.424827C4.09058 0.42762 5.49555 0.424827 6.90051 0.427154C7.07467 0.427154 7.25024 0.429947 7.41788 0.387124C7.66888 0.32289 7.91849 0.244227 8.07682 0.0142867ZM5.27807 1.22822C4.9521 1.22822 4.62612 1.22822 4.30014 1.22822C4.21166 1.22822 4.14181 1.24684 4.09524 1.32923C4.0021 1.4954 4.10781 1.64341 4.33972 1.64528C4.97911 1.64993 5.61849 1.64528 6.25787 1.64528C6.40037 1.64528 6.49863 1.57639 6.49909 1.4293C6.49909 1.27523 6.39571 1.22589 6.25321 1.22729C5.9291 1.23055 5.60359 1.22822 5.27807 1.22822ZM5.28692 16.2669C5.02521 16.2669 4.89854 16.388 4.89668 16.6421C4.89482 16.8962 5.05548 17.0671 5.29484 17.0694C5.48577 17.0717 5.70324 16.8525 5.69952 16.6626C5.69486 16.4289 5.52675 16.2674 5.28692 16.2669ZM3.64353 1.41394C3.64912 1.2743 3.56064 1.22775 3.44515 1.23194C3.41868 1.23055 3.39224 1.23506 3.36773 1.24513C3.34322 1.25521 3.32126 1.2706 3.30343 1.2902C3.28561 1.3098 3.27236 1.33312 3.26465 1.35846C3.25695 1.38381 3.25498 1.41055 3.25888 1.43675C3.26633 1.55917 3.33152 1.62293 3.46378 1.61549C3.59603 1.60804 3.64912 1.53962 3.64353 1.41394Z" fill="#585965"/>
<path d="M9.75165 11.7797C10.0269 11.7649 10.3029 11.768 10.5778 11.789C10.5778 13.3824 10.5768 14.9754 10.575 16.5679C10.575 17.1949 10.2681 17.6464 9.73675 17.8172C9.62105 17.8554 9.50002 17.8751 9.37817 17.8754C6.65021 17.8754 3.92224 17.8745 1.19428 17.8726C0.777957 17.8726 0.449186 17.6916 0.207031 17.349C1.23572 17.571 2.27745 17.436 3.31266 17.4486C5.28902 17.4723 7.26584 17.4486 9.24266 17.4598C9.80148 17.463 10.1591 17.1442 10.1628 16.5665C10.1722 15.1543 10.1628 13.7421 10.168 12.3308C10.168 12.2121 10.1247 12.1772 10.0148 12.1851C9.92814 12.1916 9.84059 12.1851 9.75305 12.1851L9.7442 12.1888C9.74792 12.052 9.74979 11.917 9.75165 11.7797Z" fill="#4B4C54"/>
<path d="M0.0111764 8.45215C0.110832 8.46611 0.153209 8.54524 0.197449 8.61972C0.330958 8.85164 0.399937 9.11505 0.397227 9.38261C0.391638 11.3841 0.397227 13.3819 0.390241 15.3815C0.394004 15.5379 0.361684 15.6931 0.295786 15.835C0.229889 15.9769 0.132184 16.1017 0.010245 16.1998C0.00698523 15.6082 0 15.0166 0 14.4245C0 12.4975 0 10.5703 0 8.64299C0 8.57922 0.00745091 8.51592 0.0111764 8.45215Z" fill="#6E6F7D"/>
<path d="M8.07508 0.0147945C7.91535 0.244734 7.66714 0.323398 7.41614 0.387167C7.24849 0.429989 7.07293 0.427662 6.89877 0.427197C5.4952 0.424869 4.08884 0.427662 2.68388 0.424869C2.36295 0.427514 2.04921 0.329872 1.78651 0.14559C1.73994 0.112077 1.69011 0.0799596 1.68359 0.014329C1.86987 0.014329 2.05614 0.0078125 2.24241 0.0078125H7.90138C7.95912 0.0078125 8.01687 0.0124672 8.07508 0.0147945Z" fill="#6E6F7D"/>
<path d="M10.1687 5.27271C10.1524 3.62404 10.1524 1.97536 10.1673 0.327148C10.4769 0.57943 10.5743 0.923409 10.5752 1.30137C10.578 2.6267 10.578 3.95172 10.5752 5.27644C10.5721 5.27601 10.569 5.27633 10.5661 5.27739C10.5631 5.27844 10.5605 5.28019 10.5584 5.28249L10.1687 5.27271Z" fill="#4E4F57"/>
<path d="M12.9629 6.50861C12.9727 6.50293 12.9842 6.50079 12.9955 6.50255C12.9988 6.50709 13.0006 6.51255 13.0006 6.51815C13.0006 6.52375 12.9988 6.52921 12.9955 6.53374L12.9629 6.50861Z" fill="#104F65"/>
<path d="M9.75601 12.1842C9.75601 13.0974 9.75446 14.0105 9.75136 14.9234C9.75136 15.2958 9.61165 15.4355 9.23398 15.4355H1.30901C0.94531 15.4355 0.814453 15.3037 0.814453 14.9425C0.814453 11.2145 0.814453 7.4864 0.814453 3.75834C0.814453 3.69457 0.816782 3.6308 0.818179 3.56656C0.916903 3.35012 1.07617 3.25051 1.32344 3.25098C3.97442 3.25563 6.62539 3.25563 9.27636 3.25098C9.49709 3.25098 9.65589 3.32918 9.7481 3.53026V5.27063C9.68476 5.27063 9.6219 5.27529 9.55856 5.27575L8.10703 5.28599C7.03271 5.28599 5.95884 5.27668 4.88451 5.28599C4.40579 5.28972 4.07004 5.6458 4.06212 6.12383C4.06212 6.25137 4.06491 6.3789 4.06631 6.50644V8.13231C4.06631 9.05114 4.06491 9.96981 4.06212 10.8883C4.06212 11.4404 4.37785 11.7643 4.93015 11.7816C5.13226 12.0785 5.44659 12.1786 5.77071 12.1823C7.09557 12.1977 8.42044 12.1898 9.74577 12.1902L9.75601 12.1842ZM1.23124 11.411C1.23124 11.661 1.2345 11.87 1.23124 12.0781C1.22927 12.1183 1.23632 12.1584 1.25187 12.1955C1.26742 12.2326 1.29108 12.2658 1.32112 12.2926C2.20156 13.1711 3.08093 14.0504 3.9592 14.9304C3.97679 14.9534 3.99878 14.9726 4.02388 14.987C4.04899 15.0014 4.07671 15.0107 4.10543 15.0142C4.27866 15.024 4.45003 15.0608 4.62466 15.0468C4.68567 15.0412 4.77089 15.0752 4.79836 15.0058C4.82165 14.9472 4.74295 14.9127 4.70523 14.8732C3.59566 13.7626 2.48548 12.6531 1.37467 11.5446C1.33835 11.5079 1.29969 11.4744 1.23124 11.411ZM1.23124 13.0518C1.23124 13.6821 1.23124 14.3034 1.23124 14.9244C1.23124 14.9961 1.23543 15.0231 1.33509 15.0259C1.59447 15.0328 1.85758 15.0091 2.10951 15.0305C2.42758 15.057 2.74284 14.9863 3.05718 15.0445C3.10375 15.0528 3.17453 15.0743 3.19968 15.0179C3.22482 14.9616 3.1559 14.9309 3.12191 14.8969C2.53142 14.3045 1.9397 13.7131 1.34673 13.1226C1.33396 13.1029 1.31697 13.0864 1.29699 13.0741C1.27701 13.0619 1.25454 13.0543 1.23124 13.0518Z" fill="#6FB5E3"/>
<path d="M9.74751 3.5317C9.65437 3.32922 9.4965 3.25242 9.27577 3.25242C6.62449 3.25521 3.97351 3.25521 1.32285 3.25242C1.07558 3.25242 0.916312 3.35156 0.817587 3.56801C0.758911 2.96569 0.92842 2.83071 1.51332 2.83304C4.07457 2.84467 6.63582 2.83816 9.19986 2.83862C9.28665 2.8324 9.37389 2.83994 9.45832 2.86096C9.66229 2.92613 9.74518 3.02667 9.74983 3.23799C9.7517 3.33434 9.74844 3.43302 9.74751 3.5317Z" fill="#4C9AD2"/>
<path d="M5.27482 1.22852C5.6008 1.22852 5.92677 1.23084 6.25275 1.22852C6.39525 1.22852 6.49956 1.27506 6.49863 1.43053C6.4977 1.58599 6.39991 1.6465 6.25741 1.6465C5.61803 1.6465 4.97865 1.65023 4.33926 1.6465C4.10642 1.6465 4.00071 1.49662 4.09478 1.33045C4.14135 1.24807 4.2112 1.22852 4.29968 1.22945C4.6238 1.23038 4.94931 1.22852 5.27482 1.22852Z" fill="#36373F"/>
<path d="M5.28479 16.2666C5.52461 16.2666 5.69273 16.4286 5.69738 16.6622C5.70111 16.8522 5.48364 17.0714 5.29271 17.0691C5.05334 17.0667 4.89268 16.8941 4.89455 16.6418C4.89641 16.3895 5.02308 16.2661 5.28479 16.2666Z" fill="#36373F"/>
<path d="M3.64106 1.41427C3.64712 1.53948 3.59776 1.60884 3.46271 1.61535C3.32766 1.62187 3.26526 1.55903 3.25781 1.43661C3.25391 1.41041 3.25588 1.38367 3.26359 1.35833C3.27129 1.33298 3.28454 1.30967 3.30236 1.29007C3.32019 1.27047 3.34215 1.25507 3.36666 1.245C3.39117 1.23492 3.41762 1.23042 3.44408 1.23181C3.55864 1.22669 3.64712 1.2751 3.64106 1.41427Z" fill="#36373F"/>
<path d="M1.22866 11.4111C1.29711 11.4744 1.33576 11.5079 1.37209 11.5438C2.48227 12.6531 3.59215 13.763 4.70171 14.8733C4.74083 14.9124 4.81953 14.9473 4.79485 15.0059C4.76737 15.0753 4.68215 15.0413 4.62115 15.0469C4.44652 15.0632 4.27515 15.0241 4.10191 15.0143C4.0732 15.0107 4.04548 15.0015 4.02037 14.9871C3.99527 14.9727 3.97328 14.9535 3.95569 14.9305C3.07555 14.0514 2.19526 13.1721 1.31481 12.2927C1.28477 12.2659 1.26111 12.2327 1.24556 12.1956C1.23001 12.1585 1.22296 12.1183 1.22493 12.0781C1.23192 11.8705 1.22866 11.6611 1.22866 11.4111Z" fill="#8FCCEF"/>
<path d="M1.22945 13.0518C1.25275 13.0542 1.27521 13.0618 1.2952 13.0741C1.31518 13.0863 1.33217 13.1029 1.34494 13.1225C1.9379 13.713 2.52932 14.3042 3.11918 14.8959C3.15318 14.9299 3.2221 14.9592 3.19695 15.017C3.17181 15.0747 3.10009 15.0519 3.05445 15.0435C2.74012 14.9853 2.42485 15.056 2.10679 15.0295C1.85486 15.0081 1.59175 15.0318 1.33236 15.0249C1.23271 15.0221 1.22852 14.9951 1.22852 14.9234C1.22945 14.3034 1.22945 13.682 1.22945 13.0518Z" fill="#8FCCEF"/>
<path d="M13.8717 5.28771C13.8717 5.45668 13.7697 5.5884 13.711 5.73549C13.6095 5.99057 13.4945 6.24052 13.385 6.4928L13.3492 6.5077L12.998 6.49466C13.0092 6.44448 13.0235 6.39504 13.0409 6.34665C13.1912 5.99134 13.3428 5.63635 13.4959 5.28166C13.4978 5.27934 13.5004 5.27756 13.5032 5.2765C13.5061 5.27544 13.5092 5.27513 13.5122 5.27561L13.8717 5.28771Z" fill="#F17221"/>
<path d="M13.4555 8.14236C13.3112 8.57617 13.0988 8.9802 12.9209 9.39912C12.5852 10.1904 12.2312 10.9756 11.8848 11.7637C11.6167 11.7779 11.3481 11.7779 11.0801 11.7637C11.3837 11.0639 11.6872 10.3645 11.9905 9.66536C12.2112 9.15645 12.4316 8.6477 12.6518 8.1391L12.6858 8.12793L13.4555 8.14236Z" fill="#F59347"/>
<path d="M11.0451 5.28684L12.4966 5.2766C12.5599 5.2766 12.6228 5.27335 12.6861 5.27148H13.1052L13.4955 5.28079C13.3437 5.63579 13.1922 5.99078 13.041 6.34578C13.0236 6.39417 13.0093 6.44361 12.9981 6.49379C12.9876 6.49829 12.9769 6.50217 12.966 6.50543C12.8966 6.50264 12.8263 6.49752 12.7583 6.49752L10.5547 6.49147C10.5836 6.33135 10.6725 6.19497 10.7302 6.04602C10.8299 5.79094 10.978 5.55588 11.0451 5.28684Z" fill="#F39348"/>
<path d="M12.2354 8.14227L12.2694 8.12598L12.6531 8.14134C12.4327 8.65025 12.2123 9.159 11.9919 9.6676C11.6889 10.3673 11.3854 11.0668 11.0815 11.7659H10.6973C10.7023 11.7261 10.7111 11.6868 10.7233 11.6486C11.1154 10.7461 11.5122 9.84494 11.9001 8.94054C12.0142 8.67523 12.159 8.42294 12.2354 8.14227Z" fill="#F17221"/>
<path d="M8.25129 11.7661L7.86803 11.7791C7.31573 11.7619 6.99953 11.4379 7 10.8859C7 9.96707 7.0014 9.0484 7.00419 8.12988L7.4396 8.13221L9.79177 8.14059C9.78534 8.18025 9.77568 8.21933 9.76289 8.25742C9.5701 8.7038 9.38103 9.15158 9.17893 9.59331C9.11792 9.72736 9.15285 9.74644 9.28091 9.74505C9.79735 9.74086 10.3138 9.74505 10.8302 9.74505C10.9727 9.74505 11.0766 9.81021 11.0738 9.95637C11.071 10.1025 10.9844 10.1668 10.8312 10.1654C10.2048 10.1602 9.57802 10.1626 8.95121 10.1621C8.98707 10.069 9.0206 9.97592 9.06018 9.88795C9.10675 9.78228 9.07927 9.74179 8.96145 9.74365C8.67087 9.74831 8.38028 9.74365 8.0897 9.74365C7.90762 9.74365 7.8345 9.81394 7.83264 9.97219C7.83264 10.15 7.95279 10.1584 8.08132 10.1612C8.36072 10.1612 8.64013 10.1612 8.91954 10.1612C8.89451 10.2442 8.86338 10.3252 8.82641 10.4037C8.75562 10.5331 8.81523 10.5475 8.92746 10.5456C9.15425 10.541 9.38103 10.5382 9.60736 10.5456C9.74706 10.5512 9.86674 10.608 9.8565 10.7733C9.84672 10.9264 9.73635 10.9646 9.59758 10.9632C9.26601 10.959 8.93491 10.9632 8.60334 10.9608C8.63641 10.8677 8.67366 10.7784 8.70067 10.6848C8.70999 10.6513 8.75702 10.5754 8.67413 10.581C8.44129 10.5973 8.20845 10.5298 7.97141 10.5768C7.84335 10.602 7.83171 10.6932 7.8345 10.7993C7.84056 10.9152 7.90529 10.9613 8.01565 10.9613C8.20193 10.9613 8.3882 10.9613 8.57075 10.9613C8.55165 11.0079 8.53116 11.0544 8.51347 11.1051C8.43244 11.3318 8.30251 11.5334 8.25129 11.7661Z" fill="#F17221"/>
<path d="M15.9297 8.13063C15.9297 9.09368 15.9381 10.0567 15.9297 11.0202C15.9269 11.4252 15.5813 11.765 15.165 11.7752C14.6952 11.7878 14.2244 11.7794 13.7545 11.7813C13.673 11.7813 13.592 11.7864 13.5114 11.7892C13.2376 11.7678 12.9628 11.7639 12.6885 11.7776L11.8848 11.7641C12.2312 10.976 12.5833 10.1917 12.9209 9.39949C13.0988 8.98057 13.3111 8.57469 13.4555 8.14273L13.4904 8.12598L15.9297 8.13063Z" fill="#F17221"/>
<path d="M15.9294 8.12969L13.4883 8.12504C13.4921 8.09117 13.4994 8.05779 13.5102 8.02543C13.6592 7.6889 13.8189 7.35656 13.9568 7.01537C14.0252 6.84687 14.1486 6.69746 14.1514 6.50336L14.1873 6.49219L15.8973 6.50662L15.9289 6.53175C15.9292 7.06456 15.9294 7.5972 15.9294 8.12969Z" fill="#014462"/>
<path d="M15.9014 6.50885L14.1914 6.49442C14.3662 6.09102 14.541 5.68855 14.7158 5.28701C14.902 5.28701 15.0883 5.26885 15.2723 5.3033C15.4544 5.33396 15.6202 5.42689 15.7414 5.5662C15.8626 5.70552 15.9317 5.88257 15.9368 6.06713C15.9414 6.21188 15.9368 6.35758 15.934 6.5028C15.9228 6.50104 15.9113 6.50317 15.9014 6.50885Z" fill="#F17221"/>
<path d="M14.7153 5.28628C14.5402 5.68968 14.3654 6.09216 14.191 6.4937L14.1551 6.50487L13.3867 6.49277C13.4957 6.24049 13.6107 5.99053 13.7127 5.73545C13.7714 5.58837 13.8752 5.45617 13.8734 5.28768C14.1537 5.27047 14.4349 5.27001 14.7153 5.28628Z" fill="#F39348"/>
<path d="M13.4556 8.14286L12.6859 8.13076C12.6836 8.07892 12.693 8.02723 12.7133 7.97949C12.8475 7.69229 12.983 7.40557 13.1087 7.11512C13.1953 6.91543 13.3062 6.72506 13.3495 6.51001L13.3853 6.49512L14.1537 6.50722C14.1509 6.70039 14.0275 6.8498 13.959 7.01923C13.8193 7.36042 13.6615 7.69276 13.5125 8.02929C13.5017 8.06165 13.4944 8.09503 13.4906 8.1289L13.4556 8.14286Z" fill="#104F65"/>
<path d="M13.3496 6.50708C13.3063 6.72399 13.1955 6.91436 13.1088 7.11219C12.9831 7.40264 12.8476 7.68936 12.7135 7.97656C12.6931 8.0243 12.6837 8.07599 12.686 8.12783L12.652 8.139L12.2683 8.12364C12.2622 8.06174 12.2967 8.01286 12.32 7.96026C12.5373 7.47463 12.7527 6.98915 12.9663 6.50382C12.9773 6.50057 12.988 6.49668 12.9985 6.49219L13.3496 6.50708Z" fill="#014462"/>
<path d="M9.79343 8.14048L7.44127 8.1321L7.00586 8.12978C7.00586 8.10883 7.00586 8.08788 7.00586 8.06647C7.05243 8.01108 7.03194 7.94452 7.0324 7.88261C7.03427 7.5059 7.03427 7.12934 7.0324 6.75293C7.0324 6.69149 7.05243 6.62493 7.00586 6.56907C7.00586 6.54719 7.00586 6.52578 7.00586 6.50391L10.5232 6.5067C10.4198 6.74502 10.3131 6.9824 10.2144 7.22258C10.0887 7.52653 9.92382 7.81373 9.8251 8.12885C9.81439 8.1321 9.80368 8.13629 9.79343 8.14048Z" fill="#014462"/>
<path d="M10.5218 6.50683L7.00455 6.50403C7.00455 6.3765 6.99849 6.24896 7.00036 6.12142C7.00827 5.64525 7.34403 5.28917 7.82275 5.28358C8.89708 5.27614 9.97094 5.28358 11.0453 5.28358C10.9782 5.55262 10.8301 5.78768 10.7309 6.04322C10.6732 6.19217 10.5842 6.32855 10.5558 6.48867L10.5218 6.50683Z" fill="#F17221"/>
<path d="M10.5223 6.50662L10.5563 6.49219L12.7594 6.49824C12.8288 6.49824 12.8991 6.50336 12.9671 6.50615C12.752 6.99179 12.5365 7.47727 12.3207 7.96259C12.2975 8.01519 12.263 8.06406 12.269 8.12597L12.2351 8.14226C12.1368 8.14226 12.0385 8.13807 11.9403 8.13761L9.82422 8.12876C9.92294 7.81364 10.0878 7.52645 10.2135 7.2225C10.3123 6.98279 10.4189 6.74494 10.5223 6.50662Z" fill="#104F65"/>
<path d="M12.2349 8.14241C12.1586 8.42168 12.0137 8.67536 11.8996 8.94068C11.5117 9.84508 11.115 10.7462 10.7229 11.6488C10.7106 11.687 10.7018 11.7262 10.6968 11.7661C9.88184 11.78 9.0669 11.78 8.25195 11.7661C8.30318 11.5333 8.43171 11.3318 8.51273 11.1107C8.53043 11.0641 8.55092 11.0148 8.57001 10.9668L8.60261 10.9645C8.93418 10.9645 9.26528 10.9645 9.59684 10.9668C9.73655 10.9668 9.84598 10.9301 9.85576 10.7769C9.86601 10.6117 9.74493 10.5549 9.60662 10.5493C9.3803 10.5405 9.15351 10.5433 8.92673 10.5493C8.8145 10.5493 8.75489 10.5368 8.82567 10.4074C8.86264 10.3289 8.89377 10.2479 8.91881 10.1649L8.95234 10.1621C9.57915 10.1621 10.206 10.1621 10.8323 10.1653C10.9855 10.1653 11.0721 10.0955 11.0749 9.95632C11.0777 9.81715 10.9739 9.745 10.8314 9.745C10.3149 9.745 9.79848 9.74221 9.28204 9.745C9.15398 9.745 9.11905 9.72731 9.18006 9.59326C9.38216 9.15153 9.57123 8.70376 9.76402 8.25738C9.77681 8.21928 9.78647 8.18021 9.79289 8.14054C9.80314 8.13635 9.81385 8.13216 9.82456 8.12891L11.9406 8.13775C12.0384 8.13822 12.1367 8.14054 12.2349 8.14241Z" fill="#F59347"/>
<path d="M8.95248 10.1608L8.91895 10.1636C8.63954 10.1636 8.36014 10.1636 8.08073 10.1636C7.9522 10.1636 7.83019 10.1524 7.83205 9.97464C7.83205 9.81638 7.90703 9.74702 8.08911 9.74609C8.37969 9.74609 8.67028 9.74889 8.96087 9.74609C9.07868 9.74609 9.10662 9.78473 9.05959 9.89039C9.02187 9.9765 8.98834 10.0691 8.95248 10.1608Z" fill="#E85433"/>
<path d="M8.60174 10.9643L8.56915 10.9666C8.38287 10.9666 8.1966 10.9643 8.01405 10.9666C7.90369 10.9666 7.83896 10.9201 7.8329 10.8047C7.82778 10.6985 7.84175 10.6073 7.96981 10.5822C8.20266 10.5356 8.43782 10.6027 8.67253 10.5864C8.75542 10.5808 8.70839 10.6566 8.69907 10.6902C8.67206 10.7819 8.63481 10.8726 8.60174 10.9643Z" fill="#E85433"/>
</svg>
