<svg width="12" height="15" viewBox="0 0 12 15" fill="none" xmlns="http://www.w3.org/2000/svg">
<path d="M6.00068 9.128C5.78861 9.128 5.61607 8.95547 5.61607 8.74339C5.61607 8.58847 5.70825 8.44934 5.85091 8.3889C6.02314 8.31598 6.22925 8.37821 6.41653 8.55965C6.56909 8.70744 6.81258 8.70359 6.96037 8.55106C7.10819 8.39849 7.10432 8.155 6.95178 8.00721C6.77814 7.83898 6.58512 7.72008 6.3853 7.65298V7.20493C6.3853 6.99252 6.21309 6.82031 6.00068 6.82031C5.78827 6.82031 5.61607 6.99252 5.61607 7.20493V7.65547C5.59425 7.66324 5.5725 7.67144 5.55094 7.68057C5.12322 7.86172 4.84684 8.2789 4.84684 8.74339C4.84684 9.37962 5.36445 9.89724 6.00068 9.89724C6.21276 9.89724 6.3853 10.0698 6.3853 10.2819C6.3853 10.443 6.28363 10.5884 6.13232 10.6435C5.93476 10.7154 5.70478 10.6178 5.5014 10.3756C5.36479 10.213 5.1222 10.1919 4.95953 10.3285C4.79686 10.4651 4.77576 10.7077 4.91238 10.8704C5.1203 11.1179 5.36232 11.2877 5.61609 11.3731V11.8203C5.61609 12.0327 5.7883 12.2049 6.00071 12.2049C6.21312 12.2049 6.38532 12.0327 6.38532 11.8203V11.3697C6.38876 11.3685 6.39219 11.3675 6.3956 11.3662C6.84953 11.2009 7.15453 10.7651 7.15453 10.2819C7.15453 9.64562 6.63691 9.128 6.00068 9.128Z" fill="white" stroke="white" stroke-width="0.3"/>
<path d="M9.56203 6.77587C9.1049 6.21349 8.58233 5.76544 8.00869 5.44323C8.10264 5.33208 8.17677 5.20174 8.22464 5.05649C8.41249 4.48446 8.1381 3.80497 7.43777 3.58362L8.41954 1.87169C8.54341 1.65564 8.43213 1.38046 8.19328 1.31103C7.48344 1.10464 6.74554 1 6 1C5.25446 1 4.51656 1.10464 3.80672 1.31103C3.56759 1.38054 3.45674 1.6559 3.58046 1.87169L4.56223 3.58364C3.86467 3.80387 3.58682 4.48236 3.77546 5.05679C3.82318 5.20167 3.89728 5.33192 3.99151 5.44313C3.4178 5.76533 2.89518 6.21344 2.438 6.77587C1.52413 7.90015 1 9.31828 1 10.6667C1 13.4639 3.23197 14.1282 6 14.1282C8.76997 14.1282 11 13.4627 11 10.6667C11 9.31828 10.4759 7.90015 9.56203 6.77587ZM4.4999 1.92867C4.99059 1.82274 5.49328 1.76923 6 1.76923C6.50672 1.76923 7.00941 1.82274 7.5001 1.92867L6.6531 3.40564C6.21928 3.34508 5.78085 3.3451 5.34692 3.40567L4.4999 1.92867ZM4.75118 4.33067C5.4131 4.11354 6.10562 4.07238 6.77887 4.20697C6.77967 4.20713 6.78049 4.20728 6.78128 4.20744C6.93821 4.23892 7.09408 4.2799 7.24828 4.33049C7.44985 4.39692 7.56 4.61495 7.49392 4.81615C7.4459 4.96187 7.3191 5.06223 7.16995 5.07849C6.78646 4.95841 6.39531 4.89744 6 4.89744C5.60549 4.89744 5.2151 4.95815 4.83236 5.07774C4.6809 5.06215 4.55379 4.96108 4.50618 4.81651C4.44 4.61495 4.55015 4.3969 4.75118 4.33067ZM6 13.3641C2.99497 13.3641 1.76923 12.579 1.76923 10.6667C1.76923 9.50918 2.24238 8.23608 3.03487 7.26108C3.87064 6.2329 4.92367 5.66667 6 5.66667C7.18477 5.66667 8.22105 6.34569 8.96513 7.26108C9.75762 8.23608 10.2308 9.50918 10.2308 10.6667C10.2308 12.579 9.00503 13.3641 6 13.3641Z" fill="white" stroke="white" stroke-width="0.3"/>
</svg>
