<svg width="27" height="17" viewBox="0 0 27 17" fill="none" xmlns="http://www.w3.org/2000/svg">
<g clip-path="url(#clip0)">
<path d="M25.7727 16.1811H1.22729C0.552287 16.1811 0 15.6289 0 14.9539V1.45385C0 0.77885 0.552287 0.226562 1.22729 0.226562H25.7728C26.4478 0.226562 27.0001 0.77885 27.0001 1.45385V14.9539C27 15.6289 26.4477 16.1811 25.7727 16.1811Z" fill="#0E9347"/>
<path d="M23.3175 14.955H3.68108C3.68108 13.605 2.57656 12.5005 1.22656 12.5005V3.9096C2.57656 3.9096 3.68108 2.80508 3.68108 1.45508H23.3175C23.3175 2.80508 24.422 3.9096 25.772 3.9096V12.5005C24.422 12.5005 23.3175 13.605 23.3175 14.955Z" fill="#3BB54A"/>
<path d="M13.5009 13.7271C16.2121 13.7271 18.41 11.2545 18.41 8.20435C18.41 5.15424 16.2121 2.68164 13.5009 2.68164C10.7897 2.68164 8.5918 5.15424 8.5918 8.20435C8.5918 11.2545 10.7897 13.7271 13.5009 13.7271Z" fill="#0E9347"/>
<path d="M6.13744 9.43114C6.81526 9.43114 7.36473 8.88166 7.36473 8.20385C7.36473 7.52604 6.81526 6.97656 6.13744 6.97656C5.45963 6.97656 4.91016 7.52604 4.91016 8.20385C4.91016 8.88166 5.45963 9.43114 6.13744 9.43114Z" fill="#0E9347"/>
<path d="M20.864 9.43114C21.5418 9.43114 22.0913 8.88166 22.0913 8.20385C22.0913 7.52604 21.5418 6.97656 20.864 6.97656C20.1862 6.97656 19.6367 7.52604 19.6367 8.20385C19.6367 8.88166 20.1862 9.43114 20.864 9.43114Z" fill="#0E9347"/>
<path d="M14.1131 7.59152H12.8858C12.5176 7.59152 12.2722 7.34604 12.2722 6.97791C12.2722 6.60971 12.5176 6.36429 12.8858 6.36429H14.7267C15.0949 6.36429 15.3403 6.11881 15.3403 5.75067C15.3403 5.38248 15.0948 5.13705 14.7267 5.13705H14.1131C14.1131 4.76886 13.8676 4.52344 13.4994 4.52344C13.1312 4.52344 12.8858 4.76892 12.8858 5.13705C11.8426 5.13705 11.0449 5.93477 11.0449 6.97796C11.0449 8.02115 11.8426 8.81886 12.8858 8.81886H14.1131C14.4813 8.81886 14.7267 9.06434 14.7267 9.43248C14.7267 9.80067 14.4812 10.0461 14.1131 10.0461H12.2722C11.904 10.0461 11.6586 10.2916 11.6586 10.6597C11.6586 11.0279 11.9041 11.2733 12.2722 11.2733H12.8858C12.8858 11.6415 13.1313 11.8869 13.4994 11.8869C13.8676 11.8869 14.1131 11.6415 14.1131 11.2733C15.1562 11.2733 15.954 10.4756 15.954 9.43243C15.954 8.38924 15.1562 7.59152 14.1131 7.59152Z" fill="#89C763"/>
</g>
<defs>
<clipPath id="clip0">
<rect width="27" height="17" fill="white"/>
</clipPath>
</defs>
</svg>
