<svg width="22" height="22" viewBox="0 0 22 22" fill="none" xmlns="http://www.w3.org/2000/svg">
<rect x="0.5" y="0.5" width="21" height="21" rx="4.5" stroke="#90C63E"/>
<path d="M6 12.25C6.69036 12.25 7.25 11.6904 7.25 11C7.25 10.3096 6.69036 9.75 6 9.75C5.30964 9.75 4.75 10.3096 4.75 11C4.75 11.6904 5.30964 12.25 6 12.25Z" fill="#90C63E"/>
<path d="M11 12.25C11.6904 12.25 12.25 11.6904 12.25 11C12.25 10.3096 11.6904 9.75 11 9.75C10.3096 9.75 9.75 10.3096 9.75 11C9.75 11.6904 10.3096 12.25 11 12.25Z" fill="#90C63E"/>
<path d="M16 12.25C16.6904 12.25 17.25 11.6904 17.25 11C17.25 10.3096 16.6904 9.75 16 9.75C15.3096 9.75 14.75 10.3096 14.75 11C14.75 11.6904 15.3096 12.25 16 12.25Z" fill="#90C63E"/>
</svg>
