<svg xmlns="http://www.w3.org/2000/svg" width="35" height="30" viewBox="0 0 35 30">
  <g id="music" transform="translate(-256 -391)">
    <rect id="Rectangle_201" data-name="Rectangle 201" width="35" height="30" transform="translate(256 391)" fill="#1c1b1b" opacity="0"/>
    <g id="noun_Music_2076351" transform="translate(260 392.556)">
      <path id="Path_129" data-name="Path 129" d="M14.391,12.389a.369.369,0,0,0-.369-.018L6.486,16.059a.369.369,0,0,0-.207.328v9.377A2.376,2.376,0,0,0,4.5,24.927,2.717,2.717,0,0,0,2,27.789a2.718,2.718,0,0,0,2.512,2.862,2.711,2.711,0,0,0,2.516-2.862V16.635l6.8-3.32V24.75a2.357,2.357,0,0,0-1.774-.841,2.709,2.709,0,0,0-2.516,2.862,2.712,2.712,0,0,0,2.516,2.866,2.71,2.71,0,0,0,2.512-2.866V12.754a.369.369,0,0,0-.173-.365ZM4.512,29.914a1.975,1.975,0,0,1-1.774-2.125,1.975,1.975,0,0,1,1.774-2.125A1.978,1.978,0,0,1,6.29,27.789,1.975,1.975,0,0,1,4.512,29.914Zm7.54-1.051a1.979,1.979,0,0,1-1.778-2.128,1.975,1.975,0,0,1,1.778-2.125,1.975,1.975,0,0,1,1.774,2.125A1.981,1.981,0,0,1,12.052,28.863Z" transform="translate(0 -6.466)"/>
      <path id="Path_130" data-name="Path 130" d="M46.115,5.373l-3.006-3.2h0a.369.369,0,0,0-.074-.055l-.041-.03h-.055a.391.391,0,0,0-.085,0h0a.243.243,0,0,0-.055,0h-.081a.417.417,0,0,0-.074.048L42.6,2.16h0a.369.369,0,0,0-.052.077.292.292,0,0,0-.03.041.214.214,0,0,0,0,.052.369.369,0,0,0,0,.089V14.432a2.364,2.364,0,0,0-1.822-.837,2.709,2.709,0,0,0-2.516,2.862,2.535,2.535,0,1,0,5.028,0V3.355l2.368,2.523a2.73,2.73,0,0,1,.653,1.844V8.914a.369.369,0,1,0,.738,0v-1.2A3.431,3.431,0,0,0,46.115,5.373ZM40.7,18.582a1.975,1.975,0,0,1-1.778-2.125,1.8,1.8,0,1,1,3.552,0A1.975,1.975,0,0,1,40.7,18.582Z" transform="translate(-22.834 0)"/>
    </g>
  </g>
</svg>
