<svg width="22" height="22" viewBox="0 0 22 22" fill="none" xmlns="http://www.w3.org/2000/svg">
<g clip-path="url(#clip0)">
<path d="M21.7442 5.37263C21.5831 5.25086 21.3743 5.21154 21.1799 5.26654L12.0705 7.84466C11.7931 7.92321 11.6015 8.17646 11.6015 8.46482V17.1905C11.222 16.9704 10.7819 16.8437 10.3125 16.8437C8.89092 16.8437 7.73438 18.0002 7.73438 19.4218C7.73438 20.8434 8.89092 21.9999 10.3125 21.9999C11.7341 21.9999 12.8906 20.8434 12.8906 19.4218C12.8906 19.3549 12.8906 11.5304 12.8906 11.5304L20.7109 9.31706V14.6124C20.3313 14.3923 19.8913 14.2656 19.4218 14.2656C18.0003 14.2656 16.8437 15.4221 16.8437 16.8437C16.8437 18.2653 18.0003 19.4218 19.4218 19.4218C20.8434 19.4218 21.9999 18.2653 21.9999 16.8437C21.9999 16.7865 21.9999 5.88671 21.9999 5.88671C22 5.68476 21.9053 5.49445 21.7442 5.37263ZM10.3125 20.7109C9.60175 20.7109 9.02348 20.1326 9.02348 19.4218C9.02348 18.711 9.60175 18.1328 10.3125 18.1328C11.0233 18.1328 11.6016 18.711 11.6016 19.4218C11.6016 20.1326 11.0233 20.7109 10.3125 20.7109ZM19.4219 18.1328C18.7111 18.1328 18.1328 17.5545 18.1328 16.8437C18.1328 16.1329 18.7111 15.5546 19.4219 15.5546C20.1327 15.5546 20.7109 16.1329 20.7109 16.8437C20.7109 17.5545 20.1327 18.1328 19.4219 18.1328ZM20.7109 7.97743L12.8906 10.1907V8.95226L20.7109 6.73899V7.97743Z" fill="black"/>
<path d="M8.99545 4.57532C7.56545 3.52706 6.51784 2.48885 5.79279 1.40127L5.0499 0.287056C4.89234 0.0507284 4.59865 -0.0545876 4.32687 0.0276973C4.05505 0.110025 3.86913 0.360575 3.86913 0.644597V10.7453C3.48958 10.5252 3.0495 10.3985 2.58007 10.3985C1.1585 10.3985 0.00195312 11.555 0.00195312 12.9766C0.00195312 14.3982 1.1585 15.5547 2.58007 15.5547C4.00164 15.5547 5.15818 14.3982 5.15818 12.9766V2.72398C5.92848 3.71651 6.94091 4.66762 8.23331 5.61503C8.72926 5.97854 9.02535 6.56202 9.02535 7.17586C9.02535 8.24204 8.15795 9.10945 7.09177 9.10945C6.73582 9.10945 6.44724 9.39803 6.44724 9.75398C6.44724 10.1099 6.73582 10.3985 7.09177 10.3985C8.86873 10.3985 10.3144 8.95279 10.3144 7.17582C10.3144 6.15287 9.8213 5.1807 8.99545 4.57532ZM2.58007 14.2656C1.86928 14.2656 1.29101 13.6874 1.29101 12.9766C1.29101 12.2658 1.86928 11.6875 2.58007 11.6875C3.29085 11.6875 3.86913 12.2658 3.86913 12.9766C3.86913 13.6874 3.29085 14.2656 2.58007 14.2656Z" fill="black"/>
</g>
<defs>
<clipPath id="clip0">
<rect width="22" height="22" fill="white"/>
</clipPath>
</defs>
</svg>
