<svg width="19" height="21" viewBox="0 0 19 21" fill="none" xmlns="http://www.w3.org/2000/svg">
<path d="M9.5 2.16634C7.19881 2.16634 5.33333 4.03182 5.33333 6.33301C5.33333 8.63419 7.19881 10.4997 9.5 10.4997C11.8012 10.4997 13.6667 8.63419 13.6667 6.33301C13.6667 4.03182 11.8012 2.16634 9.5 2.16634ZM3.25 6.33301C3.25 2.88123 6.04822 0.0830078 9.5 0.0830078C12.9518 0.0830078 15.75 2.88123 15.75 6.33301C15.75 9.78479 12.9518 12.583 9.5 12.583C6.04822 12.583 3.25 9.78479 3.25 6.33301ZM5.33333 16.7497C3.60744 16.7497 2.20833 18.1488 2.20833 19.8747C2.20833 20.45 1.74196 20.9163 1.16667 20.9163C0.59137 20.9163 0.125 20.45 0.125 19.8747C0.125 16.9982 2.45685 14.6663 5.33333 14.6663H13.6667C16.5431 14.6663 18.875 16.9982 18.875 19.8747C18.875 20.45 18.4086 20.9163 17.8333 20.9163C17.258 20.9163 16.7917 20.45 16.7917 19.8747C16.7917 18.1488 15.3926 16.7497 13.6667 16.7497H5.33333Z" fill="black"/>
</svg>
