<svg width="30" height="30" viewBox="0 0 30 30" fill="none" xmlns="http://www.w3.org/2000/svg">
<g clip-path="url(#clip0)">
<path d="M11 13.5L10.5 6.5V5.5L12 3.5H14H18.5L21 5V9L20.5 16L18.5 19L14.5 19.5L11.5 17L11 13.5Z" fill="#90C63E"/>
<path d="M23.2986 24.313C23.0017 24.3557 22.7891 24.6237 22.7891 24.9236V29.4236C22.7891 30.1918 23.9856 30.1929 23.9856 29.4236V24.9049C23.9856 24.5454 23.6684 24.2599 23.2986 24.313Z" fill="black"/>
<path d="M21.7058 6.9547C21.761 5.8643 21.3771 4.82799 20.6249 4.03667C19.8727 3.24535 18.8571 2.80957 17.7653 2.80957H13.9614C12.8695 2.80957 11.854 3.24535 11.1018 4.03667C10.0387 5.15488 9.99767 6.49649 10.0706 7.93639C8.3899 9.50037 7.42969 11.698 7.42969 13.9979V29.424C7.42969 30.1922 8.62621 30.1933 8.62621 29.424V13.9979C8.62621 12.393 9.17321 10.8465 10.1551 9.60459L10.4119 14.6735C10.4202 17.6724 12.8625 20.1094 15.8634 20.1094C18.8642 20.1094 21.3065 17.6724 21.3149 14.6735L21.5517 9.99657C22.3558 11.1653 22.7886 12.5474 22.7886 13.9979V20.0119C22.7886 20.78 23.9851 20.7812 23.9851 20.0119V13.9979C23.9851 11.8238 23.1537 9.78083 21.6413 8.22714L21.7058 6.9547ZM20.5107 6.89415L20.119 14.6276C20.1186 14.6377 20.1183 14.6478 20.1183 14.6579C20.1183 17.0041 18.2095 18.9128 15.8632 18.9128C13.517 18.9128 11.6083 17.0041 11.6083 14.6579C11.6083 14.6478 11.608 14.6377 11.6075 14.6276L11.2158 6.89415C11.176 6.10798 11.4638 5.36212 12.0246 4.80406C12.5486 4.28261 13.2684 4.0061 14.0076 4.0061H17.7188C18.458 4.0061 19.1778 4.28261 19.7018 4.80406C20.2627 5.36212 20.5505 6.10798 20.5107 6.89415Z" fill="black"/>
<path d="M29.5875 5.91647L28.025 5.06185L27.1704 3.49925C26.9503 3.09692 26.3424 3.09369 26.1206 3.49925L25.266 5.06185L23.7034 5.91647C23.301 6.13652 23.2978 6.74441 23.7034 6.96625L25.266 7.82087L26.1206 9.38341C26.3406 9.78574 26.9485 9.78897 27.1704 9.38341L28.025 7.82087L29.5875 6.96625C29.9898 6.74621 29.9931 6.13825 29.5875 5.91647ZM28.0537 6.44133L27.1434 6.9392L26.6455 7.84952L26.1476 6.9392L25.2373 6.44127L26.1476 5.9434L26.6455 5.03308L27.1434 5.9434L28.0537 6.44133Z" fill="black"/>
<path d="M2.42991 3.53598L3.84128 4.30792L4.61316 5.71928C4.8332 6.12162 5.44109 6.12485 5.66293 5.71928L6.43487 4.30792L7.84623 3.53598C8.24856 3.31594 8.25179 2.70804 7.84623 2.48621L6.43487 1.71433L5.66293 0.302962C5.44289 -0.0993704 4.83499 -0.102601 4.61316 0.302962L3.84128 1.71433L2.42991 2.48627C2.02758 2.70625 2.02435 3.3142 2.42991 3.53598ZM3.9638 3.01112L4.72294 2.59593L5.13813 1.83679L5.55333 2.59593L6.31246 3.01106L5.55333 3.42626L5.13813 4.1854L4.723 3.42626L3.9638 3.01112Z" fill="black"/>
<path d="M6.13204 16.9134L4.62262 16.0878L3.79707 14.5784C3.57703 14.176 2.96914 14.1728 2.7473 14.5784L1.92176 16.0878L0.412337 16.9134C0.0100046 17.1334 0.00677397 17.7413 0.412337 17.9631L1.92176 18.7887L2.7473 20.2981C2.96728 20.7004 3.5753 20.7037 3.79707 20.2981L4.62262 18.7887L6.13204 17.9631C6.53431 17.7432 6.5376 17.1352 6.13204 16.9134ZM3.74096 17.9071L3.2721 18.7643L2.80336 17.9071L1.94617 17.4383L2.80342 16.9694L3.27216 16.1123L3.74096 16.9695L4.59815 17.4383L3.74096 17.9071Z" fill="black"/>
<path d="M22.8337 22.6723C23.035 23.1551 23.7431 23.1573 23.9414 22.665C24.0038 22.5101 23.9981 22.3324 23.9245 22.1825C23.7658 21.859 23.378 21.7619 23.0914 21.9232C22.8319 22.0691 22.7193 22.3975 22.8337 22.6723Z" fill="black"/>
<path d="M17.4993 24.4573C18.2675 24.4573 18.2686 23.2607 17.4993 23.2607H14.1664C13.3982 23.2607 13.3971 24.4573 14.1664 24.4573H17.4993Z" fill="black"/>
<path d="M18.437 25.7021H13.2914C12.5232 25.7021 12.5221 26.8987 13.2914 26.8987H18.437C19.2052 26.8987 19.2062 25.7021 18.437 25.7021Z" fill="black"/>
</g>
<defs>
<clipPath id="clip0">
<rect width="30" height="30" fill="white"/>
</clipPath>
</defs>
</svg>
