<svg width="14" height="18" viewBox="0 0 14 18" fill="none" xmlns="http://www.w3.org/2000/svg">
<path d="M7.76944 1.00768C7.52326 0.99744 7.27943 0.99744 7.0333 1.00768C5.38972 1.11446 3.84922 1.8458 2.72749 3.05182C1.60577 4.25785 0.987785 5.84722 1.00018 7.49422C1.04819 10.4814 3.40596 13.1966 5.12362 15.181C5.49702 15.6131 5.84908 16.0185 6.14781 16.3919C6.29718 16.5814 6.4876 16.7346 6.70473 16.8399C6.92186 16.9453 7.16004 17 7.40137 17C7.6427 17 7.88089 16.9453 8.09802 16.8399C8.31514 16.7346 8.50556 16.5814 8.65494 16.3919C8.95366 16.0185 9.30573 15.6131 9.67913 15.181C11.3968 13.1966 13.7546 10.4814 13.8026 7.49422C13.815 5.84722 13.197 4.25785 12.0752 3.05182C10.9535 1.8458 9.41302 1.11446 7.76944 1.00768ZM8.87365 14.4822C8.48957 14.9249 8.12684 15.341 7.82278 15.7251C7.77323 15.7898 7.70944 15.8422 7.63636 15.8783C7.56328 15.9144 7.48287 15.9331 7.40137 15.9331C7.31987 15.9331 7.23947 15.9144 7.16639 15.8783C7.09331 15.8422 7.02952 15.7898 6.97996 15.7251C6.6759 15.341 6.31317 14.9249 5.9291 14.4822C4.22745 12.5192 2.10972 10.076 2.06705 7.47822C2.05681 6.10636 2.57153 4.78252 3.50576 3.77788C4.43998 2.77324 5.723 2.16385 7.09198 2.07455C7.2981 2.06372 7.50464 2.06372 7.71076 2.07455C9.07974 2.16385 10.3628 2.77324 11.297 3.77788C12.2312 4.78252 12.7459 6.10636 12.7357 7.47822C12.693 10.076 10.5753 12.5192 8.87365 14.4822Z" fill="white" stroke="white" stroke-width="0.3"/>
<path d="M7.40395 3.66211C6.66543 3.66211 5.94349 3.88111 5.32944 4.29141C4.71538 4.70171 4.23678 5.28488 3.95416 5.96719C3.67154 6.64949 3.59759 7.40028 3.74167 8.12461C3.88575 8.84894 4.24138 9.51428 4.76359 10.0365C5.28581 10.5587 5.95115 10.9143 6.67548 11.0584C7.39981 11.2025 8.1506 11.1285 8.8329 10.8459C9.5152 10.5633 10.0984 10.0847 10.5087 9.47065C10.919 8.85659 11.138 8.13466 11.138 7.39614C11.1369 6.40614 10.7431 5.45701 10.0431 4.75698C9.34307 4.05695 8.39394 3.6632 7.40395 3.66211ZM7.40395 10.0633C6.87644 10.0633 6.36077 9.90687 5.92215 9.6138C5.48354 9.32073 5.14168 8.90418 4.93981 8.41681C4.73794 7.92945 4.68512 7.39318 4.78804 6.8758C4.89095 6.35842 5.14497 5.88318 5.51798 5.51017C5.89099 5.13716 6.36623 4.88314 6.88361 4.78022C7.40099 4.67731 7.93727 4.73013 8.42463 4.932C8.91199 5.13387 9.32854 5.47573 9.62161 5.91434C9.91469 6.35295 10.0711 6.86862 10.0711 7.39614C10.0709 8.10343 9.78977 8.78169 9.28964 9.28182C8.7895 9.78196 8.11125 10.063 7.40395 10.0633Z" fill="white" stroke="white" stroke-width="0.3"/>
</svg>
