<svg width="238" height="210" viewBox="0 0 238 210" fill="none" xmlns="http://www.w3.org/2000/svg">
<path d="M80.0822 18.0859H55.5234V95.9176H80.0822V18.0859Z" fill="#F5F5F5"/>
<path d="M80.0821 18.0859H67.8027V95.7038H80.0821V18.0859Z" fill="#EBEBEB"/>
<path d="M67.0002 10.4453H58.3281V18.0867H67.0002V10.4453Z" fill="#F5F5F5"/>
<path d="M66.9987 10.4453H64.9316V18.0867H66.9987V10.4453Z" fill="#EBEBEB"/>
<path d="M53.4766 18.0861V17.6406H80.8009V18.0861" fill="#E0E0E0"/>
<path d="M62.4498 21.4189H60.3711V25.802H62.4498V21.4189Z" fill="#FAFAFA"/>
<path d="M61.6631 27.6061C65.054 27.6061 67.8028 27.5686 67.8028 27.5223C67.8028 27.476 65.054 27.4385 61.6631 27.4385C58.2723 27.4385 55.5234 27.476 55.5234 27.5223C55.5234 27.5686 58.2723 27.6061 61.6631 27.6061Z" fill="#E0E0E0"/>
<path d="M74.8365 21.4189H72.7578V25.802H74.8365V21.4189Z" fill="#E0E0E0"/>
<path d="M74.0498 27.6061C77.4407 27.6061 80.1896 27.5686 80.1896 27.5223C80.1896 27.476 77.4407 27.4385 74.0498 27.4385C70.659 27.4385 67.9102 27.476 67.9102 27.5223C67.9102 27.5686 70.659 27.6061 74.0498 27.6061Z" fill="#E0E0E0"/>
<path d="M74.8365 30.1211H72.7578V34.5041H74.8365V30.1211Z" fill="#E0E0E0"/>
<path d="M74.0498 36.3083C77.4407 36.3083 80.1896 36.2707 80.1896 36.2244C80.1896 36.1782 77.4407 36.1406 74.0498 36.1406C70.659 36.1406 67.9102 36.1782 67.9102 36.2244C67.9102 36.2707 70.659 36.3083 74.0498 36.3083Z" fill="#E0E0E0"/>
<path d="M74.8365 39.0859H72.7578V43.469H74.8365V39.0859Z" fill="#E0E0E0"/>
<path d="M74.0498 45.2731C77.4407 45.2731 80.1896 45.2356 80.1896 45.1893C80.1896 45.143 77.4407 45.1055 74.0498 45.1055C70.659 45.1055 67.9102 45.143 67.9102 45.1893C67.9102 45.2356 70.659 45.2731 74.0498 45.2731Z" fill="#E0E0E0"/>
<path d="M74.8365 48.0518H72.7578V52.4348H74.8365V48.0518Z" fill="#E0E0E0"/>
<path d="M74.0498 54.2389C77.4407 54.2389 80.1896 54.2014 80.1896 54.1551C80.1896 54.1088 77.4407 54.0713 74.0498 54.0713C70.659 54.0713 67.9102 54.1088 67.9102 54.1551C67.9102 54.2014 70.659 54.2389 74.0498 54.2389Z" fill="#E0E0E0"/>
<path d="M74.8365 56.7598H72.7578V61.1433H74.8365V56.7598Z" fill="#E0E0E0"/>
<path d="M74.0498 62.9469C77.4407 62.9469 80.1896 62.9094 80.1896 62.8631C80.1896 62.8168 77.4407 62.7793 74.0498 62.7793C70.659 62.7793 67.9102 62.8168 67.9102 62.8631C67.9102 62.9094 70.659 62.9469 74.0498 62.9469Z" fill="#E0E0E0"/>
<path d="M74.8365 65.5039H72.7578V69.8874H74.8365V65.5039Z" fill="#E0E0E0"/>
<path d="M74.8365 74.3623H72.7578V78.7458H74.8365V74.3623Z" fill="#E0E0E0"/>
<path d="M74.0498 71.6921C77.4407 71.6921 80.1896 71.6545 80.1896 71.6082C80.1896 71.5619 77.4407 71.5244 74.0498 71.5244C70.659 71.5244 67.9102 71.5619 67.9102 71.6082C67.9102 71.6545 70.659 71.6921 74.0498 71.6921Z" fill="#E0E0E0"/>
<path d="M62.4498 30.2539H60.3711V34.6374H62.4498V30.2539Z" fill="#FAFAFA"/>
<path d="M61.6631 36.4411C65.054 36.4411 67.8028 36.4036 67.8028 36.3573C67.8028 36.311 65.054 36.2734 61.6631 36.2734C58.2723 36.2734 55.5234 36.311 55.5234 36.3573C55.5234 36.4036 58.2723 36.4411 61.6631 36.4411Z" fill="#E0E0E0"/>
<path d="M62.4498 39.0898H60.3711V43.4734H62.4498V39.0898Z" fill="#FAFAFA"/>
<path d="M61.6631 45.277C65.054 45.277 67.8028 45.2395 67.8028 45.1932C67.8028 45.1469 65.054 45.1094 61.6631 45.1094C58.2723 45.1094 55.5234 45.1469 55.5234 45.1932C55.5234 45.2395 58.2723 45.277 61.6631 45.277Z" fill="#E0E0E0"/>
<path d="M62.4498 47.9248H60.3711V52.3078H62.4498V47.9248Z" fill="#FAFAFA"/>
<path d="M61.6631 54.112C65.054 54.112 67.8028 54.0744 67.8028 54.0282C67.8028 53.9819 65.054 53.9443 61.6631 53.9443C58.2723 53.9443 55.5234 53.9819 55.5234 54.0282C55.5234 54.0744 58.2723 54.112 61.6631 54.112Z" fill="#E0E0E0"/>
<path d="M62.4498 56.7598H60.3711V61.1433H62.4498V56.7598Z" fill="#FAFAFA"/>
<path d="M61.6631 62.9469C65.054 62.9469 67.8028 62.9094 67.8028 62.8631C67.8028 62.8168 65.054 62.7793 61.6631 62.7793C58.2723 62.7793 55.5234 62.8168 55.5234 62.8631C55.5234 62.9094 58.2723 62.9469 61.6631 62.9469Z" fill="#E0E0E0"/>
<path d="M62.4498 65.5957H60.3711V69.9792H62.4498V65.5957Z" fill="#FAFAFA"/>
<path d="M61.6631 71.7829C65.054 71.7829 67.8028 71.7453 67.8028 71.6991C67.8028 71.6528 65.054 71.6152 61.6631 71.6152C58.2723 71.6152 55.5234 71.6528 55.5234 71.6991C55.5234 71.7453 58.2723 71.7829 61.6631 71.7829Z" fill="#E0E0E0"/>
<path d="M62.4498 74.4307H60.3711V78.8142H62.4498V74.4307Z" fill="#FAFAFA"/>
<path d="M170.024 34.5898H145.465V112.422H170.024V34.5898Z" fill="#F5F5F5"/>
<path d="M170.024 34.5898H157.744V112.208H170.024V34.5898Z" fill="#EBEBEB"/>
<path d="M156.94 26.9482H148.268V34.5896H156.94V26.9482Z" fill="#F5F5F5"/>
<path d="M156.942 26.9482H154.875V34.5896H156.942V26.9482Z" fill="#EBEBEB"/>
<path d="M143.418 34.5896V34.1436H170.742V34.5896" fill="#E0E0E0"/>
<path d="M152.391 37.9219H150.312V42.3049H152.391V37.9219Z" fill="#FAFAFA"/>
<path d="M151.605 44.109C154.995 44.109 157.744 44.0715 157.744 44.0252C157.744 43.9789 154.995 43.9414 151.605 43.9414C148.214 43.9414 145.465 43.9789 145.465 44.0252C145.465 44.0715 148.214 44.109 151.605 44.109Z" fill="#E0E0E0"/>
<path d="M164.778 37.9219H162.699V42.3049H164.778V37.9219Z" fill="#E0E0E0"/>
<path d="M163.991 44.109C167.382 44.109 170.131 44.0715 170.131 44.0252C170.131 43.9789 167.382 43.9414 163.991 43.9414C160.6 43.9414 157.852 43.9789 157.852 44.0252C157.852 44.0715 160.6 44.109 163.991 44.109Z" fill="#E0E0E0"/>
<path d="M164.778 46.624H162.699V51.007H164.778V46.624Z" fill="#E0E0E0"/>
<path d="M163.991 52.8122C167.382 52.8122 170.131 52.7746 170.131 52.7284C170.131 52.6821 167.382 52.6445 163.991 52.6445C160.6 52.6445 157.852 52.6821 157.852 52.7284C157.852 52.7746 160.6 52.8122 163.991 52.8122Z" fill="#E0E0E0"/>
<path d="M164.778 55.5889H162.699V59.9719H164.778V55.5889Z" fill="#E0E0E0"/>
<path d="M163.991 61.777C167.382 61.777 170.131 61.7395 170.131 61.6932C170.131 61.6469 167.382 61.6094 163.991 61.6094C160.6 61.6094 157.852 61.6469 157.852 61.6932C157.852 61.7395 160.6 61.777 163.991 61.777Z" fill="#E0E0E0"/>
<path d="M164.778 64.5547H162.699V68.9377H164.778V64.5547Z" fill="#E0E0E0"/>
<path d="M163.991 70.7418C167.382 70.7418 170.131 70.7043 170.131 70.658C170.131 70.6117 167.382 70.5742 163.991 70.5742C160.6 70.5742 157.852 70.6117 157.852 70.658C157.852 70.7043 160.6 70.7418 163.991 70.7418Z" fill="#E0E0E0"/>
<path d="M164.778 73.2627H162.699V77.6462H164.778V73.2627Z" fill="#E0E0E0"/>
<path d="M163.991 79.4508C167.382 79.4508 170.131 79.4133 170.131 79.367C170.131 79.3207 167.382 79.2832 163.991 79.2832C160.6 79.2832 157.852 79.3207 157.852 79.367C157.852 79.4133 160.6 79.4508 163.991 79.4508Z" fill="#E0E0E0"/>
<path d="M164.778 82.0078H162.699V86.3908H164.778V82.0078Z" fill="#E0E0E0"/>
<path d="M164.778 90.8662H162.699V95.2492H164.778V90.8662Z" fill="#E0E0E0"/>
<path d="M163.991 88.195C167.382 88.195 170.131 88.1575 170.131 88.1112C170.131 88.0649 167.382 88.0273 163.991 88.0273C160.6 88.0273 157.852 88.0649 157.852 88.1112C157.852 88.1575 160.6 88.195 163.991 88.195Z" fill="#E0E0E0"/>
<path d="M152.391 46.7568H150.312V51.1404H152.391V46.7568Z" fill="#FAFAFA"/>
<path d="M151.605 52.945C154.995 52.945 157.744 52.9075 157.744 52.8612C157.744 52.8149 154.995 52.7773 151.605 52.7773C148.214 52.7773 145.465 52.8149 145.465 52.8612C145.465 52.9075 148.214 52.945 151.605 52.945Z" fill="#E0E0E0"/>
<path d="M152.391 55.5928H150.312V59.9763H152.391V55.5928Z" fill="#FAFAFA"/>
<path d="M151.605 61.7799C154.995 61.7799 157.744 61.7424 157.744 61.6961C157.744 61.6498 154.995 61.6123 151.605 61.6123C148.214 61.6123 145.465 61.6498 145.465 61.6961C145.465 61.7424 148.214 61.7799 151.605 61.7799Z" fill="#E0E0E0"/>
<path d="M152.391 64.4277H150.312V68.8113H152.391V64.4277Z" fill="#FAFAFA"/>
<path d="M151.605 70.6149C154.995 70.6149 157.744 70.5774 157.744 70.5311C157.744 70.4848 154.995 70.4473 151.605 70.4473C148.214 70.4473 145.465 70.4848 145.465 70.5311C145.465 70.5774 148.214 70.6149 151.605 70.6149Z" fill="#E0E0E0"/>
<path d="M152.391 73.2627H150.312V77.6462H152.391V73.2627Z" fill="#FAFAFA"/>
<path d="M151.605 79.4509C154.995 79.4509 157.744 79.4133 157.744 79.367C157.744 79.3207 154.995 79.2832 151.605 79.2832C148.214 79.2832 145.465 79.3207 145.465 79.367C145.465 79.4133 148.214 79.4509 151.605 79.4509Z" fill="#E0E0E0"/>
<path d="M152.391 82.0986H150.312V86.4822H152.391V82.0986Z" fill="#FAFAFA"/>
<path d="M151.605 88.2858C154.995 88.2858 157.744 88.2483 157.744 88.202C157.744 88.1557 154.995 88.1182 151.605 88.1182C148.214 88.1182 145.465 88.1557 145.465 88.202C145.465 88.2483 148.214 88.2858 151.605 88.2858Z" fill="#E0E0E0"/>
<path d="M152.391 90.9346H150.312V95.3181H152.391V90.9346Z" fill="#FAFAFA"/>
<path d="M200.683 64.7871H160.918V117.236H200.683V64.7871Z" fill="#EBEBEB"/>
<path d="M200.682 64.7871H182.037V117.236H200.682V64.7871Z" fill="#E0E0E0"/>
<path d="M172.831 71.8877H169.256V80.5745H172.831V71.8877Z" fill="#F5F5F5"/>
<path d="M172.831 105.885H169.256V114.572H172.831V105.885Z" fill="#F5F5F5"/>
<path d="M171.478 84.1602C177.31 84.1602 182.038 84.0811 182.038 83.9834C182.038 83.8858 177.31 83.8066 171.478 83.8066C165.646 83.8066 160.918 83.8858 160.918 83.9834C160.918 84.0811 165.646 84.1602 171.478 84.1602Z" fill="#F5F5F5"/>
<path d="M172.831 89.0156H169.256V97.7024H172.831V89.0156Z" fill="#F5F5F5"/>
<path d="M171.478 101.288C177.31 101.288 182.038 101.209 182.038 101.111C182.038 101.014 177.31 100.935 171.478 100.935C165.646 100.935 160.918 101.014 160.918 101.111C160.918 101.209 165.646 101.288 171.478 101.288Z" fill="#F5F5F5"/>
<path d="M189.573 71.8877H185.998V80.5745H189.573V71.8877Z" fill="#F5F5F5"/>
<path d="M197.329 71.8877H193.754V80.5745H197.329V71.8877Z" fill="#F5F5F5"/>
<path d="M189.573 88.3711H185.998V97.0579H189.573V88.3711Z" fill="#F5F5F5"/>
<path d="M197.329 88.3711H193.754V97.0579H197.329V88.3711Z" fill="#F5F5F5"/>
<path d="M189.573 104.854H185.998V113.54H189.573V104.854Z" fill="#F5F5F5"/>
<path d="M197.329 104.854H193.754V113.54H197.329V104.854Z" fill="#F5F5F5"/>
<path d="M203.673 62.9609H157.93V64.8522H203.673V62.9609Z" fill="#E0E0E0"/>
<path d="M200.961 65.0303C200.961 65.1278 192.073 65.2071 181.112 65.2071C170.148 65.2071 161.262 65.1278 161.262 65.0303C161.262 64.9328 170.148 64.8535 181.112 64.8535C192.073 64.8535 200.961 64.9328 200.961 65.0303Z" fill="#EBEBEB"/>
<path d="M70.9719 118.283H34.8333L34.6758 61.1689H70.8144L70.9719 118.283Z" fill="#EBEBEB"/>
<path d="M70.8137 61.1689H52.7441V118.284H70.8137V61.1689Z" fill="#E0E0E0"/>
<path d="M51.5642 49.9248H38.8027V61.1689H51.5642V49.9248Z" fill="#EBEBEB"/>
<path d="M51.5629 49.9248H48.5215V61.1689H51.5629V49.9248Z" fill="#E0E0E0"/>
<path d="M71.8723 60.5127H31.6641V61.1685H71.8723V60.5127Z" fill="#E0E0E0"/>
<path d="M44.8673 66.0723H41.8086V72.5223H44.8673V66.0723Z" fill="white"/>
<path d="M43.7106 75.1775C48.7003 75.1775 52.7453 75.1225 52.7453 75.0546C52.7453 74.9867 48.7003 74.9316 43.7106 74.9316C38.7208 74.9316 34.6758 74.9867 34.6758 75.0546C34.6758 75.1225 38.7208 75.1775 43.7106 75.1775Z" fill="#E0E0E0"/>
<path d="M63.0938 66.0723H60.0352V72.5223H63.0938V66.0723Z" fill="#F5F5F5"/>
<path d="M61.9371 75.1765C66.9269 75.1765 70.9719 75.1215 70.9719 75.0536C70.9719 74.9857 66.9269 74.9307 61.9371 74.9307C56.9474 74.9307 52.9023 74.9857 52.9023 75.0536C52.9023 75.1215 56.9474 75.1765 61.9371 75.1765Z" fill="#EBEBEB"/>
<path d="M63.0938 78.8789H60.0352V85.329H63.0938V78.8789Z" fill="#F5F5F5"/>
<path d="M61.9371 87.9842C66.9269 87.9842 70.9719 87.9289 70.9719 87.8608C70.9719 87.7926 66.9269 87.7373 61.9371 87.7373C56.9474 87.7373 52.9023 87.7926 52.9023 87.8608C52.9023 87.9289 56.9474 87.9842 61.9371 87.9842Z" fill="#EBEBEB"/>
<path d="M63.0938 92.0713H60.0352V98.5214H63.0938V92.0713Z" fill="#F5F5F5"/>
<path d="M61.9371 101.177C66.9269 101.177 70.9719 101.121 70.9719 101.053C70.9719 100.985 66.9269 100.93 61.9371 100.93C56.9474 100.93 52.9023 100.985 52.9023 101.053C52.9023 101.121 56.9474 101.177 61.9371 101.177Z" fill="#EBEBEB"/>
<path d="M63.0938 105.265H60.0352V111.714H63.0938V105.265Z" fill="#F5F5F5"/>
<path d="M61.9371 114.369C66.9269 114.369 70.9719 114.314 70.9719 114.246C70.9719 114.177 66.9269 114.122 61.9371 114.122C56.9474 114.122 52.9023 114.177 52.9023 114.246C52.9023 114.314 56.9474 114.369 61.9371 114.369Z" fill="#EBEBEB"/>
<path d="M44.8673 79.0742H41.8086V85.5243H44.8673V79.0742Z" fill="white"/>
<path d="M43.7106 88.1795C48.7003 88.1795 52.7453 88.1242 52.7453 88.0561C52.7453 87.9879 48.7003 87.9326 43.7106 87.9326C38.7208 87.9326 34.6758 87.9879 34.6758 88.0561C34.6758 88.1242 38.7208 88.1795 43.7106 88.1795Z" fill="#E0E0E0"/>
<path d="M44.8673 92.0762H41.8086V98.5262H44.8673V92.0762Z" fill="white"/>
<path d="M43.7106 101.181C48.7003 101.181 52.7453 101.126 52.7453 101.058C52.7453 100.99 48.7003 100.935 43.7106 100.935C38.7208 100.935 34.6758 100.99 34.6758 101.058C34.6758 101.126 38.7208 101.181 43.7106 101.181Z" fill="#E0E0E0"/>
<path d="M44.8673 105.077H41.8086V111.527H44.8673V105.077Z" fill="white"/>
<path d="M43.7106 114.182C48.7003 114.182 52.7453 114.127 52.7453 114.059C52.7453 113.991 48.7003 113.936 43.7106 113.936C38.7208 113.936 34.6758 113.991 34.6758 114.059C34.6758 114.127 38.7208 114.182 43.7106 114.182Z" fill="#E0E0E0"/>
<path d="M214.093 49.6235C214.284 48.2356 212.325 47.0936 210.853 46.9747C210.151 46.9184 209.422 47.0255 208.756 46.7939C207.315 46.2915 206.74 44.4302 205.334 43.8368C204.283 43.3933 203.072 43.7881 202.053 44.3011C201.034 44.8137 200.027 45.4594 198.888 45.532C197.898 45.5955 196.823 45.2282 195.957 45.7119C195.311 46.072 194.972 46.8162 194.378 47.2552C193.796 47.6844 193.036 47.7754 192.314 47.815C191.592 47.8546 190.843 47.8617 190.186 48.163C189.529 48.4642 188.985 49.1596 189.121 49.8703L214.093 49.6235Z" fill="#F5F5F5"/>
<path d="M152.953 10.0592C153.253 7.88647 150.186 6.09882 147.881 5.91289C146.783 5.8245 145.641 5.99214 144.6 5.62943C142.345 4.84355 141.443 1.92916 139.242 1.00104C137.597 0.307117 135.703 0.924845 134.108 1.72799C132.512 2.53114 130.936 3.54104 129.154 3.65534C127.604 3.7544 125.921 3.17935 124.564 3.93677C123.554 4.50116 123.024 5.6655 122.093 6.35282C121.181 7.0249 119.992 7.16714 118.862 7.22861C117.732 7.29008 116.561 7.30176 115.531 7.77319C114.501 8.24461 113.649 9.33325 113.863 10.4453L152.953 10.0592Z" fill="#EBEBEB"/>
<path d="M48.5061 40.1086C48.7444 38.3763 46.2999 36.9514 44.463 36.8035C43.5867 36.7329 42.6768 36.867 41.8468 36.5775C40.0484 35.9506 39.3301 33.6275 37.5755 32.8874C36.2638 32.3341 34.7536 32.8264 33.482 33.4665C32.2105 34.1066 30.9537 34.9122 29.5328 35.0027C28.2969 35.0819 26.9548 34.6232 25.8737 35.2272C25.068 35.6773 24.6459 36.6054 23.9032 37.1535C23.1768 37.6895 22.2293 37.8028 21.3276 37.852C20.4264 37.9013 19.4932 37.9105 18.6723 38.2859C17.8514 38.6613 17.1722 39.5295 17.3429 40.4159L48.5061 40.1086Z" fill="#F5F5F5"/>
<path d="M30.5382 78.3165C24.7806 78.4501 20.0856 83.1425 19.9485 88.9001C19.8895 91.366 20.6566 93.6489 21.9881 95.4975L21.9856 95.498L22.0912 95.6418C22.0963 95.6484 22.1014 95.6555 22.106 95.6621L29.7889 106.112C30.4656 107.032 31.8494 107.003 32.4864 106.056L39.4308 95.7317C40.7445 93.7277 41.6462 91.6332 41.6462 89.1638C41.6467 83.0856 36.6485 78.1747 30.5382 78.3165ZM30.7958 97.0546C26.2903 97.0546 22.6383 93.402 22.6383 88.8966C22.6383 84.3911 26.2903 80.7391 30.7958 80.7391C35.3013 80.7391 38.9538 84.3911 38.9538 88.8966C38.9538 93.402 35.3013 97.0546 30.7958 97.0546Z" fill="#90C63E"/>
<g opacity="0.3">
<path opacity="0.3" d="M30.5382 78.3165C24.7806 78.4501 20.0856 83.1425 19.9485 88.9001C19.8895 91.366 20.6566 93.6489 21.9881 95.4975L21.9856 95.498L22.0912 95.6418C22.0963 95.6484 22.1014 95.6555 22.106 95.6621L29.7889 106.112C30.4656 107.032 31.8494 107.003 32.4864 106.056L39.4308 95.7317C40.7445 93.7277 41.6462 91.6332 41.6462 89.1638C41.6467 83.0856 36.6485 78.1747 30.5382 78.3165ZM30.7958 97.0546C26.2903 97.0546 22.6383 93.402 22.6383 88.8966C22.6383 84.3911 26.2903 80.7391 30.7958 80.7391C35.3013 80.7391 38.9538 84.3911 38.9538 88.8966C38.9538 93.402 35.3013 97.0546 30.7958 97.0546Z" fill="black"/>
</g>
<path d="M29.8956 78.3165C24.1379 78.4501 19.443 83.1425 19.3058 88.9001C19.2474 91.366 20.014 93.6489 21.346 95.4975L21.3429 95.498L21.4486 95.6418C21.4537 95.6484 21.4582 95.6555 21.4633 95.6621L29.1463 106.112C29.8225 107.032 31.2063 107.003 31.8438 106.056L38.7882 95.7317C40.1024 93.7277 41.0035 91.6332 41.0035 89.1638C41.0041 83.0856 36.0058 78.1747 29.8956 78.3165ZM30.1537 95.5839C26.7414 95.5839 23.9754 92.8178 23.9754 89.4056C23.9754 85.9934 26.7414 83.2273 30.1537 83.2273C33.5654 83.2273 36.332 85.9934 36.332 89.4056C36.3315 92.8178 33.5654 95.5839 30.1537 95.5839Z" fill="#90C63E"/>
<path d="M200.735 68.0316C196.347 68.1332 192.769 71.7095 192.664 76.0976C192.62 77.9767 193.205 79.7166 194.219 81.1253L194.217 81.1258L194.298 81.235C194.301 81.2401 194.305 81.2457 194.308 81.2508L200.164 89.2147C200.679 89.9157 201.734 89.8934 202.219 89.1715L207.512 81.3036C208.514 79.776 209.2 78.1799 209.2 76.2978C209.2 71.6663 205.392 67.9234 200.735 68.0316ZM200.932 82.312C197.498 82.312 194.715 79.5286 194.715 76.0951C194.715 72.6615 197.498 69.8782 200.932 69.8782C204.365 69.8782 207.149 72.6615 207.149 76.0951C207.149 79.5286 204.365 82.312 200.932 82.312Z" fill="#90C63E"/>
<g opacity="0.3">
<path opacity="0.3" d="M200.735 68.0316C196.347 68.1332 192.769 71.7095 192.664 76.0976C192.62 77.9767 193.205 79.7166 194.219 81.1253L194.217 81.1258L194.298 81.235C194.301 81.2401 194.305 81.2457 194.308 81.2508L200.164 89.2147C200.679 89.9157 201.734 89.8934 202.219 89.1715L207.512 81.3036C208.514 79.776 209.2 78.1799 209.2 76.2978C209.2 71.6663 205.392 67.9234 200.735 68.0316ZM200.932 82.312C197.498 82.312 194.715 79.5286 194.715 76.0951C194.715 72.6615 197.498 69.8782 200.932 69.8782C204.365 69.8782 207.149 72.6615 207.149 76.0951C207.149 79.5286 204.365 82.312 200.932 82.312Z" fill="black"/>
</g>
<path d="M200.245 68.0316C195.857 68.1332 192.278 71.7095 192.174 76.0976C192.13 77.9767 192.714 79.7166 193.729 81.1253L193.727 81.1258L193.807 81.235C193.811 81.2401 193.815 81.2457 193.818 81.2508L199.673 89.2147C200.189 89.9157 201.244 89.8934 201.729 89.1715L207.022 81.3036C208.023 79.776 208.71 78.1799 208.71 76.2978C208.711 71.6663 204.902 67.9234 200.245 68.0316ZM200.441 81.1913C197.841 81.1913 195.733 79.0836 195.733 76.4827C195.733 73.8822 197.84 71.7745 200.441 71.7745C203.042 71.7745 205.15 73.8822 205.15 76.4827C205.15 79.0831 203.042 81.1913 200.441 81.1913Z" fill="#90C63E"/>
<path d="M36.4728 117.32L0.191406 207.42L68.2192 196.233L118.107 207.42L169.203 196.233L237.534 209.268L200.95 117.32L160.133 107.041L118.863 114.902L76.685 107.041L36.4728 117.32Z" fill="white"/>
<path d="M36.4728 117.32C36.4728 117.32 36.6953 117.258 37.1393 117.141C37.5864 117.025 38.2498 116.853 39.1251 116.625C40.8843 116.171 43.4944 115.498 46.9071 114.618C53.7453 112.862 63.7986 110.28 76.6688 106.975L76.683 106.972L76.6978 106.974C88.3223 109.134 102.591 111.785 118.88 114.811H118.847C131.2 112.453 145.13 109.794 160.113 106.934L160.137 106.93L160.16 106.936C172.836 110.124 186.57 113.579 200.98 117.205L201.038 117.219L201.061 117.276C212.241 145.364 224.602 176.421 237.657 209.218L237.745 209.441L237.51 209.396C226.274 207.253 214.4 204.988 202.36 202.692C191.142 200.552 180.069 198.439 169.18 196.362L169.233 196.361C151.676 200.203 134.594 203.941 118.135 207.543L118.108 207.549L118.08 207.543C100.696 203.641 84.0196 199.899 68.1954 196.347L68.2401 196.349C43.2445 200.451 20.3621 204.207 0.208734 207.515L0.0390625 207.543L0.103579 207.383C11.3253 179.567 20.4129 157.043 26.6953 141.471C29.8388 133.694 32.2808 127.653 33.9374 123.554C34.7664 121.509 35.3989 119.949 35.8256 118.899C36.2498 117.851 36.4728 117.32 36.4728 117.32C36.4728 117.32 36.262 117.865 35.8424 118.92C35.4202 119.975 34.7944 121.541 33.9735 123.595C32.3265 127.7 29.8988 133.752 26.7736 141.542C20.5145 157.115 11.4614 179.639 0.281378 207.455L0.175715 207.324C20.3271 204.003 43.2074 200.234 68.2005 196.116L68.2228 196.112L68.2452 196.117C84.0704 199.663 100.748 203.399 118.134 207.295L118.079 207.295C134.537 203.69 151.619 199.949 169.176 196.104L169.202 196.098L169.228 196.103C180.118 198.18 191.191 200.292 202.409 202.432C214.449 204.728 226.323 206.994 237.559 209.137L237.412 209.315C224.366 176.515 212.013 145.454 200.84 117.363L200.921 117.435C186.513 113.802 172.781 110.339 160.107 107.144L160.153 107.145C145.168 109.993 131.235 112.642 118.88 114.99L118.863 114.994L118.846 114.99C102.561 111.945 88.2954 109.278 76.6734 107.105L76.7019 107.104C63.8347 110.378 53.7834 112.936 46.9468 114.676C43.5269 115.543 40.9112 116.206 39.1479 116.652C38.2676 116.874 37.6006 117.042 37.151 117.155C36.7029 117.266 36.4728 117.32 36.4728 117.32Z" fill="#A6AEC1"/>
<path d="M38.5878 119.739L6.53906 202.885L67.9156 192.907L118.861 204.699L169.202 192.605L231.788 204.699L198.832 119.739L160.736 110.366L118.861 118.228L76.0792 110.366L38.5878 119.739Z" fill="white"/>
<path d="M10.1016 193.646L58.8863 182.348L57.0844 171.838L61.1383 169.286L54.8325 144.741L35.3243 128.21L10.1016 193.646Z" fill="#90C63E"/>
<path d="M6.53906 202.884L8.91752 196.713L90.7141 177.709L95.1571 189.937L93.7169 192.406L78.3535 195.322L67.9156 192.906L6.53906 202.884Z" fill="#EBEBEB"/>
<path d="M95.1582 176.526L98.4038 188.624L107.822 192.719L121.227 186.763L149.342 178.574L140.568 165.358L95.1582 176.526Z" fill="#EBEBEB"/>
<path d="M62.484 181.007L77.6834 177.709L74.6506 167.834L63.5788 170.51L60.6309 172.59L62.484 181.007Z" fill="#E0E0E0"/>
<path d="M59.3828 148.279L64.9017 166.388L73.525 164.491L71.9731 157.533L90.9438 153.281L59.3828 148.279Z" fill="#90C63E"/>
<path d="M36.7598 124.486L60.6312 143.651L92.3228 149.659L126.126 141.256L110.695 116.726L76.0805 110.366L38.5891 119.739L36.7598 124.486Z" fill="#EBEBEB"/>
<path d="M115.311 117.574L164.869 193.646L169.203 192.604L121.238 117.781L118.862 118.227L115.311 117.574Z" fill="#EBEBEB"/>
<path d="M75.1621 159.448L81.442 177.709L137.186 163.467L126.87 145.904L75.1621 159.448Z" fill="#E0E0E0"/>
<path d="M106.174 201.762L106.717 200.955L110.378 195.512L119.164 192.719L125.206 188.167L151.407 181.007L159.543 194.926L118.862 204.698" fill="#E0E0E0"/>
<path d="M152.584 111.897L165.715 126.503L198.834 119.739L160.738 110.366L152.584 111.897Z" fill="#E0E0E0"/>
<path d="M205.804 137.708L181.479 144.466L169.203 128.209L199.664 121.88L205.804 137.708Z" fill="#E0E0E0"/>
<path d="M123.84 117.292L149.342 153.926L178.776 145.48L149.342 112.505L123.84 117.292Z" fill="#EBEBEB"/>
<path d="M195.141 197.616L224.57 186.088L231.789 204.698L195.141 197.616Z" fill="#E0E0E0"/>
<path d="M164.363 151.735L180.354 147.566L197.245 167.834L180.804 173.294L164.363 151.735Z" fill="#90C63E"/>
<path d="M183.957 145.904L201.749 166.304L215.153 161.807L206.34 139.088L183.957 145.904Z" fill="#E0E0E0"/>
<path d="M197.245 192.852L183.957 174.42L216.074 164.182L222.6 181.007L218.415 185.222L197.245 192.852Z" fill="#90C63E"/>
<path d="M150.906 156.62L175.321 193.646L190.354 196.692L193.19 195.393L162.255 153.2L150.906 156.62Z" fill="#E0E0E0"/>
<path d="M50.8498 184.208L44.767 155.609L23.3182 159.357L10.1016 193.645L50.8498 184.208Z" fill="#E0E0E0"/>
<path d="M70.5707 111.743V124.837L75.1625 125.417L87.984 140.354L99.0055 139.088L104.252 146.693L92.3228 149.659L60.6312 143.651L36.7598 124.486L38.5891 119.739L70.5707 111.743Z" fill="#90C63E"/>
<path d="M137.605 114.82L155.614 141.1L171.126 136.909L149.342 112.505L137.605 114.82Z" fill="#E0E0E0"/>
<path d="M190.472 141.968L183.957 131.782L201.574 126.803L205.805 137.708L190.472 141.968Z" fill="#EBEBEB"/>
<path d="M164.363 177.028L172.891 174.081L189.43 196.504L175.321 193.646L164.363 177.028Z" fill="#EBEBEB"/>
<path d="M85.6973 197.022L93.6287 196.056L96.2708 192.188L106.175 195.302L103.585 201.162L85.6973 197.022Z" fill="#90C63E"/>
<path d="M38.5892 119.739C38.5892 119.739 39.4243 119.519 41.0606 119.104C42.7009 118.691 45.1338 118.077 48.3148 117.273C54.6908 115.672 64.0639 113.317 76.0643 110.302L76.0781 110.298L76.0923 110.301C87.7717 112.439 102.248 115.091 118.879 118.136L118.846 118.136C131.367 115.78 145.498 113.122 160.718 110.258L160.741 110.254L160.764 110.259C172.672 113.186 185.47 116.331 198.863 119.622L198.923 119.637L198.945 119.695C209.034 145.694 220.175 174.404 231.913 204.65L231.998 204.872L231.765 204.827C221.736 202.889 211.12 200.838 200.364 198.76C189.822 196.723 179.414 194.711 169.179 192.733L169.234 192.732C151.907 196.893 135.072 200.935 118.892 204.821L118.863 204.828L118.833 204.822C100.985 200.687 83.9485 196.74 67.8901 193.02L67.9348 193.022C45.3878 196.679 24.7721 200.024 6.55522 202.979L6.39062 203.006L6.45057 202.85C16.3708 177.168 24.4002 156.382 29.9496 142.014C32.7269 134.839 34.8833 129.267 36.3469 125.487C37.0794 123.601 37.6382 122.163 38.0146 121.194C38.3916 120.228 38.5892 119.739 38.5892 119.739C38.5892 119.739 38.4038 120.242 38.0334 121.215C37.6611 122.188 37.1089 123.633 36.3845 125.526C34.9306 129.314 32.7883 134.895 30.0294 142.084C24.5029 156.451 16.5074 177.236 6.62939 202.918L6.52474 202.79C24.7396 199.822 45.3532 196.465 67.8977 192.791L67.9201 192.788L67.9424 192.793C84.0023 196.507 101.04 200.446 118.89 204.575H118.832C135.011 200.687 151.846 196.64 169.172 192.476L169.2 192.47L169.228 192.475C179.464 194.453 189.871 196.464 200.414 198.5C211.17 200.579 221.785 202.631 231.815 204.569L231.667 204.745C219.938 174.496 208.804 145.783 198.722 119.781L198.805 119.855C185.414 116.556 172.618 113.404 160.712 110.471L160.758 110.473C145.536 113.324 131.403 115.971 118.88 118.317L118.863 118.32L118.846 118.317C102.219 115.252 87.7458 112.583 76.0689 110.43L76.0969 110.43C64.0999 113.414 54.7289 115.745 48.355 117.33C45.1663 118.12 42.7279 118.724 41.084 119.131C39.4401 119.537 38.5892 119.739 38.5892 119.739Z" fill="#A6AEC1"/>
<g opacity="0.2">
<path opacity="0.2" d="M118.106 207.42L118.862 114.902L76.6846 107.041L68.2188 196.233L118.106 207.42Z" fill="black"/>
</g>
<g opacity="0.2">
<path opacity="0.2" d="M160.133 107.041L169.203 196.233L237.534 209.268L200.95 117.32L160.133 107.041Z" fill="black"/>
</g>
<path d="M119.187 27.3542C89.7187 28.038 65.6898 52.0552 64.9887 81.5232C64.6885 94.144 68.6128 105.828 75.4286 115.289L75.4139 115.294L75.9549 116.03C75.9808 116.064 76.0057 116.1 76.0311 116.134L115.353 169.619C118.815 174.327 125.898 174.179 129.16 169.33L164.702 116.49C171.428 106.233 176.041 95.5115 176.041 82.8735C176.042 51.7641 150.462 26.6288 119.187 27.3542ZM120.507 123.258C97.4484 123.258 78.7555 104.565 78.7555 81.5065C78.7555 58.4478 97.4484 39.755 120.507 39.755C143.566 39.755 162.259 58.4478 162.259 81.5065C162.259 104.566 143.566 123.258 120.507 123.258Z" fill="#90C63E"/>
<g opacity="0.3">
<path opacity="0.3" d="M119.187 27.3542C89.7187 28.038 65.6898 52.0552 64.9887 81.5232C64.6885 94.144 68.6128 105.828 75.4286 115.289L75.4139 115.294L75.9549 116.03C75.9808 116.064 76.0057 116.1 76.0311 116.134L115.353 169.619C118.815 174.327 125.898 174.179 129.16 169.33L164.702 116.49C171.428 106.233 176.041 95.5115 176.041 82.8735C176.042 51.7641 150.462 26.6288 119.187 27.3542ZM120.507 123.258C97.4484 123.258 78.7555 104.565 78.7555 81.5065C78.7555 58.4478 97.4484 39.755 120.507 39.755C143.566 39.755 162.259 58.4478 162.259 81.5065C162.259 104.566 143.566 123.258 120.507 123.258Z" fill="black"/>
</g>
<path d="M115.896 27.3542C86.4276 28.038 62.3993 52.0552 61.6977 81.5232C61.3975 94.144 65.3218 105.828 72.1376 115.289L72.1229 115.294L72.6639 116.03C72.6898 116.064 72.7147 116.1 72.7401 116.134L112.062 169.619C115.524 174.327 122.607 174.179 125.868 169.33L161.41 116.49C168.136 106.233 172.75 95.5115 172.75 82.8735C172.751 51.7641 147.17 26.6288 115.896 27.3542ZM117.216 123.258C94.1574 123.258 75.4645 104.565 75.4645 81.5065C75.4645 58.4478 94.1574 39.755 117.216 39.755C140.275 39.755 158.968 58.4478 158.968 81.5065C158.968 104.566 140.275 123.258 117.216 123.258Z" fill="#90C63E"/>
<g opacity="0.3">
<g opacity="0.3">
<path opacity="0.3" d="M141.236 112.997C140.568 113.753 96.4161 125.412 95.748 126.167C104.215 128.75 114.559 130.998 123.397 130.485C128.38 130.196 133.576 129.308 137.516 126.243C141.455 123.177 143.634 117.375 141.236 112.997Z" fill="black"/>
</g>
</g>
<path d="M99.0725 28.7402C96.5081 31.4159 95.3885 35.4011 96.185 39.0206C96.5721 40.7788 97.3468 42.7392 96.3806 44.2586C95.424 45.7623 93.1711 46.0387 92.2673 47.5748C91.2036 49.3833 92.625 51.6536 92.4467 53.744C92.279 55.7064 90.4695 57.3889 88.5 57.4133C91.0283 58.948 93.9854 59.7669 96.9425 59.7511C97.551 58.694 98.1596 57.6373 98.7682 56.5802C98.0646 57.6993 98.5127 59.2629 99.4733 60.1707C100.434 61.0785 101.774 61.459 103.077 61.68C109.304 62.7356 115.982 60.667 120.522 56.2764" fill="#263238"/>
<path d="M134.696 39.7626C134.06 38.4622 133.136 37.3039 132.64 35.944C131.573 33.021 132.565 29.4233 130.724 26.9153C129.413 25.1307 127.063 24.4957 124.877 24.1442C122.69 23.7926 120.363 23.5605 118.585 22.2407C117.28 21.273 116.41 19.8104 115.109 18.8381C113.254 17.4528 110.774 17.243 108.466 17.4233C106.097 17.6082 103.699 18.1747 101.731 19.5082C99.7628 20.8412 98.281 23.0342 98.2302 25.4111C98.2053 26.5694 98.5106 27.7378 98.3064 28.8782C98.0818 30.133 97.2706 31.1978 96.8464 32.4002C95.9508 34.9402 97.0633 38.0359 99.3701 39.4253L118.421 58.0004C121.989 58.8055 129.983 56.1065 132.251 53.2373C134.52 50.3666 136.304 43.0484 134.696 39.7626Z" fill="#263238"/>
<path d="M99.4238 36.7178C99.4259 31.8938 102.24 25.7993 107.059 26.0061L122.246 28.8484C123.71 28.9113 124.882 30.0838 124.945 31.5479L125.603 67.6972C125.638 67.7028 125.672 67.7078 125.707 67.7129C125.707 67.7129 122.962 78.0995 112.882 75.6342C110.883 75.1455 109.85 73.0611 109.319 70.8823L109.218 70.9021C109.197 70.6405 109.178 70.3972 109.159 70.1478C108.668 67.6255 108.779 65.2029 108.779 65.2029C108.562 62.2946 108.488 61.1013 108.488 61.1282C108.488 61.1282 102.285 60.4937 100.512 52.5643C99.6306 48.6202 99.4218 42.0772 99.4238 36.7178Z" fill="#FFBE9D"/>
<path d="M113.336 41.6602C113.351 42.2037 113.823 42.6396 114.392 42.6345C114.959 42.6294 115.407 42.186 115.393 41.6419C115.377 41.0983 114.906 40.662 114.339 40.667C113.77 40.6726 113.322 41.1171 113.336 41.6602Z" fill="#263238"/>
<path d="M102.846 42.4619C102.861 43.0055 103.333 43.4413 103.902 43.4363C104.469 43.4312 104.917 42.9877 104.902 42.4436C104.888 41.9001 104.415 41.4637 103.848 41.4688C103.28 41.4739 102.831 41.9184 102.846 42.4619Z" fill="#263238"/>
<path d="M100.644 40.1893C100.78 40.36 101.642 39.6295 102.85 39.6361C104.057 39.6229 104.931 40.3478 105.065 40.1761C105.13 40.0999 104.994 39.7921 104.613 39.4644C104.239 39.1378 103.596 38.8193 102.843 38.8213C102.091 38.8243 101.453 39.1454 101.084 39.4746C100.707 39.8048 100.577 40.1131 100.644 40.1893Z" fill="#263238"/>
<path d="M111.806 39.9174C111.97 40.0688 112.806 39.2631 114.086 39.1392C115.364 38.9954 116.37 39.6081 116.493 39.4262C116.554 39.3449 116.378 39.0594 115.937 38.7805C115.504 38.5027 114.788 38.2619 113.99 38.3447C113.193 38.429 112.551 38.811 112.195 39.1717C111.833 39.5354 111.727 39.8499 111.806 39.9174Z" fill="#263238"/>
<path d="M108.433 48.0007C108.434 47.9372 107.74 47.862 106.617 47.7889C106.333 47.7777 106.062 47.7381 106.003 47.5486C105.924 47.3484 106.023 47.0375 106.139 46.7002C106.362 46.0007 106.595 45.2672 106.839 44.4991C107.806 41.3662 108.488 38.7978 108.362 38.7602C108.235 38.7221 107.348 41.2306 106.381 44.3629C106.149 45.1351 105.927 45.8712 105.717 46.5747C105.63 46.9024 105.469 47.2778 105.64 47.6918C105.729 47.8981 105.946 48.0383 106.129 48.0754C106.314 48.1191 106.473 48.1125 106.613 48.112C107.737 48.1023 108.433 48.0637 108.433 48.0007Z" fill="#263238"/>
<path d="M108.49 61.1283C108.49 61.1283 113.9 61.1385 119.037 57.5957C119.037 57.5957 116.78 63.2604 108.717 63.013L108.49 61.1283Z" fill="#EB996E"/>
<path d="M109.068 50.6347C109.433 50.0845 110.111 49.7518 110.807 49.7833C111.29 49.8046 111.789 50.0058 112.105 50.3782C112.421 50.7505 112.517 51.3012 112.275 51.6903C112.003 52.1287 111.386 52.2644 110.849 52.1475C110.312 52.0307 109.837 51.7122 109.383 51.3932C109.258 51.3048 109.13 51.2128 109.047 51.0863C108.964 50.9598 108.938 50.7896 109.023 50.6748" fill="#FF725E"/>
<path d="M111.733 48.5619C111.553 48.5624 111.626 49.7623 110.652 50.6787C109.681 51.5972 108.393 51.5423 108.395 51.711C108.383 51.7872 108.695 51.9264 109.235 51.9071C109.765 51.8918 110.528 51.6734 111.124 51.1131C111.718 50.5517 111.943 49.838 111.953 49.3432C111.967 48.8388 111.815 48.5497 111.733 48.5619Z" fill="#263238"/>
<path d="M111.389 36.1767C111.517 36.4703 112.611 36.2589 113.918 36.3341C115.227 36.3829 116.296 36.6968 116.451 36.4169C116.52 36.2833 116.32 36.0121 115.879 35.7474C115.442 35.4832 114.756 35.249 113.972 35.2109C113.188 35.1749 112.483 35.343 112.023 35.5645C111.558 35.7855 111.333 36.037 111.389 36.1767Z" fill="#263238"/>
<path d="M101.264 36.8025C101.502 37.0392 102.356 36.7247 103.401 36.6465C104.444 36.5368 105.345 36.6943 105.532 36.4189C105.614 36.2858 105.458 36.043 105.056 35.8296C104.66 35.6168 104.01 35.4634 103.291 35.5274C102.573 35.5924 101.965 35.8586 101.617 36.139C101.263 36.4199 101.158 36.6861 101.264 36.8025Z" fill="#263238"/>
<path d="M125.614 29.5382C124.725 28.5146 123.328 28.1193 122.008 27.8115C116.313 26.4826 110.458 25.8354 104.61 25.8877C104.06 27.1668 104.947 28.6787 106.146 29.3853C107.345 30.0924 108.779 30.2367 110.139 30.5389C111.498 30.8412 112.926 31.3995 113.636 32.5969C114.392 33.8704 114.139 35.5397 114.829 36.8493C116.017 39.1033 119.437 39.4046 120.612 41.6646C121.501 43.3746 120.728 45.4355 120.731 47.3619C120.737 49.5458 121.847 51.6987 123.623 52.9687C125.024 53.9699 126.808 54.3921 128.515 54.1858C127.954 47.3197 127.392 40.4536 126.831 33.5875C126.714 32.1574 126.554 30.6212 125.614 29.5382Z" fill="#263238"/>
<path d="M141.747 44.8215C140.536 44.0082 139.071 43.3635 138.449 42.0443C137.543 40.1225 138.825 37.5358 137.529 35.8517C136.348 34.3161 133.568 34.7915 132.448 33.2101C131.573 31.9752 132.198 30.6864 131.773 29.5536C131.347 28.4212 129.544 27.6277 128.374 27.9346L120.962 42.7194C120.731 47.3625 120.2 49.8918 121.542 52.4014C122.278 53.7775 123.17 55.0953 123.594 56.5974C124.017 58.1001 123.869 59.8898 122.744 60.9713C128.366 60.6279 133.17 56.9866 137.592 53.4971C139.152 52.2662 140.712 51.0354 142.272 49.804C142.759 49.4199 143.265 49.011 143.509 48.4405C144.083 47.0989 142.957 45.6348 141.747 44.8215Z" fill="#263238"/>
<path d="M137.54 52.1143C137.54 52.1143 137.352 52.2159 136.961 52.3119C136.573 52.4069 135.977 52.5085 135.212 52.4318C134.454 52.3561 133.512 52.1062 132.613 51.4696C131.716 50.8448 130.915 49.7856 130.567 48.4414C130.396 47.7714 130.339 47.0343 130.451 46.2824C130.563 45.5276 130.872 44.7981 131.194 44.0706C131.51 43.3432 131.862 42.5928 131.959 41.7765C132.054 40.9749 131.927 40.0554 131.331 39.46C130.73 38.8529 129.766 38.8189 128.845 38.5898C128.382 38.476 127.89 38.2672 127.536 37.8781C127.183 37.4895 127.01 36.9749 126.95 36.4735C126.819 35.4534 127.122 34.4618 127.176 33.488C127.205 33.0003 127.17 32.504 126.986 32.0661C126.804 31.6282 126.461 31.2695 126.024 31.0506C125.142 30.5898 124.104 30.6416 123.106 30.6929C122.104 30.7605 121.036 30.6823 120.122 30.251C119.201 29.8466 118.417 29.1918 117.861 28.3993C117.309 27.5962 117.023 26.6909 116.764 25.8354C116.507 24.9769 116.267 24.1402 115.869 23.4118C115.471 22.6864 114.908 22.0874 114.284 21.6231C113.013 20.7133 111.517 20.3435 110.192 20.4202C108.859 20.4938 107.711 21.011 106.848 21.6206C105.977 22.2322 105.36 22.9353 104.934 23.5525C104.088 24.8037 103.921 25.6566 103.876 25.6358C103.871 25.6343 103.882 25.583 103.909 25.4839C103.94 25.3864 103.972 25.2355 104.044 25.0491C104.175 24.6706 104.414 24.124 104.829 23.4819C105.244 22.8443 105.858 22.1138 106.742 21.4722C107.617 20.8332 108.791 20.282 110.178 20.19C111.552 20.0961 113.107 20.4628 114.443 21.4042C115.099 21.8842 115.696 22.5101 116.121 23.2741C116.544 24.0376 116.792 24.8951 117.052 25.7486C117.313 26.6005 117.598 27.4727 118.117 28.2215C118.641 28.9637 119.383 29.5799 120.251 29.9584C121.119 30.3612 122.091 30.4339 123.091 30.3678C124.079 30.3191 125.187 30.2484 126.176 30.7605C126.665 31.0038 127.078 31.4306 127.286 31.9391C127.499 32.4471 127.53 32.9932 127.501 33.5052C127.437 34.5375 127.145 35.4971 127.268 36.4349C127.322 36.8961 127.476 37.3391 127.77 37.6652C128.066 37.9909 128.483 38.1773 128.924 38.2875C129.364 38.4044 129.828 38.4623 130.284 38.5847C130.737 38.7011 131.203 38.8987 131.543 39.2461C132.235 39.9517 132.349 40.9606 132.245 41.811C132.134 42.6904 131.762 43.4559 131.442 44.1808C131.114 44.9047 130.813 45.6078 130.701 46.3211C130.588 47.0348 130.635 47.7399 130.793 48.384C131.112 49.6769 131.867 50.7051 132.721 51.3203C133.579 51.9482 134.489 52.2108 135.227 52.3038C136.732 52.4709 137.536 52.0559 137.54 52.1143Z" fill="#455A64"/>
<path d="M143.616 41.49C143.616 41.49 143.747 41.6104 143.863 41.9193C143.98 42.2215 144.043 42.7392 143.817 43.3315C143.699 43.6211 143.511 43.9314 143.211 44.1793C142.912 44.4257 142.515 44.6071 142.067 44.6625C141.183 44.7961 140.065 44.4085 139.414 43.457C139.087 42.9937 138.866 42.4278 138.78 41.8172C138.695 41.2035 138.766 40.5583 138.914 39.9243C139.187 38.6589 139.823 37.3737 139.644 35.965C139.564 35.2812 139.3 34.5629 138.73 34.1433C138.165 33.7105 137.382 33.6952 136.62 33.7953C135.855 33.8766 135.038 34.0905 134.177 33.8832C133.754 33.777 133.352 33.5322 133.07 33.1883C132.784 32.8474 132.603 32.4374 132.491 32.0183C132.267 31.1654 132.355 30.316 132.346 29.5174C132.358 28.7153 132.201 27.9487 131.895 27.2436C131.282 25.838 130.13 24.7468 128.831 24.2099C127.524 23.6516 126.118 23.7689 124.851 23.87C123.577 23.9802 122.344 24.0722 121.253 23.808C120.165 23.5667 119.253 23.1009 118.541 22.5893C117.821 22.0813 117.304 21.5175 116.931 21.0283C116.19 20.0336 116.021 19.3559 116.021 19.3559C116.059 19.3356 116.272 19.997 117.031 20.9495C117.413 21.4184 117.934 21.9579 118.646 22.4395C119.352 22.9251 120.246 23.363 121.302 23.582C122.356 23.8228 123.551 23.7222 124.828 23.5998C126.094 23.4895 127.549 23.3478 128.946 23.9315C130.322 24.4923 131.536 25.6318 132.19 27.1161C132.515 27.8543 132.684 28.6904 132.672 29.5159C132.679 30.3348 132.601 31.1613 132.808 31.9355C132.997 32.7082 133.507 33.3981 134.259 33.5693C135.001 33.7552 135.798 33.5647 136.583 33.4778C137.355 33.3783 138.249 33.3813 138.918 33.8944C139.585 34.3953 139.86 35.2004 139.944 35.931C140.033 36.6752 139.912 37.4123 139.725 38.0742C139.544 38.7422 139.325 39.3696 139.179 39.9868C139.029 40.6015 138.958 41.2121 139.031 41.7851C139.105 42.3577 139.306 42.8906 139.604 43.3254C140.196 44.2159 141.217 44.5868 142.045 44.4816C142.462 44.4389 142.833 44.2784 143.113 44.059C143.395 43.8385 143.58 43.553 143.7 43.2837C143.931 42.7315 143.894 42.2373 143.801 41.9401C143.709 41.6363 143.6 41.4997 143.616 41.49Z" fill="#263238"/>
<path d="M85.4661 53.0284C85.5174 53.0178 85.24 53.604 85.6886 54.4803C85.9101 54.8913 86.3459 55.3683 87.0089 55.4907C87.6545 55.6152 88.4897 55.3317 88.9718 54.6469C89.2141 54.3101 89.3213 53.8722 89.2867 53.415C89.2532 52.9583 89.0962 52.492 88.8763 52.0373C88.449 51.1371 87.7028 50.1968 87.623 48.9568C87.5235 47.7569 87.9563 46.4539 88.8646 45.5055C89.3126 45.0295 89.8608 44.6363 90.4699 44.3498C91.0795 44.0546 91.7541 43.9139 92.4109 43.7874C93.0698 43.6604 93.7205 43.5507 94.3053 43.317C94.8874 43.0879 95.3919 42.7028 95.6713 42.177C95.9527 41.6528 96.0223 41.0401 95.9817 40.4554C95.941 39.8656 95.7906 39.3018 95.5971 38.7602C95.2136 37.6807 94.7294 36.647 94.6426 35.5761C94.5496 34.5118 94.8199 33.5177 95.2572 32.7343C95.6941 31.9373 96.3281 31.3983 96.8554 30.9492C97.3908 30.4991 97.846 30.1125 98.164 29.7448C98.8193 29.0127 98.8681 28.426 98.9113 28.4458C98.9169 28.4468 98.9133 28.4809 98.9011 28.5469C98.8859 28.6114 98.8767 28.713 98.828 28.8349C98.7518 29.0854 98.5786 29.442 98.2611 29.8265C97.9496 30.2167 97.497 30.6256 96.9748 31.0869C96.4571 31.5502 95.8613 32.0816 95.4599 32.8451C95.0556 33.5979 94.8133 34.5484 94.9123 35.5502C95.0038 36.5581 95.4797 37.5598 95.8811 38.6586C96.0817 39.2088 96.2473 39.8062 96.2931 40.4326C96.3393 41.0549 96.2717 41.7285 95.9532 42.3284C95.6367 42.9314 95.0546 43.3724 94.4262 43.6182C93.7947 43.8712 93.1272 43.9804 92.4714 44.1085C91.815 44.235 91.178 44.3686 90.607 44.6444C90.0335 44.9126 89.5174 45.2814 89.0967 45.7249C88.2458 46.6073 87.8389 47.8174 87.9228 48.9334C87.9817 50.0698 88.6771 50.9741 89.1201 51.921C89.3431 52.3975 89.5072 52.8953 89.5372 53.3993C89.5702 53.8996 89.4396 54.4051 89.1587 54.7805C88.6035 55.5374 87.687 55.8234 86.9718 55.67C86.2377 55.5131 85.7902 54.9807 85.5733 54.5382C85.3482 54.082 85.335 53.6721 85.3614 53.4135C85.3975 53.1519 85.4661 53.0284 85.4661 53.0284Z" fill="#263238"/>
<path d="M87.3423 84.0034C87.3423 84.0034 88.1963 77.1738 91.4891 73.759C94.782 70.3443 108.558 66.0684 108.558 66.0684C108.558 66.0684 109.127 70.9401 112.426 72.1151C115.925 73.3618 119.878 72.8934 122.441 69.9206C124.919 67.0463 125.642 63.3496 125.642 63.3496C125.642 63.3496 142.095 64.8634 144.778 69.376C147.461 73.8886 150.931 91.3658 150.931 91.3658L135.548 94.6307L137.639 124.739H96.7632L97.5633 96.4844L86.4355 98.0729L87.3423 84.0034Z" fill="#455A64"/>
<path d="M132.495 95.6256C132.47 95.6251 132.452 95.3833 132.44 94.9464C132.428 94.5095 132.422 93.8776 132.422 93.0973C132.422 91.5362 132.447 89.3802 132.497 86.9997C132.546 84.6182 132.61 82.4628 132.675 80.9027C132.707 80.1224 132.739 79.491 132.769 79.0546C132.8 78.6183 132.828 78.377 132.853 78.377C132.877 78.377 132.895 78.6183 132.907 79.0546C132.919 79.491 132.925 80.123 132.925 80.9032C132.925 82.4643 132.9 84.6208 132.851 87.0033C132.801 89.3853 132.737 91.5413 132.672 93.1018C132.64 93.8821 132.608 94.5131 132.577 94.9494C132.547 95.3853 132.519 95.6261 132.495 95.6256Z" fill="#263238"/>
<path d="M95.9139 90.0467C94.8239 86.2536 93.8639 83.2006 93.7698 83.2276C93.6757 83.2547 94.4831 86.3515 95.5731 90.1446C96.6632 93.9378 97.6232 96.9908 97.7173 96.9637C97.8114 96.9367 97.004 93.8398 95.9139 90.0467Z" fill="#263238"/>
<path d="M143.059 68.2921C143.07 68.3551 142.329 68.4912 141.206 68.9179C140.084 69.3401 138.598 70.1168 137.214 71.3152C135.835 72.5202 134.859 73.8846 134.286 74.9372C133.707 75.9903 133.47 76.7056 133.409 76.6847C133.385 76.6771 133.427 76.4937 133.525 76.1656C133.616 75.8359 133.797 75.3726 134.064 74.8214C134.592 73.717 135.563 72.2865 136.981 71.048C138.404 69.8156 139.956 69.0515 141.122 68.6817C141.705 68.4943 142.189 68.3789 142.529 68.3347C142.867 68.2844 143.054 68.2682 143.059 68.2921Z" fill="#263238"/>
<path d="M91.9577 77.2551C91.6539 76.0598 91.3307 75.1103 91.2358 75.1344C91.1409 75.1585 91.3103 76.1471 91.614 77.3425C91.9178 78.5378 92.241 79.4873 92.3359 79.4632C92.4308 79.4391 92.2615 78.4505 91.9577 77.2551Z" fill="#263238"/>
<path d="M148.196 91.9473C148.196 91.9473 143.588 115.345 143.061 117.347C142.534 119.349 141.683 124.739 136.103 125.853C128.571 127.357 98.9883 126.308 98.9883 126.308L104.569 119.244L130.451 111.986L133.988 94.9622L148.196 91.9473Z" fill="#FFBE9D"/>
<path d="M104.079 115.294C104.1 115.287 104.188 115.475 104.3 115.833C104.413 116.191 104.534 116.723 104.597 117.394C104.731 118.722 104.545 120.664 103.54 122.49C103.043 123.384 102.484 124.2 101.847 124.836C101.214 125.478 100.505 125.91 99.8712 126.152C99.2362 126.397 98.6881 126.471 98.3152 126.502C97.9393 126.518 97.733 126.506 97.7325 126.483C97.7209 126.408 98.5748 126.434 99.7752 125.92C100.369 125.66 101.023 125.232 101.614 124.608C102.21 123.99 102.744 123.195 103.231 122.318C104.194 120.57 104.415 118.709 104.348 117.41C104.288 116.098 104.016 115.311 104.079 115.294Z" fill="#EB996E"/>
<path d="M79.3086 87.6017C79.3086 87.6017 83.4798 101.637 85.2105 107.701C87.0495 114.145 91.0668 128.777 99.6332 126.178C106.149 124.2 104.231 115.756 104.231 115.756L97.5631 96.4836L92.3779 97.3487L87.3421 84.3525L79.3086 87.6017Z" fill="#FFBE9D"/>
<path d="M101.952 116.363C101.871 116.358 102.405 115.137 101.955 113.188C101.736 112.227 101.282 111.125 100.566 110.033C99.8513 108.935 98.8881 107.851 97.864 106.718C96.8358 105.589 95.8807 104.465 95.1512 103.346C94.4106 102.235 93.8589 101.164 93.4474 100.245C93.0385 99.3237 92.7753 98.5516 92.6123 98.0141C92.4492 97.4761 92.3898 97.1698 92.4101 97.1642C92.437 97.1561 92.5406 97.4487 92.7428 97.9694C92.9445 98.4901 93.2412 99.2424 93.6745 100.139C94.1099 101.034 94.6773 102.079 95.4215 103.163C96.1551 104.255 97.0974 105.351 98.1271 106.481C99.1507 107.613 100.122 108.72 100.84 109.856C101.561 110.989 102.006 112.137 102.199 113.136C102.403 114.136 102.336 114.976 102.228 115.529C102.165 115.807 102.108 116.019 102.049 116.156C101.997 116.296 101.964 116.367 101.952 116.363Z" fill="#EB996E"/>
<path d="M87.3433 84.3519C87.3433 84.3519 87.3728 78.7471 86.88 77.1667L82.9197 68.3164C82.9197 68.3164 81.8996 67.6915 81.4124 69.4563C80.9329 71.1932 82.4706 73.0347 82.4706 73.0347L82.591 75.3517L80.9877 74.0486L77.9026 68.2671C77.9026 68.2671 75.7777 64.0578 75.2255 64.7258C74.6733 65.3938 74.8557 66.7472 75.7726 68.5638C76.6895 70.3804 77.8529 72.6841 77.8529 72.6841C77.8529 72.6841 78.1663 73.4152 77.0746 72.3545C75.9829 71.2932 73.6106 66.1528 73.1198 65.5107C72.6291 64.8686 71.956 62.9849 70.8922 63.4106C69.8285 63.8363 71.1909 66.0954 71.1909 66.0954L74.5935 73.7179C74.5935 73.7179 72.621 70.8315 72.2644 70.3443C71.9072 69.8576 71.0883 68.2046 70.4411 67.3634C69.7945 66.5226 69.0894 66.1939 68.6205 66.3966C67.7757 66.7619 68.0317 67.5584 68.0317 67.5584L71.6644 73.8622C71.6644 73.8622 73.481 76.6892 73.478 76.9036C73.4749 77.118 71.8945 75.9699 71.8945 75.9699L70.3715 74.0288C70.3715 74.0288 68.7241 71.121 67.8595 71.2795C66.9944 71.4385 67.1518 72.0812 67.1518 72.0812L70.213 77.3745L74.652 83.0844L79.3992 87.8007L82.1414 86.9168L87.3433 84.3519Z" fill="#FFBE9D"/>
<path d="M78.6122 83.4054C78.6839 83.4095 78.7281 82.7196 78.8962 81.6391C79.0735 80.5891 79.4362 79.0229 80.7209 78.0089C81.2828 77.5578 81.9488 77.3038 82.5655 77.3054L82.7926 77.3059L82.7768 77.0595C82.7067 75.9729 82.7458 74.9386 82.7062 74.2507C82.6844 73.5512 82.6097 73.1316 82.5538 73.1408C82.5132 73.1484 82.4974 73.5482 82.4456 74.2472C82.4141 74.9569 82.3095 75.9023 82.3582 77.127L82.5691 76.8812C81.8462 76.8583 81.0664 77.1479 80.439 77.6538C79.7375 78.2076 79.2681 78.9492 79.0039 79.6579C78.7342 80.3676 78.631 81.0407 78.5782 81.5979C78.4883 82.7181 78.5589 83.4034 78.6122 83.4054Z" fill="#EB996E"/>
</svg>
