<svg width="242" height="147" viewBox="0 0 242 147" fill="none" xmlns="http://www.w3.org/2000/svg">
<mask id="path-1-inside-1" fill="white">
<path d="M114.761 127.42H22.0645C21.3383 127.418 20.6423 127.129 20.1293 126.615C19.6163 126.101 19.3281 125.405 19.3281 124.678V-5.62656C19.3344 -6.34857 19.6254 -7.03893 20.1377 -7.54769C20.6501 -8.05645 21.3425 -8.34251 22.0645 -8.34375H114.761C115.488 -8.34375 116.185 -8.05495 116.699 -7.54087C117.213 -7.0268 117.502 -6.32957 117.502 -5.60256V124.678C117.502 125.406 117.213 126.103 116.699 126.617C116.185 127.131 115.488 127.42 114.761 127.42ZM22.0645 -8.24774C21.3702 -8.24646 20.7047 -7.96975 20.2142 -7.47832C19.7236 -6.98689 19.4481 -6.32091 19.4481 -5.62656V124.678C19.4481 125.373 19.7236 126.039 20.2142 126.53C20.7047 127.022 21.3702 127.298 22.0645 127.3H114.761C115.455 127.297 116.121 127.02 116.612 126.529C117.103 126.038 117.38 125.373 117.382 124.678V-5.62656C117.38 -6.32096 117.103 -6.9862 116.612 -7.47722C116.121 -7.96824 115.455 -8.24521 114.761 -8.24774H22.0645Z"/>
</mask>
<path d="M114.761 127.42H22.0645C21.3383 127.418 20.6423 127.129 20.1293 126.615C19.6163 126.101 19.3281 125.405 19.3281 124.678V-5.62656C19.3344 -6.34857 19.6254 -7.03893 20.1377 -7.54769C20.6501 -8.05645 21.3425 -8.34251 22.0645 -8.34375H114.761C115.488 -8.34375 116.185 -8.05495 116.699 -7.54087C117.213 -7.0268 117.502 -6.32957 117.502 -5.60256V124.678C117.502 125.406 117.213 126.103 116.699 126.617C116.185 127.131 115.488 127.42 114.761 127.42ZM22.0645 -8.24774C21.3702 -8.24646 20.7047 -7.96975 20.2142 -7.47832C19.7236 -6.98689 19.4481 -6.32091 19.4481 -5.62656V124.678C19.4481 125.373 19.7236 126.039 20.2142 126.53C20.7047 127.022 21.3702 127.298 22.0645 127.3H114.761C115.455 127.297 116.121 127.02 116.612 126.529C117.103 126.038 117.38 125.373 117.382 124.678V-5.62656C117.38 -6.32096 117.103 -6.9862 116.612 -7.47722C116.121 -7.96824 115.455 -8.24521 114.761 -8.24774H22.0645Z" fill="#EBEBEB"/>
<path d="M22.0645 127.42L22.0628 128.42H22.0645V127.42ZM19.3281 124.678L20.3281 124.679V124.678H19.3281ZM19.3281 -5.62656L18.3281 -5.63532V-5.62656H19.3281ZM22.0645 -8.34375V-9.34375L22.0628 -9.34375L22.0645 -8.34375ZM114.761 -8.34375V-9.34375V-8.34375ZM117.502 124.678H116.502H117.502ZM22.0645 -8.24774V-9.24774L22.0627 -9.24773L22.0645 -8.24774ZM19.4481 -5.62656H20.4481V-5.62656L19.4481 -5.62656ZM19.4481 124.678L20.4481 124.679V124.678H19.4481ZM22.0645 127.3L22.0627 128.3H22.0645V127.3ZM114.761 127.3V128.3L114.765 128.3L114.761 127.3ZM117.382 124.678L118.382 124.682V124.678H117.382ZM117.382 -5.62656H118.382L118.382 -5.6302L117.382 -5.62656ZM114.761 -8.24774L114.765 -9.24774H114.761V-8.24774ZM114.761 126.42H22.0645V128.42H114.761V126.42ZM22.0663 126.42C21.605 126.419 21.1629 126.235 20.837 125.909L19.4216 127.322C20.1218 128.023 21.0717 128.418 22.0628 128.42L22.0663 126.42ZM20.837 125.909C20.5112 125.582 20.3281 125.14 20.3281 124.679L18.3281 124.678C18.3281 125.67 18.7214 126.62 19.4216 127.322L20.837 125.909ZM20.3281 124.678V-5.62656H18.3281V124.678H20.3281ZM20.3281 -5.61781C20.3321 -6.07642 20.5169 -6.51494 20.8423 -6.8381L19.4331 -8.25728C18.7339 -7.56293 18.3368 -6.62072 18.3282 -5.63532L20.3281 -5.61781ZM20.8423 -6.8381C21.1678 -7.16126 21.6076 -7.34297 22.0662 -7.34375L22.0628 -9.34375C21.0774 -9.34206 20.1324 -8.95164 19.4331 -8.25728L20.8423 -6.8381ZM22.0645 -7.34375H114.761V-9.34375H22.0645V-7.34375ZM114.761 -7.34375C115.223 -7.34375 115.666 -7.1603 115.992 -6.83377L117.406 -8.24798C116.705 -8.94959 115.753 -9.34375 114.761 -9.34375V-7.34375ZM115.992 -6.83377C116.319 -6.50723 116.502 -6.06435 116.502 -5.60256H118.502C118.502 -6.59479 118.108 -7.54637 117.406 -8.24798L115.992 -6.83377ZM116.502 -5.60256V124.678H118.502V-5.60256H116.502ZM116.502 124.678C116.502 125.14 116.319 125.583 115.992 125.91L117.406 127.324C118.108 126.622 118.502 125.671 118.502 124.678H116.502ZM115.992 125.91C115.666 126.236 115.223 126.42 114.761 126.42V128.42C115.753 128.42 116.705 128.026 117.406 127.324L115.992 125.91ZM22.0627 -9.24773C21.1034 -9.24598 20.1841 -8.86369 19.5064 -8.18478L20.9219 -6.77186C21.2253 -7.0758 21.6369 -7.24695 22.0663 -7.24774L22.0627 -9.24773ZM19.5064 -8.18478C18.8287 -7.50586 18.4481 -6.58581 18.4481 -5.62656L20.4481 -5.62656C20.4481 -6.05601 20.6185 -6.46791 20.9219 -6.77186L19.5064 -8.18478ZM18.4481 -5.62656V124.678H20.4481V-5.62656H18.4481ZM18.4481 124.678C18.4481 125.638 18.8287 126.558 19.5064 127.237L20.9219 125.824C20.6185 125.52 20.4481 125.108 20.4481 124.679L18.4481 124.678ZM19.5064 127.237C20.1841 127.916 21.1034 128.298 22.0627 128.3L22.0663 126.3C21.6369 126.299 21.2253 126.128 20.9219 125.824L19.5064 127.237ZM22.0645 128.3H114.761V126.3H22.0645V128.3ZM114.765 128.3C115.723 128.296 116.641 127.914 117.319 127.236L115.905 125.822C115.6 126.126 115.188 126.298 114.757 126.3L114.765 128.3ZM117.319 127.236C117.996 126.559 118.379 125.641 118.382 124.682L116.382 124.675C116.381 125.105 116.209 125.518 115.905 125.822L117.319 127.236ZM118.382 124.678V-5.62656H116.382V124.678H118.382ZM118.382 -5.6302C118.379 -6.58856 117.996 -7.50666 117.319 -8.18432L115.905 -6.77011C116.209 -6.46573 116.381 -6.05336 116.382 -5.62292L118.382 -5.6302ZM117.319 -8.18432C116.641 -8.86199 115.723 -9.24424 114.765 -9.24773L114.757 -7.24774C115.188 -7.24617 115.6 -7.07448 115.905 -6.77011L117.319 -8.18432ZM114.761 -9.24774H22.0645V-7.24774H114.761V-9.24774Z" fill="white" mask="url(#path-1-inside-1)"/>
<path d="M221.224 -5.62559V124.678V-5.62559ZM221.224 -5.62559L221.334 -5.62656L221.224 -5.62559Z" fill="#EBEBEB" stroke="white"/>
<path d="M98.8148 5.87988H38.2109V96.5841H98.8148V5.87988Z" fill="#E6E6E6"/>
<path d="M97.473 5.87988H36.8691V96.5841H97.473V5.87988Z" fill="#F5F5F5"/>
<path d="M95.0528 8.59766H39.2832V93.8723H95.0528V8.59766Z" fill="white"/>
<path d="M40.3049 8.59277H39.2871V93.8674H40.3049V8.59277Z" fill="#E6E6E6"/>
<path d="M96.4653 67.4106H37.8633V71.0544H96.4653V67.4106Z" fill="#F5F5F5"/>
<path opacity="0.4" d="M96.4744 1.76221H34.3535V20.4177H96.4744V1.76221Z" fill="#F0F0F0"/>
<path d="M34.2307 1.38736H101.44C101.532 1.3919 101.619 1.43014 101.685 1.49478C101.75 1.55943 101.79 1.64595 101.796 1.73781C101.796 1.83712 101.756 1.93237 101.686 2.00259C101.616 2.07282 101.52 2.11227 101.421 2.11227H34.2115C34.113 2.11101 34.019 2.071 33.9498 2.00091C33.8806 1.93082 33.8418 1.8363 33.8418 1.73781C33.8492 1.64062 33.8937 1.54999 33.9661 1.48474C34.0385 1.41949 34.1332 1.38461 34.2307 1.38736Z" fill="#E6E6E6"/>
<path d="M31.9981 1.73727C31.9971 2.10567 32.1054 2.46608 32.3093 2.77292C32.5132 3.07976 32.8035 3.31925 33.1435 3.46111C33.4835 3.60296 33.8579 3.64082 34.2194 3.56988C34.5809 3.49894 34.9132 3.32239 35.1744 3.06256C35.4356 2.80273 35.6138 2.4713 35.6866 2.11016C35.7594 1.74903 35.7235 1.37441 35.5834 1.03369C35.4433 0.692972 35.2053 0.40145 34.8995 0.195988C34.5938 -0.00947372 34.2339 -0.119649 33.8655 -0.120599C33.6209 -0.121231 33.3786 -0.073675 33.1523 0.0193502C32.9261 0.112375 32.7204 0.249051 32.547 0.42157C32.3736 0.594089 32.2359 0.799073 32.1417 1.02482C32.0475 1.25057 31.9987 1.49266 31.9981 1.73727Z" fill="#E6E6E6"/>
<path d="M98.3166 3.84037C98.4462 3.84052 98.5709 3.79072 98.6648 3.70132C98.7587 3.61192 98.8145 3.48979 98.8207 3.3603V2.26094C98.8145 2.13146 98.7587 2.00933 98.6648 1.91993C98.5709 1.83053 98.4462 1.78073 98.3166 1.78087C98.2515 1.77762 98.1865 1.78763 98.1255 1.81029C98.0644 1.83296 98.0086 1.8678 97.9615 1.91271C97.9143 1.95761 97.8768 2.01164 97.8512 2.07151C97.8256 2.13138 97.8124 2.19583 97.8125 2.26094V3.3651C97.8125 3.49242 97.8631 3.61453 97.9531 3.70456C98.0431 3.79459 98.1652 3.84517 98.2926 3.84517L98.3166 3.84037Z" fill="#E6E6E6"/>
<path d="M39.8687 3.84026C39.9961 3.84026 40.1182 3.78968 40.2082 3.69965C40.2982 3.60962 40.3488 3.48751 40.3488 3.36019V2.26083C40.3488 2.13351 40.2982 2.0114 40.2082 1.92137C40.1182 1.83134 39.9961 1.78076 39.8687 1.78076C39.7414 1.78076 39.6193 1.83134 39.5293 1.92137C39.4393 2.0114 39.3887 2.13351 39.3887 2.26083V3.34099C39.3887 3.46831 39.4393 3.59042 39.5293 3.68045C39.6193 3.77048 39.7414 3.82106 39.8687 3.82106V3.84026Z" fill="#E6E6E6"/>
<path d="M90.4727 1.73727C90.4717 2.10567 90.58 2.46608 90.7839 2.77292C90.9878 3.07976 91.2781 3.31925 91.6181 3.46111C91.9581 3.60296 92.3325 3.64082 92.694 3.56988C93.0555 3.49894 93.3879 3.32239 93.649 3.06256C93.9102 2.80273 94.0885 2.4713 94.1613 2.11016C94.2341 1.74903 94.1981 1.37441 94.058 1.03369C93.9179 0.692972 93.6799 0.40145 93.3742 0.195988C93.0684 -0.00947372 92.7085 -0.119649 92.3401 -0.120599C92.0955 -0.121231 91.8532 -0.073675 91.6269 0.0193502C91.4007 0.112375 91.195 0.249051 91.0216 0.42157C90.8482 0.594089 90.7105 0.799073 90.6163 1.02482C90.5221 1.25057 90.4733 1.49266 90.4727 1.73727Z" fill="#E6E6E6"/>
<path d="M207.046 107.496H189.514V146.362H207.046V107.496Z" fill="#E6E6E6"/>
<path d="M203.677 146.368H117.227V148.83H203.677V146.368Z" fill="#E6E6E6"/>
<path d="M189.511 107.502H113.857V146.368H189.511V107.502Z" fill="#F5F5F5"/>
<path d="M182.621 112.283H120.75V125.029H182.621V112.283Z" fill="#E6E6E6"/>
<path d="M182.621 128.836H120.75V141.582H182.621V128.836Z" fill="#E6E6E6"/>
<path d="M159.562 117.785H143.796C143.369 117.785 143.023 118.131 143.023 118.558V118.759C143.023 119.186 143.369 119.532 143.796 119.532H159.562C159.989 119.532 160.335 119.186 160.335 118.759V118.558C160.335 118.131 159.989 117.785 159.562 117.785Z" fill="#F5F5F5"/>
<path d="M159.562 134.333H143.796C143.369 134.333 143.023 134.679 143.023 135.106V135.308C143.023 135.734 143.369 136.08 143.796 136.08H159.562C159.989 136.08 160.335 135.734 160.335 135.308V135.106C160.335 134.679 159.989 134.333 159.562 134.333Z" fill="#F5F5F5"/>
<path d="M168.607 101.923C170.75 101.923 172.486 100.186 172.486 98.044C172.486 95.9017 170.75 94.165 168.607 94.165C166.465 94.165 164.729 95.9017 164.729 98.044C164.729 100.186 166.465 101.923 168.607 101.923Z" fill="#F5F5F5"/>
<path d="M161.607 101.045C163.741 101.045 165.471 99.3148 165.471 97.1805C165.471 95.0461 163.741 93.3159 161.607 93.3159C159.472 93.3159 157.742 95.0461 157.742 97.1805C157.742 99.3148 159.472 101.045 161.607 101.045Z" fill="#F5F5F5"/>
<path d="M142.925 102.831C145.059 102.831 146.79 101.101 146.79 98.9666C146.79 96.8323 145.059 95.1021 142.925 95.1021C140.791 95.1021 139.061 96.8323 139.061 98.9666C139.061 101.101 140.791 102.831 142.925 102.831Z" fill="#F5F5F5"/>
<path d="M152.886 104.616C155.02 104.616 156.751 102.886 156.751 100.752C156.751 98.6174 155.02 96.8872 152.886 96.8872C150.752 96.8872 149.021 98.6174 149.021 100.752C149.021 102.886 150.752 104.616 152.886 104.616Z" fill="#F5F5F5"/>
<path d="M178.912 98.6108C178.912 98.6108 178.288 107.502 154.304 107.502C130.319 107.502 129.695 98.6108 129.695 98.6108H178.912Z" fill="#E6E6E6"/>
<path d="M97.236 108.472H88.4844V146.426H97.236V108.472Z" fill="#E6E6E6"/>
<path d="M95.5524 146.425H38.7891V148.83H95.5524V146.425Z" fill="#E6E6E6"/>
<path d="M88.4776 108.472H37.1055V146.426H88.4776V108.472Z" fill="#F5F5F5"/>
<path d="M85.0436 113.142H40.5508V125.59H85.0436V113.142Z" fill="#E6E6E6"/>
<path d="M85.0436 129.307H40.5508V141.755H85.0436V129.307Z" fill="#E6E6E6"/>
<path d="M56.0547 114.664H69.5302C69.9691 114.661 70.3894 114.486 70.7003 114.176C71.0111 113.866 71.1875 113.447 71.1912 113.008C71.19 112.568 71.0146 112.146 70.7033 111.835C70.3921 111.523 69.9703 111.348 69.5302 111.347H56.0547C55.6158 111.35 55.1959 111.527 54.886 111.838C54.5761 112.148 54.4009 112.569 54.3984 113.008C54.401 113.446 54.5763 113.866 54.8863 114.176C55.1964 114.486 55.6162 114.661 56.0547 114.664Z" fill="#F5F5F5"/>
<path d="M56.0547 130.828H69.5302C69.9703 130.827 70.3921 130.651 70.7033 130.34C71.0146 130.029 71.19 129.607 71.1912 129.167C71.1875 128.728 71.0111 128.308 70.7003 127.998C70.3894 127.688 69.9691 127.513 69.5302 127.511H56.0547C55.6162 127.513 55.1964 127.689 54.8863 127.999C54.5763 128.309 54.401 128.729 54.3984 129.167C54.4009 129.606 54.5761 130.026 54.886 130.337C55.1959 130.648 55.6158 130.824 56.0547 130.828Z" fill="#F5F5F5"/>
<path d="M160.359 14.2388H135.232V65.3853H160.359V14.2388Z" fill="#EBEBEB"/>
<path d="M159.819 14.2388H133.219V65.3853H159.819V14.2388Z" fill="#F5F5F5"/>
<path d="M155.942 18.1084H137.08V61.5162H155.942V18.1084Z" fill="white"/>
<path d="M207.45 41.4541H193.691V57.306H207.45V41.4541Z" fill="#EBEBEB"/>
<path d="M205.817 41.4541H190.906V57.306H205.817V41.4541Z" fill="#F5F5F5"/>
<path d="M204.57 42.7065H192.16V56.0573H204.57V42.7065Z" fill="white"/>
<path d="M200.466 45.9424H196.261C195.656 45.9424 195.166 46.4324 195.166 47.0369V51.7272C195.166 52.3317 195.656 52.8218 196.261 52.8218H200.466C201.07 52.8218 201.561 52.3317 201.561 51.7272V47.0369C201.561 46.4324 201.07 45.9424 200.466 45.9424Z" fill="#F0F0F0"/>
<path d="M196.362 19.3994H182.604V35.2513H196.362V19.3994Z" fill="#EBEBEB"/>
<path d="M194.733 19.3994H179.822V35.2513H194.733V19.3994Z" fill="#F5F5F5"/>
<path d="M193.486 20.6479H181.076V33.9987H193.486V20.6479Z" fill="white"/>
<path d="M189.38 23.8833H185.175C184.57 23.8833 184.08 24.3734 184.08 24.9779V29.6681C184.08 30.2726 184.57 30.7627 185.175 30.7627H189.38C189.985 30.7627 190.475 30.2726 190.475 29.6681V24.9779C190.475 24.3734 189.985 23.8833 189.38 23.8833Z" fill="#F0F0F0"/>
<path d="M157.281 25.9185H53.6289V127.41H157.281V25.9185Z" fill="#90C63E"/>
<path opacity="0.7" d="M157.281 25.9185H53.6289V127.41H157.281V25.9185Z" fill="black"/>
<path d="M154.62 29.1636H56.2969V127.41H154.62V29.1636Z" fill="white"/>
<path d="M157.279 125.978V127.409H105.043L116.334 116.127L131.879 100.573L157.279 125.978Z" fill="#90C63E"/>
<path opacity="0.7" d="M157.279 125.978V127.409H105.043L116.334 116.127L131.879 100.573L157.279 125.978Z" fill="black"/>
<path d="M53.6289 127.41V117.655L85.7455 85.5381L127.617 127.41H53.6289Z" fill="#90C63E"/>
<path opacity="0.7" d="M53.6289 127.41V117.655L85.7455 85.5381L127.617 127.41H53.6289Z" fill="black"/>
<path d="M138.215 61.039C139.619 52.3869 133.744 44.2345 125.092 42.83C116.44 41.4256 108.287 47.301 106.883 55.9531C105.478 64.6052 111.354 72.7577 120.006 74.1621C128.658 75.5665 136.81 69.6911 138.215 61.039Z" fill="#90C63E"/>
<path opacity="0.7" d="M138.215 61.039C139.619 52.3869 133.744 44.2345 125.092 42.83C116.44 41.4256 108.287 47.301 106.883 55.9531C105.478 64.6052 111.354 72.7577 120.006 74.1621C128.658 75.5665 136.81 69.6911 138.215 61.039Z" fill="black"/>
<path d="M84.3744 23.9227L74.5059 124.933L177.666 135.012L187.535 34.0013L84.3744 23.9227Z" fill="#90C63E"/>
<path opacity="0.1" d="M84.3744 23.89L74.5059 124.9L177.666 134.979L187.535 33.9686L84.3744 23.89Z" fill="black"/>
<path d="M86.7151 27.4119L77.1621 125.192L175.019 134.753L184.572 36.9723L86.7151 27.4119Z" fill="white"/>
<path d="M176.029 31.1868L175.982 31.6646L179.413 31.9997L179.46 31.5219L176.029 31.1868Z" fill="#90C63E"/>
<path d="M165.1 29.4178L165.053 29.8955L173.489 30.739L173.536 30.2613L165.1 29.4178Z" fill="#90C63E"/>
<path opacity="0.1" d="M176.029 31.1868L175.982 31.6646L179.413 31.9997L179.46 31.5219L176.029 31.1868Z" fill="black"/>
<path opacity="0.1" d="M165.1 29.4178L165.053 29.8955L173.489 30.739L173.536 30.2613L165.1 29.4178Z" fill="black"/>
<path opacity="0.1" d="M177.802 133.579L177.662 135.005L125.676 129.926L138.009 119.796L154.994 105.826L177.802 133.579Z" fill="black"/>
<path d="M177.802 133.579L177.662 135.005L125.676 129.926L138.009 119.796L154.994 105.826L177.802 133.579Z" fill="#90C63E"/>
<path opacity="0.1" d="M177.802 133.579L177.662 135.005L125.676 129.926L138.009 119.796L154.994 105.826L177.802 133.579Z" fill="black"/>
<path opacity="0.1" d="M149.797 78.913C158.562 78.913 165.668 71.8073 165.668 63.042C165.668 54.2766 158.562 47.1709 149.797 47.1709C141.031 47.1709 133.926 54.2766 133.926 63.042C133.926 71.8073 141.031 78.913 149.797 78.913Z" fill="black"/>
<path d="M149.797 78.913C158.562 78.913 165.668 71.8073 165.668 63.042C165.668 54.2766 158.562 47.1709 149.797 47.1709C141.031 47.1709 133.926 54.2766 133.926 63.042C133.926 71.8073 141.031 78.913 149.797 78.913Z" fill="#90C63E"/>
<path opacity="0.1" d="M149.797 78.913C158.562 78.913 165.668 71.8073 165.668 63.042C165.668 54.2766 158.562 47.1709 149.797 47.1709C141.031 47.1709 133.926 54.2766 133.926 63.042C133.926 71.8073 141.031 78.913 149.797 78.913Z" fill="black"/>
<path d="M141.527 37.3288L38.0957 44.0898L44.7159 145.365L148.147 138.604L141.527 37.3288Z" fill="#90C63E"/>
<path d="M139.078 40.7384L40.9648 47.1519L47.3733 145.189L145.487 138.775L139.078 40.7384Z" fill="white"/>
<path opacity="0.5" d="M141.527 37.3288L38.0957 44.0898L44.7159 145.365L148.147 138.604L141.527 37.3288Z" fill="white"/>
<path d="M148.042 137.185L148.133 138.611L96.0117 142.014L106.54 130.022L121.038 113.489L148.042 137.185Z" fill="#90C63E"/>
<path opacity="0.5" d="M148.042 137.185L148.133 138.611L96.0117 142.014L106.54 130.022L121.038 113.489L148.042 137.185Z" fill="white"/>
<path d="M44.702 145.366L44.0684 135.635L74.0246 101.492L118.532 140.546L44.702 145.366Z" fill="#90C63E"/>
<path opacity="0.5" d="M44.702 145.366L44.0684 135.635L74.0246 101.492L118.532 140.546L44.702 145.366Z" fill="white"/>
<path d="M108.986 87.978C117.752 87.978 124.857 80.8723 124.857 72.1069C124.857 63.3416 117.752 56.2358 108.986 56.2358C100.221 56.2358 93.1152 63.3416 93.1152 72.1069C93.1152 80.8723 100.221 87.978 108.986 87.978Z" fill="#90C63E"/>
<path opacity="0.5" d="M108.986 87.978C117.752 87.978 124.857 80.8723 124.857 72.1069C124.857 63.3416 117.752 56.2358 108.986 56.2358C100.221 56.2358 93.1152 63.3416 93.1152 72.1069C93.1152 80.8723 100.221 87.978 108.986 87.978Z" fill="white"/>
</svg>
