<svg width="26" height="26" viewBox="0 0 26 26" fill="none" xmlns="http://www.w3.org/2000/svg">
<path d="M10.9917 3.51912C11.3136 2.72616 12.0915 2.16699 13 2.16699C13.9085 2.16699 14.6864 2.72616 15.0083 3.51912C18.2219 4.39944 20.5833 7.34077 20.5833 10.8337V15.9223L22.5681 18.8994C22.7897 19.2318 22.8103 19.6593 22.6218 20.0115C22.4333 20.3638 22.0662 20.5837 21.6667 20.5837H16.7533C16.4904 22.4212 14.9102 23.8337 13 23.8337C11.0898 23.8337 9.50957 22.4212 9.24673 20.5837H4.33334C3.93381 20.5837 3.56671 20.3638 3.37819 20.0115C3.18967 19.6593 3.21033 19.2318 3.43195 18.8994L5.41667 15.9223V10.8337C5.41667 7.34077 7.77815 4.39944 10.9917 3.51912ZM11.4675 20.5837C11.6905 21.2148 12.2925 21.667 13 21.667C13.7075 21.667 14.3095 21.2148 14.5325 20.5837H11.4675ZM13 5.41699C10.0085 5.41699 7.58333 7.84212 7.58333 10.8337V16.2503C7.58333 16.4642 7.52003 16.6733 7.40139 16.8513L6.35756 18.417H19.6424L18.5986 16.8513C18.48 16.6733 18.4167 16.4642 18.4167 16.2503V10.8337C18.4167 7.84212 15.9915 5.41699 13 5.41699Z" fill="#A6AEC1"/>
</svg>
