<svg width="21" height="26" viewBox="0 0 21 26" fill="none" xmlns="http://www.w3.org/2000/svg">
<path d="M19.3797 21.9106H0.840158C0.696507 21.9102 0.555351 21.873 0.430096 21.8027C0.304841 21.7324 0.199645 21.6312 0.124499 21.5087C0.0493528 21.3863 0.00675068 21.2467 0.000738489 21.1032C-0.0052737 20.9596 0.0255038 20.817 0.0901479 20.6887C1.12994 18.5929 1.67483 16.2865 1.68287 13.947V10.9554C1.68287 8.7204 2.57072 6.57694 4.1511 4.99656C5.73149 3.41617 7.87495 2.52832 10.1099 2.52832C12.3449 2.52832 14.4884 3.41617 16.0688 4.99656C17.6492 6.57694 18.537 8.7204 18.537 10.9554V13.9302C18.5451 16.2697 19.09 18.5761 20.1297 20.6718C20.1984 20.8007 20.2323 20.9452 20.2283 21.0911C20.2243 21.2371 20.1824 21.3795 20.1068 21.5044C20.0312 21.6293 19.9244 21.7324 19.797 21.8036C19.6695 21.8748 19.5257 21.9117 19.3797 21.9106ZM2.14636 20.2252H18.0735C17.2699 18.2236 16.8552 16.0871 16.8516 13.9302V10.9554C16.8516 9.1674 16.1413 7.45263 14.877 6.18832C13.6127 4.92402 11.898 4.21374 10.1099 4.21374C8.32195 4.21374 6.60718 4.92402 5.34287 6.18832C4.07856 7.45263 3.36828 9.1674 3.36828 10.9554V13.9302C3.36468 16.0871 2.94997 18.2236 2.14636 20.2252Z" fill="black"/>
<path d="M11.8304 24.0922C10.7879 24.4948 9.6282 24.4668 8.60639 24.0144C7.58457 23.562 6.78434 22.7221 6.38173 21.6797C6.30121 21.4712 6.30681 21.2392 6.3973 21.0349C6.48779 20.8305 6.65575 20.6705 6.86424 20.5899C7.07273 20.5094 7.30467 20.515 7.50903 20.6055C7.7134 20.696 7.87344 20.864 7.95397 21.0725C8.196 21.6975 8.67634 22.2009 9.2894 22.4719C9.90413 22.725 10.5926 22.7326 11.2127 22.493C11.8329 22.2535 12.3375 21.7852 12.6225 21.1846C12.6675 21.083 12.7321 20.9912 12.8125 20.9146C12.893 20.8379 12.9877 20.7778 13.0914 20.7378C13.195 20.6978 13.3056 20.6785 13.4167 20.6812C13.5277 20.6839 13.6372 20.7084 13.7388 20.7534C13.8404 20.7984 13.9322 20.863 14.0088 20.9434C14.0855 21.0239 14.1455 21.1186 14.1856 21.2223C14.2256 21.3259 14.2448 21.4365 14.2421 21.5476C14.2395 21.6586 14.2149 21.7681 14.1699 21.8697C13.9451 22.3757 13.6228 22.8325 13.2213 23.2138C12.8199 23.5952 12.3472 23.8937 11.8304 24.0922Z" fill="black"/>
<path d="M10.1083 4.21354C9.88483 4.21354 9.67049 4.12476 9.51245 3.96672C9.35441 3.80868 9.26562 3.59433 9.26562 3.37083V0.842708C9.26562 0.619208 9.35441 0.404862 9.51245 0.246823C9.67049 0.088785 9.88483 0 10.1083 0C10.3318 0 10.5462 0.088785 10.7042 0.246823C10.8623 0.404862 10.951 0.619208 10.951 0.842708V3.37083C10.951 3.59433 10.8623 3.80868 10.7042 3.96672C10.5462 4.12476 10.3318 4.21354 10.1083 4.21354Z" fill="black"/>
</svg>
