<svg width="57" height="57" viewBox="0 0 57 57" fill="none" xmlns="http://www.w3.org/2000/svg">
<path d="M54.5424 48.8852H53.8188V45.5502C53.8188 45.0885 53.4447 44.7144 52.983 44.7144C52.5214 44.7144 52.1473 45.0885 52.1473 45.5502V48.8852H39.5327V44.1796C39.5327 43.3984 39.1074 42.6792 38.4226 42.3025C36.704 41.3576 35.6364 39.5522 35.6364 37.591V34.4204H40.5652V35.7127C40.5652 37.2398 41.8075 38.4824 43.3348 38.4824H44.7937C45.2554 38.4824 45.6295 38.1083 45.6295 37.6466C45.6295 37.1849 45.2554 36.8108 44.7937 36.8108H43.3348C42.7293 36.8108 42.2367 36.3182 42.2367 35.7127V33.488C42.2367 32.7556 41.9535 32.0649 41.4392 31.5435L37.6755 27.7268C37.2514 27.2968 37.0226 26.7272 37.0312 26.1232C37.0397 25.5193 37.2845 24.9565 37.7207 24.5386C38.5981 23.6975 39.9665 23.7045 40.8354 24.5549L47.3267 30.9082C47.6567 31.231 48.1858 31.2252 48.5087 30.8955C48.8314 30.5656 48.8258 30.0364 48.496 29.7136L47.0894 28.3369V23.6546L49.4319 25.3374C51.1323 26.5586 52.1473 28.5376 52.1473 30.6311V41.6684C52.1473 42.1301 52.5214 42.5042 52.983 42.5042C53.4447 42.5042 53.8188 42.1301 53.8188 41.6684V30.6311C53.8188 28.0006 52.5435 25.5142 50.4071 23.9796L47.0894 21.5963V2.82766C47.0893 1.26851 45.8207 0 44.2616 0H3.58742C2.02828 0 0.759766 1.26851 0.759766 2.82766V24.0238C0.759766 24.4855 1.13387 24.8596 1.59556 24.8596C2.05725 24.8596 2.43135 24.4855 2.43135 24.0238V22.007H15.6993C15.6986 22.0187 15.6981 22.0304 15.6974 22.042C15.6437 22.9986 15.5827 24.0828 16.3172 24.8174C17.0519 25.5519 18.1362 25.4909 19.0926 25.4372C19.6304 25.4069 20.1867 25.3757 20.4903 25.5014C20.7655 25.6155 21.1365 26.0353 21.4638 26.4056C22.1113 27.1381 22.8451 27.9683 23.9245 27.9683C25.0039 27.9683 25.7377 27.1381 26.3852 26.4055C26.7126 26.0353 27.0836 25.6155 27.3587 25.5014C27.6622 25.3757 28.2185 25.4068 28.7563 25.4372C29.7133 25.4909 30.7972 25.5519 31.5316 24.8174C32.2663 24.0828 32.2053 22.9986 32.1515 22.042C32.1508 22.0303 32.1503 22.0186 32.1496 22.007H45.4177V26.7008L42.0045 23.3603C40.4869 21.8753 38.0972 21.8626 36.5639 23.3317C35.8022 24.0617 35.3745 25.0447 35.3596 26.0997C35.3447 27.1546 35.7445 28.1493 36.4854 28.9004L40.249 32.7172C40.259 32.7273 40.2677 32.7384 40.2773 32.7488H3.58742C2.94988 32.7488 2.43135 32.2303 2.43135 31.5928V27.9428C2.43135 27.4811 2.05725 27.107 1.59556 27.107C1.13387 27.107 0.759766 27.4811 0.759766 27.9428V31.5928C0.759766 33.1519 2.02828 34.4204 3.58742 34.4204H33.965V37.591C33.965 40.1619 35.3645 42.5286 37.6173 43.7673C37.7677 43.8501 37.8611 44.008 37.8611 44.1796V48.8852H36.6646C35.7289 48.8852 34.9677 49.6465 34.9677 50.5822V55.3031C34.9677 56.2388 35.7289 57.0001 36.6646 57.0001H54.5424C55.4781 57.0001 56.2394 56.2389 56.2394 55.3031V50.5822C56.2393 49.6465 55.4781 48.8852 54.5424 48.8852ZM2.43135 20.3354V14.0848H15.4238C15.2384 14.2986 14.9732 14.5334 14.7289 14.7494C13.9964 15.3969 13.1662 16.1307 13.1662 17.2101C13.1662 18.2895 13.9964 19.0233 14.7289 19.6708C14.9732 19.8868 15.2384 20.1214 15.4238 20.3354H2.43135ZM32.013 18.4184C31.4823 18.8874 30.9336 19.3724 30.6717 20.0041C30.3996 20.6604 30.4418 21.4105 30.4826 22.1358C30.515 22.7124 30.5554 23.4297 30.3498 23.6353C30.1443 23.8412 29.4267 23.8006 28.8503 23.7682C28.1251 23.7276 27.3749 23.685 26.7185 23.9573C26.0868 24.2193 25.6018 24.7679 25.1328 25.2985C24.7399 25.7432 24.2506 26.2967 23.9246 26.2967C23.5987 26.2967 23.1096 25.7432 22.7164 25.2986C22.2474 24.7679 21.7624 24.2192 21.1306 23.9573C20.7132 23.7841 20.2578 23.7382 19.795 23.7382C19.5301 23.7382 19.2629 23.7534 18.9988 23.7682C18.4223 23.8006 17.7051 23.841 17.4994 23.6355C17.2937 23.4297 17.3341 22.7124 17.3665 22.1358C17.4073 21.4105 17.4496 20.6604 17.1774 20.0042C16.9154 19.3722 16.3668 18.8874 15.8361 18.4183C15.3915 18.0253 14.838 17.5361 14.838 17.2101C14.838 16.8841 15.3915 16.395 15.8361 16.0019C16.3668 15.5329 16.9155 15.0478 17.1774 14.4162C17.4496 13.7599 17.4073 13.0098 17.3665 12.2844C17.3341 11.7079 17.2938 10.9905 17.4993 10.7849C17.7051 10.5793 18.4225 10.6195 18.9989 10.6521C19.724 10.6929 20.4742 10.7352 21.1306 10.463C21.7625 10.201 22.2474 9.65241 22.7163 9.12174C23.1093 8.6771 23.5985 8.12358 23.9246 8.12358C24.2507 8.12358 24.7398 8.6771 25.133 9.12185C25.6019 9.65241 26.0869 10.201 26.7186 10.463C27.375 10.7353 28.1252 10.6928 28.8505 10.6521C29.4272 10.6195 30.1445 10.5795 30.35 10.785C30.5557 10.9906 30.5152 11.7079 30.4827 12.2844C30.4419 13.0098 30.3997 13.7599 30.6718 14.4162C30.9339 15.048 31.4824 15.5329 32.0131 16.0019C32.4578 16.3949 33.0114 16.8841 33.0114 17.2101C33.0114 17.5361 32.4577 18.0254 32.013 18.4184ZM32.4251 20.3354C32.6105 20.1216 32.8757 19.8868 33.12 19.6709C33.8526 19.0233 34.6828 18.2895 34.6828 17.2101C34.6828 16.1307 33.8525 15.3969 33.12 14.7494C32.8757 14.5334 32.6105 14.2988 32.4251 14.0848H35.5204C35.9821 14.0848 36.3562 13.7107 36.3562 13.249C36.3562 12.7873 35.9821 12.4132 35.5204 12.4132H32.1496C32.1503 12.4016 32.1508 12.3899 32.1515 12.3783C32.2053 11.4217 32.2664 10.3375 31.5318 9.60293C30.7971 8.86833 29.7129 8.92928 28.7563 8.98311C28.2181 9.01331 27.662 9.04473 27.3587 8.91892C27.0835 8.8048 26.7125 8.38501 26.3853 8.01481C25.7378 7.28221 25.0039 6.45199 23.9245 6.45199C22.8451 6.45199 22.1113 7.28221 21.4637 8.0147C21.1364 8.38501 20.7654 8.8048 20.4902 8.91892C20.1867 9.04462 19.6303 9.0132 19.0927 8.98311C18.1358 8.92906 17.0518 8.86833 16.3172 9.60293C15.5827 10.3375 15.6437 11.4217 15.6974 12.3783C15.6981 12.3899 15.6986 12.4016 15.6993 12.4132H2.43135V2.82766C2.43135 2.19011 2.94988 1.67159 3.58742 1.67159H44.2616C44.8991 1.67159 45.4177 2.19011 45.4177 2.82766V12.4133H39.3651C38.9034 12.4133 38.5293 12.7874 38.5293 13.2491C38.5293 13.7108 38.9034 14.0849 39.3651 14.0849H45.4177V20.3355L32.4251 20.3354ZM54.5677 55.3031C54.5677 55.317 54.5562 55.3285 54.5423 55.3285H36.6646C36.6506 55.3285 36.6393 55.317 36.6393 55.3031V50.5822C36.6393 50.5683 36.6506 50.5568 36.6646 50.5568H54.5424C54.5563 50.5568 54.5678 50.5683 54.5678 50.5822L54.5677 55.3031Z" fill="black"/>
</svg>
