<svg width="74" height="82" viewBox="0 0 74 82" fill="none" xmlns="http://www.w3.org/2000/svg">
<path d="M52.1512 74.4922C51.5938 73.4118 51.0395 72.3344 50.1848 71.4369C49.7715 70.9872 49.2704 70.6224 48.7108 70.3641C45.7829 69.0516 43.2184 67.0758 41.2308 64.6011C39.9549 63.0236 39.0832 61.1575 38.0598 59.4047C37.4296 58.3228 36.8211 57.2303 36.1832 56.1499C36.0755 55.972 36.006 55.7746 35.9788 55.5697C36.0481 54.1526 35.5726 52.7612 34.6457 51.6683C34.5093 51.496 34.3247 51.3659 34.1143 51.2935C33.9039 51.2211 33.6766 51.2096 33.4597 51.2603C33.0772 50.7496 33.2073 50.4277 33.8591 50.2721C36.8799 49.5513 39.2659 50.7994 40.6238 53.2186C41.1983 54.243 41.7371 55.2917 42.4695 56.2195C42.7141 56.5217 42.9572 57.046 43.4325 56.8888C43.9079 56.7317 43.7902 56.1938 43.7933 55.7918C43.8026 54.4395 43.4465 53.143 43.0888 51.8541C42.519 49.7991 41.8501 47.7744 41.158 45.7557C41.1072 45.6349 41.0488 45.5173 40.983 45.4036C40.9141 44.8973 40.7625 44.405 40.534 43.9455L38.5738 37.6536C38.5041 37.2094 38.4082 36.7666 38.3725 36.3194C38.3122 35.5397 38.1635 34.7328 38.9392 34.145C40.0742 33.2883 41.4986 33.601 42.1397 34.8491C42.4741 35.4989 42.6692 36.2091 43.1012 36.8135L43.1832 36.9736C43.5719 38.1583 44.1448 39.2613 44.7099 40.3704C45.8959 43.0751 47.147 45.7511 48.5281 48.3667C48.549 48.4293 48.5875 48.4849 48.6393 48.5271C48.691 48.5693 48.7539 48.5965 48.8207 48.6054C48.8475 48.2236 48.894 47.8434 48.9601 47.4661C49.2496 46.1893 49.7637 45.804 51.0922 45.7889C51.6991 45.7889 52.2859 45.8463 52.8232 46.1516C53.2475 46.3918 53.4751 46.7786 53.6655 47.2017C53.7259 47.3347 53.808 47.4873 53.9922 47.4843C54.1765 47.4812 54.1796 47.3241 54.2322 47.2047C54.6626 46.2467 54.8732 46.0851 55.9478 46.147C57.0223 46.209 58.0396 46.3691 58.5799 47.4631C58.6713 47.652 58.7983 47.6822 58.9841 47.5115C60.4039 46.209 61.6596 46.2014 63.1491 47.4133C64.188 48.2594 64.6293 49.3776 64.7501 50.6287C65.0365 53.6099 65.3834 56.5912 65.4329 59.586C65.4853 61.2356 65.1127 62.8716 64.3491 64.3442C63.9883 65.0211 64.1137 65.7162 64.5209 66.3372C65.0923 67.2076 65.7054 68.0507 66.3 68.9059C65.3849 69.1749 64.4265 69.1915 63.4913 69.3502C60.3774 69.8601 57.3994 70.9724 54.7323 72.6215C53.8219 73.1821 53.0617 73.9316 52.1512 74.4922ZM38.7937 35.5986C38.8912 36.6805 39.3898 37.989 40.2631 37.9059C41.3887 37.8002 42.1892 37.3121 42.1722 36.5234C42.1505 35.3614 41.2215 34.139 40.3653 34.142C39.4703 34.148 38.7859 34.7812 38.7937 35.5986Z" fill="#FDBD76"/>
<path d="M38.2517 45.7261C37.0889 47.2371 35.5854 48.3205 33.8745 49.1561C33.0138 49.5831 32.0983 49.8956 31.1525 50.0854C28.5204 50.5992 26.8931 52.2008 25.93 54.5731C25.5445 55.5205 25.2983 56.5087 24.9762 57.4758C22.9666 55.7752 20.6946 54.3948 18.244 53.3855C16.0772 52.5062 13.8054 51.897 11.4824 51.5722C10.572 51.4483 9.66002 51.3411 8.74805 51.2262C9.87679 48.5774 10.3475 45.8168 10.3088 42.9489C10.284 41.0269 10.2422 39.1033 10.3552 37.1783C10.4978 35.1654 10.8888 33.1766 11.5196 31.2551C11.9547 29.871 12.111 28.4537 12.2225 27.0243C12.4424 24.2123 13.0741 21.4773 13.8034 18.7605C13.9164 18.342 14.0279 17.9219 14.1409 17.5034C15.2666 16.2009 16.0547 14.7594 16.0748 13.0051C16.0856 11.9202 15.9014 11.6648 14.9197 11.3505C15.0328 10.6917 15.183 10.5708 15.8224 10.6781C16.0847 10.7356 16.3432 10.8082 16.5966 10.8957L18.1449 12.0546C18.2998 12.4853 18.6094 12.8237 18.7751 13.2634C20.2429 17.2903 20.1825 21.3912 19.3944 25.5208C19.1885 26.5921 18.8603 27.6362 18.5893 28.6939C18.532 28.9146 18.45 29.1473 18.6807 29.3195C19.619 29.9995 20.2863 30.9333 21.0914 31.7371C21.4444 32.266 21.797 32.7959 22.1489 33.3267L22.2387 33.4461C22.8968 34.8151 23.5332 36.1931 23.9698 37.6497C24.4204 39.8045 24.7625 41.9682 24.4343 44.1773C24.3615 44.4493 24.2795 44.7183 24.216 44.9933C24.0611 45.6883 24.0611 45.6899 24.7703 45.6899C28.7299 45.6899 32.689 45.6899 36.6476 45.6899C37.1725 45.6944 37.7129 45.7155 38.2517 45.7261Z" fill="#FDBD76"/>
<path d="M8.74775 51.2321C9.65972 51.3469 10.5717 51.4542 11.4821 51.5781C13.8051 51.9029 16.0769 52.5121 18.2437 53.3913C20.6943 54.4006 22.9663 55.7811 24.9759 57.4816C25.015 57.5466 25.0635 57.6056 25.1199 57.6569C26.0799 58.2749 26.2347 59.106 26.0489 60.1848C25.7315 62.0404 25.5534 63.9201 25.363 65.7937C25.3104 66.315 24.9713 66.2712 24.6415 66.3045C22.0864 66.5461 19.5182 66.6279 16.9524 66.5492C12.9979 66.4495 9.11161 65.9448 5.37701 64.6C3.57952 63.9553 1.89512 63.0429 0.383605 61.8953C-0.0452855 61.5689 -0.127348 61.3151 0.202449 60.8376C2.25968 57.8529 4.29523 54.8495 6.30911 51.8274C6.60949 51.3741 6.92844 51.1701 7.47656 51.223C7.89974 51.2502 8.3242 51.2532 8.74775 51.2321Z" fill="#FE7978"/>
<path d="M52.1509 74.4928C53.0613 73.9383 53.8215 73.1888 54.7304 72.6252C57.3976 70.9766 60.3756 69.8648 63.4894 69.3554C64.4184 69.1967 65.383 69.1801 66.2981 68.9111C66.7394 69.0139 67.1853 68.9489 67.6266 68.9338C67.796 68.9136 67.9678 68.9427 68.1204 69.0175C68.273 69.0922 68.3996 69.2092 68.4843 69.3539C70.2587 71.9558 72.0491 74.5503 73.8555 77.1371C74.1513 77.5587 73.9484 77.7264 73.6574 77.9516C71.9805 79.2465 70.0776 80.0987 68.0446 80.691C65.2158 81.5145 62.3157 81.8757 59.3739 81.9663C57.1178 82.0493 54.8586 81.9801 52.6123 81.7593C52.2577 81.7231 52.1277 81.6082 52.0905 81.2577C51.8923 79.4218 51.6678 77.5874 51.4402 75.7545C51.4128 75.6154 51.4246 75.4715 51.4745 75.3384C51.5245 75.2054 51.6105 75.088 51.7235 74.999C51.8923 74.86 52.0967 74.7286 52.1509 74.4928Z" fill="#FE7978"/>
<path d="M18.1382 12.0632L16.5898 10.9042L16.6115 10.8846L16.6363 10.8997C16.7431 10.8544 16.7091 10.8211 16.6363 10.7909C16.6363 8.88704 16.531 6.97561 16.6471 5.07777C16.8174 2.19022 19.1988 0.0370199 22.1701 0.0219097C27.8277 -0.00730324 33.4874 -0.00730324 39.1492 0.0219097C42.2939 0.0400419 44.6984 2.45162 44.7325 5.5205C44.7325 5.93603 44.7325 6.35156 44.7449 6.76557C44.7449 9.13586 44.7501 11.5076 44.7604 13.881C44.7604 14.7029 44.7604 15.5244 44.7604 16.3454C44.7604 18.4185 44.7604 20.4916 44.7604 22.5648C44.7604 23.2105 44.7604 23.8567 44.7604 24.5034C44.7604 29.4313 44.7562 34.3597 44.748 39.2887C44.7372 39.6483 44.7248 40.0079 44.7139 40.366C44.1488 39.2585 43.5759 38.1554 43.1873 36.9708C43.1873 36.8952 43.1873 36.8197 43.1873 36.7426C43.195 36.6112 43.2089 36.4797 43.2089 36.3482V8.47C43.2089 8.33854 43.1935 8.20708 43.1857 8.07714C43.1857 7.15239 43.2353 6.22614 43.195 5.30442C43.1447 4.39188 42.7739 3.52407 42.1451 2.84687C41.5163 2.16967 40.6678 1.72436 39.7422 1.58581C38.8968 1.46191 38.039 1.52839 37.1967 1.52688C32.2503 1.52084 27.3039 1.52084 22.3574 1.52688C20.1278 1.52688 18.3147 3.08323 18.1769 5.13368C18.1119 6.10979 18.1769 7.098 18.1769 8.07411C18.1614 9.40381 18.1485 10.7335 18.1382 12.0632Z" fill="#2E3638"/>
<path d="M44.7461 39.2853C44.7461 34.3564 44.7502 29.4279 44.7585 24.5C46.2774 25.1573 47.1321 26.3283 47.4944 27.8801C47.5919 28.2957 47.6864 28.7112 47.7808 29.1282C47.6862 29.8199 47.6805 30.5204 47.7638 31.2134C47.8443 31.9221 47.8707 32.7018 48.6417 33.1279C48.6015 33.8003 48.0456 34.2657 47.3287 34.0919C46.6738 33.9333 46.7311 34.1539 46.7497 34.6616C46.7884 35.6755 46.6335 36.6924 46.6738 37.7123C46.6735 37.976 46.7131 38.2382 46.7915 38.4905C46.9943 39.0692 46.745 39.3971 46.1086 39.4727C45.6302 39.5301 45.2106 39.3004 44.7461 39.2853Z" fill="#FABC76"/>
<path d="M38.2502 45.7259C37.7114 45.7153 37.1663 45.6942 36.6322 45.6942C32.6736 45.6942 28.7145 45.6942 24.7548 45.6942C24.0441 45.6942 24.0411 45.6942 24.2005 44.9976C24.264 44.7226 24.3461 44.4536 24.4188 44.1817C29.1836 44.1817 33.9473 44.1852 38.71 44.1922C39.3275 44.2062 39.9431 44.1215 40.5324 43.9414C40.7609 44.4009 40.9125 44.8932 40.9815 45.3995C40.1005 45.7214 39.1714 45.673 38.2502 45.7259Z" fill="#2E3637"/>
<path d="M44.76 13.8809C44.7507 11.5086 44.7461 9.1368 44.7461 6.76551C45.2927 6.59477 45.7742 6.26385 46.3688 6.19586C47.3907 6.078 48.6402 6.82746 48.7114 7.67967C48.7333 8.22945 48.5988 8.77441 48.3228 9.25415C47.4139 11.0009 46.1659 12.4998 44.76 13.8809Z" fill="#FABC76"/>
<path d="M44.7461 22.565C44.7461 20.4919 44.7461 18.4188 44.7461 16.3457C45.3856 16.6192 45.7386 17.1707 46.1195 17.6935C46.344 18.4989 46.8147 19.1819 47.2652 19.8694C47.8257 20.7277 48.0162 20.776 49.0149 20.4844C49.5552 20.8969 49.2858 21.6463 48.7919 22.0226C47.8877 22.7086 46.8534 22.7993 45.7773 22.6542C45.4355 22.6058 45.0913 22.576 44.7461 22.565Z" fill="#FABC76"/>
<path d="M14.9194 11.3594C15.9011 11.6737 16.0853 11.929 16.0745 13.0139C16.0544 14.7682 15.2663 16.2097 14.1406 17.5122C14.1871 16.6902 14.3806 15.8879 14.4813 15.0719C14.6206 13.9553 14.65 12.8326 14.7909 11.719C14.8157 11.589 14.7925 11.4515 14.9194 11.3594Z" fill="#FEE6CC"/>
<path d="M33.459 51.2547C33.6759 51.204 33.9033 51.2155 34.1137 51.2879C34.3241 51.3603 34.5086 51.4904 34.645 51.6627C35.572 52.7556 36.0474 54.147 35.9781 55.5641C35.495 55.3571 35.4393 54.8509 35.2303 54.4732C34.6357 53.4019 33.9173 52.3955 33.459 51.2547Z" fill="#FEE6CC"/>
<path d="M49.0224 20.4842C48.0237 20.7864 47.8332 20.7275 47.2727 19.8692C46.8222 19.1817 46.3515 18.4987 46.127 17.6934C46.5264 17.8052 46.7324 18.1467 46.9925 18.4126C47.6707 19.1031 48.4479 19.6985 49.0224 20.4842Z" fill="#FEE6CC"/>
<path d="M48.6395 33.1315C47.8654 32.7054 47.8421 31.9227 47.7616 31.217C47.6783 30.524 47.684 29.8235 47.7787 29.1318C48.1472 29.5489 48.1534 30.0913 48.2679 30.5869C48.463 31.4286 48.7386 32.2536 48.6395 33.1315Z" fill="#FEE6CC"/>
<path d="M16.627 10.791C16.7075 10.8212 16.7415 10.8545 16.627 10.8998C16.6331 10.8635 16.63 10.8273 16.627 10.791Z" fill="#2E3637"/>
<path d="M18.1387 12.0633C18.149 10.7336 18.1603 9.40391 18.1727 8.07422H43.1754C43.1754 8.20417 43.1986 8.33562 43.1986 8.46708V36.3453C43.1986 36.4768 43.1846 36.6082 43.1769 36.7397C43.1596 36.7444 43.1438 36.753 43.1306 36.7648C43.1174 36.7766 43.1073 36.7913 43.101 36.8077C42.669 36.2033 42.474 35.4901 42.1395 34.8434C41.4985 33.5953 40.074 33.2825 38.9391 34.1392C38.1649 34.727 38.312 35.5339 38.3724 36.3136C38.408 36.7669 38.504 37.2036 38.5737 37.6478H23.9511C23.5145 36.1912 22.8781 34.8132 22.2201 33.4442C27.5877 33.4442 32.9553 33.4442 38.3229 33.4442C39.5182 33.4442 40.1809 32.7839 40.1917 31.6159C40.1917 30.1819 40.1453 28.7449 40.2072 27.314C40.2738 25.7894 39.306 25.1774 38.0132 25.1835C33.091 25.2046 28.1673 25.1925 23.2436 25.1925C21.7928 25.1925 21.0898 25.8876 21.0852 27.3231C21.0852 28.7948 21.0852 30.2665 21.0852 31.7382C20.28 30.9329 19.6127 29.9991 18.6744 29.3206C18.4437 29.1529 18.5196 28.9157 18.583 28.6951C18.854 27.6373 19.1823 26.5887 19.3882 25.5219C20.184 21.3923 20.2444 17.2914 18.7688 13.2646C18.6109 12.8324 18.2889 12.4939 18.1387 12.0633ZM35.556 14.3041C35.1426 13.8025 34.8948 13.2071 34.5712 12.6556C34.3529 12.2809 34.0076 12.3776 33.6995 12.4033C33.3341 12.435 33.4827 12.7508 33.4796 12.9442C33.4626 13.736 33.4796 14.5293 33.4688 15.3211C33.4688 15.5885 33.4688 15.7985 33.8512 15.791C34.2337 15.7834 34.243 15.5749 34.2414 15.309C34.2414 14.7438 34.2414 14.1787 34.2414 13.529C34.6424 14.2407 35.0156 14.8723 35.3593 15.5205C35.5544 15.8922 35.8827 15.8016 36.166 15.7623C36.4757 15.72 36.3503 15.4314 36.3534 15.2485C36.3657 14.4749 36.3627 13.7012 36.3534 12.9276C36.3534 12.6828 36.4525 12.3821 35.9957 12.3806C35.5838 12.3806 35.5854 12.6178 35.5823 12.9004C35.5823 13.3703 35.5606 13.8403 35.5482 14.3102L35.556 14.3041ZM26.6313 13.4882C26.7552 13.6846 26.8063 13.7556 26.8496 13.8327C27.1593 14.3948 27.4845 14.9524 27.7786 15.525C27.9706 15.8967 28.3035 15.794 28.5884 15.7653C28.9074 15.7336 28.7897 15.448 28.7928 15.2636C28.8036 14.4341 28.7928 13.6015 28.7928 12.7765C28.7928 12.4743 28.6643 12.3836 28.3717 12.3836C28.079 12.3836 28.0093 12.5121 28.014 12.7644C28.0248 13.2812 28.014 13.7979 28.014 14.4839C27.6068 13.7662 27.2754 13.2011 26.9627 12.6269C26.7629 12.2612 26.4269 12.3957 26.1405 12.4018C25.8045 12.4018 25.9113 12.6949 25.9098 12.8793C25.899 13.6892 25.9098 14.5006 25.9098 15.3105C25.9098 15.5658 25.8881 15.797 26.2799 15.7895C26.6313 15.7895 26.6298 15.587 26.6282 15.3452C26.6313 14.7726 26.6313 14.2029 26.6313 13.4882ZM22.0947 14.1017C22.0947 15.1412 22.7481 15.8514 23.7173 15.856C24.6866 15.8605 25.4205 15.1004 25.4329 14.0896C25.4453 13.0787 24.7609 12.3655 23.7839 12.3625C22.7605 12.3579 22.0978 13.0379 22.0947 14.1017ZM36.9758 14.1621C37.0455 14.6245 36.7095 15.383 37.1105 15.6852C37.4775 15.9617 38.216 15.7683 38.792 15.7834C38.8307 15.7834 38.8694 15.7834 38.9081 15.7834C39.1141 15.794 39.2364 15.7215 39.2379 15.4978C39.2395 15.2742 39.1806 15.1261 38.9283 15.1261C38.6975 15.1261 38.4638 15.1125 38.2346 15.1261C37.9404 15.1412 37.8212 15.0264 37.8274 14.7318C37.8336 14.4371 37.9822 14.3782 38.2284 14.3888C38.4018 14.3888 38.5752 14.3888 38.7486 14.3888C38.9855 14.3978 39.1017 14.3026 39.1094 14.0609C39.1172 13.8191 39.0072 13.7164 38.7641 13.733C38.6685 13.7443 38.5718 13.7443 38.4761 13.733C38.2315 13.6876 37.8429 13.8992 37.8351 13.4126C37.8258 12.8808 38.247 13.1104 38.5056 13.0621C38.6012 13.0507 38.6979 13.0507 38.7935 13.0621C39.0258 13.0742 39.1497 12.9986 39.1559 12.7448C39.1559 12.4652 39.032 12.3867 38.7719 12.3927C38.3074 12.4033 37.8429 12.4078 37.3784 12.3927C37.0811 12.3821 36.9603 12.4849 36.9727 12.781C36.9882 13.2041 36.9758 13.6378 36.9758 14.1621ZM34.723 19.0382L34.8298 19.0125C35.0884 19.4658 35.3516 19.9191 35.604 20.3724C35.7418 20.6172 35.9616 20.6277 36.2016 20.6036C36.4029 20.5839 36.4416 20.4525 36.4416 20.2817C36.4416 19.5836 36.4416 18.8865 36.4416 18.1905C36.4416 17.9593 36.3379 17.8505 36.0932 17.849C35.8099 17.849 35.7929 18.0182 35.796 18.2237C35.796 18.5848 35.796 18.9475 35.796 19.4627C35.4615 18.8976 35.2076 18.4821 34.9676 18.0605C34.8128 17.778 34.5418 17.8369 34.3018 17.8671C34.0278 17.9004 34.0788 18.1331 34.0773 18.3204C34.0773 18.9248 34.0773 19.5292 34.0773 20.1336C34.0773 20.3542 34.0247 20.6157 34.387 20.6202C34.7895 20.6202 34.7168 20.3376 34.7199 20.1019C34.7261 19.7347 34.723 19.3872 34.723 19.0382ZM22.1071 19.1893V19.5836C22.1071 20.6655 22.378 20.8574 23.4758 20.5492C23.6059 20.5162 23.7305 20.4653 23.8459 20.3981C24.0735 20.256 24.25 20.0067 24.1555 19.7816C23.9744 19.3283 23.897 18.8886 24.0502 18.4065C24.0998 18.2479 23.9403 18.0862 23.7777 18.0076C23.5468 17.8888 23.2925 17.8195 23.0319 17.8043C22.7712 17.7892 22.5103 17.8287 22.2666 17.92C21.9011 18.0711 22.1628 18.532 22.1117 18.8493C22.1 18.9623 22.0984 19.076 22.1071 19.1893ZM25.7844 20.6338C26.5833 20.6247 27.1624 20.0158 27.1593 19.1893C27.1562 18.3627 26.5926 17.8188 25.7797 17.8293C24.9669 17.8399 24.4327 18.4337 24.4497 19.2935C24.4636 20.0853 25.018 20.6383 25.7844 20.6277V20.6338ZM39.255 19.8088C39.255 19.5972 39.255 19.428 39.255 19.2588C39.255 19.02 39.1001 18.9686 38.9081 18.9943C38.6774 19.0246 38.3739 18.8553 38.233 19.1454C38.2119 19.1831 38.2006 19.2253 38.2002 19.2683C38.1998 19.3113 38.2102 19.3537 38.2306 19.3918C38.2509 19.4299 38.2806 19.4625 38.3169 19.4867C38.3533 19.511 38.3952 19.5261 38.439 19.5307C38.6759 19.5927 38.617 19.8057 38.5644 19.9538C38.4978 20.1427 38.3074 20.0928 38.1649 20.0551C37.9617 20.0209 37.7796 19.9122 37.6558 19.7512C37.532 19.5903 37.476 19.3892 37.4991 19.1893C37.5177 18.7359 37.7438 18.4337 38.2222 18.3854C38.4339 18.3738 38.6462 18.3789 38.857 18.4005C39.0335 18.4111 39.097 18.3098 39.1203 18.1648C39.1435 18.0197 39.0707 17.9653 38.9546 17.9064C38.4467 17.6465 37.4295 17.9064 37.0641 18.4065C36.6429 18.9777 36.7126 19.8209 37.2189 20.2666C37.623 20.6217 38.521 20.7396 39.0335 20.5114C39.4082 20.3422 39.1853 20.0128 39.2503 19.8027L39.255 19.8088ZM28.7262 17.8324C27.966 17.8324 27.3745 18.4368 27.3575 19.218C27.3481 19.3968 27.3754 19.5758 27.4377 19.7442C27.5 19.9127 27.5961 20.0674 27.7204 20.1992C27.8447 20.331 27.9946 20.4373 28.1614 20.512C28.3283 20.5866 28.5087 20.628 28.6922 20.6338C29.4849 20.6429 30.0857 20.0203 30.0702 19.2029C30.0532 18.3431 29.5453 17.8293 28.7247 17.8293L28.7262 17.8324ZM31.1401 18.7601C31.1231 18.4912 31.1122 18.2932 31.0967 18.0953C31.0813 17.8973 30.9527 17.849 30.7762 17.8505C30.5997 17.852 30.4573 17.8732 30.4573 18.0817C30.4573 18.8362 30.4573 19.5917 30.4573 20.3482C30.4573 20.5824 30.6322 20.6111 30.818 20.6126C30.8567 20.6174 30.8959 20.6134 30.9327 20.601C30.9696 20.5886 31.003 20.5681 31.0303 20.541C31.0577 20.514 31.0784 20.4812 31.0907 20.4451C31.103 20.4091 31.1067 20.3708 31.1014 20.3331C31.1014 20.2575 31.1014 20.182 31.1014 20.1064C31.12 19.9281 31.024 19.6531 31.233 19.6033C31.4838 19.5413 31.5055 19.8571 31.6216 20.0097C31.7378 20.1623 31.7966 20.3497 31.9189 20.4917C31.9965 20.5782 32.1039 20.6336 32.2208 20.6476C32.3376 20.6615 32.4556 20.6329 32.5522 20.5673C32.7659 20.4328 32.5321 20.256 32.4407 20.1518C31.7966 19.4144 31.7238 18.7193 32.5398 18.0515C32.5708 18.0258 32.5599 17.9517 32.5661 17.917C31.73 17.5377 31.648 18.4247 31.1385 18.7541L31.1401 18.7601ZM29.4183 14.0412C29.4183 14.4945 29.4183 14.9478 29.4183 15.4011C29.4183 15.6006 29.4183 15.7864 29.7048 15.7834C30.2452 15.7834 30.7886 15.7834 31.3259 15.7834C31.569 15.7834 31.5984 15.6323 31.6 15.4419C31.6015 15.2515 31.5411 15.114 31.3073 15.1201C31.0735 15.1261 30.8815 15.102 30.6709 15.1201C30.3133 15.1564 30.2064 15.0128 30.2142 14.6668C30.239 14.0458 30.2064 13.4217 30.2266 12.8007C30.2374 12.4788 30.1213 12.3761 29.7946 12.3761C29.4679 12.3761 29.406 12.5272 29.4152 12.7946C29.4292 13.2117 29.4183 13.6272 29.4183 14.0412ZM32.803 14.0911C32.803 13.6378 32.7953 13.1845 32.803 12.7312C32.803 12.4516 32.6699 12.3791 32.4128 12.3851C32.1883 12.3851 32.0428 12.4365 32.0443 12.6874C32.0505 13.6091 32.0505 14.5313 32.0443 15.454C32.0443 15.7079 32.1744 15.7683 32.4051 15.7713C32.6358 15.7744 32.8108 15.723 32.8015 15.4329C32.7953 14.9947 32.8046 14.5429 32.8046 14.0911H32.803ZM33.5772 19.1938C33.5772 18.8357 33.5772 18.4776 33.5772 18.121C33.5772 17.9276 33.4905 17.849 33.2985 17.849C33.1065 17.849 32.9346 17.8732 32.9331 18.1043C32.9331 18.8387 32.9331 19.5731 32.9331 20.3074C32.9331 20.5341 33.1173 20.5567 33.3078 20.5552C33.4982 20.5537 33.5694 20.4464 33.5679 20.2681C33.5787 19.91 33.5803 19.5519 33.5818 19.1893L33.5772 19.1938Z" fill="#FEFCFC"/>
<path d="M23.9512 37.6523H38.5737L40.5339 43.9442C39.9433 44.1231 39.3266 44.2063 38.7084 44.1905C33.9457 44.1814 29.182 44.1779 24.4172 44.1799C24.7439 41.9708 24.4017 39.8071 23.9512 37.6523Z" fill="#DDF7F8"/>
<path d="M38.795 35.5982C38.7872 34.7808 39.4716 34.1461 40.3666 34.1416C41.2228 34.1416 42.1518 35.361 42.1735 36.523C42.1905 37.3117 41.39 37.7998 40.2644 37.9055C39.3911 37.9886 38.8925 36.6801 38.795 35.5982Z" fill="#FEE6CC"/>
<path d="M43.1016 36.8102C43.1078 36.7938 43.1179 36.7791 43.1311 36.7673C43.1443 36.7554 43.1602 36.7468 43.1774 36.7422C43.1774 36.8177 43.1774 36.8933 43.1774 36.9703C43.1558 36.9175 43.1279 36.8676 43.1016 36.8102Z" fill="#DDF6F7"/>
<path d="M21.0781 31.7452C21.0781 30.2735 21.0781 28.8018 21.0781 27.33C21.0781 25.8946 21.7857 25.1995 23.2365 25.1995C28.1602 25.1995 33.084 25.2116 38.0061 25.1904C39.299 25.1904 40.2667 25.7948 40.2001 27.321C40.1382 28.7519 40.1908 30.1919 40.1847 31.6228C40.1847 32.7908 39.5111 33.4512 38.3158 33.4512C32.9482 33.4512 27.5806 33.4512 22.2131 33.4512C22.1836 33.4119 22.1542 33.3711 22.1233 33.3318C21.7806 32.8039 21.4322 32.2751 21.0781 31.7452ZM26.9742 29.3472C26.9742 30.4231 27.5765 31.0758 28.586 31.0819C29.6296 31.0819 30.3357 30.3657 30.3279 29.3049C30.3202 28.3122 29.6017 27.5688 28.6542 27.5703C27.6648 27.5718 26.9789 28.2986 26.9742 29.3472ZM33.9417 29.3367C33.9417 28.3197 33.276 27.5869 32.3315 27.5718C31.387 27.5567 30.5787 28.3923 30.5849 29.385C30.5849 30.346 31.2925 31.0743 32.22 31.0849C33.3069 31.094 33.9371 30.4548 33.9417 29.3367ZM24.0602 29.3215C24.0602 29.7749 24.0602 30.2282 24.0602 30.6815C24.0602 30.887 24.0819 31.0607 24.3529 31.0713C24.9134 31.094 25.4739 31.1151 26.008 30.9202C26.5422 30.7253 26.8457 30.0529 26.4942 29.6343C26.2248 29.3125 26.0468 29.1266 26.4369 28.7715C26.6088 28.6204 26.5484 28.3092 26.3889 28.087C26.1164 27.7108 24.8762 27.4434 24.2785 27.6987C23.8311 27.8891 24.1237 28.3318 24.068 28.6552C24.0459 28.8767 24.0433 29.0996 24.0602 29.3215ZM37.2707 30.9837C36.9208 30.417 36.608 29.8776 36.2627 29.3608C36.1947 29.2827 36.1611 29.1816 36.1692 29.0794C36.1774 28.9772 36.2265 28.8823 36.3061 28.8154C36.5971 28.4739 36.8619 28.1127 37.1669 27.7229C36.56 27.5854 36.1373 27.6413 35.8524 28.1883C35.7115 28.4603 35.5613 28.7715 35.2207 28.9816C35.2207 28.634 35.2098 28.3515 35.2207 28.075C35.2315 27.7984 35.1479 27.6579 34.8382 27.6504C34.5286 27.6428 34.4001 27.7622 34.4062 28.078C34.4202 28.8879 34.4062 29.6978 34.4062 30.5077C34.4062 30.8099 34.4062 31.0637 34.846 31.0668C35.2857 31.0698 35.2129 30.7918 35.2253 30.5334C35.2377 30.275 35.1138 29.8716 35.4607 29.7945C35.7626 29.728 35.823 30.1239 35.9329 30.3415C36.2008 30.8809 36.5259 31.2647 37.2707 30.9746V30.9837Z" fill="#85D3DB"/>
<path d="M22.1406 33.335C22.1716 33.3742 22.201 33.415 22.2304 33.4543C22.1948 33.415 22.1654 33.3742 22.1406 33.335Z" fill="#FEFCFC"/>
<path d="M43.1755 8.07695H18.1729C18.1729 7.09631 18.1047 6.11263 18.1729 5.13652C18.3076 3.08607 20.1207 1.53577 22.3534 1.52972C27.2998 1.51864 32.2462 1.51864 37.1927 1.52972C38.0412 1.52972 38.8959 1.46475 39.7382 1.58865C40.6638 1.7272 41.5123 2.17251 42.1411 2.84971C42.7699 3.52691 43.1406 4.39472 43.191 5.30726C43.225 6.22596 43.1817 7.15221 43.1755 8.07695Z" fill="#DDF6F7"/>
<path d="M35.5503 14.3102C35.5627 13.8403 35.5813 13.3704 35.5844 12.9005C35.5844 12.6179 35.5844 12.3807 35.9978 12.3807C36.4546 12.3807 36.3524 12.6829 36.3555 12.9277C36.3555 13.7013 36.3647 14.4749 36.3555 15.2486C36.3555 15.4314 36.4778 15.72 36.1681 15.7623C35.8848 15.8016 35.5565 15.8923 35.3614 15.5206C35.0192 14.8723 34.6445 14.2407 34.2435 13.529C34.2435 14.1788 34.2435 14.7379 34.2435 15.309C34.2435 15.575 34.2249 15.7835 33.8533 15.791C33.4817 15.7986 33.4694 15.5886 33.4709 15.3211C33.4786 14.5293 33.4709 13.7361 33.4817 12.9443C33.4817 12.7509 33.3362 12.4351 33.7016 12.4033C34.0113 12.3777 34.355 12.2809 34.5733 12.6557C34.8969 13.2072 35.1447 13.8025 35.5581 14.3042C35.5606 14.321 35.5659 14.3373 35.5735 14.3526C35.5735 14.3526 35.5968 14.3526 35.6076 14.3526L35.5503 14.3102Z" fill="#FD807F"/>
<path d="M26.6325 13.488C26.6325 14.1996 26.6325 14.7723 26.6325 15.345C26.6325 15.5868 26.6325 15.7832 26.2841 15.7892C25.8924 15.7892 25.9125 15.5656 25.9141 15.3102C25.9141 14.5003 25.9141 13.6889 25.9141 12.879C25.9141 12.6947 25.8088 12.4091 26.1448 12.4015C26.4312 12.4015 26.7641 12.261 26.9669 12.6267C27.2766 13.2009 27.611 13.766 28.0183 14.4837C28.0183 13.7977 28.0183 13.2749 28.0183 12.7642C28.0183 12.5118 28.0879 12.3834 28.3759 12.3834C28.6639 12.3834 28.8002 12.4816 28.7971 12.7763C28.7893 13.6058 28.7971 14.4384 28.7971 15.2634C28.7971 15.4478 28.9117 15.7333 28.5927 15.7651C28.3078 15.7938 27.9734 15.8965 27.7829 15.5248C27.4872 14.9521 27.1636 14.3946 26.8539 13.8325C26.8059 13.7494 26.7548 13.6844 26.6325 13.488Z" fill="#FD807F"/>
<path d="M22.0938 14.1015C22.0938 13.0438 22.7565 12.3578 23.783 12.3623C24.76 12.3623 25.4413 13.0785 25.432 14.0894C25.4227 15.1003 24.6919 15.8603 23.7164 15.8558C22.741 15.8513 22.0907 15.1411 22.0938 14.1015ZM24.5572 14.0879C24.5572 13.9942 24.5572 13.899 24.5401 13.8069C24.4813 13.3747 24.2723 13.0378 23.8078 12.9818C23.3077 12.9229 23.0909 13.284 22.9732 13.6814C22.8594 14.0463 22.895 14.4401 23.0723 14.78C23.3588 15.333 24.0276 15.3602 24.376 14.8449C24.5147 14.6168 24.578 14.3524 24.5572 14.0879Z" fill="#FD807F"/>
<path d="M36.9754 14.162C36.9754 13.6377 36.9878 13.2041 36.9754 12.7719C36.963 12.4697 37.0838 12.373 37.3811 12.3836C37.8456 12.4017 38.3101 12.3972 38.7746 12.3836C39.0347 12.3836 39.1648 12.4561 39.1586 12.7357C39.1586 12.9895 39.0285 13.0651 38.7963 13.053C38.7006 13.0416 38.6039 13.0416 38.5083 13.053C38.2497 13.1013 37.8286 12.8716 37.8379 13.4035C37.8456 13.8901 38.2342 13.6785 38.4789 13.7239C38.5745 13.7352 38.6712 13.7352 38.7669 13.7239C39.0099 13.7072 39.1183 13.807 39.1121 14.0517C39.1059 14.2965 38.9883 14.3887 38.7514 14.3796C38.578 14.3796 38.4045 14.3796 38.2311 14.3796C37.9819 14.3691 37.8348 14.4386 37.8301 14.7226C37.8255 15.0067 37.9431 15.1321 38.2373 15.117C38.468 15.1034 38.7018 15.117 38.931 15.117C39.1896 15.117 39.2484 15.2681 39.2407 15.4887C39.2329 15.7093 39.1168 15.7909 38.9109 15.7743C38.8721 15.7743 38.8334 15.7743 38.7947 15.7743C38.2187 15.7592 37.4802 15.9526 37.1132 15.6761C36.7091 15.3829 37.0451 14.6244 36.9754 14.162Z" fill="#FD807F"/>
<path d="M34.7222 19.0386C34.7222 19.3876 34.7222 19.7351 34.7222 20.0827C34.7222 20.3184 34.7919 20.607 34.3893 20.6009C34.0286 20.6009 34.0797 20.335 34.0797 20.1144C34.0797 19.51 34.0797 18.9056 34.0797 18.3012C34.0797 18.1214 34.0301 17.8887 34.3042 17.8479C34.5442 17.8177 34.8089 17.7587 34.97 18.0413C35.21 18.4629 35.4639 18.8784 35.7983 19.4435C35.7983 18.9283 35.7983 18.5656 35.7983 18.2045C35.7983 17.999 35.8123 17.8282 36.0956 17.8297C36.3402 17.8297 36.4455 17.94 36.444 18.1712C36.444 18.8673 36.444 19.5644 36.444 20.2625C36.444 20.4257 36.4053 20.5647 36.204 20.5843C35.964 20.6085 35.7395 20.5979 35.6063 20.3531C35.354 19.8998 35.0907 19.4465 34.8322 18.9932L34.7222 19.0386Z" fill="#FD807F"/>
<path d="M22.1061 19.1903C22.096 19.0777 22.096 18.9644 22.1061 18.8518C22.1649 18.5345 21.9033 18.0721 22.2609 17.9225C22.5047 17.8312 22.7656 17.7917 23.0262 17.8069C23.2869 17.822 23.5412 17.8913 23.7721 18.0102C23.9269 18.0887 24.0942 18.2504 24.0446 18.4091C23.8898 18.8911 23.9688 19.3247 24.1499 19.7841C24.2382 20.0092 24.0617 20.2586 23.8402 20.4006C23.7249 20.4678 23.6003 20.5187 23.4702 20.5517C22.3724 20.8539 22.1015 20.668 22.1015 19.5862L22.1061 19.1903ZM23.049 19.4063C22.7223 19.4063 22.7951 19.6285 22.7827 19.8037C22.7703 20.0047 22.8416 20.1301 23.0769 20.1059C23.3123 20.0818 23.5027 20.0002 23.4872 19.7373C23.4717 19.4743 23.2643 19.4124 23.049 19.4003V19.4063ZM23.0738 18.9394C23.2286 18.9183 23.4191 18.8518 23.4299 18.6372C23.4408 18.4227 23.2503 18.335 23.0444 18.3093C22.8385 18.2837 22.7781 18.4121 22.7827 18.5874C22.7874 18.7626 22.7595 18.9273 23.0692 18.9334L23.0738 18.9394Z" fill="#FD807F"/>
<path d="M25.7843 20.6269C25.0179 20.6374 24.4666 20.0844 24.4496 19.2896C24.4326 18.4253 24.9652 17.839 25.7796 17.8254C26.5941 17.8118 27.1561 18.3649 27.1592 19.1854C27.1623 20.0058 26.5832 20.6178 25.7843 20.6269ZM26.4253 19.205C26.4253 18.8408 26.3696 18.4132 25.8276 18.3226C25.47 18.2621 25.1185 18.7109 25.1386 19.208C25.1541 19.6099 25.2253 20.027 25.758 20.0874C26.1528 20.1312 26.4052 19.8064 26.4253 19.205Z" fill="#FD807F"/>
<path d="M39.2519 19.8022C39.1869 20.0122 39.4068 20.3416 39.0321 20.5093C38.5196 20.7375 37.6215 20.6197 37.2174 20.2646C36.7111 19.8113 36.6414 18.9757 37.0626 18.4045C37.428 17.9089 38.4452 17.649 38.9531 17.9044C39.0692 17.9633 39.1404 18.0313 39.1188 18.1627C39.0971 18.2942 39.0321 18.409 38.8555 18.3985C38.6447 18.3768 38.4324 18.3718 38.2207 18.3833C37.7423 18.4362 37.5162 18.7294 37.4977 19.1872C37.4745 19.3872 37.5306 19.5882 37.6543 19.7492C37.7781 19.9101 37.9602 20.0188 38.1634 20.053C38.3059 20.0908 38.4963 20.1407 38.5629 19.9518C38.6156 19.8007 38.6744 19.5907 38.4375 19.5287C38.3937 19.524 38.3518 19.5089 38.3155 19.4847C38.2791 19.4604 38.2494 19.4278 38.2291 19.3897C38.2087 19.3516 38.1983 19.3092 38.1987 19.2663C38.1992 19.2233 38.2104 19.1811 38.2316 19.1434C38.3725 18.8412 38.6759 19.018 38.9066 18.9923C39.0955 18.9666 39.2566 19.018 39.2535 19.2567C39.2504 19.4214 39.2519 19.5906 39.2519 19.8022Z" fill="#FD807F"/>
<path d="M28.726 17.8291C29.5466 17.8291 30.0545 18.3459 30.07 19.1996C30.0839 20.0171 29.4847 20.6396 28.6919 20.6305C28.5085 20.6247 28.3281 20.5833 28.1612 20.5087C27.9944 20.4341 27.8444 20.3278 27.7202 20.1959C27.5959 20.0641 27.4998 19.9095 27.4375 19.741C27.3752 19.5725 27.3479 19.3936 27.3573 19.2147C27.3743 18.4335 27.9658 17.8291 28.726 17.8291ZM28.0525 19.2268C28.0525 19.73 28.3621 20.1334 28.7508 20.0911C29.2772 20.0412 29.3546 19.6227 29.384 19.2298C29.4197 18.7554 29.0744 18.3232 28.7198 18.3232C28.3652 18.3232 28.054 18.7357 28.0525 19.2238V19.2268Z" fill="#FD807F"/>
<path d="M31.1372 18.7541C31.6466 18.4247 31.7286 17.5378 32.5678 17.9065C32.5678 17.9412 32.5678 18.0153 32.5415 18.0409C31.7255 18.7088 31.7983 19.4009 32.4424 20.1413C32.5338 20.2455 32.7676 20.4223 32.5539 20.5568C32.4573 20.6224 32.3393 20.651 32.2225 20.6371C32.1056 20.6231 31.9982 20.5676 31.9206 20.4812C31.7983 20.3392 31.7364 20.1488 31.6233 19.9992C31.5103 19.8496 31.4855 19.5308 31.2347 19.5928C31.0257 19.6441 31.1217 19.9176 31.1031 20.0959C31.1031 20.1715 31.1031 20.247 31.1031 20.3226C31.1084 20.3602 31.1047 20.3986 31.0924 20.4346C31.0801 20.4707 31.0594 20.5035 31.0321 20.5305C31.0047 20.5576 30.9713 20.5781 30.9345 20.5905C30.8976 20.6029 30.8584 20.6069 30.8197 20.6021C30.6339 20.6021 30.4605 20.5719 30.459 20.3377C30.459 19.5842 30.459 18.8287 30.459 18.0712C30.459 17.8626 30.6138 17.8415 30.7779 17.84C30.9421 17.8385 31.0876 17.8929 31.0985 18.0848C31.1093 18.2767 31.1201 18.4852 31.1372 18.7541Z" fill="#FD807F"/>
<path d="M29.4188 14.041C29.4188 13.627 29.4281 13.2115 29.4188 12.7975C29.4095 12.527 29.473 12.3804 29.7982 12.3789C30.1233 12.3774 30.241 12.4817 30.2301 12.8035C30.21 13.4245 30.2425 14.0486 30.2178 14.6696C30.2054 15.0126 30.3169 15.1562 30.6745 15.1229C30.8851 15.1018 31.0988 15.1229 31.3109 15.1229C31.523 15.1229 31.6066 15.2453 31.6035 15.4448C31.6004 15.6442 31.5726 15.7863 31.3295 15.7863C30.7891 15.7863 30.2456 15.7863 29.7084 15.7863C29.4235 15.7863 29.4204 15.6034 29.4219 15.404C29.4188 14.9461 29.4188 14.4943 29.4188 14.041Z" fill="#FD807F"/>
<path d="M32.8029 14.0913C32.8029 14.5446 32.7936 14.9979 32.8029 15.4512C32.8122 15.7413 32.6558 15.7927 32.4065 15.7897C32.1572 15.7867 32.0488 15.7141 32.0488 15.4663C32.055 14.5446 32.055 13.6224 32.0488 12.6997C32.0488 12.4413 32.1928 12.3975 32.4173 12.3975C32.6744 12.3975 32.8137 12.4639 32.8075 12.7435C32.7951 13.1877 32.8029 13.6395 32.8029 14.0913Z" fill="#FE7978"/>
<path d="M33.5816 19.1895C33.5816 19.5476 33.5816 19.9058 33.5816 20.2639C33.5816 20.4422 33.5243 20.5479 33.3215 20.551C33.1187 20.554 32.9499 20.5298 32.9468 20.3031C32.9344 19.5688 32.9344 18.8344 32.9468 18.1001C32.9468 17.8689 33.1233 17.8447 33.3122 17.8447C33.5011 17.8447 33.594 17.9233 33.5909 18.1167C33.577 18.4778 33.5816 18.836 33.5816 19.1895Z" fill="#FE7978"/>
<path d="M26.9746 29.3473C26.9746 28.2986 27.6652 27.5718 28.6546 27.5703C29.6022 27.5703 30.3206 28.3122 30.3283 29.305C30.3283 30.3627 29.63 31.0864 28.5865 31.0819C27.5769 31.0759 26.97 30.4231 26.9746 29.3473ZM29.421 29.3956C29.4288 28.7126 29.1346 28.2608 28.6685 28.2412C28.17 28.2216 27.8045 28.7021 27.8092 29.3745C27.8092 29.9955 28.1312 30.3989 28.6252 30.408C29.1547 30.4186 29.4195 30.0907 29.4195 29.3956H29.421Z" fill="#F7F7F8"/>
<path d="M33.9408 29.3369C33.9408 30.4551 33.306 31.0942 32.219 31.0806C31.29 31.0701 30.5902 30.3417 30.584 29.3807C30.584 28.3925 31.386 27.5554 32.3305 27.5675C33.275 27.5796 33.9439 28.32 33.9408 29.3369ZM31.4944 29.2825C31.48 30.1075 31.7829 30.4818 32.4033 30.4052C32.8678 30.3463 33.131 29.9262 33.1109 29.2795C33.0907 28.6328 32.7702 28.2399 32.2964 28.2414C31.8227 28.2429 31.5037 28.6494 31.4944 29.2825Z" fill="#F7F7F8"/>
<path d="M24.0602 29.322C24.0426 29.0965 24.0452 28.87 24.068 28.645C24.1253 28.3217 23.8311 27.879 24.2785 27.6886C24.8762 27.4332 26.1164 27.7007 26.3889 28.0769C26.5438 28.299 26.6088 28.6057 26.4369 28.7614C26.0467 29.1165 26.2248 29.3023 26.4942 29.6242C26.8457 30.0427 26.5623 30.703 26.008 30.91C25.4537 31.1171 24.9134 31.0899 24.3529 31.0612C24.0819 31.0506 24.0587 30.8768 24.0602 30.6713C24.0618 30.2195 24.0602 29.7738 24.0602 29.322ZM24.7972 29.9883C24.7972 30.2407 24.7802 30.5036 25.158 30.493C25.477 30.4855 25.7618 30.3706 25.7773 30.0306C25.7866 29.6483 25.4475 29.5532 25.1363 29.526C24.7879 29.4942 24.7957 29.7571 24.7972 29.9883ZM24.7972 28.5831C24.7802 28.8082 24.8189 29.0364 25.1441 29.0016C25.3933 28.979 25.6612 28.9095 25.6751 28.6042C25.6922 28.2567 25.4042 28.1917 25.1332 28.166C24.8623 28.1404 24.7879 28.3292 24.8003 28.5831H24.7972Z" fill="#F7F7F8"/>
<path d="M37.27 30.975C36.5253 31.2606 36.2001 30.8768 35.9292 30.3404C35.8192 30.1228 35.7588 29.7269 35.4569 29.7934C35.1101 29.8705 35.234 30.2618 35.2216 30.5323C35.2092 30.8028 35.282 31.0672 34.8422 31.0657C34.4025 31.0642 34.401 30.8119 34.4025 30.5066C34.4025 29.6967 34.4149 28.8868 34.4025 28.0769C34.4025 27.7611 34.5062 27.6448 34.8345 27.6493C35.1627 27.6538 35.2386 27.7838 35.2247 28.0618C35.2107 28.3398 35.2247 28.6254 35.2247 28.9684C35.5653 28.7584 35.7155 28.4471 35.8564 28.1751C36.1413 27.6281 36.564 27.5707 37.1709 27.7097C36.8613 28.0996 36.6011 28.4652 36.3101 28.8022C36.2305 28.8691 36.1814 28.9641 36.1732 29.0662C36.1651 29.1684 36.1987 29.2696 36.2667 29.3477C36.6073 29.8735 36.9201 30.413 37.27 30.975Z" fill="#F7F7F8"/>
<path d="M35.5488 14.3102L35.6108 14.354C35.5999 14.354 35.5813 14.354 35.5767 14.354C35.569 14.3388 35.5638 14.3225 35.5612 14.3057L35.5488 14.3102Z" fill="#FEFCFC"/>
<path d="M24.5576 14.088C24.5781 14.352 24.5148 14.6158 24.3764 14.8435C24.0281 15.3588 23.3592 15.3316 23.0727 14.7786C22.8954 14.4387 22.8599 14.045 22.9737 13.6801C23.0913 13.2781 23.3081 12.9245 23.8082 12.9805C24.2727 13.0364 24.4817 13.3733 24.5406 13.8055C24.5545 13.9007 24.5514 13.9943 24.5576 14.088Z" fill="#FDF6F6"/>
<path d="M23.0496 19.3986C23.2648 19.4107 23.4738 19.4696 23.4877 19.7326C23.5017 19.9955 23.3143 20.0801 23.0774 20.1012C22.8405 20.1224 22.7678 19.997 22.7832 19.799C22.7956 19.6207 22.7229 19.3911 23.0496 19.3986Z" fill="#FDF6F6"/>
<path d="M23.0706 18.9324C22.761 18.9324 22.7842 18.739 22.7795 18.5728C22.7749 18.4066 22.8384 18.2706 23.0412 18.2948C23.244 18.319 23.4376 18.396 23.4267 18.6227C23.4159 18.8493 23.2255 18.9113 23.0706 18.9324Z" fill="#FDF6F6"/>
<path d="M26.4238 19.2063C26.4037 19.8107 26.1513 20.1325 25.7549 20.0887C25.2238 20.0283 25.1526 19.6112 25.1356 19.2093C25.1155 18.7122 25.4669 18.2634 25.8246 18.3238C26.3681 18.4145 26.4161 18.8421 26.4238 19.2063Z" fill="#FDF6F6"/>
<path d="M28.0508 19.224C28.0508 18.7284 28.3605 18.3174 28.7181 18.3174C29.0758 18.3174 29.418 18.7556 29.3824 19.224C29.3529 19.6169 29.2755 20.0354 28.7491 20.0853C28.3558 20.1246 28.0492 19.7272 28.0508 19.224Z" fill="#FDF6F6"/>
<path d="M29.4165 29.3962C29.4072 30.0913 29.1502 30.4192 28.6207 30.4086C28.1267 30.3995 27.8078 29.9961 27.8047 29.3751C27.8047 28.7027 28.1655 28.2221 28.664 28.2418C29.1316 28.2554 29.4258 28.7087 29.4165 29.3962Z" fill="#85D3DB"/>
<path d="M31.4946 29.2823C31.5039 28.6492 31.8166 28.2427 32.2966 28.2412C32.7766 28.2397 33.094 28.6507 33.111 29.2793C33.1281 29.9079 32.8664 30.3461 32.4034 30.405C31.7841 30.4826 31.4811 30.1083 31.4946 29.2823Z" fill="#85D3DB"/>
<path d="M24.7952 29.9899C24.7952 29.7572 24.7859 29.4943 25.1281 29.5261C25.4378 29.5533 25.7784 29.6484 25.7691 30.0307C25.7598 30.3707 25.4749 30.484 25.1498 30.4931C24.772 30.5037 24.7952 30.2408 24.7952 29.9899Z" fill="#85D3DB"/>
<path d="M24.7982 28.5837C24.7859 28.3298 24.8509 28.1395 25.1342 28.1667C25.4176 28.1938 25.6932 28.2573 25.6762 28.6048C25.6622 28.907 25.3944 28.9796 25.1451 29.0022C24.8199 29.0325 24.7812 28.8088 24.7982 28.5837Z" fill="#85D3DB"/>
</svg>
