<svg width="22" height="24" viewBox="0 0 22 24" fill="none" xmlns="http://www.w3.org/2000/svg">
<mask id="path-1-outside-1" maskUnits="userSpaceOnUse" x="-0.550781" y="2.31152" width="23" height="22" fill="black">
<rect fill="white" x="-0.550781" y="2.31152" width="23" height="22"/>
<path fill-rule="evenodd" clip-rule="evenodd" d="M21.5414 22.9063C21.5018 21.5978 19.8642 19.4584 18.4441 19.271C17.0413 19.0897 16.0076 18.3338 15.1814 17.6188C14.9794 17.4439 14.7973 17.3595 14.625 17.3595C14.4204 17.3595 14.2394 17.4767 14.0719 17.7187C13.6257 18.3631 13.0343 18.8796 12.4623 19.3796C12.1647 19.6398 11.8567 19.9085 11.5729 20.1924C11.4656 20.2974 11.3773 20.3461 11.2948 20.3461C11.2162 20.3461 11.1361 20.3004 11.0502 20.2062C10.7547 19.8805 10.4024 19.6114 10.0614 19.3512C9.85729 19.1953 9.6531 19.0393 9.45904 18.8705C8.49337 18.0323 8.09259 17.0878 8.23387 15.9821C8.23818 15.9468 8.23818 15.9076 8.23818 15.8679C8.23795 15.7908 8.23795 15.7107 8.27521 15.6737C8.29481 15.6539 8.32603 15.6444 8.37084 15.6444C8.38978 15.6444 8.41087 15.6461 8.43435 15.6495C8.50884 15.6616 8.58187 15.6698 8.65059 15.6698C8.889 15.6698 9.03909 15.566 9.10931 15.3524C9.2271 14.9828 8.96629 14.7855 8.73609 14.612L8.69109 14.5779C7.75082 13.8689 7.02614 12.9351 6.47568 11.7238C6.11085 10.9211 6.07364 10.1167 6.36524 9.33262C6.82978 8.06202 7.4009 7.21457 8.24531 6.5631C8.38378 6.45496 8.46735 6.38976 8.54296 6.38976C8.61079 6.38976 8.68982 6.4423 8.8251 6.57754C10.6739 8.41223 12.3946 9.57622 14.2403 10.2406C14.6753 10.3978 14.8106 10.6319 14.7223 11.0758L14.6654 11.3792C14.4561 12.5045 14.258 13.5675 13.3453 14.3644C13.2182 14.4747 13.1445 14.6124 13.1381 14.7537C13.132 14.8804 13.1824 15.0027 13.2828 15.1065C13.3784 15.2055 13.4891 15.2559 13.6119 15.2559C13.7429 15.2559 13.8832 15.1991 14.0309 15.087C14.5448 14.6977 14.92 14.1933 15.1461 13.5881C15.4726 12.7202 15.6664 11.9025 15.7388 11.0878C15.7655 10.7658 15.8012 10.5617 16.0756 10.4387C16.3121 10.3342 16.4107 10.1223 16.3392 9.8714C16.2789 9.6651 16.1157 9.54618 15.8801 9.53652C14.7059 9.48416 13.7152 8.98973 12.5885 8.26373C10.6007 6.98385 9.12014 5.73285 8.35495 3.7866C8.23176 3.46682 8.06681 3.31152 7.85039 3.31152C7.77951 3.31152 7.70287 3.32896 7.62253 3.36341C7.48017 3.42496 7.38435 3.5174 7.33804 3.63796C7.28053 3.78805 7.30209 3.98104 7.40053 4.19573C7.54589 4.51298 7.71281 4.82437 7.88962 5.15427C7.97254 5.30891 8.05804 5.46829 8.14523 5.63563C7.87734 5.70435 7.59993 5.79824 7.35768 5.98884C6.11676 6.95624 5.41082 8.28843 5.19956 10.0621C5.00939 11.644 5.81006 12.9251 6.70382 14.0738C7.25324 14.7811 7.21185 15.5831 7.17182 16.3583C7.15092 16.7607 7.12959 17.1771 7.18992 17.5799C7.19357 17.5997 7.14206 17.6522 7.11107 17.6837C7.08459 17.7108 7.05787 17.7384 7.03804 17.7651C6.4919 18.5085 5.83528 19.2063 4.7384 19.2786C4.45996 19.295 4.18364 19.3777 3.9164 19.4578C3.72192 19.5164 3.52078 19.5767 3.32221 19.6103C2.05528 19.8179 1.20909 20.5669 0.73551 21.9C0.70837 21.9763 0.672417 22.0585 0.635151 22.1429C0.517776 22.4104 0.384932 22.7132 0.483792 22.9501C0.534417 23.0716 0.64251 23.1655 0.805307 23.2275C0.885417 23.2585 0.96037 23.2736 1.02796 23.2736C1.37428 23.2736 1.48345 22.8976 1.57992 22.5659C1.60706 22.4728 1.63312 22.3824 1.66349 22.3057C2.03864 21.353 2.65439 20.7995 3.54571 20.6138C4.01329 20.5165 4.47778 20.4028 4.94212 20.29C5.21845 20.2228 5.49473 20.1556 5.77167 20.091C5.86987 20.0685 5.95818 20.0574 6.04153 20.0574C6.28185 20.0574 6.47892 20.1513 6.66196 20.3528C7.1196 20.8602 7.59876 21.3598 8.06198 21.844C8.30985 22.1024 8.55796 22.3613 8.80415 22.6228C9.11643 22.9549 9.35203 23.0965 9.59217 23.0965C9.8226 23.0965 10.0651 22.9608 10.3782 22.6555L10.4671 22.5689C10.8173 22.2256 11.0103 22.0365 11.1634 22.0365C11.3275 22.0365 11.4919 22.2583 11.8192 22.7012L11.8786 22.7813C11.9562 22.8898 12.0479 23.0121 12.1629 23.1022C12.2835 23.1939 12.4256 23.2469 12.5531 23.2469C12.6824 23.2469 12.7866 23.1948 12.8564 23.0957C13.1243 22.7029 13.4904 22.3872 13.8453 22.0818C14.2864 21.7019 14.7429 21.3091 15.0091 20.7655C15.3093 20.1509 15.7094 19.8644 16.2673 19.8644C16.4632 19.8644 16.6777 19.8997 16.9224 19.9712C17.0585 20.0121 17.2015 20.0362 17.3359 20.0561C19.0627 20.2839 20.0977 21.2728 20.5008 23.0802C20.562 23.361 20.6757 23.6824 21.0173 23.6824C21.0513 23.6824 21.0875 23.6794 21.1262 23.6724C21.5586 23.5937 21.5474 23.1635 21.5414 22.9063ZM14.9858 18.9161L14.9471 18.998C14.923 19.0501 14.8989 19.1026 14.8674 19.1526C14.2903 20.1174 13.5929 20.9401 12.7961 21.5978C12.6872 21.6869 12.6014 21.7288 12.5256 21.7288C12.4459 21.7288 12.3675 21.6822 12.2784 21.5823C12.0919 21.3712 11.9859 21.2161 12.2086 20.9973C12.5127 20.7023 12.8409 20.4215 13.1588 20.1497C13.6481 19.731 14.1538 19.2986 14.5879 18.8015C14.6405 18.7416 14.6939 18.711 14.7469 18.711C14.8364 18.7111 14.9252 18.8016 14.9858 18.9161ZM9.34021 21.6848C9.31415 21.652 9.28851 21.6201 9.26292 21.5931C8.99934 21.3195 8.74003 21.04 8.48071 20.7605C8.12732 20.3797 7.7737 19.9985 7.40803 19.6303C7.27556 19.498 7.21181 19.377 7.21354 19.2606C7.21612 19.0828 7.37118 18.9359 7.52128 18.7947L7.59923 18.7197C7.67892 18.64 7.7489 18.5996 7.80726 18.5996C7.91151 18.5996 7.98581 18.7361 8.05148 18.8567C8.07815 18.9058 8.10403 18.9527 8.13051 18.9898C8.45118 19.4338 8.88295 19.759 9.30037 20.0735C9.57342 20.2789 9.85579 20.4917 10.1015 20.7342L10.1749 20.8018C10.2837 20.9004 10.3867 20.9935 10.4129 21.1231C10.2568 21.3996 10.0254 21.6335 9.705 21.8381C9.66449 21.8648 9.62723 21.8777 9.5917 21.8777C9.49593 21.8777 9.41667 21.7796 9.34021 21.6848Z"/>
</mask>
<path fill-rule="evenodd" clip-rule="evenodd" d="M21.5414 22.9063C21.5018 21.5978 19.8642 19.4584 18.4441 19.271C17.0413 19.0897 16.0076 18.3338 15.1814 17.6188C14.9794 17.4439 14.7973 17.3595 14.625 17.3595C14.4204 17.3595 14.2394 17.4767 14.0719 17.7187C13.6257 18.3631 13.0343 18.8796 12.4623 19.3796C12.1647 19.6398 11.8567 19.9085 11.5729 20.1924C11.4656 20.2974 11.3773 20.3461 11.2948 20.3461C11.2162 20.3461 11.1361 20.3004 11.0502 20.2062C10.7547 19.8805 10.4024 19.6114 10.0614 19.3512C9.85729 19.1953 9.6531 19.0393 9.45904 18.8705C8.49337 18.0323 8.09259 17.0878 8.23387 15.9821C8.23818 15.9468 8.23818 15.9076 8.23818 15.8679C8.23795 15.7908 8.23795 15.7107 8.27521 15.6737C8.29481 15.6539 8.32603 15.6444 8.37084 15.6444C8.38978 15.6444 8.41087 15.6461 8.43435 15.6495C8.50884 15.6616 8.58187 15.6698 8.65059 15.6698C8.889 15.6698 9.03909 15.566 9.10931 15.3524C9.2271 14.9828 8.96629 14.7855 8.73609 14.612L8.69109 14.5779C7.75082 13.8689 7.02614 12.9351 6.47568 11.7238C6.11085 10.9211 6.07364 10.1167 6.36524 9.33262C6.82978 8.06202 7.4009 7.21457 8.24531 6.5631C8.38378 6.45496 8.46735 6.38976 8.54296 6.38976C8.61079 6.38976 8.68982 6.4423 8.8251 6.57754C10.6739 8.41223 12.3946 9.57622 14.2403 10.2406C14.6753 10.3978 14.8106 10.6319 14.7223 11.0758L14.6654 11.3792C14.4561 12.5045 14.258 13.5675 13.3453 14.3644C13.2182 14.4747 13.1445 14.6124 13.1381 14.7537C13.132 14.8804 13.1824 15.0027 13.2828 15.1065C13.3784 15.2055 13.4891 15.2559 13.6119 15.2559C13.7429 15.2559 13.8832 15.1991 14.0309 15.087C14.5448 14.6977 14.92 14.1933 15.1461 13.5881C15.4726 12.7202 15.6664 11.9025 15.7388 11.0878C15.7655 10.7658 15.8012 10.5617 16.0756 10.4387C16.3121 10.3342 16.4107 10.1223 16.3392 9.8714C16.2789 9.6651 16.1157 9.54618 15.8801 9.53652C14.7059 9.48416 13.7152 8.98973 12.5885 8.26373C10.6007 6.98385 9.12014 5.73285 8.35495 3.7866C8.23176 3.46682 8.06681 3.31152 7.85039 3.31152C7.77951 3.31152 7.70287 3.32896 7.62253 3.36341C7.48017 3.42496 7.38435 3.5174 7.33804 3.63796C7.28053 3.78805 7.30209 3.98104 7.40053 4.19573C7.54589 4.51298 7.71281 4.82437 7.88962 5.15427C7.97254 5.30891 8.05804 5.46829 8.14523 5.63563C7.87734 5.70435 7.59993 5.79824 7.35768 5.98884C6.11676 6.95624 5.41082 8.28843 5.19956 10.0621C5.00939 11.644 5.81006 12.9251 6.70382 14.0738C7.25324 14.7811 7.21185 15.5831 7.17182 16.3583C7.15092 16.7607 7.12959 17.1771 7.18992 17.5799C7.19357 17.5997 7.14206 17.6522 7.11107 17.6837C7.08459 17.7108 7.05787 17.7384 7.03804 17.7651C6.4919 18.5085 5.83528 19.2063 4.7384 19.2786C4.45996 19.295 4.18364 19.3777 3.9164 19.4578C3.72192 19.5164 3.52078 19.5767 3.32221 19.6103C2.05528 19.8179 1.20909 20.5669 0.73551 21.9C0.70837 21.9763 0.672417 22.0585 0.635151 22.1429C0.517776 22.4104 0.384932 22.7132 0.483792 22.9501C0.534417 23.0716 0.64251 23.1655 0.805307 23.2275C0.885417 23.2585 0.96037 23.2736 1.02796 23.2736C1.37428 23.2736 1.48345 22.8976 1.57992 22.5659C1.60706 22.4728 1.63312 22.3824 1.66349 22.3057C2.03864 21.353 2.65439 20.7995 3.54571 20.6138C4.01329 20.5165 4.47778 20.4028 4.94212 20.29C5.21845 20.2228 5.49473 20.1556 5.77167 20.091C5.86987 20.0685 5.95818 20.0574 6.04153 20.0574C6.28185 20.0574 6.47892 20.1513 6.66196 20.3528C7.1196 20.8602 7.59876 21.3598 8.06198 21.844C8.30985 22.1024 8.55796 22.3613 8.80415 22.6228C9.11643 22.9549 9.35203 23.0965 9.59217 23.0965C9.8226 23.0965 10.0651 22.9608 10.3782 22.6555L10.4671 22.5689C10.8173 22.2256 11.0103 22.0365 11.1634 22.0365C11.3275 22.0365 11.4919 22.2583 11.8192 22.7012L11.8786 22.7813C11.9562 22.8898 12.0479 23.0121 12.1629 23.1022C12.2835 23.1939 12.4256 23.2469 12.5531 23.2469C12.6824 23.2469 12.7866 23.1948 12.8564 23.0957C13.1243 22.7029 13.4904 22.3872 13.8453 22.0818C14.2864 21.7019 14.7429 21.3091 15.0091 20.7655C15.3093 20.1509 15.7094 19.8644 16.2673 19.8644C16.4632 19.8644 16.6777 19.8997 16.9224 19.9712C17.0585 20.0121 17.2015 20.0362 17.3359 20.0561C19.0627 20.2839 20.0977 21.2728 20.5008 23.0802C20.562 23.361 20.6757 23.6824 21.0173 23.6824C21.0513 23.6824 21.0875 23.6794 21.1262 23.6724C21.5586 23.5937 21.5474 23.1635 21.5414 22.9063ZM14.9858 18.9161L14.9471 18.998C14.923 19.0501 14.8989 19.1026 14.8674 19.1526C14.2903 20.1174 13.5929 20.9401 12.7961 21.5978C12.6872 21.6869 12.6014 21.7288 12.5256 21.7288C12.4459 21.7288 12.3675 21.6822 12.2784 21.5823C12.0919 21.3712 11.9859 21.2161 12.2086 20.9973C12.5127 20.7023 12.8409 20.4215 13.1588 20.1497C13.6481 19.731 14.1538 19.2986 14.5879 18.8015C14.6405 18.7416 14.6939 18.711 14.7469 18.711C14.8364 18.7111 14.9252 18.8016 14.9858 18.9161ZM9.34021 21.6848C9.31415 21.652 9.28851 21.6201 9.26292 21.5931C8.99934 21.3195 8.74003 21.04 8.48071 20.7605C8.12732 20.3797 7.7737 19.9985 7.40803 19.6303C7.27556 19.498 7.21181 19.377 7.21354 19.2606C7.21612 19.0828 7.37118 18.9359 7.52128 18.7947L7.59923 18.7197C7.67892 18.64 7.7489 18.5996 7.80726 18.5996C7.91151 18.5996 7.98581 18.7361 8.05148 18.8567C8.07815 18.9058 8.10403 18.9527 8.13051 18.9898C8.45118 19.4338 8.88295 19.759 9.30037 20.0735C9.57342 20.2789 9.85579 20.4917 10.1015 20.7342L10.1749 20.8018C10.2837 20.9004 10.3867 20.9935 10.4129 21.1231C10.2568 21.3996 10.0254 21.6335 9.705 21.8381C9.66449 21.8648 9.62723 21.8777 9.5917 21.8777C9.49593 21.8777 9.41667 21.7796 9.34021 21.6848Z" fill="#90C63E"/>
<path fill-rule="evenodd" clip-rule="evenodd" d="M21.5414 22.9063C21.5018 21.5978 19.8642 19.4584 18.4441 19.271C17.0413 19.0897 16.0076 18.3338 15.1814 17.6188C14.9794 17.4439 14.7973 17.3595 14.625 17.3595C14.4204 17.3595 14.2394 17.4767 14.0719 17.7187C13.6257 18.3631 13.0343 18.8796 12.4623 19.3796C12.1647 19.6398 11.8567 19.9085 11.5729 20.1924C11.4656 20.2974 11.3773 20.3461 11.2948 20.3461C11.2162 20.3461 11.1361 20.3004 11.0502 20.2062C10.7547 19.8805 10.4024 19.6114 10.0614 19.3512C9.85729 19.1953 9.6531 19.0393 9.45904 18.8705C8.49337 18.0323 8.09259 17.0878 8.23387 15.9821C8.23818 15.9468 8.23818 15.9076 8.23818 15.8679C8.23795 15.7908 8.23795 15.7107 8.27521 15.6737C8.29481 15.6539 8.32603 15.6444 8.37084 15.6444C8.38978 15.6444 8.41087 15.6461 8.43435 15.6495C8.50884 15.6616 8.58187 15.6698 8.65059 15.6698C8.889 15.6698 9.03909 15.566 9.10931 15.3524C9.2271 14.9828 8.96629 14.7855 8.73609 14.612L8.69109 14.5779C7.75082 13.8689 7.02614 12.9351 6.47568 11.7238C6.11085 10.9211 6.07364 10.1167 6.36524 9.33262C6.82978 8.06202 7.4009 7.21457 8.24531 6.5631C8.38378 6.45496 8.46735 6.38976 8.54296 6.38976C8.61079 6.38976 8.68982 6.4423 8.8251 6.57754C10.6739 8.41223 12.3946 9.57622 14.2403 10.2406C14.6753 10.3978 14.8106 10.6319 14.7223 11.0758L14.6654 11.3792C14.4561 12.5045 14.258 13.5675 13.3453 14.3644C13.2182 14.4747 13.1445 14.6124 13.1381 14.7537C13.132 14.8804 13.1824 15.0027 13.2828 15.1065C13.3784 15.2055 13.4891 15.2559 13.6119 15.2559C13.7429 15.2559 13.8832 15.1991 14.0309 15.087C14.5448 14.6977 14.92 14.1933 15.1461 13.5881C15.4726 12.7202 15.6664 11.9025 15.7388 11.0878C15.7655 10.7658 15.8012 10.5617 16.0756 10.4387C16.3121 10.3342 16.4107 10.1223 16.3392 9.8714C16.2789 9.6651 16.1157 9.54618 15.8801 9.53652C14.7059 9.48416 13.7152 8.98973 12.5885 8.26373C10.6007 6.98385 9.12014 5.73285 8.35495 3.7866C8.23176 3.46682 8.06681 3.31152 7.85039 3.31152C7.77951 3.31152 7.70287 3.32896 7.62253 3.36341C7.48017 3.42496 7.38435 3.5174 7.33804 3.63796C7.28053 3.78805 7.30209 3.98104 7.40053 4.19573C7.54589 4.51298 7.71281 4.82437 7.88962 5.15427C7.97254 5.30891 8.05804 5.46829 8.14523 5.63563C7.87734 5.70435 7.59993 5.79824 7.35768 5.98884C6.11676 6.95624 5.41082 8.28843 5.19956 10.0621C5.00939 11.644 5.81006 12.9251 6.70382 14.0738C7.25324 14.7811 7.21185 15.5831 7.17182 16.3583C7.15092 16.7607 7.12959 17.1771 7.18992 17.5799C7.19357 17.5997 7.14206 17.6522 7.11107 17.6837C7.08459 17.7108 7.05787 17.7384 7.03804 17.7651C6.4919 18.5085 5.83528 19.2063 4.7384 19.2786C4.45996 19.295 4.18364 19.3777 3.9164 19.4578C3.72192 19.5164 3.52078 19.5767 3.32221 19.6103C2.05528 19.8179 1.20909 20.5669 0.73551 21.9C0.70837 21.9763 0.672417 22.0585 0.635151 22.1429C0.517776 22.4104 0.384932 22.7132 0.483792 22.9501C0.534417 23.0716 0.64251 23.1655 0.805307 23.2275C0.885417 23.2585 0.96037 23.2736 1.02796 23.2736C1.37428 23.2736 1.48345 22.8976 1.57992 22.5659C1.60706 22.4728 1.63312 22.3824 1.66349 22.3057C2.03864 21.353 2.65439 20.7995 3.54571 20.6138C4.01329 20.5165 4.47778 20.4028 4.94212 20.29C5.21845 20.2228 5.49473 20.1556 5.77167 20.091C5.86987 20.0685 5.95818 20.0574 6.04153 20.0574C6.28185 20.0574 6.47892 20.1513 6.66196 20.3528C7.1196 20.8602 7.59876 21.3598 8.06198 21.844C8.30985 22.1024 8.55796 22.3613 8.80415 22.6228C9.11643 22.9549 9.35203 23.0965 9.59217 23.0965C9.8226 23.0965 10.0651 22.9608 10.3782 22.6555L10.4671 22.5689C10.8173 22.2256 11.0103 22.0365 11.1634 22.0365C11.3275 22.0365 11.4919 22.2583 11.8192 22.7012L11.8786 22.7813C11.9562 22.8898 12.0479 23.0121 12.1629 23.1022C12.2835 23.1939 12.4256 23.2469 12.5531 23.2469C12.6824 23.2469 12.7866 23.1948 12.8564 23.0957C13.1243 22.7029 13.4904 22.3872 13.8453 22.0818C14.2864 21.7019 14.7429 21.3091 15.0091 20.7655C15.3093 20.1509 15.7094 19.8644 16.2673 19.8644C16.4632 19.8644 16.6777 19.8997 16.9224 19.9712C17.0585 20.0121 17.2015 20.0362 17.3359 20.0561C19.0627 20.2839 20.0977 21.2728 20.5008 23.0802C20.562 23.361 20.6757 23.6824 21.0173 23.6824C21.0513 23.6824 21.0875 23.6794 21.1262 23.6724C21.5586 23.5937 21.5474 23.1635 21.5414 22.9063ZM14.9858 18.9161L14.9471 18.998C14.923 19.0501 14.8989 19.1026 14.8674 19.1526C14.2903 20.1174 13.5929 20.9401 12.7961 21.5978C12.6872 21.6869 12.6014 21.7288 12.5256 21.7288C12.4459 21.7288 12.3675 21.6822 12.2784 21.5823C12.0919 21.3712 11.9859 21.2161 12.2086 20.9973C12.5127 20.7023 12.8409 20.4215 13.1588 20.1497C13.6481 19.731 14.1538 19.2986 14.5879 18.8015C14.6405 18.7416 14.6939 18.711 14.7469 18.711C14.8364 18.7111 14.9252 18.8016 14.9858 18.9161ZM9.34021 21.6848C9.31415 21.652 9.28851 21.6201 9.26292 21.5931C8.99934 21.3195 8.74003 21.04 8.48071 20.7605C8.12732 20.3797 7.7737 19.9985 7.40803 19.6303C7.27556 19.498 7.21181 19.377 7.21354 19.2606C7.21612 19.0828 7.37118 18.9359 7.52128 18.7947L7.59923 18.7197C7.67892 18.64 7.7489 18.5996 7.80726 18.5996C7.91151 18.5996 7.98581 18.7361 8.05148 18.8567C8.07815 18.9058 8.10403 18.9527 8.13051 18.9898C8.45118 19.4338 8.88295 19.759 9.30037 20.0735C9.57342 20.2789 9.85579 20.4917 10.1015 20.7342L10.1749 20.8018C10.2837 20.9004 10.3867 20.9935 10.4129 21.1231C10.2568 21.3996 10.0254 21.6335 9.705 21.8381C9.66449 21.8648 9.62723 21.8777 9.5917 21.8777C9.49593 21.8777 9.41667 21.7796 9.34021 21.6848Z" stroke="#90C63E" stroke-width="0.4" mask="url(#path-1-outside-1)"/>
<path d="M16.7288 8.8576C16.8055 7.71188 16.6328 6.50564 16.2008 5.1646C15.4763 2.89856 13.2047 1.31611 10.6762 1.31611C9.64458 1.31611 8.66039 1.5795 7.75074 2.09897L7.80033 2.18581C7.80039 2.18577 7.80046 2.18573 7.80052 2.1857M16.7288 8.8576L10.9484 15.4868C10.1944 15.5278 9.71222 16.0007 9.65883 16.7518M16.7288 8.8576C16.7754 9.86053 16.709 10.7489 16.5264 11.5731L16.7288 8.8576ZM7.80052 2.1857C6.68544 2.82757 5.917 3.71569 5.51122 4.82553L5.51114 4.82574C4.94704 6.3581 4.69584 7.86756 4.74237 9.44152L4.74238 9.44185C4.76572 10.3334 4.76703 11.2682 4.74651 12.22L4.74651 12.2203C4.73918 12.5247 4.67998 12.7644 4.53979 12.9278C4.39607 13.0953 4.18485 13.1632 3.92138 13.1632C3.84166 13.1632 3.75565 13.1573 3.6636 13.1456C2.91457 13.0548 2.39861 12.8773 2.07921 12.5075C1.75994 12.1379 1.65671 11.5988 1.67077 10.8387L1.67077 10.8387C1.68384 10.1473 1.77406 9.466 1.85988 8.89395L1.86 8.89314L1.86 8.89314C1.91746 8.53033 2.0561 8.23218 2.27194 8.01602C2.4883 7.79935 2.77552 7.67185 3.11722 7.63944C3.28775 7.62233 3.38568 7.58159 3.44929 7.51683C3.51428 7.45066 3.55937 7.34343 3.58632 7.15628C3.7454 6.04304 4.10358 4.90883 4.67944 3.68971L4.67945 3.68971C5.39922 2.16608 6.68779 1.14544 8.7119 0.472205L8.712 0.47217C9.34169 0.263496 10.0016 0.157812 10.6731 0.157812C13.366 0.157812 15.606 1.77465 16.5515 3.28363C17.1665 4.25695 17.5568 5.4156 17.7847 6.92378L17.7847 6.9239L17.7951 6.99277C17.8326 7.23898 17.8648 7.43936 17.958 7.58673C18.0436 7.72202 18.1893 7.82391 18.4917 7.84246C18.916 7.86324 19.2336 8.18586 19.4281 8.70974L19.4281 8.70979C19.8055 9.7285 19.876 10.7658 19.6367 11.7911L19.6367 11.7912C19.5231 12.2765 19.3051 12.657 18.9792 12.922C18.6537 13.1868 18.2296 13.3289 17.7171 13.3543L17.7165 13.3543C17.52 13.3629 17.3952 13.4017 17.3044 13.4742C17.2127 13.5474 17.1413 13.6666 17.0774 13.8678L16.9821 13.8376M7.80052 2.1857C8.69527 1.67479 9.66233 1.41611 10.6762 1.41611C13.1649 1.41611 15.3954 2.97389 16.1056 5.19505L16.1056 5.19526C16.5346 6.52693 16.7047 7.72035 16.6291 8.85092L16.6284 8.85088L16.629 8.86223C16.6752 9.85779 16.6092 10.737 16.4289 11.5511L7.80052 2.1857ZM16.9821 13.8376L17.0775 13.8676C16.489 15.7347 15.3548 16.8693 13.6147 17.3173L13.6141 17.3174C13.3183 17.3915 13.0046 17.4991 12.7763 17.7491C12.403 18.1665 11.9159 18.3671 11.2995 18.3671C11.1429 18.3671 10.979 18.3546 10.7993 18.3295C10.0171 18.2207 9.49704 17.5497 9.55911 16.7444C9.55911 16.7443 9.55912 16.7442 9.55913 16.7441L9.65883 16.7518M16.9821 13.8376C17.1148 13.4198 17.2991 13.2724 17.7121 13.2544L13.5898 17.2204M16.9821 13.8376C16.4028 15.6754 15.2928 16.782 13.5898 17.2204M9.65883 16.7518C9.60047 17.5073 10.0859 18.1293 10.8131 18.2305C10.9891 18.2551 11.1482 18.2671 11.2995 18.2671C11.8914 18.2671 12.3502 18.0758 12.7021 17.6821C12.9514 17.4087 13.2905 17.2954 13.5898 17.2204M9.65883 16.7518L13.5898 17.2204M3.46032 11.9423C3.66685 11.9175 3.67524 11.7846 3.66427 11.569L3.46032 11.9423ZM3.46032 11.9423C3.43318 11.9457 3.40665 11.9474 3.38086 11.9474C3.16505 11.9474 2.99883 11.8238 2.9131 11.6L3.46032 11.9423ZM18.3216 9.30307L18.3211 9.30179C18.2901 9.21969 18.2534 9.16652 18.2159 9.13442C18.1803 9.10386 18.1399 9.0888 18.0908 9.0888C18.0811 9.0888 18.0714 9.0893 18.0601 9.09052L18.0494 8.9911M18.3216 9.30307L17.6359 11.1099C17.7341 10.5417 17.8356 9.95429 17.8219 9.36113M18.3216 9.30307C18.4848 9.71692 18.5707 10.1729 18.5551 10.5215L18.555 10.5215L18.555 10.525C18.5509 10.924 18.534 11.2529 18.4412 11.5166C18.3513 11.7721 18.1892 11.9682 17.8811 12.1002L18.3216 9.30307ZM18.0494 8.9911L18.0608 9.09044C17.9909 9.09848 17.9652 9.1235 17.9498 9.15321C17.9291 9.19327 17.9198 9.25807 17.9219 9.35882C17.9219 9.35889 17.9219 9.35896 17.9219 9.35903L17.8219 9.36113M18.0494 8.9911C18.0641 8.9895 18.0774 8.9888 18.0908 8.9888C18.2359 8.9888 18.3449 9.08208 18.4147 9.26639L17.8219 9.36113M18.0494 8.9911C17.8546 9.0135 17.8176 9.15521 17.8219 9.36113M3.28308 8.95478H3.29534L3.30263 8.95538C3.37106 8.96102 3.39885 8.98431 3.41692 9.01444C3.44067 9.05405 3.45496 9.1189 3.46144 9.2222C3.46145 9.22242 3.46147 9.22265 3.46148 9.22287L3.48231 9.65241C3.51203 10.2674 3.54171 10.8832 3.56108 11.4955L3.56112 11.4966L3.56436 11.5732L3.5644 11.5741C3.57013 11.6868 3.56782 11.75 3.55164 11.7885C3.54538 11.8034 3.53764 11.8126 3.5263 11.82C3.5134 11.8284 3.49026 11.8379 3.44842 11.843L3.44764 11.8431C3.42458 11.846 3.40228 11.8474 3.38086 11.8474C3.21243 11.8474 3.07988 11.7552 3.00674 11.5649C2.92574 11.3431 2.93095 11.1173 2.93857 10.8547L2.93857 10.8547C2.94179 10.7437 2.94492 10.6285 2.94006 10.514C2.92739 10.016 2.9733 9.58146 3.07889 9.18367L3.07891 9.18362C3.10461 9.08654 3.13572 9.03001 3.1673 8.99818C3.19535 8.96992 3.22991 8.95478 3.28308 8.95478ZM18.655 10.526C18.6468 11.3209 18.5896 11.9056 17.9202 12.1922L18.655 10.526Z" fill="#90C63E" stroke="#90C63E" stroke-width="0.2"/>
</svg>
