<?xml version="1.0" encoding="UTF-8"?>
<svg width="250px" height="42px" viewBox="0 0 250 42" version="1.1" xmlns="http://www.w3.org/2000/svg" xmlns:xlink="http://www.w3.org/1999/xlink">
    <title>2E4EEA31-683C-45D8-9B61-BCE994BB614B</title>
    <g id="web-of-book-us" stroke="none" stroke-width="1" fill="none" fill-rule="evenodd">
        <g id="Custom-Preset-Copy-8" transform="translate(-243.000000, -817.000000)" fill-rule="nonzero">
            <g id="Group" transform="translate(243.000000, 680.000000)">
                <g id="light_orange" transform="translate(0.000000, 137.000000)">
                    <polygon id="Path-Copy-15" fill-opacity="0.0142045455" fill="#FFFFFF" points="7.57004202 38 10.4424549 27.1415849 11.2558298 24.0670986 8.88537705 22.007771 0 14.2885892 10.7325715 13.8889087 14.0255452 13.7662564 15.1484756 10.5896808 18.892049 0 22.4329858 10.5172132 23.5268976 13.7663711 26.8769394 13.8889851 38 14.2962335 29.1233966 22.007771 26.7942726 24.0312087 27.5465769 27.0648365 30.2573977 37.9956045 21.8699551 31.7674755 19.0337037 29.661365 16.1775101 31.7389241"></polygon>
                    <polygon id="Path-Copy-14" fill="#FFA13E" points="163.570042 38 166.442455 27.1415849 167.25583 24.0670986 164.885377 22.007771 156 14.2885892 166.732572 13.8889087 170.025545 13.7662564 171.148476 10.5896808 174.892049 0 178.432986 10.5172132 179.526898 13.7663711 182.876939 13.8889851 194 14.2962335 185.123397 22.007771 182.794273 24.0312087 183.546577 27.0648365 186.257398 37.9956045 177.869955 31.7674755 175.033704 29.661365 172.17751 31.7389241"></polygon>
                    <polygon id="Path-Copy-13" fill-opacity="0.0102436626" fill="#FFFFFF" points="59.570042 38 62.4424549 27.1415849 63.2558298 24.0670986 60.885377 22.007771 52 14.2885892 62.7325715 13.8889087 66.0255452 13.7662564 67.1484756 10.5896808 70.892049 0 74.4329858 10.5172132 75.5268976 13.7663711 78.8769394 13.8889851 90 14.2962335 81.1233966 22.007771 78.7942726 24.0312087 79.5465769 27.0648365 82.2573977 37.9956045 73.8699551 31.7674755 71.0337037 29.661365 68.1775101 31.7389241"></polygon>
                    <polygon id="Path-Copy-12" fill="#FFA13E" points="111.570042 38 114.442455 27.1415849 115.25583 24.0670986 112.885377 22.007771 104 14.2885892 114.732572 13.8889087 118.025545 13.7662564 119.148476 10.5896808 122.892049 0 126.432986 10.5172132 127.526898 13.7663711 130.876939 13.8889851 142 14.2962335 133.123397 22.007771 130.794273 24.0312087 131.546577 27.0648365 134.257398 37.9956045 125.869955 31.7674755 123.033704 29.661365 120.17751 31.7389241"></polygon>
                    <polygon id="Path-Copy-11" fill="#FFA13E" points="215.570042 38 218.442455 27.1415849 219.25583 24.0670986 216.885377 22.007771 208 14.2885892 218.732572 13.8889087 222.025545 13.7662564 223.148476 10.5896808 226.892049 0 230.432986 10.5172132 231.526898 13.7663711 234.876939 13.8889851 246 14.2962335 237.123397 22.007771 234.794273 24.0312087 235.546577 27.0648365 238.257398 37.9956045 229.869955 31.7674755 227.033704 29.661365 224.17751 31.7389241"></polygon>
                </g>
            </g>
        </g>
    </g>
</svg>