<?xml version="1.0" encoding="UTF-8"?>
<svg width="16px" height="20px" viewBox="0 0 16 20" version="1.1" xmlns="http://www.w3.org/2000/svg" xmlns:xlink="http://www.w3.org/1999/xlink">
    <!-- Generator: Sketch 63.1 (92452) - https://sketch.com -->
    <title>palm</title>
    <desc>Created with Sketch.</desc>
    <g id="Page-1" stroke="none" stroke-width="1" fill="none" fill-rule="evenodd">
        <g id="iPhone-11-Pro-Copy-7" transform="translate(-186.000000, -293.000000)" fill-rule="nonzero">
            <g id="palm" transform="translate(186.000000, 293.000000)">
                <path d="M14.6423701,2.5974026 C13.9082792,2.5974026 13.3125,3.17921826 13.3125,3.8961039 L13.3125,2.16444931 C13.3125,1.44756368 12.7167208,0.865748011 11.9826299,0.865748011 C11.248539,0.865748011 10.6527597,1.44756368 10.6527597,2.16444931 L10.6527597,1.2987013 C10.6527597,0.581815666 10.0569805,0 9.3228896,0 C8.58879871,0 7.99301947,0.581815666 7.99301947,1.2987013 L7.99301947,2.16444931 C7.99301947,1.44756368 7.39724027,0.865748011 6.66314934,0.865748011 C5.92905845,0.865748011 5.33327921,1.44756368 5.33327921,2.16444931 L5.33327921,12.121265 L2.03798699,10.1472136 L2.03522726,10.1472136 C1.84025974,10.025936 1.60081168,9.9566571 1.34366882,9.9566571 C0.607792208,9.9566571 0.0137986909,10.5367289 0.0137986909,11.2553584 C0.0137986909,11.5064745 0.084740239,11.7488713 0.217694795,11.9479886 L0.216071439,11.9446593 L4.29074676,18.2900961 C4.93977272,19.3004261 6.074513,19.9134728 7.29529222,19.9134728 L11.5394481,19.9134728 C13.9871753,19.9134728 15.9722402,17.9749328 15.9722402,15.5844156 L15.9722402,3.8961039 C15.9722402,3.17921826 15.376461,2.5974026 14.6423701,2.5974026 Z" id="Path" fill="#C48830"></path>
                <g id="Group" transform="translate(7.979221, 0.324675)" fill="#714A11">
                    <path d="M5.75944589,2.67532468 L5.75944589,9.71699134 C5.52056881,9.71699134 5.33277922,9.55585266 5.33277922,9.35070609 L5.33277922,3.48866584 C5.33277922,3.16625429 5.49494694,2.87309191 5.75944589,2.67532468 Z" id="Path"></path>
                    <path d="M3.11411255,0.883658009 L3.11411255,9.05032468 C2.87523548,9.05032468 2.68744589,8.88854186 2.68744589,8.6827466 L2.68744589,1.69957093 C2.68744589,1.37613991 2.84961361,1.08218513 3.11411255,0.883658009 Z" id="Path"></path>
                    <path d="M0.468779221,0.00865800866 L0.468779221,8.55032468 C0.229902146,8.55032468 0.0421125541,8.38853334 0.0421125541,8.18242113 L0.0421125541,0.825293411 C0.0421125541,0.50157601 0.204280274,0.207226247 0.468779221,0.00865800866 Z" id="Path"></path>
                </g>
            </g>
        </g>
    </g>
</svg>