<svg width="15" height="15" viewBox="0 0 15 15" fill="none" xmlns="http://www.w3.org/2000/svg">
<path d="M1.71416 1.83366H4.89453L5.91964 4.39643L4.27285 5.49429C4.0758 5.62566 3.95743 5.84683 3.95743 6.08366C3.95923 6.14998 3.95743 6.08437 3.95743 6.08437L3.95743 6.08511L3.95744 6.0867L3.95746 6.09027L3.95756 6.09901C3.95767 6.10554 3.95785 6.11347 3.95815 6.12275C3.95875 6.14132 3.95983 6.16533 3.96177 6.19442C3.96565 6.25257 3.97295 6.33118 3.98669 6.42732C4.01414 6.61949 4.06742 6.88274 4.17087 7.19307C4.37857 7.8162 4.7867 8.623 5.58157 9.41786C6.37643 10.2127 7.18323 10.6209 7.80635 10.8286C8.11669 10.932 8.37993 10.9853 8.5721 11.0127C8.66825 11.0265 8.74686 11.0338 8.80501 11.0377C8.83409 11.0396 8.8581 11.0407 8.87667 11.0413C8.88596 11.0416 8.89389 11.0418 8.90041 11.0419L8.90915 11.042L8.91273 11.042L8.91431 11.042L8.91506 11.042C8.91506 11.042 8.99413 11.0377 8.91576 11.042C9.18406 11.042 9.42933 10.8904 9.54932 10.6504L10.0237 9.7017L13.1658 10.2254V13.2853C11.6704 13.5015 7.63184 13.7147 4.4583 10.5411C1.28475 7.36758 1.4979 3.32902 1.71416 1.83366ZM5.42627 6.42797L6.70547 5.57517C7.26288 5.20356 7.48379 4.4923 7.23498 3.87029L6.20988 1.30752C5.99474 0.769673 5.47382 0.416992 4.89453 0.416992H1.67715C1.03362 0.416992 0.42787 0.864065 0.322226 1.5623C0.0818811 3.15081 -0.245261 7.84103 3.45657 11.5429C7.15839 15.2447 11.8486 14.9175 13.4371 14.6772C14.1354 14.5716 14.5824 13.9658 14.5824 13.3223V10.2254C14.5824 9.53285 14.0818 8.94183 13.3987 8.82798L10.2566 8.3043C9.64312 8.20206 9.03471 8.51188 8.75658 9.06814L8.51115 9.55901C8.43401 9.54008 8.34789 9.51578 8.25434 9.48459C7.81497 9.33813 7.2051 9.03793 6.5833 8.41613C5.9615 7.79432 5.66129 7.18446 5.51483 6.74508C5.47526 6.62635 5.44677 6.5196 5.42627 6.42797Z" fill="white"/>
</svg>
