<svg width="40" height="40" viewBox="0 0 40 40" fill="none" xmlns="http://www.w3.org/2000/svg">
<circle cx="20" cy="20" r="19.1" fill="#F3D5D5" stroke="#FD6D6D" stroke-width="1.8"/>
<path fill-rule="evenodd" clip-rule="evenodd" d="M20.1176 5.75211C20.7317 5.75772 21.3529 5.80309 21.9783 5.89048C22.4705 5.95927 22.9254 5.61597 22.9941 5.12369C23.0629 4.63142 22.7196 4.17659 22.2274 4.1078C21.5247 4.00961 20.8258 3.9585 20.134 3.95219C19.637 3.94765 19.2304 4.3469 19.2259 4.84393C19.2213 5.34097 19.6206 5.74757 20.1176 5.75211ZM16.4279 6.20609C16.909 6.08106 17.1977 5.58972 17.0726 5.10864C16.9476 4.62757 16.4563 4.33893 15.9752 4.46396C14.6078 4.81932 13.3037 5.35218 12.093 6.03956C11.6608 6.28497 11.5093 6.83432 11.7547 7.26657C12.0002 7.69882 12.5495 7.85028 12.9818 7.60487C14.0572 6.99426 15.2149 6.52134 16.4279 6.20609ZM10.0119 9.8465C10.3664 9.49808 10.3713 8.92826 10.0229 8.57376C9.67447 8.21926 9.10465 8.21433 8.75015 8.56275C7.75722 9.53864 6.8873 10.6467 6.17072 11.8643C6.15858 11.8849 6.14737 11.9058 6.13705 11.9269C4.75382 14.2985 3.96094 17.0573 3.96094 20.0004C3.96094 20.4975 4.36388 20.9004 4.86094 20.9004C5.35799 20.9004 5.76094 20.4975 5.76094 20.0004C5.76094 19.3435 5.80537 18.6969 5.89142 18.0636C5.8935 18.052 5.89538 18.0402 5.89703 18.0284C5.98442 17.403 6.11105 16.7933 6.274 16.2011C6.27767 16.1878 6.28102 16.1745 6.28405 16.1611C6.91544 13.8991 8.09119 11.8643 9.6619 10.2058C9.67576 10.1912 9.68903 10.1762 9.70171 10.1609C9.80352 10.0545 9.90692 9.94966 10.0119 9.8465Z" fill="#FD6D6D"/>
<path fill-rule="evenodd" clip-rule="evenodd" d="M20.0972 34.2469C19.4831 34.2413 18.862 34.1959 18.2366 34.1085C17.7443 34.0398 17.2895 34.3831 17.2207 34.8753C17.1519 35.3676 17.4952 35.8224 17.9875 35.8912C18.6902 35.9894 19.389 36.0405 20.0808 36.0468C20.5778 36.0514 20.9844 35.6521 20.989 35.1551C20.9935 34.6581 20.5943 34.2514 20.0972 34.2469ZM23.7869 33.7929C23.3058 33.918 23.0172 34.4093 23.1422 34.8904C23.2672 35.3715 23.7586 35.6601 24.2396 35.5351C25.607 35.1797 26.9111 34.6468 28.1218 33.9595C28.554 33.7141 28.7055 33.1647 28.4601 32.7325C28.2147 32.3002 27.6653 32.1487 27.2331 32.3942C26.1576 33.0048 24.9999 33.4777 23.7869 33.7929ZM30.203 30.1525C29.8485 30.5009 29.8435 31.0708 30.192 31.4253C30.5404 31.7798 31.1102 31.7847 31.4647 31.4363C32.4576 30.4604 33.3275 29.3523 34.0441 28.1347C34.0563 28.1141 34.0675 28.0932 34.0778 28.0721C35.461 25.7005 36.2539 22.9417 36.2539 19.9986C36.2539 19.5015 35.851 19.0986 35.3539 19.0986C34.8569 19.0986 34.4539 19.5015 34.4539 19.9986C34.4539 20.6556 34.4095 21.3021 34.3234 21.9354C34.3213 21.9471 34.3195 21.9588 34.3178 21.9706C34.2304 22.596 34.1038 23.2058 33.9408 23.7979C33.9372 23.8112 33.9338 23.8246 33.9308 23.8379C33.2994 26.1 32.1237 28.1347 30.5529 29.7932C30.5391 29.8078 30.5258 29.8228 30.5131 29.8381C30.4113 29.9445 30.3079 30.0494 30.203 30.1525Z" fill="#FD6D6D"/>
<path d="M20 10L23.09 16.26L30 17.27L25 22.14L26.18 29.02L20 25.77L13.82 29.02L15 22.14L10 17.27L16.91 16.26L20 10Z" stroke="#FD6D6D" stroke-width="1.8" stroke-linecap="round" stroke-linejoin="round"/>
</svg>
