<svg width="27" height="27" viewBox="0 0 27 27" fill="none" xmlns="http://www.w3.org/2000/svg">
<path d="M9.43472 10.1418H9.43441C7.79856 10.1319 6.16271 10.1319 4.52685 10.1418L4.52655 10.1418C4.28201 10.1418 4.10292 10.0882 3.987 9.96328C3.87183 9.83915 3.82939 9.65551 3.8309 9.4207L3.8309 9.4206C3.84469 7.80255 3.84469 6.1855 3.8309 4.56943L3.8309 4.569C3.8309 4.31015 3.88575 4.1233 4.01564 4.00366C4.14465 3.88483 4.33634 3.84303 4.58315 3.84528L4.58316 3.84528C6.1815 3.86005 7.78121 3.863 9.37936 3.84528C9.37941 3.84528 9.37945 3.84528 9.37949 3.84528L9.38005 3.89527C9.91785 3.88641 10.0951 4.10803 10.0818 4.62515L9.43472 10.1418ZM9.43472 10.1418C9.68102 10.1418 9.86306 10.0859 9.97944 9.95901C10.0952 9.8328 10.1356 9.64757 10.1259 9.41374L9.43472 10.1418ZM4.85284 4.87461H9.10104V9.12133H4.85284V4.87461Z" fill="white" stroke="white" stroke-width="0.1"/>
<path d="M19.3528 10.1328L19.3527 10.1328C19.0822 10.1328 18.8113 10.1315 18.5407 10.1302C18.0001 10.1275 17.4602 10.1249 16.9259 10.1328L16.9252 10.1328C16.6905 10.1328 16.5066 10.09 16.3825 9.97463C16.2575 9.85845 16.2044 9.67926 16.2059 9.43388L16.2059 9.43383C16.2177 7.79802 16.2177 6.1627 16.2059 4.52787L16.2059 4.52751C16.2059 4.28046 16.2615 4.10191 16.3882 3.98733C16.5138 3.87377 16.6984 3.8333 16.9314 3.83481L16.9315 3.83481C18.5565 3.84662 20.1667 3.84958 21.7841 3.83481L21.7846 3.8348C22.0451 3.8348 22.2313 3.89084 22.3498 4.02149C22.4674 4.15107 22.5076 4.34266 22.5054 4.58702C22.5054 4.58703 22.5054 4.58705 22.5054 4.58706L22.4554 4.5866C22.4421 6.18671 22.4391 7.78533 22.4554 9.38396L19.3528 10.1328ZM19.3528 10.1328C19.5855 10.1324 19.8182 10.1307 20.0507 10.1289C20.6077 10.1248 21.1635 10.1207 21.7153 10.1343M19.3528 10.1328L21.7153 10.1343M16.2559 9.43419C16.2677 7.79814 16.2677 6.16257 16.2559 4.52751C16.2559 4.04585 16.4731 3.88185 16.9311 3.8848C18.5563 3.89662 20.1668 3.89958 21.7846 3.8848L16.2559 9.43419ZM16.2559 9.43419C16.2529 9.91289 16.4642 10.0828 16.9252 10.0828C17.46 10.0749 18.0007 10.0775 18.5416 10.0802C18.8121 10.0815 19.0827 10.0828 19.3527 10.0828L16.2559 9.43419ZM21.7153 10.1343C21.7154 10.1343 21.7154 10.1343 21.7154 10.1343L21.7166 10.0843L21.7153 10.1343ZM17.2278 4.87595H21.4746V9.12268H17.2278V4.87595Z" fill="white" stroke="white" stroke-width="0.1"/>
<path d="M10.1299 16.999C10.1374 16.7368 10.0967 16.5354 9.97333 16.4006C9.84922 16.265 9.65275 16.2089 9.37962 16.2089L9.37902 16.2089C7.78088 16.2281 6.18115 16.2236 4.58273 16.2089L4.58273 16.2089C4.33677 16.2066 4.14478 16.2476 4.01521 16.3658C3.88464 16.4849 3.82899 16.6714 3.82899 16.9311L3.82899 16.9315C3.84081 18.5496 3.84081 20.1667 3.82899 21.7828L3.87899 21.7831L3.82899 21.7827C3.82674 22.0165 3.86757 22.2009 3.98167 22.326C4.09665 22.4521 4.27553 22.5069 4.52169 22.5069L4.52199 22.5069L10.077 21.7861L10.127 21.7854C10.127 21.7854 10.127 21.7854 10.127 21.7853C10.1201 21.2588 10.1224 20.7327 10.1247 20.206C10.1258 19.9424 10.127 19.6787 10.127 19.4148C10.127 19.1598 10.1254 18.9051 10.1238 18.6508C10.1203 18.0974 10.1168 17.546 10.1299 16.999ZM10.1299 16.999C10.1299 16.9989 10.1299 16.9989 10.1299 16.9988L10.0799 16.9976L10.1299 16.999C10.1299 16.999 10.1299 16.999 10.1299 16.999ZM4.85832 21.4775V17.2338H9.11539V21.4775H4.85832Z" fill="white" stroke="white" stroke-width="0.1"/>
<path d="M1.28584 1.29663C1.6507 1.29669 2.01137 1.29747 2.36889 1.29824C3.58798 1.30087 4.77038 1.30342 5.95694 1.27741C5.95712 1.27741 5.95729 1.27741 5.95746 1.2774L1.28584 1.29663ZM1.28584 1.29663V5.43082V5.43179V5.43276V5.43373V5.4347V5.43567V5.43664V5.43761V5.43858V5.43955V5.44052V5.44149V5.44246V5.44343V5.4444V5.44537V5.44634V5.44731V5.44828V5.44925V5.45022V5.45119V5.45216V5.45312V5.45409V5.45506V5.45603V5.457V5.45797V5.45894V5.45991V5.46088V5.46185V5.46282V5.46379V5.46476V5.46573V5.4667V5.46767V5.46864V5.46961V5.47058V5.47155V5.47252V5.47349V5.47446V5.47543V5.4764V5.47736V5.47833V5.4793V5.48027V5.48124V5.48221V5.48318V5.48415V5.48512V5.48609V5.48706V5.48803V5.489V5.48997V5.49094V5.49191V5.49288V5.49385V5.49482V5.49579V5.49676V5.49773V5.4987V5.49967V5.50063V5.5016V5.50257V5.50354V5.50451V5.50548V5.50645V5.50742V5.50839V5.50936V5.51033V5.5113V5.51227V5.51324V5.51421V5.51518V5.51615V5.51712V5.51809V5.51906V5.52003V5.521V5.52197V5.52294V5.5239V5.52487V5.52584V5.52681V5.52778V5.52875V5.52972V5.53069V5.53166V5.53263V5.5336V5.53457V5.53554V5.53651V5.53748V5.53845V5.53942V5.54039V5.54136V5.54233V5.5433V5.54427V5.54524V5.54621V5.54718V5.54814V5.54911V5.55008V5.55105V5.55202V5.55299V5.55396V5.55493V5.5559V5.55687V5.55784V5.55881V5.55978V5.56075V5.56172V5.56269V5.56366V5.56463V5.5656V5.56657V5.56754V5.56851V5.56948V5.57045V5.57141V5.57238V5.57335V5.57432V5.57529V5.57626V5.57723V5.5782V5.57917V5.58014V5.58111V5.58208V5.58305V5.58402V5.58499V5.58596V5.58693V5.5879V5.58887V5.58984V5.59081V5.59178V5.59275V5.59372V5.59469V5.59565V5.59662V5.59759V5.59856V5.59953V5.6005V5.60147V5.60244V5.60341V5.60438V5.60535V5.60632V5.60729V5.60826V5.60923V5.6102V5.61117V5.61214V5.61311V5.61408V5.61505V5.61602V5.61699V5.61796V5.61893V5.61989V5.62086V5.62183V5.6228V5.62377V5.62474V5.62571V5.62668V5.62765V5.62862V5.62959V5.63056V5.63153V5.6325V5.63347V5.63444V5.63541V5.63638V5.63735V5.63832V5.63929V5.64026V5.64123V5.6422V5.64316V5.64413V5.6451V5.64607V5.64704V5.64801V5.64898V5.64995V5.65092V5.65189V5.65286V5.65383V5.6548V5.65577V5.65674V5.65771V5.65868V5.65965V5.66062V5.66159V5.66256V5.66353V5.6645V5.66547V5.66644V5.6674V5.66837V5.66934V5.67031V5.67128V5.67225V5.67322V5.67419V5.67516V5.67613V5.6771V5.67807V5.67904V5.68001V5.68098V5.68195V5.68292V5.68389V5.68486V5.68583V5.6868V5.68777V5.68874V5.68971V5.69067V5.69164V5.69261V5.69358V5.69455V5.69552V5.69649V5.69746V5.69843V5.6994V5.70037V5.70134V5.70231V5.70328V5.70425V5.70522V5.70619V5.70716V5.70813V5.7091V5.71007V5.71104V5.71201V5.71298V5.71394V5.71491V5.71588V5.71685V5.71782V5.71879V5.71976V5.72073V5.7217V5.72267V5.72364V5.72461V5.72558V5.72655V5.72752V5.72849V5.72946V5.73043V5.7314V5.73237V5.73334V5.73431V5.73528V5.73625V5.73722V5.73818V5.73915V5.74012V5.74109V5.74206V5.74303V5.744V5.74497V5.74594V5.74691V5.74788V5.74885V5.74982V5.75079V5.75176V5.75273V5.7537V5.75467V5.75564V5.75661V5.75758V5.75855V5.75952V5.76049V5.76146V5.76242V5.76339V5.76436V5.76533V5.7663V5.76727V5.76824V5.76921V5.77018V5.77115V5.77212V5.77309V5.77406V5.77503V5.776V5.77697V5.77794V5.77891V5.77988V5.78085V5.78182V5.78279V5.78376V5.78473V5.78569V5.78666V5.78763V5.7886V5.78957V5.79054V5.79151V5.79248V5.79345V5.79442V5.79539V5.79636V5.79733V5.7983V5.79927V5.80024V5.80121V5.80218V5.80315V5.80412V5.80509V5.80606V5.80703V5.808V5.80897V5.80993V5.8109V5.81187V5.81284V5.81381V5.81478V5.81575V5.81672V5.81769V5.81866V5.81963V5.8206V5.82157V5.82254V5.82351V5.82448V5.82545V5.82642V5.82739V5.82836V5.82933V5.8303V5.83127V5.83224V5.8332V5.83417V5.83514V5.83611V5.83708V5.83805V5.83902V5.83999V5.84096V5.84193V5.8429V5.84387V5.84484V5.84581V5.84678V5.84775V5.84872V5.84969V5.85066V5.85163V5.8526V5.85357V5.85454V5.85551V5.85647V5.85744V5.85841V5.85938V5.86035V5.86132V5.86229V5.86326V5.86423V5.8652V5.86617V5.86714V5.86811V5.86908V5.87005V5.87102V5.87199V5.87296V5.87393V5.8749V5.87587V5.87684V5.87781V5.87878V5.87975V5.88071V5.88168V5.88265V5.88362V5.88459V5.88556V5.88653V5.8875V5.88847V5.88944V5.89041V5.89138V5.89235V5.89332V5.89429V5.89526V5.89623V5.8972V5.89817V5.89914V5.90011V5.90108V5.90205V5.90302V5.90399V5.90495V5.90592V5.90689V5.90786V5.90883V5.9098V5.91077V5.91174V5.91271V5.91368V5.91465V5.91562V5.91659V5.91756V5.91853V5.9195V5.92047V5.92144V5.92241V5.92338V5.92435V5.92532V5.92629V5.92659C1.29029 6.09536 1.2667 6.26917 1.18825 6.39413C1.14831 6.45773 1.09371 6.50931 1.02151 6.53972C0.94951 6.57003 0.863971 6.57764 0.764693 6.56009L1.28584 1.29663ZM0.291947 0.976245H0.291971C0.291971 0.766956 0.334584 0.597564 0.441584 0.480761C0.549435 0.363029 0.713407 0.308662 0.93296 0.308662H0.933093C1.43374 0.30999 1.93489 0.308928 2.43648 0.307865C3.60777 0.305382 4.78148 0.302895 5.95699 0.330824C5.95718 0.330829 5.95737 0.330833 5.95755 0.330838L5.95637 0.380824L0.291947 0.976245ZM0.291947 0.976245L0.291995 0.977792M0.291947 0.976245L0.291995 0.977792M0.291995 0.977792C0.301811 1.29485 0.298549 1.61104 0.29527 1.92887C0.293623 2.08853 0.291971 2.2486 0.291971 2.40939C0.291971 2.64587 0.291438 2.88197 0.290905 3.11778C0.288777 4.05981 0.286659 4.99741 0.31859 5.93769L0.291995 0.977792Z" fill="white" stroke="white" stroke-width="0.1"/>
<path d="M20.3758 1.27899L20.3759 1.27887C20.1649 1.15292 19.965 1.00944 19.7781 0.849939L19.7313 0.810043L19.7799 0.77239C19.839 0.726597 19.8942 0.674169 19.9514 0.619784C19.9853 0.587591 20.02 0.554712 20.0565 0.522119C20.1509 0.438005 20.2551 0.359346 20.375 0.330404L20.3753 0.330343L20.3753 0.330343C20.5382 0.291917 20.7077 0.28725 20.8757 0.29172C20.9454 0.293576 21.0137 0.296918 21.0814 0.300229C21.1799 0.305049 21.277 0.309801 21.3752 0.309801C21.8104 0.309801 22.2456 0.311443 22.6807 0.313085C23.5507 0.316368 24.4204 0.31965 25.2898 0.309806C25.2898 0.309805 25.2899 0.309805 25.2899 0.309804L20.3758 1.27899ZM20.3758 1.27899L20.3792 1.28066M20.3758 1.27899L20.3792 1.28066M20.3792 1.28066C20.4509 1.31654 20.5345 1.31806 20.6115 1.31318C20.641 1.31131 20.6712 1.30833 20.7005 1.30546C20.7099 1.30453 20.7192 1.30362 20.7283 1.30276C20.7666 1.29913 20.8029 1.29628 20.8374 1.29628H25.0529M20.3792 1.28066L25.0529 1.29628M25.0529 1.29628C25.0529 2.86125 25.0558 4.36098 25.0587 5.86609L25.0588 5.88532C25.0588 5.88537 25.0588 5.88543 25.0588 5.88549L25.0588 5.88564L25.0529 1.29628ZM26.0497 5.87788C26.0408 4.27919 26.032 2.68099 26.0497 1.08286L25.8051 6.52998C25.879 6.49045 25.9312 6.43206 25.9675 6.36292C26.0385 6.22765 26.0497 6.04844 26.0497 5.87816L26.0497 5.87788Z" fill="white" stroke="white" stroke-width="0.1"/>
<path d="M25.0504 25.0513V20.7295C25.0504 20.6951 25.0474 20.6585 25.0437 20.6198C25.0429 20.6114 25.0421 20.6028 25.0412 20.5941C25.0382 20.5639 25.0351 20.5325 25.0333 20.502C25.0286 20.4249 25.0307 20.3403 25.0702 20.2705L25.0727 20.2661L25.0729 20.2662C25.199 20.0882 25.3441 19.9245 25.5056 19.7779L25.5417 19.7451L25.5754 19.7805C25.6103 19.8171 25.652 19.8534 25.6968 19.8909C25.7079 19.9003 25.7193 19.9097 25.7308 19.9193C25.7646 19.9474 25.7994 19.9763 25.8317 20.0053C25.9159 20.0809 25.9991 20.1702 26.0128 20.2769L26.0131 20.2791L26.013 20.2791C26.0522 20.7383 26.0601 21.1997 26.0369 21.6601C26.0369 22.0644 26.0355 22.4684 26.0342 22.8724C26.0316 23.6809 26.029 24.489 26.0369 25.2974L26.0369 25.2978C26.0369 25.5429 25.995 25.7354 25.877 25.8652C25.7579 25.9962 25.572 26.0519 25.3127 26.0496L25.3127 26.0496C23.6967 26.0349 22.0792 26.0423 20.4613 26.0496L20.4611 26.0496C20.3036 26.0496 20.1339 26.0413 20.0013 25.9792C19.9336 25.9475 19.8745 25.9013 19.8317 25.8347L25.0504 25.0513ZM25.0504 25.0513C23.4816 25.0514 21.9757 25.0529 20.4655 25.0587M25.0504 25.0513L20.4655 25.0587M20.4655 25.0587C20.2951 25.0587 20.1163 25.0703 19.9814 25.1417C19.9124 25.1782 19.8543 25.2306 19.8149 25.3047C19.7758 25.3783 19.7571 25.4697 19.7611 25.5818L20.4655 25.0587C20.4655 25.0587 20.4655 25.0587 20.4655 25.0587Z" fill="white" stroke="white" stroke-width="0.1"/>
<path d="M6.55672 25.5598L6.55671 25.5598C6.56186 25.6062 6.54327 25.6515 6.51892 25.6902C6.49398 25.7299 6.45879 25.7695 6.42021 25.8067C6.34309 25.8811 6.24603 25.9523 6.17075 26.0038M6.55672 25.5598L0.345952 25.2772L0.295959 25.2764C0.295958 25.2765 0.295958 25.2765 0.295957 25.2765C0.291451 25.5494 0.346765 25.7431 0.4822 25.8664C0.616262 25.9885 0.817235 26.0305 1.07582 26.0305L1.07615 26.0305C2.12987 26.0236 3.1834 26.0259 4.23719 26.0282C4.76421 26.0294 5.2913 26.0305 5.81851 26.0305C5.84351 26.0305 5.87087 26.0326 5.90062 26.0351C5.90448 26.0354 5.90838 26.0357 5.91232 26.036C5.93803 26.0382 5.96528 26.0406 5.99168 26.0416C6.04976 26.0438 6.11883 26.0408 6.17075 26.0038M6.55672 25.5598L6.5566 25.5589M6.55672 25.5598L6.5566 25.5589M6.17075 26.0038C6.17059 26.0039 6.17044 26.004 6.17028 26.0041L6.14208 25.9628L6.17129 26.0034C6.17111 26.0035 6.17093 26.0036 6.17075 26.0038ZM6.5566 25.5589C6.54429 25.464 6.48361 25.3704 6.41135 25.2903C6.33801 25.209 6.24711 25.1355 6.16388 25.0805C6.09757 25.0361 6.01153 25.0322 5.93406 25.0358C5.90078 25.0373 5.86645 25.0404 5.83348 25.0434C5.82702 25.044 5.82062 25.0445 5.81429 25.0451C5.7749 25.0486 5.73778 25.0514 5.70327 25.0514H1.28982L6.5566 25.5589Z" fill="white" stroke="white" stroke-width="0.1"/>
<path d="M17.3403 19.1552L17.3658 19.177L18.0558 19.768L18.1003 19.8061L18.0556 19.844L17.3597 20.435L17.3307 20.4597L17.2992 20.4383L17.197 20.3687C17.1966 20.5064 17.1955 20.6439 17.1945 20.7813C17.1918 21.1181 17.1892 21.4542 17.1971 21.7903C17.1971 21.7903 17.1971 21.7904 17.1971 21.7905L17.1471 21.7916C17.1619 22.2497 16.9846 22.4816 16.5044 22.4654C16.3229 22.4592 16.1361 22.463 15.948 22.4668C15.6385 22.4731 15.3256 22.4794 15.0269 22.4417L17.3403 19.1552ZM17.3403 19.1552L17.3105 19.1704L17.1939 19.2301L17.3403 19.1552Z" fill="white" stroke="white" stroke-width="0.1"/>
<path d="M14.2229 11.6241L14.249 11.647L14.9612 12.2705L15.0069 12.3105L14.9588 12.3476L14.229 12.912L14.1984 12.9356L14.1679 12.9121L14.1005 12.8603C14.1002 13.0461 14.0991 13.2318 14.098 13.4173C14.0954 13.8552 14.0927 14.2924 14.1006 14.73C14.1006 14.7301 14.1006 14.7302 14.1006 14.7302L14.0506 14.7311C14.0624 15.201 13.8556 15.4049 13.3887 15.3842L14.2229 11.6241ZM14.2229 11.6241L14.1924 11.6406L14.1145 11.6826L14.2229 11.6241Z" fill="white" stroke="white" stroke-width="0.1"/>
<path d="M11.9077 5.74743C11.9082 5.76275 11.9088 5.77785 11.9095 5.79278L11.9098 5.79853C11.9111 5.8271 11.9123 5.85547 11.9123 5.88193C11.9123 5.93626 11.9074 5.99515 11.8756 6.04075L11.8756 6.04077C11.785 6.17052 11.6761 6.29267 11.57 6.41167C11.522 6.4656 11.4745 6.51887 11.4295 6.57192L11.3912 6.61712L11.3531 6.57176C11.318 6.52992 11.2762 6.48822 11.2319 6.44532C11.2214 6.4352 11.2107 6.42498 11.2 6.41469C11.1659 6.38194 11.131 6.34842 11.0985 6.31485C11.0148 6.22821 10.9353 6.12925 10.9221 6.01648L10.9221 6.01636C10.8632 5.50273 10.8657 4.9839 10.9296 4.47086L10.9296 4.47062L10.9296 4.47062C10.9451 4.35078 11.0265 4.24529 11.1145 4.15158C11.1505 4.11323 11.1893 4.07511 11.2273 4.03784C11.2364 4.02889 11.2455 4.01999 11.2545 4.01114C11.3014 3.96494 11.3459 3.91987 11.3842 3.87449L11.4228 3.82873L11.461 3.87489C11.482 3.90033 11.5031 3.92569 11.5242 3.95105C11.6503 4.10272 11.7762 4.25413 11.8866 4.41976C11.918 4.46693 11.9212 4.52579 11.9206 4.57695C11.9204 4.59663 11.9197 4.61549 11.9189 4.63408C11.9181 4.6538 11.9174 4.67321 11.9173 4.69299H12.6346C12.6376 4.68813 12.6406 4.68346 12.6432 4.67922C12.6465 4.67394 12.6494 4.66933 12.6515 4.66584C12.6606 4.65033 12.6622 4.64396 12.6623 4.64162L11.9077 5.74743ZM11.9077 5.74743H12.6567C12.6568 5.7619 12.6566 5.77617 12.6564 5.79063C12.6561 5.80619 12.6558 5.82196 12.656 5.83841C12.6563 5.88068 12.6594 5.93114 12.6849 5.97109L12.6849 5.9711L12.6853 5.97177C12.7181 6.02121 12.7505 6.07901 12.7841 6.13988C12.7876 6.14613 12.791 6.15242 12.7945 6.15874C12.8246 6.21318 12.8555 6.26935 12.8875 6.32099C12.923 6.37846 12.9612 6.4329 13.0029 6.47508C13.0443 6.5169 13.0933 6.55084 13.1507 6.55945C13.1509 6.55947 13.151 6.55949 13.1511 6.55951L11.9077 5.74743Z" fill="white" stroke="white" stroke-width="0.1"/>
<path d="M19.3089 20.7038L19.3086 20.7046L19.3174 20.7069C19.6281 20.7889 19.9549 20.7889 20.2657 20.7071C20.3607 20.6844 20.4651 20.6077 20.5438 20.5224C20.5841 20.4788 20.6196 20.431 20.6452 20.3832C20.6704 20.3362 20.6882 20.2854 20.6877 20.237C20.6872 20.1876 20.6675 20.1404 20.6404 20.0979C20.613 20.0552 20.5758 20.0139 20.535 19.9753C20.4536 19.8983 20.3523 19.827 20.27 19.7722C20.2124 19.7318 20.1359 19.728 20.062 19.7291C20.0368 19.7295 20.0113 19.7304 19.985 19.7315C19.9419 19.7331 19.8969 19.7348 19.8485 19.7341C19.8487 19.5107 19.8499 19.2892 19.8511 19.0692C19.8554 18.3094 19.8595 17.5674 19.8189 16.831C19.8165 16.7709 19.7923 16.715 19.7593 16.6641C19.7261 16.613 19.682 16.5638 19.6354 16.5169C19.604 16.4851 19.57 16.4531 19.5368 16.4217C19.5212 16.407 19.5057 16.3925 19.4908 16.3782C19.4432 16.3326 19.3995 16.2886 19.3647 16.2451L19.3248 16.1953L19.286 16.246C19.2528 16.2893 19.212 16.333 19.168 16.3783C19.1568 16.3899 19.1453 16.4016 19.1338 16.4134C19.1008 16.4471 19.0669 16.4816 19.0358 16.5159C18.9539 16.6063 18.8753 16.7109 18.8753 16.826H18.9253L18.8753 16.8242C18.8369 17.9266 18.8369 19.029 18.8753 20.1314L18.8748 20.1314L18.876 20.1382C18.8974 20.2604 18.9479 20.3756 19.0233 20.474C19.0986 20.5725 19.1966 20.6513 19.3089 20.7038Z" fill="white" stroke="white" stroke-width="0.1"/>
<path d="M12.3146 13.1556L12.3146 13.1557C12.3173 13.2679 12.2973 13.3591 12.2569 13.4321C12.2162 13.5055 12.1568 13.557 12.0871 13.5925C11.9507 13.6619 11.7713 13.6716 11.6026 13.6709M12.3146 13.1556L11.6027 13.6209M12.3146 13.1556C12.3118 13.0531 12.2887 12.9696 12.2475 12.9025C12.2061 12.8353 12.1483 12.788 12.0815 12.7551C11.9506 12.6905 11.7814 12.6799 11.6204 12.6799H11.6167H11.6129H11.6092H11.6054H11.6017H11.5979H11.5942H11.5904H11.5867H11.5829H11.5792H11.5754H11.5717H11.568H11.5642H11.5605H11.5567H11.553H11.5492H11.5455H11.5417H11.538H11.5342H11.5305H11.5267H11.523H11.5192H11.5155H11.5117H11.508H11.5042H11.5004H11.4967H11.4929H11.4892H11.4854H11.4817H11.4779H11.4742H11.4704H11.4667H11.4629H11.4592H11.4554H11.4517H11.4479H11.4442H11.4404H11.4367H11.4329H11.4292H11.4254H11.4216H11.4179H11.4141H11.4104H11.4066H11.4029H11.3991H11.3954H11.3916H11.3878H11.3841H11.3803H11.3766H11.3728H11.3691H11.3653H11.3615H11.3578H11.354H11.3503H11.3465H11.3428H11.339H11.3352H11.3315H11.3277H11.324H11.3202H11.3164H11.3127H11.3089H11.3052H11.3014H11.2976H11.2939H11.2901H11.2863H11.2826H11.2788H11.2751H11.2713H11.2675H11.2638H11.26H11.2562H11.2525H11.2487H11.2449H11.2412H11.2374H11.2336H11.2299H11.2261H11.2223H11.2186H11.2148H11.211H11.2072H11.2035H11.1997H11.1959H11.1922H11.1884H11.1846H11.1809H11.1771H11.1733H11.1695H11.1658H11.162H11.1582H11.1544H11.1507H11.1469H11.1431H11.1393H11.1356H11.1318H11.128H11.1242H11.1204H11.1167H11.1129H11.1091H11.1053H11.1015H11.0978H11.094H11.0902H11.0864H11.0826H11.0789H11.0751H11.0713H11.0675H11.0637H11.0599H11.0561H11.0524H11.0486H11.0448H11.041H11.0372H11.0334H11.0296H11.0258H11.022H11.0183H11.0145H11.0107H11.0069H11.0031H10.9993H10.9955H10.9917H10.9879H10.9841H10.9803H10.9765H10.9727H10.9689H10.9651H10.9613H10.9575H10.9537H10.9499H10.9461H10.9423H10.9385H10.9347H10.9309H10.9271H10.9233H10.9195H10.9157H10.9119H10.9081H10.9043H10.9005H10.8967H10.8929H10.8891H10.8852H10.8814H10.8776H10.8738H10.87H10.8662H10.8624H10.8586H10.8547H10.8509H10.8471H10.8433H10.8395H10.8357H10.8318H10.828H10.8242H10.8204H10.8166H10.8127H10.8089H10.8051H10.8013H10.7974H10.7936H10.7898H10.786H10.7821H10.7783H10.7745H10.7706H10.7668H10.763H10.7592H10.7553H10.7515H10.7477H10.7438H10.74H10.7362H10.7323H10.7285H10.7246H10.7208H10.717H10.7131H10.7093H10.7054H10.7016H10.6978H10.6939H10.6901H10.6862H10.6824H10.6785H10.6747H10.6708H10.667H10.6631H10.6593H10.6554H10.6516H10.6477H10.6439H10.64H10.6362H10.6323H10.6285H10.6246H10.6207H10.6169H10.613H10.6092H10.6053H10.6014H10.5976H10.5937H10.5898H10.586H10.5821H10.5782H10.5744H10.5705H10.5666H10.5628H10.5589H10.555H10.5511H10.5473H10.5434H10.5395H10.5356H10.5318H10.5279H10.524H10.5201H10.5163H10.5124H10.5085H10.5046H10.5007H10.4968H10.4929H10.4891H10.4852H10.4813H10.4774H10.4735H10.4696H10.4657H10.4618H10.4579H10.454H10.4501H10.4462H10.4423H10.4384H10.4345H10.4306H10.4267H10.4228H10.4189H10.415H10.4111H10.4072H10.4033H10.3994H10.3955H10.3916H10.3877H10.3838H10.3798H10.3759H10.372H10.3681H10.3642H10.3603H10.3563H10.3524H10.3485H10.3446H10.3407H10.3367H10.3328H10.3289H10.3249H10.321H10.3171H10.3132H10.3092H10.3053H10.3014H10.2974H10.2935H10.2896H10.2856H10.2817H10.2777H10.2738H10.2699H10.2659H10.262H10.258H10.2541H10.2501H10.2462H10.2422H10.2383H10.2343H10.2304H10.2264H10.2225H10.2185H10.2146H10.2106H10.2066H10.2027H10.1987H10.1948H10.1908H10.1868H10.1829H10.1789H10.1749H10.171H10.167H10.163H10.159H10.1551H10.1511H10.1471H10.1431H10.1392H10.1352H10.1312H10.1272H10.1232H10.1192H10.1153H10.1113H10.1073H10.1033H10.0993H10.0953H10.0913H10.0873H10.0833H10.0793H10.0753H10.0713H10.0673H10.0633H10.0593H10.0553H10.0513H10.0473H10.0433H10.0393H10.0353H10.0313H10.0273H10.0233H10.0192H10.0152H10.0112H10.0072H10.0032H9.99915H9.99513H9.99111H9.98708H9.98306H9.97903H9.975H9.97097H9.96694H9.96291H9.95887H9.95484H9.9508H9.94676H9.94273H9.93869H9.93464H9.9306H9.92656H9.92251H9.91847H9.91442H9.91037H9.90632H9.90227H9.89821H9.89416H9.8901H9.88604H9.88199H9.87793H9.87386H9.8698H9.86574H9.86167H9.85761H9.85354H9.84947H9.8454H9.84133H9.83725H9.83318H9.8291H9.82502H9.82094H9.81686H9.81278H9.8087H9.80461H9.80053H9.79644H9.79235H9.78826H9.78417H9.78008H9.77598H9.77188H9.76779H9.76369H9.75959H9.75549H9.75138H9.74728H9.74317H9.73907H9.73496H9.73085H9.72673H9.72262H9.71851H9.71439H9.71027H9.70615H9.70203H9.69791H9.69379H9.68966H9.68554H9.68172C9.68166 12.6294 9.6815 12.5819 9.68135 12.5368C9.68081 12.3725 9.68038 12.2394 9.68469 12.1036L9.68471 12.1036V12.102C9.68471 11.9387 9.68177 11.7573 9.61946 11.6171C9.58754 11.5452 9.53948 11.4825 9.46772 11.4382C9.3963 11.3942 9.30534 11.3709 9.19147 11.3709C9.0777 11.3709 8.98696 11.3939 8.91561 11.4375C8.84391 11.4814 8.79582 11.5437 8.76344 11.6153C8.70168 11.7517 8.69471 11.9289 8.68833 12.0913C8.6882 12.0945 8.68808 12.0977 8.68795 12.1009C8.67403 12.3184 8.63022 12.5329 8.55776 12.7384L8.55774 12.7384L8.55731 12.7398C8.53389 12.8127 8.48831 12.8928 8.44148 12.975C8.42722 13.0001 8.41284 13.0254 8.39893 13.0507C8.37034 13.1028 8.34373 13.1555 8.32865 13.2036C8.31407 13.2502 8.30639 13.3044 8.33214 13.351M12.3146 13.1556L8.33214 13.351M11.6026 13.6709C11.6026 13.6709 11.6025 13.6709 11.6025 13.6709L11.6027 13.6209M11.6026 13.6709C11.6026 13.6709 11.6027 13.6709 11.6027 13.6709V13.6209M11.6026 13.6709C11.3813 13.6709 11.1598 13.6718 10.9384 13.6727C10.2743 13.6755 9.61079 13.6782 8.95421 13.6561M11.6027 13.6209C11.3809 13.6209 11.1591 13.6218 10.9375 13.6227C10.2733 13.6255 9.61089 13.6282 8.95507 13.6061M8.95421 13.6561C8.9545 13.6561 8.95478 13.6561 8.95507 13.6561V13.6061M8.95421 13.6561C8.84222 13.6559 8.71202 13.6226 8.59894 13.57C8.48685 13.5177 8.3825 13.4422 8.33214 13.351M8.95421 13.6561C8.95393 13.6561 8.95366 13.6561 8.95339 13.6561L8.95507 13.6061M8.95507 13.6061L8.33214 13.351" fill="white" stroke="white" stroke-width="0.1"/>
<path d="M19.7445 12.3418H19.7471C19.7458 12.4308 19.7411 12.5137 19.7366 12.5936C19.7334 12.6499 19.7303 12.7048 19.7285 12.7591C19.7239 12.9013 19.7287 13.0353 19.7707 13.16C19.8046 13.2648 19.8846 13.3512 19.9678 13.4267C20.002 13.4576 20.0382 13.4879 20.0733 13.5173C20.0813 13.5241 20.0893 13.5308 20.0972 13.5375C20.1401 13.5735 20.1805 13.6083 20.2157 13.6436L20.2513 13.6792L20.2866 13.6434C20.32 13.6097 20.3606 13.5756 20.4042 13.5403C20.4154 13.5312 20.4268 13.5221 20.4383 13.5128C20.471 13.4866 20.5046 13.4596 20.5357 13.4328C20.5777 13.3965 20.6179 13.3582 20.6486 13.3181C20.6791 13.2781 20.7032 13.2327 20.7072 13.1823L20.7073 13.1818C20.7488 12.5927 20.7488 12.0013 20.7073 11.4122L20.7076 11.4122L20.7065 11.4064C20.689 11.3136 20.6512 11.2259 20.5958 11.1494C20.5403 11.073 20.4687 11.0097 20.386 10.9641L20.3869 10.9626L20.3742 10.9594C20.2908 10.9384 20.2034 10.9391 20.1203 10.9615C20.0373 10.9839 19.9614 11.0273 19.8999 11.0874L19.8943 11.093L19.8906 11.1001C19.8143 11.2465 19.7197 11.3081 19.614 11.3357C19.5229 11.3596 19.4237 11.3585 19.313 11.3574C19.2885 11.3571 19.2635 11.3568 19.2379 11.3568C19.1517 11.3557 19.0647 11.352 18.9767 11.348C18.9694 11.3477 18.9622 11.3473 18.9549 11.347C18.8742 11.3433 18.7926 11.3396 18.7114 11.3378C18.5344 11.3339 18.3561 11.339 18.183 11.3741L18.183 11.3741L18.1828 11.3741C18.0653 11.3986 17.9231 11.4614 17.8062 11.5396C17.7474 11.5789 17.6935 11.6231 17.6517 11.6698C17.6104 11.7159 17.5777 11.7681 17.5676 11.8234L17.5676 11.8234L17.5674 11.8243C17.5511 11.9247 17.5599 12.0101 17.5915 12.0815C17.6232 12.153 17.676 12.2061 17.7403 12.2446C17.8665 12.3202 18.0409 12.3418 18.2078 12.3418H18.2107H18.2137H18.2167H18.2197H18.2227H18.2257H18.2287H18.2317H18.2347H18.2377H18.2407H18.2437H18.2467H18.2497H18.2527H18.2557H18.2587H18.2617H18.2647H18.2677H18.2707H18.2737H18.2767H18.2796H18.2826H18.2856H18.2886H18.2916H18.2946H18.2976H18.3006H18.3036H18.3066H18.3096H18.3126H18.3156H18.3186H18.3216H18.3246H18.3276H18.3306H18.3336H18.3366H18.3396H18.3426H18.3456H18.3486H18.3516H18.3546H18.3576H18.3606H18.3636H18.3666H18.3696H18.3726H18.3756H18.3786H18.3816H18.3846H18.3876H18.3906H18.3936H18.3966H18.3996H18.4026H18.4056H18.4086H18.4116H18.4146H18.4176H18.4206H18.4236H18.4266H18.4296H18.4326H18.4356H18.4386H18.4416H18.4446H18.4476H18.4506H18.4536H18.4566H18.4596H18.4626H18.4656H18.4686H18.4716H18.4746H18.4776H18.4806H18.4837H18.4867H18.4897H18.4927H18.4957H18.4987H18.5017H18.5047H18.5077H18.5107H18.5137H18.5167H18.5197H18.5227H18.5258H18.5288H18.5318H18.5348H18.5378H18.5408H18.5438H18.5468H18.5498H18.5529H18.5559H18.5589H18.5619H18.5649H18.5679H18.5709H18.5739H18.577H18.58H18.583H18.586H18.589H18.592H18.5951H18.5981H18.6011H18.6041H18.6071H18.6101H18.6132H18.6162H18.6192H18.6222H18.6252H18.6282H18.6313H18.6343H18.6373H18.6403H18.6434H18.6464H18.6494H18.6524H18.6554H18.6585H18.6615H18.6645H18.6675H18.6706H18.6736H18.6766H18.6796H18.6827H18.6857H18.6887H18.6917H18.6948H18.6978H18.7008H18.7039H18.7069H18.7099H18.713H18.716H18.719H18.722H18.7251H18.7281H18.7311H18.7342H18.7372H18.7402H18.7433H18.7463H18.7494H18.7524H18.7554H18.7585H18.7615H18.7645H18.7676H18.7706H18.7737H18.7767H18.7797H18.7828H18.7858H18.7889H18.7919H18.7949H18.798H18.801H18.8041H18.8071H18.8102H18.8132H18.8163H18.8193H18.8224H18.8254H18.8285H18.8315H18.8345H18.8376H18.8406H18.8437H18.8468H18.8498H18.8529H18.8559H18.859H18.862H18.8651H18.8681H18.8712H18.8742H18.8773H18.8804H18.8834H18.8865H18.8895H18.8926H18.8956H18.8987H18.9018H18.9048H18.9079H18.911H18.914H18.9171H18.9202H18.9232H18.9263H18.9294H18.9324H18.9355H18.9386H18.9416H18.9447H18.9478H18.9508H18.9539H18.957H18.9601H18.9631H18.9662H18.9693H18.9723H18.9754H18.9785H18.9816H18.9847H18.9877H18.9908H18.9939H18.997H19.0001H19.0031H19.0062H19.0093H19.0124H19.0155H19.0186H19.0216H19.0247H19.0278H19.0309H19.034H19.0371H19.0402H19.0433H19.0464H19.0494H19.0525H19.0556H19.0587H19.0618H19.0649H19.068H19.0711H19.0742H19.0773H19.0804H19.0835H19.0866H19.0897H19.0928H19.0959H19.099H19.1021H19.1052H19.1083H19.1114H19.1145H19.1177H19.1208H19.1239H19.127H19.1301H19.1332H19.1363H19.1394H19.1425H19.1457H19.1488H19.1519H19.155H19.1581H19.1612H19.1644H19.1675H19.1706H19.1737H19.1768H19.18H19.1831H19.1862H19.1893H19.1925H19.1956H19.1987H19.2019H19.205H19.2081H19.2112H19.2144H19.2175H19.2206H19.2238H19.2269H19.2301H19.2332H19.2363H19.2395H19.2426H19.2458H19.2489H19.252H19.2552H19.2583H19.2615H19.2646H19.2678H19.2709H19.2741H19.2772H19.2804H19.2835H19.2867H19.2898H19.293H19.2961H19.2993H19.3024H19.3056H19.3088H19.3119H19.3151H19.3182H19.3214H19.3246H19.3277H19.3309H19.3341H19.3372H19.3404H19.3436H19.3467H19.3499H19.3531H19.3562H19.3594H19.3626H19.3658H19.3689H19.3721H19.3753H19.3785H19.3817H19.3848H19.388H19.3912H19.3944H19.3976H19.4008H19.4039H19.4071H19.4103H19.4135H19.4167H19.4199H19.4231H19.4263H19.4295H19.4327H19.4359H19.4391H19.4423H19.4455H19.4487H19.4519H19.4551H19.4583H19.4615H19.4647H19.4679H19.4711H19.4743H19.4775H19.4807H19.4839H19.4871H19.4904H19.4936H19.4968H19.5H19.5032H19.5064H19.5097H19.5129H19.5161H19.5193H19.5226H19.5258H19.529H19.5322H19.5355H19.5387H19.5419H19.5452H19.5484H19.5516H19.5549H19.5581H19.5613H19.5646H19.5678H19.5711H19.5743H19.5775H19.5808H19.584H19.5873H19.5905H19.5938H19.597H19.6003H19.6035H19.6068H19.61H19.6133H19.6166H19.6198H19.6231H19.6263H19.6296H19.6329H19.6361H19.6394H19.6426H19.6459H19.6492H19.6525H19.6557H19.659H19.6623H19.6655H19.6688H19.6721H19.6754H19.6787H19.6819H19.6852H19.6885H19.6918H19.6951H19.6984H19.7016H19.7049H19.7082H19.7115H19.7148H19.7181H19.7214H19.7247H19.728H19.7313H19.7346H19.7379H19.7412H19.7445Z" fill="white" stroke="white" stroke-width="0.1"/>
<path d="M22.4784 14.8258L22.4784 14.8258C22.4644 14.9449 22.3784 15.0488 22.2893 15.1396C22.2585 15.171 22.2255 15.2025 22.1932 15.2334C22.178 15.2479 22.1631 15.2622 22.1485 15.2762C22.1022 15.3211 22.0594 15.3647 22.0245 15.4082L21.9858 15.4566L21.9467 15.4085C21.9113 15.365 21.8696 15.3211 21.8258 15.2759C21.8192 15.2691 21.8125 15.2622 21.8058 15.2554C21.7686 15.2171 21.7304 15.1777 21.6954 15.1383C21.6149 15.0475 21.5402 14.9439 21.5366 14.8305M22.4784 14.8258L21.5366 14.8304C21.5366 14.8305 21.5366 14.8305 21.5366 14.8305M22.4784 14.8258L22.4786 14.8234C22.5167 14.2735 22.5237 13.7218 22.4995 13.171C22.5201 12.6208 22.5127 12.0699 22.4771 11.5205L22.4772 11.5205L22.477 11.5189C22.4657 11.4041 22.3908 11.3015 22.311 11.2107C22.2806 11.1763 22.248 11.1418 22.2161 11.1081C22.2054 11.0968 22.1947 11.0855 22.1843 11.0744C22.1422 11.0296 22.1027 10.986 22.0697 10.9425L22.0309 10.8913L21.9908 10.9414C21.9561 10.9847 21.9121 11.0286 21.8639 11.0742C21.8486 11.0887 21.8327 11.1035 21.8167 11.1184C21.7833 11.1495 21.7491 11.1813 21.7175 11.2128C21.6705 11.2596 21.6259 11.3088 21.593 11.3599C21.5603 11.4107 21.5368 11.4668 21.5366 11.5272M22.4784 14.8258L21.5366 11.5272M21.5366 14.8305C21.4982 13.7305 21.4952 12.6274 21.5366 11.5272M21.5366 14.8305C21.5366 14.8305 21.5366 14.8306 21.5366 14.8306L21.5366 11.5272M21.5366 11.5272C21.5366 11.5269 21.5366 11.5266 21.5366 11.5263L21.5866 11.5282H21.5366C21.5366 11.5279 21.5366 11.5275 21.5366 11.5272Z" fill="white" stroke="white" stroke-width="0.1"/>
<path d="M11.8918 10.1318C12.0101 10.1328 12.1241 10.1374 12.2359 10.1418C12.3119 10.1448 12.3869 10.1478 12.4616 10.1496C12.6595 10.1545 12.851 10.1509 13.0358 10.1159L13.0358 10.1159L13.0375 10.1156C13.1566 10.0887 13.26 10.0062 13.3528 9.91933C13.3863 9.88804 13.4181 9.85643 13.4494 9.82546C13.5086 9.76668 13.5655 9.71027 13.6261 9.66293L13.6761 9.62388L13.6264 9.5844C13.5836 9.55032 13.5409 9.50979 13.4971 9.46662C13.4861 9.45581 13.475 9.4448 13.4639 9.43371C13.431 9.40109 13.3974 9.36773 13.3638 9.33672C13.2751 9.25487 13.1745 9.17768 13.0603 9.1646L13.0603 9.16454L13.0578 9.16438C12.545 9.13077 12.0307 9.12383 11.5171 9.14358C11.3161 9.14299 11.1584 9.19126 11.0516 9.29913C10.9447 9.40707 10.8977 9.56561 10.8977 9.76537L10.8977 9.76582C10.8991 9.918 10.8955 10.0728 10.8918 10.2289L11.8918 10.1318ZM11.8918 10.1318C11.8928 10.2457 11.8971 10.3555 11.9013 10.4635C11.9044 10.5428 11.9074 10.621 11.9091 10.6992C11.9134 10.8968 11.9087 11.0884 11.8714 11.2734C11.8478 11.3928 11.7683 11.4968 11.6818 11.5904C11.646 11.6291 11.6077 11.6674 11.5701 11.7049C11.5618 11.7132 11.5535 11.7215 11.5453 11.7297C11.4996 11.7756 11.4558 11.8205 11.4173 11.8661L11.3769 11.914L11.3392 11.8639C11.3036 11.8166 11.2624 11.7696 11.2192 11.7215C11.2108 11.7122 11.2023 11.7028 11.1938 11.6934C11.1588 11.6547 11.1231 11.6151 11.0899 11.5754C11.0084 11.4776 10.934 11.3694 10.9188 11.2492C10.9188 11.2491 10.9188 11.2491 10.9188 11.2491L11.8918 10.1318Z" fill="white" stroke="white" stroke-width="0.1"/>
<path d="M21.5064 21.1559C21.5103 21.2716 21.5143 21.391 21.5152 21.5171C21.3978 21.516 21.2848 21.5117 21.1739 21.5074C21.0949 21.5043 21.0169 21.5013 20.9391 21.4996C20.7391 21.4951 20.5454 21.4994 20.3576 21.5359L20.3576 21.5359L20.3567 21.5361C20.2378 21.5614 20.1348 21.6444 20.0428 21.7316C20.0096 21.763 19.9779 21.7949 19.9469 21.826C19.8882 21.8851 19.8319 21.9417 19.7718 21.989L19.7217 22.0284L19.772 22.0677C19.8152 22.1014 19.8582 22.1415 19.9024 22.1842C19.9134 22.1948 19.9246 22.2057 19.9358 22.2166C19.969 22.2489 20.0029 22.2819 20.0368 22.3126C20.1263 22.3936 20.2276 22.4697 20.3423 22.4828L20.3423 22.4828L20.3446 22.483C20.8579 22.5173 21.3728 22.5243 21.8869 22.5038C22.0892 22.5044 22.2456 22.4536 22.3506 22.3433C22.4552 22.2335 22.5002 22.0738 22.5004 21.8757C22.5219 21.3619 22.5144 20.8474 22.4781 20.3345L22.4781 20.3345L22.4779 20.3323C22.4647 20.219 22.3862 20.1197 22.3031 20.0327C22.2702 19.9983 22.2347 19.964 22.2001 19.9305C22.1902 19.9209 22.1804 19.9114 22.1707 19.902C22.1266 19.8591 22.085 19.8173 22.0498 19.7755L22.0121 19.7305L21.9737 19.7749C21.9382 19.8161 21.8966 19.8568 21.8525 19.8985C21.842 19.9085 21.8313 19.9185 21.8205 19.9286C21.7867 19.9604 21.7521 19.9928 21.7198 20.0255C21.6357 20.1106 21.5561 20.2071 21.5354 20.3202L21.5354 20.3202C21.5005 20.5113 21.4958 20.7065 21.4995 20.9115C21.5009 20.9918 21.5037 21.0729 21.5064 21.1559Z" fill="white" stroke="white" stroke-width="0.1"/>
<path d="M4.91625 13.6689C4.99302 13.6705 5.06952 13.6735 5.14654 13.6766C5.22587 13.6797 5.30575 13.6829 5.38705 13.6845L4.91625 13.6689ZM4.91625 13.6689L4.96854 13.7342L4.99443 13.7666L4.96742 13.7981C4.91766 13.856 4.86737 13.9269 4.81583 14.0022C4.80296 14.021 4.78998 14.0401 4.77694 14.0594C4.73836 14.1163 4.69917 14.1741 4.66011 14.2274C4.6079 14.2986 4.55364 14.3651 4.49764 14.4142C4.44228 14.4626 4.3789 14.4995 4.30895 14.4995C4.15973 14.4995 4.05031 14.465 3.97324 14.4002C3.89616 14.3354 3.85846 14.2461 3.84059 14.1513C3.82283 14.0571 3.82378 13.9526 3.82766 13.8524C3.82862 13.8277 3.82975 13.8033 3.83086 13.7793C3.83433 13.7042 3.83764 13.6328 3.83502 13.5665C3.79901 13.1979 3.80406 12.8265 3.85008 12.4591L3.85046 12.4561L3.85054 12.4561C3.87258 12.3381 3.93184 12.194 4.00738 12.0744C4.04529 12.0144 4.08826 11.9589 4.13414 11.9154C4.17949 11.8724 4.231 11.8379 4.2862 11.8255L4.28849 11.825L4.2885 11.8251C4.38841 11.8075 4.4745 11.815 4.54717 11.8449C4.62006 11.8748 4.6756 11.9259 4.71672 11.9891C4.79763 12.1134 4.82436 12.287 4.82436 12.4564C4.82436 12.5125 4.82989 12.5701 4.83834 12.6583C4.83905 12.6656 4.83978 12.6732 4.84053 12.6811C4.94969 12.6801 5.05496 12.6761 5.15865 12.6722C5.23594 12.6693 5.31237 12.6664 5.38889 12.6648C5.5797 12.6609 5.76568 12.6656 5.94681 12.7014C6.06836 12.7254 6.17584 12.7997 6.27341 12.8806C6.31254 12.913 6.3513 12.9477 6.38918 12.9815C6.39881 12.9901 6.40838 12.9986 6.41788 13.0071C6.46528 13.0492 6.51149 13.0893 6.55807 13.1241L6.61064 13.1634L6.55875 13.2037C6.49921 13.2498 6.44358 13.3038 6.38576 13.3599C6.35257 13.3921 6.31866 13.425 6.28287 13.4575C6.18911 13.5427 6.08466 13.6226 5.96448 13.6461L4.91625 13.6689Z" fill="white" stroke="white" stroke-width="0.1"/>
<path d="M17.9729 13.827C17.973 13.8264 17.9731 13.8258 17.9732 13.8252L18.0226 13.8326C18.0462 13.5164 18.0714 13.2002 18.4555 13.1869C18.8825 13.1736 18.9283 13.509 18.9194 13.8473C18.9116 13.9989 18.9122 14.1495 18.913 14.324C18.9133 14.3792 18.9135 14.4367 18.9135 14.4974V14.4474H18.9159H18.9183H18.9207H18.9231H18.9255H18.9279H18.9303H18.9327H18.9351H18.9375H18.9399H18.9423H18.9447H18.9471H18.9495H18.9519H18.9543H18.9567H18.9591H18.9614H18.9635M17.9729 13.827L17.973 13.826C17.9845 13.6715 17.997 13.5043 18.0587 13.3747C18.0905 13.3079 18.136 13.2493 18.2021 13.2069C18.268 13.1645 18.3509 13.1405 18.4538 13.1369L18.454 13.1369C18.5672 13.1334 18.6594 13.1529 18.7332 13.193C18.8075 13.2333 18.8596 13.2926 18.8954 13.3625C18.9655 13.4993 18.9738 13.6794 18.9694 13.8486L18.9694 13.8499L18.9694 13.8499C18.9616 13.9999 18.9622 14.1487 18.963 14.3227C18.9632 14.3628 18.9634 14.4043 18.9635 14.4474M17.9729 13.827C17.9364 14.0701 17.8721 14.3082 17.7811 14.5365L17.7811 14.5365L17.7801 14.5392C17.7602 14.599 17.7259 14.6635 17.6902 14.7308C17.6756 14.7582 17.6608 14.7861 17.6466 14.8142C17.6233 14.8606 17.6018 14.908 17.5902 14.9517C17.5789 14.9942 17.5742 15.0434 17.5976 15.0859L17.5974 15.0861L17.6003 15.0903C17.663 15.1808 17.7444 15.2567 17.8391 15.3128C17.9337 15.369 18.0393 15.4042 18.1488 15.4159L18.1488 15.4159L18.1506 15.4161C18.7924 15.4609 19.4365 15.4609 20.0783 15.4161L20.0783 15.4161L20.0791 15.416C20.1957 15.4061 20.3395 15.3393 20.4557 15.2563C20.5145 15.2143 20.5684 15.1667 20.6099 15.1172C20.6506 15.0686 20.6828 15.0143 20.6915 14.9591M17.9729 13.827L20.6915 14.9591M18.9635 14.4474H18.9638H18.9662H18.9686H18.971H18.9734H18.9757H18.9781H18.9805H18.9829H18.9852H18.9876H18.99H18.9924H18.9947H18.9971H18.9995H19.0018H19.0042H19.0066H19.0089H19.0113H19.0137H19.016H19.0184H19.0208H19.0231H19.0255H19.0278H19.0302H19.0325H19.0349H19.0373H19.0396H19.042H19.0443H19.0467H19.049H19.0514H19.0537H19.0561H19.0584H19.0607H19.0631H19.0654H19.0678H19.0701H19.0724H19.0748H19.0771H19.0795H19.0818H19.0841H19.0865H19.0888H19.0911H19.0935H19.0958H19.0981H19.1004H19.1028H19.1051H19.1074H19.1097H19.1121H19.1144H19.1167H19.119H19.1214H19.1237H19.126H19.1283H19.1306H19.1329H19.1353H19.1376H19.1399H19.1422H19.1445H19.1468H19.1491H19.1514H19.1537H19.1561H19.1584H19.1607H19.163H19.1653H19.1676H19.1699H19.1722H19.1745H19.1768H19.1791H19.1814H19.1837H19.186H19.1883H19.1906H19.1928H19.1951H19.1974H19.1997H19.202H19.2043H19.2066H19.2089H19.2112H19.2134H19.2157H19.218H19.2203H19.2226H19.2249H19.2271H19.2294H19.2317H19.234H19.2363H19.2385H19.2408H19.2431H19.2454H19.2476H19.2499H19.2522H19.2545H19.2567H19.259H19.2613H19.2635H19.2658H19.2681H19.2703H19.2726H19.2749H19.2771H19.2794H19.2817H19.2839H19.2862H19.2884H19.2907H19.293H19.2952H19.2975H19.2997H19.302H19.3042H19.3065H19.3087H19.311H19.3133H19.3155H19.3178H19.32H19.3223H19.3245H19.3268H19.329H19.3312H19.3335H19.3357H19.338H19.3402H19.3425H19.3447H19.347H19.3492H19.3514H19.3537H19.3559H19.3581H19.3604H19.3626H19.3649H19.3671H19.3693H19.3716H19.3738H19.376H19.3783H19.3805H19.3827H19.385H19.3872H19.3894H19.3916H19.3939H19.3961H19.3983H19.4005H19.4028H19.405H19.4072H19.4094H19.4117H19.4139H19.4161H19.4183H19.4206H19.4228H19.425H19.4272H19.4294H19.4316H19.4339H19.4361H19.4383H19.4405H19.4427H19.4449H19.4471H19.4494H19.4516H19.4538H19.456H19.4582H19.4604H19.4626H19.4648H19.467H19.4692H19.4714H19.4737H19.4759H19.4781H19.4803H19.4825H19.4847H19.4869H19.4891H19.4913H19.4935H19.4957H19.4979H19.5001H19.5023H19.5045H19.5067H19.5089H19.5111H19.5133H19.5155H19.5177H19.5198H19.522H19.5242H19.5264H19.5286H19.5308H19.533H19.5352H19.5374H19.5396H19.5418H19.544H19.5461H19.5483H19.5505H19.5527H19.5549H19.5571H19.5593H19.5614H19.5636H19.5658H19.568H19.5702H19.5724H19.5745H19.5767H19.5789H19.5811H19.5833H19.5854H19.5876H19.5898H19.592H19.5942H19.5963H19.5985H19.6007H19.6029H19.605H19.6072H19.6094H19.6116H19.6137H19.6159H19.6181H19.6203H19.6224H19.6246H19.6268H19.6289H19.6311H19.6333H19.6355H19.6376H19.6398H19.642H19.6441H19.6463H19.6485H19.6506H19.6528H19.655H19.6571H19.6593H19.6615H19.6636H19.6658H19.668H19.6701H19.6723H19.6744H19.6766H19.6788H19.6809H19.6831H19.6852H19.6874H19.6896H19.6917H19.6939H19.696H19.6982H19.7004H19.7025H19.7047H19.7068H19.709H19.7111H19.7133H19.7155H19.7176H19.7198H19.7219H19.7241H19.7262H19.7284H19.7305H19.7327H19.7348H19.737H19.7392H19.7413H19.7435H19.7456H19.7478H19.7499H19.7521H19.7542H19.7564H19.7585H19.7607H19.7628H19.765H19.7671H19.7693H19.7714H19.7735H19.7757H19.7778H19.78H19.7821H19.7843H19.7864H19.7886H19.7907H19.7929H19.795H19.7972H19.7993H19.8014H19.8036H19.8057H19.8079H19.81H19.8122H19.8143H19.8164H19.8186H19.8207H19.8229H19.825H19.8272H19.8293H19.8314H19.8336H19.8357H19.8379H19.84H19.8421H19.8443H19.8464H19.8486H19.8507H19.8528H19.855H19.8571H19.8593H19.8614H19.8635H19.8657H19.8678H19.8699H19.8721H19.8742H19.8764H19.8785H19.8806H19.8828H19.8849H19.887H19.8892H19.8913H19.8934H19.8956H19.8977H19.8998H19.902H19.9041H19.9062H19.9084H19.9105H19.9127H19.9148H19.9169H19.9191H19.9212H19.9233H19.9255H19.9276H19.9297H19.9319H19.934H19.9361H19.9383H19.9404H19.9425H19.9446H19.9468H19.9489H19.951H19.9532H19.9553H19.9574H19.9596H19.9617H19.9638H19.966H19.9681H19.9702H19.9724H19.9745H19.9766H19.9788H19.9809H19.983H19.9851H19.9873H19.9894H19.9915H19.9937H19.9958H19.9979H20.0001H20.0022H20.0043H20.0064H20.0086H20.0107H20.0128H20.015H20.0171H20.0192H20.0214H20.0235H20.0256H20.0277H20.0299H20.032H20.0341H20.0363H20.0384H20.0405H20.0427H20.0448H20.0469H20.049H20.0512C20.2186 14.4474 20.3929 14.4683 20.5189 14.5426C20.5831 14.5805 20.6359 14.633 20.6676 14.7039C20.6992 14.7747 20.7078 14.8595 20.6915 14.9591M18.9635 14.4474C18.9635 14.4638 18.9635 14.4805 18.9635 14.4974M18.9635 14.4974H20.0512C20.3821 14.4974 20.7027 14.5816 20.6422 14.951M18.9635 14.4974L18.1541 15.3662C18.7936 15.4109 19.4354 15.4109 20.0748 15.3662C20.2831 15.3484 20.6156 15.1209 20.6422 14.951M18.9635 14.4974L20.6915 14.9591M20.6422 14.951L20.6916 14.9587C20.6915 14.9589 20.6915 14.959 20.6915 14.9591M20.6422 14.951L20.6915 14.9591" fill="white" stroke="white" stroke-width="0.1"/>
<path d="M13.3195 18.9023C13.8304 18.9636 14.3467 18.9636 14.8576 18.9023C14.9809 18.8836 15.0918 18.758 15.2024 18.6326C15.2454 18.584 15.2883 18.5353 15.3319 18.493C15.3326 18.4936 15.3332 18.4942 15.3338 18.4948L15.3688 18.4591L15.336 18.4213C15.3349 18.4223 15.3338 18.4232 15.3327 18.4242C15.19 18.2874 15.0387 18.1599 14.8797 18.0424C14.8271 18.0083 14.7508 18.0109 14.6554 18.014C14.606 18.0156 14.5515 18.0174 14.4926 18.0144C14.4926 17.8915 14.497 17.7721 14.5013 17.6559C14.5115 17.3797 14.521 17.122 14.469 16.8797C14.4261 16.6625 14.2267 16.3374 14.0568 16.3094C13.6874 16.2503 13.6002 16.5694 13.6002 16.9003V18.0144L12.7591 18.5281C12.7626 18.5255 12.7661 18.5228 12.7695 18.5201C12.818 18.5589 12.8657 18.6024 12.9133 18.6458C13.0451 18.7658 13.1761 18.8852 13.3195 18.9023ZM13.3195 18.9023L13.3135 18.952M13.3195 18.9023L13.3136 18.952L13.3135 18.952M13.3135 18.952C13.1927 18.9375 13.0845 18.8611 12.9872 18.7785C12.951 18.7477 12.9147 18.7146 12.8791 18.6822C12.8664 18.6707 12.8538 18.6592 12.8414 18.6479C12.7933 18.6045 12.7463 18.5636 12.699 18.529L12.6454 18.4898L12.6979 18.4491C12.7562 18.4039 12.8147 18.3565 12.8738 18.3086C13.0043 18.203 13.1376 18.095 13.2774 18.0035L13.3047 18.0454L13.277 18.0038C13.3214 17.9742 13.3775 17.9699 13.4276 17.9688C13.4449 17.9684 13.4621 17.9684 13.4793 17.9684L13.3135 18.952ZM13.3135 18.952C13.8284 19.0138 14.3487 19.0138 14.8635 18.952L14.8635 18.952L14.8651 18.9518C14.9763 18.9348 15.0723 18.848 15.1551 18.7598C15.1837 18.7294 15.2125 18.6968 15.2406 18.665C15.2541 18.6497 15.2674 18.6347 15.2804 18.6201C15.3216 18.5741 15.3616 18.5316 15.4016 18.4968L15.4425 18.4613L15.4037 18.4234C15.2489 18.2717 15.0837 18.131 14.9094 18.0022L14.9095 18.0021L14.9069 18.0005C14.8532 17.9657 14.7856 17.9618 14.7206 17.9623C14.6977 17.9625 14.6746 17.9633 14.6509 17.9641C14.6166 17.9652 14.581 17.9664 14.5428 17.9659C14.5438 17.8607 14.5475 17.7594 14.5512 17.6598C14.5542 17.5797 14.5571 17.5006 14.5585 17.4213C14.5618 17.2315 14.556 17.0472 14.518 16.8696L13.3135 18.952Z" fill="white" stroke="white" stroke-width="0.1"/>
<path d="M11.372 22.4755L11.3761 22.4256C11.2283 22.4138 11.02 22.1656 10.9934 22.0016L11.7913 21.5017C11.7388 21.5033 11.6898 21.5022 11.6424 21.5011C11.6107 21.5004 11.5798 21.4997 11.5491 21.4999C11.4639 21.5002 11.3793 21.507 11.3121 21.5503L11.3391 21.5923L11.3124 21.5501C11.2332 21.6001 11.1385 21.6752 11.0653 21.7541C11.0288 21.7936 10.9962 21.8355 10.9739 21.877C10.9521 21.9176 10.9367 21.9639 10.944 22.0095L10.944 22.0096C10.9595 22.1047 11.0248 22.2162 11.1018 22.3037C11.1409 22.3482 11.1847 22.3885 11.2297 22.4189C11.274 22.4488 11.3231 22.4715 11.372 22.4755ZM11.372 22.4755C11.978 22.5244 12.587 22.5244 13.193 22.4755L13.1931 22.4768L13.204 22.4733C13.3073 22.4406 13.4002 22.3814 13.4736 22.3016C13.5469 22.2218 13.598 22.1242 13.6218 22.0185L13.6231 22.0188V22.0075C13.6231 21.9584 13.6038 21.9112 13.5771 21.8687C13.5501 21.8259 13.5133 21.7843 13.4729 21.7454C13.3921 21.6677 13.2912 21.5955 13.2094 21.5405L13.2091 21.5403C13.1492 21.5007 13.0724 21.4962 12.9963 21.4971C12.9689 21.4974 12.9413 21.4985 12.9128 21.4995C12.8704 21.5011 12.826 21.5028 12.7782 21.5023C12.7791 21.395 12.7831 21.2908 12.787 21.1878C12.7901 21.104 12.7933 21.021 12.7948 20.9376C12.7983 20.7399 12.7921 20.5472 12.7519 20.3637" fill="white" stroke="white" stroke-width="0.1"/>
<path d="M6.18556 15.413L6.18555 15.4131L6.18819 15.4133C6.66434 15.4501 7.14236 15.4566 7.61933 15.4327C8.11494 15.4566 8.61156 15.4501 9.10638 15.4133L9.10638 15.4134L9.10887 15.4131C9.22194 15.3989 9.32017 15.3171 9.40559 15.2319C9.43794 15.1996 9.47022 15.1649 9.50173 15.1311C9.51262 15.1194 9.52341 15.1078 9.53408 15.0964C9.57628 15.0515 9.61718 15.0095 9.65818 14.9745L9.70325 14.9359L9.65767 14.898C9.61603 14.8634 9.57399 14.8212 9.53051 14.7758C9.51963 14.7645 9.50862 14.7529 9.49752 14.7412C9.46495 14.707 9.43158 14.6719 9.39834 14.6395C9.35364 14.5959 9.3068 14.5548 9.25811 14.524C9.20945 14.4931 9.15612 14.4707 9.09889 14.4684C8.12677 14.4269 7.15022 14.4269 6.17957 14.4684L6.17957 14.4684L6.17925 14.4684C6.12204 14.4712 6.06911 14.4946 6.02111 14.5263C5.9731 14.558 5.92704 14.6001 5.88313 14.6446C5.85171 14.6764 5.82009 14.7109 5.78917 14.7445C5.77706 14.7577 5.76506 14.7707 5.75322 14.7835C5.71043 14.8295 5.669 14.8723 5.62783 14.9072L5.58221 14.9458L5.62834 14.9839C5.67049 15.0187 5.71233 15.0599 5.75532 15.1038C5.76613 15.1148 5.77705 15.1261 5.78805 15.1374C5.8202 15.1706 5.85307 15.2044 5.88598 15.2359C5.97298 15.3192 6.07196 15.3982 6.18556 15.413Z" fill="white" stroke="white" stroke-width="0.1"/>
<path d="M14.5128 6.99695L14.463 6.9926C14.4118 7.57897 14.4118 8.16869 14.463 8.75506L14.463 8.75506L14.4631 8.75578C14.4686 8.80934 14.4956 8.85686 14.5295 8.89823C14.5636 8.93977 14.6079 8.9789 14.6539 9.01578C14.6846 9.04039 14.7177 9.06523 14.75 9.08949C14.7658 9.10135 14.7814 9.11307 14.7965 9.12456C14.8434 9.16036 14.8863 9.19488 14.9207 9.22931L14.9572 9.26577L14.9925 9.2282C15.0254 9.19318 15.0635 9.1589 15.1038 9.12375C15.1138 9.11506 15.1239 9.10627 15.1342 9.09741C15.1647 9.07101 15.196 9.04396 15.2254 9.01674C15.3027 8.94498 15.3776 8.86241 15.4021 8.76264L15.4021 8.76264L15.4022 8.76212C15.4369 8.6141 15.4412 8.4643 15.4373 8.31649C15.4357 8.25484 15.4327 8.19484 15.4298 8.13536C15.4255 8.04898 15.4213 7.9637 15.4213 7.87605C15.4213 7.7882 15.4261 7.70185 15.4311 7.61401C15.4345 7.55398 15.4379 7.49324 15.4399 7.43085C15.4445 7.28098 15.4399 7.12917 15.4003 6.9838L15.4003 6.98376C15.3721 6.88087 15.2885 6.79835 15.2027 6.72739C15.1701 6.70041 15.1354 6.6737 15.1014 6.64759C15.09 6.63881 15.0786 6.6301 15.0675 6.62147C15.0226 6.58665 14.9801 6.55258 14.9433 6.5175L14.9066 6.48261L14.8722 6.51966C14.8399 6.55433 14.8007 6.58914 14.7584 6.62522C14.7471 6.63482 14.7356 6.64454 14.724 6.65437C14.6926 6.68081 14.6605 6.70795 14.6307 6.73499C14.5897 6.7722 14.5505 6.81159 14.5205 6.8531C14.4905 6.89458 14.4674 6.94124 14.463 6.99272L14.5128 6.99695ZM14.5128 6.99695C14.5219 6.89026 14.6386 6.7918 14.7555 6.69315C14.8052 6.65124 14.8549 6.60931 14.8964 6.56669L14.9088 6.55371L14.9251 6.56887C14.97 6.60968 15.0208 6.64874 15.0715 6.68769C15.196 6.78335 15.3196 6.87833 15.352 6.99695C15.4048 7.19049 15.3931 7.39925 15.3813 7.6085C15.3763 7.69798 15.3713 7.78754 15.3713 7.87605C15.3713 7.96421 15.3756 8.05238 15.3799 8.14022C15.3901 8.34682 15.4002 8.55167 15.3535 8.75071C15.3251 8.86631 15.2139 8.96242 15.1021 9.0591C15.0641 9.09188 15.0261 9.12472 14.9913 9.15841C14.9913 9.15847 14.9914 9.15854 14.9914 9.1586L14.9561 9.19395L14.9231 9.16291C14.8799 9.12445 14.8295 9.08664 14.7791 9.04883C14.6514 8.95296 14.5237 8.85709 14.5128 8.75071C14.4619 8.16724 14.4619 7.58043 14.5128 6.99695Z" fill="white" stroke="white" stroke-width="0.1"/>
<path d="M10.9298 18.4664C10.9342 18.5184 10.957 18.5653 10.9869 18.6071C11.0168 18.6488 11.0559 18.6882 11.0967 18.7252C11.1266 18.7523 11.1588 18.7794 11.1902 18.8058C11.2016 18.8154 11.213 18.8249 11.224 18.8343C11.2662 18.8702 11.3053 18.9048 11.3375 18.9394L11.3728 18.9774L11.4095 18.9407C11.4565 18.8937 11.5119 18.8514 11.5702 18.8068C11.6009 18.7833 11.6324 18.7593 11.6639 18.7336C11.7502 18.6632 11.8357 18.5808 11.8655 18.4758L11.8655 18.4755C11.9053 18.3322 11.9099 18.1818 11.9052 18.0328C11.9033 17.971 11.8998 17.9107 11.8965 17.8511C11.8915 17.7633 11.8866 17.677 11.8866 17.589C11.8866 17.5027 11.8907 17.4177 11.895 17.3312C11.898 17.2707 11.901 17.2096 11.9026 17.1466C11.9065 16.9971 11.9022 16.845 11.8675 16.697L11.8675 16.697L11.8674 16.6966C11.8429 16.596 11.7681 16.5134 11.6909 16.4418C11.6621 16.4151 11.6315 16.3886 11.6016 16.3628C11.5909 16.3535 11.5802 16.3443 11.5698 16.3352C11.5297 16.3002 11.492 16.266 11.4595 16.2311L11.425 16.194L11.3884 16.2289C11.3518 16.2638 11.3076 16.2985 11.2601 16.3344C11.248 16.3436 11.2356 16.3528 11.2231 16.3622C11.1874 16.3889 11.151 16.4161 11.1172 16.4434C11.0715 16.4804 11.0278 16.5196 10.9943 16.5613C10.961 16.6028 10.9348 16.6503 10.9299 16.7038L10.9299 16.7038L10.9298 16.704C10.8786 17.2904 10.8786 17.8801 10.9298 18.4664ZM10.9298 18.4664C10.9298 18.4664 10.9298 18.4663 10.9298 18.4663L10.9796 18.4621L10.9298 18.4665C10.9298 18.4665 10.9298 18.4664 10.9298 18.4664Z" fill="white" stroke="white" stroke-width="0.1"/>
<path d="M15.9719 16.233C15.8657 16.2431 15.7735 16.3208 15.6943 16.4016C15.6613 16.4353 15.6285 16.4719 15.5964 16.5076C15.589 16.5158 15.5817 16.524 15.5744 16.532C15.535 16.5757 15.4968 16.617 15.4584 16.6522L15.4183 16.689L15.4583 16.7258C15.4992 16.7635 15.539 16.8057 15.5796 16.8498C15.5876 16.8585 15.5957 16.8672 15.6038 16.8761C15.6363 16.9115 15.6695 16.9477 15.7032 16.9818C15.7868 17.0666 15.8802 17.146 15.9917 17.1801L15.992 17.1802C16.1256 17.2203 16.2681 17.2244 16.4084 17.2194C16.4663 17.2173 16.5227 17.2138 16.5782 17.2103C16.6608 17.2051 16.7417 17.2 16.8234 17.2C16.886 17.2 16.95 17.2035 17.0153 17.2075C17.0274 17.2083 17.0396 17.209 17.0518 17.2098C17.105 17.2132 17.159 17.2167 17.2125 17.2185C17.3437 17.223 17.4773 17.2181 17.6023 17.177C17.7145 17.1428 17.8117 17.0709 17.9009 16.993C17.9386 16.96 17.9759 16.925 18.0125 16.8907C18.0193 16.8843 18.0261 16.878 18.0328 16.8717C18.0762 16.831 18.119 16.7916 18.1626 16.7558L18.208 16.7186L18.1641 16.6797C18.1239 16.6441 18.0838 16.6011 18.0424 16.555C18.0315 16.5429 18.0206 16.5306 18.0096 16.5182C17.979 16.4839 17.9477 16.4487 17.9164 16.4161C17.8333 16.3293 17.7367 16.2447 17.625 16.233L17.625 16.233L17.6248 16.233C17.0752 16.1773 16.5215 16.1773 15.9719 16.233ZM15.9719 16.233C15.972 16.233 15.9721 16.233 15.9721 16.233L15.9768 16.2828M15.9719 16.233C15.9719 16.233 15.9718 16.233 15.9718 16.233L15.9768 16.2828M15.9768 16.2828C15.8553 16.2942 15.7448 16.4172 15.6339 16.5406C15.5989 16.5797 15.5638 16.6188 15.5283 16.6543L15.9768 16.2828Z" fill="white" stroke="white" stroke-width="0.1"/>
<path d="M20.6578 18.4664C20.6621 18.5184 20.685 18.5653 20.7149 18.6071C20.7448 18.6488 20.7839 18.6882 20.8247 18.7252C20.8545 18.7523 20.8868 18.7794 20.9182 18.8058C20.9296 18.8154 20.9409 18.8249 20.952 18.8343C20.9942 18.8702 21.0333 18.9048 21.0655 18.9394L21.1008 18.9774L21.1374 18.9407C21.1845 18.8937 21.2399 18.8514 21.2982 18.8068C21.3289 18.7833 21.3604 18.7593 21.3919 18.7336C21.4782 18.6632 21.5637 18.5808 21.5934 18.4758L21.5935 18.4755C21.6332 18.3322 21.6378 18.1818 21.6332 18.0328C21.6312 17.971 21.6278 17.9107 21.6244 17.8511C21.6194 17.7633 21.6145 17.677 21.6145 17.589C21.6145 17.5036 21.6185 17.4197 21.6225 17.3344C21.6254 17.2729 21.6283 17.2107 21.6298 17.1465C21.6334 16.9969 21.6287 16.845 21.594 16.697L21.594 16.697C21.5703 16.5962 21.4957 16.5135 21.4187 16.4418C21.3898 16.415 21.3589 16.3882 21.3289 16.3622C21.3183 16.3531 21.3079 16.3441 21.2977 16.3352C21.2576 16.3002 21.2199 16.266 21.1875 16.2311L21.1521 16.1931L21.1155 16.2298C21.0811 16.2642 21.0381 16.2987 20.9912 16.3345C20.9762 16.346 20.9605 16.3577 20.9447 16.3696C20.9124 16.3939 20.8793 16.4187 20.8486 16.4433C20.8026 16.4802 20.7584 16.5193 20.7243 16.5609C20.6903 16.6022 20.6633 16.6498 20.6579 16.7033L20.6579 16.7033L20.6578 16.7041C20.6073 17.2904 20.6073 17.88 20.6578 18.4664ZM20.6578 18.4664C20.6578 18.4663 20.6578 18.4663 20.6578 18.4663L20.7076 18.4621L20.6578 18.4664C20.6578 18.4664 20.6578 18.4664 20.6578 18.4664Z" fill="white" stroke="white" stroke-width="0.1"/>
<path d="M7.84434 10.9859C7.65276 10.9341 7.44523 10.9455 7.23647 10.9569C7.14738 10.9618 7.05806 10.9667 6.96967 10.9667L6.96994 10.9167C6.9699 10.9167 6.96985 10.9167 6.96981 10.9167M7.84434 10.9859L7.86798 11.831L7.87181 11.8808C7.87189 11.8808 7.87197 11.8808 7.87205 11.8808C7.92341 11.8768 7.96928 11.8533 8.00956 11.8228C8.04992 11.7924 8.08793 11.7525 8.12378 11.7109C8.14826 11.6825 8.17301 11.6517 8.19725 11.6216C8.2083 11.6078 8.21924 11.5943 8.23 11.5811C8.26513 11.538 8.29931 11.4982 8.33383 11.4654L8.36997 11.431L8.33576 11.3948C8.30009 11.357 8.26534 11.3141 8.22971 11.269C8.2233 11.2609 8.21686 11.2527 8.21038 11.2445C8.18125 11.2075 8.15137 11.1695 8.12092 11.134C8.04752 11.0483 7.9626 10.9663 7.85749 10.9376L7.85738 10.9376C7.71355 10.8987 7.5629 10.8941 7.41381 10.8986C7.35165 10.9005 7.29105 10.9038 7.23108 10.9071C7.14365 10.9119 7.05753 10.9167 6.96981 10.9167M7.84434 10.9859C7.97021 11.0202 8.07045 11.1476 8.17084 11.2751M7.84434 10.9859L8.17084 11.2751M6.96981 10.9167C6.88949 10.9162 6.80991 10.9114 6.72865 10.9065C6.67131 10.9031 6.61314 10.8995 6.55327 10.8975C6.41271 10.8926 6.27031 10.8964 6.138 10.9332L6.96981 10.9167ZM8.17084 11.2751C8.21303 11.3287 8.25524 11.3823 8.2994 11.4291L8.17084 11.2751Z" fill="white" stroke="white" stroke-width="0.1"/>
<path d="M13.154 8.29078C12.5705 8.34101 11.9838 8.34101 11.4003 8.29078H13.154ZM13.154 8.29078L13.1582 8.3406C13.1582 8.3406 13.1582 8.3406 13.1583 8.3406M13.154 8.29078L13.1583 8.34059C13.1583 8.34059 13.1583 8.3406 13.1583 8.3406M13.6691 7.89592L13.6315 7.93125C13.5968 7.96387 13.5622 8.00327 13.5263 8.04569C13.5173 8.05637 13.5081 8.06729 13.4989 8.07831C13.4721 8.11027 13.4446 8.14309 13.4172 8.17345C13.3801 8.2144 13.3407 8.2535 13.299 8.28346C13.2572 8.31341 13.2103 8.33625 13.1583 8.3406M13.6691 7.89592L12.7526 7.36319C12.6941 7.36522 12.6373 7.36875 12.5813 7.37224C12.4992 7.37735 12.4187 7.38236 12.337 7.38236C12.2462 7.38236 12.1569 7.37855 12.0663 7.37468C12.0007 7.37187 11.9344 7.36904 11.8664 7.3676C11.7076 7.36425 11.5469 7.36897 11.3898 7.40269L11.3897 7.40271C11.2882 7.42476 11.2052 7.49987 11.1336 7.57741C11.1063 7.60693 11.0793 7.6385 11.0529 7.6693C11.0442 7.67951 11.0355 7.68964 11.0269 7.69958C10.9919 7.74013 10.9577 7.77827 10.9228 7.8111L10.8852 7.84642L10.9217 7.88289C10.9561 7.91727 10.9905 7.96022 11.0261 8.00726C11.0376 8.02235 11.0493 8.03799 11.0611 8.05382C11.0853 8.08623 11.11 8.11943 11.1346 8.15021C11.1714 8.19632 11.2105 8.24069 11.2522 8.27478C11.2938 8.30876 11.3416 8.33561 11.3957 8.34057L11.396 8.34059C11.9823 8.39107 12.5719 8.39108 13.1583 8.3406M13.6691 7.89592L13.6326 7.85946M13.6691 7.89592L13.6326 7.85946M13.6326 7.85946C13.5856 7.81241 13.5433 7.75739 13.4989 7.69951C13.4755 7.66909 13.4516 7.63788 13.426 7.60662C13.3556 7.52067 13.2736 7.43585 13.1687 7.40376L13.6326 7.85946Z" fill="white" stroke="white" stroke-width="0.1"/>
<path d="M16.6765 13.193L16.7238 13.2094C16.7639 13.0939 16.7679 12.9688 16.7631 12.8465C16.761 12.7952 16.7576 12.7458 16.7541 12.6972C16.7498 12.6347 16.7455 12.5736 16.7445 12.5119L16.7531 12.5061V12.4793C16.7531 12.433 16.7568 12.3848 16.7614 12.3346C16.7624 12.3238 16.7634 12.313 16.7644 12.302C16.7681 12.2624 16.772 12.2215 16.7743 12.1811C16.7801 12.078 16.7766 11.9695 16.7327 11.8684C16.6897 11.7693 16.6153 11.684 16.5369 11.6061C16.5044 11.5739 16.4704 11.5422 16.4371 11.511C16.43 11.5044 16.4229 11.4978 16.4158 11.4912C16.3755 11.4534 16.3365 11.4162 16.3007 11.3783L16.2645 11.3399L16.2281 11.3781C16.1932 11.4148 16.1516 11.4511 16.1071 11.4887C16.096 11.498 16.0847 11.5074 16.0734 11.5169C16.0397 11.545 16.0051 11.5739 15.973 11.6028C15.8893 11.6782 15.8068 11.7671 15.7922 11.8726L15.7922 11.8727C15.7318 12.3125 15.7318 12.7585 15.7922 13.1983L15.7915 13.1984L15.7941 13.2066C15.8267 13.3093 15.8852 13.4019 15.9639 13.4756C16.0426 13.5492 16.1389 13.6014 16.2435 13.6271L16.2432 13.6286H16.2554C16.3037 13.6286 16.3533 13.6108 16.399 13.5856C16.4454 13.56 16.4914 13.5246 16.5336 13.4847C16.6172 13.4055 16.6916 13.3026 16.7238 13.2093L16.6765 13.193ZM16.6765 13.193C16.7281 13.0444 16.7163 12.8741 16.7045 12.7039C16.6994 12.6305 16.6943 12.557 16.6943 12.4852M16.6765 13.193L16.6943 12.4852M16.6943 12.4852L16.7031 12.4793L16.6943 12.4852Z" fill="white" stroke="white" stroke-width="0.1"/>
<path d="M14.5054 5.11041L14.4637 5.13801C14.5909 5.33022 14.7298 5.51442 14.8796 5.68958L14.9189 5.73551L14.9567 5.68831C15.0034 5.62986 15.0551 5.57495 15.1085 5.51822C15.1383 5.48646 15.1688 5.45414 15.1992 5.4203C15.2815 5.3286 15.3602 5.2292 15.4071 5.1146L15.4072 5.11462L15.4081 5.11214C15.4849 4.89244 15.4849 4.65318 15.4081 4.43348L15.4081 4.43348L15.408 4.43325C15.3688 4.32292 15.2996 4.22588 15.2243 4.13573C15.1889 4.09329 15.1514 4.05159 15.1145 4.01058C15.1121 4.00794 15.1097 4.00531 15.1074 4.00268C15.068 3.95884 15.0293 3.91568 14.9932 3.87162L14.9566 3.82699L14.9177 3.86956C14.7541 4.04825 14.6009 4.23621 14.459 4.4325L14.4589 4.43247L14.4576 4.43444C14.4225 4.48814 14.4223 4.55721 14.4263 4.61492C14.428 4.63778 14.4305 4.66153 14.433 4.68411C14.4338 4.69111 14.4345 4.698 14.4352 4.70472C14.4383 4.73397 14.4406 4.76084 14.4406 4.78537C14.4406 4.81002 14.4384 4.83677 14.4355 4.86595C14.435 4.87099 14.4345 4.87612 14.4339 4.88131C14.4315 4.90538 14.4289 4.9309 14.4276 4.95569C14.4244 5.0144 14.4267 5.08306 14.4639 5.13832L14.5054 5.11041ZM14.5054 5.11041C14.4669 5.05314 14.4753 4.96945 14.4837 4.88675C14.4871 4.85211 14.4906 4.81765 14.4906 4.78537C14.4906 4.7514 14.4866 4.71473 14.4826 4.678C14.4738 4.59651 14.4649 4.51476 14.4995 4.4618C14.6305 4.28071 14.771 4.10677 14.9206 3.94073C14.919 3.93883 14.9174 3.93692 14.9159 3.93502L14.9546 3.90332L14.9914 3.93708C14.9899 3.93871 14.9885 3.94033 14.987 3.94196C15.0164 3.97628 15.0468 4.01011 15.0772 4.04385C15.1929 4.17252 15.3076 4.30007 15.3609 4.44998C15.4339 4.659 15.4339 4.88663 15.3609 5.09564C15.3019 5.23947 15.1876 5.36102 15.0741 5.48174C15.0316 5.5269 14.9893 5.57194 14.95 5.61798C14.9519 5.62018 14.9537 5.62238 14.9556 5.62458L14.9176 5.65708L14.8786 5.62585C14.8806 5.62331 14.8826 5.62077 14.8847 5.61824C14.7487 5.45631 14.6221 5.28676 14.5054 5.11041Z" fill="white" stroke="white" stroke-width="0.1"/>
<path d="M16.2873 14.47L16.2873 14.47L16.2871 14.4699C16.2259 14.432 16.1489 14.4311 16.0815 14.4357C16.0552 14.4375 16.028 14.4405 16.0018 14.4433C15.9936 14.4441 15.9856 14.445 15.9777 14.4458C15.9622 14.4474 15.9471 14.4489 15.9326 14.4499V14.4447H15.8826C15.8535 14.4447 15.822 14.442 15.7882 14.4386C15.7805 14.4379 15.7726 14.437 15.7647 14.4362C15.7385 14.4335 15.7112 14.4306 15.6848 14.4289C15.6176 14.4244 15.541 14.4254 15.48 14.4622L15.4799 14.4621L15.4779 14.4635C15.277 14.5983 15.0863 14.748 14.9077 14.9113L14.8642 14.9511L14.9105 14.9875C14.9652 15.0306 15.0159 15.0777 15.0681 15.1263C15.1015 15.1573 15.1354 15.1889 15.1715 15.2204C15.2606 15.2983 15.358 15.3711 15.4706 15.4053L15.4706 15.4053L15.4709 15.4054C15.727 15.4814 15.9997 15.4814 16.2558 15.4054L16.2559 15.4056L16.2601 15.4039C16.3651 15.3621 16.4598 15.2982 16.5379 15.2165C16.616 15.1349 16.6757 15.0374 16.7128 14.9307L16.7132 14.9308L16.7144 14.9251C16.7251 14.877 16.7024 14.8297 16.6767 14.7927C16.6495 14.7534 16.6104 14.7131 16.5674 14.6749C16.4809 14.598 16.3712 14.5224 16.2873 14.47Z" fill="white" stroke="white" stroke-width="0.1"/>
<path d="M14.1478 20.7172L14.1478 20.7173L14.1497 20.7185C14.2039 20.7533 14.2726 20.7537 14.3304 20.7496C14.3531 20.748 14.3768 20.7454 14.3993 20.7429C14.4063 20.7422 14.4131 20.7414 14.4198 20.7407C14.4489 20.7376 14.4757 20.7353 14.5002 20.7353C14.5249 20.7353 14.5517 20.7378 14.5806 20.7411C14.588 20.7419 14.5956 20.7428 14.6034 20.7438C14.625 20.7464 14.6476 20.7491 14.6692 20.7508C14.7262 20.7555 14.7946 20.7558 14.8487 20.7195C15.0418 20.5901 15.2266 20.4487 15.4018 20.296L15.447 20.2567L15.4002 20.2193C15.3421 20.1727 15.2873 20.1213 15.2308 20.0681C15.1986 20.0378 15.1658 20.007 15.1314 19.9762C15.0394 19.8936 14.9395 19.8149 14.8248 19.7687L14.8248 19.7686L14.8226 19.7679C14.6029 19.691 14.3636 19.691 14.1439 19.7679L14.1439 19.7679L14.1435 19.768C14.0324 19.808 13.9354 19.8779 13.8456 19.9538C13.8036 19.9892 13.7625 20.0267 13.7221 20.0634C13.7192 20.0661 13.7162 20.0688 13.7133 20.0715C13.6698 20.111 13.627 20.1497 13.5834 20.1858L13.539 20.2225L13.5815 20.2613C13.7607 20.4248 13.9498 20.5771 14.1478 20.7172Z" fill="white" stroke="white" stroke-width="0.1"/>
<path d="M8.37164 7.01222L8.37164 7.01201C8.37209 6.95716 8.37261 6.90444 8.3731 6.85377C8.37584 6.57338 8.37797 6.35601 8.36506 6.18945C8.3499 5.99394 8.31345 5.85402 8.21988 5.76186C8.12644 5.66983 7.9864 5.63571 7.79403 5.62162C7.64738 5.61088 7.46148 5.61149 7.22896 5.61225C7.15479 5.6125 7.07587 5.61276 6.99197 5.61267C6.92295 5.61259 6.85733 5.61234 6.79498 5.61211C6.54377 5.61115 6.34565 5.61039 6.19129 5.62226C5.99972 5.63698 5.86106 5.6717 5.7685 5.76231C5.67573 5.85313 5.63952 5.99 5.62379 6.17941C5.61086 6.3352 5.61133 6.53631 5.61192 6.79268C5.61206 6.8496 5.6122 6.90924 5.6122 6.97171C5.6122 7.07239 5.61161 7.166 5.61107 7.25294C5.60973 7.46794 5.60864 7.64207 5.61728 7.78123C5.62934 7.97545 5.66065 8.1174 5.74981 8.21261C5.83956 8.30847 5.97764 8.34622 6.17173 8.36207C6.3409 8.37588 6.56373 8.37356 6.85372 8.37055C6.89826 8.37008 6.94439 8.3696 6.99215 8.36916H6.99536C7.32193 8.36916 7.57097 8.36916 7.75888 8.34843C7.9471 8.32766 8.08484 8.28522 8.18002 8.19131C8.27523 8.09738 8.31914 7.96055 8.34198 7.7736C8.36448 7.58944 8.3675 7.34607 8.37144 7.02834L8.37164 7.01222ZM6.63266 6.63609H7.33197V7.37215L6.63266 7.36957V6.63609Z" fill="white" stroke="white" stroke-width="0.1"/>
<path d="M19.3588 8.36916H19.3589C19.4273 8.36909 19.4924 8.3692 19.5543 8.36931C19.8041 8.36973 20.0016 8.37007 20.1559 8.35788C20.3473 8.34276 20.4865 8.30777 20.5794 8.2172C20.6727 8.12628 20.7093 7.98945 20.7243 7.79995C20.7372 7.63665 20.7347 7.42379 20.7313 7.14972C20.7308 7.10437 20.7302 7.05734 20.7297 7.00859C20.7302 6.9424 20.7309 6.87931 20.7316 6.81919C20.7344 6.55509 20.7365 6.34834 20.725 6.18842C20.7109 5.9932 20.6758 5.85293 20.5832 5.76029C20.4906 5.66765 20.3508 5.63304 20.1578 5.61867C20.008 5.60752 19.8169 5.60824 19.5766 5.60916C19.5054 5.60943 19.43 5.60971 19.35 5.60971L19.3498 5.60971L19.3335 5.60977C19.0125 5.61084 18.7668 5.61166 18.5808 5.63234C18.3922 5.65333 18.254 5.69565 18.1591 5.78943C18.064 5.88335 18.0211 6.02012 18.0001 6.20701C17.9791 6.39353 17.9791 6.64095 17.9791 6.96525V6.96875C17.9791 7.06525 17.9786 7.1552 17.9781 7.23897C17.9769 7.45975 17.9759 7.63753 17.985 7.77886C17.9976 7.97264 18.0295 8.11362 18.1192 8.20806C18.2093 8.30294 18.3474 8.34022 18.541 8.35661C18.7029 8.37032 18.914 8.36991 19.1859 8.36938C19.241 8.36928 19.2986 8.36916 19.3588 8.36916ZM19.7181 6.6287V7.33836H18.9848V6.6287H19.7181Z" fill="white" stroke="white" stroke-width="0.1"/>
<path d="M6.96036 20.7392L6.96062 20.7392C7.04693 20.7387 7.128 20.7386 7.20409 20.7386C7.43973 20.7384 7.62761 20.7382 7.77558 20.7271C7.97018 20.7124 8.11091 20.6783 8.20469 20.5873C8.29879 20.4959 8.33521 20.3573 8.35093 20.1642C8.36373 20.007 8.36321 19.8036 8.36256 19.544C8.3624 19.4831 8.36224 19.4192 8.36224 19.3521C8.36224 19.2917 8.36236 19.234 8.36247 19.1788C8.36301 18.9152 8.36343 18.7088 8.35035 18.5493C8.33462 18.3574 8.29872 18.219 8.20728 18.1274C8.11567 18.0355 7.97854 18.0008 7.78983 17.987C7.63619 17.9757 7.43871 17.978 7.18807 17.9808C7.1294 17.9814 7.06781 17.9821 7.00319 17.9827C6.93295 17.9821 6.86619 17.9813 6.80275 17.9806C6.54685 17.9778 6.34512 17.9756 6.18801 17.9866C5.993 18.0003 5.85202 18.0349 5.75811 18.1272C5.66409 18.2196 5.62765 18.3595 5.612 18.5537C5.5992 18.7126 5.59991 18.9176 5.60082 19.1787C5.60103 19.2385 5.60125 19.3011 5.60132 19.3669L5.60132 19.3669C5.60149 19.4495 5.60133 19.5271 5.60117 19.6001C5.60069 19.8293 5.60031 20.0127 5.61089 20.1574C5.62477 20.3471 5.65799 20.4855 5.7473 20.5785C5.83694 20.6718 5.97304 20.7091 6.16283 20.7258C6.32514 20.74 6.53712 20.7397 6.81064 20.7393C6.85863 20.7392 6.90851 20.7392 6.96036 20.7392ZM7.33144 19.7143H6.62178V18.9943H7.33144V19.7143Z" fill="white" stroke="white" stroke-width="0.1"/>
</svg>
