<svg width="25" height="17" viewBox="0 0 25 17" fill="none" xmlns="http://www.w3.org/2000/svg">
<path d="M15.2684 11.3637C15.1849 11.3637 15.1008 11.3438 15.0236 11.3039L12.2419 9.84135L9.46024 11.3039C9.28327 11.3968 9.06954 11.3811 8.90727 11.264C8.74552 11.1463 8.66465 10.9468 8.69826 10.7499L9.22971 7.65202L6.97893 5.45849C6.83609 5.3188 6.7841 5.11031 6.84607 4.92021C6.90804 4.73011 7.07241 4.59147 7.27039 4.56259L10.3803 4.11096L11.7709 1.29303C11.8596 1.11396 12.0424 1 12.2419 1C12.442 1 12.6248 1.11343 12.713 1.29303L14.1036 4.11096L17.214 4.56259C17.412 4.59147 17.5758 4.73011 17.6383 4.92021C17.6998 5.11031 17.6488 5.3188 17.5055 5.45849L15.2547 7.65202L15.7861 10.7499C15.8198 10.9468 15.7389 11.1463 15.5777 11.264C15.4858 11.3296 15.3771 11.3637 15.2684 11.3637ZM12.2419 8.72227C12.326 8.72227 12.41 8.74222 12.4861 8.78266L14.571 9.87864L14.1729 7.55749C14.1435 7.38735 14.2002 7.21352 14.3236 7.09274L16.0099 5.44903L13.6793 5.11031C13.5081 5.08563 13.3605 4.97798 13.2838 4.82306L12.2414 2.71145L11.199 4.82306C11.1223 4.97798 10.9748 5.08563 10.8036 5.11031L8.47297 5.44903L10.1592 7.09274C10.2826 7.21352 10.3393 7.38735 10.3105 7.55749L9.91239 9.87864L11.9967 8.78266C12.0739 8.74222 12.1579 8.72227 12.2419 8.72227Z" fill="black" stroke="black" stroke-width="0.3"/>
<path d="M5.00035 12.8993C4.91685 12.8993 4.83283 12.8794 4.75616 12.8389L3.385 12.1184L2.01385 12.8389C1.83635 12.9324 1.62261 12.9167 1.46087 12.799C1.29912 12.6814 1.21825 12.4824 1.25186 12.2854L1.51391 10.7594L0.404802 9.67756C0.261437 9.53787 0.209973 9.32938 0.27194 9.13981C0.333907 8.9497 0.498278 8.81106 0.695732 8.78218L2.22863 8.55899L2.91447 7.16946C3.0027 6.99039 3.18545 6.87695 3.385 6.87695C3.58508 6.87695 3.76783 6.99038 3.85606 7.16998L4.54085 8.55899L6.07375 8.78218C6.2712 8.81106 6.43557 8.94918 6.49754 9.13981C6.55951 9.32938 6.50804 9.53839 6.36468 9.67756L5.25557 10.7588L5.51762 12.2854C5.55123 12.4824 5.47088 12.6814 5.30914 12.799C5.21724 12.8652 5.10906 12.8993 5.00035 12.8993ZM1.89937 9.66863L2.44447 10.2001C2.5684 10.3203 2.62459 10.4947 2.59571 10.6648L2.46705 11.4147L3.14081 11.0608C3.29363 10.9799 3.4769 10.9799 3.62972 11.0608L4.30296 11.4147L4.1743 10.6648C4.14489 10.4947 4.2016 10.3209 4.32501 10.2001L4.87011 9.66863L4.11653 9.55887C3.94533 9.53366 3.79777 9.42653 3.7211 9.27109L3.38448 8.58945L3.04733 9.27162C2.97066 9.42653 2.8231 9.53366 2.65242 9.55887L1.89937 9.66863Z" fill="black" stroke="black" stroke-width="0.3"/>
<path d="M22.7232 12.8993C22.6397 12.8993 22.5557 12.8794 22.479 12.8389L21.1079 12.1184L19.7362 12.8389C19.5608 12.9324 19.3455 12.9172 19.1832 12.799C19.0215 12.6814 18.9406 12.4824 18.9747 12.2854L19.2368 10.7594L18.1271 9.67756C17.9843 9.53787 17.9328 9.32938 17.9943 9.13981C18.0557 8.9497 18.2206 8.81106 18.4186 8.78218L19.9515 8.55899L20.6379 7.16946C20.7261 6.99039 20.9088 6.87695 21.1084 6.87695C21.3085 6.87695 21.4912 6.99038 21.5789 7.16998L22.2642 8.55899L23.7971 8.78218C23.9951 8.81106 24.159 8.94918 24.2215 9.13981C24.2829 9.32938 24.232 9.53839 24.0886 9.67756L22.9795 10.7588L23.2415 12.2854C23.2751 12.4824 23.1943 12.6814 23.0331 12.799C22.9412 12.8652 22.8324 12.8993 22.7232 12.8993ZM19.6222 9.66863L20.1673 10.2001C20.2907 10.3203 20.3475 10.4947 20.318 10.6648L20.1894 11.4147L20.8637 11.0608C21.0165 10.9799 21.1987 10.9799 21.3526 11.0608L22.0258 11.4147L21.8972 10.6648C21.8678 10.4947 21.9245 10.3209 22.0479 10.2001L22.593 9.66863L21.8394 9.55887C21.6682 9.53366 21.5206 9.42653 21.444 9.27109L21.1068 8.58893L20.7697 9.27162C20.693 9.42653 20.5454 9.53366 20.3742 9.55887L19.6222 9.66863Z" fill="black" stroke="black" stroke-width="0.3"/>
<path d="M16.815 15.9319C16.6342 16.0403 16.4159 16.015 16.3195 15.8847C14.2084 13.0285 9.7909 13.0285 7.68019 15.8851C7.58387 16.0154 7.3655 16.0403 7.18513 15.9319C7.00515 15.8242 6.94413 15.6044 7.05696 15.4518C9.472 12.1828 14.527 12.1828 16.9428 15.4514C17.056 15.6044 16.995 15.8242 16.815 15.9319Z" fill="black" stroke="black" stroke-width="0.3"/>
</svg>
