<?xml version="1.0" encoding="UTF-8"?>
<svg width="58px" height="9px" viewBox="0 0 58 9" version="1.1" xmlns="http://www.w3.org/2000/svg" xmlns:xlink="http://www.w3.org/1999/xlink">
    <!-- Generator: Sketch 63.1 (92452) - https://sketch.com -->
    <title>red_star</title>
    <desc>Created with Sketch.</desc>
    <g id="Page-1" stroke="none" stroke-width="1" fill="none" fill-rule="evenodd">
        <g id="iPhone-11-Pro-Copy-27" transform="translate(-12.000000, -282.000000)" fill-rule="nonzero">
            <g id="red_star" transform="translate(12.000000, 282.000000)">
                <polygon id="Path-Copy-15" fill-opacity="0.0142045455" fill="#FFFFFF" points="1.77099141 9.06535 2.44298485 6.47494649 2.63327176 5.74149137 2.07871058 5.25021439 -2.91322522e-13 3.40871216 2.51085687 3.31336364 3.28123939 3.28410348 3.543946 2.52629377 4.41974516 5.41788836e-14 5.248138 2.50900575 5.50405578 3.28413084 6.28778924 3.31338187 8.89 3.4105358 6.81334199 5.25021439 6.26844956 5.73292942 6.44444917 6.45663724 7.07863856 9.06430141 5.11641844 7.57850746 4.45288488 7.07606986 3.78468591 7.5716962"></polygon>
                <polygon id="Path-Copy-14" fill-opacity="0.01" fill="#FFFFFF" points="38.6709914 9.06535 39.3429849 6.47494649 39.5332718 5.74149137 38.9787106 5.25021439 36.9 3.40871216 39.4108569 3.31336364 40.1812394 3.28410348 40.443946 2.52629377 41.3197452 5.41788836e-14 42.148138 2.50900575 42.4040558 3.28413084 43.1877892 3.31338187 45.79 3.4105358 43.713342 5.25021439 43.1684496 5.73292942 43.3444492 6.45663724 43.9786386 9.06430141 42.0164184 7.57850746 41.3528849 7.07606986 40.6846859 7.5716962"></polygon>
                <polygon id="Path-Copy-13" fill-opacity="0.0102436626" fill="#FFFFFF" points="14.0709914 9.06535 14.7429849 6.47494649 14.9332718 5.74149137 14.3787106 5.25021439 12.3 3.40871216 14.8108569 3.31336364 15.5812394 3.28410348 15.843946 2.52629377 16.7197452 5.5067062e-14 17.548138 2.50900575 17.8040558 3.28413084 18.5877892 3.31338187 21.19 3.4105358 19.113342 5.25021439 18.5684496 5.73292942 18.7444492 6.45663724 19.3786386 9.06430141 17.4164184 7.57850746 16.7528849 7.07606986 16.0846859 7.5716962"></polygon>
                <polygon id="Path-Copy-12" fill-opacity="0.01" fill="#FFFFFF" points="26.3709914 9.06535 27.0429849 6.47494649 27.2332718 5.74149137 26.6787106 5.25021439 24.6 3.40871216 27.1108569 3.31336364 27.8812394 3.28410348 28.143946 2.52629377 29.0197452 5.41788836e-14 29.848138 2.50900575 30.1040558 3.28413084 30.8877892 3.31338187 33.49 3.4105358 31.413342 5.25021439 30.8684496 5.73292942 31.0444492 6.45663724 31.6786386 9.06430141 29.7164184 7.57850746 29.0528849 7.07606986 28.3846859 7.5716962"></polygon>
                <polygon id="Path-Copy-11" fill="#DE0601" points="50.9709914 9.06535 51.6429849 6.47494649 51.8332718 5.74149137 51.2787106 5.25021439 49.2 3.40871216 51.7108569 3.31336364 52.4812394 3.28410348 52.743946 2.52629377 53.6197452 5.41788836e-14 54.448138 2.50900575 54.7040558 3.28413084 55.4877892 3.31338187 58.09 3.4105358 56.013342 5.25021439 55.4684496 5.73292942 55.6444492 6.45663724 56.2786386 9.06430141 54.3164184 7.57850746 53.6528849 7.07606986 52.9846859 7.5716962"></polygon>
            </g>
        </g>
    </g>
</svg>