<svg width="22" height="22" viewBox="0 0 22 22" fill="none" xmlns="http://www.w3.org/2000/svg">
<path d="M21.4016 20.3265H19.6746V15.2458V15.0958H19.5246H15.8016H15.6516V15.2458V20.3265H13.5823V3.12269V2.97269H13.4323H9.67849H9.52849V3.12269V20.3265H7.45925V10.3842V10.2342H7.30925H3.58618H3.43618V10.3842V20.3265H1.67464V0.599609V0.449609H1.52464H0.601562H0.451562V0.599609V21.3996V21.5496H0.601562H21.4016H21.5516V21.3996V20.4765V20.3265H21.4016ZM4.65925 20.3265V11.4573H6.23618V20.3265H4.65925ZM10.7516 20.3265V4.19576H12.3285V20.3265H10.7516ZM16.8746 20.3265V16.3188H18.4516V20.3265H16.8746Z" fill="black" stroke="black" stroke-width="0.3"/>
</svg>
