<?xml version="1.0" encoding="UTF-8"?>
<svg width="35px" height="30px" viewBox="0 0 35 30" version="1.1" xmlns="http://www.w3.org/2000/svg" xmlns:xlink="http://www.w3.org/1999/xlink">
    <!-- Generator: Sketch 63.1 (92452) - https://sketch.com -->
    <title>room</title>
    <desc>Created with Sketch.</desc>
    <g id="Page-1" stroke="none" stroke-width="1" fill="none" fill-rule="evenodd">
        <g id="room" fill-rule="nonzero">
            <rect id="Rectangle_202-Copy-4" fill-opacity="0.0157888986" fill="#FFFFFF" x="0" y="0" width="35" height="30"></rect>
            <path d="M25.3793103,3 L25.379,26.172 L27.0344828,26.1724138 L27.0344828,27 L25.379,26.999 L25.3793103,27 L9.65517241,27 L9.655,26.999 L8,27 L8,26.1724138 L9.655,26.172 L9.65517241,3 L25.3793103,3 Z M24.5517241,3.82758621 L10.4827586,3.82758621 L10.4827586,26.1724138 L11.724,26.172 L11.7241379,5.06896552 L23.3103448,5.06896552 L23.31,26.172 L24.5517241,26.1724138 L24.5517241,3.82758621 Z M22.4827586,5.89655172 L12.5517241,5.89655172 L12.5517241,26.1724138 L22.4827586,26.1724138 L22.4827586,5.89655172 Z M14.4137931,16.2413793 C14.9851222,16.2413793 15.4482759,16.704533 15.4482759,17.2758621 C15.4482759,17.8471911 14.9851222,18.3103448 14.4137931,18.3103448 C13.8424641,18.3103448 13.3793103,17.8471911 13.3793103,17.2758621 C13.3793103,16.704533 13.8424641,16.2413793 14.4137931,16.2413793 Z M14.4137931,17.0689655 C14.2995273,17.0689655 14.2068966,17.1615963 14.2068966,17.2758621 C14.2068966,17.3901279 14.2995273,17.4827586 14.4137931,17.4827586 C14.5280589,17.4827586 14.6206897,17.3901279 14.6206897,17.2758621 C14.6206897,17.1615963 14.5280589,17.0689655 14.4137931,17.0689655 Z" id="Combined-Shape" fill="#000000"></path>
        </g>
    </g>
</svg>