<svg width="22" height="22" viewBox="0 0 22 22" fill="none" xmlns="http://www.w3.org/2000/svg">
<path d="M10.996 19.6433C10.8153 19.6433 10.6338 19.5812 10.4868 19.4562C10.2967 19.2944 5.81801 15.449 3.94955 11.2548C3.77276 10.8588 3.95112 10.3936 4.34791 10.2176C4.74313 10.0416 5.20829 10.2192 5.38507 10.616C6.75146 13.6843 9.76709 16.6653 10.9826 17.7897C13.1277 15.7075 17.2818 11.0544 17.2818 8.03802C17.2818 4.47238 14.4618 1.57146 10.996 1.57146C7.53012 1.57146 4.71013 4.47238 4.71013 8.03802C4.71013 8.47174 4.35813 8.82375 3.9244 8.82375C3.49068 8.82375 3.13867 8.47174 3.13867 8.03802C3.13867 3.60572 6.66346 0 10.996 0C15.3285 0 18.8533 3.60572 18.8533 8.03802C18.8533 12.6833 11.8257 19.1632 11.5263 19.4374C11.3763 19.5741 11.1861 19.6433 10.996 19.6433Z" fill="black"/>
<path d="M11.0023 11.0007C9.26898 11.0007 7.85938 9.59109 7.85938 7.85776C7.85938 6.12444 9.26898 4.71484 11.0023 4.71484C12.7356 4.71484 14.1452 6.12444 14.1452 7.85776C14.1452 9.59109 12.7356 11.0007 11.0023 11.0007ZM11.0023 6.2863C10.1356 6.2863 9.43084 6.9911 9.43084 7.85776C9.43084 8.72443 10.1356 9.42922 11.0023 9.42922C11.869 9.42922 12.5738 8.72443 12.5738 7.85776C12.5738 6.9911 11.869 6.2863 11.0023 6.2863Z" fill="black"/>
<path d="M21.2147 22.0009H0.785734C0.506014 22.0009 0.246723 21.8524 0.106077 21.6096C-0.0345688 21.3668 -0.0353546 21.069 0.10372 20.8254L3.24664 15.3253C3.46193 14.9489 3.94201 14.8169 4.31838 15.033C4.69474 15.2483 4.82596 15.7284 4.61067 16.1047L2.13955 20.4294H19.8601L17.389 16.1047C17.1737 15.7284 17.3049 15.2483 17.6813 15.033C18.0577 14.8161 18.5377 14.9489 18.753 15.3253L21.8959 20.8254C22.035 21.069 22.0342 21.3668 21.8936 21.6096C21.7537 21.8524 21.4944 22.0009 21.2147 22.0009Z" fill="black"/>
</svg>
