<svg width="20" height="20" viewBox="0 0 20 20" fill="none" xmlns="http://www.w3.org/2000/svg">
<path d="M8.33268 3.33366C5.57126 3.33366 3.33268 5.57224 3.33268 8.33366C3.33268 11.0951 5.57126 13.3337 8.33268 13.3337C11.0941 13.3337 13.3327 11.0951 13.3327 8.33366C13.3327 5.57224 11.0941 3.33366 8.33268 3.33366ZM1.66602 8.33366C1.66602 4.65176 4.65078 1.66699 8.33268 1.66699C12.0146 1.66699 14.9993 4.65176 14.9993 8.33366C14.9993 9.87425 14.4768 11.2928 13.5992 12.4217L18.0886 16.9111C18.414 17.2365 18.414 17.7641 18.0886 18.0896C17.7632 18.415 17.2355 18.415 16.9101 18.0896L12.4207 13.6002C11.2918 14.4778 9.87327 15.0003 8.33268 15.0003C4.65078 15.0003 1.66602 12.0156 1.66602 8.33366Z" fill="#0D0D0D"/>
</svg>
