<svg width="59" height="65" viewBox="0 0 59 65" fill="none" xmlns="http://www.w3.org/2000/svg">
<path d="M29.5 6.83268C22.4123 6.83268 16.6667 12.5784 16.6667 19.666C16.6667 26.7537 22.4123 32.4994 29.5 32.4994C36.5877 32.4994 42.3333 26.7537 42.3333 19.666C42.3333 12.5784 36.5877 6.83268 29.5 6.83268ZM10.25 19.666C10.25 9.03454 18.8685 0.416016 29.5 0.416016C40.1315 0.416016 48.75 9.03454 48.75 19.666C48.75 30.2975 40.1315 38.916 29.5 38.916C18.8685 38.916 10.25 30.2975 10.25 19.666ZM16.6667 51.7494C11.3509 51.7494 7.04167 56.0586 7.04167 61.3744C7.04167 63.1463 5.60525 64.5827 3.83333 64.5827C2.06142 64.5827 0.625 63.1463 0.625 61.3744C0.625 52.5148 7.8071 45.3327 16.6667 45.3327H42.3333C51.1929 45.3327 58.375 52.5148 58.375 61.3744C58.375 63.1463 56.9386 64.5827 55.1667 64.5827C53.3947 64.5827 51.9583 63.1463 51.9583 61.3744C51.9583 56.0586 47.6491 51.7494 42.3333 51.7494H16.6667Z" fill="white"/>
</svg>
