<?xml version="1.0" encoding="UTF-8"?>
<svg width="16px" height="16px" viewBox="0 0 16 16" version="1.1" xmlns="http://www.w3.org/2000/svg" xmlns:xlink="http://www.w3.org/1999/xlink">
    <!-- Generator: Sketch 63.1 (92452) - https://sketch.com -->
    <title>selected</title>
    <desc>Created with Sketch.</desc>
    <g id="Page-1" stroke="none" stroke-width="1" fill="none" fill-rule="evenodd">
        <g id="iPhone-11-Pro-Copy-10" transform="translate(-20.000000, -441.000000)" fill="#40A90E" fill-rule="nonzero">
            <path d="M28,457 C23.58,457 20,453.42 20,449 C20,444.58 23.58,441 28,441 C32.42,441 36,444.58 36,449 C36,453.42 32.42,457 28,457 Z M32.2523186,446.504762 C31.9997728,446.27619 31.5999086,446.27619 31.3473628,446.504762 L27.3276756,450.238095 L25.5388096,448.561905 C25.2862638,448.333333 24.8863996,448.333333 24.6338538,448.561905 C24.381308,448.790476 24.381308,449.171429 24.6338538,449.4 L26.8857205,451.495238 C27.1382663,451.72381 27.5381304,451.72381 27.7906762,451.495238 L32.2733641,447.342857 C32.5048644,447.114286 32.5048644,446.733333 32.2523186,446.504762 Z" id="selected"></path>
        </g>
    </g>
</svg>