<svg width="25" height="24" viewBox="0 0 25 24" fill="none" xmlns="http://www.w3.org/2000/svg">
<path d="M1.83921 0.126154L23.485 10.4795C23.7035 10.5841 23.8879 10.7484 24.017 10.9533C24.1462 11.1583 24.2147 11.3956 24.2147 11.6378C24.2147 11.8801 24.1462 12.1174 24.017 12.3224C23.8879 12.5273 23.7035 12.6916 23.485 12.7962L1.83921 23.1495C1.61722 23.2559 1.36932 23.2963 1.12504 23.2658C0.880766 23.2353 0.650404 23.1352 0.461393 22.9775C0.272383 22.8198 0.132691 22.611 0.0589565 22.3762C-0.0147784 22.1413 -0.0194488 21.8902 0.0455015 21.6527L2.2111 13.7136C2.23761 13.6163 2.29218 13.5289 2.36799 13.4624C2.44381 13.3959 2.53752 13.3532 2.63744 13.3396L13.1264 11.9147C13.1702 11.9086 13.2116 11.8913 13.2467 11.8644C13.2818 11.8376 13.3093 11.8022 13.3268 11.7616L13.3453 11.6969C13.3534 11.6396 13.3418 11.5811 13.3126 11.5312C13.2833 11.4812 13.238 11.4426 13.184 11.4216L13.1275 11.4062L2.64874 9.98231C2.549 9.96853 2.45551 9.92573 2.3799 9.85925C2.30428 9.79276 2.24987 9.70552 2.22343 9.60836L0.0455015 1.62297C-0.0194488 1.38551 -0.0147784 1.1344 0.0589565 0.899524C0.132691 0.664651 0.272383 0.455922 0.461393 0.298197C0.650404 0.140471 0.880766 0.0403983 1.12504 0.00989623C1.36932 -0.0206058 1.61722 0.0197489 1.83921 0.126154Z" fill="#90C63E"/>
</svg>
