<svg width="140" height="102" viewBox="0 0 140 102" fill="none" xmlns="http://www.w3.org/2000/svg">
<path d="M138.999 20.0648C139.168 19.6379 139.145 19.1552 138.907 18.7527C138.629 18.2808 138.116 17.9993 137.567 18.0172L32.3618 36.8762C31.729 36.8973 31.1775 37.313 30.9834 37.9162C30.7893 38.5193 30.9947 39.1782 31.4972 39.5644L54.0214 49.3418L52.8393 58.8514L51.5343 70.5264C51.5127 71.0468 51.7613 71.5387 52.1914 71.8306C52.368 71.9499 52.5643 72.0279 52.767 72.0645C53.0593 72.1171 53.3662 72.0831 53.6461 71.9567L73.5 66.9519L72.8425 66.3457L90.8579 82.9538C91.1883 83.2684 91.6456 83.4149 92.0979 83.3521C92.5502 83.2893 92.9488 83.0228 93.181 82.6308L138.243 21.4009C138.734 21.1204 139.015 20.6082 138.999 20.0648ZM36.6406 39.7346L128.209 21.3296L55.8388 46.9543L36.6406 39.7346ZM64.5141 55.1351L64.517 55.1417C64.2342 55.2787 63.9939 55.4955 63.8424 55.7781L55.0128 64.1209L55.8388 58.9307L57.2111 49.6739L119.846 26.9655L64.5141 55.1351ZM56.7178 67.2947L65.5593 58.9307L70.5 64.1209L56.7178 67.2947ZM91.5599 79.4823L67.7737 56.8943L133.343 23.7855L91.5599 79.4823Z" fill="#282829"/>
<path d="M104 73.5645C112.284 73.5645 119 66.8487 119 58.5645C119 50.2802 112.284 43.5645 104 43.5645C95.7157 43.5645 89 50.2802 89 58.5645C89 66.8487 95.7157 73.5645 104 73.5645Z" fill="#90C63E" stroke="#282829" stroke-width="2" stroke-linejoin="round" stroke-dasharray="4 2"/>
<path d="M96 58.5645L101 63.5645L112 52.5645" fill="#90C63E"/>
<path d="M96 58.5645L101 63.5645L112 52.5645" stroke="#282829" stroke-width="2" stroke-linejoin="round"/>
<line x1="35.8757" y1="54.286" x2="15.8336" y2="60.6941" stroke="#90C63E" stroke-width="3" stroke-linecap="round"/>
<line x1="35.3633" y1="71.8152" x2="16.5567" y2="81.2524" stroke="#90C63E" stroke-width="3" stroke-linecap="round"/>
<line x1="64.9256" y1="78.0049" x2="49.9724" y2="88.403" stroke="#90C63E" stroke-width="3" stroke-linecap="round"/>
<circle cx="5.5" cy="63.0645" r="2" stroke="#90C63E"/>
<circle cx="88.5" cy="97.0645" r="3.5" stroke="#90C63E" stroke-width="2"/>
<path d="M4.30029 82.5899C4.20614 82.6702 4.13846 82.7783 4.10786 82.8999C4.06902 83.0543 4.09309 83.2177 4.17475 83.3543L5.66296 85.8433L3.17395 87.3315C3.03737 87.4132 2.93882 87.5457 2.89999 87.7C2.86116 87.8544 2.88522 88.0178 2.96688 88.1544C3.04855 88.2909 3.18112 88.3895 3.33544 88.4283C3.48976 88.4672 3.65318 88.4431 3.78976 88.3614L6.27878 86.8732L7.76699 89.3622C7.84866 89.4988 7.98123 89.5974 8.13555 89.6362C8.28987 89.675 8.45329 89.651 8.58987 89.5693C8.72645 89.4876 8.82499 89.3551 8.86383 89.2007C8.90266 89.0464 8.8786 88.883 8.79693 88.7464L7.30872 86.2574L9.79774 84.7692C9.93431 84.6875 10.0329 84.5549 10.0717 84.4006C10.1105 84.2463 10.0865 84.0829 10.0048 83.9463C9.92314 83.8097 9.79056 83.7112 9.63624 83.6724C9.48192 83.6335 9.3185 83.6576 9.18192 83.7392L6.6929 85.2275L5.20469 82.7384C5.12302 82.6019 4.99045 82.5033 4.83613 82.4645C4.68181 82.4257 4.51839 82.4497 4.38181 82.5314L4.29598 82.5827L4.30029 82.5899Z" fill="#90C63E" stroke="#90C63E" stroke-width="0.2"/>
<path d="M41.9 93.4751C41.8113 93.4942 41.7292 93.5385 41.6641 93.6036C41.575 93.6927 41.525 93.8135 41.525 93.9395V96.0895H39.375C39.249 96.0895 39.1282 96.1395 39.0391 96.2286C38.95 96.3177 38.9 96.4385 38.9 96.5645C38.9 96.6904 38.95 96.8112 39.0391 96.9003C39.1282 96.9894 39.249 97.0395 39.375 97.0395H41.525V99.1895C41.525 99.3154 41.575 99.4362 41.6641 99.5253C41.7532 99.6144 41.874 99.6645 42 99.6645C42.126 99.6645 42.2468 99.6144 42.3359 99.5253C42.425 99.4362 42.475 99.3154 42.475 99.1895V97.0395H44.625C44.751 97.0395 44.8718 96.9894 44.9609 96.9003C45.05 96.8112 45.1 96.6904 45.1 96.5645C45.1 96.4385 45.05 96.3177 44.9609 96.2286C44.8718 96.1395 44.751 96.0895 44.625 96.0895H42.475V93.9395C42.475 93.8135 42.425 93.6927 42.3359 93.6036C42.2468 93.5145 42.126 93.4645 42 93.4645H41.9V93.4751Z" fill="#90C63E" stroke="#90C63E" stroke-width="0.2"/>
</svg>
