<svg width="260" height="227" viewBox="0 0 260 227" fill="none" xmlns="http://www.w3.org/2000/svg">
<path d="M214.431 50.3429L219.512 43.9906L224.135 47.6851L214.431 50.3429Z" fill="#90C63E"/>
<path d="M231.303 58.6158L219.818 45.9181L214.532 50.1615L216.447 42.8517L206.85 35.3376L250.231 26.384L231.303 58.6158Z" fill="#EFF7E4"/>
<path d="M216.315 43.2175L214.473 50.3566L219.884 46.3743L250.245 26.3875L216.315 43.2175Z" fill="#90C63E"/>
<path d="M212.036 54.1489C191.228 66.6525 182.76 94.5618 185.368 117.552C185.639 119.946 186.022 122.416 187.31 124.459C188.598 126.501 191.019 128.011 193.378 127.519C196.931 126.778 198.221 121.859 196.486 118.669C194.751 115.479 191.147 113.798 187.668 112.764C173.948 108.691 158.398 111.736 147.016 120.399C135.635 129.062 128.592 143.065 128.069 157.372C127.841 163.654 128.947 170.308 132.937 175.169C136.926 180.03 144.381 182.383 149.774 179.16C156.52 175.128 156.741 165.351 154.492 157.813C147.536 134.542 124.195 117.75 99.9389 116.762C75.6824 115.774 51.868 129.654 39.119 150.31C36.1967 155.042 33.7515 160.815 35.6618 166.038C37.6347 171.438 43.7433 174.337 49.4818 174.603C61.3352 175.157 72.3027 166.594 77.2611 155.811C85.7558 137.332 77.4969 113.323 60.16 102.672C42.8232 92.0204 18.8069 94.8508 3.3567 108.07" stroke="#A6AEC1" stroke-miterlimit="10" stroke-linecap="round" stroke-linejoin="round" stroke-dasharray="5 5"/>
<path d="M70.3867 102.097L131.063 56.9355L192.2 105.31L134.19 139.847L102.695 132.637L70.3867 102.097Z" fill="#F5F5F5"/>
<path d="M131 127L66.5 100C65.5 100 65.1667 101.53 65 102.045V172C65 173.2 66.3333 173.833 67 174H186.5H195C196.2 174 196.833 172.667 197 172V165.5V159.5V154V147.5V142V136V132V127.5V122V116.375V103V101.5C196.6 100.7 195.833 100.167 195.5 100L195 100.5L169 111.5H168.5L150 119.5L134.5 126.5C134.167 126.667 133.3 127 132.5 127H131Z" fill="#E0E0E0"/>
<path d="M195.841 100.508C195.794 100.508 195.748 100.493 195.709 100.466L131.664 55.6726C131.469 55.5369 131.237 55.4644 131 55.4648C130.763 55.4652 130.532 55.5385 130.337 55.6749L66.7533 100.466C66.703 100.501 66.6408 100.515 66.5803 100.505C66.5198 100.494 66.4659 100.46 66.4307 100.409C66.3954 100.359 66.3815 100.296 66.3922 100.235C66.4028 100.174 66.437 100.12 66.4873 100.085L130.071 55.294C130.343 55.1031 130.667 55.0006 130.999 55C131.331 54.9995 131.656 55.101 131.928 55.2909L195.974 100.085C196.014 100.113 196.045 100.153 196.06 100.2C196.076 100.247 196.077 100.298 196.062 100.345C196.047 100.392 196.018 100.434 195.978 100.463C195.939 100.492 195.89 100.508 195.841 100.508L195.841 100.508Z" fill="#3F3D56"/>
<path d="M105.354 161.176H75.3788C75.1947 161.176 75.0124 161.14 74.8423 161.07C74.6722 160.999 74.5176 160.895 74.3874 160.765C74.2571 160.634 74.1538 160.479 74.0833 160.308C74.0128 160.138 73.9766 159.955 73.9766 159.77C73.9766 159.585 74.0128 159.402 74.0833 159.231C74.1538 159.06 74.2571 158.905 74.3874 158.775C74.5176 158.644 74.6722 158.54 74.8423 158.47C75.0124 158.399 75.1947 158.363 75.3788 158.363H105.354C105.539 158.363 105.721 158.399 105.891 158.47C106.061 158.54 106.216 158.644 106.346 158.775C106.476 158.905 106.579 159.06 106.65 159.231C106.72 159.402 106.757 159.585 106.757 159.77C106.757 159.955 106.72 160.138 106.65 160.308C106.579 160.479 106.476 160.634 106.346 160.765C106.216 160.895 106.061 160.999 105.891 161.07C105.721 161.14 105.539 161.176 105.354 161.176Z" fill="#90C63E"/>
<path d="M86.1334 155.131H75.3788C75.1947 155.131 75.0124 155.095 74.8423 155.025C74.6722 154.954 74.5176 154.851 74.3874 154.72C74.2571 154.589 74.1538 154.434 74.0833 154.263C74.0128 154.093 73.9766 153.91 73.9766 153.725C73.9766 153.54 74.0128 153.357 74.0833 153.186C74.1538 153.015 74.2571 152.86 74.3874 152.73C74.5176 152.599 74.6722 152.495 74.8423 152.425C75.0124 152.354 75.1947 152.318 75.3788 152.318H86.1334C86.3175 152.318 86.4998 152.354 86.6699 152.425C86.84 152.495 86.9946 152.599 87.1248 152.73C87.2551 152.86 87.3584 153.015 87.4289 153.186C87.4994 153.357 87.5356 153.54 87.5356 153.725C87.5356 153.91 87.4994 154.093 87.4289 154.263C87.3584 154.434 87.2551 154.589 87.1248 154.72C86.9946 154.851 86.84 154.954 86.6699 155.025C86.4998 155.095 86.3175 155.131 86.1334 155.131Z" fill="#90C63E"/>
<path d="M131.917 127.25C131.69 127.251 131.464 127.206 131.253 127.12L93.832 111.526V62.7159C93.8325 62.2843 94.0035 61.8705 94.3074 61.5653C94.6113 61.2601 95.0233 61.0884 95.4531 61.0879H167.243C167.672 61.0884 168.084 61.2601 168.388 61.5653C168.692 61.8705 168.863 62.2843 168.864 62.7159V111.56L168.793 111.59L132.602 127.112C132.385 127.204 132.153 127.251 131.917 127.25Z" fill="white"/>
<path d="M131.916 127.368C131.673 127.368 131.432 127.321 131.208 127.228L93.7148 111.605V62.7169C93.7154 62.2545 93.8985 61.8111 94.2241 61.4841C94.5497 61.1571 94.9912 60.9732 95.4517 60.9727H167.241C167.702 60.9732 168.143 61.1571 168.469 61.4841C168.794 61.8111 168.977 62.2545 168.978 62.7169V111.638L132.646 127.22C132.415 127.318 132.167 127.368 131.916 127.368ZM94.178 111.294L131.384 126.798C131.731 126.94 132.12 126.937 132.465 126.792L168.515 111.331V62.7169C168.514 62.3778 168.38 62.0527 168.141 61.8129C167.903 61.5731 167.579 61.4382 167.241 61.4378H95.4517C95.114 61.4382 94.7903 61.5731 94.5515 61.8129C94.3127 62.0527 94.1784 62.3778 94.178 62.7169L94.178 111.294Z" fill="#3F3D56"/>
<path d="M195.379 100.043H195.333L168.747 111.444L132.373 127.042C132.231 127.102 132.079 127.133 131.924 127.134C131.77 127.135 131.617 127.105 131.475 127.047L93.9474 111.411L66.709 100.062L66.6674 100.043H66.6211C66.1913 100.043 65.7792 100.215 65.4753 100.52C65.1714 100.826 65.0005 101.239 65 101.671V172.372C65.0005 172.804 65.1714 173.218 65.4753 173.523C65.7792 173.828 66.1913 174 66.6211 174H195.379C195.809 174 196.221 173.828 196.525 173.523C196.829 173.218 197 172.804 197 172.372V101.671C197 101.239 196.829 100.826 196.525 100.52C196.221 100.215 195.809 100.043 195.379 100.043ZM196.537 172.372C196.537 172.68 196.415 172.976 196.198 173.194C195.98 173.412 195.686 173.535 195.379 173.535H66.6211C66.314 173.535 66.0196 173.412 65.8024 173.194C65.5853 172.976 65.4633 172.68 65.4632 172.372V101.671C65.4636 101.37 65.5797 101.081 65.7873 100.865C65.9949 100.648 66.2779 100.52 66.5771 100.508L93.9474 111.913L131.296 127.477C131.701 127.642 132.154 127.64 132.556 127.47L168.747 111.948L195.425 100.508C195.724 100.521 196.006 100.649 196.213 100.866C196.42 101.082 196.536 101.371 196.537 101.671V172.372Z" fill="#3F3D56"/>
<path d="M131.543 113.41C130.162 113.413 128.817 112.964 127.711 112.132L127.643 112.08L113.213 100.985C112.545 100.471 111.984 99.8292 111.562 99.0972C111.141 98.3653 110.867 97.5572 110.757 96.719C110.646 95.8809 110.701 95.029 110.918 94.2122C111.136 93.3954 111.511 92.6295 112.023 91.9584C112.535 91.2872 113.174 90.724 113.903 90.3007C114.631 89.8774 115.436 89.6025 116.271 89.4915C117.105 89.3806 117.954 89.4358 118.767 89.654C119.58 89.8723 120.343 90.2493 121.011 90.7635L130.358 97.961L152.445 69.0325C152.958 68.3615 153.596 67.7984 154.325 67.3754C155.054 66.9524 155.859 66.6777 156.694 66.5671C157.528 66.4564 158.377 66.512 159.19 66.7305C160.003 66.9491 160.766 67.3264 161.434 67.8409L161.296 68.0281L161.437 67.8436C162.785 68.8838 163.667 70.4184 163.889 72.1106C164.111 73.8029 163.656 75.5147 162.624 76.8704L136.643 110.897C136.043 111.681 135.27 112.316 134.385 112.752C133.501 113.188 132.528 113.413 131.543 113.41Z" fill="#90C63E"/>
</svg>
