<svg width="19" height="17" viewBox="0 0 19 17" fill="none" xmlns="http://www.w3.org/2000/svg">
<path d="M12.8246 0.460414C12.9592 0.408599 13.1073 0.394966 13.2502 0.421237C13.3931 0.447509 13.5244 0.512506 13.6275 0.608008L18.7836 5.39116C18.8522 5.45463 18.9066 5.53004 18.9438 5.61305C18.9809 5.69607 19 5.78506 19 5.87494C19 5.96482 18.9809 6.05382 18.9438 6.13683C18.9066 6.21985 18.8522 6.29525 18.7836 6.35872L13.6275 11.1419C13.5245 11.2377 13.3931 11.303 13.25 11.3294C13.107 11.3559 12.9587 11.3424 12.8239 11.2905C12.6892 11.2387 12.574 11.151 12.4931 11.0384C12.4122 10.9258 12.3691 10.7934 12.3694 10.6581V8.61227C11.5046 8.62594 10.634 8.6806 9.71767 8.92386C8.55681 9.23135 7.28399 9.85043 5.89331 11.1419C5.78591 11.2421 5.64763 11.309 5.49754 11.3334C5.34744 11.3577 5.19291 11.3382 5.05523 11.2776C4.91756 11.2171 4.80352 11.1184 4.72882 10.9952C4.65413 10.872 4.62245 10.7304 4.63816 10.5898C4.86798 8.45784 5.54859 6.58012 6.93927 5.23263C8.21504 3.99311 10.0123 3.27974 12.3694 3.15948V1.09179C12.3694 0.956577 12.4127 0.824411 12.4937 0.712019C12.5747 0.599628 12.6899 0.512065 12.8246 0.460414ZM2.05716 5.19163C2.05716 4.64796 2.28997 4.12656 2.70439 3.74212C3.1188 3.35769 3.68086 3.14171 4.26692 3.14171H5.7401C5.93546 3.14171 6.12281 3.06972 6.26095 2.94158C6.39908 2.81343 6.47669 2.63963 6.47669 2.45841C6.47669 2.27718 6.39908 2.10338 6.26095 1.97523C6.12281 1.84709 5.93546 1.7751 5.7401 1.7751H4.26692C3.29015 1.7751 2.35338 2.13505 1.66269 2.77578C0.972007 3.4165 0.583984 4.28551 0.583984 5.19163V13.3913C0.583984 14.2974 0.972007 15.1665 1.66269 15.8072C2.35338 16.4479 3.29015 16.8079 4.26692 16.8079H13.106C14.0828 16.8079 15.0195 16.4479 15.7102 15.8072C16.4009 15.1665 16.7889 14.2974 16.7889 13.3913V12.0247C16.7889 11.8435 16.7113 11.6697 16.5732 11.5415C16.435 11.4134 16.2477 11.3414 16.0523 11.3414C15.857 11.3414 15.6696 11.4134 15.5315 11.5415C15.3933 11.6697 15.3157 11.8435 15.3157 12.0247V13.3913C15.3157 13.935 15.0829 14.4564 14.6685 14.8408C14.2541 15.2253 13.692 15.4412 13.106 15.4412H4.26692C3.68086 15.4412 3.1188 15.2253 2.70439 14.8408C2.28997 14.4564 2.05716 13.935 2.05716 13.3913V5.19163Z" fill="#A6AEC1"/>
</svg>
