<svg width="26" height="23" viewBox="0 0 26 23" fill="none" xmlns="http://www.w3.org/2000/svg">
<path d="M23.526 1.55653L25.0259 7.55608C25.0259 7.55614 25.026 7.55621 25.026 7.55627L25.026 7.55637L24.9775 7.5685C24.9925 7.627 25 7.6885 25 7.75C25 9.007 24.4045 10.1155 23.5 10.7965L23.526 1.55653ZM23.526 1.55653C23.526 1.5565 23.526 1.55647 23.526 1.55645C23.4379 1.19948 23.1163 0.95 22.75 0.95H3.25C2.88371 0.95 2.56206 1.19948 2.47398 1.55644C2.47397 1.55647 2.47396 1.5565 2.47395 1.55653L0.974067 7.55608C0.974053 7.55613 0.97404 7.55619 0.974027 7.55624C0.957969 7.61892 0.95 7.68455 0.95 7.75C0.95 9.01378 1.54441 10.1299 2.45 10.8213V21.25C2.45 21.6916 2.80839 22.05 3.25 22.05H10.75C11.1916 22.05 11.55 21.6916 11.55 21.25V16.05H14.45V21.25C14.45 21.6916 14.8084 22.05 15.25 22.05H22.75C23.1916 22.05 23.55 21.6916 23.55 21.25V10.8213L23.526 1.55653ZM21.95 20.45H16.05V15.25C16.05 14.8084 15.6916 14.45 15.25 14.45H10.75C10.3084 14.45 9.95 14.8084 9.95 15.25V20.45H4.05V11.4991C4.21621 11.5266 4.38657 11.55 4.5625 11.55C5.69944 11.55 6.7127 10.9958 7.375 10.1326C8.03731 10.9958 9.05056 11.55 10.1875 11.55C11.3244 11.55 12.3377 10.9958 13 10.1326C13.6623 10.9958 14.6756 11.55 15.8125 11.55C16.9494 11.55 17.9627 10.9958 18.625 10.1326C19.2873 10.9958 20.3006 11.55 21.4375 11.55C21.6134 11.55 21.7838 11.5266 21.95 11.4991V20.45ZM21.4375 9.95C20.3321 9.95 19.425 8.96707 19.425 7.75C19.425 7.30839 19.0666 6.95 18.625 6.95C18.1834 6.95 17.825 7.30839 17.825 7.75C17.825 8.96707 16.9179 9.95 15.8125 9.95C14.7071 9.95 13.8 8.96707 13.8 7.75C13.8 7.30839 13.4416 6.95 13 6.95C12.5584 6.95 12.2 7.30839 12.2 7.75C12.2 8.96707 11.2929 9.95 10.1875 9.95C9.08212 9.95 8.175 8.96707 8.175 7.75C8.175 7.30839 7.81661 6.95 7.375 6.95C6.93339 6.95 6.575 7.30839 6.575 7.75C6.575 8.96707 5.66788 9.95 4.5625 9.95C3.48548 9.95 2.59621 9.01613 2.55173 7.84226L3.87553 2.55H22.126L23.4498 7.84223C23.4038 9.01614 22.5145 9.95 21.4375 9.95Z" fill="#90C63E" stroke="#90C63E" stroke-width="0.1"/>
</svg>
