<?xml version="1.0" encoding="UTF-8"?>
<svg width="35px" height="30px" viewBox="0 0 35 30" version="1.1" xmlns="http://www.w3.org/2000/svg" xmlns:xlink="http://www.w3.org/1999/xlink">
    <!-- Generator: Sketch 63.1 (92452) - https://sketch.com -->
    <title>shower</title>
    <desc>Created with Sketch.</desc>
    <g id="Page-1" stroke="none" stroke-width="1" fill="none" fill-rule="evenodd">
        <g id="shower" fill-rule="nonzero">
            <rect id="Rectangle_202-Copy-3" fill-opacity="0.017701049" fill="#FFFFFF" x="0" y="0" width="35" height="30"></rect>
            <path d="M27.3523544,27 C27.2260371,27 27.1133993,26.9112286 27.0880776,26.7822918 L25.1444207,16.9670867 C25.1156064,16.8206866 25.210781,16.6789435 25.35689,16.6498381 C25.5027079,16.6210238 25.6447421,16.7161984 25.6744296,16.8620163 L27.6175043,26.6775125 C27.6466097,26.8236214 27.5514351,26.9656557 27.4053262,26.99447 C27.3875719,26.9982537 27.3695266,27 27.3523544,27 Z M16.0504468,27 C16.0329835,27 16.0155203,26.9982537 15.997766,26.99447 C15.8516571,26.9656557 15.7564825,26.8236214 15.7855879,26.6775125 L17.7289537,16.8620163 C17.758059,16.7159073 17.9003843,16.6210238 18.0462022,16.6498381 C18.1926023,16.6789435 18.2874858,16.8206866 18.2583804,16.9670867 L16.3153057,26.7822918 C16.2896929,26.9112286 16.1767641,27 16.0504468,27 Z M24.3830242,27 C24.2424452,27 24.1239863,26.8911459 24.1140905,26.7491117 L23.4298232,16.9336155 C23.4196363,16.784596 23.531983,16.6559502 23.6804205,16.6454723 C23.8300221,16.6352854 23.9580857,16.7476322 23.9682726,16.8960696 L24.6522489,26.7112747 C24.6624358,26.8600032 24.5503801,26.989231 24.4019427,26.9994179 C24.3955395,26.9997089 24.3888452,27 24.3830242,27 Z M19.020068,27 C19.0139559,27 19.0075527,26.9997089 19.0011495,26.9994179 C18.8524211,26.989231 18.7403654,26.8600032 18.7508433,26.7112747 L19.4345286,16.8960696 C19.4450065,16.7473411 19.5739433,16.6352854 19.7226718,16.6454723 C19.8714002,16.6559502 19.9834559,16.784887 19.972978,16.9336155 L19.2892927,26.7491117 C19.2791059,26.8911459 19.160647,27 19.020068,27 Z M21.7015461,27 C21.5525266,27 21.4317393,26.8792127 21.4317393,26.7301932 L21.4317393,16.914697 C21.4317393,16.7653864 21.5525266,16.6445991 21.7015461,16.6445991 C21.8508567,16.6445991 21.971644,16.7653864 21.971644,16.914697 L21.971644,26.7301932 C21.9713529,26.8792127 21.8505656,27 21.7015461,27 Z M7.00595193,23.6784878 C7.00595193,20.900155 7.00595193,16.7326559 7.00595193,11.1759905 C6.9922724,10.9041463 6.85984295,7.39636668 9.08087401,5.04319723 C10.3606373,3.68746892 12.1561478,3 14.4173443,3 C16.9954982,3 18.9886342,3.70260372 20.3394146,5.0880195 C21.8071986,6.59276731 22.0706022,8.45056331 22.1165887,9.17674238 C25.2183484,9.37145733 27.6824093,11.9568877 27.6824093,15.1069622 C27.6824093,15.3197225 27.5095234,15.4917353 27.2973452,15.4917353 L16.1837494,15.4917353 C15.9712802,15.4917353 15.7989763,15.3197225 15.7989763,15.1069622 C15.7989763,11.964164 18.2516862,9.38309948 21.3438411,9.17819765 C21.2929067,8.5279836 21.0391078,6.90215744 19.7814646,5.61802835 C18.5805769,4.39152791 16.7757527,3.76983713 14.4176353,3.76983713 C12.3785128,3.76983713 10.7727694,4.37493785 9.64406299,5.56796711 C7.60901527,7.71972738 7.77316957,11.1102123 7.77520695,11.1439746 C7.775498,11.1509599 7.77578906,11.1585273 7.77578906,11.1658036 C7.77578906,16.7372302 7.77578906,20.9158001 7.77578906,23.7015134 C7.77578906,26.0868843 7.00595193,26.0715339 7.00595193,23.6784878 Z M16.582784,14.7224803 L26.8986016,14.7224803 C26.7006851,12.0494428 24.4630639,9.93522842 21.7405473,9.93522842 C19.0180307,9.93522842 16.7801185,12.0494428 16.582784,14.7224803 Z" id="Shape" fill="#000000"></path>
        </g>
    </g>
</svg>