<svg width="199" height="186" viewBox="0 0 199 186" fill="none" xmlns="http://www.w3.org/2000/svg">
<ellipse cx="92.7952" cy="93.421" rx="92.4358" ry="92.5294" fill="#90C63E" fill-opacity="0.05"/>
<ellipse cx="92.7963" cy="93.4209" rx="65.1791" ry="65.2451" fill="#90C63E" fill-opacity="0.1"/>
<ellipse cx="93.0328" cy="93.0784" rx="45.0328" ry="45.0784" fill="#90C63E" fill-opacity="0.15"/>
<path d="M13.3959 32.9209C13.3959 34.8875 11.8036 36.4797 9.84186 36.4797C7.88016 36.4797 6.28784 34.8875 6.28784 32.9209C6.28784 30.9543 7.88016 29.3621 9.84186 29.3621C11.8036 29.3621 13.3959 30.9543 13.3959 32.9209Z" stroke="#90C63E" stroke-width="2.37255"/>
<mask id="path-5-inside-1" fill="white">
<ellipse cx="195.897" cy="124.264" rx="2.37015" ry="2.37255"/>
</mask>
<path d="M195.895 124.264C195.895 124.267 195.895 124.268 195.895 124.267C195.895 124.266 195.896 124.265 195.896 124.264C195.897 124.263 195.897 124.263 195.895 124.265C195.893 124.267 195.893 124.266 195.895 124.265C195.896 124.265 195.898 124.264 195.899 124.264C195.901 124.264 195.9 124.264 195.897 124.264V129.009C198.519 129.009 200.64 126.883 200.64 124.264H195.895ZM195.897 124.264C195.895 124.264 195.894 124.264 195.896 124.264C195.897 124.264 195.899 124.265 195.9 124.265C195.902 124.266 195.902 124.267 195.9 124.265C195.898 124.263 195.898 124.263 195.899 124.264C195.899 124.265 195.9 124.266 195.9 124.267C195.9 124.268 195.9 124.267 195.9 124.264H191.155C191.155 126.883 193.276 129.009 195.897 129.009V124.264ZM195.9 124.264C195.9 124.261 195.9 124.26 195.9 124.261C195.9 124.262 195.899 124.263 195.899 124.264C195.898 124.266 195.898 124.265 195.9 124.263C195.902 124.262 195.902 124.262 195.9 124.263C195.899 124.263 195.897 124.264 195.896 124.264C195.894 124.264 195.895 124.264 195.897 124.264V119.519C193.276 119.519 191.155 121.646 191.155 124.264H195.9ZM195.897 124.264C195.9 124.264 195.901 124.264 195.899 124.264C195.898 124.264 195.896 124.263 195.895 124.263C195.893 124.262 195.893 124.262 195.895 124.263C195.897 124.265 195.897 124.266 195.896 124.264C195.896 124.263 195.895 124.262 195.895 124.261C195.895 124.26 195.895 124.261 195.895 124.264H200.64C200.64 121.646 198.519 119.519 195.897 119.519V124.264Z" fill="#90C63E" mask="url(#path-5-inside-1)"/>
<path d="M105.602 84.7546C105.76 84.9107 105.885 85.0963 105.97 85.3009C106.055 85.5054 106.099 85.7248 106.099 85.9464C106.099 86.168 106.055 86.3874 105.97 86.592C105.885 86.7965 105.76 86.9822 105.602 87.1382L90.4954 102.245C90.3385 102.401 90.1525 102.524 89.948 102.608C89.7435 102.691 89.5245 102.733 89.3036 102.732H89.2029C88.9679 102.717 88.7389 102.652 88.5307 102.542C88.3225 102.432 88.1397 102.279 87.9943 102.094L81.28 93.7014C81.1205 93.5324 80.9977 93.3321 80.9197 93.1131C80.8416 92.8942 80.8098 92.6614 80.8264 92.4296C80.8429 92.1978 80.9075 91.9719 81.0159 91.7663C81.1243 91.5607 81.2742 91.3798 81.4562 91.2352C81.6381 91.0906 81.8482 90.9853 82.0729 90.9261C82.2977 90.8668 82.5323 90.8549 82.7619 90.8911C82.9915 90.9273 83.2111 91.0107 83.4068 91.1362C83.6024 91.2617 83.7699 91.4264 83.8986 91.62L89.4379 98.5357L103.219 84.7546C103.375 84.5973 103.561 84.4724 103.765 84.3872C103.97 84.302 104.189 84.2581 104.411 84.2581C104.632 84.2581 104.852 84.302 105.056 84.3872C105.261 84.4724 105.446 84.5973 105.602 84.7546ZM117 93.5C117 98.1479 115.622 102.691 113.04 106.556C110.457 110.42 106.787 113.432 102.493 115.211C98.199 116.99 93.4739 117.455 88.9154 116.548C84.3568 115.642 80.1695 113.404 76.883 110.117C73.5965 106.83 71.3583 102.643 70.4516 98.0846C69.5448 93.5261 70.0102 88.801 71.7888 84.5069C73.5675 80.2129 76.5796 76.5427 80.4441 73.9605C84.3087 71.3783 88.8521 70 93.5 70C99.7326 70 105.71 72.4759 110.117 76.883C114.524 81.2901 117 87.2674 117 93.5ZM113.643 93.5C113.643 89.5161 112.461 85.6217 110.248 82.3092C108.035 78.9967 104.889 76.415 101.208 74.8904C97.5277 73.3659 93.4777 72.967 89.5703 73.7442C85.663 74.5214 82.0739 76.4398 79.2569 79.2568C76.4398 82.0739 74.5214 85.663 73.7442 89.5703C72.967 93.4776 73.3659 97.5277 74.8904 101.208C76.415 104.889 78.9968 108.035 82.3092 110.248C85.6217 112.461 89.5161 113.643 93.5 113.643C98.8422 113.643 103.966 111.521 107.743 107.743C111.521 103.966 113.643 98.8422 113.643 93.5Z" fill="#90C63E"/>
</svg>
