<svg width="308" height="172" viewBox="0 0 308 172" fill="none" xmlns="http://www.w3.org/2000/svg">
<path d="M300.152 66.4999L296.887 74.8535L299.202 75.7583L302.467 67.4047L300.152 66.4999Z" fill="#90C63E"/>
<path d="M96.1874 46.0156L94.3359 47.6738L100.32 54.3551L102.171 52.6969L96.1874 46.0156Z" fill="#0CBC8B"/>
<path d="M123.62 75.9188L116.441 81.2959L117.932 83.2854L125.11 77.9083L123.62 75.9188Z" fill="#90C63E"/>
<path d="M206.649 14.2153L204.945 16.0254L211.477 22.1721L213.181 20.362L206.649 14.2153Z" fill="#90C63E"/>
<path d="M159.15 16.2142L154.68 23.9902L156.834 25.229L161.305 17.4529L159.15 16.2142Z" fill="#0CBC8B"/>
<path d="M224.063 82.7117L221.961 84.0381L226.748 91.6232L228.849 90.2968L224.063 82.7117Z" fill="#0CBC8B"/>
<path d="M126.598 119.648L124.375 120.759L128.383 128.782L130.607 127.672L126.598 119.648Z" fill="#0CBC8B"/>
<path d="M94.0678 98.5366L91.4922 107.128L93.8727 107.842L96.4483 99.2502L94.0678 98.5366Z" fill="#367CFF"/>
<path d="M249.656 125.308L242.207 130.304L243.591 132.368L251.041 127.373L249.656 125.308Z" fill="#367CFF"/>
<path d="M250.775 -0.000446803L246.305 7.77539L248.459 9.0141L252.93 1.23827L250.775 -0.000446803Z" fill="#0CBC8B"/>
<path d="M2.31492 63.6147L0 64.5195L3.26519 72.8732L5.58011 71.9684L2.31492 63.6147Z" fill="#0CBC8B"/>
<path d="M242.615 53.2947L241.125 55.2842L248.304 60.6613L249.794 58.6718L242.615 53.2947Z" fill="#0CBC8B"/>
<path d="M40.9735 16.6482L34.4414 22.7949L36.1447 24.605L42.6768 18.4583L40.9735 16.6482Z" fill="#90C63E"/>
<path d="M113.323 9.32863L111.168 10.5674L115.638 18.3434L117.793 17.1047L113.323 9.32863Z" fill="#90C63E"/>
<path d="M25.435 106.96L20.6484 114.545L22.7504 115.871L27.537 108.286L25.435 106.96Z" fill="#0CBC8B"/>
<path d="M4.23597 127.738L2.85156 129.804L10.3049 134.8L11.6893 132.734L4.23597 127.738Z" fill="#90C63E"/>
<path d="M291.792 28.6861L289.637 29.9248L294.107 37.7007L296.262 36.4619L291.792 28.6861Z" fill="#90C63E"/>
<path d="M198.406 49.8764L192.422 56.5576L194.273 58.2158L200.257 51.5346L198.406 49.8764Z" fill="#90C63E"/>
<path d="M145.872 125.185L141.863 133.209L144.087 134.32L148.095 126.296L145.872 125.185Z" fill="#0CBC8B"/>
<path d="M178.404 104.075L176.023 104.789L178.599 113.38L180.98 112.667L178.404 104.075Z" fill="#90C63E"/>
<path d="M179.202 108.979L170.731 102.539C170.545 102.398 170.331 102.297 170.104 102.242C169.876 102.188 169.64 102.182 169.41 102.224C169.18 102.265 168.961 102.355 168.768 102.486C168.574 102.617 168.41 102.787 168.286 102.985C168.068 103.358 167.996 103.798 168.084 104.221C168.172 104.644 168.414 105.019 168.763 105.273L170.579 106.654L162.874 104.934C162.021 104.728 160.842 105.02 160.674 105.993C160.584 106.363 160.623 106.752 160.784 107.097C160.944 107.442 161.217 107.723 161.558 107.893C161.554 107.901 161.55 107.908 161.548 107.917C161.548 107.923 161.548 107.93 161.548 107.936L160.232 107.618C159.988 107.559 159.735 107.556 159.489 107.607C159.244 107.659 159.013 107.765 158.814 107.917C158.615 108.07 158.452 108.264 158.337 108.488C158.223 108.711 158.16 108.957 158.152 109.207C158.149 109.602 158.281 109.986 158.526 110.296C158.772 110.605 159.117 110.82 159.502 110.906L160.061 111.041C160.065 111.059 160.072 111.076 160.081 111.092C159.682 111.089 159.294 111.227 158.987 111.484C158.681 111.74 158.475 112.096 158.407 112.49C158.346 112.923 158.45 113.364 158.698 113.723C158.947 114.083 159.322 114.336 159.749 114.431L161.141 114.767C161.118 114.776 161.097 114.791 161.081 114.809C161.065 114.828 161.053 114.85 161.047 114.874C161.042 114.903 161.045 114.933 161.056 114.96C160.699 115.055 160.384 115.266 160.158 115.558C159.932 115.85 159.809 116.209 159.807 116.578C159.813 116.966 159.949 117.341 160.194 117.641C160.439 117.942 160.779 118.151 161.158 118.235L172.893 121.07C174.535 121.467 176.258 121.364 177.841 120.775C179.424 120.186 180.795 119.138 181.779 117.765C182.627 116.581 182.98 115.113 182.763 113.673C182.545 112.233 181.775 110.934 180.616 110.053L179.202 108.979Z" fill="#FBC8B4"/>
<g opacity="0.2">
<path opacity="0.2" d="M169.175 109.635C169.165 109.674 169.14 109.708 169.106 109.729C169.071 109.751 169.03 109.757 168.99 109.749L161.664 108.102C161.644 108.097 161.625 108.089 161.609 108.077C161.592 108.066 161.578 108.051 161.567 108.033C161.556 108.016 161.549 107.997 161.545 107.977C161.542 107.957 161.542 107.936 161.547 107.916C161.551 107.896 161.56 107.877 161.571 107.861C161.583 107.844 161.598 107.83 161.615 107.819C161.633 107.808 161.652 107.801 161.672 107.797C161.692 107.794 161.713 107.794 161.733 107.799L169.058 109.445C169.078 109.45 169.097 109.458 169.114 109.47C169.131 109.482 169.145 109.497 169.156 109.514C169.167 109.531 169.174 109.551 169.177 109.571C169.181 109.591 169.18 109.612 169.176 109.632L169.175 109.635Z" fill="#0C0C0C"/>
</g>
<g opacity="0.2">
<path opacity="0.2" d="M168.538 112.884C168.528 112.924 168.503 112.958 168.468 112.98C168.433 113.001 168.392 113.008 168.352 112.998L160.176 111.162C160.156 111.158 160.137 111.149 160.12 111.138C160.104 111.126 160.09 111.111 160.079 111.093C160.068 111.076 160.06 111.057 160.057 111.037C160.053 111.016 160.054 110.996 160.059 110.976C160.069 110.936 160.094 110.902 160.129 110.88C160.163 110.858 160.205 110.851 160.245 110.858L168.421 112.695C168.441 112.699 168.46 112.707 168.476 112.719C168.493 112.731 168.507 112.746 168.518 112.763C168.529 112.781 168.536 112.8 168.54 112.82C168.543 112.84 168.543 112.861 168.538 112.881V112.884Z" fill="#0C0C0C"/>
</g>
<g opacity="0.2">
<path opacity="0.2" d="M167.867 116.409C167.857 116.449 167.832 116.483 167.798 116.504C167.763 116.525 167.722 116.532 167.682 116.524L161.16 115.059C161.12 115.05 161.085 115.025 161.063 114.99C161.041 114.956 161.034 114.914 161.043 114.873C161.052 114.833 161.076 114.798 161.111 114.776C161.146 114.754 161.188 114.747 161.228 114.756L167.75 116.22C167.77 116.225 167.789 116.233 167.806 116.245C167.822 116.257 167.837 116.272 167.848 116.289C167.859 116.306 167.866 116.326 167.87 116.346C167.873 116.366 167.872 116.387 167.868 116.407L167.867 116.409Z" fill="#0C0C0C"/>
</g>
<path d="M138.989 64.6862L143.719 55.1541C143.823 54.9447 143.969 54.7592 144.149 54.6094C144.328 54.4596 144.537 54.3489 144.762 54.2843C144.986 54.2196 145.222 54.2025 145.454 54.2339C145.686 54.2654 145.908 54.3447 146.107 54.4669C146.469 54.7038 146.729 55.0663 146.838 55.4843C146.947 55.9023 146.897 56.3458 146.698 56.729L145.683 58.773L151.822 53.8104C152.495 53.2465 153.682 52.9853 154.264 53.7818C154.508 54.0737 154.646 54.4398 154.656 54.8203C154.665 55.2007 154.545 55.5731 154.316 55.8768C154.323 55.8818 154.329 55.8875 154.335 55.8939C154.338 55.8993 154.341 55.905 154.344 55.911L155.382 55.041C155.574 54.8801 155.8 54.7641 156.043 54.7016C156.286 54.639 156.539 54.6313 156.786 54.6792C157.032 54.7271 157.264 54.8293 157.466 54.9784C157.667 55.1275 157.833 55.3197 157.951 55.5409C158.13 55.8932 158.182 56.296 158.099 56.6822C158.017 57.0684 157.804 57.4145 157.496 57.6626L157.055 58.0326C157.06 58.0503 157.061 58.0687 157.059 58.087C157.416 57.9063 157.825 57.8582 158.213 57.9514C158.602 58.0446 158.944 58.2729 159.18 58.5956C159.427 58.9563 159.53 59.3971 159.466 59.8299C159.403 60.2627 159.179 60.6556 158.838 60.9304L157.741 61.8491C157.766 61.8469 157.791 61.8507 157.814 61.8601C157.837 61.8695 157.857 61.8842 157.873 61.9031C157.891 61.9266 157.902 61.9548 157.904 61.9842C158.266 61.9113 158.642 61.9594 158.974 62.1211C159.306 62.2829 159.576 62.5493 159.742 62.8793C159.909 63.2294 159.953 63.6257 159.867 64.004C159.781 64.3822 159.57 64.7204 159.267 64.9637L150.012 72.7164C148.717 73.8011 147.128 74.4743 145.448 74.6499C143.768 74.8254 142.074 74.4952 140.583 73.7016C139.298 73.0175 138.33 71.8591 137.885 70.4726C137.44 69.0862 137.553 67.5808 138.2 66.2763L138.989 64.6862Z" fill="#FBC8B4"/>
<g opacity="0.2">
<path opacity="0.2" d="M148.262 60.8188C148.288 60.8501 148.326 60.8698 148.367 60.8736C148.407 60.8774 148.448 60.865 148.479 60.839L154.312 56.111C154.344 56.0851 154.365 56.0475 154.369 56.0065C154.373 55.9655 154.361 55.9245 154.335 55.8925C154.309 55.8605 154.271 55.8401 154.23 55.8358C154.189 55.8315 154.148 55.8437 154.116 55.8697L148.284 60.5976C148.252 60.6235 148.232 60.6609 148.227 60.7016C148.223 60.7424 148.235 60.7831 148.261 60.8151L148.262 60.8188Z" fill="#0C0C0C"/>
</g>
<g opacity="0.2">
<path opacity="0.2" d="M150.279 63.448C150.305 63.4793 150.343 63.4989 150.383 63.5026C150.424 63.5063 150.465 63.4938 150.496 63.4679L157.006 58.1915C157.037 58.1656 157.058 58.1282 157.062 58.0875C157.066 58.0467 157.054 58.006 157.028 57.9741C157.002 57.9435 156.965 57.9241 156.924 57.9198C156.884 57.9156 156.843 57.9267 156.811 57.9511L150.299 63.2265C150.268 63.2524 150.247 63.2898 150.243 63.3305C150.239 63.3712 150.251 63.412 150.276 63.4439L150.279 63.448Z" fill="#0C0C0C"/>
</g>
<g opacity="0.2">
<path opacity="0.2" d="M152.447 66.3104C152.473 66.3417 152.511 66.3614 152.551 66.3652C152.592 66.369 152.633 66.3566 152.664 66.3306L157.857 62.1218C157.889 62.0958 157.909 62.0582 157.913 62.0172C157.918 61.9763 157.905 61.9352 157.88 61.9032C157.854 61.8712 157.816 61.8508 157.775 61.8465C157.734 61.8423 157.693 61.8544 157.661 61.8804L152.467 66.0892C152.436 66.1151 152.415 66.1525 152.411 66.1932C152.407 66.234 152.419 66.2747 152.444 66.3067L152.447 66.3104Z" fill="#0C0C0C"/>
</g>
<path d="M32.8381 56.5128C32.8381 56.5128 32.1711 66.5215 29.9196 70.1518C23.4368 80.6057 21.5588 92.3657 28.0505 98.5101C34.5422 104.654 75.9486 104.74 79.0855 90.6079C81.7264 78.7102 76.0592 77.4308 74.68 67.6173C74.0562 63.1764 72.3397 53.8643 72.3397 53.8643" fill="#0A0A0A"/>
<path d="M68.3675 88.5356C68.2961 88.5263 67.5029 101.687 52.2139 100.54C41.6295 99.7466 37.8556 88.5163 37.6133 88.5163C38.7544 88.2737 40.676 87.9211 41.1827 87.6505C42.8495 86.7551 44.9109 85.823 45.449 82.5863C45.7597 80.7222 45.2331 71.1774 45.395 69.2891L61.6419 72.9166C61.4147 76.903 59.8259 86.144 65.3949 87.7794C66.3214 88.0506 67.3196 88.2995 68.3675 88.5356Z" fill="#FBC8B4"/>
<path opacity="0.5" d="M61.8723 84.0031C61.6178 83.1829 61.454 82.3374 61.3836 81.4816C61.2051 79.5286 61.2407 77.562 61.4899 75.6168C58.1879 75.171 55.0771 73.808 52.5111 71.6826C52.2094 72.7967 50.5501 77.6651 51.0096 78.7239C51.8773 80.7257 55.9575 84.0031 61.8723 84.0031Z" fill="#0C0C0C"/>
<path d="M59.7702 79.9029C53.3645 80.5243 45.0767 77.9606 43.3599 69.4301L41.8108 61.7332C40.094 53.2031 43.1825 45.3863 51.214 43.7698C59.2458 42.1543 66.6406 47.86 68.3575 56.3904L69.0435 59.798C69.7021 63.071 71.1987 78.7969 59.7702 79.9029Z" fill="#FBC8B4"/>
<path opacity="0.1" d="M55.6959 68.7255C56.75 68.5997 57.5297 67.871 57.4375 67.0978C57.3452 66.3246 56.4159 65.7998 55.3618 65.9256C54.3077 66.0514 53.5279 66.7801 53.6202 67.5533C53.7124 68.3264 54.6417 68.8513 55.6959 68.7255Z" fill="#0C0C0C"/>
<path opacity="0.1" d="M66.8354 65.6341C66.9286 66.4062 67.8591 66.9303 68.9133 66.806C69.0954 66.7842 69.2748 66.7435 69.4486 66.6846C69.4976 65.764 69.5004 64.8785 69.4737 64.0587C69.1809 63.9854 68.877 63.9676 68.5777 64.0061C67.5236 64.1304 66.7441 64.859 66.8354 65.6341Z" fill="#0C0C0C"/>
<path opacity="0.5" d="M62.1793 68.0202C62.1845 68.0197 62.1897 68.0188 62.1948 68.0177C62.5204 67.9499 62.8419 67.8641 63.158 67.7608C63.6296 67.6029 64.2454 67.3438 64.1608 66.9173C64.0633 66.4313 61.6754 61.4551 61.4045 60.89C61.3934 60.8645 61.3772 60.8415 61.357 60.8223C61.3368 60.8032 61.313 60.7883 61.2869 60.7786C61.2609 60.7689 61.2331 60.7646 61.2053 60.7658C61.1775 60.7671 61.1503 60.774 61.1252 60.786C61.1001 60.798 61.0777 60.815 61.0593 60.8359C61.041 60.8568 61.027 60.8812 61.0183 60.9076C61.0095 60.934 61.0062 60.9619 61.0085 60.9896C61.0108 61.0174 61.0187 61.0443 61.0316 61.0689C62.0498 63.1881 63.6895 66.6724 63.7554 66.9996C63.7038 67.1521 62.9215 67.4501 62.1141 67.6129C62.0873 67.6172 62.0616 67.6268 62.0385 67.641C62.0154 67.6552 61.9954 67.6739 61.9795 67.6959C61.9636 67.7179 61.9522 67.7428 61.946 67.7692C61.9397 67.7956 61.9387 67.823 61.943 67.8498C61.9474 67.8766 61.9569 67.9022 61.9712 67.9253C61.9854 67.9484 62.0041 67.9685 62.0261 67.9843C62.0481 68.0002 62.073 68.0116 62.0994 68.0179C62.1258 68.0241 62.1531 68.0251 62.1799 68.0208L62.1793 68.0202Z" fill="#0C0C0C"/>
<path d="M35.4026 64.4971L42.603 63.0906C48.0421 60.8161 49.5853 51.3368 49.5853 51.3368C49.5853 51.3368 56.2979 57.7298 72.341 53.8639C72.341 53.8639 68.856 31.468 45.167 38.2676C37.5289 40.4595 32.1183 48.2452 32.923 58.5574C33.4869 65.7821 35.4026 64.4971 35.4026 64.4971Z" fill="#0A0A0A"/>
<path d="M44.381 71.9294C41.9403 72.4206 39.4362 70.2076 38.9441 67.7663C38.452 65.3249 40.1607 63.5813 42.6014 63.0898L44.1884 64.4724L46.4791 71.5066L44.381 71.9294Z" fill="#FBC8B4"/>
<path d="M63.1348 56.9207C63.7454 56.4889 64.4596 56.2265 65.2045 56.1602C65.5789 56.1243 65.9565 56.1452 66.3246 56.2223C66.6957 56.298 67.0559 56.4199 67.3967 56.5852L67.4073 56.5902C67.4451 56.6068 67.4879 56.6081 67.5265 56.5936C67.5652 56.5791 67.5967 56.5501 67.6142 56.5128C67.6318 56.4754 67.6341 56.4327 67.6205 56.3937C67.607 56.3547 67.5787 56.3225 67.5418 56.304C67.1807 56.1134 66.797 55.9689 66.3997 55.874C65.9998 55.7768 65.5874 55.7403 65.1766 55.7656C64.3444 55.8116 63.5398 56.0798 62.8465 56.5423C62.8206 56.5598 62.7985 56.5823 62.7813 56.6083C62.7641 56.6344 62.7523 56.6636 62.7464 56.6943C62.7405 56.725 62.7408 56.7565 62.7471 56.7871C62.7535 56.8176 62.7658 56.8466 62.7834 56.8725C62.8009 56.8983 62.8234 56.9203 62.8495 56.9374C62.8757 56.9545 62.9049 56.9663 62.9356 56.9721C62.9663 56.9779 62.9978 56.9776 63.0283 56.9712C63.0589 56.9647 63.0879 56.9524 63.1136 56.9347L63.1192 56.931L63.1348 56.9207Z" fill="#0C0C0C"/>
<path d="M56.5555 57.8308C55.7378 57.6681 54.8915 57.7278 54.1048 58.0038C53.7159 58.1377 53.3494 58.3293 53.0174 58.572C52.6867 58.8117 52.3875 59.0921 52.127 59.4065C52.1007 59.4378 52.0875 59.4781 52.0902 59.5188C52.0929 59.5596 52.1113 59.5978 52.1415 59.6253C52.1717 59.6528 52.2114 59.6675 52.2522 59.6664C52.2931 59.6653 52.3319 59.6485 52.3606 59.6194L52.369 59.6107C52.6204 59.3274 52.9064 59.0769 53.2203 58.865C53.5309 58.6531 53.8717 58.4894 54.2312 58.3794C54.9448 58.1552 55.7051 58.1242 56.4346 58.2893L56.4526 58.294C56.5139 58.3088 56.5785 58.2987 56.6322 58.2659C56.686 58.2331 56.7246 58.1803 56.7394 58.1191C56.7542 58.0578 56.7441 57.9932 56.7113 57.9395C56.6785 57.8857 56.6257 57.8471 56.5645 57.8323L56.5555 57.8308Z" fill="#0C0C0C"/>
<path d="M42.6091 62.9726C47.4492 61.1707 49.0554 57.8283 49.55 55.341C49.8702 53.6822 49.8402 51.9747 49.4621 50.3281L49.3124 50.3694C49.6848 51.9946 49.7136 53.6796 49.3969 55.3165C48.9085 57.7631 47.3252 61.052 42.5547 62.8275L42.6091 62.9726Z" fill="#0C0C0C"/>
<path d="M80.819 90.1008L126.778 105.463L113.284 111.461L136.201 64.4482L154.929 73.1766L133.667 120.96C132.592 123.376 130.683 125.325 128.289 126.45C125.896 127.575 123.177 127.801 120.631 127.087L120.174 126.958L73.5195 113.859L80.819 90.1008Z" fill="#263238"/>
<path d="M51.9336 97.2499C41.3418 96.7507 40.8959 87.7607 40.8959 87.7607C40.8959 87.7607 35.6479 88.1 32.1592 88.5719C26.4476 89.3446 22.6796 91.2814 19.6809 94.2798C16.8916 97.0694 15.1934 100.087 16.9904 119.355C18.2915 133.307 17.3759 163.994 17.3759 163.994H81.9204C81.9204 163.994 86.4275 119.66 86.9619 113.38C87.9816 101.391 90.8625 98.7447 85.0254 92.5689C80.7924 88.0901 69.8641 87.7607 65.4654 87.7614C65.3936 87.7614 66.358 97.93 51.9336 97.2499Z" fill="#263238"/>
<path d="M64.3227 69.7011C62.2415 70.7594 59.867 71.094 57.5744 70.6521C57.495 70.6372 57.413 70.6453 57.338 70.6752C57.263 70.7052 57.1981 70.7559 57.1508 70.8213C57.1036 70.8868 57.0759 70.9644 57.0711 71.045C57.0662 71.1256 57.0844 71.2059 57.1236 71.2766C57.8071 72.4808 59.4282 74.5388 62.2094 73.6999C64.0052 73.1581 64.684 71.3108 64.9357 70.1678C64.9529 70.0887 64.9472 70.0064 64.9192 69.9305C64.8913 69.8546 64.8422 69.7882 64.7778 69.7392C64.7135 69.6902 64.6364 69.6606 64.5558 69.6538C64.4752 69.6471 64.3943 69.6635 64.3227 69.7011Z" fill="white"/>
<path d="M64.4588 60.4459C65.0142 60.4459 65.4645 59.9957 65.4645 59.4403C65.4645 58.8848 65.0142 58.4346 64.4588 58.4346C63.9034 58.4346 63.4531 58.8848 63.4531 59.4403C63.4531 59.9957 63.9034 60.4459 64.4588 60.4459Z" fill="#0C0C0C"/>
<path d="M54.7908 62.1373C55.3463 62.1373 55.7965 61.6871 55.7965 61.1317C55.7965 60.5762 55.3463 60.126 54.7908 60.126C54.2354 60.126 53.7852 60.5762 53.7852 61.1317C53.7852 61.6871 54.2354 62.1373 54.7908 62.1373Z" fill="#0C0C0C"/>
<path d="M86.8157 117.748C86.8092 117.749 86.8027 117.749 86.7961 117.748C86.7553 117.743 86.7182 117.722 86.693 117.69C86.6677 117.657 86.6563 117.616 86.6613 117.575L87.6608 109.473C87.6629 109.453 87.6691 109.433 87.6791 109.415C87.689 109.397 87.7025 109.382 87.7186 109.369C87.7348 109.356 87.7533 109.347 87.7731 109.342C87.7929 109.337 87.8136 109.336 87.8338 109.338C87.8541 109.341 87.8737 109.347 87.8914 109.357C87.9092 109.368 87.9248 109.381 87.9373 109.397C87.9499 109.413 87.9591 109.432 87.9646 109.451C87.97 109.471 87.9715 109.492 87.969 109.512L86.9695 117.614C86.9645 117.651 86.9462 117.685 86.9179 117.71C86.8897 117.735 86.8533 117.748 86.8157 117.748Z" fill="#0C0C0C"/>
<path d="M250.193 55.2313C250.193 55.2313 246.343 50.9075 246.79 42.8101C247.136 36.5405 251.972 41.6109 251.972 41.6109C251.972 41.6109 252.265 37.0988 255.379 38.1732C258.493 39.2475 259.368 44.2228 259.368 44.2228" fill="#60413C"/>
<path d="M271.832 41.9883C271.832 41.9883 287.383 46.8595 277.347 67.2468L275.922 67.0604L273.029 66.683" fill="#60413C"/>
<path d="M249.711 88.5023C249.782 88.493 250.573 101.61 265.811 100.467C276.36 99.6763 280.122 88.4839 280.364 88.4839C279.226 88.2419 277.311 87.8905 276.806 87.6209C275.144 86.7283 273.089 85.7996 272.554 82.5738C272.245 80.7144 272.769 71.2028 272.608 69.3213L256.414 72.9355C256.641 76.9085 258.224 86.119 252.674 87.7492C251.75 88.0188 250.755 88.2668 249.711 88.5023Z" fill="#FBC8B4"/>
<path opacity="0.52" d="M256.184 83.9858C256.437 83.1683 256.6 82.3255 256.67 81.4724C256.849 79.5259 256.813 77.5657 256.565 75.6269C259.856 75.1828 262.957 73.8244 265.515 71.7061C265.815 72.8164 267.469 77.6687 267.011 78.7241C266.146 80.719 262.079 83.9858 256.184 83.9858Z" fill="#0C0C0C"/>
<path d="M258.127 79.5427C264.504 80.2296 272.791 77.7655 274.595 69.2826L276.222 61.6283C278.024 53.1467 275.032 45.3215 267.045 43.6236C259.058 41.9257 251.626 47.5336 249.823 56.0165L249.102 59.4051C248.875 60.5729 248.728 61.7547 248.662 62.9425C248.463 66.0804 248.173 70.8541 249.622 74.4108C250.988 77.7687 254.052 79.1037 258.127 79.5427Z" fill="#FBC8B4"/>
<path d="M253.06 60.0016C253.616 60.0016 254.066 59.5513 254.066 58.9959C254.066 58.4405 253.616 57.9902 253.06 57.9902C252.505 57.9902 252.055 58.4405 252.055 58.9959C252.055 59.5513 252.505 60.0016 253.06 60.0016Z" fill="#0C0C0C"/>
<path d="M262.615 61.0055C263.17 61.0055 263.621 60.5552 263.621 59.9998C263.621 59.4444 263.17 58.9941 262.615 58.9941C262.06 58.9941 261.609 59.4444 261.609 59.9998C261.609 60.5552 262.06 61.0055 262.615 61.0055Z" fill="#0C0C0C"/>
<path d="M273.548 71.7615C275.975 72.2776 278.495 70.0991 279.011 67.6717C279.527 65.2443 277.844 63.4877 275.417 62.9717L273.82 64.3322L271.461 71.3179L273.548 71.7615Z" fill="#FBC8B4"/>
<path d="M271.907 67.3695C271.907 67.3695 273.484 55.1718 269.983 53.7013C267.653 52.722 261.071 54.9944 255.819 52.8653C253.522 51.9332 251.137 52.073 250.681 53.1551C250.501 53.5836 250.293 46.8685 255.004 42.7426C258.754 39.4574 268.717 40.3046 272.896 42.4602C284.469 48.4281 275.813 63.6025 275.813 63.6025L274.438 67.6414L271.907 67.3695Z" fill="#60413C"/>
<g opacity="0.52">
<path opacity="0.52" d="M255.678 68.2423L255.662 68.2398C254.879 68.0755 253.585 67.7117 253.707 67.1273C253.809 66.6423 256.236 61.6844 256.513 61.1208C256.537 61.0723 256.579 61.0353 256.63 61.0178C256.681 61.0003 256.737 61.0039 256.785 61.0276C256.834 61.0514 256.871 61.0935 256.888 61.1446C256.906 61.1957 256.902 61.2516 256.878 61.3001C255.802 63.4954 254.175 66.8812 254.106 67.2108C254.154 67.3662 254.935 67.671 255.745 67.8409C255.796 67.8523 255.841 67.8828 255.87 67.9261C255.899 67.9693 255.91 68.0221 255.902 68.0736C255.893 68.125 255.865 68.1712 255.824 68.2025C255.782 68.2339 255.73 68.2482 255.678 68.2423Z" fill="#0C0C0C"/>
</g>
<path d="M255.497 55.8487C254.728 55.4607 253.869 55.2871 253.009 55.3463C252.587 55.3729 252.171 55.4626 251.776 55.6125C251.384 55.759 251.013 55.9545 250.67 56.1941C250.613 56.2306 250.573 56.2881 250.557 56.3542C250.542 56.4204 250.554 56.4899 250.589 56.5477C250.625 56.6055 250.682 56.647 250.748 56.6632C250.813 56.6795 250.883 56.6691 250.941 56.6344L250.959 56.6241C251.273 56.4294 251.611 56.2749 251.963 56.1643C252.311 56.0533 252.673 55.9955 253.038 55.9931C253.759 55.9826 254.47 56.1627 255.099 56.5154L255.123 56.5294C255.167 56.5556 255.215 56.5729 255.266 56.5802C255.317 56.5875 255.369 56.5847 255.418 56.5719C255.468 56.5592 255.515 56.5367 255.555 56.5058C255.596 56.475 255.631 56.4364 255.657 56.3921C255.683 56.3479 255.7 56.299 255.707 56.2482C255.714 56.1974 255.71 56.1458 255.697 56.0962C255.684 56.0467 255.661 56.0002 255.63 55.9594C255.599 55.9187 255.56 55.8846 255.516 55.8589L255.497 55.8487Z" fill="#0C0C0C"/>
<path d="M261.25 57.4031C261.948 57.2239 262.682 57.2324 263.376 57.4277C263.728 57.524 264.063 57.6728 264.37 57.8692C264.683 58.0668 264.969 58.3028 265.222 58.5716L265.236 58.5856C265.284 58.632 265.348 58.6582 265.415 58.6586C265.482 58.659 265.546 58.6336 265.594 58.5878C265.643 58.5419 265.672 58.4791 265.675 58.4125C265.678 58.3459 265.656 58.2806 265.612 58.2302C265.343 57.9107 265.034 57.6264 264.693 57.3842C264.35 57.1378 263.971 56.9443 263.569 56.81C262.754 56.5317 261.879 56.478 261.036 56.6547C260.987 56.6656 260.939 56.6862 260.897 56.7153C260.855 56.7444 260.82 56.7815 260.792 56.8245C260.736 56.9112 260.717 57.0166 260.739 57.1173C260.761 57.218 260.822 57.3059 260.909 57.3616C260.996 57.4173 261.101 57.4363 261.202 57.4143L261.222 57.4094L261.25 57.4031Z" fill="#0C0C0C"/>
<path d="M254.449 70.1232C256.714 70.6891 259.103 70.484 261.239 69.5403C261.313 69.5081 261.395 69.4975 261.474 69.5099C261.554 69.5224 261.629 69.5572 261.69 69.6105C261.75 69.6637 261.795 69.7331 261.817 69.8105C261.84 69.888 261.84 69.9704 261.818 70.048C261.421 71.3749 260.302 73.7451 257.404 73.5487C255.532 73.4226 254.457 71.7738 253.955 70.7162C253.92 70.6429 253.907 70.5612 253.917 70.4807C253.928 70.4002 253.961 70.3243 254.013 70.2619C254.065 70.1995 254.133 70.1534 254.211 70.1288C254.288 70.1042 254.371 70.1022 254.449 70.1232Z" fill="white"/>
<path d="M263.437 44.4805C264.52 41.9398 263.998 39.284 262.272 38.5486C260.545 37.8133 258.269 39.2768 257.186 41.8176C256.104 44.3583 256.626 47.0141 258.352 47.7494C260.078 48.4848 262.355 47.0213 263.437 44.4805Z" fill="#60413C"/>
<path d="M266.042 97.2499C276.633 96.7507 277.079 87.7607 277.079 87.7607C277.079 87.7607 282.327 88.1 285.816 88.5719C291.528 89.3446 295.296 91.2814 298.294 94.2798C301.084 97.0694 302.782 100.087 300.985 119.355C299.683 133.307 300.599 163.994 300.599 163.994H236.055C236.055 163.994 231.548 119.661 231.013 113.38C229.993 101.391 227.113 98.7447 232.95 92.5689C237.183 88.0901 248.111 87.7607 252.51 87.7614C252.581 87.7614 251.618 97.93 266.042 97.2499Z" fill="#90C63E"/>
<path d="M230.863 95.3447L214.176 130.723L181.266 105.975L168.195 123.357L211.772 156.126C212.162 156.416 212.569 156.682 212.992 156.922C214.237 157.619 215.607 158.065 217.025 158.233C218.442 158.401 219.878 158.288 221.252 157.901C222.626 157.514 223.91 156.86 225.031 155.976C226.152 155.093 227.088 153.997 227.785 152.752L227.974 152.416L253.434 106.972L230.863 95.3447Z" fill="#90C63E"/>
<path d="M303.079 164.305H9.14662C9.06422 164.305 8.9852 164.272 8.92693 164.214C8.86867 164.156 8.83594 164.077 8.83594 163.994C8.83594 163.912 8.86867 163.833 8.92693 163.775C8.9852 163.716 9.06422 163.684 9.14662 163.684H303.079C303.161 163.684 303.24 163.716 303.299 163.775C303.357 163.833 303.39 163.912 303.39 163.994C303.39 164.077 303.357 164.156 303.299 164.214C303.24 164.272 303.161 164.305 303.079 164.305Z" fill="#292A2E"/>
<path d="M239.148 117.782H81.75V171.584H239.148V117.782Z" fill="white"/>
<path d="M239.302 171.739H81.5938V117.627H239.302V171.739ZM81.9044 171.429H238.992V117.938H81.9044V171.429Z" fill="#0C0C0C"/>
<path d="M73.9756 134.225L83.6916 129.886C83.9051 129.79 84.1361 129.74 84.3699 129.739C84.6037 129.738 84.8352 129.786 85.0496 129.879C85.264 129.972 85.4567 130.109 85.6154 130.281C85.774 130.453 85.8951 130.655 85.971 130.877C86.0986 131.289 86.0683 131.734 85.8862 132.126C85.704 132.518 85.383 132.828 84.9852 132.996L82.9018 133.928L90.7966 134.009C91.6746 134.003 92.7558 134.557 92.698 135.542C92.7005 135.922 92.574 136.293 92.339 136.592C92.1041 136.892 91.7746 137.103 91.4043 137.191C91.4065 137.199 91.4077 137.207 91.408 137.216C91.4071 137.222 91.4058 137.229 91.404 137.235L92.7579 137.225C93.0085 137.224 93.2563 137.278 93.4832 137.384C93.7101 137.49 93.9105 137.646 94.0698 137.839C94.2291 138.033 94.3432 138.259 94.4039 138.502C94.4646 138.745 94.4704 138.999 94.4207 139.245C94.3344 139.63 94.1183 139.974 93.8086 140.219C93.4989 140.464 93.1144 140.596 92.7194 140.591L92.1434 140.595C92.1358 140.612 92.1253 140.627 92.1123 140.64C92.5021 140.728 92.8481 140.951 93.0883 141.271C93.3286 141.59 93.4474 141.984 93.4237 142.383C93.3852 142.819 93.1837 143.224 92.8595 143.517C92.5353 143.811 92.1123 143.972 91.6749 143.967L90.2439 143.978C90.264 143.992 90.2805 144.01 90.2922 144.032C90.3038 144.053 90.3103 144.077 90.311 144.102C90.3097 144.131 90.3 144.16 90.283 144.184C90.6086 144.358 90.8679 144.634 91.0209 144.971C91.174 145.307 91.2124 145.684 91.1303 146.044C91.0362 146.42 90.8179 146.754 90.5108 146.99C90.2036 147.227 89.8255 147.354 89.4377 147.349L77.3645 147.435C75.6756 147.447 74.0217 146.954 72.6145 146.02C71.2074 145.086 70.1113 143.753 69.4666 142.192C68.9107 140.846 68.9016 139.337 69.4411 137.984C69.9806 136.631 71.0263 135.542 72.356 134.948L73.9756 134.225Z" fill="#FBC8B4"/>
<g opacity="0.2">
<path opacity="0.2" d="M83.5898 137.147C83.5904 137.188 83.607 137.227 83.6361 137.256C83.6652 137.284 83.7044 137.3 83.7452 137.3L91.2532 137.368C91.2944 137.368 91.334 137.352 91.3634 137.323C91.3928 137.294 91.4095 137.255 91.4099 137.214C91.4103 137.173 91.3943 137.133 91.3654 137.103C91.3365 137.074 91.2972 137.057 91.256 137.057L83.748 136.989C83.7068 136.989 83.6673 137.006 83.6381 137.035C83.609 137.064 83.5926 137.103 83.5926 137.145L83.5898 137.147Z" fill="#0C0C0C"/>
</g>
<g opacity="0.2">
<path opacity="0.2" d="M83.4664 140.459C83.467 140.5 83.4836 140.539 83.5127 140.568C83.5417 140.596 83.5809 140.612 83.6217 140.612L92.0006 140.688C92.0418 140.688 92.0813 140.672 92.1104 140.642C92.1395 140.613 92.1559 140.574 92.1559 140.533C92.1545 140.492 92.1377 140.453 92.1089 140.424C92.08 140.395 92.0413 140.379 92.0006 140.377L83.6217 140.302C83.6012 140.302 83.5808 140.305 83.5618 140.313C83.5428 140.321 83.5255 140.332 83.5109 140.347C83.4963 140.361 83.4847 140.378 83.4768 140.397C83.4689 140.416 83.4648 140.437 83.4648 140.457L83.4664 140.459Z" fill="#0C0C0C"/>
</g>
<g opacity="0.2">
<path opacity="0.2" d="M83.3203 144.043C83.3209 144.084 83.3375 144.123 83.3666 144.152C83.3956 144.18 83.4348 144.196 83.4757 144.196L90.1594 144.257C90.2006 144.257 90.2402 144.241 90.2696 144.212C90.299 144.183 90.3158 144.144 90.3161 144.103C90.3165 144.062 90.3005 144.022 90.2716 143.993C90.2427 143.963 90.2034 143.946 90.1622 143.946L83.4785 143.886C83.4373 143.886 83.3977 143.902 83.3686 143.931C83.3395 143.96 83.3231 144 83.3231 144.041L83.3203 144.043Z" fill="#0C0C0C"/>
</g>
<path d="M76.7563 151.525L22.8878 163.771C21.0982 163.965 19.2879 163.743 17.5988 163.12C15.9098 162.498 14.3879 161.493 13.1526 160.183C11.9174 158.874 11.0023 157.296 10.4792 155.574C9.95619 153.851 9.83937 152.031 10.138 150.256L16.3025 100.671C16.8152 97.6237 18.5174 94.905 21.0345 93.1129C23.5517 91.3208 26.6777 90.602 29.7248 91.1147C32.772 91.6273 35.4906 93.3295 37.2828 95.8467C39.0749 98.3638 39.7937 101.49 39.281 104.537L36.3124 140.028L73.7386 131.558L76.7563 151.525Z" fill="#263238"/>
<path d="M28.74 141.422C28.701 141.422 28.6635 141.407 28.6351 141.38C28.6066 141.354 28.5892 141.317 28.5864 141.278C28.5835 141.24 28.5954 141.201 28.6196 141.17C28.6439 141.14 28.6788 141.12 28.7173 141.114L36.2237 139.511C36.2439 139.507 36.2646 139.508 36.2845 139.513C36.3043 139.518 36.3231 139.527 36.3395 139.539C36.356 139.551 36.3698 139.566 36.3802 139.584C36.3907 139.602 36.3975 139.621 36.4002 139.641C36.4063 139.682 36.3959 139.723 36.3715 139.757C36.347 139.79 36.3104 139.812 36.2697 139.818L28.7633 141.421C28.7556 141.422 28.7478 141.422 28.74 141.422Z" fill="#0C0C0C"/>
<path d="M24.5095 163.994C24.4683 163.997 24.4277 163.983 24.3967 163.956C24.3657 163.929 24.3468 163.89 24.3441 163.849C24.3414 163.808 24.3552 163.767 24.3824 163.736C24.4097 163.705 24.4481 163.686 24.4893 163.684L76.4238 151.452L73.481 131.785L36.2782 139.817C36.2541 139.82 36.2297 139.817 36.2068 139.809C36.1839 139.801 36.1632 139.788 36.1462 139.771C36.1292 139.753 36.1166 139.732 36.1094 139.709C36.1022 139.685 36.1005 139.661 36.1045 139.637L38.1914 119.358C38.1945 119.338 38.2017 119.319 38.2124 119.301C38.2231 119.284 38.2373 119.269 38.254 119.257C38.2706 119.245 38.2895 119.237 38.3095 119.232C38.3295 119.228 38.3502 119.227 38.3703 119.231C38.411 119.238 38.4472 119.261 38.4711 119.294C38.495 119.328 38.5046 119.369 38.4977 119.41L36.4472 139.48L73.5534 131.443C73.5734 131.437 73.5942 131.436 73.6148 131.438C73.6353 131.441 73.6551 131.448 73.673 131.458C73.6909 131.469 73.7064 131.483 73.7189 131.499C73.7313 131.516 73.7403 131.535 73.7454 131.555L76.7631 151.523C76.7726 151.563 76.7665 151.604 76.746 151.639C76.7255 151.674 76.6923 151.699 76.6534 151.71L24.5297 163.993C24.523 163.994 24.5163 163.994 24.5095 163.994Z" fill="#0C0C0C"/>
<path d="M243.998 143.546L234.282 139.207C234.069 139.112 233.838 139.062 233.604 139.061C233.37 139.059 233.139 139.107 232.924 139.2C232.71 139.293 232.517 139.43 232.359 139.602C232.2 139.774 232.079 139.977 232.003 140.198C231.875 140.61 231.906 141.056 232.088 141.447C232.27 141.839 232.591 142.149 232.989 142.317L235.072 143.249L227.177 143.331C226.299 143.324 225.218 143.878 225.276 144.863C225.273 145.244 225.4 145.614 225.635 145.913C225.87 146.213 226.199 146.424 226.57 146.512C226.567 146.52 226.566 146.529 226.566 146.537C226.567 146.543 226.568 146.55 226.57 146.556L225.216 146.546C224.965 146.545 224.718 146.599 224.491 146.705C224.264 146.811 224.063 146.967 223.904 147.16C223.745 147.354 223.63 147.58 223.57 147.823C223.509 148.067 223.503 148.32 223.553 148.566C223.639 148.951 223.856 149.295 224.165 149.54C224.475 149.786 224.859 149.917 225.254 149.913L225.831 149.917C225.838 149.933 225.849 149.949 225.862 149.962C225.472 150.049 225.126 150.273 224.886 150.592C224.645 150.911 224.527 151.305 224.55 151.704C224.589 152.14 224.79 152.545 225.115 152.839C225.439 153.132 225.862 153.293 226.299 153.289L227.73 153.299C227.71 153.313 227.694 153.331 227.682 153.353C227.67 153.374 227.664 153.399 227.663 153.423C227.664 153.452 227.674 153.481 227.691 153.505C227.365 153.679 227.106 153.956 226.953 154.292C226.8 154.628 226.762 155.005 226.844 155.365C226.938 155.741 227.156 156.075 227.463 156.312C227.771 156.549 228.149 156.675 228.537 156.67L240.61 156.756C242.299 156.768 243.953 156.275 245.36 155.341C246.767 154.407 247.863 153.074 248.508 151.513C249.064 150.167 249.073 148.657 248.533 147.304C247.994 145.951 246.948 144.862 245.618 144.268L243.998 143.546Z" fill="#FBC8B4"/>
<g opacity="0.2">
<path opacity="0.2" d="M234.383 146.469C234.382 146.51 234.365 146.549 234.336 146.578C234.307 146.606 234.268 146.623 234.227 146.623L226.719 146.69C226.699 146.69 226.679 146.686 226.66 146.679C226.641 146.671 226.624 146.66 226.609 146.645C226.594 146.631 226.583 146.614 226.575 146.595C226.567 146.577 226.563 146.556 226.563 146.536C226.562 146.516 226.566 146.495 226.574 146.476C226.581 146.458 226.593 146.44 226.607 146.426C226.621 146.411 226.638 146.4 226.657 146.392C226.676 146.384 226.696 146.379 226.716 146.379L234.224 146.312C234.266 146.312 234.305 146.328 234.334 146.357C234.363 146.386 234.38 146.426 234.38 146.467L234.383 146.469Z" fill="#0C0C0C"/>
</g>
<g opacity="0.2">
<path opacity="0.2" d="M234.505 149.781C234.504 149.821 234.488 149.86 234.459 149.888C234.43 149.917 234.391 149.933 234.351 149.934L225.972 150.009C225.931 150.009 225.891 149.993 225.862 149.964C225.833 149.935 225.816 149.895 225.816 149.854C225.818 149.813 225.835 149.774 225.863 149.746C225.892 149.717 225.931 149.7 225.972 149.699L234.351 149.623C234.392 149.623 234.431 149.639 234.46 149.669C234.49 149.698 234.506 149.737 234.506 149.778L234.505 149.781Z" fill="#0C0C0C"/>
</g>
<g opacity="0.2">
<path opacity="0.2" d="M234.664 153.364C234.663 153.404 234.647 153.443 234.618 153.472C234.588 153.501 234.549 153.517 234.508 153.517L227.825 153.577C227.804 153.577 227.784 153.573 227.765 153.566C227.746 153.558 227.729 153.547 227.714 153.532C227.7 153.518 227.688 153.501 227.68 153.482C227.672 153.464 227.668 153.443 227.668 153.423C227.668 153.403 227.672 153.382 227.679 153.364C227.687 153.345 227.698 153.327 227.712 153.313C227.727 153.298 227.744 153.287 227.763 153.279C227.781 153.271 227.802 153.267 227.822 153.266L234.506 153.206C234.547 153.206 234.586 153.222 234.615 153.252C234.645 153.281 234.661 153.32 234.661 153.361L234.664 153.364Z" fill="#0C0C0C"/>
</g>
<path d="M244.328 160.845L295.09 163.77C296.879 163.965 298.69 163.742 300.379 163.12C302.068 162.498 303.59 161.492 304.825 160.183C306.06 158.874 306.975 157.296 307.498 155.573C308.021 153.851 308.138 152.031 307.84 150.255L301.676 100.669C301.422 99.16 300.874 97.716 300.062 96.4192C299.25 95.1224 298.191 93.9983 296.944 93.1109C295.698 92.2235 294.289 91.5903 292.798 91.2475C291.307 90.9046 289.763 90.8588 288.254 91.1127C286.745 91.3665 285.301 91.9151 284.004 92.727C282.708 93.5389 281.583 94.5983 280.696 95.8447C279.809 97.091 279.175 98.5 278.833 99.9911C278.49 101.482 278.444 103.026 278.698 104.535L281.666 142.201L244.551 140.877L244.328 160.845Z" fill="#90C63E"/>
<path d="M289.24 142.044C289.279 142.044 289.317 142.029 289.345 142.002C289.374 141.975 289.391 141.939 289.394 141.9C289.397 141.861 289.385 141.822 289.361 141.792C289.336 141.761 289.302 141.741 289.263 141.735L281.757 141.686C281.736 141.682 281.716 141.683 281.696 141.688C281.676 141.693 281.657 141.701 281.641 141.714C281.624 141.726 281.61 141.741 281.6 141.759C281.589 141.776 281.583 141.796 281.58 141.816C281.574 141.857 281.584 141.898 281.609 141.931C281.633 141.964 281.67 141.986 281.711 141.993L289.217 142.042C289.225 142.043 289.232 142.044 289.24 142.044Z" fill="#0C0C0C"/>
<path d="M293.475 163.994C293.517 163.997 293.557 163.983 293.588 163.956C293.619 163.928 293.638 163.89 293.641 163.849C293.643 163.807 293.629 163.767 293.602 163.736C293.575 163.705 293.536 163.686 293.495 163.683L244.667 160.773L244.813 141.107L281.705 141.992C281.729 141.995 281.754 141.993 281.777 141.985C281.8 141.977 281.82 141.964 281.837 141.946C281.854 141.929 281.867 141.908 281.874 141.884C281.881 141.861 281.883 141.836 281.879 141.812L279.793 119.359C279.789 119.339 279.782 119.32 279.771 119.302C279.761 119.285 279.747 119.27 279.73 119.258C279.713 119.246 279.694 119.238 279.674 119.233C279.654 119.229 279.634 119.228 279.614 119.232C279.593 119.235 279.574 119.243 279.557 119.253C279.539 119.264 279.524 119.278 279.513 119.295C279.501 119.312 279.492 119.33 279.488 119.35C279.483 119.37 279.482 119.391 279.486 119.411L281.538 141.656L244.742 140.764C244.722 140.759 244.702 140.757 244.681 140.76C244.661 140.763 244.641 140.769 244.623 140.78C244.605 140.79 244.589 140.804 244.577 140.821C244.565 140.837 244.556 140.856 244.55 140.876L244.329 160.845C244.319 160.884 244.325 160.926 244.346 160.96C244.366 160.995 244.399 161.021 244.438 161.031L293.454 163.991C293.461 163.992 293.468 163.993 293.475 163.994Z" fill="#0C0C0C"/>
<path d="M119.068 152.984H114.942L112.628 144.007C112.542 143.688 112.396 143.028 112.19 142.026C111.984 141.025 111.865 140.353 111.833 140.01C111.787 140.431 111.67 141.107 111.483 142.038C111.295 142.969 111.151 143.633 111.05 144.031L108.748 152.984H104.634L100.273 135.896H103.839L106.024 145.224C106.406 146.946 106.683 148.438 106.854 149.7C106.901 149.256 107.008 148.569 107.176 147.638C107.343 146.707 107.501 145.984 107.649 145.469L110.139 135.896H113.563L116.053 145.469C116.162 145.898 116.298 146.553 116.462 147.433C116.626 148.313 116.75 149.069 116.835 149.701C116.913 149.093 117.037 148.335 117.208 147.427C117.378 146.519 117.534 145.785 117.674 145.224L119.848 135.897H123.413L119.068 152.984Z" fill="#90C63E"/>
<path d="M135.408 152.984H125.566V135.896H135.408V138.865H129.19V142.617H134.976V145.585H129.19V149.992H135.408V152.984Z" fill="#90C63E"/>
<path d="M138.973 152.984V135.896H142.596V149.993H149.527V152.985L138.973 152.984Z" fill="#90C63E"/>
<path d="M159.757 138.666C159.142 138.638 158.531 138.763 157.977 139.032C157.424 139.3 156.946 139.703 156.588 140.203C155.84 141.227 155.466 142.655 155.466 144.487C155.466 148.298 156.896 150.203 159.755 150.203C161.248 150.145 162.721 149.841 164.115 149.302V152.341C162.623 152.943 161.025 153.241 159.416 153.218C156.931 153.218 155.03 152.464 153.712 150.956C152.395 149.448 151.737 147.284 151.737 144.463C151.702 142.853 152.033 141.256 152.707 139.793C153.305 138.511 154.277 137.439 155.495 136.719C156.792 135.984 158.264 135.615 159.755 135.65C161.492 135.668 163.202 136.08 164.757 136.854L163.588 139.799C162.96 139.5 162.316 139.234 161.66 139.004C161.049 138.785 160.405 138.67 159.757 138.666Z" fill="#90C63E"/>
<path d="M183.262 144.416C183.262 147.244 182.561 149.418 181.158 150.938C179.756 152.458 177.745 153.217 175.127 153.217C172.509 153.217 170.499 152.457 169.096 150.938C167.693 149.419 166.992 147.237 166.992 144.393C166.992 141.548 167.695 139.376 169.102 137.876C170.509 136.376 172.525 135.626 175.15 135.626C177.776 135.626 179.785 136.382 181.176 137.894C182.567 139.406 183.263 141.58 183.262 144.416ZM170.791 144.416C170.791 146.325 171.153 147.763 171.878 148.729C172.603 149.695 173.686 150.178 175.127 150.178C178.019 150.178 179.464 148.257 179.464 144.416C179.464 140.566 178.026 138.642 175.151 138.642C173.709 138.642 172.622 139.127 171.889 140.097C171.155 141.067 170.789 142.507 170.791 144.416Z" fill="#90C63E"/>
<path d="M194.04 152.984L189.926 139.577H189.82C189.968 142.305 190.042 144.124 190.043 145.036V152.984H186.805V135.896H191.737L195.782 148.964H195.851L200.141 135.896H205.074V152.984H201.696V144.895C201.696 144.514 201.702 144.074 201.713 143.575C201.725 143.076 201.777 141.751 201.871 139.601H201.766L197.36 152.984H194.04Z" fill="#90C63E"/>
<path d="M219.213 152.984H209.371V135.896H219.213V138.865H212.995V142.617H218.781V145.585H212.995V149.992H219.213V152.984Z" fill="#90C63E"/>
</svg>
