<svg width="24" height="24" viewBox="0 0 24 24" fill="none" xmlns="http://www.w3.org/2000/svg">
<mask id="path-1-outside-1" maskUnits="userSpaceOnUse" x="0.449219" y="2.31152" width="23" height="22" fill="black">
<rect fill="white" x="0.449219" y="2.31152" width="23" height="22"/>
<path fill-rule="evenodd" clip-rule="evenodd" d="M22.5414 22.9063C22.5018 21.5978 20.8642 19.4584 19.4441 19.271C18.0413 19.0897 17.0076 18.3338 16.1814 17.6188C15.9794 17.4439 15.7973 17.3595 15.625 17.3595C15.4204 17.3595 15.2394 17.4767 15.0719 17.7187C14.6257 18.3631 14.0343 18.8796 13.4623 19.3796C13.1647 19.6398 12.8567 19.9085 12.5729 20.1924C12.4656 20.2974 12.3773 20.3461 12.2948 20.3461C12.2162 20.3461 12.1361 20.3004 12.0502 20.2062C11.7547 19.8805 11.4024 19.6114 11.0614 19.3512C10.8573 19.1953 10.6531 19.0393 10.459 18.8705C9.49337 18.0323 9.09259 17.0878 9.23387 15.9821C9.23818 15.9468 9.23818 15.9076 9.23818 15.8679C9.23795 15.7908 9.23795 15.7107 9.27521 15.6737C9.29481 15.6539 9.32603 15.6444 9.37084 15.6444C9.38978 15.6444 9.41087 15.6461 9.43435 15.6495C9.50884 15.6616 9.58187 15.6698 9.65059 15.6698C9.88899 15.6698 10.0391 15.566 10.1093 15.3524C10.2271 14.9828 9.96629 14.7855 9.73609 14.612L9.69109 14.5779C8.75082 13.8689 8.02614 12.9351 7.47568 11.7238C7.11085 10.9211 7.07364 10.1167 7.36524 9.33262C7.82978 8.06202 8.4009 7.21457 9.24531 6.5631C9.38378 6.45496 9.46735 6.38976 9.54296 6.38976C9.61079 6.38976 9.68982 6.4423 9.8251 6.57754C11.6739 8.41223 13.3946 9.57622 15.2403 10.2406C15.6753 10.3978 15.8106 10.6319 15.7223 11.0758L15.6654 11.3792C15.4561 12.5045 15.258 13.5675 14.3453 14.3644C14.2182 14.4747 14.1445 14.6124 14.1381 14.7537C14.132 14.8804 14.1824 15.0027 14.2828 15.1065C14.3784 15.2055 14.4891 15.2559 14.6119 15.2559C14.7429 15.2559 14.8832 15.1991 15.0309 15.087C15.5448 14.6977 15.92 14.1933 16.1461 13.5881C16.4726 12.7202 16.6664 11.9025 16.7388 11.0878C16.7655 10.7658 16.8012 10.5617 17.0756 10.4387C17.3121 10.3342 17.4107 10.1223 17.3392 9.8714C17.2789 9.6651 17.1157 9.54618 16.8801 9.53652C15.7059 9.48416 14.7152 8.98973 13.5885 8.26373C11.6007 6.98385 10.1201 5.73285 9.35495 3.7866C9.23176 3.46682 9.06681 3.31152 8.85039 3.31152C8.77951 3.31152 8.70287 3.32896 8.62253 3.36341C8.48017 3.42496 8.38435 3.5174 8.33804 3.63796C8.28053 3.78805 8.30209 3.98104 8.40053 4.19573C8.54589 4.51298 8.71281 4.82437 8.88962 5.15427C8.97254 5.30891 9.05804 5.46829 9.14523 5.63563C8.87734 5.70435 8.59993 5.79824 8.35768 5.98884C7.11676 6.95624 6.41082 8.28843 6.19956 10.0621C6.00938 11.644 6.81006 12.9251 7.70382 14.0738C8.25324 14.7811 8.21185 15.5831 8.17182 16.3583C8.15092 16.7607 8.12959 17.1771 8.18992 17.5799C8.19357 17.5997 8.14206 17.6522 8.11107 17.6837C8.08459 17.7108 8.05787 17.7384 8.03804 17.7651C7.4919 18.5085 6.83528 19.2063 5.7384 19.2786C5.45996 19.295 5.18364 19.3777 4.9164 19.4578C4.72192 19.5164 4.52078 19.5767 4.32221 19.6103C3.05528 19.8179 2.20909 20.5669 1.73551 21.9C1.70837 21.9763 1.67242 22.0585 1.63515 22.1429C1.51778 22.4104 1.38493 22.7132 1.48379 22.9501C1.53442 23.0716 1.64251 23.1655 1.80531 23.2275C1.88542 23.2585 1.96037 23.2736 2.02796 23.2736C2.37428 23.2736 2.48345 22.8976 2.57992 22.5659C2.60706 22.4728 2.63312 22.3824 2.66349 22.3057C3.03864 21.353 3.65439 20.7995 4.54571 20.6138C5.01329 20.5165 5.47778 20.4028 5.94212 20.29C6.21845 20.2228 6.49473 20.1556 6.77167 20.091C6.86987 20.0685 6.95818 20.0574 7.04153 20.0574C7.28185 20.0574 7.47892 20.1513 7.66196 20.3528C8.1196 20.8602 8.59876 21.3598 9.06198 21.844C9.30985 22.1024 9.55796 22.3613 9.80415 22.6228C10.1164 22.9549 10.352 23.0965 10.5922 23.0965C10.8226 23.0965 11.0651 22.9608 11.3782 22.6555L11.4671 22.5689C11.8173 22.2256 12.0103 22.0365 12.1634 22.0365C12.3275 22.0365 12.4919 22.2583 12.8192 22.7012L12.8786 22.7813C12.9562 22.8898 13.0479 23.0121 13.1629 23.1022C13.2835 23.1939 13.4256 23.2469 13.5531 23.2469C13.6824 23.2469 13.7866 23.1948 13.8564 23.0957C14.1243 22.7029 14.4904 22.3872 14.8453 22.0818C15.2864 21.7019 15.7429 21.3091 16.0091 20.7655C16.3093 20.1509 16.7094 19.8644 17.2673 19.8644C17.4632 19.8644 17.6777 19.8997 17.9224 19.9712C18.0585 20.0121 18.2015 20.0362 18.3359 20.0561C20.0627 20.2839 21.0977 21.2728 21.5008 23.0802C21.562 23.361 21.6757 23.6824 22.0173 23.6824C22.0513 23.6824 22.0875 23.6794 22.1262 23.6724C22.5586 23.5937 22.5474 23.1635 22.5414 22.9063ZM15.9858 18.9161L15.9471 18.998C15.923 19.0501 15.8989 19.1026 15.8674 19.1526C15.2903 20.1174 14.5929 20.9401 13.7961 21.5978C13.6872 21.6869 13.6014 21.7288 13.5256 21.7288C13.4459 21.7288 13.3675 21.6822 13.2784 21.5823C13.0919 21.3712 12.9859 21.2161 13.2086 20.9973C13.5127 20.7023 13.8409 20.4215 14.1588 20.1497C14.6481 19.731 15.1538 19.2986 15.5879 18.8015C15.6405 18.7416 15.6939 18.711 15.7469 18.711C15.8364 18.7111 15.9252 18.8016 15.9858 18.9161ZM10.3402 21.6848C10.3142 21.652 10.2885 21.6201 10.2629 21.5931C9.99934 21.3195 9.74003 21.04 9.48071 20.7605C9.12732 20.3797 8.7737 19.9985 8.40803 19.6303C8.27556 19.498 8.21181 19.377 8.21354 19.2606C8.21612 19.0828 8.37118 18.9359 8.52128 18.7947L8.59923 18.7197C8.67892 18.64 8.7489 18.5996 8.80726 18.5996C8.91151 18.5996 8.98581 18.7361 9.05148 18.8567C9.07815 18.9058 9.10403 18.9527 9.13051 18.9898C9.45118 19.4338 9.88295 19.759 10.3004 20.0735C10.5734 20.2789 10.8558 20.4917 11.1015 20.7342L11.1749 20.8018C11.2837 20.9004 11.3867 20.9935 11.4129 21.1231C11.2568 21.3996 11.0254 21.6335 10.705 21.8381C10.6645 21.8648 10.6272 21.8777 10.5917 21.8777C10.4959 21.8777 10.4167 21.7796 10.3402 21.6848Z"/>
</mask>
<path fill-rule="evenodd" clip-rule="evenodd" d="M22.5414 22.9063C22.5018 21.5978 20.8642 19.4584 19.4441 19.271C18.0413 19.0897 17.0076 18.3338 16.1814 17.6188C15.9794 17.4439 15.7973 17.3595 15.625 17.3595C15.4204 17.3595 15.2394 17.4767 15.0719 17.7187C14.6257 18.3631 14.0343 18.8796 13.4623 19.3796C13.1647 19.6398 12.8567 19.9085 12.5729 20.1924C12.4656 20.2974 12.3773 20.3461 12.2948 20.3461C12.2162 20.3461 12.1361 20.3004 12.0502 20.2062C11.7547 19.8805 11.4024 19.6114 11.0614 19.3512C10.8573 19.1953 10.6531 19.0393 10.459 18.8705C9.49337 18.0323 9.09259 17.0878 9.23387 15.9821C9.23818 15.9468 9.23818 15.9076 9.23818 15.8679C9.23795 15.7908 9.23795 15.7107 9.27521 15.6737C9.29481 15.6539 9.32603 15.6444 9.37084 15.6444C9.38978 15.6444 9.41087 15.6461 9.43435 15.6495C9.50884 15.6616 9.58187 15.6698 9.65059 15.6698C9.88899 15.6698 10.0391 15.566 10.1093 15.3524C10.2271 14.9828 9.96629 14.7855 9.73609 14.612L9.69109 14.5779C8.75082 13.8689 8.02614 12.9351 7.47568 11.7238C7.11085 10.9211 7.07364 10.1167 7.36524 9.33262C7.82978 8.06202 8.4009 7.21457 9.24531 6.5631C9.38378 6.45496 9.46735 6.38976 9.54296 6.38976C9.61079 6.38976 9.68982 6.4423 9.8251 6.57754C11.6739 8.41223 13.3946 9.57622 15.2403 10.2406C15.6753 10.3978 15.8106 10.6319 15.7223 11.0758L15.6654 11.3792C15.4561 12.5045 15.258 13.5675 14.3453 14.3644C14.2182 14.4747 14.1445 14.6124 14.1381 14.7537C14.132 14.8804 14.1824 15.0027 14.2828 15.1065C14.3784 15.2055 14.4891 15.2559 14.6119 15.2559C14.7429 15.2559 14.8832 15.1991 15.0309 15.087C15.5448 14.6977 15.92 14.1933 16.1461 13.5881C16.4726 12.7202 16.6664 11.9025 16.7388 11.0878C16.7655 10.7658 16.8012 10.5617 17.0756 10.4387C17.3121 10.3342 17.4107 10.1223 17.3392 9.8714C17.2789 9.6651 17.1157 9.54618 16.8801 9.53652C15.7059 9.48416 14.7152 8.98973 13.5885 8.26373C11.6007 6.98385 10.1201 5.73285 9.35495 3.7866C9.23176 3.46682 9.06681 3.31152 8.85039 3.31152C8.77951 3.31152 8.70287 3.32896 8.62253 3.36341C8.48017 3.42496 8.38435 3.5174 8.33804 3.63796C8.28053 3.78805 8.30209 3.98104 8.40053 4.19573C8.54589 4.51298 8.71281 4.82437 8.88962 5.15427C8.97254 5.30891 9.05804 5.46829 9.14523 5.63563C8.87734 5.70435 8.59993 5.79824 8.35768 5.98884C7.11676 6.95624 6.41082 8.28843 6.19956 10.0621C6.00938 11.644 6.81006 12.9251 7.70382 14.0738C8.25324 14.7811 8.21185 15.5831 8.17182 16.3583C8.15092 16.7607 8.12959 17.1771 8.18992 17.5799C8.19357 17.5997 8.14206 17.6522 8.11107 17.6837C8.08459 17.7108 8.05787 17.7384 8.03804 17.7651C7.4919 18.5085 6.83528 19.2063 5.7384 19.2786C5.45996 19.295 5.18364 19.3777 4.9164 19.4578C4.72192 19.5164 4.52078 19.5767 4.32221 19.6103C3.05528 19.8179 2.20909 20.5669 1.73551 21.9C1.70837 21.9763 1.67242 22.0585 1.63515 22.1429C1.51778 22.4104 1.38493 22.7132 1.48379 22.9501C1.53442 23.0716 1.64251 23.1655 1.80531 23.2275C1.88542 23.2585 1.96037 23.2736 2.02796 23.2736C2.37428 23.2736 2.48345 22.8976 2.57992 22.5659C2.60706 22.4728 2.63312 22.3824 2.66349 22.3057C3.03864 21.353 3.65439 20.7995 4.54571 20.6138C5.01329 20.5165 5.47778 20.4028 5.94212 20.29C6.21845 20.2228 6.49473 20.1556 6.77167 20.091C6.86987 20.0685 6.95818 20.0574 7.04153 20.0574C7.28185 20.0574 7.47892 20.1513 7.66196 20.3528C8.1196 20.8602 8.59876 21.3598 9.06198 21.844C9.30985 22.1024 9.55796 22.3613 9.80415 22.6228C10.1164 22.9549 10.352 23.0965 10.5922 23.0965C10.8226 23.0965 11.0651 22.9608 11.3782 22.6555L11.4671 22.5689C11.8173 22.2256 12.0103 22.0365 12.1634 22.0365C12.3275 22.0365 12.4919 22.2583 12.8192 22.7012L12.8786 22.7813C12.9562 22.8898 13.0479 23.0121 13.1629 23.1022C13.2835 23.1939 13.4256 23.2469 13.5531 23.2469C13.6824 23.2469 13.7866 23.1948 13.8564 23.0957C14.1243 22.7029 14.4904 22.3872 14.8453 22.0818C15.2864 21.7019 15.7429 21.3091 16.0091 20.7655C16.3093 20.1509 16.7094 19.8644 17.2673 19.8644C17.4632 19.8644 17.6777 19.8997 17.9224 19.9712C18.0585 20.0121 18.2015 20.0362 18.3359 20.0561C20.0627 20.2839 21.0977 21.2728 21.5008 23.0802C21.562 23.361 21.6757 23.6824 22.0173 23.6824C22.0513 23.6824 22.0875 23.6794 22.1262 23.6724C22.5586 23.5937 22.5474 23.1635 22.5414 22.9063ZM15.9858 18.9161L15.9471 18.998C15.923 19.0501 15.8989 19.1026 15.8674 19.1526C15.2903 20.1174 14.5929 20.9401 13.7961 21.5978C13.6872 21.6869 13.6014 21.7288 13.5256 21.7288C13.4459 21.7288 13.3675 21.6822 13.2784 21.5823C13.0919 21.3712 12.9859 21.2161 13.2086 20.9973C13.5127 20.7023 13.8409 20.4215 14.1588 20.1497C14.6481 19.731 15.1538 19.2986 15.5879 18.8015C15.6405 18.7416 15.6939 18.711 15.7469 18.711C15.8364 18.7111 15.9252 18.8016 15.9858 18.9161ZM10.3402 21.6848C10.3142 21.652 10.2885 21.6201 10.2629 21.5931C9.99934 21.3195 9.74003 21.04 9.48071 20.7605C9.12732 20.3797 8.7737 19.9985 8.40803 19.6303C8.27556 19.498 8.21181 19.377 8.21354 19.2606C8.21612 19.0828 8.37118 18.9359 8.52128 18.7947L8.59923 18.7197C8.67892 18.64 8.7489 18.5996 8.80726 18.5996C8.91151 18.5996 8.98581 18.7361 9.05148 18.8567C9.07815 18.9058 9.10403 18.9527 9.13051 18.9898C9.45118 19.4338 9.88295 19.759 10.3004 20.0735C10.5734 20.2789 10.8558 20.4917 11.1015 20.7342L11.1749 20.8018C11.2837 20.9004 11.3867 20.9935 11.4129 21.1231C11.2568 21.3996 11.0254 21.6335 10.705 21.8381C10.6645 21.8648 10.6272 21.8777 10.5917 21.8777C10.4959 21.8777 10.4167 21.7796 10.3402 21.6848Z" fill="black"/>
<path fill-rule="evenodd" clip-rule="evenodd" d="M22.5414 22.9063C22.5018 21.5978 20.8642 19.4584 19.4441 19.271C18.0413 19.0897 17.0076 18.3338 16.1814 17.6188C15.9794 17.4439 15.7973 17.3595 15.625 17.3595C15.4204 17.3595 15.2394 17.4767 15.0719 17.7187C14.6257 18.3631 14.0343 18.8796 13.4623 19.3796C13.1647 19.6398 12.8567 19.9085 12.5729 20.1924C12.4656 20.2974 12.3773 20.3461 12.2948 20.3461C12.2162 20.3461 12.1361 20.3004 12.0502 20.2062C11.7547 19.8805 11.4024 19.6114 11.0614 19.3512C10.8573 19.1953 10.6531 19.0393 10.459 18.8705C9.49337 18.0323 9.09259 17.0878 9.23387 15.9821C9.23818 15.9468 9.23818 15.9076 9.23818 15.8679C9.23795 15.7908 9.23795 15.7107 9.27521 15.6737C9.29481 15.6539 9.32603 15.6444 9.37084 15.6444C9.38978 15.6444 9.41087 15.6461 9.43435 15.6495C9.50884 15.6616 9.58187 15.6698 9.65059 15.6698C9.88899 15.6698 10.0391 15.566 10.1093 15.3524C10.2271 14.9828 9.96629 14.7855 9.73609 14.612L9.69109 14.5779C8.75082 13.8689 8.02614 12.9351 7.47568 11.7238C7.11085 10.9211 7.07364 10.1167 7.36524 9.33262C7.82978 8.06202 8.4009 7.21457 9.24531 6.5631C9.38378 6.45496 9.46735 6.38976 9.54296 6.38976C9.61079 6.38976 9.68982 6.4423 9.8251 6.57754C11.6739 8.41223 13.3946 9.57622 15.2403 10.2406C15.6753 10.3978 15.8106 10.6319 15.7223 11.0758L15.6654 11.3792C15.4561 12.5045 15.258 13.5675 14.3453 14.3644C14.2182 14.4747 14.1445 14.6124 14.1381 14.7537C14.132 14.8804 14.1824 15.0027 14.2828 15.1065C14.3784 15.2055 14.4891 15.2559 14.6119 15.2559C14.7429 15.2559 14.8832 15.1991 15.0309 15.087C15.5448 14.6977 15.92 14.1933 16.1461 13.5881C16.4726 12.7202 16.6664 11.9025 16.7388 11.0878C16.7655 10.7658 16.8012 10.5617 17.0756 10.4387C17.3121 10.3342 17.4107 10.1223 17.3392 9.8714C17.2789 9.6651 17.1157 9.54618 16.8801 9.53652C15.7059 9.48416 14.7152 8.98973 13.5885 8.26373C11.6007 6.98385 10.1201 5.73285 9.35495 3.7866C9.23176 3.46682 9.06681 3.31152 8.85039 3.31152C8.77951 3.31152 8.70287 3.32896 8.62253 3.36341C8.48017 3.42496 8.38435 3.5174 8.33804 3.63796C8.28053 3.78805 8.30209 3.98104 8.40053 4.19573C8.54589 4.51298 8.71281 4.82437 8.88962 5.15427C8.97254 5.30891 9.05804 5.46829 9.14523 5.63563C8.87734 5.70435 8.59993 5.79824 8.35768 5.98884C7.11676 6.95624 6.41082 8.28843 6.19956 10.0621C6.00938 11.644 6.81006 12.9251 7.70382 14.0738C8.25324 14.7811 8.21185 15.5831 8.17182 16.3583C8.15092 16.7607 8.12959 17.1771 8.18992 17.5799C8.19357 17.5997 8.14206 17.6522 8.11107 17.6837C8.08459 17.7108 8.05787 17.7384 8.03804 17.7651C7.4919 18.5085 6.83528 19.2063 5.7384 19.2786C5.45996 19.295 5.18364 19.3777 4.9164 19.4578C4.72192 19.5164 4.52078 19.5767 4.32221 19.6103C3.05528 19.8179 2.20909 20.5669 1.73551 21.9C1.70837 21.9763 1.67242 22.0585 1.63515 22.1429C1.51778 22.4104 1.38493 22.7132 1.48379 22.9501C1.53442 23.0716 1.64251 23.1655 1.80531 23.2275C1.88542 23.2585 1.96037 23.2736 2.02796 23.2736C2.37428 23.2736 2.48345 22.8976 2.57992 22.5659C2.60706 22.4728 2.63312 22.3824 2.66349 22.3057C3.03864 21.353 3.65439 20.7995 4.54571 20.6138C5.01329 20.5165 5.47778 20.4028 5.94212 20.29C6.21845 20.2228 6.49473 20.1556 6.77167 20.091C6.86987 20.0685 6.95818 20.0574 7.04153 20.0574C7.28185 20.0574 7.47892 20.1513 7.66196 20.3528C8.1196 20.8602 8.59876 21.3598 9.06198 21.844C9.30985 22.1024 9.55796 22.3613 9.80415 22.6228C10.1164 22.9549 10.352 23.0965 10.5922 23.0965C10.8226 23.0965 11.0651 22.9608 11.3782 22.6555L11.4671 22.5689C11.8173 22.2256 12.0103 22.0365 12.1634 22.0365C12.3275 22.0365 12.4919 22.2583 12.8192 22.7012L12.8786 22.7813C12.9562 22.8898 13.0479 23.0121 13.1629 23.1022C13.2835 23.1939 13.4256 23.2469 13.5531 23.2469C13.6824 23.2469 13.7866 23.1948 13.8564 23.0957C14.1243 22.7029 14.4904 22.3872 14.8453 22.0818C15.2864 21.7019 15.7429 21.3091 16.0091 20.7655C16.3093 20.1509 16.7094 19.8644 17.2673 19.8644C17.4632 19.8644 17.6777 19.8997 17.9224 19.9712C18.0585 20.0121 18.2015 20.0362 18.3359 20.0561C20.0627 20.2839 21.0977 21.2728 21.5008 23.0802C21.562 23.361 21.6757 23.6824 22.0173 23.6824C22.0513 23.6824 22.0875 23.6794 22.1262 23.6724C22.5586 23.5937 22.5474 23.1635 22.5414 22.9063ZM15.9858 18.9161L15.9471 18.998C15.923 19.0501 15.8989 19.1026 15.8674 19.1526C15.2903 20.1174 14.5929 20.9401 13.7961 21.5978C13.6872 21.6869 13.6014 21.7288 13.5256 21.7288C13.4459 21.7288 13.3675 21.6822 13.2784 21.5823C13.0919 21.3712 12.9859 21.2161 13.2086 20.9973C13.5127 20.7023 13.8409 20.4215 14.1588 20.1497C14.6481 19.731 15.1538 19.2986 15.5879 18.8015C15.6405 18.7416 15.6939 18.711 15.7469 18.711C15.8364 18.7111 15.9252 18.8016 15.9858 18.9161ZM10.3402 21.6848C10.3142 21.652 10.2885 21.6201 10.2629 21.5931C9.99934 21.3195 9.74003 21.04 9.48071 20.7605C9.12732 20.3797 8.7737 19.9985 8.40803 19.6303C8.27556 19.498 8.21181 19.377 8.21354 19.2606C8.21612 19.0828 8.37118 18.9359 8.52128 18.7947L8.59923 18.7197C8.67892 18.64 8.7489 18.5996 8.80726 18.5996C8.91151 18.5996 8.98581 18.7361 9.05148 18.8567C9.07815 18.9058 9.10403 18.9527 9.13051 18.9898C9.45118 19.4338 9.88295 19.759 10.3004 20.0735C10.5734 20.2789 10.8558 20.4917 11.1015 20.7342L11.1749 20.8018C11.2837 20.9004 11.3867 20.9935 11.4129 21.1231C11.2568 21.3996 11.0254 21.6335 10.705 21.8381C10.6645 21.8648 10.6272 21.8777 10.5917 21.8777C10.4959 21.8777 10.4167 21.7796 10.3402 21.6848Z" stroke="black" stroke-width="0.4" mask="url(#path-1-outside-1)"/>
<path d="M17.7288 8.8576C17.8055 7.71188 17.6328 6.50564 17.2008 5.1646C16.4763 2.89856 14.2047 1.31611 11.6762 1.31611C10.6446 1.31611 9.66039 1.5795 8.75074 2.09897C7.61707 2.75152 6.83186 3.65733 6.4173 4.79119L17.7288 8.8576ZM17.7288 8.8576C17.7754 9.86053 17.709 10.7489 17.5264 11.5731M17.7288 8.8576L14.4197 16.2061M14.4197 16.2061C15.6106 15.8663 16.4375 15.0677 16.8778 13.8333C17.1233 13.145 17.3357 12.4057 17.5264 11.5731M14.4197 16.2061L14.3551 16.2247L14.4197 16.2061ZM17.5264 11.5731L17.429 11.5507C17.4289 11.5508 17.4289 11.551 17.4289 11.5511M17.5264 11.5731L17.4288 11.5514C17.4288 11.5513 17.4289 11.5512 17.4289 11.5511M17.4289 11.5511C17.2389 12.3803 17.0275 13.1157 16.7836 13.7997C16.3534 15.0058 15.55 15.7795 14.3922 16.1099L14.392 16.11L14.3274 16.1286L14.327 16.1287C14.2352 16.1555 14.1584 16.1767 14.0944 16.1767C14.0617 16.1767 14.0404 16.1706 14.0254 16.1623C14.0107 16.1542 13.9956 16.1405 13.9806 16.1152L13.9804 16.1147C13.7844 15.7875 13.537 15.5982 13.2713 15.4923C13.0083 15.3875 12.7325 15.3666 12.4823 15.3666C12.3334 15.3666 12.1824 15.3744 12.0343 15.3821L12.0324 15.3822L12.0322 15.3822L11.9431 15.387L11.943 15.387C11.546 15.4085 11.2125 15.5446 10.9709 15.7816C10.7293 16.0186 10.5873 16.3488 10.5591 16.7444M17.4289 11.5511C17.6092 10.737 17.6752 9.85779 17.629 8.86223L17.6284 8.85088L17.6291 8.85092C17.7047 7.72035 17.5346 6.52693 17.1056 5.19526L17.1056 5.19505C16.3954 2.97389 14.1649 1.41611 11.6762 1.41611C10.6623 1.41611 9.69524 1.67479 8.80049 2.18572M10.5591 16.7444L4.66337 13.1456C4.66345 13.1456 4.66354 13.1456 4.66362 13.1456C4.75567 13.1573 4.84167 13.1632 4.92138 13.1632C5.18485 13.1632 5.39607 13.0953 5.53979 12.9278C5.67998 12.7644 5.73918 12.5247 5.74651 12.2203L5.74651 12.22C5.76703 11.2682 5.76572 10.3334 5.74238 9.44185L5.74237 9.44152C5.69584 7.86756 5.94704 6.3581 6.51114 4.82574L6.51122 4.82553C6.917 3.7157 7.68543 2.82759 8.80049 2.18572M10.5591 16.7444C10.5591 16.7445 10.5591 16.7446 10.5591 16.7447L10.6588 16.7518L10.5591 16.7444ZM8.80049 2.18572C8.80053 2.18569 8.80058 2.18566 8.80062 2.18564L8.75074 2.09898L8.80033 2.18581C8.80038 2.18578 8.80044 2.18575 8.80049 2.18572ZM13.7021 17.6821C13.9514 17.4087 14.2905 17.2954 14.5898 17.2204M13.7021 17.6821C13.3502 18.0758 12.8914 18.2671 12.2995 18.2671C12.1482 18.2671 11.9891 18.2551 11.8131 18.2305L14.5898 17.2204M13.7021 17.6821L13.7759 17.7495C13.7761 17.7494 13.7762 17.7493 13.7763 17.7491C13.7764 17.749 13.7765 17.7489 13.7766 17.7488L13.7021 17.6821ZM14.5898 17.2204C16.2928 16.782 17.4028 15.6754 17.9821 13.8376L14.5898 17.2204ZM19.3216 9.30307L19.3211 9.30179C19.2901 9.21969 19.2534 9.16652 19.2159 9.13442C19.1803 9.10386 19.1399 9.0888 19.0908 9.0888C19.0811 9.0888 19.0714 9.0893 19.0601 9.09052L19.0494 8.9911M19.3216 9.30307L18.9219 9.35882C18.9198 9.25807 18.9291 9.19327 18.9498 9.15321C18.9652 9.1235 18.9909 9.09848 19.0608 9.09044L19.0494 8.9911M19.3216 9.30307C19.4848 9.71692 19.5707 10.1729 19.5551 10.5215L19.555 10.5215L19.555 10.525C19.5509 10.924 19.534 11.2529 19.4412 11.5166C19.3513 11.7721 19.1892 11.9682 18.8811 12.1002L19.3216 9.30307ZM19.0494 8.9911C19.0641 8.9895 19.0774 8.9888 19.0908 8.9888C19.2359 8.9888 19.3449 9.08208 19.4147 9.26639L18.6359 11.1099C18.7341 10.5417 18.8356 9.95429 18.8219 9.36113C18.8176 9.15521 18.8546 9.0135 19.0494 8.9911ZM4.44929 7.51683C4.38568 7.58159 4.28775 7.62233 4.11722 7.63944L18.7951 6.99277L18.7847 6.9239L18.7847 6.92378C18.5568 5.4156 18.1665 4.25695 17.5515 3.28363C16.606 1.77465 14.366 0.157812 11.6731 0.157812C11.0016 0.157812 10.3417 0.263496 9.712 0.47217L9.7119 0.472205C7.68779 1.14544 6.39922 2.16608 5.67945 3.68971L5.67944 3.68971C5.10358 4.90883 4.7454 6.04304 4.58632 7.15628L4.68508 7.17039L4.58634 7.15617C4.55938 7.34339 4.51429 7.45065 4.44929 7.51683ZM4.28308 8.95478H4.29533L4.30263 8.95538C4.37106 8.96102 4.39885 8.98431 4.41692 9.01444C4.44067 9.05405 4.45496 9.11891 4.46144 9.2222C4.46145 9.22242 4.46146 9.22265 4.46148 9.22287L4.48231 9.65241C4.48231 9.65241 4.48231 9.65242 4.48231 9.65243C4.51203 10.2674 4.54171 10.8832 4.56108 11.4955L4.56112 11.4966L4.56436 11.5732L4.5644 11.5741C4.57013 11.6868 4.56782 11.75 4.55164 11.7885C4.54538 11.8034 4.53764 11.8126 4.5263 11.82C4.5134 11.8284 4.49026 11.8379 4.44842 11.843L4.44764 11.8431C4.42458 11.846 4.40228 11.8474 4.38086 11.8474C4.21243 11.8474 4.07989 11.7552 4.00675 11.565C3.92574 11.3431 3.93095 11.1174 3.93857 10.8547L3.93857 10.8547C3.94179 10.7437 3.94492 10.6285 3.94006 10.514C3.92739 10.016 3.9733 9.58146 4.07889 9.18367L4.07891 9.18362C4.10461 9.08654 4.13572 9.03001 4.1673 8.99818C4.19535 8.96992 4.22991 8.95478 4.28308 8.95478Z" fill="black" stroke="black" stroke-width="0.2"/>
</svg>
