<svg xmlns="http://www.w3.org/2000/svg" width="35" height="30" viewBox="0 0 35 30">
  <g id="tea" transform="translate(-316 -391)">
    <rect id="Rectangle_202" data-name="Rectangle 202" width="35" height="30" transform="translate(316 391)" fill="#1c1b1b" opacity="0"/>
    <g id="noun_Coffee_2077268" transform="translate(321 394)">
      <g id="Group_146" data-name="Group 146">
        <path id="Path_131" data-name="Path 131" d="M35.814,105c4.808,0,8.734,1.763,8.734,3.846a1.445,1.445,0,0,1-.16.8c-.16,4.968-3.926,8.894-8.574,8.894-4.567,0-8.333-3.926-8.574-8.734a2.134,2.134,0,0,1-.24-.962C27,106.763,30.926,105,35.814,105Zm7.612,5.769c-1.522,1.122-4.407,1.923-7.612,1.923-3.365,0-6.17-.8-7.692-1.923a7.933,7.933,0,0,0,7.612,6.651A7.95,7.95,0,0,0,43.426,110.769ZM35.814,105.4c4.327,0,7.933,1.522,7.933,3.446s-3.606,3.446-7.933,3.446c-4.407,0-7.933-1.522-7.933-3.446S31.407,105.4,35.814,105.4Z" transform="translate(-24.837 -96.587)" fill-rule="evenodd"/>
        <path id="Path_132" data-name="Path 132" d="M17.949,225c2.644.721,4.407,1.362,4.407,3.125,0,1.683-4.968,3.846-11.138,3.846S0,229.808,0,228.125s1.683-2.324,4.167-3.045c.08.16.08.321.24.4-1.923.641-3.205,1.042-3.205,2.4s4.487,3.285,10.016,3.285c5.449,0,9.936-1.923,9.936-3.285s-1.362-1.843-3.526-2.484A1.407,1.407,0,0,0,17.949,225Z" transform="translate(0 -206.971)" fill-rule="evenodd"/>
        <path id="Path_133" data-name="Path 133" d="M108.5,0c5.609,4.647-5.288,6.49,0,12.179C100.972,7.212,112.831,4.567,108.5,0Z" transform="translate(-97.446)" fill-rule="evenodd"/>
        <path id="Path_134" data-name="Path 134" d="M226.962,149.758c4.808-4.407,6.09,2.083-.962,4.167C230.567,150.96,230.808,148.476,226.962,149.758Z" transform="translate(-207.891 -136.377)" fill-rule="evenodd"/>
        <path id="Path_135" data-name="Path 135" d="M132.5,2c5.609,4.647-5.288,6.49,0,12.179C124.972,9.212,136.831,6.647,132.5,2Z" transform="translate(-119.523 -1.84)" fill-rule="evenodd"/>
      </g>
    </g>
  </g>
</svg>
