<svg width="22" height="22" viewBox="0 0 22 22" fill="none" xmlns="http://www.w3.org/2000/svg">
<path d="M13.384 7.33333H19.2507C19.7369 7.33333 20.2032 7.52649 20.547 7.8703C20.8908 8.21412 21.084 8.68044 21.084 9.16667V11.0953C21.0842 11.3349 21.0375 11.5722 20.9465 11.7938L18.1085 18.6817C18.0395 18.8496 17.9221 18.9933 17.7713 19.0945C17.6205 19.1957 17.4431 19.2498 17.2615 19.25H1.83398C1.59087 19.25 1.35771 19.1534 1.1858 18.9815C1.01389 18.8096 0.917317 18.5764 0.917317 18.3333V9.16667C0.917317 8.92355 1.01389 8.69039 1.1858 8.51849C1.35771 8.34658 1.59087 8.25 1.83398 8.25H5.02582C5.17257 8.25004 5.31719 8.21484 5.44751 8.14736C5.57784 8.07989 5.69006 7.98211 5.77473 7.86225L10.7733 0.780083C10.8365 0.690536 10.9297 0.626597 11.036 0.599857C11.1423 0.573118 11.2546 0.585349 11.3527 0.634332L13.0155 1.46667C13.4834 1.70057 13.8573 2.08754 14.0749 2.56329C14.2925 3.03904 14.3408 3.57493 14.2117 4.08192L13.384 7.33333ZM6.41732 9.70567V17.4167H16.6473L19.2507 11.0953V9.16667H13.384C13.1048 9.16663 12.8292 9.10281 12.5784 8.98009C12.3276 8.85736 12.1082 8.67897 11.9368 8.45853C11.7655 8.23809 11.6467 7.98141 11.5896 7.70809C11.5325 7.43477 11.5387 7.15202 11.6075 6.88142L12.4352 3.62908C12.4611 3.52763 12.4515 3.42037 12.408 3.32514C12.3645 3.22991 12.2897 3.15246 12.196 3.10567L11.5901 2.80317L7.27257 8.91917C7.0434 9.24367 6.75007 9.5095 6.41732 9.70567V9.70567ZM4.58398 10.0833H2.75065V17.4167H4.58398V10.0833Z" fill="#A6AEC1"/>
</svg>
