<svg width="22" height="22" viewBox="0 0 22 22" fill="none" xmlns="http://www.w3.org/2000/svg">
<path d="M20.1673 13.7499H17.4173V2.7499H20.1673C20.4104 2.7499 20.6436 2.84648 20.8155 3.01838C20.9874 3.19029 21.084 3.42345 21.084 3.66657V12.8332C21.084 13.0763 20.9874 13.3095 20.8155 13.4814C20.6436 13.6533 20.4104 13.7499 20.1673 13.7499V13.7499ZM15.3154 14.9351L9.44873 20.8018C9.37076 20.88 9.26718 20.9274 9.15703 20.9353C9.04689 20.9433 8.93759 20.9111 8.84923 20.8449L8.06732 20.2582C7.85016 20.0952 7.68613 19.8715 7.59592 19.6154C7.5057 19.3593 7.49334 19.0822 7.5604 18.8191L8.61732 14.6666H2.75065C2.26442 14.6666 1.7981 14.4734 1.45429 14.1296C1.11047 13.7858 0.917316 13.3195 0.917316 12.8332V10.9046C0.917069 10.665 0.963782 10.4277 1.05482 10.2061L3.8919 3.31732C3.96111 3.14937 4.07866 3.00577 4.22962 2.90474C4.38059 2.80372 4.55817 2.74982 4.73982 2.7499H14.6673C14.9104 2.7499 15.1436 2.84648 15.3155 3.01838C15.4874 3.19029 15.584 3.42345 15.584 3.66657V14.2871C15.5839 14.5302 15.4873 14.7633 15.3154 14.9351Z" fill="#90C63E"/>
</svg>
