<svg width="22" height="22" viewBox="0 0 22 22" fill="none" xmlns="http://www.w3.org/2000/svg">
<path d="M8.61602 14.6667H2.74935C2.26312 14.6667 1.7968 14.4735 1.45299 14.1297C1.10917 13.7859 0.916017 13.3196 0.916017 12.8333V10.9047C0.915769 10.6651 0.962483 10.4278 1.05352 10.2062L3.89152 3.31833C3.96052 3.15036 4.07787 3.00666 4.22867 2.90548C4.37946 2.80429 4.55692 2.75018 4.73852 2.75H20.166C20.4091 2.75 20.6423 2.84658 20.8142 3.01849C20.9861 3.19039 21.0827 3.42355 21.0827 3.66667V12.8333C21.0827 13.0764 20.9861 13.3096 20.8142 13.4815C20.6423 13.6534 20.4091 13.75 20.166 13.75H16.9742C16.8274 13.75 16.6828 13.7852 16.5525 13.8526C16.4222 13.9201 16.3099 14.0179 16.2253 14.1378L11.2267 21.2199C11.1635 21.3095 11.0703 21.3734 10.964 21.4001C10.8577 21.4269 10.7454 21.4147 10.6473 21.3657L8.98452 20.5333C8.51656 20.2994 8.14271 19.9125 7.9251 19.4367C7.70748 18.961 7.6592 18.4251 7.78827 17.9181L8.61602 14.6667ZM15.5827 12.2943V4.58333H5.35268L2.74935 10.9047V12.8333H8.61602C8.89523 12.8334 9.17075 12.8972 9.42156 13.0199C9.67236 13.1426 9.89181 13.321 10.0632 13.5415C10.2345 13.7619 10.3533 14.0186 10.4104 14.2919C10.4675 14.5652 10.4613 14.848 10.3925 15.1186L9.56477 18.3709C9.53886 18.4724 9.54847 18.5796 9.592 18.6749C9.63553 18.7701 9.71035 18.8475 9.80402 18.8943L10.4099 19.1968L14.7274 13.0808C14.9566 12.7563 15.2499 12.4905 15.5827 12.2943ZM17.416 11.9167H19.2493V4.58333H17.416V11.9167Z" fill="#A6AEC1"/>
</svg>
