<svg width="198" height="186" viewBox="0 0 198 186" fill="none" xmlns="http://www.w3.org/2000/svg">
<ellipse cx="92.4358" cy="93.421" rx="92.4358" ry="92.5294" fill="#90C63E" fill-opacity="0.05"/>
<ellipse cx="92.4369" cy="93.4209" rx="65.1791" ry="65.2451" fill="#90C63E" fill-opacity="0.1"/>
<ellipse cx="92.4352" cy="93.4212" rx="45.0328" ry="45.0784" fill="#90C63E" fill-opacity="0.15"/>
<g clip-path="url(#clip0)">
<path d="M112.204 90.7704C112.866 90.0317 113.268 89.0567 113.268 87.99C113.268 85.6907 111.399 83.8195 109.102 83.8195H101.016C101.817 81.3867 102.158 78.1588 102.158 76.7751V75.3859C102.158 72.3201 99.6658 69.8252 96.6031 69.8252H95.2144C94.5774 69.8252 94.0219 70.2589 93.8673 70.878L93.1109 73.9076C92.0508 78.1504 88.6854 82.8316 85.2023 83.6824C84.5922 82.1365 83.0859 81.0392 81.3268 81.0392H72.9942C72.2276 81.0392 71.6055 81.662 71.6055 82.4294V107.452C71.6055 108.22 72.2276 108.843 72.9942 108.843H81.3268C82.9831 108.843 84.4163 107.87 85.0875 106.465L89.8593 108.058C91.4194 108.578 93.0451 108.843 94.6904 108.843H106.324C108.621 108.843 110.491 106.971 110.491 104.672C110.491 104.13 110.387 103.611 110.198 103.135C111.965 102.653 113.268 101.032 113.268 99.1113C113.268 98.0446 112.866 97.0697 112.204 96.331C112.866 95.5924 113.268 94.6174 113.268 93.5507C113.268 92.484 112.866 91.509 112.204 90.7704ZM82.7155 104.672C82.7155 105.438 82.0925 106.062 81.3268 106.062H74.383V83.8195H81.3268C82.0925 83.8195 82.7155 84.4432 82.7155 85.2097V104.672ZM106.324 92.1605H109.102C109.868 92.1605 110.491 92.7842 110.491 93.5507C110.491 94.3171 109.868 94.9409 109.102 94.9409H106.324C105.558 94.9409 104.936 95.5636 104.936 96.331C104.936 97.0984 105.558 97.7212 106.324 97.7212H109.102C109.868 97.7212 110.491 98.3449 110.491 99.1113C110.491 99.8778 109.868 100.502 109.102 100.502H106.324C105.558 100.502 104.936 101.124 104.936 101.892C104.936 102.659 105.558 103.282 106.324 103.282C107.09 103.282 107.713 103.906 107.713 104.672C107.713 105.438 107.09 106.062 106.324 106.062H94.6904C93.3442 106.062 92.0137 105.846 90.737 105.42L85.4931 103.67V86.4683C87.6716 86.054 89.8038 84.6731 91.7286 82.4127C93.608 80.2051 95.132 77.2783 95.8051 74.5823L96.2985 72.6055H96.6031C98.1345 72.6055 99.3807 73.853 99.3807 75.3859V76.7751C99.3807 78.6416 98.7974 82.2218 98.0512 83.8195H95.2144C94.4478 83.8195 93.8256 84.4423 93.8256 85.2097C93.8256 85.9771 94.4478 86.5999 95.2144 86.5999H109.102C109.868 86.5999 110.491 87.2236 110.491 87.99C110.491 88.7565 109.868 89.3802 109.102 89.3802H106.324C105.558 89.3802 104.936 90.003 104.936 90.7704C104.936 91.5377 105.558 92.1605 106.324 92.1605Z" fill="#81B533"/>
<path d="M78.5528 103.282C79.3198 103.282 79.9416 102.66 79.9416 101.892C79.9416 101.124 79.3198 100.502 78.5528 100.502C77.7858 100.502 77.1641 101.124 77.1641 101.892C77.1641 102.66 77.7858 103.282 78.5528 103.282Z" fill="#81B533"/>
<path d="M97.9903 61.3906C97.2234 61.3906 96.6016 62.013 96.6016 62.7808V65.6538C96.6016 66.4215 97.2234 67.044 97.9903 67.044C98.7573 67.044 99.3791 66.4215 99.3791 65.6538V62.7808C99.3791 62.013 98.7573 61.3906 97.9903 61.3906Z" fill="#81B533"/>
<path d="M92.1004 67.5216L90.1364 65.5556C89.5941 65.0127 88.7148 65.0127 88.1724 65.5556C87.63 66.0985 87.63 66.9787 88.1724 67.5216L90.1364 69.4876C90.6786 70.0304 91.5581 70.0305 92.1004 69.4876C92.6427 68.9447 92.6427 68.0645 92.1004 67.5216Z" fill="#81B533"/>
<path d="M107.815 65.5546C107.273 65.0117 106.394 65.0117 105.851 65.5546L103.887 67.5205C103.345 68.0634 103.345 68.9436 103.887 69.4865C104.43 70.0294 105.309 70.0295 105.851 69.4866L107.815 67.5206C108.358 66.9777 108.358 66.0975 107.815 65.5546Z" fill="#81B533"/>
</g>
<path d="M13.0365 32.9209C13.0365 34.8875 11.4442 36.4797 9.48249 36.4797C7.52078 36.4797 5.92846 34.8875 5.92846 32.9209C5.92846 30.9543 7.52078 29.3621 9.48249 29.3621C11.4442 29.3621 13.0365 30.9543 13.0365 32.9209Z" stroke="#90C63E" stroke-width="2.37255"/>
<mask id="path-10-inside-1" fill="white">
<ellipse cx="195.538" cy="124.264" rx="2.37015" ry="2.37255"/>
</mask>
<path d="M195.536 124.264C195.536 124.267 195.535 124.268 195.536 124.267C195.536 124.266 195.536 124.265 195.537 124.264C195.537 124.263 195.537 124.263 195.536 124.265C195.534 124.267 195.533 124.266 195.536 124.265C195.537 124.265 195.538 124.264 195.54 124.264C195.541 124.264 195.541 124.264 195.538 124.264V129.009C198.16 129.009 200.281 126.883 200.281 124.264H195.536ZM195.538 124.264C195.535 124.264 195.535 124.264 195.537 124.264C195.538 124.264 195.539 124.265 195.541 124.265C195.543 124.266 195.542 124.267 195.541 124.265C195.539 124.263 195.539 124.263 195.54 124.264C195.54 124.265 195.54 124.266 195.541 124.267C195.541 124.268 195.541 124.267 195.541 124.264H190.795C190.795 126.883 192.917 129.009 195.538 129.009V124.264ZM195.541 124.264C195.541 124.261 195.541 124.26 195.541 124.261C195.54 124.262 195.54 124.263 195.54 124.264C195.539 124.266 195.539 124.265 195.541 124.263C195.542 124.262 195.543 124.262 195.541 124.263C195.539 124.263 195.538 124.264 195.537 124.264C195.535 124.264 195.535 124.264 195.538 124.264V119.519C192.917 119.519 190.795 121.646 190.795 124.264H195.541ZM195.538 124.264C195.541 124.264 195.541 124.264 195.54 124.264C195.538 124.264 195.537 124.263 195.536 124.263C195.533 124.262 195.534 124.262 195.536 124.263C195.537 124.265 195.537 124.266 195.537 124.264C195.536 124.263 195.536 124.262 195.536 124.261C195.535 124.26 195.536 124.261 195.536 124.264H200.281C200.281 121.646 198.16 119.519 195.538 119.519V124.264Z" fill="#90C63E" mask="url(#path-10-inside-1)"/>
<defs>
<clipPath id="clip0">
<rect width="47.403" height="47.451" fill="white" transform="translate(68.7344 61.3916)"/>
</clipPath>
</defs>
</svg>
