<svg width="22" height="22" viewBox="0 0 22 22" fill="none" xmlns="http://www.w3.org/2000/svg">
<path d="M1.83268 8.2501H4.58268V19.2501H1.83268C1.58957 19.2501 1.35641 19.1535 1.1845 18.9816C1.01259 18.8097 0.916016 18.5765 0.916016 18.3334V9.16677C0.916016 8.92365 1.01259 8.6905 1.1845 8.51859C1.35641 8.34668 1.58957 8.2501 1.83268 8.2501V8.2501ZM6.6846 7.06485L12.5513 1.19819C12.6292 1.11999 12.7328 1.07257 12.843 1.06466C12.9531 1.05674 13.0624 1.08886 13.1508 1.1551L13.9327 1.74177C14.1498 1.90479 14.3139 2.12847 14.4041 2.38459C14.4943 2.64071 14.5067 2.9178 14.4396 3.18094L13.3827 7.33344H19.2494C19.7356 7.33344 20.2019 7.52659 20.5457 7.87041C20.8895 8.21422 21.0827 8.68054 21.0827 9.16677V11.0954C21.0829 11.335 21.0362 11.5723 20.9452 11.7939L18.1081 18.6827C18.0389 18.8506 17.9213 18.9942 17.7704 19.0953C17.6194 19.1963 17.4418 19.2502 17.2602 19.2501H7.33268C7.08957 19.2501 6.85641 19.1535 6.6845 18.9816C6.51259 18.8097 6.41602 18.5765 6.41602 18.3334V7.71293C6.41607 7.46984 6.51268 7.23672 6.6846 7.06485Z" fill="#90C63E"/>
</svg>
