<svg width="22" height="22" viewBox="0 0 22 22" fill="none" xmlns="http://www.w3.org/2000/svg">
<path d="M18.5336 0H3.45933C2.28267 0 1.37891 1.04337 1.54515 2.20705L2.46593 8.65236C2.60111 9.59879 3.42401 10.3125 4.38006 10.3125H5.3099C5.39339 10.7895 5.52148 11.2557 5.6897 11.6939C4.69365 11.771 3.90663 12.6056 3.90663 13.6211C3.90663 14.4736 4.4614 15.1984 5.22869 15.455C5.39606 16.839 6.19244 18.0318 7.32269 18.7384C6.78356 19.4972 6.48476 20.4141 6.48476 21.3555C6.48476 21.7114 6.77333 22 7.12929 22H14.8637C15.2196 22 15.5082 21.7114 15.5082 21.3555C15.5082 20.4141 15.2094 19.4972 14.6703 18.7384C15.8005 18.0318 16.5969 16.839 16.7643 15.455C17.5315 15.1984 18.0863 14.4736 18.0863 13.6211C18.0863 12.6056 17.2993 11.771 16.3032 11.6939C16.4714 11.2557 16.5995 10.7895 16.683 10.3125H17.6128C18.5689 10.3125 19.3918 9.59879 19.527 8.65236L20.4478 2.20705C20.6142 1.04221 19.7091 0 18.5336 0ZM7.83733 20.7109C7.94419 20.1785 8.18395 19.6855 8.54034 19.2685C8.91279 19.3683 9.30394 19.4219 9.70741 19.4219H12.2855C12.689 19.4219 13.0802 19.3683 13.4526 19.2685C13.809 19.6855 14.0488 20.1785 14.1556 20.7109H7.83733ZM12.2855 18.1328H9.70741C8.15113 18.1328 6.849 17.0195 6.54951 15.5504H15.4434C15.1439 17.0195 13.8418 18.1328 12.2855 18.1328ZM16.7973 13.6211C16.7973 13.9765 16.5081 14.2656 16.1527 14.2656H5.84022C5.48483 14.2656 5.19569 13.9765 5.19569 13.6211C5.19569 13.2657 5.48483 12.9766 5.84022 12.9766H16.1527C16.5081 12.9766 16.7973 13.2657 16.7973 13.6211ZM6.48476 9.02344C6.48476 6.18028 8.50871 3.86719 10.9965 3.86719C13.4842 3.86719 15.5082 6.18028 15.5082 9.02344C15.5082 9.91044 15.3081 10.8699 14.9017 11.6875H7.09117C6.68482 10.8698 6.48476 9.90997 6.48476 9.02344ZM19.1717 2.02473L18.2509 8.47004C18.2058 8.78552 17.9315 9.02344 17.6128 9.02344H16.7973C16.7973 5.46949 14.195 2.57812 10.9965 2.57812C7.79792 2.57812 5.19569 5.46949 5.19569 9.02344H4.38006C4.0614 9.02344 3.78709 8.78552 3.74202 8.47004L2.82124 2.02473C2.76568 1.63599 3.06595 1.28906 3.45933 1.28906H18.5336C18.9263 1.28906 19.2274 1.63535 19.1717 2.02473Z" fill="black"/>
<path d="M17.4453 2.57812H16.1562C15.8003 2.57812 15.5117 2.8667 15.5117 3.22266C15.5117 3.57861 15.8003 3.86719 16.1562 3.86719H17.4453C17.8013 3.86719 18.0898 3.57861 18.0898 3.22266C18.0898 2.8667 17.8013 2.57812 17.4453 2.57812Z" fill="black"/>
</svg>
