<?xml version="1.0" encoding="UTF-8"?>
<svg width="35px" height="30px" viewBox="0 0 35 30" version="1.1" xmlns="http://www.w3.org/2000/svg" xmlns:xlink="http://www.w3.org/1999/xlink">
    <!-- Generator: Sketch 63.1 (92452) - https://sketch.com -->
    <title>toilet</title>
    <desc>Created with Sketch.</desc>
    <g id="Page-1" stroke="none" stroke-width="1" fill="none" fill-rule="evenodd">
        <g id="toilet" fill-rule="nonzero">
            <rect id="Rectangle_202" fill-opacity="0.012729458" fill="#FFFFFF" x="0" y="0" width="35" height="30"></rect>
            <path d="M28.6451613,2 L20.9032258,2 C20.1677419,2 19.5483871,2.61935484 19.5483871,3.35483871 L19.5483871,4.0516129 C19.3548387,3.97419355 19.1612903,3.93548387 18.9677419,3.93548387 C18.2322581,3.93548387 17.6129032,4.55483871 17.6129032,5.29032258 L17.6129032,15.5483871 L7.35483871,15.5483871 C6.61935484,15.5483871 6,16.1677419 6,16.9032258 C6,17.2903226 6.15483871,17.6387097 6.42580645,17.8709677 C6.15483871,18.1032258 6,18.4516129 6,18.8387097 C6,19.4580645 6.42580645,19.9612903 6.96774194,20.1548387 C7.12258065,22.3612903 8.98064516,24.0645161 11.2258065,24.0645161 C11.5354839,24.0645161 11.8064516,24.3354839 11.8064516,24.6451613 C11.8064516,24.9548387 11.5354839,25.2258065 11.2258065,25.2258065 C10.4903226,25.2258065 9.87096774,25.8451613 9.87096774,26.5806452 L9.87096774,27.9354839 L22.2580645,27.9354839 L22.2580645,25.6903226 L25.9741935,18.2580645 L26.7096774,18.2580645 C27.4451613,18.2580645 28.0645161,17.6387097 28.0645161,16.9032258 L28.0645161,7.22580645 C28.0645161,7.03225806 28.0258065,6.83870968 27.9483871,6.64516129 L28.6451613,6.64516129 C29.3806452,6.64516129 30,6.02580645 30,5.29032258 L30,3.35483871 C30,2.61935484 29.3806452,2 28.6451613,2 Z M21.6,17.483871 L19.7032258,17.483871 C20.0903226,17.0580645 20.283871,16.516129 20.283871,15.9354839 L20.283871,6.52903226 C20.4774194,6.60645161 20.6709677,6.64516129 20.8645161,6.64516129 L21.5612903,6.64516129 C21.483871,6.83870968 21.4451613,7.03225806 21.4451613,7.22580645 L21.4451613,16.9032258 C21.483871,17.0967742 21.5225806,17.2903226 21.6,17.483871 Z M6.77419355,16.9032258 C6.77419355,16.5935484 7.04516129,16.3225806 7.35483871,16.3225806 L18,16.3225806 C18.2322581,16.3225806 18.3870968,16.1677419 18.3870968,15.9354839 L18.3870968,5.29032258 C18.3870968,4.98064516 18.6580645,4.70967742 18.9677419,4.70967742 C19.2774194,4.70967742 19.5483871,4.98064516 19.5483871,5.29032258 L19.5483871,15.9354839 C19.5483871,16.7870968 18.8516129,17.483871 18,17.483871 L7.35483871,17.483871 C7.04516129,17.483871 6.77419355,17.2129032 6.77419355,16.9032258 Z M21.483871,25.5354839 L21.483871,27.1612903 L10.6451613,27.1612903 L10.6451613,26.5806452 C10.6451613,26.2709677 10.916129,26 11.2258065,26 C11.9612903,26 12.5806452,25.3806452 12.5806452,24.6451613 C12.5806452,23.9096774 11.9612903,23.2903226 11.2258065,23.2903226 C9.29032258,23.2903226 7.74193548,21.7419355 7.74193548,19.8064516 L7.74193548,19.4193548 L7.35483871,19.4193548 C7.04516129,19.4193548 6.77419355,19.1483871 6.77419355,18.8387097 C6.77419355,18.5290323 7.04516129,18.2580645 7.35483871,18.2580645 L25.1225806,18.2580645 L21.483871,25.5354839 Z M27.2903226,7.22580645 L27.2903226,16.9032258 C27.2903226,17.2129032 27.0193548,17.483871 26.7096774,17.483871 L22.8387097,17.483871 C22.5290323,17.483871 22.2580645,17.2129032 22.2580645,16.9032258 L22.2580645,9.5483871 L23.4580645,9.5483871 C23.6129032,10.0903226 24.1548387,10.516129 24.7741935,10.516129 C25.5096774,10.516129 26.1290323,9.89677419 26.1290323,9.16129032 C26.1290323,8.42580645 25.5096774,7.80645161 24.7741935,7.80645161 C24.1548387,7.80645161 23.6516129,8.23225806 23.4580645,8.77419355 L22.2580645,8.77419355 L22.2580645,7.22580645 C22.2580645,6.91612903 22.5290323,6.64516129 22.8387097,6.64516129 L26.7096774,6.64516129 C27.0193548,6.64516129 27.2903226,6.91612903 27.2903226,7.22580645 Z M24.1935484,9.16129032 C24.1935484,8.8516129 24.4645161,8.58064516 24.7741935,8.58064516 C25.083871,8.58064516 25.3548387,8.8516129 25.3548387,9.16129032 C25.3548387,9.47096774 25.083871,9.74193548 24.7741935,9.74193548 C24.4645161,9.74193548 24.1935484,9.47096774 24.1935484,9.16129032 Z M29.2258065,5.29032258 C29.2258065,5.6 28.9548387,5.87096774 28.6451613,5.87096774 L26.7096774,5.87096774 L22.8387097,5.87096774 L20.9032258,5.87096774 C20.5935484,5.87096774 20.3225806,5.6 20.3225806,5.29032258 L20.3225806,3.35483871 C20.3225806,3.04516129 20.5935484,2.77419355 20.9032258,2.77419355 L28.6451613,2.77419355 C28.9548387,2.77419355 29.2258065,3.04516129 29.2258065,3.35483871 L29.2258065,5.29032258 Z" id="Shape" fill="#000000"></path>
        </g>
    </g>
</svg>