<?xml version="1.0" encoding="UTF-8"?>
<svg width="16px" height="16px" viewBox="0 0 16 16" version="1.1" xmlns="http://www.w3.org/2000/svg" xmlns:xlink="http://www.w3.org/1999/xlink">
    <!-- Generator: Sketch 63.1 (92452) - https://sketch.com -->
    <title>unselected</title>
    <desc>Created with Sketch.</desc>
    <g id="Page-1" stroke="none" stroke-width="1" fill="none" fill-rule="evenodd">
        <g id="iPhone-11-Pro-Copy-10" transform="translate(-20.000000, -274.000000)" fill="#A5A5A5" fill-rule="nonzero">
            <path d="M28,290 C23.58,290 20,286.42 20,282 C20,277.58 23.58,274 28,274 C32.42,274 36,277.58 36,282 C36,286.42 32.42,290 28,290 Z M32.2523186,279.504762 C31.9997728,279.27619 31.5999086,279.27619 31.3473628,279.504762 L27.3276756,283.238095 L25.5388096,281.561905 C25.2862638,281.333333 24.8863996,281.333333 24.6338538,281.561905 C24.381308,281.790476 24.381308,282.171429 24.6338538,282.4 L26.8857205,284.495238 C27.1382663,284.72381 27.5381304,284.72381 27.7906762,284.495238 L32.2733641,280.342857 C32.5048644,280.114286 32.5048644,279.733333 32.2523186,279.504762 Z" id="unselected"></path>
        </g>
    </g>
</svg>