<svg width="18" height="18" viewBox="0 0 18 18" fill="none" xmlns="http://www.w3.org/2000/svg">
<path d="M7.33268 2.33366C5.49173 2.33366 3.99935 3.82604 3.99935 5.66699C3.99935 7.50794 5.49173 9.00033 7.33268 9.00033C9.17363 9.00033 10.666 7.50794 10.666 5.66699C10.666 3.82604 9.17363 2.33366 7.33268 2.33366ZM2.33268 5.66699C2.33268 2.90557 4.57126 0.666992 7.33268 0.666992C10.0941 0.666992 12.3327 2.90557 12.3327 5.66699C12.3327 8.42842 10.0941 10.667 7.33268 10.667C4.57126 10.667 2.33268 8.42842 2.33268 5.66699ZM13.023 2.13146C13.3485 1.80602 13.8761 1.80602 14.2016 2.13146C16.1542 4.08408 16.1542 7.2499 14.2016 9.20253C13.8761 9.52796 13.3485 9.52796 13.023 9.20253C12.6976 8.87709 12.6976 8.34945 13.023 8.02401C14.3248 6.72227 14.3248 4.61172 13.023 3.30997C12.6976 2.98453 12.6976 2.4569 13.023 2.13146ZM13.6076 12.9649C13.7192 12.5184 14.1716 12.2469 14.6181 12.3585C15.7247 12.6352 16.4252 13.3428 16.828 14.1485C17.2179 14.9281 17.3327 15.7979 17.3327 16.5003C17.3327 16.9606 16.9596 17.3337 16.4993 17.3337C16.0391 17.3337 15.666 16.9606 15.666 16.5003C15.666 15.9527 15.5725 15.3642 15.3373 14.8938C15.1152 14.4496 14.774 14.1155 14.2139 13.9754C13.7674 13.8638 13.4959 13.4114 13.6076 12.9649ZM4.41602 14.0003C3.36647 14.0003 2.33268 15.0116 2.33268 16.5003C2.33268 16.9606 1.95959 17.3337 1.49935 17.3337C1.03911 17.3337 0.666016 16.9606 0.666016 16.5003C0.666016 14.3071 2.2439 12.3337 4.41602 12.3337H10.2493C12.4215 12.3337 13.9993 14.3071 13.9993 16.5003C13.9993 16.9606 13.6263 17.3337 13.166 17.3337C12.7058 17.3337 12.3327 16.9606 12.3327 16.5003C12.3327 15.0116 11.2989 14.0003 10.2493 14.0003H4.41602Z" fill="#A6AEC1"/>
</svg>
