<svg width="35" height="35" viewBox="0 0 35 35" fill="none" xmlns="http://www.w3.org/2000/svg">
<circle cx="17.5" cy="17.5" r="17.5" fill="#D6D6D6"/>
<path d="M17.5 11.1663C15.7511 11.1663 14.3333 12.5841 14.3333 14.333C14.3333 16.0819 15.7511 17.4997 17.5 17.4997C19.2489 17.4997 20.6667 16.0819 20.6667 14.333C20.6667 12.5841 19.2489 11.1663 17.5 11.1663ZM12.75 14.333C12.75 11.7097 14.8766 9.58301 17.5 9.58301C20.1234 9.58301 22.25 11.7097 22.25 14.333C22.25 16.9564 20.1234 19.083 17.5 19.083C14.8766 19.083 12.75 16.9564 12.75 14.333ZM14.3333 22.2497C13.0217 22.2497 11.9583 23.313 11.9583 24.6247C11.9583 25.0619 11.6039 25.4163 11.1667 25.4163C10.7294 25.4163 10.375 25.0619 10.375 24.6247C10.375 22.4385 12.1472 20.6663 14.3333 20.6663H20.6667C22.8528 20.6663 24.625 22.4385 24.625 24.6247C24.625 25.0619 24.2706 25.4163 23.8333 25.4163C23.3961 25.4163 23.0417 25.0619 23.0417 24.6247C23.0417 23.313 21.9783 22.2497 20.6667 22.2497H14.3333Z" fill="#828282"/>
</svg>
