<svg width="26" height="26" viewBox="0 0 26 26" fill="none" xmlns="http://www.w3.org/2000/svg">
<path d="M25.7744 12.7052C25.7744 13.4422 24.8323 14.0881 24.7094 14.7889C24.5827 15.511 25.2457 16.4388 25.0006 17.1121C24.7511 17.7975 23.6444 18.0821 23.2836 18.7023C22.9228 19.3224 23.2244 20.4312 22.7599 20.9844C22.2954 21.5377 21.1569 21.4291 20.602 21.8952C20.047 22.3613 19.9614 23.5024 19.3324 23.8664C18.7034 24.2305 17.679 23.7359 16.9936 23.9854C16.3201 24.2305 15.8474 25.2713 15.1257 25.3974C14.4232 25.5202 13.6248 24.7065 12.8877 24.7065C12.1507 24.7065 11.3523 25.5202 10.6498 25.3974C9.92753 25.2713 9.45482 24.2305 8.78139 23.9854C8.0959 23.7359 7.06547 24.2267 6.4425 23.8664C5.81953 23.5062 5.72575 22.3635 5.17243 21.899C4.6191 21.4346 3.48064 21.5432 3.01615 20.9883C2.55167 20.4334 2.85602 19.3351 2.49189 18.7061C2.12776 18.0772 1.0244 17.7986 0.774877 17.116C0.529746 16.4426 1.19275 15.5149 1.06662 14.7927C0.942685 14.0881 0 13.4422 0 12.7052C0 11.9683 0.942685 11.3218 1.06552 10.6216C1.19165 9.89943 0.528649 8.97165 0.77378 8.29831C1.0233 7.6129 2.1305 7.32831 2.49079 6.70816C2.85109 6.088 2.55057 4.97489 3.01615 4.42163C3.48174 3.86836 4.618 3.97693 5.17243 3.50921C5.72685 3.04148 5.81295 1.90754 6.4425 1.54345C7.07206 1.17936 8.0959 1.67395 8.78139 1.42446C9.45482 1.17936 9.92588 0.139183 10.6498 0.0125193C11.3517 -0.109758 12.1502 0.703961 12.8872 0.703961C13.6242 0.703961 14.4227 -0.109758 15.1257 0.0125193C15.8485 0.139183 16.3207 1.17936 16.9941 1.42556C17.679 1.67505 18.7095 1.1843 19.3324 1.54455C19.9554 1.9048 20.0497 3.04642 20.6025 3.50921C21.1553 3.972 22.2943 3.86562 22.7604 4.41998C23.2266 4.97434 22.9206 6.07319 23.2842 6.70212C23.6477 7.33106 24.7516 7.60961 25.0012 8.29502C25.2463 8.96836 24.5833 9.89614 24.71 10.6183C24.8328 11.3218 25.7744 11.9677 25.7744 12.7052Z" fill="url(#paint0_linear)"/>
<path d="M14.976 25.1892C14.6979 25.1892 14.3815 25.0313 14.0437 24.8646C13.6691 24.6781 13.282 24.4851 12.8849 24.4851C12.4879 24.4851 12.1002 24.6781 11.7256 24.8646C11.3906 25.0291 11.0736 25.1892 10.7934 25.1892C10.7566 25.1891 10.7199 25.186 10.6837 25.1799C10.3667 25.125 10.0843 24.8267 9.78544 24.512C9.50411 24.2154 9.21237 23.9088 8.85317 23.7778C8.66888 23.7156 8.47512 23.6861 8.28065 23.6906C8.0688 23.6948 7.85735 23.7107 7.64726 23.7383C7.45481 23.7637 7.26113 23.7785 7.06706 23.7827C6.84113 23.7827 6.67661 23.7487 6.54938 23.6731C6.27519 23.514 6.11067 23.1406 5.94121 22.7453C5.7767 22.3669 5.60724 21.9776 5.31111 21.7276C5.01498 21.4776 4.5982 21.3778 4.19678 21.2813C3.77836 21.1804 3.38297 21.0855 3.18061 20.8426C2.97826 20.5997 2.95303 20.1978 2.92616 19.7695C2.90038 19.3566 2.87132 18.9295 2.67829 18.5923C2.48525 18.255 2.12989 18.0247 1.78879 17.7983C1.42795 17.5597 1.0874 17.3344 0.978272 17.0345C0.872433 16.7438 0.986498 16.3573 1.10769 15.9482C1.2256 15.549 1.34734 15.1367 1.27934 14.749C1.21408 14.3745 0.962917 14.0362 0.720528 13.7072C0.464978 13.3607 0.21875 13.03 0.21875 12.7054C0.21875 12.3808 0.463333 12.0474 0.722173 11.6998C0.964562 11.3708 1.21573 11.033 1.28098 10.6579C1.34898 10.2697 1.22615 9.85738 1.10934 9.45875C0.989788 9.0475 0.87682 8.66367 0.981562 8.37251C1.09124 8.07258 1.43124 7.84721 1.79209 7.60869C2.13483 7.38223 2.48909 7.14809 2.68158 6.81471C2.87406 6.48133 2.90367 6.05034 2.92945 5.63745C2.95687 5.20921 2.98429 4.80454 3.1839 4.56437C3.38352 4.3242 3.78165 4.2277 4.20007 4.12571C4.60149 4.0292 5.01663 3.92941 5.3144 3.67937C5.61218 3.42933 5.77999 3.04002 5.94451 2.66222C6.11615 2.26633 6.27848 1.89456 6.55267 1.7339C6.6799 1.66043 6.84442 1.62424 7.07035 1.62424C7.26442 1.62847 7.4581 1.64329 7.65055 1.66865C7.86064 1.69624 8.07209 1.71217 8.28394 1.71635C8.47841 1.7209 8.67217 1.6914 8.85646 1.62917C9.21566 1.49812 9.5074 1.19051 9.78873 0.894959C10.0876 0.580218 10.37 0.283025 10.687 0.227643C10.7232 0.221073 10.7599 0.21777 10.7967 0.217773C11.0742 0.217773 11.3911 0.375692 11.7289 0.542932C12.1035 0.729364 12.4907 0.921827 12.8882 0.921827C13.2858 0.921827 13.6724 0.729364 14.047 0.542932C14.3815 0.378982 14.6963 0.219418 14.976 0.219418C15.0127 0.219358 15.0495 0.222662 15.0856 0.229288C15.4026 0.284121 15.685 0.581863 15.9839 0.896604C16.2658 1.19325 16.557 1.49976 16.9162 1.63082C17.1017 1.6942 17.297 1.72427 17.4931 1.71964C17.7047 1.71546 17.916 1.69953 18.1259 1.67194C18.3184 1.64658 18.5121 1.63176 18.7061 1.62753C18.9321 1.62753 19.0966 1.66152 19.2238 1.73719C19.498 1.89621 19.6625 2.26962 19.8325 2.66551C19.997 3.04331 20.1665 3.43317 20.4626 3.68266C20.7588 3.93215 21.1755 4.03249 21.577 4.129C21.9948 4.22989 22.3902 4.32475 22.5931 4.56766C22.796 4.81057 22.8202 5.2125 22.847 5.64074C22.8728 6.05363 22.9019 6.48078 23.0949 6.818C23.2879 7.15522 23.6433 7.38552 23.9844 7.61198C24.3452 7.8505 24.6863 8.07587 24.7955 8.3758C24.8964 8.66367 24.7867 9.0475 24.6633 9.4593C24.5454 9.85793 24.4231 10.2703 24.4911 10.6585C24.5569 11.033 24.8075 11.3713 25.0499 11.7003C25.3088 12.0501 25.5533 12.3808 25.5533 12.7059C25.5533 13.0311 25.3088 13.3612 25.0499 13.7116C24.8075 14.0406 24.5564 14.3784 24.4911 14.7534C24.4231 15.1416 24.5459 15.554 24.6633 15.9531C24.7839 16.3622 24.8986 16.7488 24.7927 17.0394C24.683 17.3393 24.3425 17.5647 23.9816 17.8032C23.6389 18.0297 23.2852 18.2638 23.0922 18.5972C22.8991 18.9306 22.8701 19.3616 22.8443 19.7744C22.8174 20.2027 22.7922 20.6074 22.5904 20.8481C22.3886 21.0888 21.9921 21.1842 21.5737 21.2867C21.1722 21.3832 20.7571 21.483 20.4599 21.7331C20.1627 21.9831 19.9937 22.3724 19.8298 22.7508C19.6576 23.1461 19.4953 23.5184 19.2211 23.6785C19.0938 23.752 18.9293 23.7882 18.7034 23.7882C18.5093 23.7838 18.3156 23.7688 18.1232 23.7432C17.9133 23.7157 17.702 23.6997 17.4903 23.6955C17.2959 23.6909 17.1021 23.7204 16.9178 23.7827C16.5581 23.9138 16.2669 24.2214 15.9856 24.5169C15.6867 24.8317 15.4043 25.1289 15.0873 25.1848C15.0504 25.1894 15.0131 25.1909 14.976 25.1892Z" fill="url(#paint1_linear)"/>
<path d="M14.8471 23.7794C14.7747 23.7448 14.6985 23.707 14.6365 23.6763C14.1726 23.4454 13.5946 23.1576 12.886 23.1576C12.1775 23.1576 11.599 23.4454 11.135 23.6763C11.0731 23.707 10.9968 23.7448 10.925 23.7794C10.8647 23.7185 10.8016 23.6521 10.7506 23.5979C10.3991 23.2283 9.96257 22.7682 9.30943 22.5308C8.97987 22.4146 8.63228 22.3577 8.28285 22.363C8.02153 22.3664 7.76062 22.3847 7.50139 22.4179C7.41694 22.4277 7.33687 22.4365 7.26119 22.4436C7.2261 22.3674 7.1899 22.2841 7.16084 22.2172C6.95684 21.7473 6.70238 21.1622 6.16715 20.712C5.63192 20.2618 5.00895 20.1127 4.50937 19.9926C4.43862 19.9756 4.35143 19.9548 4.27027 19.9334C4.26369 19.8506 4.2582 19.7618 4.25327 19.6894C4.22146 19.1767 4.18143 18.5379 3.82991 17.9303C3.47839 17.3228 2.94974 16.9762 2.5209 16.6944C2.46003 16.6538 2.3838 16.6039 2.3147 16.5557C2.33609 16.4778 2.36077 16.395 2.38051 16.3276C2.52693 15.8341 2.70955 15.2178 2.58725 14.523C2.46716 13.8404 2.0937 13.331 1.78825 12.9214C1.74109 12.8583 1.68241 12.7788 1.63086 12.7053C1.68241 12.6318 1.74054 12.5523 1.78825 12.486C2.09096 12.0764 2.46716 11.5675 2.58725 10.8843C2.70845 10.1896 2.52693 9.57436 2.38051 9.07977C2.36077 9.01233 2.33609 8.92953 2.3147 8.85167C2.3838 8.80341 2.46003 8.75352 2.5209 8.71294C2.94755 8.4311 3.47839 8.08017 3.82772 7.47646C4.17704 6.87275 4.21927 6.23066 4.25107 5.71797C4.25601 5.64559 4.26149 5.55676 4.26807 5.47396C4.34924 5.45258 4.43643 5.43174 4.50717 5.41474C5.00676 5.29466 5.62808 5.14497 6.16496 4.69424C6.70183 4.24352 6.95464 3.659 7.15864 3.18908C7.18771 3.12218 7.2239 3.03939 7.259 2.96262C7.33303 2.96975 7.41474 2.97907 7.4992 2.98839C7.75842 3.02153 8.01934 3.03984 8.28065 3.04323C8.63009 3.04851 8.97768 2.9917 9.30724 2.87544C9.96038 2.63801 10.3969 2.17796 10.7484 1.80839C10.7994 1.75356 10.8625 1.68776 10.9228 1.62744C10.9952 1.66144 11.0709 1.69927 11.1328 1.72998C11.5968 1.96137 12.1748 2.2487 12.8839 2.2487C13.5929 2.2487 14.1704 1.96137 14.6343 1.72998C14.6963 1.69927 14.7725 1.66144 14.8449 1.62744C14.9047 1.68776 14.9683 1.75411 15.0193 1.80839C15.3703 2.17796 15.8073 2.63801 16.4599 2.87598C16.7899 2.99085 17.1377 3.04654 17.487 3.04048C17.7484 3.03706 18.0093 3.01875 18.2685 2.98565C18.3524 2.97633 18.433 2.96701 18.5087 2.95988C18.5438 3.03665 18.5794 3.11944 18.6085 3.18634C18.8131 3.65626 19.067 4.24187 19.6027 4.6915C20.1385 5.14113 20.7609 5.29466 21.26 5.412C21.3307 5.429 21.4185 5.44984 21.4991 5.47122C21.5062 5.55402 21.5117 5.64285 21.5161 5.71523C21.5484 6.22792 21.5885 6.86672 21.94 7.47427C22.2915 8.08181 22.8174 8.42836 23.2463 8.7102C23.3077 8.75077 23.3834 8.80067 23.4524 8.84893C23.4311 8.92679 23.4069 9.01013 23.3866 9.07703C23.2408 9.57052 23.0576 10.1868 23.1804 10.8816C23.3 11.5648 23.6767 12.0736 23.9795 12.4832C24.0261 12.5469 24.0853 12.6264 24.1368 12.7026C24.0853 12.7761 24.0272 12.8556 23.9795 12.9186C23.6767 13.3282 23.3 13.8371 23.1804 14.5203C23.0587 15.215 23.2408 15.8302 23.3866 16.3248C23.4069 16.3923 23.4311 16.4751 23.4524 16.5529C23.3834 16.6012 23.3077 16.6511 23.2463 16.6917C22.8218 16.9762 22.291 17.3272 21.9422 17.9303C21.5934 18.5335 21.5506 19.1761 21.5183 19.6888C21.5139 19.7612 21.5084 19.85 21.5013 19.9328C21.4201 19.9542 21.3329 19.9751 21.2622 19.9921C20.7631 20.1127 20.1413 20.2618 19.6049 20.7126C19.0686 21.1633 18.8153 21.7478 18.6107 22.2177C18.5816 22.2852 18.546 22.368 18.5109 22.4442C18.4363 22.437 18.3546 22.4283 18.2707 22.4184C18.0115 22.3853 17.7506 22.367 17.4892 22.3636C17.1396 22.3583 16.7919 22.4151 16.4621 22.5314C15.8095 22.7688 15.3725 23.2288 15.0215 23.599C14.9694 23.6521 14.9069 23.7185 14.8471 23.7794Z" fill="#D35946"/>
<path d="M14.7522 23.2393C14.2811 23.0063 13.6554 22.7157 12.8876 22.7157C12.1199 22.7157 11.492 23.0063 11.0231 23.2393C10.6645 22.8626 10.1797 22.3752 9.46404 22.1147C9.08594 21.9809 8.68713 21.9152 8.28609 21.9206C8.03622 21.9231 7.78667 21.9396 7.53864 21.9699C7.33025 21.4923 7.04015 20.8662 6.45447 20.3743C5.86878 19.8825 5.20084 19.7042 4.69303 19.5814C4.65958 19.0594 4.59926 18.3718 4.21593 17.7089C3.83261 17.046 3.26886 16.6555 2.83508 16.3682C2.9826 15.866 3.16028 15.2003 3.02812 14.4491C2.89595 13.6979 2.49289 13.126 2.18359 12.7076C2.49508 12.2854 2.8965 11.7206 3.02812 10.9655C3.15973 10.2105 2.9826 9.54592 2.83508 9.04639C3.26886 8.75852 3.83425 8.36537 4.21593 7.70518C4.59761 7.045 4.65958 6.35465 4.69303 5.83319C5.20084 5.71036 5.86824 5.53271 6.45501 5.04031C7.04179 4.54791 7.33244 3.92227 7.53864 3.44467C7.78667 3.47508 8.03621 3.49155 8.28609 3.49402C8.68713 3.49941 9.08594 3.43369 9.46404 3.29991C10.1802 3.03891 10.665 2.55145 11.0231 2.17529C11.4942 2.40888 12.1199 2.69949 12.8876 2.69949C13.6554 2.69949 14.2828 2.40833 14.7522 2.17529C15.1108 2.55199 15.5962 3.03946 16.3113 3.29991C16.6912 3.43266 17.0917 3.4969 17.4941 3.48964C17.7438 3.48714 17.9932 3.47066 18.241 3.44029C18.45 3.91788 18.7395 4.54407 19.3252 5.03592C19.9109 5.52777 20.5788 5.70598 21.0866 5.82935C21.1201 6.35081 21.1804 7.03842 21.5637 7.70134C21.9471 8.36427 22.5114 8.75468 22.9446 9.04201C22.7971 9.54428 22.6194 10.2099 22.7516 10.9612C22.8837 11.7124 23.2873 12.2843 23.5961 12.7032C23.2846 13.1249 22.8832 13.6902 22.7516 14.4447C22.6199 15.1992 22.7971 15.8643 22.9446 16.3638C22.5108 16.6517 21.946 17.0449 21.5637 17.705C21.1815 18.3652 21.1201 19.0556 21.0866 19.577C20.5788 19.6999 19.9114 19.8775 19.3252 20.3699C18.739 20.8623 18.4478 21.488 18.241 21.9656C17.9932 21.9352 17.7438 21.9187 17.4941 21.9162C17.0929 21.9109 16.6939 21.9766 16.3156 22.1103C15.5972 22.3757 15.1119 22.8654 14.7522 23.2393Z" fill="#C85441"/>
<path d="M12.8886 21.7195C17.8678 21.7195 21.9042 17.6835 21.9042 12.7049C21.9042 7.72637 17.8678 3.69043 12.8886 3.69043C7.90945 3.69043 3.87305 7.72637 3.87305 12.7049C3.87305 17.6835 7.90945 21.7195 12.8886 21.7195Z" fill="#F8A497"/>
<path d="M19.0831 18.9013C22.5056 15.4792 22.5056 9.93092 19.0831 6.50882C15.6606 3.08672 10.1117 3.08672 6.68916 6.50882C3.26667 9.93092 3.26667 15.4792 6.68916 18.9013C10.1117 22.3234 15.6606 22.3234 19.0831 18.9013Z" fill="url(#paint2_linear)"/>
<path d="M12.8902 20.9635C17.4517 20.9635 21.1495 17.2661 21.1495 12.7051C21.1495 8.14418 17.4517 4.44678 12.8902 4.44678C8.32868 4.44678 4.63086 8.14418 4.63086 12.7051C4.63086 17.2661 8.32868 20.9635 12.8902 20.9635Z" fill="url(#paint3_linear)"/>
<path d="M18.5783 17.3144L18.6485 17.724L18.2811 17.5315L17.9126 17.724L17.9828 17.3144L17.6855 17.0249L18.0963 16.9651L18.2811 16.5928L18.4648 16.9651L18.8756 17.0249L18.5783 17.3144Z" fill="url(#paint4_linear)"/>
<path d="M19.719 15.3603L19.7891 15.7699L19.4217 15.5774L19.0532 15.7699L19.1229 15.3603L18.8262 15.0713L19.2369 15.011L19.4217 14.6387L19.6054 15.011L20.0162 15.0713L19.719 15.3603Z" fill="url(#paint5_linear)"/>
<path d="M20.1824 13.0722L20.252 13.4813L19.8852 13.2888L19.5161 13.4813L19.5863 13.0722L19.2891 12.7827L19.6998 12.7224L19.8852 12.3501L20.0689 12.7224L20.4796 12.7827L20.1824 13.0722Z" fill="url(#paint6_linear)"/>
<path d="M19.8518 10.7339L19.922 11.1429L19.5545 10.9505L19.186 11.1429L19.2562 10.7339L18.959 10.4443L19.3697 10.384L19.5545 10.0117L19.7382 10.384L20.149 10.4443L19.8518 10.7339Z" fill="url(#paint7_linear)"/>
<path d="M18.8127 8.70695L18.8829 9.11655L18.5155 8.92409L18.147 9.11655L18.2172 8.70695L17.9199 8.41743L18.3307 8.35767L18.5155 7.98535L18.6992 8.35767L19.1099 8.41743L18.8127 8.70695Z" fill="url(#paint8_linear)"/>
<path d="M17.1994 7.13127L17.2696 7.54087L16.9022 7.34841L16.5337 7.54087L16.6039 7.13127L16.3066 6.8423L16.7174 6.78198L16.9022 6.40967L17.0859 6.78198L17.4967 6.8423L17.1994 7.13127Z" fill="url(#paint9_linear)"/>
<path d="M15.1447 6.14299L15.2149 6.55259L14.8475 6.36012L14.479 6.55259L14.5492 6.14299L14.252 5.85347L14.6627 5.7937L14.8475 5.42139L15.0312 5.7937L15.442 5.85347L15.1447 6.14299Z" fill="url(#paint10_linear)"/>
<path d="M12.7932 5.87492L12.8634 6.28452L12.4959 6.09206L12.1274 6.28452L12.1976 5.87492L11.9004 5.5854L12.3111 5.52563L12.4959 5.15332L12.6797 5.52563L13.0904 5.5854L12.7932 5.87492Z" fill="url(#paint11_linear)"/>
<path d="M10.5119 6.39353L10.5821 6.80314L10.2147 6.61012L9.84617 6.80314L9.91637 6.39353L9.61914 6.10402L10.0299 6.04425L10.2147 5.67139L10.3984 6.04425L10.8091 6.10402L10.5119 6.39353Z" fill="url(#paint12_linear)"/>
<path d="M8.58614 7.58836L8.65633 7.99741L8.28891 7.80495L7.92039 7.99741L7.99059 7.58836L7.69336 7.29884L8.1041 7.23853L8.28891 6.86621L8.47262 7.23853L8.88337 7.29884L8.58614 7.58836Z" fill="url(#paint13_linear)"/>
<path d="M7.14864 9.32414L7.21884 9.73374L6.85141 9.54128L6.48289 9.73374L6.55309 9.32414L6.25586 9.03462L6.6666 8.97485L6.85141 8.60254L7.03512 8.97485L7.44587 9.03462L7.14864 9.32414Z" fill="url(#paint14_linear)"/>
<path d="M6.32247 11.4687L6.39266 11.8783L6.02524 11.6858L5.65672 11.8783L5.72692 11.4687L5.42969 11.1792L5.84043 11.1194L6.02524 10.7471L6.20895 11.1194L6.6197 11.1792L6.32247 11.4687Z" fill="url(#paint15_linear)"/>
<path d="M6.25997 13.8495L6.33016 14.2591L5.96274 14.0667L5.59422 14.2591L5.66442 13.8495L5.36719 13.56L5.77793 13.5002L5.96274 13.1279L6.14645 13.5002L6.5572 13.56L6.25997 13.8495Z" fill="url(#paint16_linear)"/>
<path d="M6.95723 16.0512L7.02743 16.4603L6.66001 16.2678L6.29149 16.4603L6.36168 16.0512L6.06445 15.7617L6.4752 15.7014L6.66001 15.3291L6.84372 15.7014L7.25446 15.7617L6.95723 16.0512Z" fill="url(#paint17_linear)"/>
<path d="M8.30098 17.8671L8.37118 18.2767L8.00376 18.0842L7.63524 18.2767L7.70543 17.8671L7.4082 17.5776L7.81895 17.5178L8.00376 17.1455L8.18747 17.5178L8.59821 17.5776L8.30098 17.8671Z" fill="url(#paint18_linear)"/>
<path d="M10.1506 19.167L10.2208 19.576L9.85337 19.3836L9.48485 19.576L9.55504 19.167L9.25781 18.8775L9.66856 18.8171L9.85337 18.4448L10.0371 18.8171L10.4478 18.8775L10.1506 19.167Z" fill="url(#paint19_linear)"/>
<path d="M12.3777 19.8125L12.4479 20.2221L12.0799 20.0291L11.7114 20.2221L11.7816 19.8125L11.4844 19.523L11.8951 19.4632L12.0799 19.0903L12.2636 19.4632L12.6744 19.523L12.3777 19.8125Z" fill="url(#paint20_linear)"/>
<path d="M14.758 19.6806L14.8282 20.0902L14.4608 19.8972L14.0923 20.0902L14.1625 19.6806L13.8652 19.3911L14.276 19.3314L14.4608 18.9585L14.6445 19.3314L15.0552 19.3911L14.758 19.6806Z" fill="url(#paint21_linear)"/>
<path d="M16.8777 18.8032L16.9479 19.2123L16.5805 19.0198L16.212 19.2123L16.2816 18.8032L15.9844 18.5137L16.3957 18.4534L16.5805 18.0811L16.7642 18.4534L17.1749 18.5137L16.8777 18.8032Z" fill="url(#paint22_linear)"/>
<path d="M18.5783 17.3144L18.6485 17.724L18.2811 17.5315L17.9126 17.724L17.9828 17.3144L17.6855 17.0249L18.0963 16.9651L18.2811 16.5928L18.4648 16.9651L18.8756 17.0249L18.5783 17.3144Z" fill="url(#paint23_linear)"/>
<defs>
<linearGradient id="paint0_linear" x1="-4.17271" y1="44.6289" x2="16.4733" y2="5.98677" gradientUnits="userSpaceOnUse">
<stop stop-color="#FF6046"/>
<stop offset="0.07" stop-color="#AC301C"/>
<stop offset="0.19" stop-color="#FF5D43"/>
<stop offset="0.4" stop-color="#FF5F45"/>
<stop offset="0.56" stop-color="#FFBEB4"/>
<stop offset="0.68" stop-color="#FF5D43"/>
<stop offset="0.75" stop-color="#AB2F1B"/>
<stop offset="0.88" stop-color="#FF5C42"/>
<stop offset="0.97" stop-color="#FFBCB1"/>
<stop offset="1" stop-color="#FF5F45"/>
</linearGradient>
<linearGradient id="paint1_linear" x1="37.2977" y1="-28.014" x2="3.87068" y2="27.7582" gradientUnits="userSpaceOnUse">
<stop offset="0.1" stop-color="#C55745"/>
<stop offset="0.5" stop-color="#A02D1A"/>
<stop offset="0.64" stop-color="#752113"/>
<stop offset="0.8" stop-color="#52150B"/>
<stop offset="0.92" stop-color="#360C06"/>
<stop offset="1" stop-color="#2E0802"/>
</linearGradient>
<linearGradient id="paint2_linear" x1="7610.96" y1="-1780.7" x2="1056.2" y2="9207.69" gradientUnits="userSpaceOnUse">
<stop offset="0.1" stop-color="#BB4633"/>
<stop offset="0.5" stop-color="#BB4633"/>
<stop offset="0.64" stop-color="#781F11"/>
<stop offset="0.8" stop-color="#501309"/>
<stop offset="0.92" stop-color="#380D06"/>
<stop offset="1" stop-color="#2E0903"/>
</linearGradient>
<linearGradient id="paint3_linear" x1="-1.68167" y1="36.8447" x2="35.3" y2="-24.4336" gradientUnits="userSpaceOnUse">
<stop stop-color="#572720"/>
<stop offset="0.03" stop-color="#632E26"/>
<stop offset="0.07" stop-color="#753F37"/>
<stop offset="0.08" stop-color="#794239"/>
<stop offset="0.12" stop-color="#8C564E"/>
<stop offset="0.21" stop-color="#B37970"/>
<stop offset="0.3" stop-color="#D5988E"/>
<stop offset="0.38" stop-color="#F2B8AF"/>
<stop offset="0.45" stop-color="#FBC2B9"/>
<stop offset="0.51" stop-color="#FFC6BD"/>
<stop offset="0.52" stop-color="#F8BBB1"/>
<stop offset="0.54" stop-color="#D79B92"/>
<stop offset="0.57" stop-color="#BF8278"/>
<stop offset="0.59" stop-color="#AD7066"/>
<stop offset="0.63" stop-color="#9D5F55"/>
<stop offset="0.67" stop-color="#95564C"/>
<stop offset="0.72" stop-color="#8D4D43"/>
<stop offset="0.88" stop-color="#8D4B41"/>
<stop offset="1" stop-color="#C0A47A"/>
<stop offset="1" stop-color="#5C231A"/>
</linearGradient>
<linearGradient id="paint4_linear" x1="484.622" y1="223.897" x2="323.699" y2="594.212" gradientUnits="userSpaceOnUse">
<stop offset="0.1" stop-color="#BA903F"/>
<stop offset="0.5" stop-color="#996019"/>
<stop offset="0.64" stop-color="#6F4411"/>
<stop offset="0.8" stop-color="#472A09"/>
<stop offset="0.92" stop-color="#2E1904"/>
<stop offset="1" stop-color="#251302"/>
</linearGradient>
<linearGradient id="paint5_linear" x1="377.436" y1="174.873" x2="216.514" y2="545.177" gradientUnits="userSpaceOnUse">
<stop offset="0.1" stop-color="#BD5342"/>
<stop offset="0.5" stop-color="#A42F1D"/>
<stop offset="0.64" stop-color="#752013"/>
<stop offset="0.8" stop-color="#4F150B"/>
<stop offset="0.92" stop-color="#360C05"/>
<stop offset="1" stop-color="#2C0803"/>
</linearGradient>
<linearGradient id="paint6_linear" x1="378.064" y1="172.585" x2="217.192" y2="542.943" gradientUnits="userSpaceOnUse">
<stop offset="0.1" stop-color="#BD5342"/>
<stop offset="0.5" stop-color="#A42F1D"/>
<stop offset="0.64" stop-color="#752013"/>
<stop offset="0.8" stop-color="#4F150B"/>
<stop offset="0.92" stop-color="#360C05"/>
<stop offset="1" stop-color="#2C0803"/>
</linearGradient>
<linearGradient id="paint7_linear" x1="377.569" y1="170.246" x2="216.646" y2="540.551" gradientUnits="userSpaceOnUse">
<stop offset="0.1" stop-color="#BD5342"/>
<stop offset="0.5" stop-color="#A42F1D"/>
<stop offset="0.64" stop-color="#752013"/>
<stop offset="0.8" stop-color="#4F150B"/>
<stop offset="0.92" stop-color="#360C05"/>
<stop offset="1" stop-color="#2C0803"/>
</linearGradient>
<linearGradient id="paint8_linear" x1="376.529" y1="168.22" x2="215.607" y2="538.524" gradientUnits="userSpaceOnUse">
<stop offset="0.1" stop-color="#BD5342"/>
<stop offset="0.5" stop-color="#A42F1D"/>
<stop offset="0.64" stop-color="#752013"/>
<stop offset="0.8" stop-color="#4F150B"/>
<stop offset="0.92" stop-color="#360C05"/>
<stop offset="1" stop-color="#2C0803"/>
</linearGradient>
<linearGradient id="paint9_linear" x1="374.916" y1="166.644" x2="213.994" y2="536.948" gradientUnits="userSpaceOnUse">
<stop offset="0.1" stop-color="#BD5342"/>
<stop offset="0.5" stop-color="#A42F1D"/>
<stop offset="0.64" stop-color="#752013"/>
<stop offset="0.8" stop-color="#4F150B"/>
<stop offset="0.92" stop-color="#360C05"/>
<stop offset="1" stop-color="#2C0803"/>
</linearGradient>
<linearGradient id="paint10_linear" x1="372.861" y1="165.656" x2="211.938" y2="535.96" gradientUnits="userSpaceOnUse">
<stop offset="0.1" stop-color="#BD5342"/>
<stop offset="0.5" stop-color="#A42F1D"/>
<stop offset="0.64" stop-color="#752013"/>
<stop offset="0.8" stop-color="#4F150B"/>
<stop offset="0.92" stop-color="#360C05"/>
<stop offset="1" stop-color="#2C0803"/>
</linearGradient>
<linearGradient id="paint11_linear" x1="370.51" y1="165.388" x2="209.587" y2="535.692" gradientUnits="userSpaceOnUse">
<stop offset="0.1" stop-color="#BD5342"/>
<stop offset="0.5" stop-color="#A42F1D"/>
<stop offset="0.64" stop-color="#752013"/>
<stop offset="0.8" stop-color="#4F150B"/>
<stop offset="0.92" stop-color="#360C05"/>
<stop offset="1" stop-color="#2C0803"/>
</linearGradient>
<linearGradient id="paint12_linear" x1="368.228" y1="165.984" x2="207.175" y2="536.41" gradientUnits="userSpaceOnUse">
<stop offset="0.1" stop-color="#BD5342"/>
<stop offset="0.5" stop-color="#A42F1D"/>
<stop offset="0.64" stop-color="#752013"/>
<stop offset="0.8" stop-color="#4F150B"/>
<stop offset="0.92" stop-color="#360C05"/>
<stop offset="1" stop-color="#2C0803"/>
</linearGradient>
<linearGradient id="paint13_linear" x1="366.303" y1="167.101" x2="205.38" y2="537.405" gradientUnits="userSpaceOnUse">
<stop offset="0.1" stop-color="#BD5342"/>
<stop offset="0.5" stop-color="#A42F1D"/>
<stop offset="0.64" stop-color="#752013"/>
<stop offset="0.8" stop-color="#4F150B"/>
<stop offset="0.92" stop-color="#360C05"/>
<stop offset="1" stop-color="#2C0803"/>
</linearGradient>
<linearGradient id="paint14_linear" x1="364.865" y1="168.837" x2="203.943" y2="539.142" gradientUnits="userSpaceOnUse">
<stop offset="0.1" stop-color="#BD5342"/>
<stop offset="0.5" stop-color="#A42F1D"/>
<stop offset="0.64" stop-color="#752013"/>
<stop offset="0.8" stop-color="#4F150B"/>
<stop offset="0.92" stop-color="#360C05"/>
<stop offset="1" stop-color="#2C0803"/>
</linearGradient>
<linearGradient id="paint15_linear" x1="364.039" y1="170.982" x2="203.117" y2="541.286" gradientUnits="userSpaceOnUse">
<stop offset="0.1" stop-color="#BD5342"/>
<stop offset="0.5" stop-color="#A42F1D"/>
<stop offset="0.64" stop-color="#752013"/>
<stop offset="0.8" stop-color="#4F150B"/>
<stop offset="0.92" stop-color="#360C05"/>
<stop offset="1" stop-color="#2C0803"/>
</linearGradient>
<linearGradient id="paint16_linear" x1="363.977" y1="173.362" x2="203.054" y2="543.667" gradientUnits="userSpaceOnUse">
<stop offset="0.1" stop-color="#BD5342"/>
<stop offset="0.5" stop-color="#A42F1D"/>
<stop offset="0.64" stop-color="#752013"/>
<stop offset="0.8" stop-color="#4F150B"/>
<stop offset="0.92" stop-color="#360C05"/>
<stop offset="1" stop-color="#2C0803"/>
</linearGradient>
<linearGradient id="paint17_linear" x1="364.674" y1="175.564" x2="203.751" y2="545.868" gradientUnits="userSpaceOnUse">
<stop offset="0.1" stop-color="#BD5342"/>
<stop offset="0.5" stop-color="#A42F1D"/>
<stop offset="0.64" stop-color="#752013"/>
<stop offset="0.8" stop-color="#4F150B"/>
<stop offset="0.92" stop-color="#360C05"/>
<stop offset="1" stop-color="#2C0803"/>
</linearGradient>
<linearGradient id="paint18_linear" x1="366.017" y1="177.38" x2="205.095" y2="547.684" gradientUnits="userSpaceOnUse">
<stop offset="0.1" stop-color="#BD5342"/>
<stop offset="0.5" stop-color="#A42F1D"/>
<stop offset="0.64" stop-color="#752013"/>
<stop offset="0.8" stop-color="#4F150B"/>
<stop offset="0.92" stop-color="#360C05"/>
<stop offset="1" stop-color="#2C0803"/>
</linearGradient>
<linearGradient id="paint19_linear" x1="367.867" y1="178.68" x2="206.944" y2="548.984" gradientUnits="userSpaceOnUse">
<stop offset="0.1" stop-color="#BD5342"/>
<stop offset="0.5" stop-color="#A42F1D"/>
<stop offset="0.64" stop-color="#752013"/>
<stop offset="0.8" stop-color="#4F150B"/>
<stop offset="0.92" stop-color="#360C05"/>
<stop offset="1" stop-color="#2C0803"/>
</linearGradient>
<linearGradient id="paint20_linear" x1="370.094" y1="179.403" x2="209.04" y2="549.83" gradientUnits="userSpaceOnUse">
<stop offset="0.1" stop-color="#BD5342"/>
<stop offset="0.5" stop-color="#A42F1D"/>
<stop offset="0.64" stop-color="#752013"/>
<stop offset="0.8" stop-color="#4F150B"/>
<stop offset="0.92" stop-color="#360C05"/>
<stop offset="1" stop-color="#2C0803"/>
</linearGradient>
<linearGradient id="paint21_linear" x1="372.475" y1="179.271" x2="211.421" y2="549.697" gradientUnits="userSpaceOnUse">
<stop offset="0.1" stop-color="#BD5342"/>
<stop offset="0.5" stop-color="#A42F1D"/>
<stop offset="0.64" stop-color="#752013"/>
<stop offset="0.8" stop-color="#4F150B"/>
<stop offset="0.92" stop-color="#360C05"/>
<stop offset="1" stop-color="#2C0803"/>
</linearGradient>
<linearGradient id="paint22_linear" x1="374.759" y1="178.316" x2="213.887" y2="548.674" gradientUnits="userSpaceOnUse">
<stop offset="0.1" stop-color="#BD5342"/>
<stop offset="0.5" stop-color="#A42F1D"/>
<stop offset="0.64" stop-color="#752013"/>
<stop offset="0.8" stop-color="#4F150B"/>
<stop offset="0.92" stop-color="#360C05"/>
<stop offset="1" stop-color="#2C0803"/>
</linearGradient>
<linearGradient id="paint23_linear" x1="376.295" y1="176.827" x2="215.373" y2="547.132" gradientUnits="userSpaceOnUse">
<stop offset="0.1" stop-color="#BD5342"/>
<stop offset="0.5" stop-color="#A42F1D"/>
<stop offset="0.64" stop-color="#752013"/>
<stop offset="0.8" stop-color="#4F150B"/>
<stop offset="0.92" stop-color="#360C05"/>
<stop offset="1" stop-color="#2C0803"/>
</linearGradient>
</defs>
</svg>
