<svg width="38" height="38" viewBox="0 0 38 38" fill="none" xmlns="http://www.w3.org/2000/svg">
<circle cx="18.2083" cy="18.2083" r="8.70833" fill="white"/>
<path d="M34.8327 19C34.8327 17.4167 33.3443 16.4667 32.1568 15.7542C31.7881 15.5459 31.4337 15.3131 31.096 15.0575C31.2146 14.6287 31.3681 14.2104 31.5552 13.8067C32.0777 12.54 32.7427 10.9725 31.8085 9.69004C30.8743 8.40754 29.1643 8.5342 27.7868 8.66087C27.3493 8.69167 26.9102 8.69167 26.4727 8.66087C26.3618 8.37587 26.2193 7.79004 26.1243 7.41004C25.8235 6.0642 25.4277 4.38587 23.8918 3.89504C22.356 3.4042 21.121 4.51254 20.0918 5.3992C19.7518 5.73774 19.3866 6.05002 18.9993 6.33337C18.6148 6.07538 18.2497 5.78961 17.9068 5.47837C16.8777 4.5917 15.5952 3.48337 14.1068 3.9742C12.6185 4.46504 12.1752 6.1117 11.8743 7.45754C11.7793 7.83754 11.6368 8.42337 11.526 8.70837C11.0885 8.73917 10.6494 8.73917 10.2118 8.70837C8.83435 8.5817 7.14018 8.4392 6.19018 9.73754C5.24018 11.0359 5.92102 12.5875 6.44352 13.8542C6.63057 14.2579 6.78414 14.6762 6.90268 15.105C6.565 15.3606 6.21059 15.5934 5.84185 15.8017C4.65435 16.4667 3.16602 17.4167 3.16602 19C3.16602 20.5834 4.65435 21.5334 5.84185 22.2459C6.21059 22.4542 6.565 22.6869 6.90268 22.9425C6.78414 23.3714 6.63057 23.7897 6.44352 24.1934C5.92102 25.46 5.25602 27.0275 6.19018 28.31C7.12435 29.5925 8.83435 29.4659 10.2118 29.3392C10.6494 29.3084 11.0885 29.3084 11.526 29.3392C11.6368 29.6242 11.7793 30.21 11.8743 30.59C12.1752 31.9359 12.571 33.6142 14.1068 34.105C15.6427 34.5959 16.8777 33.4875 17.9068 32.5217C18.2497 32.2105 18.6148 31.9247 18.9993 31.6667C19.3839 31.9247 19.749 32.2105 20.0918 32.5217C20.8969 33.3867 21.9767 33.9461 23.1477 34.105C23.4007 34.1002 23.6515 34.0575 23.8918 33.9784C25.4752 33.4875 25.8235 31.8092 26.1243 30.4634C26.2193 30.0834 26.3618 29.4975 26.4727 29.2125C26.9102 29.1817 27.3493 29.1817 27.7868 29.2125C29.1643 29.3392 30.8585 29.4817 31.8085 28.1834C32.7585 26.885 32.0777 25.3334 31.5552 24.0667C31.3681 23.663 31.2146 23.2447 31.096 22.8159C31.4337 22.5603 31.7881 22.3275 32.1568 22.1192C33.3443 21.5334 34.8327 20.5834 34.8327 19ZM24.9843 16.0234L18.651 23.94C18.5138 24.1147 18.3414 24.2585 18.145 24.3621C17.9486 24.4658 17.7326 24.527 17.511 24.5417H17.416C17.2076 24.5429 17.0011 24.503 16.8082 24.4242C16.6153 24.3454 16.4398 24.2293 16.2918 24.0825L13.1252 20.9159C12.827 20.6177 12.6595 20.2133 12.6595 19.7917C12.6595 19.3701 12.827 18.9657 13.1252 18.6675C13.4233 18.3694 13.8277 18.2019 14.2493 18.2019C14.671 18.2019 15.0754 18.3694 15.3735 18.6675L17.2893 20.5834L22.5143 14.06C22.7866 13.7716 23.1573 13.5958 23.5529 13.5676C23.9486 13.5393 24.3404 13.6606 24.651 13.9074C24.9615 14.1542 25.1681 14.5086 25.2298 14.9005C25.2915 15.2923 25.2039 15.693 24.9843 16.0234Z" fill="#90C63E"/>
</svg>
