<?xml version="1.0" encoding="UTF-8"?>
<svg width="20px" height="20px" viewBox="0 0 20 20" version="1.1" xmlns="http://www.w3.org/2000/svg" xmlns:xlink="http://www.w3.org/1999/xlink">
    <!-- Generator: Sketch 62 (91390) - https://sketch.com -->
    <title>verified</title>
    <desc>Created with Sketch.</desc>
    <g id="Page-1" stroke="none" stroke-width="1" fill="none" fill-rule="evenodd">
        <g id="iPhone-11-Pro" transform="translate(-45.000000, -73.000000)">
            <g id="verified" transform="translate(45.000000, 73.000000)">
                <rect id="Rectangle" fill="#FFFFFF" x="5" y="5" width="10" height="10"></rect>
                <path d="M10.4476167,0.219460152 L11.7251901,1.6853943 L13.6351178,0.87076648 C13.783661,0.808650456 13.9515391,0.812264934 14.0972724,0.880716835 C14.2430056,0.949168736 14.3530003,1.07607305 14.4000785,1.23007377 L14.9829528,3.11965399 L17.0551749,3.15627759 C17.2161519,3.159924 17.3681366,3.23126731 17.4738073,3.35278832 C17.579478,3.47430933 17.6290464,3.63475143 17.6103404,3.79471617 L17.3787741,5.76051308 L19.2590138,6.64145933 C19.5438419,6.77633883 19.66631,7.11596762 19.5331329,7.40164666 C19.2768266,7.93516354 18.8136938,8.62210365 18.5,9.15166123 L19.8606905,10.7264764 C19.96577,10.8486674 20.0148673,11.0093008 19.9960616,11.1693745 C19.9772558,11.3294482 19.892267,11.4743217 19.7617305,11.5688194 L18.1546203,12.7100902 L18.7602554,14.7045921 C18.8069064,14.8589916 18.7862303,15.0259145 18.7033185,15.1642582 C18.6204067,15.302602 18.4829632,15.3995119 18.3248315,15.4311253 L16.3980806,15.8171579 L16.1417742,17.8858969 C16.121519,18.0536623 16.0281514,18.2038895 15.8867054,18.2962992 C15.7452594,18.3887089 15.570206,18.4138469 15.4084808,18.3649732 L13.5282411,17.936378 L12.4604628,19.7180671 C12.3780519,19.8566753 12.2407219,19.953808 12.0826015,19.9853261 C11.9244812,20.0168442 11.7604158,19.9797886 11.6311782,19.8833682 L10.0527664,18.6955755 L8.35362346,19.8972258 C8.22172741,19.9897221 8.05672506,20.0217428 7.89981687,19.9852924 C7.74290867,19.9488421 7.60890498,19.8473612 7.53126599,19.7061892 L6.57135414,17.9819101 L4.53376805,18.377841 C4.36942187,18.408929 4.19971191,18.3663788 4.06945805,18.261428 C3.93920419,18.1564772 3.86150542,17.99968 3.85688176,17.8324462 L3.68073299,15.8973339 L1.6619493,15.4281558 C1.50456826,15.3911926 1.37006872,15.2895583 1.29151097,15.1482349 C1.21295322,15.0069115 1.19762215,14.8390044 1.24928617,14.6857854 L1.88263007,12.8120424 L0.227029525,11.5609007 C0.0917486086,11.4580488 0.00888195535,11.3006102 0.000672445568,11.1308444 C-0.00753706421,10.9610785 0.059751514,10.7963754 0.184476731,10.6809443 L1.48975893,9.26252188 L0.485315085,7.43926009 C0.406961479,7.29760004 0.392047757,7.12943469 0.444247879,6.97619119 C0.496448002,6.82294768 0.610909208,6.69887223 0.759434242,6.63453054 L2.56446436,5.8555365 L2.38435719,3.77689928 C2.37018966,3.60746861 2.43170298,3.44045143 2.55237564,3.32070595 C2.6730483,3.20096047 2.84051042,3.14076152 3.00978429,3.15627759 L4.92663919,3.1820131 L5.60253589,1.21126705 C5.65619687,1.0530523 5.77653759,0.926341374 5.93175452,0.864621325 C6.08697144,0.802901276 6.26144291,0.812383859 6.40905976,0.890563025 L8.16757869,1.70618068 L9.58171687,0.182836544 C9.69492815,0.0601350463 9.85636838,-0.00654597129 10.0231491,0.000508089756 C10.1899298,0.0075621508 10.3451657,0.0876371253 10.4476167,0.219460152 L10.4476167,0.219460152 Z M5.33138553,10.2167153 C5.02456857,9.89703074 5.02908479,9.39079902 5.3415564,9.07664178 C5.65402802,8.76248454 6.16011346,8.75536016 6.48130055,9.06059712 L9.02754096,11.6212802 L13.4866779,6.6513576 C13.7917816,6.33901181 14.2889889,6.32326839 14.6132329,6.61568669 C14.9374768,6.908105 14.973119,7.40439691 14.6939897,7.74016757 L9.68859365,13.3188339 C9.54391527,13.4983964 9.32962529,13.6078263 9.09936871,13.6197291 C8.86911212,13.6316319 8.6446855,13.5448808 8.48227144,13.3811931 L5.33138553,10.2167153 Z" id="Path_874" fill="#28A300"></path>
            </g>
        </g>
    </g>
</svg>