<svg width="32" height="32" viewBox="0 0 32 32" fill="none" xmlns="http://www.w3.org/2000/svg">
<path d="M11.7324 20.597L13.3578 11.4541H15.8975L14.3229 20.597H11.7324Z" fill="#3C58BF"/>
<path d="M11.7324 20.597L13.815 11.4541H15.8975L14.3229 20.597H11.7324Z" fill="#293688"/>
<path d="M23.5175 11.5558C23.0096 11.3526 22.1969 11.1494 21.181 11.1494C18.6413 11.1494 16.8128 12.4193 16.8128 14.2478C16.8128 15.6193 18.0826 16.3304 19.0985 16.7875C20.1143 17.2446 20.4191 17.5494 20.4191 17.9558C20.4191 18.5653 19.6064 18.87 18.8953 18.87C17.8794 18.87 17.3207 18.7177 16.4572 18.3621L16.1016 18.2097L15.7461 20.2923C16.3556 20.5462 17.4731 20.8002 18.6413 20.8002C21.3334 20.8002 23.1112 19.5304 23.1112 17.6002C23.1112 16.5335 22.4509 15.7208 20.927 15.0605C20.0128 14.6034 19.454 14.3494 19.454 13.8923C19.454 13.4859 19.9112 13.0796 20.927 13.0796C21.7905 13.0796 22.4001 13.232 22.8572 13.4351L23.1112 13.5367L23.5175 11.5558Z" fill="#3C58BF"/>
<path d="M23.5175 11.5558C23.0096 11.3526 22.1969 11.1494 21.181 11.1494C18.6413 11.1494 17.2699 12.4193 17.2699 14.2478C17.2699 15.6193 18.0826 16.3304 19.0985 16.7875C20.1143 17.2446 20.4191 17.5494 20.4191 17.9558C20.4191 18.5653 19.6064 18.87 18.8953 18.87C17.8794 18.87 17.3207 18.7177 16.4572 18.3621L16.1016 18.2097L15.7461 20.2923C16.3556 20.5462 17.4731 20.8002 18.6413 20.8002C21.3334 20.8002 23.1112 19.5304 23.1112 17.6002C23.1112 16.5335 22.4509 15.7208 20.927 15.0605C20.0128 14.6034 19.454 14.3494 19.454 13.8923C19.454 13.4859 19.9112 13.0796 20.927 13.0796C21.7905 13.0796 22.4001 13.232 22.8572 13.4351L23.1112 13.5367L23.5175 11.5558Z" fill="#293688"/>
<path d="M27.886 11.4541C27.2765 11.4541 26.8194 11.5049 26.5654 12.1144L22.7559 20.597H25.4987L26.0067 19.0732H29.2574L29.5622 20.597H32.0003L29.867 11.4541H27.886ZM26.7178 17.5493C26.8701 17.0922 27.7336 14.8573 27.7336 14.8573C27.7336 14.8573 27.9368 14.2985 28.0892 13.943L28.2416 14.8065C28.2416 14.8065 28.7495 17.0922 28.8511 17.6001H26.7178V17.5493Z" fill="#3C58BF"/>
<path d="M28.4955 11.4541C27.886 11.4541 27.4289 11.5049 27.1749 12.1144L22.7559 20.597H25.4987L26.0067 19.0732H29.2574L29.5622 20.597H32.0003L29.867 11.4541H28.4955ZM26.7178 17.5493C26.9209 17.0414 27.7336 14.8573 27.7336 14.8573C27.7336 14.8573 27.9368 14.2985 28.0892 13.943L28.2416 14.8065C28.2416 14.8065 28.7495 17.0922 28.8511 17.6001H26.7178V17.5493Z" fill="#293688"/>
<path d="M7.05952 17.8541L6.80556 16.5335C6.34841 15.0096 4.8754 13.3335 3.25 12.5208L5.53571 20.6477H8.27857L12.3929 11.5049H9.65L7.05952 17.8541Z" fill="#3C58BF"/>
<path d="M7.05952 17.8541L6.80556 16.5335C6.34841 15.0096 4.8754 13.3335 3.25 12.5208L5.53571 20.6477H8.27857L12.3929 11.5049H10.1579L7.05952 17.8541Z" fill="#293688"/>
<path d="M0 11.4541L0.457143 11.5557C3.70794 12.3176 5.94286 14.2478 6.80635 16.5335L5.89206 12.216C5.73968 11.6065 5.28254 11.4541 4.72381 11.4541H0Z" fill="#FFBC00"/>
<path d="M0 11.4541C3.25079 12.216 5.94286 14.197 6.80635 16.4827L5.94286 12.8763C5.79048 12.2668 5.28254 11.9112 4.72381 11.9112L0 11.4541Z" fill="#F7981D"/>
<path d="M0 11.4541C3.25079 12.216 5.94286 14.197 6.80635 16.4827L6.19683 14.5017C6.04444 13.8922 5.84127 13.2827 5.13016 13.0287L0 11.4541Z" fill="#ED7C00"/>
<path d="M9.59919 17.5491L7.87221 15.8221L7.05951 17.7523L6.85634 16.4824C6.39919 14.9586 4.92618 13.2824 3.30078 12.4697L5.58649 20.5967H8.32935L9.59919 17.5491Z" fill="#051244"/>
<path d="M14.323 20.5968L12.1389 18.3619L11.7325 20.5968H14.323Z" fill="#051244"/>
<path d="M20.1642 17.4476C20.3673 17.6507 20.4689 17.8031 20.4181 18.0063C20.4181 18.6158 19.6054 18.9206 18.8943 18.9206C17.8785 18.9206 17.3197 18.7682 16.4562 18.4126L16.1007 18.2603L15.7451 20.3428C16.3546 20.5968 17.4721 20.8507 18.6404 20.8507C20.2658 20.8507 21.5864 20.3936 22.3483 19.5809L20.1642 17.4476Z" fill="#051244"/>
<path d="M23.11 20.5968H25.4973L26.0053 19.073H29.2561L29.5608 20.5968H31.9989L31.1354 16.8888L28.0878 13.9428L28.2402 14.7555C28.2402 14.7555 28.7481 17.0412 28.8497 17.5492H26.7164C26.9196 17.0412 27.7323 14.8571 27.7323 14.8571C27.7323 14.8571 27.9354 14.2984 28.0878 13.9428" fill="#051244"/>
</svg>
