<?xml version="1.0" encoding="UTF-8"?>
<svg width="20px" height="15px" viewBox="0 0 20 15" version="1.1" xmlns="http://www.w3.org/2000/svg" xmlns:xlink="http://www.w3.org/1999/xlink">
    <!-- Generator: Sketch 62 (91390) - https://sketch.com -->
    <title>wallet</title>
    <desc>Created with Sketch.</desc>
    <g id="Page-1" stroke="none" stroke-width="1" fill="none" fill-rule="evenodd">
        <g id="iPhone-11-Pro" transform="translate(-338.000000, -65.000000)" fill="#000000" fill-rule="nonzero">
            <path d="M338.728467,66.3606805 L338.731452,66.3616658 C339.106162,66.7077056 339.600351,66.8987644 340.112753,66.895691 L355.537941,66.895691 C356.494696,66.8973181 357.26989,67.6648103 357.271533,68.6120599 L357.271533,71.0683789 L354.819426,71.0683789 C353.57215,71.0705482 352.561578,72.0710797 352.559387,73.3059643 L352.559387,73.4783894 C352.561578,74.713274 353.57215,75.7138055 354.819426,75.7159748 L357.272528,75.7159748 L357.272528,77.9348397 C357.270342,79.0737297 356.338951,79.9967481 355.188635,80 L339.515649,80 C338.679487,79.9978342 338.002187,79.3272637 338,78.4994088 L338,66.6759721 C338,66.505299 338.102144,66.3508428 338.260096,66.2824786 C338.418048,66.2141144 338.601896,66.2448107 338.728467,66.3606805 Z M345.226949,68.1765633 C342.189593,68.1771074 339.727621,70.6150611 339.727621,73.6222412 C339.728171,76.6291336 342.190547,79.0663112 345.227621,79.0659485 C348.264678,79.0655857 350.726461,76.62782 350.726277,73.6209275 C350.726094,70.6140351 348.264015,68.1765633 345.226949,68.1765633 Z M345.572274,69.5195087 C345.667359,69.5195087 345.744439,69.5958238 345.744439,69.6899632 L345.744439,69.6899632 L345.744439,70.3678403 L345.752377,70.4046599 C345.762997,70.4271353 345.783486,70.4444624 345.809126,70.4506043 C346.545955,70.6314719 347.094239,71.2428494 347.188436,71.9886364 C347.196272,72.0377304 347.182074,72.0877651 347.14956,72.1256359 C347.117047,72.1635067 347.069458,72.1854409 347.019257,72.1856936 L347.019257,72.1856936 L346.382346,72.1856936 L346.327573,72.1772332 C346.275626,72.1602032 346.233903,72.118755 346.218142,72.0645034 C345.945464,71.1708487 344.297457,71.106805 344.297457,72.1906201 C344.297457,72.7285864 344.841817,72.9305702 345.45982,73.1552154 C346.274867,73.4508014 347.220282,73.7818576 347.220282,74.9681424 C347.215804,75.8169455 346.631554,76.5551022 345.800169,76.7623489 C345.763261,76.7726159 345.737941,76.8061747 345.738468,76.8441277 L345.738468,76.8441277 L345.738468,77.5525486 L345.729461,77.6062878 C345.706496,77.673846 345.64219,77.7225726 345.566303,77.7230032 L345.566303,77.7230032 L344.879634,77.7230032 L344.825216,77.7143133 C344.756801,77.6917641 344.707469,77.6278602 344.707469,77.5525486 L344.707469,77.5525486 L344.707469,76.8746716 L344.699321,76.8379777 C344.688654,76.8155738 344.668282,76.7982639 344.642783,76.7919075 C343.905575,76.6119466 343.35717,75.999993 343.264467,75.2538755 C343.256276,75.2047217 343.270344,75.1544893 343.302933,75.1165307 C343.335521,75.0785721 343.383329,75.0567329 343.433647,75.0568182 L343.433647,75.0568182 L344.064587,75.0568182 L344.119359,75.0652786 C344.171307,75.0823086 344.213029,75.1237568 344.22879,75.1780084 C344.501468,76.0716632 346.149475,76.1357068 346.149475,75.0518917 C346.149475,74.4794404 345.532468,74.2873095 344.864706,74.0439438 C344.12084,73.7732493 343.316238,73.4397694 343.233604,72.4428308 L343.233604,72.4428308 L343.226651,72.2704283 L343.230631,72.2743694 L343.238124,72.1165947 C343.308772,71.3352279 343.87113,70.6741669 344.650744,70.4801629 C344.687652,70.4698959 344.712972,70.4363371 344.712445,70.3983841 L344.712445,70.3983841 L344.712445,69.6899632 L344.721222,69.6360864 C344.743997,69.5683503 344.808542,69.5195087 344.88461,69.5195087 L344.88461,69.5195087 Z M357.651689,71.9275486 C357.843829,71.9280898 357.999453,72.0821679 358,72.2723988 L358,74.515896 C357.999453,74.7061269 357.843829,74.860205 357.651689,74.8607462 L354.819426,74.8607462 C354.051092,74.8580439 353.428912,74.2420452 353.426183,73.4813452 L353.426183,73.3089201 C353.42782,72.5474507 354.050318,71.9302567 354.819426,71.9275486 L357.651689,71.9275486 Z M339.73,65 L353.038065,65.0403967 C353.038065,65.0403967 353.876001,65.1310431 354.132756,65.5005255 C354.389511,65.8700079 354.052147,66.5183263 354.052147,66.5183263 L339.730607,66.6779427 C339.730607,66.6779427 338.918545,66.4631503 338.952381,65.7783762 C338.990512,65.407005 339.261848,65.1053231 339.620528,65.0192182 L339.73,65 Z" id="wallet"></path>
        </g>
    </g>
</svg>