<svg width="40" height="39" viewBox="0 0 40 39" fill="none" xmlns="http://www.w3.org/2000/svg">
<path d="M34.8242 16.25C34.8242 27.625 20.1992 37.375 20.1992 37.375C20.1992 37.375 5.57422 27.625 5.57422 16.25C5.57422 12.3712 7.11506 8.65128 9.85778 5.90856C12.6005 3.16584 16.3204 1.625 20.1992 1.625C24.078 1.625 27.7979 3.16584 30.5407 5.90856C33.2834 8.65128 34.8242 12.3712 34.8242 16.25Z" stroke="#3D3D3E" stroke-width="3" stroke-linecap="round" stroke-linejoin="round"/>
<path d="M20.1992 21.125C22.8916 21.125 25.0742 18.9424 25.0742 16.25C25.0742 13.5576 22.8916 11.375 20.1992 11.375C17.5068 11.375 15.3242 13.5576 15.3242 16.25C15.3242 18.9424 17.5068 21.125 20.1992 21.125Z" stroke="#3D3D3E" stroke-width="3" stroke-linecap="round" stroke-linejoin="round"/>
</svg>
