<svg width="1607" height="28" viewBox="0 0 1607 28" fill="none" xmlns="http://www.w3.org/2000/svg">
<mask id="mask0" mask-type="alpha" maskUnits="userSpaceOnUse" x="0" y="0" width="1607" height="28">
<path fill-rule="evenodd" clip-rule="evenodd" d="M66.8515 0L33.4258 28L0 0H66.8515ZM267.738 0L234.313 28L200.887 0H267.738ZM100.388 28L133.814 0H66.9623L100.388 28ZM334.704 0L301.279 28L267.853 0H334.704ZM167.35 28L200.776 0H133.924L167.35 28ZM401.667 0L368.241 28L334.815 0H401.667ZM468.629 0L435.203 28L401.778 0H468.629ZM669.516 0L636.09 28L602.664 0H669.516ZM502.166 28L535.591 0H468.74L502.166 28ZM736.482 0L703.056 28L669.631 0H736.482ZM569.128 28L602.554 0H535.702L569.128 28ZM803.444 0L770.019 28L736.593 0H803.444ZM870.411 0L836.985 28L803.559 0H870.411ZM1071.3 0L1037.87 28L1004.45 0H1071.3ZM903.947 28L937.373 0H870.521L903.947 28ZM1138.26 0L1104.84 28L1071.41 0H1138.26ZM970.909 28L1004.34 0H937.484L970.909 28ZM1205.23 0L1171.8 28L1138.37 0H1205.23ZM1272.18 0L1238.76 28L1205.33 0H1272.18ZM1473.07 0L1439.65 28L1406.22 0H1473.07ZM1305.72 28L1339.15 0H1272.3L1305.72 28ZM1540.04 0L1506.61 28L1473.19 0H1540.04ZM1372.68 28L1406.11 0H1339.26L1372.68 28ZM1607 0L1573.57 28L1540.15 0H1607Z" fill="white"/>
</mask>
<g mask="url(#mask0)">
<rect x="138" y="-3" width="1367" height="31" fill="white"/>
</g>
</svg>
