<svg width="1399" height="28" viewBox="0 0 1399 28" fill="none" xmlns="http://www.w3.org/2000/svg">
<mask id="mask0" mask-type="alpha" maskUnits="userSpaceOnUse" x="0" y="0" width="1399" height="28">
<path fill-rule="evenodd" clip-rule="evenodd" d="M66.5187 28L33.2593 0L0 28H66.5187ZM266.405 28L233.146 0L199.887 28H266.405ZM99.8883 0L133.148 28H66.6289L99.8883 0ZM333.038 28L299.779 0L266.52 28H333.038ZM166.517 0L199.777 28H133.258L166.517 0ZM399.667 28L366.408 0L333.148 28H399.667ZM466.296 28L433.037 0L399.777 28H466.296ZM666.183 28L632.923 0L632.871 0.0444107L632.818 0L599.559 28H599.664H666.077H666.183ZM499.666 0L532.925 28H466.406L499.666 0ZM732.816 28L699.556 0L699.502 0.0460548L699.447 0L666.188 28H666.297H732.706H732.816ZM566.295 0L599.554 28H533.035L566.295 0ZM799.445 28L766.185 0L766.13 0.0460529L766.076 0L732.816 28H732.926H799.335H799.445ZM865.964 28L832.705 0L799.445 28H865.964ZM932.597 28L899.338 0L866.078 28H932.597ZM999.226 28L965.966 0L932.707 28H999.226ZM1065.85 28L1032.59 0L999.332 28H1065.85ZM1265.74 28L1232.48 0L1199.22 28H1265.74ZM1099.22 0L1132.48 28H1065.96L1099.22 0ZM1332.37 28L1299.11 0L1265.85 28H1332.37ZM1165.85 0L1199.11 28H1132.59L1165.85 0ZM1399 28L1365.74 0L1332.48 28H1399Z" fill="white"/>
</mask>
<g mask="url(#mask0)">
<rect width="1371" height="36" transform="matrix(1 0 0 -1 31 33)" fill="white"/>
</g>
</svg>
