<svg width="194" height="186" viewBox="0 0 194 186" fill="none" xmlns="http://www.w3.org/2000/svg">
<path d="M9.03651 32.0293C9.03651 33.9959 7.44419 35.5881 5.48249 35.5881C3.52078 35.5881 1.92846 33.9959 1.92846 32.0293C1.92846 30.0627 3.52078 28.4705 5.48249 28.4705C7.44419 28.4705 9.03651 30.0627 9.03651 32.0293Z" stroke="#FD6D6D" stroke-width="2.37255"/>
<mask id="path-2-inside-1" fill="white">
<ellipse cx="191.538" cy="123.373" rx="2.37015" ry="2.37255"/>
</mask>
<path d="M191.536 123.373C191.536 123.376 191.535 123.377 191.536 123.376C191.536 123.375 191.536 123.374 191.537 123.373C191.537 123.371 191.537 123.372 191.536 123.373C191.534 123.375 191.533 123.375 191.536 123.374C191.537 123.373 191.538 123.373 191.54 123.373C191.541 123.372 191.541 123.373 191.538 123.373V128.118C194.16 128.118 196.281 125.991 196.281 123.373H191.536ZM191.538 123.373C191.535 123.373 191.535 123.372 191.537 123.373C191.538 123.373 191.539 123.373 191.541 123.374C191.543 123.375 191.542 123.375 191.541 123.373C191.539 123.372 191.539 123.371 191.54 123.373C191.54 123.374 191.54 123.375 191.541 123.376C191.541 123.377 191.541 123.376 191.541 123.373H186.795C186.795 125.991 188.917 128.118 191.538 128.118V123.373ZM191.541 123.373C191.541 123.369 191.541 123.369 191.541 123.37C191.54 123.37 191.54 123.372 191.54 123.372C191.539 123.374 191.539 123.373 191.541 123.372C191.542 123.37 191.543 123.37 191.541 123.371C191.539 123.372 191.538 123.372 191.537 123.372C191.535 123.373 191.535 123.373 191.538 123.373V118.627C188.917 118.627 186.795 120.754 186.795 123.373H191.541ZM191.538 123.373C191.541 123.373 191.541 123.373 191.54 123.372C191.538 123.372 191.537 123.372 191.536 123.371C191.533 123.37 191.534 123.37 191.536 123.372C191.537 123.373 191.537 123.374 191.537 123.372C191.536 123.372 191.536 123.37 191.536 123.37C191.535 123.369 191.536 123.369 191.536 123.373H196.281C196.281 120.754 194.16 118.627 191.538 118.627V123.373Z" fill="#FD6D6D" mask="url(#path-2-inside-1)"/>
<ellipse cx="94.4358" cy="92.5294" rx="92.4358" ry="92.5294" fill="#FD6D6D" fill-opacity="0.05"/>
<ellipse cx="94.4369" cy="92.5293" rx="65.1791" ry="65.2451" fill="#FD6D6D" fill-opacity="0.1"/>
<ellipse cx="95.0328" cy="92.0784" rx="45.0328" ry="45.0784" fill="#FD6D6D" fill-opacity="0.15"/>
<circle cx="94.5" cy="92.5" r="22" stroke="#FD6D6D" stroke-width="3"/>
<path d="M87 100.5L102.5 85" stroke="#FD6D6D" stroke-width="3" stroke-linecap="round"/>
</svg>
