<svg width="194" height="186" viewBox="0 0 194 186" fill="none" xmlns="http://www.w3.org/2000/svg">
<path d="M9.03651 32.0293C9.03651 33.9959 7.44419 35.5881 5.48249 35.5881C3.52078 35.5881 1.92846 33.9959 1.92846 32.0293C1.92846 30.0627 3.52078 28.4705 5.48249 28.4705C7.44419 28.4705 9.03651 30.0627 9.03651 32.0293Z" stroke="#90C63E" stroke-width="2.37255"/>
<mask id="path-2-inside-1" fill="white">
<ellipse cx="191.538" cy="123.373" rx="2.37015" ry="2.37255"/>
</mask>
<path d="M191.536 123.373C191.536 123.376 191.535 123.377 191.536 123.376C191.536 123.375 191.536 123.374 191.537 123.373C191.537 123.371 191.537 123.372 191.536 123.373C191.534 123.375 191.533 123.375 191.536 123.374C191.537 123.373 191.538 123.373 191.54 123.373C191.541 123.372 191.541 123.373 191.538 123.373V128.118C194.16 128.118 196.281 125.991 196.281 123.373H191.536ZM191.538 123.373C191.535 123.373 191.535 123.372 191.537 123.373C191.538 123.373 191.539 123.373 191.541 123.374C191.543 123.375 191.542 123.375 191.541 123.373C191.539 123.372 191.539 123.371 191.54 123.373C191.54 123.374 191.54 123.375 191.541 123.376C191.541 123.377 191.541 123.376 191.541 123.373H186.795C186.795 125.991 188.917 128.118 191.538 128.118V123.373ZM191.541 123.373C191.541 123.369 191.541 123.369 191.541 123.37C191.54 123.37 191.54 123.372 191.54 123.372C191.539 123.374 191.539 123.373 191.541 123.372C191.542 123.37 191.543 123.37 191.541 123.371C191.539 123.372 191.538 123.372 191.537 123.372C191.535 123.373 191.535 123.373 191.538 123.373V118.627C188.917 118.627 186.795 120.754 186.795 123.373H191.541ZM191.538 123.373C191.541 123.373 191.541 123.373 191.54 123.372C191.538 123.372 191.537 123.372 191.536 123.371C191.533 123.37 191.534 123.37 191.536 123.372C191.537 123.373 191.537 123.374 191.537 123.372C191.536 123.372 191.536 123.37 191.536 123.37C191.535 123.369 191.536 123.369 191.536 123.373H196.281C196.281 120.754 194.16 118.627 191.538 118.627V123.373Z" fill="#90C63E" mask="url(#path-2-inside-1)"/>
<ellipse cx="94.4358" cy="92.5294" rx="92.4358" ry="92.5294" fill="#90C63E" fill-opacity="0.05"/>
<ellipse cx="94.4369" cy="92.5293" rx="65.1791" ry="65.2451" fill="#90C63E" fill-opacity="0.1"/>
<ellipse cx="94.6735" cy="92.1868" rx="45.0328" ry="45.0784" fill="#90C63E" fill-opacity="0.15"/>
<path d="M107.243 83.863C107.4 84.0191 107.525 84.2047 107.611 84.4093C107.696 84.6138 107.74 84.8332 107.74 85.0548C107.74 85.2764 107.696 85.4958 107.611 85.7004C107.525 85.9049 107.4 86.0906 107.243 86.2466L92.136 101.354C91.9791 101.509 91.7931 101.632 91.5886 101.716C91.3841 101.799 91.1651 101.842 90.9442 101.841H90.8435C90.6086 101.825 90.3796 101.76 90.1714 101.65C89.9631 101.54 89.7804 101.388 89.6349 101.203L82.9206 92.8098C82.7611 92.6408 82.6384 92.4405 82.5603 92.2215C82.4822 92.0026 82.4504 91.7698 82.467 91.538C82.4835 91.3062 82.5481 91.0803 82.6565 90.8747C82.7649 90.6691 82.9149 90.4882 83.0968 90.3436C83.2788 90.1989 83.4888 90.0937 83.7135 90.0345C83.9383 89.9752 84.1729 89.9633 84.4025 89.9995C84.6321 90.0357 84.8517 90.1191 85.0474 90.2446C85.2431 90.3701 85.4105 90.5348 85.5392 90.7284L91.0785 97.6441L104.86 83.863C105.016 83.7057 105.201 83.5808 105.406 83.4956C105.61 83.4104 105.83 83.3665 106.051 83.3665C106.273 83.3665 106.492 83.4104 106.697 83.4956C106.901 83.5808 107.087 83.7057 107.243 83.863ZM118.641 92.6084C118.641 97.2563 117.262 101.8 114.68 105.664C112.098 109.529 108.428 112.541 104.134 114.32C99.8396 116.098 95.1146 116.564 90.556 115.657C85.9975 114.75 81.8102 112.512 78.5236 109.225C75.2371 105.939 72.9989 101.752 72.0922 97.193C71.1854 92.6345 71.6508 87.9094 73.4295 83.6153C75.2081 79.3213 78.2202 75.6511 82.0847 73.0689C85.9493 70.4866 90.4928 69.1084 95.1406 69.1084C101.373 69.1084 107.351 71.5843 111.758 75.9914C116.165 80.3985 118.641 86.3758 118.641 92.6084ZM115.283 92.6084C115.283 88.6245 114.102 84.7301 111.889 81.4176C109.675 78.1051 106.53 75.5234 102.849 73.9988C99.1683 72.4743 95.1183 72.0754 91.211 72.8526C87.3036 73.6298 83.7145 75.5482 80.8975 78.3652C78.0805 81.1823 76.162 84.7714 75.3848 88.6787C74.6076 92.586 75.0065 96.6361 76.5311 100.317C78.0556 103.997 80.6374 107.143 83.9499 109.357C87.2623 111.57 91.1567 112.751 95.1406 112.751C100.483 112.751 105.606 110.629 109.384 106.852C113.161 103.074 115.283 97.9506 115.283 92.6084Z" fill="#90C63E"/>
</svg>
