<svg width="51" height="51" viewBox="0 0 51 51" fill="none" xmlns="http://www.w3.org/2000/svg">
<g clip-path="url(#clip0)">
<path d="M45.0192 34.0575C43.6484 37.7726 41.5752 41.0029 38.8566 43.6577C35.7621 46.6795 31.71 49.0806 26.8128 50.7934C26.6521 50.8494 26.4844 50.8953 26.3159 50.9292C26.0934 50.9732 25.8669 50.9969 25.6424 51H25.5984C25.3591 51 25.1187 50.9759 24.8802 50.9292C24.7117 50.8953 24.5463 50.8494 24.3864 50.7946C19.4834 49.0845 15.4262 46.6845 12.3286 43.6628C9.60879 41.0079 7.53605 37.7796 6.1672 34.0645C3.67813 27.3097 3.81976 19.8686 3.93377 13.8889L3.93572 13.797C3.95867 13.3033 3.97346 12.7846 3.98163 12.2119C4.02326 9.39984 6.25903 7.07341 9.07144 6.9166C14.9352 6.58937 19.4713 4.67695 23.3471 0.899181L23.381 0.868053C24.0245 0.27779 24.8354 -0.0117003 25.6424 0.000361872C26.4206 0.0104785 27.1957 0.299579 27.8163 0.868053L27.8494 0.899181C31.726 4.67695 36.2621 6.58937 42.1258 6.9166C44.9382 7.07341 47.174 9.39984 47.2156 12.2119C47.2238 12.7885 47.2386 13.3064 47.2615 13.797L47.2627 13.836C47.3763 19.8269 47.5172 27.2828 45.0192 34.0575Z" fill="#F3DD16"/>
<path d="M45.0174 34.0576C43.6466 37.7727 41.5735 41.003 38.8548 43.6578C35.7603 46.6796 31.7082 49.0807 26.811 50.7935C26.6503 50.8496 26.4826 50.8955 26.3142 50.9293C26.0916 50.9733 25.8651 50.997 25.6406 51.0001V0.000488281C26.4188 0.0106049 27.1939 0.299706 27.8145 0.86818L27.8476 0.899308C31.7242 4.67707 36.2603 6.5895 42.124 6.91673C44.9365 7.07354 47.1722 9.39996 47.2139 12.212C47.222 12.7886 47.2368 13.3065 47.2598 13.7972L47.2609 13.8361C47.3746 19.8271 47.5154 27.283 45.0174 34.0576Z" fill="#D9C511"/>
<path d="M38.3078 25.5004C38.3078 32.4936 32.6296 38.1862 25.6422 38.2111H25.5974C18.5894 38.2111 12.8867 32.5088 12.8867 25.5004C12.8867 18.4923 18.5894 12.79 25.5974 12.79H25.6422C32.6296 12.8149 38.3078 18.5075 38.3078 25.5004Z" fill="white"/>
<path d="M38.3062 25.5004C38.3062 32.4936 32.6281 38.1862 25.6406 38.2111V12.79C32.6281 12.8149 38.3062 18.5075 38.3062 25.5004Z" fill="#E1EBF0"/>
<path d="M19.03 31C18.946 31 18.876 30.972 18.82 30.916C18.764 30.8507 18.736 30.776 18.736 30.692C18.736 30.664 18.7453 30.622 18.764 30.566L22.138 22.866H17.742C17.6487 22.866 17.5693 22.8333 17.504 22.768C17.4387 22.7027 17.406 22.6233 17.406 22.53V21.55C17.406 21.4473 17.434 21.3633 17.49 21.298C17.5553 21.2327 17.6393 21.2 17.742 21.2H23.888C23.9907 21.2 24.07 21.2327 24.126 21.298C24.1913 21.3633 24.224 21.4473 24.224 21.55V22.418C24.224 22.6047 24.182 22.8053 24.098 23.02L20.752 30.664C20.6493 30.888 20.5 31 20.304 31H19.03ZM28.8856 31.154C28.1109 31.154 27.4436 31.0233 26.8836 30.762C26.3329 30.5007 25.9082 30.1553 25.6096 29.726C25.3202 29.2967 25.1662 28.8347 25.1476 28.34V28.312C25.1476 28.2373 25.1756 28.1767 25.2316 28.13C25.2876 28.0833 25.3576 28.06 25.4416 28.06H26.7436C26.9582 28.06 27.0982 28.1533 27.1636 28.34C27.2942 28.7507 27.5089 29.054 27.8076 29.25C28.1156 29.446 28.4749 29.544 28.8856 29.544C29.4082 29.544 29.8422 29.3853 30.1876 29.068C30.5422 28.7507 30.7196 28.3073 30.7196 27.738C30.7196 27.234 30.5422 26.8233 30.1876 26.506C29.8422 26.1887 29.4082 26.03 28.8856 26.03C28.6056 26.03 28.3769 26.0673 28.1996 26.142C28.0222 26.2167 27.8496 26.3193 27.6816 26.45C27.5696 26.534 27.4809 26.5947 27.4156 26.632C27.3596 26.66 27.2896 26.674 27.2056 26.674H25.9176C25.8336 26.674 25.7589 26.646 25.6936 26.59C25.6376 26.5247 25.6096 26.45 25.6096 26.366L26.0996 21.578C26.1089 21.466 26.1462 21.3773 26.2116 21.312C26.2862 21.2373 26.3796 21.2 26.4916 21.2H31.7556C31.8489 21.2 31.9282 21.2327 31.9936 21.298C32.0589 21.3633 32.0916 21.4427 32.0916 21.536V22.474C32.0916 22.5673 32.0589 22.6467 31.9936 22.712C31.9282 22.7773 31.8489 22.81 31.7556 22.81H27.7096L27.4856 25.092C27.9429 24.7747 28.5542 24.616 29.3196 24.616C29.9262 24.616 30.4862 24.7467 30.9996 25.008C31.5222 25.26 31.9376 25.6287 32.2456 26.114C32.5536 26.59 32.7076 27.1453 32.7076 27.78C32.7076 28.4613 32.5489 29.0587 32.2316 29.572C31.9142 30.076 31.4662 30.468 30.8876 30.748C30.3182 31.0187 29.6509 31.154 28.8856 31.154Z" fill="#8F95A3"/>
</g>
<defs>
<clipPath id="clip0">
<rect width="51" height="51" fill="white"/>
</clipPath>
</defs>
</svg>
