<svg width="51" height="51" viewBox="0 0 51 51" fill="none" xmlns="http://www.w3.org/2000/svg">
<g clip-path="url(#clip0)">
<path d="M45.0192 34.0579C43.6484 37.7731 41.5752 41.0034 38.8566 43.6582C35.7621 46.6799 31.71 49.0811 26.8128 50.7939C26.6521 50.8499 26.4844 50.8958 26.3159 50.9297C26.0934 50.9737 25.8669 50.9974 25.6424 51.0005H25.5984C25.3591 51.0005 25.1187 50.9764 24.8802 50.9297C24.7117 50.8958 24.5463 50.8499 24.3864 50.7951C19.4834 49.085 15.4262 46.685 12.3286 43.6632C9.60879 41.0084 7.53605 37.7801 6.1672 34.0649C3.67813 27.3102 3.81976 19.869 3.93377 13.8894L3.93572 13.7975C3.95867 13.3038 3.97346 12.7851 3.98163 12.2123C4.02326 9.40032 6.25903 7.0739 9.07144 6.91709C14.9352 6.58986 19.4713 4.67744 23.3471 0.89967L23.381 0.868542C24.0245 0.278278 24.8354 -0.011212 25.6424 0.000850153C26.4206 0.0109668 27.1957 0.300067 27.8163 0.868542L27.8494 0.89967C31.726 4.67744 36.2621 6.58986 42.1258 6.91709C44.9382 7.0739 47.174 9.40032 47.2156 12.2123C47.2238 12.789 47.2386 13.3069 47.2615 13.7975L47.2627 13.8364C47.3763 19.8274 47.5172 27.2833 45.0192 34.0579Z" fill="#90C63E"/>
<path d="M45.0174 34.0581C43.6466 37.7732 41.5735 41.0035 38.8548 43.6583C35.7603 46.6801 31.7082 49.0812 26.811 50.794C26.6503 50.8501 26.4826 50.896 26.3142 50.9298C26.0916 50.9738 25.8651 50.9975 25.6406 51.0006V0.000976562C26.4188 0.0110932 27.1939 0.300194 27.8145 0.868668L27.8476 0.899796C31.7242 4.67756 36.2603 6.58999 42.124 6.91722C44.9365 7.07403 47.1722 9.40045 47.2139 12.2125C47.222 12.7891 47.2368 13.307 47.2598 13.7977L47.2609 13.8366C47.3746 19.8275 47.5154 27.2835 45.0174 34.0581Z" fill="#7BAA32"/>
<path d="M38.3078 25.5008C38.3078 32.4941 32.6296 38.1867 25.6422 38.2116H25.5974C18.5894 38.2116 12.8867 32.5093 12.8867 25.5008C12.8867 18.4928 18.5894 12.7905 25.5974 12.7905H25.6422C32.6296 12.8154 38.3078 18.508 38.3078 25.5008Z" fill="white"/>
<path d="M38.3062 25.5008C38.3062 32.4941 32.6281 38.1867 25.6406 38.2116V12.7905C32.6281 12.8154 38.3062 18.508 38.3062 25.5008Z" fill="#E1EBF0"/>
<path d="M31.3677 23.6703L25.6433 29.3955L24.4063 30.6324C24.1141 30.9246 23.7308 31.0705 23.348 31.0705C22.9647 31.0705 22.5818 30.9246 22.2892 30.6324L19.6297 27.9718C19.0453 27.3873 19.0453 26.4406 19.6297 25.8558C20.2134 25.2714 21.1612 25.2714 21.7456 25.8558L23.348 27.4581L29.2518 21.5543C29.8362 20.9695 30.784 20.9695 31.3677 21.5543C31.9521 22.1388 31.9521 23.0866 31.3677 23.6703Z" fill="#A6AEC1"/>
<path d="M31.3651 23.6703L25.6406 29.3955V25.1625L29.2491 21.5543C29.8336 20.9695 30.7814 20.9695 31.3651 21.5543C31.9495 22.1388 31.9495 23.0866 31.3651 23.6703Z" fill="#969DAB"/>
<g clip-path="url(#clip1)">
<path d="M45.0192 34.0575C43.6484 37.7726 41.5752 41.0029 38.8566 43.6577C35.7621 46.6795 31.71 49.0806 26.8128 50.7934C26.6521 50.8494 26.4844 50.8953 26.3159 50.9292C26.0934 50.9732 25.8669 50.9969 25.6424 51H25.5984C25.3591 51 25.1187 50.9759 24.8802 50.9292C24.7117 50.8953 24.5463 50.8494 24.3864 50.7946C19.4834 49.0845 15.4262 46.6845 12.3286 43.6628C9.60879 41.0079 7.53605 37.7796 6.1672 34.0645C3.67813 27.3097 3.81976 19.8686 3.93377 13.8889L3.93572 13.797C3.95867 13.3033 3.97346 12.7846 3.98163 12.2119C4.02326 9.39984 6.25903 7.07341 9.07144 6.9166C14.9352 6.58937 19.4713 4.67695 23.3471 0.899181L23.381 0.868053C24.0245 0.27779 24.8354 -0.0117003 25.6424 0.000361872C26.4206 0.0104785 27.1957 0.299579 27.8163 0.868053L27.8494 0.899181C31.726 4.67695 36.2621 6.58937 42.1258 6.9166C44.9382 7.07341 47.174 9.39984 47.2156 12.2119C47.2238 12.7885 47.2386 13.3064 47.2615 13.797L47.2627 13.836C47.3763 19.8269 47.5172 27.2828 45.0192 34.0575Z" fill="#90C63E"/>
<path d="M45.0174 34.0576C43.6466 37.7727 41.5735 41.003 38.8548 43.6578C35.7603 46.6796 31.7082 49.0807 26.811 50.7935C26.6503 50.8496 26.4826 50.8955 26.3142 50.9293C26.0916 50.9733 25.8651 50.997 25.6406 51.0001V0.000488281C26.4188 0.0106049 27.1939 0.299706 27.8145 0.86818L27.8476 0.899308C31.7242 4.67707 36.2603 6.5895 42.124 6.91673C44.9365 7.07354 47.1722 9.39996 47.2139 12.212C47.222 12.7886 47.2368 13.3065 47.2598 13.7972L47.2609 13.8361C47.3746 19.8271 47.5154 27.283 45.0174 34.0576Z" fill="#7BAA32"/>
<path d="M38.3078 25.5004C38.3078 32.4936 32.6296 38.1862 25.6422 38.2111H25.5974C18.5894 38.2111 12.8867 32.5088 12.8867 25.5004C12.8867 18.4923 18.5894 12.79 25.5974 12.79H25.6422C32.6296 12.8149 38.3078 18.5075 38.3078 25.5004Z" fill="white"/>
<path d="M38.3062 25.5004C38.3062 32.4936 32.6281 38.1862 25.6406 38.2111V12.79C32.6281 12.8149 38.3062 18.5075 38.3062 25.5004Z" fill="#E1EBF0"/>
<path d="M19.576 31C19.492 31 19.422 30.972 19.366 30.916C19.31 30.8507 19.282 30.776 19.282 30.692C19.282 30.6267 19.3007 30.566 19.338 30.51L21.396 27.668C21.1907 27.7147 20.9993 27.7333 20.822 27.724C20.1967 27.7053 19.6273 27.5513 19.114 27.262C18.6007 26.9727 18.1947 26.5807 17.896 26.086C17.6067 25.5913 17.462 25.05 17.462 24.462C17.462 23.874 17.6067 23.3233 17.896 22.81C18.1853 22.2873 18.6147 21.8673 19.184 21.55C19.7533 21.2233 20.4393 21.06 21.242 21.06C22.0447 21.06 22.7353 21.214 23.314 21.522C23.8927 21.8207 24.3267 22.2267 24.616 22.74C24.9147 23.244 25.064 23.7993 25.064 24.406C25.064 24.7793 25.0033 25.134 24.882 25.47C24.7607 25.806 24.6207 26.1 24.462 26.352C24.3127 26.5947 24.098 26.912 23.818 27.304L21.354 30.72C21.298 30.804 21.2327 30.874 21.158 30.93C21.0927 30.9767 20.9993 31 20.878 31H19.576ZM21.256 26.24C21.7693 26.24 22.1987 26.0813 22.544 25.764C22.8987 25.4373 23.076 25.0033 23.076 24.462C23.076 23.9207 22.8987 23.4867 22.544 23.16C22.1987 22.8333 21.7693 22.67 21.256 22.67C20.7427 22.67 20.3087 22.8333 19.954 23.16C19.6087 23.4867 19.436 23.9207 19.436 24.462C19.436 25.0033 19.6087 25.4373 19.954 25.764C20.2993 26.0813 20.7333 26.24 21.256 26.24ZM30.2326 31.14C29.4206 31.14 28.7206 31.014 28.1326 30.762C27.554 30.5007 27.1106 30.1413 26.8026 29.684C26.4946 29.2267 26.3406 28.704 26.3406 28.116C26.3406 27.5933 26.4713 27.1313 26.7326 26.73C26.994 26.3193 27.344 26.0067 27.7826 25.792C27.4373 25.5773 27.1666 25.302 26.9706 24.966C26.784 24.6207 26.6906 24.2287 26.6906 23.79C26.6906 22.9687 26.9986 22.3107 27.6146 21.816C28.24 21.312 29.1126 21.06 30.2326 21.06C31.3433 21.06 32.2066 21.3073 32.8226 21.802C33.4386 22.2967 33.7466 22.9547 33.7466 23.776C33.7466 24.2147 33.6533 24.6067 33.4666 24.952C33.2893 25.288 33.028 25.568 32.6826 25.792C33.1306 26.0067 33.4806 26.3193 33.7326 26.73C33.994 27.1313 34.1246 27.598 34.1246 28.13C34.1246 28.718 33.9706 29.2407 33.6626 29.698C33.3546 30.1553 32.9066 30.51 32.3186 30.762C31.7306 31.014 31.0353 31.14 30.2326 31.14ZM30.2326 25.19C30.718 25.1807 31.1193 25.0547 31.4366 24.812C31.7633 24.5693 31.9266 24.252 31.9266 23.86C31.9266 23.4493 31.768 23.1227 31.4506 22.88C31.1333 22.6373 30.7273 22.516 30.2326 22.516C29.738 22.516 29.332 22.6373 29.0146 22.88C28.6973 23.1227 28.5386 23.4493 28.5386 23.86C28.5386 24.2613 28.6973 24.5833 29.0146 24.826C29.332 25.0687 29.738 25.19 30.2326 25.19ZM30.2326 29.684C30.7833 29.684 31.2453 29.544 31.6186 29.264C31.992 28.9747 32.1786 28.5967 32.1786 28.13C32.1786 27.6633 31.992 27.29 31.6186 27.01C31.2453 26.7207 30.7833 26.576 30.2326 26.576C29.6726 26.576 29.206 26.716 28.8326 26.996C28.4686 27.276 28.2866 27.654 28.2866 28.13C28.2866 28.606 28.4686 28.984 28.8326 29.264C29.206 29.544 29.6726 29.684 30.2326 29.684Z" fill="#8F95A3"/>
</g>
</g>
<defs>
<clipPath id="clip0">
<rect width="51" height="51" fill="white"/>
</clipPath>
<clipPath id="clip1">
<rect width="51" height="51" fill="white"/>
</clipPath>
</defs>
</svg>
