<svg width="51" height="51" viewBox="0 0 51 51" fill="none" xmlns="http://www.w3.org/2000/svg">
<g clip-path="url(#clip0)">
<path d="M45.0192 34.0575C43.6484 37.7726 41.5752 41.0029 38.8566 43.6577C35.7621 46.6795 31.71 49.0806 26.8128 50.7934C26.6521 50.8494 26.4844 50.8953 26.3159 50.9292C26.0934 50.9732 25.8669 50.9969 25.6424 51H25.5984C25.3591 51 25.1187 50.9759 24.8802 50.9292C24.7117 50.8953 24.5463 50.8494 24.3864 50.7946C19.4834 49.0845 15.4262 46.6845 12.3286 43.6628C9.60879 41.0079 7.53605 37.7796 6.1672 34.0645C3.67813 27.3097 3.81976 19.8686 3.93377 13.8889L3.93572 13.797C3.95867 13.3033 3.97346 12.7846 3.98163 12.2119C4.02326 9.39984 6.25903 7.07341 9.07144 6.9166C14.9352 6.58937 19.4713 4.67695 23.3471 0.899181L23.381 0.868053C24.0245 0.27779 24.8354 -0.0117003 25.6424 0.000361872C26.4206 0.0104785 27.1957 0.299579 27.8163 0.868053L27.8494 0.899181C31.726 4.67695 36.2621 6.58937 42.1258 6.9166C44.9382 7.07341 47.174 9.39984 47.2156 12.2119C47.2238 12.7885 47.2386 13.3064 47.2615 13.797L47.2627 13.836C47.3763 19.8269 47.5172 27.2828 45.0192 34.0575Z" fill="#F4BE34"/>
<path d="M45.0174 34.0571C43.6466 37.7722 41.5735 41.0025 38.8548 43.6573C35.7603 46.6791 31.7082 49.0802 26.811 50.793C26.6503 50.8491 26.4826 50.895 26.3142 50.9288C26.0916 50.9728 25.8651 50.9965 25.6406 50.9997V0C26.4188 0.0101166 27.1939 0.299217 27.8145 0.867692L27.8476 0.89882C31.7242 4.67659 36.2603 6.58901 42.124 6.91624C44.9365 7.07305 47.1722 9.39948 47.2139 12.2115C47.222 12.7881 47.2368 13.306 47.2598 13.7967L47.2609 13.8356C47.3746 19.8266 47.5154 27.2825 45.0174 34.0571Z" fill="#FF9900"/>
<path d="M38.3078 25.5004C38.3078 32.4936 32.6296 38.1862 25.6422 38.2111H25.5974C18.5894 38.2111 12.8867 32.5088 12.8867 25.5004C12.8867 18.4923 18.5894 12.79 25.5974 12.79H25.6422C32.6296 12.8149 38.3078 18.5075 38.3078 25.5004Z" fill="white"/>
<path d="M38.3062 25.5004C38.3062 32.4936 32.6281 38.1862 25.6406 38.2111V12.79C32.6281 12.8149 38.3062 18.5075 38.3062 25.5004Z" fill="#E1EBF0"/>
<path d="M31.3677 23.6698L25.6433 29.395L24.4063 30.6319C24.1141 30.9241 23.7308 31.0701 23.348 31.0701C22.9647 31.0701 22.5818 30.9241 22.2892 30.6319L19.6297 27.9713C19.0453 27.3868 19.0453 26.4402 19.6297 25.8553C20.2134 25.2709 21.1612 25.2709 21.7456 25.8553L23.348 27.4577L29.2518 21.5538C29.8362 20.969 30.784 20.969 31.3677 21.5538C31.9521 22.1383 31.9521 23.0861 31.3677 23.6698Z" fill="#A6AEC1"/>
<path d="M31.3651 23.6698L25.6406 29.395V25.162L29.2491 21.5538C29.8336 20.969 30.7814 20.969 31.3651 21.5538C31.9495 22.1383 31.9495 23.0861 31.3651 23.6698Z" fill="#969DAB"/>
<g clip-path="url(#clip1)">
<path d="M45.0192 34.0575C43.6484 37.7726 41.5752 41.0029 38.8566 43.6577C35.7621 46.6795 31.71 49.0806 26.8128 50.7934C26.6521 50.8494 26.4844 50.8953 26.3159 50.9292C26.0934 50.9732 25.8669 50.9969 25.6424 51H25.5984C25.3591 51 25.1187 50.9759 24.8802 50.9292C24.7117 50.8953 24.5463 50.8494 24.3864 50.7946C19.4834 49.0845 15.4262 46.6845 12.3286 43.6628C9.60879 41.0079 7.53605 37.7796 6.1672 34.0645C3.67813 27.3097 3.81976 19.8686 3.93377 13.8889L3.93572 13.797C3.95867 13.3033 3.97346 12.7846 3.98163 12.2119C4.02326 9.39984 6.25903 7.07341 9.07144 6.9166C14.9352 6.58937 19.4713 4.67695 23.3471 0.899181L23.381 0.868053C24.0245 0.27779 24.8354 -0.0117003 25.6424 0.000361872C26.4206 0.0104785 27.1957 0.299579 27.8163 0.868053L27.8494 0.899181C31.726 4.67695 36.2621 6.58937 42.1258 6.9166C44.9382 7.07341 47.174 9.39984 47.2156 12.2119C47.2238 12.7885 47.2386 13.3064 47.2615 13.797L47.2627 13.836C47.3763 19.8269 47.5172 27.2828 45.0192 34.0575Z" fill="#F4BE34"/>
<path d="M45.0174 34.0571C43.6466 37.7722 41.5735 41.0025 38.8548 43.6573C35.7603 46.6791 31.7082 49.0802 26.811 50.793C26.6503 50.8491 26.4826 50.895 26.3142 50.9288C26.0916 50.9728 25.8651 50.9965 25.6406 50.9997V0C26.4188 0.0101166 27.1939 0.299217 27.8145 0.867692L27.8476 0.89882C31.7242 4.67659 36.2603 6.58901 42.124 6.91624C44.9365 7.07305 47.1722 9.39948 47.2139 12.2115C47.222 12.7881 47.2368 13.306 47.2598 13.7967L47.2609 13.8356C47.3746 19.8266 47.5154 27.2825 45.0174 34.0571Z" fill="#FF9900"/>
<path d="M38.3078 25.5004C38.3078 32.4936 32.6296 38.1862 25.6422 38.2111H25.5974C18.5894 38.2111 12.8867 32.5088 12.8867 25.5004C12.8867 18.4923 18.5894 12.79 25.5974 12.79H25.6422C32.6296 12.8149 38.3078 18.5075 38.3078 25.5004Z" fill="white"/>
<path d="M38.3062 25.5004C38.3062 32.4936 32.6281 38.1862 25.6406 38.2111V12.79C32.6281 12.8149 38.3062 18.5075 38.3062 25.5004Z" fill="#E1EBF0"/>
<path d="M21.284 31.154C20.5093 31.154 19.842 31.0233 19.282 30.762C18.7313 30.5007 18.3067 30.1553 18.008 29.726C17.7187 29.2967 17.5647 28.8347 17.546 28.34V28.312C17.546 28.2373 17.574 28.1767 17.63 28.13C17.686 28.0833 17.756 28.06 17.84 28.06H19.142C19.3567 28.06 19.4967 28.1533 19.562 28.34C19.6927 28.7507 19.9073 29.054 20.206 29.25C20.514 29.446 20.8733 29.544 21.284 29.544C21.8067 29.544 22.2407 29.3853 22.586 29.068C22.9407 28.7507 23.118 28.3073 23.118 27.738C23.118 27.234 22.9407 26.8233 22.586 26.506C22.2407 26.1887 21.8067 26.03 21.284 26.03C21.004 26.03 20.7753 26.0673 20.598 26.142C20.4207 26.2167 20.248 26.3193 20.08 26.45C19.968 26.534 19.8793 26.5947 19.814 26.632C19.758 26.66 19.688 26.674 19.604 26.674H18.316C18.232 26.674 18.1573 26.646 18.092 26.59C18.036 26.5247 18.008 26.45 18.008 26.366L18.498 21.578C18.5073 21.466 18.5447 21.3773 18.61 21.312C18.6847 21.2373 18.778 21.2 18.89 21.2H24.154C24.2473 21.2 24.3267 21.2327 24.392 21.298C24.4573 21.3633 24.49 21.4427 24.49 21.536V22.474C24.49 22.5673 24.4573 22.6467 24.392 22.712C24.3267 22.7773 24.2473 22.81 24.154 22.81H20.108L19.884 25.092C20.3413 24.7747 20.9527 24.616 21.718 24.616C22.3247 24.616 22.8847 24.7467 23.398 25.008C23.9207 25.26 24.336 25.6287 24.644 26.114C24.952 26.59 25.106 27.1453 25.106 27.78C25.106 28.4613 24.9473 29.0587 24.63 29.572C24.3127 30.076 23.8647 30.468 23.286 30.748C22.7167 31.0187 22.0493 31.154 21.284 31.154ZM30.2736 31.14C29.0323 31.14 28.1036 30.7947 27.4876 30.104C26.881 29.4133 26.5496 28.508 26.4936 27.388C26.4843 27.136 26.4796 26.7067 26.4796 26.1C26.4796 25.484 26.4843 25.0453 26.4936 24.784C26.5403 23.6827 26.8763 22.7867 27.5016 22.096C28.127 21.4053 29.051 21.06 30.2736 21.06C31.5056 21.06 32.4343 21.4053 33.0596 22.096C33.685 22.7867 34.0163 23.6827 34.0536 24.784C34.0723 25.0453 34.0816 25.484 34.0816 26.1C34.0816 26.7067 34.0723 27.136 34.0536 27.388C34.007 28.508 33.6756 29.4133 33.0596 30.104C32.453 30.7947 31.5243 31.14 30.2736 31.14ZM30.2736 29.53C30.8616 29.53 31.3003 29.3387 31.5896 28.956C31.879 28.564 32.033 28.018 32.0516 27.318C32.0703 26.7767 32.0796 26.366 32.0796 26.086C32.0796 25.778 32.0703 25.372 32.0516 24.868C32.033 24.1773 31.879 23.636 31.5896 23.244C31.3003 22.852 30.8616 22.656 30.2736 22.656C29.695 22.656 29.2563 22.852 28.9576 23.244C28.6683 23.636 28.5143 24.1773 28.4956 24.868C28.4863 25.12 28.4816 25.526 28.4816 26.086C28.4816 26.6367 28.4863 27.0473 28.4956 27.318C28.5143 28.018 28.6683 28.564 28.9576 28.956C29.2563 29.3387 29.695 29.53 30.2736 29.53Z" fill="#8F95A3"/>
</g>
</g>
<defs>
<clipPath id="clip0">
<rect width="51" height="51" fill="white"/>
</clipPath>
<clipPath id="clip1">
<rect width="51" height="51" fill="white"/>
</clipPath>
</defs>
</svg>
