<svg width="51" height="51" viewBox="0 0 51 51" fill="none" xmlns="http://www.w3.org/2000/svg">
<g clip-path="url(#clip0)">
<path d="M45.0192 34.0575C43.6484 37.7726 41.5752 41.0029 38.8566 43.6577C35.7621 46.6795 31.71 49.0806 26.8128 50.7934C26.6521 50.8494 26.4844 50.8953 26.3159 50.9292C26.0934 50.9732 25.8669 50.9969 25.6424 51H25.5984C25.3591 51 25.1187 50.9759 24.8802 50.9292C24.7117 50.8953 24.5463 50.8494 24.3864 50.7946C19.4834 49.0845 15.4262 46.6845 12.3286 43.6628C9.60879 41.0079 7.53605 37.7796 6.1672 34.0645C3.67813 27.3097 3.81976 19.8686 3.93377 13.8889L3.93572 13.797C3.95867 13.3033 3.97346 12.7846 3.98163 12.2119C4.02326 9.39984 6.25903 7.07341 9.07144 6.9166C14.9352 6.58937 19.4713 4.67695 23.3471 0.899181L23.381 0.868053C24.0245 0.27779 24.8354 -0.0117003 25.6424 0.000361872C26.4206 0.0104785 27.1957 0.299579 27.8163 0.868053L27.8494 0.899181C31.726 4.67695 36.2621 6.58937 42.1258 6.9166C44.9382 7.07341 47.174 9.39984 47.2156 12.2119C47.2238 12.7885 47.2386 13.3064 47.2615 13.797L47.2627 13.836C47.3763 19.8269 47.5172 27.2828 45.0192 34.0575Z" fill="#F13939"/>
<path d="M45.0174 34.0571C43.6466 37.7722 41.5735 41.0025 38.8548 43.6573C35.7603 46.6791 31.7082 49.0802 26.811 50.793C26.6503 50.8491 26.4826 50.895 26.3142 50.9288C26.0916 50.9728 25.8651 50.9965 25.6406 50.9997V0C26.4188 0.0101166 27.1939 0.299217 27.8145 0.867692L27.8476 0.89882C31.7242 4.67659 36.2603 6.58901 42.124 6.91624C44.9365 7.07305 47.1722 9.39948 47.2139 12.2115C47.222 12.7881 47.2368 13.306 47.2598 13.7967L47.2609 13.8356C47.3746 19.8266 47.5154 27.2825 45.0174 34.0571Z" fill="#F50202"/>
<path d="M38.3078 25.5004C38.3078 32.4936 32.6296 38.1862 25.6422 38.2111H25.5974C18.5894 38.2111 12.8867 32.5088 12.8867 25.5004C12.8867 18.4923 18.5894 12.79 25.5974 12.79H25.6422C32.6296 12.8149 38.3078 18.5075 38.3078 25.5004Z" fill="white"/>
<path d="M38.3062 25.5004C38.3062 32.4936 32.6281 38.1862 25.6406 38.2111V12.79C32.6281 12.8149 38.3062 18.5075 38.3062 25.5004Z" fill="#E1EBF0"/>
<path d="M17.966 31C17.8727 31 17.7933 30.9673 17.728 30.902C17.6627 30.8367 17.63 30.7573 17.63 30.664V29.95C17.63 29.698 17.7467 29.4787 17.98 29.292L20.192 27.094C21.1533 26.338 21.8207 25.75 22.194 25.33C22.5767 24.9007 22.768 24.4807 22.768 24.07C22.768 23.6313 22.6467 23.286 22.404 23.034C22.1707 22.782 21.816 22.656 21.34 22.656C20.8733 22.656 20.5047 22.796 20.234 23.076C19.9633 23.3467 19.7953 23.7013 19.73 24.14C19.702 24.252 19.6507 24.336 19.576 24.392C19.5013 24.4387 19.4173 24.462 19.324 24.462H18.078C17.994 24.462 17.924 24.434 17.868 24.378C17.812 24.322 17.784 24.2567 17.784 24.182C17.8027 23.6313 17.952 23.118 18.232 22.642C18.512 22.1567 18.918 21.7693 19.45 21.48C19.982 21.1813 20.6073 21.032 21.326 21.032C22.0727 21.032 22.7027 21.1627 23.216 21.424C23.7387 21.676 24.1307 22.026 24.392 22.474C24.6533 22.922 24.784 23.4307 24.784 24C24.784 24.6253 24.6067 25.19 24.252 25.694C23.9067 26.198 23.3747 26.7393 22.656 27.318L20.668 29.334H24.658C24.7607 29.334 24.84 29.3667 24.896 29.432C24.9613 29.488 24.994 29.5673 24.994 29.67V30.664C24.994 30.7573 24.9613 30.8367 24.896 30.902C24.84 30.9673 24.7607 31 24.658 31H17.966ZM29.952 31.154C29.1773 31.154 28.51 31.0233 27.95 30.762C27.3993 30.5007 26.9746 30.1553 26.676 29.726C26.3866 29.2967 26.2326 28.8347 26.214 28.34V28.312C26.214 28.2373 26.242 28.1767 26.298 28.13C26.354 28.0833 26.424 28.06 26.508 28.06H27.81C28.0246 28.06 28.1646 28.1533 28.23 28.34C28.3606 28.7507 28.5753 29.054 28.874 29.25C29.182 29.446 29.5413 29.544 29.952 29.544C30.4746 29.544 30.9086 29.3853 31.254 29.068C31.6086 28.7507 31.786 28.3073 31.786 27.738C31.786 27.234 31.6086 26.8233 31.254 26.506C30.9086 26.1887 30.4746 26.03 29.952 26.03C29.672 26.03 29.4433 26.0673 29.266 26.142C29.0886 26.2167 28.916 26.3193 28.748 26.45C28.636 26.534 28.5473 26.5947 28.482 26.632C28.426 26.66 28.356 26.674 28.272 26.674H26.984C26.9 26.674 26.8253 26.646 26.76 26.59C26.704 26.5247 26.676 26.45 26.676 26.366L27.166 21.578C27.1753 21.466 27.2126 21.3773 27.278 21.312C27.3526 21.2373 27.446 21.2 27.558 21.2H32.822C32.9153 21.2 32.9946 21.2327 33.06 21.298C33.1253 21.3633 33.158 21.4427 33.158 21.536V22.474C33.158 22.5673 33.1253 22.6467 33.06 22.712C32.9946 22.7773 32.9153 22.81 32.822 22.81H28.776L28.552 25.092C29.0093 24.7747 29.6206 24.616 30.386 24.616C30.9926 24.616 31.5526 24.7467 32.066 25.008C32.5886 25.26 33.004 25.6287 33.312 26.114C33.62 26.59 33.774 27.1453 33.774 27.78C33.774 28.4613 33.6153 29.0587 33.298 29.572C32.9806 30.076 32.5326 30.468 31.954 30.748C31.3846 31.0187 30.7173 31.154 29.952 31.154Z" fill="#8F95A3"/>
</g>
<defs>
<clipPath id="clip0">
<rect width="51" height="51" fill="white"/>
</clipPath>
</defs>
</svg>
