<svg width="60" height="60" viewBox="0 0 60 60" fill="none" xmlns="http://www.w3.org/2000/svg">
<path fill-rule="evenodd" clip-rule="evenodd" d="M4.75 52.7499V51.2499L4.75 6.24988V4.74988H6.25H51.25H52.75V6.24988V51.2499V52.7499H51.25H38.75H37.25V49.7499H38.75H49.75V7.74988H7.75L7.75 49.7499H18.75H20.25V52.7499H18.75H6.25H4.75ZM15.379 32.5003L16.4396 31.4397L27.6896 20.1897L28.7503 19.129L29.811 20.1897L41.061 31.4397L42.1216 32.5003L40.0003 34.6217L38.9396 33.561L30.2503 24.8717V56.2505V57.7505H27.2503V56.2505V24.8717L18.561 33.561L17.5003 34.6217L15.379 32.5003Z" fill="#ffffff"/>
</svg>
