<svg width="312" height="44" viewBox="0 0 312 44" fill="none" xmlns="http://www.w3.org/2000/svg">
<rect width="312" height="44" rx="10" fill="white"/>
<path d="M23.3327 15.3337C20.5713 15.3337 18.3327 17.5722 18.3327 20.3337C18.3327 23.0951 20.5713 25.3337 23.3327 25.3337C26.0941 25.3337 28.3327 23.0951 28.3327 20.3337C28.3327 17.5722 26.0941 15.3337 23.3327 15.3337ZM16.666 20.3337C16.666 16.6518 19.6508 13.667 23.3327 13.667C27.0146 13.667 29.9993 16.6518 29.9993 20.3337C29.9993 21.8743 29.4768 23.2928 28.5992 24.4217L33.0886 28.9111C33.414 29.2365 33.414 29.7641 33.0886 30.0896C32.7632 30.415 32.2355 30.415 31.9101 30.0896L27.4207 25.6002C26.2918 26.4778 24.8733 27.0003 23.3327 27.0003C19.6508 27.0003 16.666 24.0156 16.666 20.3337Z" fill="#0D0D0D"/>
<path d="M50.368 27.14C49.5933 27.14 48.9213 27.0187 48.352 26.776C47.792 26.5333 47.3627 26.216 47.064 25.824C46.7653 25.4227 46.6067 24.9933 46.588 24.536C46.588 24.4613 46.616 24.396 46.672 24.34C46.7373 24.2747 46.812 24.242 46.896 24.242H47.61C47.7873 24.242 47.9087 24.3353 47.974 24.522C48.058 24.914 48.296 25.25 48.688 25.53C49.0893 25.81 49.6493 25.95 50.368 25.95C51.1427 25.95 51.726 25.8147 52.118 25.544C52.51 25.264 52.706 24.8767 52.706 24.382C52.706 24.0647 52.608 23.808 52.412 23.612C52.2253 23.416 51.9453 23.2433 51.572 23.094C51.1987 22.9447 50.6387 22.758 49.892 22.534C49.164 22.3287 48.5853 22.1093 48.156 21.876C47.7267 21.6427 47.4047 21.3533 47.19 21.008C46.9753 20.6627 46.868 20.2287 46.868 19.706C46.868 19.202 47.0033 18.7493 47.274 18.348C47.554 17.9467 47.9507 17.634 48.464 17.41C48.9773 17.1767 49.5887 17.06 50.298 17.06C51.026 17.06 51.6513 17.1907 52.174 17.452C52.6967 17.704 53.0933 18.026 53.364 18.418C53.6347 18.81 53.7793 19.202 53.798 19.594C53.798 19.6687 53.77 19.734 53.714 19.79C53.6673 19.846 53.5973 19.874 53.504 19.874H52.762C52.566 19.874 52.4447 19.7853 52.398 19.608C52.342 19.216 52.1227 18.894 51.74 18.642C51.3573 18.3807 50.8767 18.25 50.298 18.25C49.6633 18.25 49.164 18.3713 48.8 18.614C48.436 18.8567 48.254 19.216 48.254 19.692C48.254 20.0093 48.338 20.2707 48.506 20.476C48.6833 20.6813 48.9493 20.8633 49.304 21.022C49.6587 21.1713 50.1767 21.344 50.858 21.54C51.6513 21.7547 52.2767 21.9787 52.734 22.212C53.1913 22.436 53.532 22.7207 53.756 23.066C53.98 23.402 54.092 23.8313 54.092 24.354C54.092 25.222 53.756 25.9033 53.084 26.398C52.412 26.8927 51.5067 27.14 50.368 27.14ZM58.657 27.14C57.6957 27.14 56.9257 26.846 56.347 26.258C55.7777 25.6607 55.465 24.8487 55.409 23.822L55.395 23.346L55.409 22.884C55.4743 21.876 55.7917 21.0733 56.361 20.476C56.9397 19.8787 57.7003 19.58 58.643 19.58C59.679 19.58 60.4817 19.9113 61.051 20.574C61.6203 21.2273 61.905 22.114 61.905 23.234V23.472C61.905 23.5653 61.8723 23.6447 61.807 23.71C61.751 23.766 61.6763 23.794 61.583 23.794H56.739V23.92C56.767 24.5267 56.949 25.0447 57.285 25.474C57.6303 25.894 58.083 26.104 58.643 26.104C59.0723 26.104 59.4223 26.02 59.693 25.852C59.973 25.6747 60.1783 25.4927 60.309 25.306C60.393 25.194 60.4537 25.1287 60.491 25.11C60.5377 25.082 60.617 25.068 60.729 25.068H61.415C61.499 25.068 61.569 25.0913 61.625 25.138C61.681 25.1847 61.709 25.25 61.709 25.334C61.709 25.5393 61.5783 25.7867 61.317 26.076C61.065 26.3653 60.7057 26.6173 60.239 26.832C59.7817 27.0373 59.2543 27.14 58.657 27.14ZM60.575 22.828V22.786C60.575 22.142 60.3977 21.6193 60.043 21.218C59.6977 20.8073 59.231 20.602 58.643 20.602C58.055 20.602 57.5883 20.8073 57.243 21.218C56.907 21.6193 56.739 22.142 56.739 22.786V22.828H60.575ZM65.609 27.14C65.1516 27.14 64.727 27.0467 64.335 26.86C63.943 26.6733 63.6303 26.4213 63.397 26.104C63.173 25.7773 63.061 25.418 63.061 25.026C63.061 24.41 63.313 23.906 63.817 23.514C64.3303 23.1127 65.021 22.8513 65.889 22.73L67.975 22.436V22.03C67.975 21.078 67.429 20.602 66.337 20.602C65.9263 20.602 65.5903 20.6907 65.329 20.868C65.0676 21.036 64.8716 21.2367 64.741 21.47C64.713 21.554 64.6756 21.6147 64.629 21.652C64.5916 21.6893 64.5356 21.708 64.461 21.708H63.859C63.775 21.708 63.7003 21.68 63.635 21.624C63.579 21.5587 63.551 21.484 63.551 21.4C63.5603 21.176 63.663 20.924 63.859 20.644C64.0643 20.3547 64.377 20.1073 64.797 19.902C65.217 19.6873 65.735 19.58 66.351 19.58C67.3963 19.58 68.1476 19.8273 68.605 20.322C69.0623 20.8073 69.291 21.414 69.291 22.142V26.678C69.291 26.7713 69.2583 26.8507 69.193 26.916C69.137 26.972 69.0623 27 68.969 27H68.325C68.2316 27 68.1523 26.972 68.087 26.916C68.031 26.8507 68.003 26.7713 68.003 26.678V26.076C67.7976 26.3747 67.499 26.6267 67.107 26.832C66.715 27.0373 66.2156 27.14 65.609 27.14ZM65.903 26.09C66.5096 26.09 67.0043 25.894 67.387 25.502C67.779 25.1007 67.975 24.5267 67.975 23.78V23.388L66.351 23.626C65.6883 23.7193 65.189 23.878 64.853 24.102C64.517 24.3167 64.349 24.592 64.349 24.928C64.349 25.3013 64.503 25.5907 64.811 25.796C65.119 25.992 65.483 26.09 65.903 26.09ZM71.6256 27C71.5322 27 71.4529 26.972 71.3876 26.916C71.3316 26.8507 71.3036 26.7713 71.3036 26.678V20.056C71.3036 19.9627 71.3316 19.8833 71.3876 19.818C71.4529 19.7527 71.5322 19.72 71.6256 19.72H72.2696C72.3629 19.72 72.4422 19.7527 72.5076 19.818C72.5729 19.8833 72.6056 19.9627 72.6056 20.056V20.672C72.9882 20.0373 73.6416 19.72 74.5656 19.72H75.1116C75.2049 19.72 75.2796 19.7527 75.3356 19.818C75.4009 19.874 75.4336 19.9487 75.4336 20.042V20.616C75.4336 20.7093 75.4009 20.784 75.3356 20.84C75.2796 20.896 75.2049 20.924 75.1116 20.924H74.2716C73.7676 20.924 73.3709 21.0733 73.0816 21.372C72.7922 21.6613 72.6476 22.058 72.6476 22.562V26.678C72.6476 26.7713 72.6149 26.8507 72.5496 26.916C72.4842 26.972 72.4049 27 72.3116 27H71.6256ZM79.4252 27.14C78.4266 27.14 77.6426 26.86 77.0732 26.3C76.5132 25.7307 76.2146 24.9373 76.1772 23.92L76.1632 23.36L76.1772 22.8C76.2146 21.7827 76.5132 20.994 77.0732 20.434C77.6426 19.8647 78.4266 19.58 79.4252 19.58C80.0972 19.58 80.6666 19.7013 81.1332 19.944C81.5999 20.1867 81.9452 20.4853 82.1692 20.84C82.4026 21.1947 82.5286 21.5493 82.5472 21.904C82.5566 21.9973 82.5286 22.072 82.4632 22.128C82.3979 22.184 82.3186 22.212 82.2252 22.212H81.5532C81.4599 22.212 81.3899 22.1933 81.3432 22.156C81.2966 22.1187 81.2499 22.044 81.2032 21.932C81.0446 21.484 80.8206 21.1667 80.5312 20.98C80.2419 20.784 79.8779 20.686 79.4392 20.686C78.8606 20.686 78.3986 20.868 78.0532 21.232C77.7172 21.5867 77.5352 22.1327 77.5072 22.87L77.4932 23.374L77.5072 23.85C77.5352 24.5967 77.7172 25.1473 78.0532 25.502C78.3892 25.8567 78.8512 26.034 79.4392 26.034C79.8779 26.034 80.2419 25.9407 80.5312 25.754C80.8206 25.558 81.0446 25.236 81.2032 24.788C81.2499 24.676 81.2966 24.6013 81.3432 24.564C81.3899 24.5173 81.4599 24.494 81.5532 24.494H82.2252C82.3186 24.494 82.3979 24.5267 82.4632 24.592C82.5286 24.648 82.5566 24.7227 82.5472 24.816C82.5286 25.1613 82.4026 25.516 82.1692 25.88C81.9452 26.2347 81.5999 26.5333 81.1332 26.776C80.6759 27.0187 80.1066 27.14 79.4252 27.14ZM84.5458 27C84.4525 27 84.3732 26.972 84.3078 26.916C84.2518 26.8507 84.2238 26.7713 84.2238 26.678V17.382C84.2238 17.2887 84.2518 17.214 84.3078 17.158C84.3732 17.0927 84.4525 17.06 84.5458 17.06H85.2458C85.3392 17.06 85.4138 17.0927 85.4698 17.158C85.5352 17.214 85.5678 17.2887 85.5678 17.382V20.644C85.8385 20.2987 86.1558 20.0373 86.5198 19.86C86.8838 19.6733 87.3365 19.58 87.8778 19.58C88.7738 19.58 89.4692 19.8693 89.9638 20.448C90.4678 21.0173 90.7198 21.778 90.7198 22.73V26.678C90.7198 26.7713 90.6872 26.8507 90.6218 26.916C90.5658 26.972 90.4912 27 90.3978 27H89.6978C89.6045 27 89.5252 26.972 89.4598 26.916C89.4038 26.8507 89.3758 26.7713 89.3758 26.678V22.8C89.3758 22.1373 89.2125 21.624 88.8858 21.26C88.5685 20.896 88.1065 20.714 87.4998 20.714C86.9118 20.714 86.4405 20.9007 86.0858 21.274C85.7405 21.638 85.5678 22.1467 85.5678 22.8V26.678C85.5678 26.7713 85.5352 26.8507 85.4698 26.916C85.4138 26.972 85.3392 27 85.2458 27H84.5458Z" fill="#A6AEC1"/>
</svg>
