<svg width="38" height="38" viewBox="0 0 38 38" fill="none" xmlns="http://www.w3.org/2000/svg">
<path d="M19.0001 6.05615C16.5503 6.05898 14.2016 7.03335 12.4693 8.76554C10.7369 10.4977 9.76234 12.8463 9.75928 15.2961C9.75928 21.5569 18.3556 31.4022 18.7213 31.8181C18.7531 31.8561 18.7921 31.8875 18.8361 31.9102C18.8802 31.933 18.9283 31.9467 18.9777 31.9505C19.0271 31.9543 19.0768 31.9482 19.1238 31.9326C19.1708 31.9169 19.2142 31.892 19.2514 31.8592C19.2887 31.8265 19.319 31.7867 19.3405 31.7421C19.3621 31.6974 19.3745 31.649 19.377 31.5995C19.3796 31.55 19.3722 31.5005 19.3553 31.4539C19.3383 31.4073 19.3123 31.3646 19.2786 31.3282C19.1895 31.2282 10.5015 21.2775 10.5015 15.297C10.5015 13.043 11.3969 10.8813 12.9907 9.28753C14.5845 7.69373 16.7461 6.79834 19.0001 6.79834C21.2541 6.79834 23.4157 7.69373 25.0096 9.28753C26.6034 10.8813 27.4987 13.043 27.4987 15.297C27.4987 19.8843 22.2355 26.9772 19.9724 29.8142C19.942 29.8523 19.9194 29.896 19.9059 29.9428C19.8924 29.9897 19.8883 30.0387 19.8937 30.0871C19.8992 30.1356 19.9141 30.1825 19.9377 30.2251C19.9613 30.2678 19.993 30.3054 20.0312 30.3358C20.0693 30.3662 20.113 30.3888 20.1598 30.4022C20.2067 30.4157 20.2557 30.4199 20.3041 30.4144C20.3526 30.409 20.3995 30.394 20.4421 30.3704C20.4848 30.3469 20.5224 30.3151 20.5528 30.277C23.4238 26.6777 28.2418 19.9457 28.2418 15.2973C28.2391 12.8471 27.2645 10.4981 25.5319 8.76564C23.7993 7.03318 21.4503 6.05875 19.0001 6.05615Z" fill="white"/>
<path d="M16.4787 12.3913C16.5179 12.3572 16.5579 12.3239 16.5974 12.2916C16.6709 12.229 16.7171 12.1403 16.7263 12.0442C16.7355 11.9481 16.7069 11.8522 16.6467 11.7769C16.5864 11.7015 16.4991 11.6526 16.4034 11.6404C16.3076 11.6283 16.2109 11.6539 16.1337 11.7118C16.0848 11.7514 16.0367 11.7915 15.9894 11.832C15.9527 11.8641 15.9227 11.903 15.901 11.9467C15.8793 11.9904 15.8665 12.0379 15.8632 12.0865C15.8599 12.1351 15.8662 12.1839 15.8817 12.2301C15.8973 12.2763 15.9218 12.319 15.9538 12.3557C15.9859 12.3924 16.0248 12.4225 16.0685 12.4442C16.1121 12.4658 16.1596 12.4787 16.2083 12.482C16.2569 12.4853 16.3057 12.479 16.3519 12.4634C16.3981 12.4479 16.4408 12.4234 16.4775 12.3913H16.4787Z" fill="#FFF5EF"/>
<path d="M15.5166 12.8899C15.4313 12.8414 15.3302 12.8288 15.2355 12.8549C15.1409 12.8809 15.0605 12.9435 15.012 13.0288C14.4811 13.9647 14.2966 15.0577 14.4908 16.116C14.685 17.1743 15.2456 18.1305 16.0742 18.8169C16.9028 19.5034 17.9466 19.8762 19.0226 19.8701C20.0986 19.864 21.1381 19.4793 21.9589 18.7836C22.7797 18.0878 23.3294 17.1253 23.5116 16.0648C23.6938 15.0044 23.4969 13.9136 22.9554 12.9838C22.4139 12.0539 21.5624 11.3444 20.5502 10.9795C19.5379 10.6146 18.4295 10.6176 17.4193 10.9881C17.3269 11.022 17.2517 11.0912 17.2103 11.1806C17.1689 11.2699 17.1647 11.372 17.1986 11.4644C17.2325 11.5569 17.3017 11.6321 17.391 11.6735C17.4804 11.7149 17.5825 11.7191 17.6749 11.6852C18.523 11.3739 19.4535 11.3711 20.3034 11.6773C21.1532 11.9835 21.8682 12.5791 22.3229 13.3597C22.7775 14.1403 22.9428 15.056 22.7899 15.9463C22.6369 16.8366 22.1754 17.6446 21.4862 18.2287C20.7971 18.8127 19.9243 19.1355 19.021 19.1405C18.1176 19.1454 17.2414 18.8321 16.5459 18.2556C15.8504 17.6791 15.3801 16.8762 15.2174 15.9876C15.0547 15.0991 15.2101 14.1816 15.6562 13.3961C15.6803 13.3537 15.6959 13.307 15.7019 13.2586C15.708 13.2102 15.7044 13.161 15.6914 13.114C15.6785 13.067 15.6564 13.023 15.6264 12.9845C15.5964 12.9461 15.5591 12.9139 15.5166 12.8899Z" fill="white"/>
</svg>
