<svg width="241" height="106" viewBox="0 0 241 106" fill="none" xmlns="http://www.w3.org/2000/svg">
<g clip-path="url(#clip0)">
<path d="M65.714 104.878C71.9828 104.022 75.455 99.9955 75.1312 94.0415C74.9247 90.2582 72.742 88.0821 69.2364 86.9056C70.3528 86.0606 71.5307 85.431 72.3903 84.5196C73.1251 83.7326 73.6959 82.81 74.0701 81.8046C74.4442 80.7992 74.6144 79.7306 74.5708 78.6601C74.5273 77.5895 74.2709 76.538 73.8163 75.5655C73.3617 74.5931 72.7178 73.7189 71.9214 72.9929C71.0774 72.2176 70.0766 71.6283 68.9852 71.2641C64.3185 69.6072 59.4341 70.0877 54.6111 70.0656C47.7171 70.0269 47.7171 70.0656 47.7171 76.8811C47.7171 85.5304 47.6501 94.1851 47.7617 102.84C47.7617 104.839 47.304 105.226 45.2944 104.983C23.9257 102.376 5.32029 84.7185 0.988513 62.7972C-4.35365 35.7338 12.4208 9.04048 39.3382 1.94878C56.2243 -2.46973 71.7149 0.739211 85.7597 10.9239C87.3897 12.1058 87.3897 12.8183 86.1058 14.2985C81.8019 19.2693 77.6264 24.312 73.49 29.4043C72.4462 30.6967 71.7093 30.8624 70.4031 29.7578C68.2372 27.9186 65.9373 26.2561 63.3081 24.2346C61.6335 36.5567 60.0369 48.4425 58.3846 60.6873L92.5923 46.7635C90.0133 44.7696 87.7135 43.0078 85.4359 41.2404C84.7605 40.688 83.7613 40.3677 84.8163 39.1526C89.1202 34.0989 93.3347 28.9735 97.6554 23.7541C102.713 31.1657 105.7 39.7688 106.313 48.6911C107.218 60.9027 106.442 73.1365 106.81 86.033C105.962 84.713 105.465 83.8955 104.923 83.1168C101.334 77.925 96.0588 77.0413 90.3371 77.8753C85.3131 78.5878 81.8298 81.4874 80.451 86.4086C78.9383 91.7991 79.262 97.0075 82.9965 101.542C84.353 103.199 85.983 104.585 88.2382 104.961C88.5061 105.96 87.68 105.695 87.2613 105.701C80.4287 105.723 73.5942 105.723 66.7579 105.701C66.2946 105.64 65.5801 105.8 65.714 104.878Z" fill="#90C63E"/>
<path d="M179.847 82.2948C179.847 78.8042 179.903 75.308 179.82 71.8008C179.775 70.2046 180.188 69.5584 181.974 69.5142C189.482 69.3154 189.477 69.2547 189.482 76.6446C189.482 81.6154 189.41 86.5862 189.544 91.5571C189.655 95.7767 191.966 97.6877 195.952 97.2625C198.297 97.0139 199.625 95.7878 200.206 93.562C200.898 90.9329 200.596 88.2598 200.624 85.6031C200.68 81.0079 200.691 76.4071 200.624 71.7953C200.624 70.2212 200.926 69.5474 202.74 69.5087C210.209 69.3486 210.203 69.2823 210.203 76.6888C210.203 81.1073 210.097 85.5258 210.203 89.9443C210.555 101.62 202.684 106.298 192.34 105.199C184.006 104.315 180.06 99.7644 179.864 91.3914C179.792 88.3592 179.864 85.3159 179.864 82.2893L179.847 82.2948Z" fill="#90C63E"/>
<path d="M153.695 89.8724C156.676 86.1166 159.333 82.8469 161.884 79.4944C162.236 78.9638 162.727 78.5386 163.306 78.265C163.885 77.9914 164.528 77.8798 165.166 77.9424C167.823 78.0473 170.481 77.9424 173.774 77.9424C170.86 81.4938 168.426 84.6861 165.724 87.641C164.318 89.182 164.435 90.2535 165.54 91.8607C168.493 96.1632 171.262 100.593 174.371 105.381C170.743 105.381 167.539 105.348 164.323 105.381C163.363 105.381 163.073 104.779 162.693 104.155C161.348 101.946 160.019 99.7367 158.624 97.5882C158.216 96.953 157.971 95.6716 157.089 95.9865C155.972 96.3952 154.694 97.0303 154.331 98.4222C154.289 98.8756 154.279 99.3316 154.303 99.7864C154.13 101.587 155.057 104.614 153.924 104.956C151.289 105.751 148.269 105.332 145.4 105.304C144.417 105.304 144.724 104.376 144.719 103.807C144.719 92.3191 144.704 80.8291 144.674 69.3373C144.674 67.8958 145.26 67.6804 146.483 67.7301C148.978 67.8351 152.221 66.9127 153.74 68.1333C155.375 69.4202 154.225 72.7727 154.248 75.214C154.331 79.9307 154.549 84.6254 153.695 89.8724Z" fill="#2D323E"/>
<path d="M216.221 94.8431C219.174 95.8648 221.714 97.0081 224.499 97.323C224.957 97.3727 225.409 97.5328 225.867 97.5384C227.983 97.577 230.584 98.0465 231.243 95.3843C231.868 92.8768 229.255 92.4405 227.625 91.5568C225.515 90.4135 223.266 89.5022 221.206 88.2429C217.365 85.9563 215.953 82.3773 216.444 78.119C216.935 73.8607 219.615 71.1985 223.701 69.9669C229.093 68.3486 234.346 69.0666 239.504 71.0163C239.677 71.0825 239.94 71.0881 240.012 71.2096C241.469 73.6287 239.052 75.2691 238.723 77.3402C238.516 78.6216 237.83 78.9143 236.54 78.3455C234.354 77.3128 231.973 76.7482 229.551 76.6885C228.005 76.6885 226.392 76.9481 225.995 78.6879C225.644 80.2288 227.028 80.8971 228.178 81.5157C230.483 82.7032 232.845 83.7802 235.161 84.9456C239.549 87.1549 241.503 90.7283 240.889 95.5776C240.33 100.085 237.539 102.857 233.353 104.254C228.139 105.994 222.931 105.597 217.801 103.752C216.997 103.465 216.204 103.2 216.204 102.095C216.221 99.8139 216.221 97.461 216.221 94.8431Z" fill="#90C63E"/>
<path d="M97.5379 91.8385C97.4709 93.5397 97.5379 95.1138 96.8513 96.5829C96.2205 97.9416 95.2492 98.7922 93.6416 98.7922C91.9334 98.7922 90.7277 98.0465 90.2085 96.5111C89.1821 93.4368 89.147 90.1228 90.108 87.0279C90.2867 86.3018 90.7117 85.6583 91.3121 85.2049C91.9126 84.7515 92.6521 84.5158 93.4071 84.537C95.1543 84.4983 96.3433 85.371 96.9685 87.0666C97.5937 88.7622 97.4598 90.3362 97.5379 91.8385Z" fill="#91C63E"/>
<path d="M57.2623 94.2191C57.4912 92.5235 56.3524 90.2867 59.685 90.4745C63.5422 90.7009 65.2057 91.673 65.1667 94.3848C65.1276 97.0083 63.6037 97.8755 59.8301 98.1406C56.0565 98.4057 57.653 95.7325 57.2623 94.2191Z" fill="#93C742"/>
<path d="M57.3068 80.2676C57.2007 78.572 56.9104 76.9537 59.668 77.1746C63.0173 77.4231 64.5804 78.2792 64.5301 80.4001C64.4799 82.521 62.822 83.5096 59.629 83.714C56.5643 83.9184 57.3849 81.8527 57.3068 80.2676Z" fill="#93C742"/>
<path d="M98.8053 104.89C102.668 104.133 104.661 101.233 106.883 98.262V105.199C104.164 106.099 101.412 105.707 98.6602 105.42C98.6993 105.241 98.7477 105.064 98.8053 104.89Z" fill="#97CA4A"/>
<path fill-rule="evenodd" clip-rule="evenodd" d="M125.589 105.895C134.185 105.845 139.326 100.466 139.287 91.6288C139.231 82.9354 133.878 77.4896 125.36 77.5283C116.713 77.5669 111.611 82.8415 111.689 91.7504C111.767 100.499 117.12 105.95 125.589 105.895ZM122.172 86.6524C121.535 88.2291 121.278 89.9313 121.424 91.6233C121.274 93.3131 121.529 95.014 122.166 96.5886C122.395 97.2463 122.829 97.815 123.406 98.2122C123.983 98.6094 124.673 98.8145 125.376 98.7978C126.928 98.8254 128.117 98.2676 128.675 96.815C129.92 93.5327 129.936 89.9177 128.72 86.6248C128.189 85.1612 126.945 84.5371 125.449 84.5371C124.747 84.5054 124.054 84.6925 123.466 85.0721C122.878 85.4517 122.425 86.0045 122.172 86.6524Z" fill="#2D323E"/>
</g>
<defs>
<clipPath id="clip0">
<rect width="241" height="106" fill="white"/>
</clipPath>
</defs>
</svg>
