<svg width="100" height="44" viewBox="0 0 100 44" fill="none" xmlns="http://www.w3.org/2000/svg">
<path d="M27.2671 43.5345C29.8683 43.1791 31.309 41.5078 31.1746 39.0364C31.0889 37.4659 30.1833 36.5626 28.7287 36.0743C29.1919 35.7235 29.6807 35.4622 30.0374 35.0839C30.3423 34.7572 30.5791 34.3743 30.7343 33.9569C30.8896 33.5396 30.9602 33.096 30.9421 32.6516C30.9241 32.2073 30.8177 31.7708 30.629 31.3671C30.4404 30.9635 30.1732 30.6006 29.8428 30.2992C29.4926 29.9774 29.0773 29.7328 28.6244 29.5816C26.688 28.8938 24.6613 29.0933 22.6601 29.0841C19.7995 29.0681 19.7995 29.0841 19.7995 31.9132C19.7995 35.5034 19.7717 39.096 19.818 42.6885C19.818 43.5185 19.6281 43.6789 18.7942 43.5781C9.92757 42.4959 2.20747 35.1664 0.410047 26.067C-1.80662 14.8332 5.15375 3.75293 16.3228 0.809201C23.3295 -1.0249 29.7571 0.307117 35.5848 4.53471C36.2612 5.02533 36.2612 5.32108 35.7284 5.9355C33.9426 7.99886 32.21 10.092 30.4937 12.2058C30.0605 12.7423 29.7548 12.8111 29.2128 12.3526C28.3141 11.5891 27.3598 10.899 26.2688 10.0599C25.5739 15.1748 24.9115 20.1085 24.2259 25.1912L38.4199 19.4115C37.3498 18.5839 36.3955 17.8526 35.4505 17.1189C35.1702 16.8897 34.7556 16.7567 35.1934 16.2523C36.9792 14.1546 38.728 12.027 40.5208 9.86047C42.6194 12.937 43.8588 16.5081 44.1133 20.2117C44.4885 25.2806 44.1666 30.3588 44.3194 35.7121C43.9674 35.1641 43.7612 34.8248 43.5365 34.5016C42.0472 32.3465 39.8583 31.9797 37.4841 32.3259C35.3995 32.6216 33.9542 33.8252 33.382 35.868C32.7543 38.1056 32.8887 40.2675 34.4383 42.1498C35.0011 42.8375 35.6775 43.413 36.6132 43.5689C36.7244 43.9839 36.3816 43.8738 36.2079 43.8761C33.3728 43.8853 30.5369 43.8853 27.7003 43.8761C27.508 43.8509 27.2115 43.9174 27.2671 43.5345Z" fill="#90C63E"/>
<path d="M74.6252 34.1601C74.6252 32.7111 74.6484 31.2599 74.6136 29.8041C74.5951 29.1415 74.7665 28.8733 75.5077 28.8549C78.6231 28.7724 78.6208 28.7472 78.6231 31.8147C78.6231 33.8781 78.593 35.9414 78.6485 38.0048C78.6949 39.7564 79.6538 40.5496 81.3076 40.3731C82.2804 40.2699 82.8317 39.7609 83.0726 38.837C83.3598 37.7457 83.2347 36.6361 83.2463 35.5334C83.2695 33.6259 83.2741 31.7161 83.2463 29.8018C83.2463 29.1484 83.3714 28.8687 84.1242 28.8527C87.2234 28.7862 87.221 28.7587 87.221 31.8331C87.221 33.6672 87.177 35.5013 87.221 37.3354C87.367 42.182 84.101 44.1238 79.809 43.6676C76.3508 43.3008 74.7132 41.4116 74.6321 37.936C74.602 36.6774 74.6321 35.4141 74.6321 34.1578L74.6252 34.1601Z" fill="#90C63E"/>
<path d="M63.7738 37.3055C65.0107 35.7465 66.1133 34.3893 67.1718 32.9977C67.3177 32.7774 67.5218 32.6009 67.7619 32.4874C68.002 32.3738 68.2689 32.3275 68.5338 32.3535C69.6363 32.397 70.7388 32.3535 72.1054 32.3535C70.8963 33.8276 69.8865 35.1527 68.7654 36.3793C68.1817 37.0189 68.2303 37.4637 68.6889 38.1309C69.9142 39.9168 71.0631 41.7555 72.3533 43.7432C70.8477 43.7432 69.5182 43.7294 68.184 43.7432C67.7856 43.7432 67.6652 43.4933 67.5077 43.2342C66.9494 42.3172 66.3982 41.4001 65.8191 40.5083C65.65 40.2447 65.5481 39.7128 65.1821 39.8435C64.7189 40.0131 64.1884 40.2768 64.0379 40.8545C64.0202 41.0427 64.0163 41.232 64.0263 41.4208C63.9545 42.1682 64.339 43.4245 63.8688 43.5667C62.7755 43.8968 61.5224 43.7226 60.3319 43.7111C59.9242 43.7111 60.0516 43.3259 60.0493 43.0898C60.0493 38.3212 60.0431 33.5517 60.0308 28.7816C60.0308 28.1832 60.274 28.0938 60.7812 28.1144C61.8166 28.158 63.1623 27.7751 63.7924 28.2818C64.471 28.8159 63.9939 30.2076 64.0031 31.2209C64.0379 33.1788 64.1282 35.1275 63.7738 37.3055Z" fill="white"/>
<path d="M89.7184 39.3688C90.9437 39.793 91.9976 40.2675 93.1534 40.3982C93.3433 40.4189 93.5309 40.4853 93.7209 40.4876C94.5987 40.5037 95.6781 40.6986 95.9514 39.5935C96.2109 38.5527 95.1268 38.3715 94.4505 38.0047C93.5749 37.5302 92.6415 37.1519 91.7868 36.6291C90.1932 35.68 89.6072 34.1944 89.811 32.4268C90.0149 30.6592 91.1267 29.5541 92.8222 29.0429C95.0597 28.3711 97.2393 28.6692 99.3795 29.4785C99.4513 29.506 99.5602 29.5083 99.5903 29.5587C100.195 30.5629 99.1919 31.2438 99.0552 32.1035C98.9695 32.6354 98.6846 32.7569 98.1496 32.5208C97.2426 32.0921 96.2544 31.8578 95.2496 31.833C94.608 31.833 93.9386 31.9407 93.7742 32.6629C93.6282 33.3026 94.2027 33.58 94.6798 33.8367C95.6364 34.3296 96.6162 34.7767 97.5774 35.2605C99.398 36.1775 100.209 37.6608 99.9539 39.6738C99.7223 41.5445 98.5642 42.6954 96.827 43.2755C94.6636 43.9976 92.5025 43.8326 90.3739 43.0668C90.0403 42.9476 89.7114 42.8376 89.7114 42.379C89.7184 41.4322 89.7184 40.4555 89.7184 39.3688Z" fill="#90C63E"/>
<path d="M40.4718 38.1217C40.444 38.8278 40.4718 39.4812 40.1869 40.0911C39.9252 40.6551 39.5221 41.0081 38.8551 41.0081C38.1463 41.0081 37.646 40.6986 37.4306 40.0613C37.0047 38.7852 36.9901 37.4095 37.3889 36.1249C37.463 35.8234 37.6393 35.5563 37.8885 35.3681C38.1376 35.1799 38.4445 35.0821 38.7578 35.0909C39.4828 35.0748 39.9761 35.4371 40.2355 36.1409C40.495 36.8447 40.4394 37.4981 40.4718 38.1217Z" fill="#91C63E"/>
<path d="M23.7604 39.1098C23.8554 38.406 23.3829 37.4775 24.7657 37.5554C26.3662 37.6494 27.0564 38.0529 27.0402 39.1786C27.024 40.2676 26.3917 40.6275 24.8259 40.7376C23.2601 40.8476 23.9225 39.738 23.7604 39.1098Z" fill="#93C742"/>
<path d="M23.7788 33.3186C23.7348 32.6148 23.6144 31.9431 24.7586 32.0348C26.1484 32.1379 26.7969 32.4933 26.7761 33.3737C26.7552 34.254 26.0673 34.6644 24.7424 34.7492C23.4708 34.8341 23.8113 33.9766 23.7788 33.3186Z" fill="#93C742"/>
<path d="M40.9977 43.5391C42.6006 43.225 43.4275 42.0214 44.3493 40.788V43.6675C43.2213 44.0412 42.0794 43.8784 40.9375 43.7592C40.9537 43.6849 40.9738 43.6114 40.9977 43.5391Z" fill="#97CA4A"/>
<path fill-rule="evenodd" clip-rule="evenodd" d="M52.1116 43.9564C55.6786 43.9358 57.8119 41.7028 57.7957 38.0346C57.7725 34.426 55.5513 32.1655 52.0166 32.1815C48.4288 32.1976 46.3117 34.387 46.3441 38.085C46.3765 41.7165 48.5978 43.9794 52.1116 43.9564ZM50.6939 35.9689C50.4295 36.6234 50.3232 37.3299 50.3835 38.0323C50.3215 38.7337 50.427 39.4397 50.6916 40.0933C50.7864 40.3664 50.9666 40.6024 51.2061 40.7673C51.4455 40.9322 51.7318 41.0173 52.0234 41.0104C52.6673 41.0218 53.1607 40.7903 53.3923 40.1873C53.909 38.8248 53.9155 37.3243 53.4108 35.9574C53.1908 35.3499 52.6743 35.0908 52.0535 35.0908C51.7625 35.0777 51.4747 35.1554 51.2307 35.3129C50.9867 35.4705 50.7989 35.7 50.6939 35.9689Z" fill="white"/>
</svg>
