<svg width="59" height="21" viewBox="0 0 59 21" fill="none" xmlns="http://www.w3.org/2000/svg">
<path d="M4.98828 5.85199H7.01986L6.00407 3.30469L4.98828 5.85199Z" fill="#0571C1"/>
<path d="M30.195 3.66715C30.0103 3.57617 29.7333 3.57617 29.4563 3.57617H27.6094V5.03177H29.4563C29.7333 5.03177 30.0103 5.03177 30.195 4.94079C30.3797 4.84982 30.4721 4.57689 30.4721 4.30397C30.5644 3.94007 30.3797 3.75812 30.195 3.66715Z" fill="#0571C1"/>
<path d="M49.9583 0.9375V2.0292L49.4043 0.9375H45.0641V2.0292L44.51 0.9375H38.6C37.5842 0.9375 36.7531 1.11945 36.0143 1.48335V0.9375H31.8588V1.48335C31.3971 1.11945 30.843 0.9375 30.1043 0.9375H15.2368L14.221 3.21188L13.2052 0.9375H8.49568V2.0292L7.94162 0.9375H3.97081L2.12392 5.21333L0 9.94403H2.12392H4.70956L5.26363 8.48843H6.55645L7.11052 9.94403H12.4665V8.85233L12.9282 9.94403H15.6062L16.0679 8.85233V9.94403H28.9038V7.57868H29.0885C29.2732 7.57868 29.2732 7.57868 29.2732 7.8516V9.85306H35.922V9.30721C36.476 9.58013 37.3071 9.85306 38.4153 9.85306H41.1856L41.7397 8.39745H43.0325L43.5866 9.85306H48.9425V8.48843L49.7736 9.85306H54.1138V0.9375H49.9583ZM18.7459 8.57941H17.1761V3.57578L14.9598 8.57941H13.5746L11.3584 3.57578V8.57941H8.21865L7.57224 7.21478H4.43253L3.87846 8.67038H2.12392L4.89425 2.21115H7.20286L9.78851 8.30648V2.21115H12.2818L14.3134 6.57795L16.1603 2.21115H18.7459V8.57941ZM25.0253 3.57578H21.4239V4.75845H24.933V6.0321H21.4239V7.30575H25.0253V8.67038H19.854V2.21115H25.0253V3.57578ZM31.9512 6.21405C32.1359 6.57795 32.2282 6.85088 32.2282 7.39673V8.67038H30.6583V7.8516C30.6583 7.4877 30.6583 6.94185 30.3813 6.57795C30.1043 6.30503 29.8272 6.30503 29.2732 6.30503H27.611V8.67038H26.0411V2.21115H29.5502C30.3813 2.21115 30.9354 2.21115 31.3971 2.48408C31.8588 2.757 32.1359 3.21188 32.1359 3.93968C32.1359 4.9404 31.4894 5.48625 31.0277 5.6682C31.4894 5.75918 31.7665 6.0321 31.9512 6.21405ZM34.7215 8.57941H33.1516V2.12018H34.7215V8.57941ZM52.9133 8.57941H50.6971L47.7421 3.75773V8.57941H44.6023L44.0483 7.21478H40.8162L40.2622 8.67038H38.5076C37.7689 8.67038 36.8454 8.48843 36.2914 7.94258C35.7373 7.39673 35.4603 6.66893 35.4603 5.48625C35.4603 4.5765 35.6449 3.66675 36.2914 2.93895C36.7531 2.3931 37.5842 2.21115 38.6 2.21115H40.0775V3.57578H38.6C38.0459 3.57578 37.7689 3.66675 37.3995 3.93968C37.1225 4.2126 36.9378 4.75845 36.9378 5.39528C36.9378 6.12308 37.0301 6.57795 37.3995 6.94185C37.6765 7.21478 38.0459 7.30575 38.5076 7.30575H39.154L41.278 2.30213H43.5866L46.1722 8.39745V2.30213H48.4808L51.1588 6.7599V2.30213H52.7287V8.57941H52.9133Z" fill="#0571C1"/>
<path d="M15.792 14.4023V15.585H19.2087V16.8587H15.792V18.2233H19.5781L21.3327 16.3128L19.6705 14.4023H15.792Z" fill="#0571C1"/>
<path d="M29.1814 14.4023H27.2422V16.0399H29.2738C29.8278 16.0399 30.1972 15.767 30.1972 15.2211C30.1049 14.6753 29.7355 14.4023 29.1814 14.4023Z" fill="#0571C1"/>
<path d="M57.7163 15.9494V11.8555H56.6082H53.8378C53.0067 11.8555 52.3603 12.0374 51.8986 12.4013V11.8555H47.6508C47.0043 11.8555 46.1732 12.0374 45.8039 12.4013V11.8555H38.324V12.4013C37.7699 11.9464 36.7541 11.8555 36.2924 11.8555H31.3058V12.4013C30.8441 11.9464 29.7359 11.8555 29.1819 11.8555H23.6412L22.3484 13.2201L21.1479 11.8555H12.8369V20.771H20.9632L22.256 19.4064L23.4565 20.771H28.4431V18.6786H29.0895C29.7359 18.6786 30.567 18.6786 31.2135 18.4057V20.862H35.3689V18.4967H35.5536C35.8307 18.4967 35.8307 18.4967 35.8307 18.7696V20.862H48.3895C49.2206 20.862 50.0517 20.6801 50.5134 20.3162V20.862H54.4842C55.3153 20.862 56.1464 20.771 56.7005 20.4071C57.624 19.8613 58.178 18.8606 58.178 17.6779C58.178 17.0411 57.9933 16.4042 57.7163 15.9494ZM29.0895 17.405H27.2426V19.5884H24.2876L22.4407 17.4959L20.5015 19.5884H14.4068V13.1291H20.5938L22.4407 15.2216L24.38 13.1291H29.2742C30.4747 13.1291 31.8599 13.493 31.8599 15.2216C31.7675 17.0411 30.4747 17.405 29.0895 17.405ZM38.324 17.0411C38.5087 17.314 38.601 17.6779 38.601 18.2237V19.4974H37.0311V18.6786C37.0311 18.3147 37.0311 17.6779 36.7541 17.405C36.5694 17.132 36.2 17.132 35.646 17.132H33.9838V19.4974H32.4139V13.0381H35.923C36.6618 13.0381 37.3082 13.0381 37.7699 13.3111C38.2316 13.584 38.601 14.0389 38.601 14.7667C38.601 15.7674 37.9546 16.3133 37.4929 16.4952C37.9546 16.6772 38.2316 16.8591 38.324 17.0411ZM44.6957 14.4028H41.0943V15.5855H44.6034V16.8591H41.0943V18.1328H44.6957V19.4974H39.5244V13.0381H44.6957V14.4028ZM48.5742 19.4974H45.6192V18.1328H48.5742C48.8512 18.1328 49.0359 18.1328 49.2206 17.9508C49.313 17.8598 49.4053 17.6779 49.4053 17.4959C49.4053 17.314 49.313 17.132 49.2206 17.0411C49.1283 16.9501 48.9436 16.8591 48.6665 16.8591C47.189 16.7681 45.4345 16.8591 45.4345 14.8577C45.4345 13.9479 45.9886 12.9472 47.6508 12.9472H50.6981V14.4938H47.8354C47.5584 14.4938 47.3737 14.4938 47.189 14.5847C47.0043 14.6757 47.0043 14.8577 47.0043 15.0396C47.0043 15.3125 47.189 15.4035 47.3737 15.4945C47.5584 15.5855 47.7431 15.5855 47.9278 15.5855H48.7589C49.59 15.5855 50.1441 15.7674 50.5134 16.1313C50.7905 16.4042 50.9752 16.8591 50.9752 17.4959C50.9752 18.8606 50.1441 19.4974 48.5742 19.4974ZM56.5158 18.8606C56.1464 19.2245 55.5 19.4974 54.5766 19.4974H51.6216V18.1328H54.5766C54.8536 18.1328 55.0383 18.1328 55.223 17.9508C55.3153 17.8598 55.4077 17.6779 55.4077 17.4959C55.4077 17.314 55.3153 17.132 55.223 17.0411C55.1307 16.9501 54.946 16.8591 54.6689 16.8591C53.1914 16.7681 51.4369 16.8591 51.4369 14.8577C51.4369 13.9479 51.9909 12.9472 53.6531 12.9472H56.7005V14.4938H53.9302C53.6531 14.4938 53.4685 14.4938 53.2838 14.5847C53.0991 14.6757 53.0991 14.8577 53.0991 15.0396C53.0991 15.3125 53.1914 15.4035 53.4685 15.4945C53.6531 15.5855 53.8378 15.5855 54.0225 15.5855H54.8536C55.6847 15.5855 56.2388 15.7674 56.6082 16.1313C56.7005 16.1313 56.7005 16.2223 56.7005 16.2223C56.9775 16.5862 57.0699 17.0411 57.0699 17.4959C57.0699 18.0418 56.8852 18.4967 56.5158 18.8606Z" fill="#0571C1"/>
<path d="M36.6608 14.5851C36.4761 14.4941 36.1991 14.4941 35.9221 14.4941H34.0752V15.9497H35.9221C36.1991 15.9497 36.4761 15.9497 36.6608 15.8588C36.8455 15.7678 36.9379 15.4949 36.9379 15.2219C37.0302 14.858 36.8455 14.6761 36.6608 14.5851Z" fill="#0571C1"/>
<path d="M41.3701 5.85199H43.494L42.4783 3.30469L41.3701 5.85199Z" fill="#0571C1"/>
<path d="M25.6724 18.9512V13.7656L23.2715 16.3129L25.6724 18.9512Z" fill="#0571C1"/>
</svg>
