<svg width="40" height="25" viewBox="0 0 40 25" fill="none" xmlns="http://www.w3.org/2000/svg">
<g clip-path="url(#clip0_2321_164348)">
<path d="M38.1052 23.7899H1.81455C0.816561 23.7899 0 22.9779 0 21.9855V2.1365C0 1.14406 0.816561 0.332031 1.81455 0.332031H38.1052C39.1032 0.332031 39.9198 1.14406 39.9198 2.1365V21.9855C39.9197 22.9779 39.1031 23.7899 38.1052 23.7899Z" fill="#0E9347"/>
<path d="M34.476 21.9875H5.44348C5.44348 20.0026 3.81044 18.3787 1.81445 18.3787V5.74754C3.81044 5.74754 5.44348 4.12357 5.44348 2.13867H34.476C34.476 4.12357 36.1091 5.74754 38.1051 5.74754V18.3787C36.1091 18.3787 34.476 20.0026 34.476 21.9875Z" fill="#3BB54A"/>
<path d="M19.9574 20.1814C23.9659 20.1814 27.2155 16.546 27.2155 12.0614C27.2155 7.57686 23.9659 3.94141 19.9574 3.94141C15.9488 3.94141 12.6992 7.57686 12.6992 12.0614C12.6992 16.546 15.9488 20.1814 19.9574 20.1814Z" fill="#0E9347"/>
<path d="M9.07237 13.8668C10.0745 13.8668 10.8869 13.0589 10.8869 12.0623C10.8869 11.0657 10.0745 10.2578 9.07237 10.2578C8.07022 10.2578 7.25781 11.0657 7.25781 12.0623C7.25781 13.0589 8.07022 13.8668 9.07237 13.8668Z" fill="#0E9347"/>
<path d="M30.8458 13.8668C31.848 13.8668 32.6604 13.0589 32.6604 12.0623C32.6604 11.0657 31.848 10.2578 30.8458 10.2578C29.8437 10.2578 29.0312 11.0657 29.0312 12.0623C29.0312 13.0589 29.8437 13.8668 30.8458 13.8668Z" fill="#0E9347"/>
<path d="M20.8663 11.1614H19.0518C18.5074 11.1614 18.1445 10.8005 18.1445 10.2592C18.1445 9.71783 18.5075 9.35698 19.0518 9.35698H21.7736C22.3179 9.35698 22.6808 8.99606 22.6808 8.45479C22.6808 7.91344 22.3179 7.55259 21.7736 7.55259H20.8663C20.8663 7.01124 20.5034 6.65039 19.9591 6.65039C19.4147 6.65039 19.0519 7.01132 19.0519 7.55259C17.5095 7.55259 16.3301 8.72546 16.3301 10.2593C16.3301 11.7931 17.5095 12.9659 19.0519 12.9659H20.8664C21.4108 12.9659 21.7736 13.3269 21.7736 13.8681C21.7736 14.4095 21.4107 14.7703 20.8664 14.7703H18.1446C17.6003 14.7703 17.2374 15.1312 17.2374 15.6725C17.2374 16.2139 17.6003 16.5747 18.1446 16.5747H19.0519C19.0519 17.1161 19.4148 17.4769 19.9591 17.4769C20.5035 17.4769 20.8663 17.116 20.8663 16.5747C22.4087 16.5747 23.5881 15.4018 23.5881 13.868C23.5881 12.3342 22.4087 11.1614 20.8663 11.1614Z" fill="#89C763"/>
</g>
<defs>
<clipPath id="clip0_2321_164348">
<rect width="39.9197" height="24.995" fill="white"/>
</clipPath>
</defs>
</svg>
