<svg width="40" height="28" viewBox="0 0 40 28" fill="none" xmlns="http://www.w3.org/2000/svg">
<path d="M4.15828 0.0909424H35.7614C38.058 0.0909424 39.9197 2.03288 39.9197 4.42837V23.5132C39.9197 25.9087 38.058 27.8506 35.7614 27.8506H4.15828C1.86173 27.8507 0 25.9088 0 23.5132V4.42845C0 2.03288 1.86173 0.0909424 4.15828 0.0909424Z" fill="#2196F3"/>
<path d="M39.9197 5.29602H0V12.2355H39.9197V5.29602Z" fill="#455A64"/>
<path d="M12.4773 19.1754H5.82389C5.36457 19.1754 4.99219 18.7871 4.99219 18.3081C4.99219 17.8291 5.36457 17.4408 5.82389 17.4408H12.4773C12.9366 17.4408 13.309 17.8291 13.309 18.3081C13.309 18.7871 12.9366 19.1754 12.4773 19.1754Z" fill="#FAFAFA"/>
<path d="M17.4671 22.6451H5.82388C5.36456 22.6451 4.99219 22.2567 4.99219 21.7776C4.99219 21.2986 5.36456 20.9102 5.82388 20.9102H17.4671C17.9264 20.9102 18.2988 21.2986 18.2988 21.7776C18.2988 22.2567 17.9264 22.6451 17.4671 22.6451Z" fill="#FAFAFA"/>
</svg>
