<svg width="40" height="30" viewBox="0 0 40 30" fill="none" xmlns="http://www.w3.org/2000/svg">
<g id="gift-card">
<path id="Shape" d="M37.6476 29.012H4.14557C2.89145 29.012 1.87109 27.9477 1.87109 26.6394V6.73934C1.87109 5.43112 2.89145 4.36682 4.14557 4.36682H37.6475C38.9016 4.36682 39.922 5.43112 39.922 6.73934V26.6394C39.9221 27.9476 38.9017 29.012 37.6476 29.012Z" fill="#FFEF31"/>
<path id="Path" d="M37.6442 4.36682H20.8867V29.012H37.6441C38.8982 29.012 39.9186 27.9477 39.9186 26.6394V6.73934C39.9187 5.43112 38.8983 4.36682 37.6442 4.36682Z" fill="#EAD000"/>
<path id="Path_2" d="M34.0636 20.4692H25.7204C25.0745 20.4692 24.5508 19.9228 24.5508 19.2488C24.5508 18.5748 25.0745 18.0283 25.7204 18.0283H34.0636C34.7095 18.0283 35.2332 18.5748 35.2332 19.2488C35.2332 19.9228 34.7095 20.4692 34.0636 20.4692Z" fill="#152659"/>
<path id="Path_3" d="M31.3341 25.3522H25.7204C25.0744 25.3522 24.5508 24.8061 24.5508 24.1325C24.5508 23.4589 25.0744 22.9128 25.7204 22.9128H31.3341C31.98 22.9128 32.5037 23.4589 32.5037 24.1325C32.5037 24.8061 31.98 25.3522 31.3341 25.3522Z" fill="#152659"/>
<path id="Shape_2" fill-rule="evenodd" clip-rule="evenodd" d="M39.9197 10.915H16.5794C17.4984 10.5267 18.5061 9.98285 19.1839 9.27588C21.2149 7.15726 21.2149 3.71003 19.1839 1.59149C18.2 0.565199 16.8919 0 15.5005 0C14.1092 0 12.8011 0.565199 11.8172 1.59149C11.2027 2.23249 10.7165 3.1567 10.3536 4.03813C9.9907 3.1567 9.50446 2.23249 8.88995 1.59149C7.90609 0.565199 6.59793 0 5.20666 0C3.81523 0 2.50715 0.565199 1.52328 1.59149C-0.507761 3.71003 -0.507761 7.15726 1.52328 9.27596C2.20103 9.98293 3.20883 10.5267 4.12782 10.9151H1.86878V13.3552H7.25057L5.62709 15.002C5.16401 15.4718 5.15364 16.2441 5.60393 16.7272C6.05422 17.2104 6.79474 17.221 7.25782 16.7513L9.3535 14.6255V27.7922C9.3535 28.466 9.87717 29.0122 10.5231 29.0122C11.169 29.0122 11.6927 28.466 11.6927 27.7922V14.7667L13.7573 17.0257C13.9871 17.2772 14.2952 17.4038 14.6039 17.4038C14.8939 17.4038 15.1843 17.292 15.4108 17.0668C15.8784 16.6018 15.8961 15.8296 15.4503 15.3419L13.6345 13.3551H39.9197V10.915ZM11.9366 6.67599C12.3321 5.21021 12.9488 3.85944 13.4709 3.31475C14.013 2.74933 14.7336 2.43799 15.5002 2.43799C16.2668 2.43799 16.9875 2.74941 17.5295 3.31475C18.6485 4.48196 18.6485 6.38108 17.5295 7.54828C17.0074 8.09288 15.7124 8.73606 14.3071 9.14874C12.8998 9.562 11.9507 9.59469 11.5636 9.53759C11.509 9.13427 11.5403 8.14404 11.9366 6.67599ZM5.2084 2.43799C4.44178 2.43799 3.72116 2.74933 3.17909 3.31475C2.06011 4.48194 2.06011 6.38104 3.17901 7.54831C3.70112 8.09299 4.99616 8.73608 6.40138 9.14876C7.80871 9.56192 8.75795 9.5947 9.14484 9.53761C9.1995 9.13428 9.16824 8.14407 8.77198 6.67595C8.37635 5.21018 7.75974 3.85942 7.23764 3.31475C6.69557 2.74941 5.97495 2.43799 5.2084 2.43799Z" fill="#F90053"/>
<rect id="Rectangle" x="20.8867" y="10.9146" width="19.0319" height="2.44116" fill="#A50043"/>
</g>
</svg>
