<svg width="40" height="30" viewBox="0 0 40 30" fill="none" xmlns="http://www.w3.org/2000/svg">
<path d="M36.801 0.582031H3.11873C1.39914 0.582031 0 1.9734 0 3.68343V26.0135C0 27.7236 1.39914 29.1149 3.11873 29.1149H36.801C38.5206 29.1149 39.9197 27.7236 39.9197 26.0135V3.68343C39.9197 1.9734 38.5206 0.582031 36.801 0.582031Z" fill="#5D647F"/>
<path d="M13.7227 12.9863H6.23773C5.54872 12.9863 4.99023 12.4309 4.99023 11.7458V6.78353C4.99023 6.09835 5.54872 5.54297 6.23773 5.54297H13.7227C14.4117 5.54297 14.9702 6.09835 14.9702 6.78353V11.7458C14.9702 12.4309 14.4117 12.9863 13.7227 12.9863Z" fill="#FFD100"/>
<path d="M9.35645 21.0506H6.23773C5.54872 21.0506 4.99023 20.4952 4.99023 19.8101V19.1898C4.99023 18.5046 5.54872 17.9492 6.23773 17.9492H9.35645C10.0455 17.9492 10.6039 18.5046 10.6039 19.1898V19.8101C10.6039 20.4952 10.0455 21.0506 9.35645 21.0506Z" fill="#B8BAC0"/>
<path d="M17.4639 21.0506H14.3451C13.6561 21.0506 13.0977 20.4952 13.0977 19.8101V19.1898C13.0977 18.5046 13.6561 17.9492 14.3451 17.9492H17.4639C18.1529 17.9492 18.7114 18.5046 18.7114 19.1898V19.8101C18.7114 20.4952 18.1529 21.0506 17.4639 21.0506Z" fill="#B8BAC0"/>
<path d="M25.5732 21.0506H22.4545C21.7655 21.0506 21.207 20.4952 21.207 19.8101V19.1898C21.207 18.5046 21.7655 17.9492 22.4545 17.9492H25.5732C26.2623 17.9492 26.8207 18.5046 26.8207 19.1898V19.8101C26.8207 20.4952 26.2623 21.0506 25.5732 21.0506Z" fill="#B8BAC0"/>
<path d="M33.6826 21.0506H30.5639C29.8749 21.0506 29.3164 20.4952 29.3164 19.8101V19.1898C29.3164 18.5046 29.8749 17.9492 30.5639 17.9492H33.6826C34.3716 17.9492 34.9301 18.5046 34.9301 19.1898V19.8101C34.9301 20.4952 34.3716 21.0506 33.6826 21.0506Z" fill="#B8BAC0"/>
<path d="M18.0889 24.7718H5.61398C5.2692 24.7718 4.99023 24.4941 4.99023 24.1515C4.99023 23.809 5.2692 23.5312 5.61398 23.5312H18.0889C18.4337 23.5312 18.7126 23.809 18.7126 24.1515C18.7126 24.4941 18.4337 24.7718 18.0889 24.7718Z" fill="#8A8895"/>
<path d="M26.1964 24.7718H20.5827C20.238 24.7718 19.959 24.4941 19.959 24.1515C19.959 23.809 20.238 23.5312 20.5827 23.5312H26.1964C26.5412 23.5312 26.8202 23.809 26.8202 24.1515C26.8202 24.4941 26.5412 24.7718 26.1964 24.7718Z" fill="#8A8895"/>
<path d="M28.692 11.7459C28.0068 12.5072 27.0109 12.9863 25.9026 12.9863C23.8357 12.9863 22.1602 11.3201 22.1602 9.26465C22.1602 7.2092 23.8357 5.54297 25.9026 5.54297C27.0108 5.54297 28.0064 6.0219 28.6917 6.78299" fill="#FF4F19"/>
<path d="M14.9693 9.88493H8.73187V8.64437H14.9693V7.40381H8.73187V5.54297H7.48438V12.9863H8.73187V11.1255H14.9693V9.88493Z" fill="#FF9500"/>
<path d="M31.1878 12.9863C33.2547 12.9863 34.9303 11.3201 34.9303 9.26465C34.9303 7.20922 33.2547 5.54297 31.1878 5.54297C29.1209 5.54297 27.4453 7.20922 27.4453 9.26465C27.4453 11.3201 29.1209 12.9863 31.1878 12.9863Z" fill="#FFD100"/>
</svg>
