<svg width="47" height="27" viewBox="0 0 47 27" fill="none" xmlns="http://www.w3.org/2000/svg">
<path d="M24.4268 11.1008C26.0552 10.1722 27.5861 9.2989 29.2233 8.36547C28.6932 7.44904 28.8224 7.66936 28.3395 6.80471C27.8278 5.88866 28.0207 5.52852 29.0775 5.52096C32.1547 5.49979 35.2327 5.49715 38.3099 5.51302C39.224 5.51793 39.4446 5.9034 38.9862 6.69776C37.4641 9.3348 35.9251 11.9624 34.3723 14.5821C33.8763 15.4184 33.4425 15.4165 32.9242 14.5983C32.3918 13.7575 32.5337 13.9653 31.9641 13.0122C30.3587 13.9305 28.7545 14.8485 27.183 15.7475C27.2773 15.9901 27.3978 16.1458 27.4964 16.3148C28.6805 18.3453 29.2095 19.315 30.4332 21.3224C31.8832 23.7013 34.9228 23.8446 36.6489 21.6459C36.8407 21.4014 37.0164 21.1418 37.1733 20.8742C40.0775 15.9183 42.9833 10.9636 45.8702 5.99788C46.1629 5.49526 46.4268 4.94616 46.5538 4.38534C47.0597 2.15002 45.3765 0.0367597 43.0109 0.0242888C36.7874 -0.0082113 30.5628 -0.0131241 24.3394 0.0409167C21.5046 0.0654807 19.801 2.86162 21.0462 5.31916C21.452 6.11919 21.9388 6.87954 22.3949 7.65463C23.253 9.11373 23.4797 9.49768 24.4268 11.1008Z" fill="#306E9A"/>
<path d="M10.5935 26.4125C10.5962 24.5733 10.6012 20.9729 10.6012 20.9729C10.6012 20.9729 9.83594 20.965 8.80177 20.965C7.7488 20.965 7.53168 20.5984 8.05145 19.7017C9.56589 17.0899 11.0972 14.4873 12.6442 11.8941C13.1038 11.1239 13.5108 11.0563 14.0129 11.9126C15.5404 14.519 17.0729 17.1228 18.5804 19.7406C19.0618 20.5761 18.8439 20.942 17.873 20.9726C16.8707 20.9726 16.0138 20.9714 16.0138 20.9714L16.0134 26.4273C16.0134 26.4273 20.0994 26.428 22.4881 26.428C25.2818 26.3872 26.9209 23.8896 25.866 21.3354C25.749 21.0515 25.6105 20.7738 25.4556 20.5077C22.5867 15.584 19.7189 10.6595 16.8331 5.74515C16.5408 5.24782 16.1944 4.75087 15.7694 4.36427C14.0747 2.82279 11.3956 3.19276 10.2065 5.18585C7.0775 10.4301 3.9723 15.689 0.91849 20.976C-0.472428 23.3844 1.11374 26.2176 3.87448 26.3891C4.77324 26.445 8.61112 26.4125 10.5935 26.4125Z" fill="#1F4066"/>
</svg>
