<svg width="23" height="23" viewBox="0 0 23 23" fill="none" xmlns="http://www.w3.org/2000/svg">
<path d="M11.4883 0.465576C12.2472 0.465576 12.8624 1.07733 12.8624 1.83197V10.0304H21.1066C21.8654 10.0304 22.4806 10.6421 22.4806 11.3968C22.4806 12.1514 21.8654 12.7632 21.1066 12.7632H12.8624V20.9615C12.8624 21.7162 12.2472 22.3279 11.4883 22.3279C10.7295 22.3279 10.1143 21.7162 10.1143 20.9615V12.7632H1.87013C1.11127 12.7632 0.496094 12.1514 0.496094 11.3968C0.496094 10.6421 1.11127 10.0304 1.87013 10.0304H10.1143V1.83197C10.1143 1.07733 10.7295 0.465576 11.4883 0.465576Z" fill="#0D0D0D"/>
</svg>
