<svg width="48" height="15" viewBox="0 0 48 15" fill="none" xmlns="http://www.w3.org/2000/svg">
<path d="M17.3398 14.2703L19.7419 0.833984H23.495L21.1681 14.2703H17.3398Z" fill="#3C58BF"/>
<path d="M17.3398 14.2703L20.4174 0.833984H23.495L21.1681 14.2703H17.3398Z" fill="#293688"/>
<path d="M34.7542 0.983888C34.0036 0.685303 32.8026 0.386719 31.3013 0.386719C27.5481 0.386719 24.8459 2.25287 24.8459 4.94014C24.8459 6.95559 26.7224 8.00063 28.2237 8.67245C29.725 9.34427 30.1754 9.79214 30.1754 10.3893C30.1754 11.2851 28.9743 11.7329 27.9235 11.7329C26.4222 11.7329 25.5965 11.509 24.3204 10.9865L23.795 10.7625L23.2695 13.823C24.1703 14.1963 25.8217 14.5695 27.5481 14.5695C31.5265 14.5695 34.1537 12.7034 34.1537 9.86679C34.1537 8.29922 33.1779 7.10488 30.926 6.13448C29.5748 5.46266 28.7491 5.08943 28.7491 4.41762C28.7491 3.82045 29.4247 3.22328 30.926 3.22328C32.2021 3.22328 33.1028 3.44721 33.7784 3.7458L34.1537 3.89509L34.7542 0.983888Z" fill="#3C58BF"/>
<path d="M34.7542 0.983888C34.0036 0.685303 32.8026 0.386719 31.3013 0.386719C27.5481 0.386719 25.5214 2.25287 25.5214 4.94014C25.5214 6.95559 26.7224 8.00063 28.2237 8.67245C29.725 9.34427 30.1754 9.79214 30.1754 10.3893C30.1754 11.2851 28.9743 11.7329 27.9235 11.7329C26.4222 11.7329 25.5965 11.509 24.3204 10.9865L23.795 10.7625L23.2695 13.823C24.1703 14.1963 25.8217 14.5695 27.5481 14.5695C31.5265 14.5695 34.1537 12.7034 34.1537 9.86679C34.1537 8.29922 33.1779 7.10488 30.926 6.13448C29.5748 5.46266 28.7491 5.08943 28.7491 4.41762C28.7491 3.82045 29.4247 3.22328 30.926 3.22328C32.2021 3.22328 33.1028 3.44721 33.7784 3.7458L34.1537 3.89509L34.7542 0.983888Z" fill="#293688"/>
<path d="M41.2103 0.833984C40.3095 0.833984 39.634 0.908631 39.2587 1.80439L33.6289 14.2703H37.6823L38.433 12.0309H43.237L43.6874 14.2703H47.2904L44.1378 0.833984H41.2103ZM39.4838 9.79154C39.709 9.11972 40.9851 5.83529 40.9851 5.83529C40.9851 5.83529 41.2854 5.01418 41.5105 4.49165L41.7357 5.76064C41.7357 5.76064 42.4864 9.11973 42.6365 9.86619H39.4838V9.79154Z" fill="#3C58BF"/>
<path d="M42.1111 0.833984C41.2103 0.833984 40.5347 0.908631 40.1594 1.80439L33.6289 14.2703H37.6823L38.433 12.0309H43.237L43.6874 14.2703H47.2904L44.1378 0.833984H42.1111ZM39.4838 9.79154C39.7841 9.04508 40.9851 5.83529 40.9851 5.83529C40.9851 5.83529 41.2854 5.01418 41.5105 4.49165L41.7357 5.76064C41.7357 5.76064 42.4864 9.11973 42.6365 9.86619H39.4838V9.79154Z" fill="#293688"/>
<path d="M10.4344 10.239L10.0591 8.29818C9.38355 6.05879 7.20671 3.59547 4.80469 2.40113L8.18254 14.3445H12.236L18.3161 0.908203H14.2627L10.4344 10.239Z" fill="#3C58BF"/>
<path d="M10.4344 10.239L10.0591 8.29818C9.38355 6.05879 7.20671 3.59547 4.80469 2.40113L8.18254 14.3445H12.236L18.3161 0.908203H15.0133L10.4344 10.239Z" fill="#293688"/>
<path d="M0 0.833984L0.675569 0.983278C5.47962 2.10297 8.7824 4.93953 10.0585 8.29861L8.70734 1.95368C8.48215 1.05792 7.80658 0.833984 6.98089 0.833984H0Z" fill="#FFBC00"/>
<path d="M0 0.833984C4.80405 1.95368 8.7824 4.86489 10.0585 8.22398L8.7824 2.92408C8.55721 2.02833 7.80658 1.5058 6.98089 1.5058L0 0.833984Z" fill="#F7981D"/>
<path d="M0 0.833984C4.80405 1.95368 8.7824 4.86489 10.0585 8.22398L9.15772 5.31277C8.93253 4.41701 8.63228 3.52125 7.58139 3.14802L0 0.833984Z" fill="#ED7C00"/>
<path d="M14.1868 9.79081L11.6346 7.25283L10.4336 10.0894L10.1333 8.22323C9.45777 5.98384 7.28093 3.52051 4.87891 2.32617L8.25675 14.2696H12.3102L14.1868 9.79081Z" fill="#051244"/>
<path d="M21.1676 14.2698L17.9399 10.9853L17.3394 14.2698H21.1676Z" fill="#051244"/>
<path d="M29.7998 9.6416C30.1 9.94018 30.2502 10.1641 30.1751 10.4627C30.1751 11.3585 28.9741 11.8063 27.9232 11.8063C26.4219 11.8063 25.5962 11.5824 24.3202 11.0599L23.7947 10.8359L23.2693 13.8964C24.17 14.2697 25.8214 14.6429 27.5479 14.6429C29.9499 14.6429 31.9015 13.9711 33.0275 12.7767L29.7998 9.6416Z" fill="#051244"/>
<path d="M34.1532 14.2697H37.6812L38.4318 12.0303H43.2359L43.6862 14.2697H47.2893L46.0132 8.82049L41.5094 4.49101L41.7346 5.68535C41.7346 5.68535 42.4852 9.04443 42.6353 9.79089H39.4827C39.7829 9.04443 40.984 5.83464 40.984 5.83464C40.984 5.83464 41.2842 5.01353 41.5094 4.49101" fill="#051244"/>
</svg>
