<svg width="40" height="40" viewBox="0 0 40 40" fill="none" xmlns="http://www.w3.org/2000/svg">
<circle cx="20" cy="20" r="20" fill="#EFF7E4"/>
<path fill-rule="evenodd" clip-rule="evenodd" d="M12.5556 12C11.6126 12 10.7082 12.3746 10.0414 13.0414C9.3746 13.7082 9 14.6126 9 15.5556V24.4444C9 25.3874 9.3746 26.2918 10.0414 26.9586C10.7082 27.6254 11.6126 28 12.5556 28H26.7778C27.7208 28 28.6251 27.6254 29.2919 26.9586C29.9587 26.2918 30.3333 25.3874 30.3333 24.4444V15.5556C30.3333 14.6126 29.9587 13.7082 29.2919 13.0414C28.6251 12.3746 27.7208 12 26.7778 12H12.5556ZM26.7778 13.7778H12.5556C12.0841 13.7778 11.6319 13.9651 11.2985 14.2985C10.9651 14.6319 10.7778 15.0841 10.7778 15.5556V21.7778H28.5556V15.5556C28.5556 15.0841 28.3683 14.6319 28.0349 14.2985C27.7015 13.9651 27.2493 13.7778 26.7778 13.7778ZM28.5556 23.5556H10.7778V24.4444C10.7778 24.9159 10.9651 25.3681 11.2985 25.7015C11.6319 26.0349 12.0841 26.2222 12.5556 26.2222H26.7778C27.2493 26.2222 27.7015 26.0349 28.0349 25.7015C28.3683 25.3681 28.5556 24.9159 28.5556 24.4444V23.5556Z" fill="#90C63E"/>
<path d="M13.4453 16.4446C13.4453 16.2088 13.539 15.9827 13.7057 15.816C13.8724 15.6493 14.0985 15.5557 14.3342 15.5557H17.8898C18.1255 15.5557 18.3516 15.6493 18.5183 15.816C18.685 15.9827 18.7786 16.2088 18.7786 16.4446C18.7786 16.6803 18.685 16.9064 18.5183 17.0731C18.3516 17.2398 18.1255 17.3334 17.8898 17.3334H14.3342C14.0985 17.3334 13.8724 17.2398 13.7057 17.0731C13.539 16.9064 13.4453 16.6803 13.4453 16.4446Z" fill="#90C63E"/>
</svg>
