<svg width="18" height="18" viewBox="0 0 18 18" fill="none" xmlns="http://www.w3.org/2000/svg">
<path d="M12.7498 2.24986C12.9467 2.05288 13.1806 1.89662 13.438 1.79002C13.6953 1.68341 13.9712 1.62854 14.2498 1.62854C14.5283 1.62854 14.8042 1.68341 15.0616 1.79002C15.3189 1.89662 15.5528 2.05288 15.7498 2.24986C15.9467 2.44684 16.103 2.6807 16.2096 2.93807C16.3162 3.19544 16.3711 3.47128 16.3711 3.74986C16.3711 4.02844 16.3162 4.30428 16.2096 4.56165C16.103 4.81902 15.9467 5.05288 15.7498 5.24986L5.62476 15.3749L1.49976 16.4999L2.62476 12.3749L12.7498 2.24986Z" stroke="#90C63E" stroke-width="1.8" stroke-linecap="round" stroke-linejoin="round"/>
</svg>
