<svg width="40" height="40" viewBox="0 0 40 40" fill="none" xmlns="http://www.w3.org/2000/svg">
<circle cx="20" cy="20" r="20" fill="#EFF7E4"/>
<path d="M10.375 15.875C10.375 15.1457 10.6647 14.4462 11.1805 13.9305C11.6962 13.4147 12.3957 13.125 13.125 13.125H26.875C27.6043 13.125 28.3038 13.4147 28.8195 13.9305C29.3353 14.4462 29.625 15.1457 29.625 15.875V24.125C29.625 24.8543 29.3353 25.5538 28.8195 26.0695C28.3038 26.5853 27.6043 26.875 26.875 26.875H13.125C12.3957 26.875 11.6962 26.5853 11.1805 26.0695C10.6647 25.5538 10.375 24.8543 10.375 24.125V15.875ZM26.875 25.5C27.2397 25.5 27.5894 25.3551 27.8473 25.0973C28.1051 24.8394 28.25 24.4897 28.25 24.125V20H18.2221L19.7992 21.5758C19.9283 21.7048 20.0009 21.8799 20.0009 22.0625C20.0009 22.2451 19.9283 22.4202 19.7992 22.5492C19.6702 22.6783 19.4951 22.7509 19.3125 22.7509C19.1299 22.7509 18.9548 22.6783 18.8258 22.5492L17.25 20.9721V25.5H26.875ZM19.8831 18.625H28.25V15.875C28.25 15.5103 28.1051 15.1606 27.8473 14.9027C27.5894 14.6449 27.2397 14.5 26.875 14.5H17.25V15.9919C17.6173 15.8617 18.0139 15.8382 18.394 15.9241C18.7741 16.01 19.122 16.2019 19.3976 16.4774C19.6731 16.753 19.865 17.1009 19.9509 17.481C20.0368 17.8611 20.0133 18.2577 19.8831 18.625ZM17.9375 18.625C18.0735 18.625 18.2064 18.5847 18.3195 18.5091C18.4325 18.4336 18.5206 18.3262 18.5727 18.2006C18.6247 18.075 18.6383 17.9367 18.6118 17.8034C18.5853 17.67 18.5198 17.5475 18.4236 17.4514C18.3275 17.3552 18.205 17.2897 18.0716 17.2632C17.9383 17.2367 17.8 17.2503 17.6744 17.3023C17.5488 17.3544 17.4414 17.4425 17.3659 17.5555C17.2903 17.6686 17.25 17.8015 17.25 17.9375V18.625H17.9375ZM15.875 15.9919V14.5H13.125C12.7603 14.5 12.4106 14.6449 12.1527 14.9027C11.8949 15.1606 11.75 15.5103 11.75 15.875V18.625H13.2419C13.1117 18.2577 13.0882 17.8611 13.1741 17.481C13.26 17.1009 13.4519 16.753 13.7274 16.4774C14.003 16.2019 14.3509 16.01 14.731 15.9241C15.1111 15.8382 15.5077 15.8617 15.875 15.9919ZM15.1875 18.625H15.875V17.9375C15.875 17.8015 15.8347 17.6686 15.7591 17.5555C15.6836 17.4425 15.5762 17.3544 15.4506 17.3023C15.325 17.2503 15.1867 17.2367 15.0534 17.2632C14.92 17.2897 14.7975 17.3552 14.7014 17.4514C14.6052 17.5475 14.5397 17.67 14.5132 17.8034C14.4867 17.9367 14.5003 18.075 14.5523 18.2006C14.6044 18.3262 14.6925 18.4336 14.8055 18.5091C14.9186 18.5847 15.0515 18.625 15.1875 18.625ZM14.9029 20H11.75V24.125C11.75 24.4897 11.8949 24.8394 12.1527 25.0973C12.4106 25.3551 12.7603 25.5 13.125 25.5H15.875V20.9721L14.2993 22.5492C14.2353 22.6132 14.1594 22.6639 14.0759 22.6985C13.9924 22.7331 13.9029 22.7509 13.8125 22.7509C13.7221 22.7509 13.6326 22.7331 13.5491 22.6985C13.4656 22.6639 13.3897 22.6132 13.3257 22.5492C13.2618 22.4853 13.2111 22.4094 13.1765 22.3259C13.1419 22.2424 13.1241 22.1529 13.1241 22.0625C13.1241 21.9721 13.1419 21.8826 13.1765 21.7991C13.2111 21.7156 13.2618 21.6397 13.3257 21.5758L14.9029 20Z" fill="#90C63E"/>
</svg>
