<svg width="20" height="14" viewBox="0 0 20 14" fill="none" xmlns="http://www.w3.org/2000/svg">
<path d="M6.99961 13.1674C5.77983 13.1674 4.58744 12.8057 3.57322 12.128C2.55901 11.4503 1.76853 10.4871 1.30174 9.3602C0.834948 8.23327 0.712814 6.99323 0.950782 5.79688C1.18875 4.60054 1.77613 3.50162 2.63865 2.63911C3.50117 1.77659 4.60008 1.18921 5.79642 0.951239C6.99277 0.713272 8.23281 0.835406 9.35975 1.3022C10.4867 1.76899 11.4499 2.55947 12.1276 3.57368C12.8052 4.58789 13.1669 5.78029 13.1669 7.00007C13.1652 8.63523 12.5149 10.2029 11.3587 11.3592C10.2025 12.5154 8.63477 13.1657 6.99961 13.1674Z" fill="#E61C24"/>
<path d="M13.0003 13.1674C11.7805 13.1676 10.5881 12.8061 9.57374 12.1285C8.55943 11.451 7.7688 10.4879 7.30185 9.36105C6.83489 8.23419 6.71257 6.99416 6.95036 5.79778C7.18815 4.6014 7.77537 3.5024 8.63776 2.63975C9.50015 1.77711 10.599 1.18956 11.7953 0.951418C12.9916 0.713273 14.2317 0.835222 15.3587 1.30185C16.4857 1.76847 17.449 2.55881 18.1268 3.57292C18.8046 4.58703 19.1665 5.77937 19.1667 6.99915V7.00007C19.165 8.63507 18.5148 10.2026 17.3588 11.3588C16.2027 12.515 14.6353 13.1655 13.0003 13.1674Z" fill="#F99F1B"/>
</svg>
