<svg width="36" height="24" viewBox="0 0 36 24" fill="none" xmlns="http://www.w3.org/2000/svg">
<rect width="36" height="24" rx="4" fill="white"/>
<rect x="0.2" y="0.2" width="35.6" height="23.6" rx="3.8" stroke="#A6AEC1" stroke-opacity="0.5" stroke-width="0.4"/>
<path d="M14.9996 18.1674C13.7798 18.1674 12.5874 17.8057 11.5732 17.128C10.559 16.4503 9.76853 15.4871 9.30174 14.3602C8.83495 13.2332 8.71281 11.9932 8.95078 10.7969C9.18875 9.60051 9.77613 8.50159 10.6386 7.63908C11.5012 6.77656 12.6001 6.18918 13.7964 5.95121C14.9928 5.71324 16.2328 5.83538 17.3597 6.30217C18.4867 6.76896 19.4499 7.55944 20.1276 8.57365C20.8052 9.58786 21.1669 10.7803 21.1669 12C21.1652 13.6352 20.5149 15.2029 19.3587 16.3591C18.2025 17.5154 16.6348 18.1657 14.9996 18.1674Z" fill="#E61C24"/>
<path d="M21.0003 18.1674C19.7805 18.1676 18.5881 17.806 17.5737 17.1285C16.5594 16.451 15.7688 15.4879 15.3018 14.361C14.8349 13.2342 14.7126 11.9941 14.9504 10.7978C15.1881 9.60137 15.7754 8.50237 16.6378 7.63972C17.5001 6.77708 18.599 6.18953 19.7953 5.95139C20.9916 5.71324 22.2317 5.83519 23.3587 6.30181C24.4857 6.76844 25.449 7.55878 26.1268 8.57289C26.8046 9.587 27.1665 10.7793 27.1667 11.9991V12C27.165 13.635 26.5148 15.2026 25.3588 16.3588C24.2027 17.515 22.6353 18.1654 21.0003 18.1674Z" fill="#F99F1B"/>
</svg>
