<svg width="40" height="40" viewBox="0 0 40 40" fill="none" xmlns="http://www.w3.org/2000/svg">
<circle cx="20" cy="20" r="19.1" fill="#FD6D6D" fill-opacity="0.14" stroke="#FD6D6D" stroke-width="1.8"/>
<path d="M20.0093 35.9997H20C16.7767 35.999 13.6693 35.045 11.0147 33.2403C9.73533 32.3703 8.58933 31.321 7.60867 30.1223C6.62067 28.9143 5.81733 27.5744 5.22067 26.139C5.07933 25.7997 5.24067 25.4084 5.58 25.2677C5.662 25.2337 5.748 25.2164 5.836 25.2164C6.106 25.2164 6.348 25.3777 6.45133 25.627C8.736 31.1184 14.0533 34.6663 19.998 34.6663H20.008H20.0087C20.178 34.6663 20.3387 34.7297 20.4627 34.8443L20.468 34.8497C20.4687 34.8497 20.4687 34.8503 20.4687 34.8503L20.4701 34.8517C20.4714 34.8524 20.4721 34.8537 20.4734 34.8543C20.4741 34.8551 20.4748 34.8557 20.4748 34.8557C20.4755 34.8564 20.4767 34.8577 20.4781 34.8591L20.4875 34.8685C20.4881 34.8698 20.4901 34.8711 20.4915 34.8731L20.4922 34.8737C20.5089 34.8911 20.5241 34.9091 20.5381 34.9278C20.5469 34.9385 20.5541 34.9491 20.5621 34.9597C20.5621 34.9605 20.5621 34.9611 20.5628 34.9611L20.5642 34.9631C20.5649 34.9645 20.5655 34.9658 20.5662 34.9671L20.5642 34.9698L20.5675 34.9678L20.5729 34.9765C20.5735 34.9779 20.5742 34.9791 20.5749 34.9805C20.5762 34.9819 20.5768 34.9832 20.5775 34.9845C20.5782 34.9853 20.5789 34.9865 20.5795 34.9872L20.5821 34.9925C20.5829 34.9932 20.5829 34.9939 20.5835 34.9939C20.6435 35.0953 20.6755 35.2119 20.6762 35.3306V35.3326C20.6762 35.3339 20.6762 35.3345 20.6762 35.3353C20.6755 35.5092 20.6082 35.6739 20.4862 35.7985C20.4862 35.7993 20.4855 35.7999 20.4848 35.7999C20.4835 35.8013 20.4821 35.8026 20.4815 35.8039L20.4775 35.808C20.4767 35.8087 20.4755 35.8093 20.4748 35.8099C20.3508 35.9319 20.1861 35.9993 20.0121 36H20.0093V35.9997ZM22.9986 35.7063C22.6819 35.7063 22.4073 35.4803 22.3459 35.1697C22.3113 34.995 22.3467 34.817 22.4453 34.669C22.5446 34.5209 22.6953 34.4203 22.8699 34.3857C22.9126 34.377 22.9566 34.373 23.0006 34.373C23.3173 34.373 23.5919 34.5991 23.6533 34.9097C23.7246 35.2703 23.4899 35.6223 23.1293 35.6937C23.086 35.7023 23.0427 35.7063 22.9986 35.7063ZM25.8753 34.8337C25.6046 34.8337 25.3633 34.6723 25.2593 34.423C25.1913 34.2584 25.1907 34.0771 25.2593 33.9124C25.3267 33.7477 25.4553 33.6197 25.6193 33.551C31.116 31.2684 34.6673 25.9491 34.6667 19.9998C34.6667 19.9938 34.6667 19.9885 34.6667 19.9825C34.6667 19.9764 34.6667 19.9711 34.6667 19.9651C34.666 19.5978 34.964 19.2978 35.3313 19.2971H35.3333C35.7 19.2971 35.9986 19.5951 36 19.9618V19.9998C35.9993 23.2245 35.0447 26.3331 33.2379 28.9884C32.3673 30.2691 31.3173 31.415 30.1173 32.3956C28.9079 33.3836 27.5673 34.187 26.1306 34.783C26.0493 34.8163 25.9633 34.8337 25.8753 34.8337ZM4.96133 23.6751C4.64467 23.6751 4.37 23.4491 4.308 23.1385C4.27333 22.9638 4.30867 22.7858 4.40733 22.6377C4.506 22.4897 4.65667 22.3891 4.83133 22.3544C4.87467 22.3457 4.91867 22.3418 4.96267 22.3418C5.27933 22.3418 5.554 22.5671 5.61533 22.8785C5.65 23.0531 5.61467 23.2305 5.516 23.3785C5.41733 23.5265 5.26667 23.6271 5.092 23.6625C5.04867 23.6705 5.00467 23.6751 4.96133 23.6751ZM4.66733 20.6845H4.66667C4.29933 20.6845 4.00067 20.3859 4 20.0186V19.9998C4.00067 16.7779 4.95333 13.6726 6.75667 11.0186C7.626 9.73927 8.674 8.59329 9.872 7.61263C11.0787 6.62464 12.418 5.82131 13.852 5.22399C13.934 5.18999 14.02 5.17265 14.108 5.17265C14.378 5.17265 14.62 5.33399 14.7233 5.58332C14.8647 5.92265 14.704 6.31331 14.3647 6.45464C8.87733 8.74128 5.33267 14.0579 5.33333 19.9998V20.0172C5.33333 20.1952 5.26467 20.3625 5.13867 20.4885C5.01267 20.6151 4.84533 20.6845 4.66733 20.6845ZM35.034 17.6405C34.718 17.6405 34.4433 17.4152 34.3813 17.1045C34.3807 17.1045 34.3807 17.1039 34.3807 17.1039C34.3459 16.9292 34.3813 16.7519 34.48 16.6039C34.5786 16.4559 34.7293 16.3552 34.9039 16.3199C34.9473 16.3112 34.9913 16.3072 35.0353 16.3072C35.3513 16.3072 35.6259 16.5325 35.6887 16.8432C35.7607 17.2032 35.526 17.5552 35.1653 17.6272C35.1227 17.6359 35.078 17.6405 35.034 17.6405ZM34.1573 14.7666C33.8873 14.7666 33.6453 14.6059 33.542 14.3566C31.254 8.87528 25.9393 5.33332 20.002 5.33332H19.9727C19.606 5.33332 19.3067 5.03466 19.306 4.66799C19.306 4.48999 19.3747 4.322 19.5007 4.196C19.626 4.07 19.7933 4.00067 19.9707 4C19.9713 4 19.9713 4 19.9713 4H19.9747H19.9801C19.9873 4 19.9933 4 20.0001 4C23.2201 4.00067 26.324 4.95266 28.9774 6.75397C30.2567 7.62263 31.4021 8.66928 32.3827 9.86661C33.3707 11.0719 34.1747 12.4099 34.7721 13.8432C34.9141 14.1826 34.7527 14.5732 34.4141 14.7152C34.3319 14.7492 34.2453 14.7666 34.1573 14.7666ZM16.9827 5.62998H16.982C16.6653 5.62998 16.3907 5.40465 16.3287 5.09399C16.294 4.91932 16.3293 4.74133 16.428 4.59333C16.5267 4.44533 16.6773 4.34466 16.852 4.30933C16.8953 4.30066 16.9393 4.29666 16.9833 4.29666C17.3 4.29666 17.5747 4.52199 17.6367 4.83332C17.7087 5.19332 17.4733 5.54532 17.1133 5.61732C17.07 5.62598 17.026 5.62998 16.9827 5.62998Z" fill="#FD6D6D"/>
<path d="M20.0067 31.9997C19.6387 31.9997 19.34 31.7004 19.34 31.3331C19.34 31.1551 19.4087 30.9877 19.5347 30.8618C19.6607 30.7358 19.828 30.6664 20.006 30.6664C25.8847 30.6638 30.6673 25.8785 30.6667 19.9999V19.9765C30.666 19.7978 30.7353 19.6305 30.8607 19.5045C30.9867 19.3778 31.1539 19.3085 31.3319 19.3078H31.3333C31.7 19.3078 31.9993 19.6065 32 19.9731V19.9998C32 21.6191 31.6827 23.1904 31.0573 24.6691C30.7566 25.3804 30.3846 26.0657 29.952 26.707C29.5227 27.3423 29.03 27.9397 28.4873 28.4824C27.9446 29.0256 27.3473 29.5184 26.7126 29.9476C26.0713 30.381 25.386 30.7536 24.6753 31.0543C23.1967 31.6804 21.626 31.9983 20.0067 31.9997ZM17.074 31.6184C17.016 31.6184 16.958 31.6111 16.902 31.5957C16.5467 31.501 16.3347 31.1351 16.4293 30.7798C16.5073 30.4884 16.772 30.2844 17.0733 30.2844C17.1307 30.2844 17.1887 30.2924 17.2453 30.307C17.6007 30.4018 17.812 30.7684 17.718 31.123C17.64 31.415 17.3753 31.6184 17.074 31.6184ZM14.3393 30.4871C14.2227 30.4871 14.108 30.4564 14.006 30.3978C12.214 29.3631 10.71 27.8725 9.65733 26.0878C9.12467 25.1852 8.71267 24.2159 8.434 23.2079C8.146 22.1679 8 21.0885 8 19.9999C8 18.9319 8.14067 17.8719 8.418 16.8492C8.68733 15.8573 9.08467 14.9026 9.59867 14.0113C9.71733 13.8059 9.93933 13.6779 10.1767 13.6779C10.2933 13.6779 10.408 13.7086 10.5093 13.7673C10.664 13.8559 10.774 13.9999 10.82 14.1719C10.8667 14.3439 10.8427 14.5233 10.754 14.6779C9.82467 16.2892 9.33333 18.1292 9.33333 19.9999C9.33333 23.7972 11.3787 27.3391 14.672 29.243C14.6727 29.243 14.6727 29.243 14.6733 29.243C14.8793 29.3624 15.0067 29.5844 15.0067 29.8224C15.006 29.9384 14.9753 30.053 14.9173 30.1537C14.798 30.3597 14.5767 30.4871 14.3393 30.4871ZM30.9433 17.7092C30.6433 17.7092 30.3786 17.5072 30.3 17.2172C30.3 17.2166 30.3 17.2166 30.3 17.2166C30.204 16.8612 30.4153 16.4946 30.77 16.3992C30.8273 16.3839 30.8853 16.3759 30.944 16.3759C31.2447 16.3759 31.5093 16.5786 31.5873 16.8692C31.6827 17.2239 31.472 17.5906 31.1173 17.6866C31.0599 17.7019 31.0013 17.7092 30.9433 17.7092ZM29.806 14.9793C29.5687 14.9793 29.348 14.8526 29.2287 14.6479C27.322 11.37 23.786 9.33332 20.0007 9.33332C18.1193 9.33332 16.2707 9.82931 14.6533 10.768C14.552 10.8266 14.436 10.858 14.3193 10.858C14.082 10.858 13.8613 10.7306 13.742 10.526C13.684 10.4253 13.6527 10.3106 13.652 10.1946C13.6513 9.95665 13.778 9.73398 13.984 9.61465C14.878 9.09532 15.8373 8.69466 16.8333 8.42266C17.8607 8.142 18.926 8 19.9993 8H20C21.086 8 22.1626 8.14533 23.2 8.43133C24.2053 8.70933 25.1727 9.11866 26.0739 9.64865C27.8553 10.696 29.3447 12.1933 30.3813 13.9779C30.566 14.2959 30.4579 14.7046 30.1399 14.8893C30.0387 14.9486 29.9227 14.9793 29.806 14.9793ZM11.976 12.6633C11.798 12.6633 11.6307 12.594 11.5047 12.4686C11.2447 12.2086 11.244 11.786 11.504 11.526C11.63 11.3993 11.7973 11.33 11.976 11.33C12.1533 11.33 12.3207 11.3986 12.4467 11.5246C12.5727 11.65 12.642 11.8173 12.6427 11.9953C12.6427 12.174 12.5733 12.3413 12.448 12.4673C12.322 12.5933 12.154 12.6633 11.976 12.6633Z" fill="#FD6D6D"/>
<path d="M24.682 27.0309C24.5445 27.0309 24.407 26.9885 24.2902 26.9036L20.006 23.7911L15.7219 26.9036C15.4882 27.0734 15.1718 27.0734 14.9382 26.9036C14.7045 26.7339 14.6068 26.4329 14.696 26.1583L16.3324 21.1221L12.0483 18.0096C11.8146 17.8398 11.7169 17.5389 11.8061 17.2642C11.8954 16.9895 12.1513 16.8035 12.4402 16.8035H17.7356L19.372 11.7673C19.4612 11.4926 19.7172 11.3066 20.006 11.3066C20.2948 11.3066 20.5508 11.4926 20.6401 11.7673L22.2765 16.8035H27.572C27.8608 16.8035 28.1168 16.9895 28.206 17.2642C28.2953 17.5389 28.1975 17.8398 27.9638 18.0096L23.6797 21.1221L25.3161 26.1583C25.4054 26.4329 25.3076 26.7339 25.0739 26.9036C24.957 26.9885 24.8195 27.0309 24.682 27.0309ZM20.006 22.3004C20.1436 22.3004 20.281 22.3429 20.3979 22.4277L23.4139 24.6189L22.2619 21.0734C22.1726 20.7987 22.2704 20.4978 22.5041 20.3281L25.5202 18.1368H21.7921C21.5033 18.1368 21.2473 17.9508 21.158 17.6761L20.006 14.1307L18.854 17.6763C18.7648 17.951 18.5088 18.137 18.22 18.137H14.492L17.508 20.3283C17.7416 20.498 17.8394 20.7989 17.7502 21.0736L16.5981 24.6191L19.6142 22.4279C19.731 22.3429 19.8686 22.3004 20.006 22.3004Z" fill="#FD6D6D"/>
</svg>
