<svg width="40" height="40" viewBox="0 0 40 40" fill="none" xmlns="http://www.w3.org/2000/svg">
<circle cx="20" cy="20" r="20" fill="#EFF7E4"/>
<path d="M19.998 22.8594C19.6103 22.8594 19.2949 22.544 19.2949 22.1562C19.2949 21.873 19.4634 21.6187 19.7242 21.5082C20.0391 21.3749 20.4159 21.4887 20.7583 21.8203C21.0372 22.0905 21.4823 22.0835 21.7525 21.8046C22.0227 21.5257 22.0156 21.0806 21.7368 20.8104C21.4193 20.5029 21.0665 20.2855 20.7012 20.1628V19.3438C20.7012 18.9554 20.3864 18.6406 19.998 18.6406C19.6097 18.6406 19.2949 18.9554 19.2949 19.3438V20.1674C19.255 20.1816 19.2153 20.1966 19.1759 20.2133C18.3939 20.5445 17.8887 21.3071 17.8887 22.1562C17.8887 23.3194 18.8349 24.2656 19.998 24.2656C20.3857 24.2656 20.7012 24.581 20.7012 24.9688C20.7012 25.2634 20.5153 25.5291 20.2387 25.6298C19.8775 25.7613 19.4571 25.583 19.0853 25.1402C18.8355 24.8428 18.3921 24.8043 18.0947 25.054C17.7973 25.3038 17.7587 25.7473 18.0085 26.0446C18.3886 26.4972 18.831 26.8076 19.295 26.9637V27.7812C19.295 28.1696 19.6098 28.4844 19.9981 28.4844C20.3864 28.4844 20.7012 28.1696 20.7012 27.7812V26.9575C20.7075 26.9553 20.7138 26.9534 20.72 26.9511C21.5498 26.6489 22.1074 25.8522 22.1074 24.9688C22.1074 23.8056 21.1611 22.8594 19.998 22.8594Z" fill="#90C63E"/>
<path d="M26.5118 18.559C25.6761 17.5309 24.7208 16.7118 23.6721 16.1228C23.8439 15.9196 23.9794 15.6813 24.0669 15.4158C24.4103 14.37 23.9087 13.1278 22.6284 12.7232L24.4232 9.59356C24.6497 9.19859 24.4462 8.69553 24.0096 8.56859C22.7119 8.1913 21.3629 8 20 8C18.6371 8 17.2881 8.1913 15.9904 8.56859C15.5533 8.69567 15.3506 9.19906 15.5768 9.59356L17.3716 12.7232C16.0963 13.1258 15.5884 14.3662 15.9333 15.4163C16.0205 15.6812 16.156 15.9193 16.3282 16.1226C15.2794 16.7116 14.324 17.5308 13.4882 18.559C11.8175 20.6143 10.8594 23.2069 10.8594 25.6719C10.8594 30.7855 14.9397 32 20 32C25.0639 32 29.1406 30.7835 29.1406 25.6719C29.1406 23.2069 28.1825 20.6143 26.5118 18.559ZM17.2576 9.69772C18.1547 9.50408 19.0737 9.40625 20 9.40625C20.9263 9.40625 21.8453 9.50408 22.7424 9.69772L21.194 12.3978C20.4009 12.2871 19.5994 12.2871 18.8061 12.3979L17.2576 9.69772ZM17.717 14.0889C18.9271 13.6919 20.1931 13.6167 21.4239 13.8628C21.4253 13.863 21.4268 13.8633 21.4283 13.8636C21.7152 13.9212 22.0001 13.9961 22.282 14.0885C22.6505 14.21 22.8519 14.6086 22.7311 14.9764C22.6433 15.2428 22.4115 15.4263 22.1388 15.456C21.4377 15.2365 20.7227 15.125 20 15.125C19.2788 15.125 18.5651 15.236 17.8654 15.4546C17.5885 15.4261 17.3562 15.2413 17.2691 14.9771C17.1481 14.6086 17.3495 14.21 17.717 14.0889ZM20 30.6031C14.5064 30.6031 12.2656 29.1678 12.2656 25.6719C12.2656 23.5558 13.1306 21.2285 14.5794 19.446C16.1073 17.5664 18.0323 16.5312 20 16.5312C22.1659 16.5312 24.0604 17.7726 25.4206 19.446C26.8694 21.2285 27.7344 23.5558 27.7344 25.6719C27.7344 29.1678 25.4936 30.6031 20 30.6031Z" fill="#90C63E"/>
</svg>
