<svg width="40" height="40" viewBox="0 0 40 40" fill="none" xmlns="http://www.w3.org/2000/svg">
<circle cx="20" cy="20" r="20" fill="#EFF7E4"/>
<path d="M21.5154 12.7192C20.83 12.2724 20.061 11.9607 19.2575 11.803L19.2679 10H16.7659L16.7706 11.8171C16.3757 11.8991 15.9832 12.0175 15.5987 12.1778C15.2143 12.3386 14.8562 12.5353 14.5231 12.7576L13.2172 11.4673L11.4681 13.2265L12.7725 14.515C12.323 15.1977 12.0099 15.9609 11.8518 16.762L10 16.7654V19.2404L11.867 19.2336C11.9489 19.6244 12.0677 20.0162 12.2291 20.3975C12.3912 20.7812 12.5878 21.1376 12.8126 21.4676" stroke="#90C63E" stroke-width="1.2" stroke-linecap="round"/>
<path d="M22.8273 29.567V27.6584C23.2206 27.5798 23.6131 27.4597 23.9968 27.3004C24.3813 27.1393 24.7401 26.9425 25.0756 26.7195L26.4088 28.0341L28.1587 26.2775L26.8246 24.9629C27.2742 24.28 27.5871 23.5165 27.7461 22.7146L29.557 22.7034V20.2309L27.7301 20.2421C27.6482 19.8504 27.531 19.462 27.3688 19.0794C27.2067 18.6961 27.01 18.3393 26.7853 18.0076L28.0479 16.7418L26.2804 15.0007L25.0194 16.266C24.3339 15.8193 23.5649 15.5075 22.7614 15.3498L22.7718 13.5469H20.2699L20.2746 15.364C19.8797 15.446 19.4871 15.5643 19.1027 15.7246C18.7182 15.8854 18.3602 16.0821 18.0271 16.3044L16.7211 15.0142L14.972 16.7733L16.2764 18.0619C15.8269 18.7445 15.5138 19.5077 15.3557 20.3088L13.5039 20.3122V22.7871L15.371 22.7805C15.4528 23.1712 15.5716 23.5629 15.733 23.9442C15.8951 24.328 16.0918 24.6844 16.3165 25.0144L14.9776 26.348L16.746 28.0859L18.0816 26.7564C18.7671 27.2059 19.5361 27.5165 20.3404 27.6736L20.3412 29.5661C21.1695 29.5724 22.8272 29.567 22.8272 29.567L22.8273 29.567Z" stroke="#90C63E" stroke-width="1.2" stroke-linecap="round"/>
<path d="M21.5397 23.6155C22.7309 23.6155 23.6966 22.6498 23.6966 21.4586C23.6966 20.2674 22.7309 19.3018 21.5397 19.3018C20.3485 19.3018 19.3828 20.2674 19.3828 21.4586C19.3828 22.6498 20.3485 23.6155 21.5397 23.6155Z" stroke="#90C63E" stroke-width="1.2" stroke-linecap="square"/>
</svg>
