<svg width="36" height="24" viewBox="0 0 36 24" fill="none" xmlns="http://www.w3.org/2000/svg">
<rect width="36" height="24" rx="4" fill="white"/>
<rect x="0.2" y="0.2" width="35.6" height="23.6" rx="3.8" stroke="#A6AEC1" stroke-opacity="0.5" stroke-width="0.4"/>
<path d="M14.8716 8.15305L11.4675 16.5351H9.24673L7.57156 9.84544C7.47 9.4344 7.38174 9.28313 7.07269 9.10932C6.56752 8.82607 5.73328 8.56116 5 8.39636L5.04946 8.15305H8.62487C9.07987 8.15305 9.48957 8.46576 9.59377 9.00721L10.4789 13.858L12.6641 8.15305H14.8716ZM17.8738 8.15305L16.1367 16.5351H14.0356L15.7728 8.15305H17.8738ZM23.573 13.7984C23.5818 11.5866 20.6101 11.4638 20.6295 10.4756C20.6366 10.1751 20.9138 9.85529 21.5208 9.77353C21.8214 9.73338 22.652 9.7014 23.5927 10.1488L23.9608 8.37026C23.4553 8.18157 22.8048 8 21.9957 8C19.9187 8 18.4577 9.13867 18.4461 10.7705C18.4325 11.9775 19.4896 12.6502 20.2846 13.0522C21.1035 13.4627 21.3782 13.7266 21.3744 14.0935C21.3685 14.6559 20.7204 14.9049 20.1178 14.9141C19.0611 14.9314 18.4486 14.6193 17.96 14.3844L17.5786 16.2219C18.0702 16.4544 18.9761 16.6564 19.9145 16.6667C22.1224 16.6667 23.5665 15.541 23.573 13.7984ZM29.0574 16.5351H31L29.3029 8.15305H27.5106C27.1064 8.15305 26.7667 8.39521 26.616 8.76747L23.4635 16.5351H25.6697L26.1073 15.283H28.8028L29.0574 16.5351ZM26.7123 13.5654L27.8186 10.4176L28.454 13.5654H26.7123Z" fill="#1A1F71"/>
</svg>
