<svg width="30" height="10" viewBox="0 0 30 10" fill="none" xmlns="http://www.w3.org/2000/svg">
<path d="M11.3903 0.176599L7.4625 9.8482H4.90008L2.96719 2.12935C2.85 1.65507 2.74816 1.48053 2.39156 1.27998C1.80867 0.953153 0.846094 0.647491 0 0.457344L0.0570703 0.176599H4.18254C4.70754 0.176599 5.18027 0.537418 5.30051 1.16217L6.3218 6.75928L8.8432 0.176599H11.3903ZM14.8543 0.176599L12.8501 9.8482H10.4257L12.4302 0.176599H14.8543ZM21.4304 6.69046C21.4405 4.13835 18.0116 3.99671 18.034 2.85643C18.0422 2.50977 18.3621 2.14072 19.0624 2.04638C19.4093 2.00005 20.3677 1.96316 21.4532 2.47941L21.8779 0.427225C21.2946 0.2095 20.544 0 19.6104 0C17.2139 0 15.5282 1.31385 15.5147 3.19669C15.499 4.58941 16.7188 5.3656 17.6361 5.82947C18.581 6.30315 18.8979 6.6076 18.8936 7.03095C18.8868 7.6799 18.1389 7.96717 17.4436 7.97782C16.2244 7.99777 15.5176 7.63768 14.9538 7.36661L14.5138 9.48677C15.081 9.75506 16.1263 9.98815 17.209 10C19.7566 10 21.4229 8.70115 21.4304 6.69046ZM27.7586 9.8482H30L28.0418 0.176599H25.9738C25.5074 0.176599 25.1154 0.456014 24.9415 0.885537L21.304 9.8482H23.8496L24.3546 8.40347H27.4648L27.7586 9.8482ZM25.0527 6.42157L26.3291 2.78954L27.0623 6.42157H25.0527Z" fill="#1A1F71"/>
</svg>
