<svg width="512" height="512" viewBox="0 0 512 512" fill="none" xmlns="http://www.w3.org/2000/svg">
<rect width="512" height="512" fill="white"/>
<path d="M197 92L257 130.5V379H197V92Z" fill="#90C63E"/>
<path fill-rule="evenodd" clip-rule="evenodd" d="M197.224 379C201.371 453.15 262.813 512 338 512C415.873 512 479 448.872 479 371C479 293.128 415.873 230 338 230C311.279 230 286.295 237.433 265 250.344V335.857C278.087 308.723 305.857 290 338 290C382.736 290 419 326.265 419 371C419 415.735 382.736 452 338 452C295.965 452 261.408 419.98 257.391 379H197.224Z" fill="#90C63E"/>
</svg>
