<?xml version="1.0" encoding="UTF-8"?>
<svg width="39px" height="23px" viewBox="0 0 39 23" version="1.1" xmlns="http://www.w3.org/2000/svg" xmlns:xlink="http://www.w3.org/1999/xlink">
    <!-- Generator: Sketch 63.1 (92452) - https://sketch.com -->
    <title>Afterpay-logo</title>
    <desc>Created with Sketch.</desc>
    <g id="Page-1" stroke="none" stroke-width="1" fill="none" fill-rule="evenodd">
        <g id="iPhone-11-Pro-Copy-16" transform="translate(-208.000000, -599.000000)" fill-rule="nonzero">
            <g id="Afterpay-logo" transform="translate(208.000000, 599.000000)">
                <path d="M20.6103084,10.0701558 C21.9509407,9.29419985 23.2113564,8.56435276 24.5592515,7.78429119 C24.1227962,7.01844129 24.2292256,7.20256108 23.8316152,6.47997774 C23.410319,5.71444365 23.5691737,5.41347254 24.4392428,5.40715625 C26.9727053,5.38947064 29.5068004,5.38725994 32.0402629,5.40052415 C32.792849,5.40462973 32.9744424,5.72676041 32.5970438,6.39060227 C31.343893,8.59435511 30.0768449,10.7902126 28.7984286,12.979438 C28.3900803,13.6783352 28.0328945,13.6767562 27.6062288,12.993018 C27.1678791,12.2903309 27.2847306,12.4640289 26.815746,11.667545 C25.4940625,12.4349739 24.1733272,13.2020871 22.879435,13.9534096 C22.9571259,14.1561624 23.0562915,14.2862779 23.1374553,14.427447 C24.1123741,16.1243177 24.5478822,16.9346974 25.5553303,18.6123035 C26.7491087,20.6003551 29.2516227,20.7200488 30.6727875,18.8826406 C30.830694,18.6783087 30.9753368,18.4613442 31.1045048,18.2377477 C33.4955356,14.0961576 35.8878305,9.95551519 38.2646494,5.80571402 C38.5056152,5.38568087 38.7228962,4.92680256 38.8274301,4.45813399 C39.2439894,2.59009186 37.8581965,0.824057769 35.9105691,0.813635894 C30.7867964,0.786475852 25.6620754,0.782370269 20.5383027,0.82753172 C18.2044352,0.848059659 16.8019025,3.18477036 17.8270365,5.23851136 C18.161168,5.90709044 18.5619367,6.54250899 18.93744,7.19024432 C19.6439163,8.40960364 19.8305634,8.7304711 20.6103084,10.0701558" id="Fill-16" fill="#306E9A"></path>
                <path d="M9.21762009,22.865376 C9.21983123,21.3283073 9.22393673,18.3195436 9.22393673,18.3195436 C9.22393673,18.3195436 8.59388727,18.3129114 7.74245132,18.3129114 C6.87554055,18.3129114 6.69678977,18.0065715 7.12471836,17.2571439 C8.37155359,15.0745506 9.632285,12.8995369 10.9059644,10.7324186 C11.2843102,10.0887888 11.6193888,10.032258 12.0327898,10.7478934 C13.2903629,12.9260653 14.5520415,15.1020265 15.7931915,17.2896728 C16.189539,17.9879385 16.0101568,18.2936467 15.2108305,18.3192278 C14.3856072,18.3192278 13.680078,18.3182803 13.680078,18.3182803 L13.6797623,22.8776927 C13.6797623,22.8776927 17.0438165,22.8783244 19.0103928,22.8783244 C21.3104691,22.8442164 22.659944,20.756999 21.7914545,18.6224096 C21.6951316,18.385233 21.5811227,18.1531093 21.4535333,17.9307761 C19.0915577,13.8160303 16.7305293,9.70065292 14.3546575,5.59380256 C14.1140065,5.17819081 13.8288263,4.76289489 13.4789043,4.43981676 C12.0836355,3.15160984 9.87798773,3.46079214 8.89896345,5.12639726 C6.32286518,9.50895356 3.76634827,13.9038267 1.25214927,18.32207 C0.107006455,20.3347552 1.41289941,22.7024158 3.68581586,22.8457955 C4.42576873,22.8925359 7.585492,22.865376 9.21762009,22.865376" id="Fill-18" fill="#1F4066"></path>
            </g>
        </g>
    </g>
</svg>