<?xml version="1.0" encoding="UTF-8"?>
<svg width="24px" height="24px" viewBox="0 0 24 24" version="1.1" xmlns="http://www.w3.org/2000/svg" xmlns:xlink="http://www.w3.org/1999/xlink">
    <title>american_express</title>
    <g id="Page-1" stroke="none" stroke-width="1" fill="none" fill-rule="evenodd">
        <g id="shop-detail" transform="translate(-305.000000, -598.000000)" fill-rule="nonzero">
            <g id="american_express" transform="translate(305.000000, 598.000000)">
                <circle id="Oval" fill="#27ADE4" cx="11.998481" cy="11.998481" r="11.998481"></circle>
                <path d="M4.09412658,9.8604557 L3.71959494,8.9356962 L3.34729114,9.8604557 M12.3406076,9.4921519 C12.2654177,9.53858228 12.176557,9.54010127 12.0700759,9.54010127 L11.4054684,9.54010127 L11.4054684,9.02496203 L12.0789873,9.02496203 C12.1742785,9.02496203 12.2737722,9.02896203 12.3383291,9.06643038 C12.4091646,9.10055696 12.4529628,9.17250633 12.4529628,9.27179747 C12.4531646,9.37296203 12.4112911,9.45463291 12.3406076,9.4921519 M17.0802532,9.8604557 L16.7019241,8.9356962 L16.3256709,9.8604557 L17.0802532,9.8604557 L17.0802532,9.8604557 Z M8.24511392,10.8613165 L7.6843038,10.8613165 L7.68222785,9.0444557 L6.88916456,10.8613165 L6.40891139,10.8613165 L5.61397468,9.04293671 L5.61397468,10.8613165 L4.50146835,10.8613165 L4.29134177,10.3438987 L3.15275949,10.3438987 L2.94035443,10.8613165 L2.34643038,10.8613165 L3.32572152,8.54162025 L4.13848101,8.54162025 L5.06850633,10.7377722 L5.06850633,8.54162025 L5.96101266,8.54162025 L6.67675949,10.1152405 L7.33417722,8.54162025 L8.24511392,8.54162025 L8.24511392,10.8613165 L8.24511392,10.8613165 L8.24511392,10.8613165 Z M10.4797468,10.8613165 L8.65265823,10.8613165 L8.65265823,8.54162025 L10.4797975,8.54162025 L10.4797975,9.02491139 L9.1998481,9.02491139 L9.1998481,9.44303797 L10.4491139,9.44303797 L10.4491139,9.91858228 L9.1998481,9.91858228 L9.1998481,10.3812152 L10.4797975,10.3812152 L10.4797468,10.8613165 L10.4797468,10.8613165 Z M13.0557975,9.16663291 C13.0557975,9.53605063 12.8121519,9.72759494 12.6702785,9.78465823 C12.7900253,9.83108861 12.8923038,9.91255696 12.9408101,9.98035443 C13.0181266,10.0953418 13.0315443,10.1986329 13.0315443,10.4054684 L13.0315443,10.8613165 L12.4798481,10.8613165 L12.4777722,10.5688101 C12.4777722,10.4291646 12.4908354,10.2281519 12.3913924,10.1167595 C12.311443,10.0352911 12.1898228,10.0174684 11.9927595,10.0174684 L11.4054684,10.0174684 L11.4054684,10.8613165 L10.8585316,10.8613165 L10.8585316,8.54162025 L12.1167089,8.54162025 C12.3963544,8.54162025 12.6022785,8.54901266 12.7788354,8.65265823 C12.952,8.75665823 13.0557975,8.90764557 13.0557975,9.16663291 M13.9310886,10.8613165 L13.3731139,10.8613165 L13.3731139,8.54182278 L13.9310886,8.54182278 L13.9310886,10.8613165 Z M20.4050633,10.8613165 L19.6297722,10.8613165 L18.5932658,9.12020253 L18.5932658,10.8613165 L17.4792405,10.8613165 L17.2666835,10.3438987 L16.1305316,10.3438987 L15.9238481,10.8613165 L15.2838481,10.8613165 C15.0182278,10.8613165 14.6813671,10.8016203 14.4907848,10.6046076 C14.298481,10.4077468 14.1986329,10.1410127 14.1986329,9.71908861 C14.1986329,9.37539241 14.2581266,9.06035443 14.4936203,8.81235443 C14.6703797,8.62708861 14.9473418,8.54162025 15.3242025,8.54162025 L15.853519,8.54162025 L15.853519,9.03858228 L15.3351899,9.03858228 C15.1356962,9.03858228 15.0231392,9.06870886 14.9144304,9.1761519 C14.8212152,9.27407595 14.7571646,9.45863291 14.7571646,9.70172152 C14.7571646,9.95007595 14.8060253,10.1293165 14.9077975,10.2462278 C14.9917468,10.3381266 15.1448101,10.3659747 15.2888101,10.3659747 L15.5343291,10.3659747 L16.3052152,8.54187342 L17.1248101,8.54187342 L18.0506835,10.7359494 L18.0506835,8.54187342 L18.8835443,8.54187342 L19.8448608,10.1571646 L19.8448608,8.54187342 L20.4050633,8.54187342 L20.4050633,10.8613165 L20.4050633,10.8613165 Z M2.3401519,11.316962 L3.27453165,11.316962 L3.48521519,10.8016203 L3.95675949,10.8016203 L4.16688608,11.316962 L6.00556962,11.316962 L6.00556962,10.9230886 L6.16982278,11.318481 L7.12410127,11.318481 L7.2881519,10.9172152 L7.2881519,11.316962 L11.8574684,11.316962 L11.8551899,10.471038 L11.9436456,10.471038 C12.0056203,10.4733165 12.0235949,10.4791899 12.0235949,10.5828354 L12.0235949,11.316962 L14.3868861,11.316962 L14.3868861,11.1201013 C14.5776709,11.2237468 14.8741772,11.316962 15.2644557,11.316962 L16.2585316,11.316962 L16.4712911,10.8016203 L16.943038,10.8016203 L17.151038,11.316962 L19.0668354,11.316962 L19.0668354,10.8273924 L19.3570633,11.316962 L20.8924051,11.316962 L20.8924051,8.08182278 L19.3727595,8.08182278 L19.3727595,8.46394937 L19.1602025,8.08182278 L17.600962,8.08182278 L17.600962,8.46394937 L17.4058228,8.08182278 L15.2997468,8.08182278 C14.9475443,8.08182278 14.6376203,8.1318481 14.3871392,8.27073418 L14.3871392,8.08182278 L12.9338228,8.08182278 L12.9338228,8.27073418 C12.7746835,8.12749367 12.5577722,8.08182278 12.3162025,8.08182278 L7.00668354,8.08182278 L6.65048101,8.91731646 L6.28465823,8.08182278 L4.61210127,8.08182278 L4.61210127,8.46394937 L4.4283038,8.08182278 L3.00232911,8.08182278 L2.33979747,9.62 L1.58025316,11.316962 L2.3401519,11.316962 Z" id="Shape" fill="#2D78BC"></path>
                <path d="M4.09412658,10.0498734 L3.71959494,9.12511392 L3.34729114,10.0498734 M12.3406076,9.68156962 C12.2654177,9.728 12.176557,9.72951899 12.0700759,9.72951899 L11.4054684,9.72951899 L11.4054684,9.21437975 L12.0789873,9.21437975 C12.1742785,9.21437975 12.2737722,9.21837975 12.3383291,9.2558481 C12.4091646,9.28997468 12.4529628,9.36192405 12.4529628,9.46121519 C12.4531646,9.56243038 12.4112911,9.64410127 12.3406076,9.68156962 M17.0802532,10.0498734 L16.7019241,9.12511392 L16.3256709,10.0498734 L17.0802532,10.0498734 L17.0802532,10.0498734 Z M8.24511392,11.0507848 L7.6843038,11.0507848 L7.68222785,9.23392405 L6.88916456,11.0507848 L6.40891139,11.0507848 L5.61397468,9.23240506 L5.61397468,11.0507848 L4.50146835,11.0507848 L4.29134177,10.5333671 L3.15275949,10.5333671 L2.94035443,11.0507848 L2.34643038,11.0507848 L3.32572152,8.73108861 L4.13848101,8.73108861 L5.06850633,10.9272405 L5.06850633,8.73108861 L5.96101266,8.73108861 L6.67675949,10.3047089 L7.33417722,8.73108861 L8.24511392,8.73108861 L8.24511392,11.0507848 L8.24511392,11.0507848 L8.24511392,11.0507848 Z M10.4797468,11.0507848 L8.65265823,11.0507848 L8.65265823,8.73108861 L10.4797975,8.73108861 L10.4797975,9.21437975 L9.1998481,9.21437975 L9.1998481,9.63250633 L10.4491139,9.63250633 L10.4491139,10.1080506 L9.1998481,10.1080506 L9.1998481,10.5706835 L10.4797975,10.5706835 L10.4797468,11.0507848 L10.4797468,11.0507848 Z M13.0557975,9.35610127 C13.0557975,9.72551899 12.8121519,9.91706329 12.6702785,9.97412658 C12.7900253,10.020557 12.8923038,10.1020253 12.9408101,10.1698228 C13.0181266,10.2848101 13.0315443,10.3881013 13.0315443,10.5949367 L13.0315443,11.0507848 L12.4798481,11.0507848 L12.4777722,10.7582785 C12.4777722,10.6186329 12.4908354,10.4176203 12.3913924,10.3062278 C12.311443,10.2247595 12.1898228,10.2069367 11.9927595,10.2069367 L11.4054684,10.2069367 L11.4054684,11.0507848 L10.8585316,11.0507848 L10.8585316,8.73108861 L12.1167089,8.73108861 C12.3963544,8.73108861 12.6022785,8.73848101 12.7788354,8.84212658 C12.952,8.94612658 13.0557975,9.09711392 13.0557975,9.35610127 M13.9310886,11.0507848 L13.3731139,11.0507848 L13.3731139,8.73129114 L13.9310886,8.73129114 L13.9310886,11.0507848 Z M20.4050633,11.0507848 L19.6297722,11.0507848 L18.5932658,9.30967089 L18.5932658,11.0507848 L17.4792405,11.0507848 L17.2666835,10.5333671 L16.1305316,10.5333671 L15.9238481,11.0507848 L15.2838481,11.0507848 C15.0182278,11.0507848 14.6813671,10.9910886 14.4907848,10.7940759 C14.298481,10.5972152 14.1986329,10.330481 14.1986329,9.90855696 C14.1986329,9.56486076 14.2581266,9.24982278 14.4936203,9.00182278 C14.6703797,8.81655696 14.9473418,8.73108861 15.3242025,8.73108861 L15.853519,8.73108861 L15.853519,9.22805063 L15.3351899,9.22805063 C15.1356962,9.22805063 15.0231392,9.25817722 14.9144304,9.36562025 C14.8212152,9.4635443 14.7571646,9.64810127 14.7571646,9.89118987 C14.7571646,10.1395443 14.8060253,10.3187848 14.9077975,10.4356962 C14.9917468,10.5275949 15.1448101,10.555443 15.2888101,10.555443 L15.5343291,10.555443 L16.3052152,8.73134177 L17.1248101,8.73134177 L18.0506835,10.9254177 L18.0506835,8.73134177 L18.8835443,8.73134177 L19.8448608,10.3466329 L19.8448608,8.73134177 L20.4050633,8.73134177 L20.4050633,11.0507848 L20.4050633,11.0507848 Z M2.3401519,11.5064304 L3.27453165,11.5064304 L3.48521519,10.9910886 L3.95675949,10.9910886 L4.16688608,11.5064304 L6.00556962,11.5064304 L6.00556962,11.112557 L6.16982278,11.5079494 L7.12410127,11.5079494 L7.2881519,11.1066835 L7.2881519,11.5064304 L11.8574684,11.5064304 L11.8551899,10.6605063 L11.9436456,10.6605063 C12.0056203,10.6627848 12.0235949,10.6686582 12.0235949,10.7723038 L12.0235949,11.5064304 L14.3868861,11.5064304 L14.3868861,11.3095696 C14.5776709,11.4132152 14.8741772,11.5064304 15.2644557,11.5064304 L16.2585316,11.5064304 L16.4712911,10.9910886 L16.943038,10.9910886 L17.151038,11.5064304 L19.0668354,11.5064304 L19.0668354,11.0168608 L19.3570633,11.5064304 L20.8924051,11.5064304 L20.8924051,8.27129114 L19.3727595,8.27129114 L19.3727595,8.65341772 L19.1602025,8.27129114 L17.600962,8.27129114 L17.600962,8.65341772 L17.4058228,8.27129114 L15.2997468,8.27129114 C14.9475443,8.27129114 14.6376203,8.32131646 14.3871392,8.46020253 L14.3871392,8.27129114 L12.9338228,8.27129114 L12.9338228,8.46020253 C12.7746835,8.31696203 12.5577722,8.27129114 12.3162025,8.27129114 L7.00668354,8.27129114 L6.65048101,9.10678481 L6.28465823,8.27129114 L4.61210127,8.27129114 L4.61210127,8.65341772 L4.4283038,8.27129114 L3.00232911,8.27129114 L2.33979747,9.80946835 L1.58025316,11.5064304 L2.3401519,11.5064304 Z" id="Shape" fill="#FFFFFF"></path>
                <path d="M22.1193924,13.5042532 L22.1193924,12.0200506 L21.7408608,12.0200506 L21.7408608,12.0200506 L20.7492658,12.0200506 C20.4436962,12.0200506 20.2214177,12.0941266 20.0644051,12.2091139 L20.0644051,12.0200506 L18.5665823,12.0200506 C18.3270886,12.0200506 18.0457722,12.0798987 17.9131646,12.2091139 L17.9131646,12.0200506 L15.2379747,12.0200506 L15.2379747,12.2091139 C15.0252152,12.0537722 14.6658228,12.0200506 14.5002532,12.0200506 L12.7358481,12.0200506 L12.7358481,12.2091139 C12.567443,12.0441013 12.1930633,12.0200506 11.9647595,12.0200506 L9.99022785,12.0200506 L9.53837975,12.5150886 L9.11513924,12.0200506 L6.16551899,12.0200506 L6.16551899,15.2548354 L9.05944304,15.2548354 L9.52511392,14.752 L9.96349367,15.2548354 L11.7475949,15.2567089 L11.7475949,14.4954937 L11.9228354,14.4954937 C12.159443,14.4992911 12.4385316,14.4896203 12.6848101,14.3818228 L12.6848101,15.2546329 L14.1563038,15.2546329 L14.1563038,14.4113418 L14.2275443,14.4113418 C14.3181266,14.4113418 14.3268354,14.4153418 14.3268354,14.5068354 L14.3268354,15.2546329 L18.7965063,15.2546329 C19.0805063,15.2546329 19.3772152,15.1809114 19.5416203,15.0477468 L19.5416203,15.2546329 L20.9591392,15.2546329 C21.2543291,15.2546329 21.542481,15.2127595 21.7616709,15.105519 L21.7616709,15.1021266 C22.0818734,14.8955949 22.2947867,14.5337722 22.2947867,14.1207595 C22.2951899,13.8941266 22.2304304,13.6828861 22.1193924,13.5042532 Z M11.9472911,14.0218228 L11.2645063,14.0218228 L11.2645063,14.7995443 L10.2010633,14.7995443 L9.52718987,14.0318481 L8.82713924,14.7995443 L6.65959494,14.7995443 L6.65959494,12.4810127 L8.86050633,12.4810127 L9.53362025,13.2409114 L10.2296709,12.4810127 L11.9781772,12.4810127 C12.4122025,12.4810127 12.9000506,12.6028354 12.9000506,13.2447089 C12.9000506,13.8890127 12.4254684,14.0218228 11.9472911,14.0218228 Z M15.2402532,13.9167089 C15.3175696,14.0298228 15.3287089,14.1353418 15.3309873,14.3399494 L15.3309873,14.7995949 L14.7819241,14.7995949 L14.7819241,14.509519 C14.7819241,14.3700759 14.7949873,14.1635949 14.6932658,14.0555949 C14.6131139,13.9726076 14.4916962,13.9525063 14.2917975,13.9525063 L13.7069367,13.9525063 L13.7069367,14.7995443 L13.1573165,14.7995443 L13.1573165,12.4810127 L14.4206076,12.4810127 C14.6975696,12.4810127 14.8991899,12.4933165 15.0789873,12.5905316 C15.2517975,12.6960506 15.3603544,12.8406076 15.3603544,13.1052658 C15.3603544,13.4752911 15.1165063,13.6643544 14.972557,13.7221266 C15.0937722,13.7675949 15.1936203,13.8490633 15.2402532,13.9167089 Z M17.4896709,12.9607089 L16.2082025,12.9607089 L16.2082025,13.3822278 L17.4584304,13.3822278 L17.4584304,13.8552911 L16.2082025,13.8552911 L16.2082025,14.3166076 L17.4896709,14.3188861 L17.4896709,14.7998987 L15.6634937,14.7998987 L15.6634937,12.4810127 L17.4896709,12.4810127 L17.4896709,12.9607089 L17.4896709,12.9607089 Z M18.8830886,14.7997468 L17.8174177,14.7997468 L17.8174177,14.3024304 L18.8791392,14.3024304 C18.9829367,14.3024304 19.0564557,14.2888101 19.1026835,14.2448608 C19.14,14.2092658 19.1672911,14.156962 19.1672911,14.0940759 C19.1672911,14.0264304 19.1381266,13.9726582 19.1004051,13.9404051 C19.0583291,13.9048101 19.000962,13.8890633 18.9056203,13.8890633 C18.3938734,13.8716456 17.752962,13.904962 17.752962,13.1711899 C17.752962,12.8348861 17.9617215,12.4810127 18.5352405,12.4810127 L19.6324051,12.4810127 L19.6324051,12.9745316 L18.6286582,12.9745316 C18.5292152,12.9745316 18.4644051,12.9783291 18.4092658,13.0162025 C18.3495696,13.0539241 18.327038,13.1094177 18.327038,13.1832911 C18.327038,13.2706329 18.3781772,13.3301266 18.4467848,13.3561013 C18.5047595,13.3762025 18.5665316,13.3820759 18.6597468,13.3820759 L18.9545316,13.3905823 C19.2513924,13.3975696 19.455443,13.4498734 19.5793418,13.5768101 C19.6860253,13.6882025 19.7428354,13.8291646 19.7428354,14.0676962 C19.7426835,14.5667342 19.4351899,14.7997468 18.8830886,14.7997468 Z M21.6993924,14.5757975 C21.5552405,14.7233924 21.3227342,14.7997468 21.019443,14.7997468 L19.9626329,14.7997468 L19.9626329,14.3024304 L21.015038,14.3024304 C21.1195949,14.3024304 21.1927595,14.2888101 21.2367089,14.2448608 C21.2747848,14.2092658 21.3013165,14.156962 21.3013165,14.0940759 C21.3013165,14.0264304 21.2747848,13.9726582 21.2344304,13.9404051 C21.1948354,13.9048101 21.1370633,13.8890633 21.0415696,13.8890633 C20.5277468,13.8716456 19.8868354,13.904962 19.8868354,13.1711899 C19.8868354,12.8348861 20.097519,12.4810127 20.6719494,12.4810127 L21.7410633,12.4810127 L21.7410633,12.9743797 L20.7648101,12.9743797 C20.665519,12.9743797 20.5992405,12.9783797 20.5433418,13.0162532 C20.4855696,13.0537722 20.4633924,13.1094684 20.4633924,13.1829873 C20.4633924,13.2706835 20.5121013,13.3298228 20.5831392,13.3557975 C20.6411139,13.3762532 20.7028861,13.3821266 20.7938228,13.3821266 L21.0903291,13.3902785 C21.3896709,13.3976709 21.5895696,13.4497722 21.7109873,13.5769114 C21.7331646,13.5945316 21.7465823,13.6144304 21.7621266,13.6341266 C21.7558987,13.6259747 21.7498228,13.6182278 21.7433924,13.6100759 C21.8381266,13.7370127 21.8951392,13.8948354 21.8951392,14.0662785 C21.8950886,14.2628354 21.8202532,14.4411139 21.6993924,14.5757975 Z M8.57650633,12.9607089 L9.17518987,13.6363038 L8.54997468,14.3164557 L7.2044557,14.3164557 L7.2044557,13.8551392 L8.40582278,13.8551392 L8.40582278,13.3820759 L7.2044557,13.3820759 L7.2044557,12.9607089 L8.57650633,12.9607089 L8.57650633,12.9607089 Z M9.87959494,13.6442532 L10.7198481,12.7301266 L10.7198481,14.5888608 L9.87959494,13.6442532 Z M12.312962,13.2448608 C12.312962,13.4458734 12.1820253,13.551038 11.9717468,13.551038 L11.2647089,13.551038 L11.2647089,12.9607089 L11.9783797,12.9607089 C12.1755949,12.9607089 12.312962,13.0419747 12.312962,13.2448608 Z M14.755038,13.2111392 C14.755038,13.3102278 14.7126076,13.3901772 14.6415696,13.4335696 C14.5684557,13.477519 14.4778734,13.4813165 14.3715949,13.4813165 L13.7065823,13.4813165 L13.7065823,12.9607089 L14.3803038,12.9607089 C14.4778734,12.9607089 14.575443,12.9627848 14.6415696,13.0025823 C14.7128101,13.0398987 14.755038,13.1116962 14.755038,13.2111392 Z" id="Shape" fill="#2D78BC"></path>
                <path d="M22.1193924,13.6937215 L22.1193924,12.209519 L21.7408608,12.209519 L21.7408608,12.209519 L20.7492658,12.209519 C20.4436962,12.209519 20.2214177,12.2835949 20.0644051,12.3985823 L20.0644051,12.209519 L18.5665823,12.209519 C18.3270886,12.209519 18.0457722,12.2693671 17.9131646,12.3985823 L17.9131646,12.209519 L15.2379747,12.209519 L15.2379747,12.3985823 C15.0252152,12.2432405 14.6658228,12.209519 14.5002532,12.209519 L12.7358481,12.209519 L12.7358481,12.3985823 C12.567443,12.2335696 12.1930633,12.209519 11.9647595,12.209519 L9.99022785,12.209519 L9.53837975,12.704557 L9.11513924,12.209519 L6.16551899,12.209519 L6.16551899,15.4443038 L9.05944304,15.4443038 L9.52511392,14.9414684 L9.96349367,15.4443038 L11.7475949,15.4461772 L11.7475949,14.684962 L11.9228354,14.684962 C12.159443,14.6887595 12.4385316,14.6790886 12.6848101,14.5712911 L12.6848101,15.4441013 L14.1563038,15.4441013 L14.1563038,14.6008101 L14.2275443,14.6008101 C14.3181266,14.6008101 14.3268354,14.6048101 14.3268354,14.6963038 L14.3268354,15.4441013 L18.7965063,15.4441013 C19.0805063,15.4441013 19.3772152,15.3703797 19.5416203,15.2372152 L19.5416203,15.4441013 L20.9591392,15.4441013 C21.2543291,15.4441013 21.542481,15.4022278 21.7616709,15.2949873 L21.7616709,15.2915949 C22.0818734,15.0850633 22.2947867,14.7232405 22.2947867,14.3102278 C22.2951899,14.0835949 22.2304304,13.8723544 22.1193924,13.6937215 Z M11.9472911,14.2112911 L11.2645063,14.2112911 L11.2645063,14.9890127 L10.2010633,14.9890127 L9.52718987,14.2213165 L8.82713924,14.9890127 L6.65959494,14.9890127 L6.65959494,12.6704304 L8.86050633,12.6704304 L9.53362025,13.4303291 L10.2296709,12.6704304 L11.9781772,12.6704304 C12.4122025,12.6704304 12.9000506,12.7922532 12.9000506,13.4341266 C12.9000506,14.078481 12.4254684,14.2112911 11.9472911,14.2112911 Z M15.2402532,14.1061266 C15.3175696,14.2192405 15.3287089,14.3247595 15.3309873,14.5293671 L15.3309873,14.9890127 L14.7819241,14.9890127 L14.7819241,14.6989367 C14.7819241,14.5594937 14.7949873,14.3530127 14.6932658,14.2450127 C14.6131139,14.1620253 14.4916962,14.1419241 14.2917975,14.1419241 L13.7069367,14.1419241 L13.7069367,14.988962 L13.1573165,14.988962 L13.1573165,12.6703797 L14.4206076,12.6703797 C14.6975696,12.6703797 14.8991899,12.6826835 15.0789873,12.7798987 C15.2517975,12.8854177 15.3603544,13.0299747 15.3603544,13.2946329 C15.3603544,13.6646582 15.1165063,13.8537215 14.972557,13.9114937 C15.0937722,13.9570633 15.1936203,14.0385316 15.2402532,14.1061266 Z M17.4896709,13.1501772 L16.2082025,13.1501772 L16.2082025,13.5716962 L17.4584304,13.5716962 L17.4584304,14.0447595 L16.2082025,14.0447595 L16.2082025,14.5060759 L17.4896709,14.5083544 L17.4896709,14.9893671 L15.6634937,14.9893671 L15.6634937,12.6704304 L17.4896709,12.6704304 L17.4896709,13.1501772 L17.4896709,13.1501772 Z M18.8830886,14.9892152 L17.8174177,14.9892152 L17.8174177,14.4918987 L18.8791392,14.4918987 C18.9829367,14.4918987 19.0564557,14.4782785 19.1026835,14.4343291 C19.14,14.3987342 19.1672911,14.3464304 19.1672911,14.2835443 C19.1672911,14.2158987 19.1381266,14.1621266 19.1004051,14.1298734 C19.0583291,14.0942785 19.000962,14.0785316 18.9056203,14.0785316 C18.3938734,14.0611139 17.752962,14.0944304 17.752962,13.3606582 C17.752962,13.0243544 17.9617215,12.670481 18.5352405,12.670481 L19.6324051,12.670481 L19.6324051,13.164 L18.6286582,13.164 C18.5292152,13.164 18.4644051,13.1677975 18.4092658,13.2056709 C18.3495696,13.2433924 18.327038,13.2988861 18.327038,13.3727595 C18.327038,13.4601013 18.3781772,13.5195949 18.4467848,13.5455696 C18.5047595,13.5656709 18.5665316,13.5715443 18.6597468,13.5715443 L18.9545316,13.5800506 C19.2513924,13.587038 19.455443,13.6393418 19.5793418,13.7662785 C19.6860253,13.8776709 19.7428354,14.0186329 19.7428354,14.2571646 C19.7426835,14.7561519 19.4351899,14.9892152 18.8830886,14.9892152 Z M21.6993924,14.7652658 C21.5552405,14.9128608 21.3227342,14.9892152 21.019443,14.9892152 L19.9626329,14.9892152 L19.9626329,14.4918987 L21.015038,14.4918987 C21.1195949,14.4918987 21.1927595,14.4782785 21.2367089,14.4343291 C21.2747848,14.3987342 21.3013165,14.3464304 21.3013165,14.2835443 C21.3013165,14.2158987 21.2747848,14.1621266 21.2344304,14.1298734 C21.1948354,14.0942785 21.1370633,14.0785316 21.0415696,14.0785316 C20.5277468,14.0611139 19.8868354,14.0944304 19.8868354,13.3606582 C19.8868354,13.0243544 20.097519,12.670481 20.6719494,12.670481 L21.7410633,12.670481 L21.7410633,13.1638481 L20.7648101,13.1638481 C20.665519,13.1638481 20.5992405,13.1678481 20.5433418,13.2057215 C20.4855696,13.2432405 20.4633924,13.2989367 20.4633924,13.3724557 C20.4633924,13.4601519 20.5121013,13.5192911 20.5831392,13.5452658 C20.6411139,13.5657215 20.7028861,13.5715949 20.7938228,13.5715949 L21.0903291,13.5797468 C21.3896709,13.5871392 21.5895696,13.6392405 21.7109873,13.7663797 C21.7331646,13.784 21.7465823,13.8038987 21.7621266,13.8235949 C21.7558987,13.815443 21.7498228,13.8076962 21.7433924,13.7995443 C21.8381266,13.926481 21.8951392,14.0843038 21.8951392,14.2557468 C21.8950886,14.4523038 21.8202532,14.6305823 21.6993924,14.7652658 Z M8.57650633,13.1501772 L9.17518987,13.8257722 L8.54997468,14.5059241 L7.2044557,14.5059241 L7.2044557,14.0446076 L8.40582278,14.0446076 L8.40582278,13.5715443 L7.2044557,13.5715443 L7.2044557,13.1501772 L8.57650633,13.1501772 L8.57650633,13.1501772 Z M9.87959494,13.8337215 L10.7198481,12.9195949 L10.7198481,14.7783291 L9.87959494,13.8337215 Z M12.312962,13.4343291 C12.312962,13.6353418 12.1820253,13.7405063 11.9717468,13.7405063 L11.2647089,13.7405063 L11.2647089,13.1501772 L11.9783797,13.1501772 C12.1755949,13.1501772 12.312962,13.231443 12.312962,13.4343291 Z M14.755038,13.4006076 C14.755038,13.4996962 14.7126076,13.5796456 14.6415696,13.623038 C14.5684557,13.6669873 14.4778734,13.6707848 14.3715949,13.6707848 L13.7065823,13.6707848 L13.7065823,13.1501772 L14.3803038,13.1501772 C14.4778734,13.1501772 14.575443,13.1522532 14.6415696,13.1920506 C14.7128101,13.2293671 14.755038,13.3011646 14.755038,13.4006076 Z" id="Shape" fill="#FFFFFF"></path>
            </g>
        </g>
    </g>
</svg>