<?xml version="1.0" encoding="UTF-8"?>
<svg width="42px" height="23px" viewBox="0 0 42 23" version="1.1" xmlns="http://www.w3.org/2000/svg" xmlns:xlink="http://www.w3.org/1999/xlink">
    <!-- Generator: Sketch 63.1 (92452) - https://sketch.com -->
    <title>cash</title>
    <desc>Created with Sketch.</desc>
    <g id="Page-1" stroke="none" stroke-width="1" fill="none" fill-rule="evenodd">
        <g id="iPhone-11-Pro-Copy-16" transform="translate(-95.000000, -594.000000)" fill-rule="nonzero">
            <g id="cash" transform="translate(95.000000, 594.000000)">
                <g id="Group">
                    <path d="M40.1548511,22.8878194 L1.74695154,22.8878194 C0.782160579,22.8878194 0,22.0997942 0,21.1277692 L0,1.76005023 C0,0.78802524 0.782160579,0 1.74695154,0 L40.1548511,0 C41.1196421,0 41.9018027,0.78802524 41.9018027,1.76005023 L41.9018027,21.1277692 C41.9018027,22.0997942 41.1196421,22.8878194 40.1548511,22.8878194 Z" id="Path" fill="#B6FA4C"></path>
                    <path d="M36.2203996,1.9867692 L5.68140308,1.9867692 C5.44390044,1.9867692 5.22699799,2.12739824 5.13332717,2.34732309 C4.59079392,3.62210538 3.58267789,4.64764573 2.32384924,5.20634604 C2.10860959,5.30183605 1.97189084,5.51896878 1.97189084,5.75592547 L1.97189084,17.131987 C1.97189084,17.3689437 2.10860959,17.5859834 2.32384924,17.6815664 C3.58267789,18.2401737 4.59079392,19.2658071 5.13332717,20.5405894 C5.22690562,20.7605142 5.44380807,20.9011433 5.68140308,20.9011433 L36.2203072,20.9011433 C36.4578099,20.9011433 36.6747123,20.7605142 36.7683831,20.5405894 C37.3109164,19.2658071 38.3190324,18.2402667 39.5778611,17.6815664 C39.7931007,17.5860764 39.9298195,17.3689437 39.9298195,17.131987 L39.9298195,5.75592547 C39.9298195,5.51896878 39.7931007,5.30192912 39.5778611,5.20634604 C38.3190324,4.6477388 37.3109164,3.62210538 36.7683831,2.34732309 C36.6748047,2.12739824 36.4579022,1.9867692 36.2203996,1.9867692 Z" id="Path" fill="#77DD00"></path>
                    <ellipse id="Oval" fill="#B6FA4C" cx="20.950578" cy="11.4440958" rx="7.09367082" ry="7.14685935"></ellipse>
                    <path d="M20.5758024,15.9008546 C19.0349451,15.8758187 17.9911713,15.0369772 17.9911713,14.4235516 C17.9911713,14.123028 18.2521379,13.7098894 18.5628035,13.7098894 C18.9728674,13.7098894 19.3083826,14.5862383 20.5758024,14.6863818 L20.5758024,11.7443403 C19.4574799,11.3436731 18.2148174,10.8930273 18.2148174,9.29054488 C18.2148174,7.71309835 19.3953099,7.0871083 20.5758024,6.9619289 L20.5758024,6.59886212 C20.5758024,6.44864684 20.7248997,6.31090297 20.9361671,6.31090297 C21.122585,6.31090297 21.3089105,6.44864684 21.3089105,6.59886212 L21.3089105,6.93689302 C22.1538878,6.9619289 23.3468512,7.22485217 23.3468512,7.83827774 C23.3468512,8.07616513 23.1729043,8.55184684 22.8000686,8.55184684 C22.5018739,8.55184684 22.1788297,8.1511797 21.3089105,8.08863654 L21.3089105,10.630104 C22.3900048,11.0307712 23.5704973,11.5815605 23.5704973,13.2842795 C23.5704973,14.8242188 22.6509713,15.6755317 21.3089105,15.8632543 L21.3089105,16.2888642 C21.3089105,16.4390795 21.1224926,16.5768234 20.9361671,16.5768234 C20.7248997,16.5768234 20.5758024,16.4390795 20.5758024,16.2888642 L20.5758024,15.9008546 L20.5758024,15.9008546 Z M20.650351,10.3923097 L20.650351,8.11376548 C19.9544711,8.20134453 19.4573876,8.51433955 19.4573876,9.16536548 C19.4574799,9.87902765 19.9917916,10.1419509 20.650351,10.3923097 Z M21.2343618,12.019828 L21.2343618,14.661439 C21.9053922,14.5362596 22.3278347,14.1355925 22.3278347,13.4220234 C22.327927,12.6332536 21.8433145,12.2827513 21.2343618,12.019828 Z" id="Shape" fill="#73CC00"></path>
                </g>
            </g>
        </g>
    </g>
</svg>