<?xml version="1.0" encoding="UTF-8"?>
<svg width="37px" height="23px" viewBox="0 0 37 23" version="1.1" xmlns="http://www.w3.org/2000/svg" xmlns:xlink="http://www.w3.org/1999/xlink">
    <!-- Generator: Sketch 63.1 (92452) - https://sketch.com -->
    <title>credit_card</title>
    <desc>Created with Sketch.</desc>
    <g id="Page-1" stroke="none" stroke-width="1" fill="none" fill-rule="evenodd">
        <g id="iPhone-11-Pro-Copy-16" transform="translate(-24.000000, -593.000000)" fill-rule="nonzero">
            <g id="credit_card" transform="translate(24.000000, 593.000000)">
                <path d="M34.9477759,23 L2.05222414,23 C0.917982759,23 0,22.2114286 0,21.2383095 L0,1.76169048 C0,0.788571429 0.917982759,0 2.05222414,0 L34.9477759,0 C36.0813793,0 37,0.788571429 37,1.76169048 L37,21.2383095 C37,22.2114286 36.0813793,23 34.9477759,23" id="XMLID_128_" fill="#CCB375"></path>
                <path d="M8.45454545,16 L3.54545455,16 C3.24381818,16 3,16.224 3,16.5 C3,16.776 3.24381818,17 3.54545455,17 L8.45454545,17 C8.75618182,17 9,16.776 9,16.5 C9,16.224 8.75618182,16 8.45454545,16" id="XMLID_127_" fill="#7A693C"></path>
                <path d="M16,16.5 C16,16.224 15.7561818,16 15.4545455,16 L10.5454545,16 C10.2438182,16 10,16.224 10,16.5 C10,16.776 10.2438182,17 10.5454545,17 L15.4545455,17 C15.7561818,17 16,16.776 16,16.5" id="XMLID_126_" fill="#7A693C"></path>
                <path d="M4.33333333,18 L3.66666667,18 C3.298,18 3,18.224 3,18.5 C3,18.776 3.298,19 3.66666667,19 L4.33333333,19 C4.702,19 5,18.776 5,18.5 C5,18.224 4.702,18 4.33333333,18" id="XMLID_125_" fill="#7A693C"></path>
                <path d="M6.5,18 L5.5,18 C5.2235,18 5,18.224 5,18.5 C5,18.776 5.2235,19 5.5,19 L6.5,19 C6.7765,19 7,18.776 7,18.5 C7,18.224 6.7765,18 6.5,18" id="XMLID_124_" fill="#7A693C"></path>
                <path d="M10.3333333,18 L9.66666667,18 C9.298,18 9,18.224 9,18.5 C9,18.776 9.298,19 9.66666667,19 L10.3333333,19 C10.702,19 11,18.776 11,18.5 C11,18.224 10.702,18 10.3333333,18" id="XMLID_123_" fill="#7A693C"></path>
                <path d="M13.5,18 L12.5,18 C12.2235,18 12,18.224 12,18.5 C12,18.776 12.2235,19 12.5,19 L13.5,19 C13.7765,19 14,18.776 14,18.5 C14,18.224 13.7765,18 13.5,18" id="XMLID_122_" fill="#7A693C"></path>
                <path d="M15.145,18.1396226 C15.0545,18.2352201 15,18.3660377 15,18.4968553 C15,18.627673 15.0545,18.7584906 15.145,18.8540881 C15.2395,18.9446541 15.37,19 15.5,19 C15.63,19 15.7595,18.9446541 15.855,18.8540881 C15.945,18.7584906 16,18.627673 16,18.4968553 C16,18.3660377 15.945,18.2352201 15.855,18.1396226 C15.665,17.9534591 15.324,17.9534591 15.145,18.1396226" id="XMLID_121_" fill="#7A693C"></path>
                <path d="M31,17 C31,18.657 29.657,20 28,20 C26.343,20 25,18.657 25,17 C25,15.343 26.343,14 28,14 C29.657,14 31,15.343 31,17" id="XMLID_120_" fill="#E74C3D"></path>
                <path d="M35,17 C35,18.657 33.657,20 32,20 C30.343,20 29,18.657 29,17 C29,15.343 30.343,14 32,14 C33.657,14 35,15.343 35,17" id="XMLID_119_" fill="#F0C41B"></path>
                <path d="M11.2940625,11 L3.7059375,11 C3.3166875,11 3,10.719 3,10.3725 L3,5.6275 C3,5.281 3.3166875,5 3.7059375,5 L11.2940625,5 C11.683875,5 12,5.281 12,5.6275 L12,10.3725 C12,10.719 11.683875,11 11.2940625,11" id="XMLID_118_" fill="#F0C41B"></path>
                <path d="M11.7472222,11 L4.25277778,11 C3.56222222,11 3,10.494 3,9.8725 L3,5.1275 C3,4.506 3.56222222,4 4.25277778,4 L11.7472222,4 C12.4377778,4 13,4.506 13,5.1275 L13,9.8725 C13,10.494 12.4377778,11 11.7472222,11 M4.25277778,5 C4.17388889,5 4.11111111,5.057 4.11111111,5.1275 L4.11111111,9.8725 C4.11111111,9.943 4.17388889,10 4.25277778,10 L11.7472222,10 C11.8255556,10 11.8888889,9.943 11.8888889,9.8725 L11.8888889,5.1275 C11.8888889,5.057 11.8255556,5 11.7472222,5 L4.25277778,5 Z" id="XMLID_115_" fill="#F3D55C"></path>
                <path d="M12,5.6275 C12,5.281 11.719,5 11.3725,5 L9,5 L7.6275,5 C7.2805,5 7,5.281 7,5.6275 L7,7 L7,10.3725 C7,10.719 7.2805,11 7.6275,11 L8.3725,11 C8.719,11 9,10.719 9,10.3725 L9,7.6275 C9,7.281 9.281,7 9.6275,7 L11.3725,7 C11.719,7 12,6.719 12,6.3725 L12,5.6275 Z" id="XMLID_114_" fill="#F0C41B"></path>
                <path d="M8.8725,11 L8.1275,11 C7.506,11 7,10.494 7,9.8725 L7,5.1275 C7,4.506 7.506,4 8.1275,4 L11.8725,4 C12.494,4 13,4.506 13,5.1275 L13,5.8725 C13,6.494 12.494,7 11.8725,7 L10.1275,7 C10.0565,7 10,7.057 10,7.1275 L10,9.8725 C10,10.494 9.494,11 8.8725,11 M8.1275,5 C8.0565,5 8,5.057 8,5.1275 L8,9.8725 C8,9.943 8.0565,10 8.1275,10 L8.8725,10 C8.943,10 9,9.943 9,9.8725 L9,7.1275 C9,6.506 9.506,6 10.1275,6 L11.8725,6 C11.943,6 12,5.943 12,5.8725 L12,5.1275 C12,5.057 11.943,5 11.8725,5 L8.1275,5 Z" id="XMLID_111_" fill="#F3D55C"></path>
                <line x1="8" y1="8.5" x2="12" y2="8.5" id="XMLID_110_" fill="#F0C41B"></line>
                <path d="M12.375,9 L8.625,9 C8.279375,9 8,8.776 8,8.5 C8,8.224 8.279375,8 8.625,8 L12.375,8 C12.720625,8 13,8.224 13,8.5 C13,8.776 12.720625,9 12.375,9" id="XMLID_109_" fill="#F3D55C"></path>
                <line x1="7" y1="6.5" x2="3" y2="6.5" id="XMLID_108_" fill="#F0C41B"></line>
                <path d="M7.375,7 L3.625,7 C3.279375,7 3,6.776 3,6.5 C3,6.224 3.279375,6 3.625,6 L7.375,6 C7.720625,6 8,6.224 8,6.5 C8,6.776 7.720625,7 7.375,7" id="XMLID_107_" fill="#F3D55C"></path>
                <line x1="7" y1="8.5" x2="3" y2="8.5" id="XMLID_106_" fill="#F0C41B"></line>
                <path d="M7.375,9 L3.625,9 C3.279375,9 3,8.776 3,8.5 C3,8.224 3.279375,8 3.625,8 L7.375,8 C7.720625,8 8,8.224 8,8.5 C8,8.776 7.720625,9 7.375,9" id="XMLID_105_" fill="#F3D55C"></path>
            </g>
        </g>
    </g>
</svg>