<?xml version="1.0" encoding="UTF-8"?>
<svg width="35px" height="24px" viewBox="0 0 35 24" version="1.1" xmlns="http://www.w3.org/2000/svg" xmlns:xlink="http://www.w3.org/1999/xlink">
    <title>gift</title>
    <g id="Page-1" stroke="none" stroke-width="1" fill="none" fill-rule="evenodd">
        <g id="gift" fill-rule="nonzero">
            <path d="M32.3664134,23.955352 L3.56232402,23.955352 C2.48406704,23.955352 1.6067933,23.0781453 1.6067933,21.9998883 L1.6067933,5.59796648 C1.6067933,4.5197095 2.48406704,3.64250279 3.56232402,3.64250279 L32.3663464,3.64250279 C33.4446034,3.64250279 34.3218771,4.5197095 34.3218771,5.59796648 L34.3218771,21.9998212 C34.3218771,23.0780782 33.4446704,23.955352 32.3664134,23.955352 Z" id="Shape" fill="#FFEF31"></path>
            <path d="M32.3664134,3.64250279 L17.9587709,3.64250279 L17.9587709,23.955352 L32.3663464,23.955352 C33.4446034,23.955352 34.3218771,23.0781453 34.3218771,21.9998883 L34.3218771,5.59796648 C34.3218771,4.5197095 33.4446704,3.64250279 32.3664134,3.64250279 Z" id="Path" fill="#EAD000"></path>
            <path d="M29.2940112,16.9161788 L22.1208268,16.9161788 C21.5654749,16.9161788 21.1152402,16.4659441 21.1152402,15.9105922 C21.1152402,15.3552402 21.5654749,14.9050056 22.1208268,14.9050056 L29.2940112,14.9050056 C29.8493631,14.9050056 30.2995978,15.3552402 30.2995978,15.9105922 C30.2995978,16.4659441 29.8493631,16.9161788 29.2940112,16.9161788 Z" id="Path" fill="#152659"></path>
            <path d="M26.9473073,20.9385251 L22.1208268,20.9385251 C21.5654749,20.9385251 21.1152402,20.4882905 21.1152402,19.9329385 C21.1152402,19.3775866 21.5654749,18.927352 22.1208268,18.927352 L26.9473073,18.927352 C27.5026592,18.927352 27.9528939,19.3775866 27.9528939,19.9329385 C27.9528939,20.4882905 27.5026592,20.9385251 26.9473073,20.9385251 Z" id="Path" fill="#152659"></path>
            <path d="M34.3219441,9.0390838 L14.2545922,9.0390838 C15.0447821,8.71897207 15.9111955,8.2707486 16.4938994,7.68804469 C18.2401341,5.94181006 18.2401341,3.10049162 16.4938994,1.35432402 C15.648,0.508424581 14.5232849,0.0425698324 13.3270391,0.0425698324 C12.1307933,0.0425698324 11.0061453,0.508424581 10.1602458,1.35432402 C9.63191061,1.88265922 9.21385475,2.64442458 8.90185475,3.37092737 C8.58985475,2.64442458 8.17179888,1.88265922 7.64346369,1.35432402 C6.79756425,0.508424581 5.67284916,0.0425698324 4.47667039,0.0425698324 C3.28035754,0.0425698324 2.1557095,0.508424581 1.30981006,1.35432402 C-0.436424581,3.10049162 -0.436424581,5.94181006 1.30981006,7.68811173 C1.89251397,8.27081564 2.75899441,8.71903911 3.54911732,9.03915084 L1.60686034,9.03915084 L1.60686034,11.050324 L6.23396648,11.050324 L4.83814525,12.4077318 C4.44,12.7948827 4.4310838,13.431486 4.81823464,13.8296983 C5.20538547,14.2279106 5.84205587,14.2366927 6.24020112,13.8495419 L8.04201117,12.0973408 L8.04201117,22.9497654 C8.04201117,23.5051173 8.49224581,23.955352 9.04759777,23.955352 C9.60294972,23.955352 10.0531844,23.5051173 10.0531844,22.9497654 L10.0531844,12.2137877 L11.8282458,14.0756648 C12.0258101,14.2829497 12.2907486,14.3873296 12.5561564,14.3873296 C12.8054749,14.3873296 13.0551955,14.2951508 13.2499441,14.1095866 C13.6519106,13.726324 13.6671285,13.0898547 13.2838659,12.6878212 L11.7226592,11.050257 L34.3219441,11.050257 L34.3219441,9.0390838 Z M10.2631508,5.54694972 C10.6032402,4.33877095 11.1333855,3.22538547 11.5823464,2.77642458 C12.0484022,2.31036872 12.6679777,2.05374302 13.3270391,2.05374302 C13.9861676,2.05374302 14.605743,2.31043575 15.0717989,2.77642458 C16.0338771,3.73850279 16.0338771,5.30386592 15.0717989,6.26594413 C14.622905,6.71483799 13.5094525,7.24498324 12.3012737,7.58513966 C11.0912849,7.92576536 10.2752849,7.95271508 9.94250279,7.90565363 C9.89550838,7.5732067 9.9224581,6.75700559 10.2631508,5.54694972 Z M2.73177654,2.77642458 C3.1978324,2.31036872 3.81740782,2.05374302 4.47653631,2.05374302 C5.13559777,2.05374302 5.75517318,2.31043575 6.22122905,2.77642458 C6.67012291,3.22538547 7.20026816,4.33877095 7.54042458,5.54694972 C7.88111732,6.75707263 7.908,7.57327374 7.86100559,7.90572067 C7.52835754,7.95278212 6.71222346,7.92576536 5.50223464,7.5852067 C4.29405587,7.24505028 3.18060335,6.71497207 2.7317095,6.26601117 C1.76969832,5.30386592 1.76969832,3.73850279 2.73177654,2.77642458 Z" id="Shape" fill="#F90053"></path>
            <rect id="Rectangle" fill="#A50043" x="17.9587709" y="9.0390838" width="16.3631061" height="2.01117318"></rect>
        </g>
    </g>
</svg>