<?xml version="1.0" encoding="UTF-8"?>
<svg width="40px" height="24px" viewBox="0 0 40 24" version="1.1" xmlns="http://www.w3.org/2000/svg" xmlns:xlink="http://www.w3.org/1999/xlink">
    <title>mastercard</title>
    <g id="Page-1" stroke="none" stroke-width="1" fill="none" fill-rule="evenodd">
        <g id="mastercard" fill-rule="nonzero">
            <path d="M39.7894737,12 C39.7894737,18.5684211 34.4842105,23.9368421 27.8526316,23.9368421 C21.2842105,23.9368421 15.9157895,18.5684211 15.9157895,12 L15.9157895,12 C15.9157895,5.43157895 21.2210526,0.0631578947 27.7894737,0.0631578947 C34.4842105,0.0631578947 39.7894737,5.43157895 39.7894737,12 L39.7894737,12 Z" id="Path" fill="#FFB600"></path>
            <path d="M27.8526316,0.0631578947 C34.4210526,0.0631578947 39.7894737,5.43157895 39.7894737,12 L39.7894737,12 C39.7894737,18.5684211 34.4842105,23.9368421 27.8526316,23.9368421 C21.2842105,23.9368421 15.9157895,18.5684211 15.9157895,12" id="Path" fill="#F7981D"></path>
            <path d="M27.8526316,0.0631578947 C34.4210526,0.0631578947 39.7894737,5.43157895 39.7894737,12 L39.7894737,12 C39.7894737,18.5684211 34.4842105,23.9368421 27.8526316,23.9368421" id="Path" fill="#FF8500"></path>
            <path d="M11.8105263,0.0631578947 C5.30526316,0.126315789 0,5.43157895 0,12 C0,18.5684211 5.30526316,23.9368421 11.9368421,23.9368421 C15.0315789,23.9368421 17.8105263,22.7368421 19.9578947,20.8421053 L19.9578947,20.8421053 L19.9578947,20.8421053 C20.4,20.4631579 20.7789474,20.0210526 21.1578947,19.5789474 L18.6947368,19.5789474 C18.3789474,19.2 18.0631579,18.7578947 17.8105263,18.3789474 L22.0421053,18.3789474 C22.2947368,18 22.5473684,17.5578947 22.7368421,17.1157895 L17.1157895,17.1157895 C16.9263158,16.7368421 16.7368421,16.2947368 16.6105263,15.8526316 L23.1789474,15.8526316 C23.5578947,14.6526316 23.8105263,13.3894737 23.8105263,12.0631579 C23.8105263,11.1789474 23.6842105,10.3578947 23.5578947,9.53684211 L16.2315789,9.53684211 C16.2947368,9.09473684 16.4210526,8.71578947 16.5473684,8.27368421 L23.1157895,8.27368421 C22.9894737,7.83157895 22.8,7.38947368 22.6105263,7.01052632 L17.0526316,7.01052632 C17.2421053,6.56842105 17.4947368,6.18947368 17.7473684,5.74736842 L21.9789474,5.74736842 C21.7263158,5.30526316 21.4105263,4.86315789 21.0315789,4.48421053 L18.6947368,4.48421053 C19.0736842,4.04210526 19.4526316,3.66315789 19.8947368,3.28421053 C17.8105263,1.32631579 14.9684211,0.189473684 11.8736842,0.189473684 C11.8736842,0.0631578947 11.8736842,0.0631578947 11.8105263,0.0631578947 Z" id="Path" fill="#FF5050"></path>
            <path d="M0,12 C0,18.5684211 5.30526316,23.9368421 11.9368421,23.9368421 C15.0315789,23.9368421 17.8105263,22.7368421 19.9578947,20.8421053 L19.9578947,20.8421053 L19.9578947,20.8421053 C20.4,20.4631579 20.7789474,20.0210526 21.1578947,19.5789474 L18.6947368,19.5789474 C18.3789474,19.2 18.0631579,18.7578947 17.8105263,18.3789474 L22.0421053,18.3789474 C22.2947368,18 22.5473684,17.5578947 22.7368421,17.1157895 L17.1157895,17.1157895 C16.9263158,16.7368421 16.7368421,16.2947368 16.6105263,15.8526316 L23.1789474,15.8526316 C23.5578947,14.6526316 23.8105263,13.3894737 23.8105263,12.0631579 C23.8105263,11.1789474 23.6842105,10.3578947 23.5578947,9.53684211 L16.2315789,9.53684211 C16.2947368,9.09473684 16.4210526,8.71578947 16.5473684,8.27368421 L23.1157895,8.27368421 C22.9894737,7.83157895 22.8,7.38947368 22.6105263,7.01052632 L17.0526316,7.01052632 C17.2421053,6.56842105 17.4947368,6.18947368 17.7473684,5.74736842 L21.9789474,5.74736842 C21.7263158,5.30526316 21.4105263,4.86315789 21.0315789,4.48421053 L18.6947368,4.48421053 C19.0736842,4.04210526 19.4526316,3.66315789 19.8947368,3.28421053 C17.8105263,1.32631579 14.9684211,0.189473684 11.8736842,0.189473684 L11.8105263,0.189473684" id="Path" fill="#E52836"></path>
            <path d="M11.9368421,23.9368421 C15.0315789,23.9368421 17.8105263,22.7368421 19.9578947,20.8421053 L19.9578947,20.8421053 L19.9578947,20.8421053 C20.4,20.4631579 20.7789474,20.0210526 21.1578947,19.5789474 L18.6947368,19.5789474 C18.3789474,19.2 18.0631579,18.7578947 17.8105263,18.3789474 L22.0421053,18.3789474 C22.2947368,18 22.5473684,17.5578947 22.7368421,17.1157895 L17.1157895,17.1157895 C16.9263158,16.7368421 16.7368421,16.2947368 16.6105263,15.8526316 L23.1789474,15.8526316 C23.5578947,14.6526316 23.8105263,13.3894737 23.8105263,12.0631579 C23.8105263,11.1789474 23.6842105,10.3578947 23.5578947,9.53684211 L16.2315789,9.53684211 C16.2947368,9.09473684 16.4210526,8.71578947 16.5473684,8.27368421 L23.1157895,8.27368421 C22.9894737,7.83157895 22.8,7.38947368 22.6105263,7.01052632 L17.0526316,7.01052632 C17.2421053,6.56842105 17.4947368,6.18947368 17.7473684,5.74736842 L21.9789474,5.74736842 C21.7263158,5.30526316 21.4105263,4.86315789 21.0315789,4.48421053 L18.6947368,4.48421053 C19.0736842,4.04210526 19.4526316,3.66315789 19.8947368,3.28421053 C17.8105263,1.32631579 14.9684211,0.189473684 11.8736842,0.189473684 L11.8105263,0.189473684" id="Path" fill="#CB2026"></path>
            <g id="Group" transform="translate(1.105263, 8.842105)" fill="#FFFFFF">
                <path d="M15.0631579,6.18947368 L15.2526316,5.11578947 C15.1894737,5.11578947 15.0631579,5.17894737 14.9368421,5.17894737 C14.4947368,5.17894737 14.4315789,4.92631579 14.4947368,4.8 L14.8736842,2.58947368 L15.5684211,2.58947368 L15.7578947,1.38947368 L15.1263158,1.38947368 L15.2526316,0.631578947 L13.9894737,0.631578947 C13.9894737,0.631578947 13.2315789,4.8 13.2315789,5.30526316 C13.2315789,6.06315789 13.6736842,6.37894737 14.2421053,6.37894737 C14.6210526,6.37894737 14.9368421,6.25263158 15.0631579,6.18947368 Z" id="Path"></path>
                <path d="M15.5052632,4.16842105 C15.5052632,5.93684211 16.7052632,6.37894737 17.7157895,6.37894737 C18.6631579,6.37894737 19.0421053,6.18947368 19.0421053,6.18947368 L19.2947368,4.98947368 C19.2947368,4.98947368 18.6,5.30526316 17.9684211,5.30526316 C16.5789474,5.30526316 16.8315789,4.29473684 16.8315789,4.29473684 L19.4210526,4.29473684 C19.4210526,4.29473684 19.6105263,3.47368421 19.6105263,3.15789474 C19.6105263,2.33684211 19.1684211,1.32631579 17.7789474,1.32631579 C16.4526316,1.2 15.5052632,2.58947368 15.5052632,4.16842105 Z M17.7157895,2.33684211 C18.4105263,2.33684211 18.2842105,3.15789474 18.2842105,3.22105263 L16.8947368,3.22105263 C16.8947368,3.15789474 17.0210526,2.33684211 17.7157895,2.33684211 Z" id="Shape"></path>
                <path d="M25.7368421,6.18947368 L25.9894737,4.8 C25.9894737,4.8 25.3578947,5.11578947 24.9157895,5.11578947 C24.0315789,5.11578947 23.6526316,4.42105263 23.6526316,3.66315789 C23.6526316,2.14736842 24.4105263,1.32631579 25.2947368,1.32631579 C25.9263158,1.32631579 26.4315789,1.70526316 26.4315789,1.70526316 L26.6210526,0.378947368 C26.6210526,0.378947368 25.8631579,0.0631578947 25.1684211,0.0631578947 C23.7157895,0.0631578947 22.2631579,1.32631579 22.2631579,3.72631579 C22.2631579,5.30526316 23.0210526,6.37894737 24.5368421,6.37894737 C25.0421053,6.37894737 25.7368421,6.18947368 25.7368421,6.18947368 Z" id="Path"></path>
                <path d="M8.11578947,1.2 C7.23157895,1.2 6.6,1.45263158 6.6,1.45263158 L6.41052632,2.52631579 C6.41052632,2.52631579 6.97894737,2.27368421 7.8,2.27368421 C8.24210526,2.27368421 8.62105263,2.33684211 8.62105263,2.71578947 C8.62105263,2.96842105 8.55789474,3.03157895 8.55789474,3.03157895 C8.55789474,3.03157895 8.17894737,3.03157895 7.98947368,3.03157895 C6.91578947,3.03157895 5.71578947,3.47368421 5.71578947,4.92631579 C5.71578947,6.06315789 6.47368421,6.31578947 6.91578947,6.31578947 C7.8,6.31578947 8.17894737,5.74736842 8.24210526,5.74736842 L8.17894737,6.25263158 L9.31578947,6.25263158 L9.82105263,2.77894737 C9.82105263,1.26315789 8.55789474,1.2 8.11578947,1.2 Z M8.36842105,4.04210526 C8.36842105,4.23157895 8.24210526,5.24210526 7.48421053,5.24210526 C7.10526316,5.24210526 6.97894737,4.92631579 6.97894737,4.73684211 C6.97894737,4.42105263 7.16842105,3.97894737 8.11578947,3.97894737 C8.30526316,4.04210526 8.36842105,4.04210526 8.36842105,4.04210526 Z" id="Shape"></path>
                <path d="M11.0210526,6.31578947 C11.3368421,6.31578947 12.9157895,6.37894737 12.9157895,4.67368421 C12.9157895,3.09473684 11.4,3.41052632 11.4,2.77894737 C11.4,2.46315789 11.6526316,2.33684211 12.0947368,2.33684211 C12.2842105,2.33684211 12.9789474,2.4 12.9789474,2.4 L13.1684211,1.26315789 C13.1684211,1.26315789 12.7263158,1.13684211 11.9684211,1.13684211 C11.0210526,1.13684211 10.0736842,1.51578947 10.0736842,2.77894737 C10.0736842,4.23157895 11.6526316,4.10526316 11.6526316,4.67368421 C11.6526316,5.05263158 11.2105263,5.11578947 10.8947368,5.11578947 C10.3263158,5.11578947 9.75789474,4.92631579 9.75789474,4.92631579 L9.56842105,6.06315789 C9.63157895,6.18947368 9.94736842,6.31578947 11.0210526,6.31578947 Z" id="Path"></path>
                <path d="M36.2210526,0.189473684 L35.9684211,1.89473684 C35.9684211,1.89473684 35.4631579,1.26315789 34.7684211,1.26315789 C33.6315789,1.26315789 32.6210526,2.65263158 32.6210526,4.29473684 C32.6210526,5.30526316 33.1263158,6.37894737 34.2,6.37894737 C34.9578947,6.37894737 35.4,5.87368421 35.4,5.87368421 L35.3368421,6.31578947 L36.6,6.31578947 L37.5473684,0.252631579 L36.2210526,0.189473684 Z M35.6526316,3.53684211 C35.6526316,4.23157895 35.3368421,5.11578947 34.6421053,5.11578947 C34.2,5.11578947 33.9473684,4.73684211 33.9473684,4.10526316 C33.9473684,3.09473684 34.3894737,2.46315789 34.9578947,2.46315789 C35.4,2.46315789 35.6526316,2.77894737 35.6526316,3.53684211 Z" id="Shape"></path>
                <polygon id="Path" points="1.23157895 6.25263158 1.98947368 1.70526316 2.11578947 6.25263158 3 6.25263158 4.64210526 1.70526316 3.94736842 6.25263158 5.27368421 6.25263158 6.28421053 0.189473684 4.2 0.189473684 2.93684211 3.91578947 2.87368421 0.189473684 1.04210526 0.189473684 0.0315789474 6.25263158"></polygon>
                <path d="M20.8105263,6.25263158 C21.1894737,4.16842105 21.2526316,2.46315789 22.1368421,2.77894737 C22.2631579,1.95789474 22.4526316,1.64210526 22.5789474,1.32631579 C22.5789474,1.32631579 22.5157895,1.32631579 22.3263158,1.32631579 C21.7578947,1.32631579 21.3157895,2.08421053 21.3157895,2.08421053 L21.4421053,1.38947368 L20.2421053,1.38947368 L19.4210526,6.31578947 L20.8105263,6.31578947 L20.8105263,6.25263158 Z" id="Path"></path>
                <path d="M28.6421053,1.2 C27.7578947,1.2 27.1263158,1.45263158 27.1263158,1.45263158 L26.9368421,2.52631579 C26.9368421,2.52631579 27.5052632,2.27368421 28.3263158,2.27368421 C28.7684211,2.27368421 29.1473684,2.33684211 29.1473684,2.71578947 C29.1473684,2.96842105 29.0842105,3.03157895 29.0842105,3.03157895 C29.0842105,3.03157895 28.7052632,3.03157895 28.5157895,3.03157895 C27.4421053,3.03157895 26.2421053,3.47368421 26.2421053,4.92631579 C26.2421053,6.06315789 27,6.31578947 27.4421053,6.31578947 C28.3263158,6.31578947 28.7052632,5.74736842 28.7684211,5.74736842 L28.7052632,6.25263158 L29.8421053,6.25263158 L30.3473684,2.77894737 C30.4105263,1.26315789 29.0842105,1.2 28.6421053,1.2 Z M28.9578947,4.04210526 C28.9578947,4.23157895 28.8315789,5.24210526 28.0736842,5.24210526 C27.6947368,5.24210526 27.5684211,4.92631579 27.5684211,4.73684211 C27.5684211,4.42105263 27.7578947,3.97894737 28.7052632,3.97894737 C28.8947368,4.04210526 28.8947368,4.04210526 28.9578947,4.04210526 Z" id="Shape"></path>
                <path d="M31.4210526,6.25263158 C31.8,4.16842105 31.8631579,2.46315789 32.7473684,2.77894737 C32.8736842,1.95789474 33.0631579,1.64210526 33.1894737,1.32631579 C33.1894737,1.32631579 33.1263158,1.32631579 32.9368421,1.32631579 C32.3684211,1.32631579 31.9263158,2.08421053 31.9263158,2.08421053 L32.0526316,1.38947368 L30.8526316,1.38947368 L30.0315789,6.31578947 L31.4210526,6.31578947 L31.4210526,6.25263158 Z" id="Path"></path>
            </g>
            <g id="Group" transform="translate(1.105263, 8.842105)" fill="#DCE5E5">
                <path d="M13.1052632,5.30526316 C13.1052632,6.06315789 13.5473684,6.37894737 14.1157895,6.37894737 C14.5578947,6.37894737 14.9368421,6.25263158 15.0631579,6.18947368 L15.2526316,5.11578947 C15.1894737,5.11578947 15.0631579,5.17894737 14.9368421,5.17894737 C14.4947368,5.17894737 14.4315789,4.92631579 14.4947368,4.8 L14.8736842,2.58947368 L15.5684211,2.58947368 L15.7578947,1.38947368 L15.1263158,1.38947368 L15.2526316,0.631578947" id="Path"></path>
                <path d="M16.1368421,4.16842105 C16.1368421,5.93684211 16.7052632,6.37894737 17.7157895,6.37894737 C18.6631579,6.37894737 19.0421053,6.18947368 19.0421053,6.18947368 L19.2947368,4.98947368 C19.2947368,4.98947368 18.6,5.30526316 17.9684211,5.30526316 C16.5789474,5.30526316 16.8315789,4.29473684 16.8315789,4.29473684 L19.4210526,4.29473684 C19.4210526,4.29473684 19.6105263,3.47368421 19.6105263,3.15789474 C19.6105263,2.33684211 19.1684211,1.32631579 17.7789474,1.32631579 C16.4526316,1.2 16.1368421,2.58947368 16.1368421,4.16842105 Z M17.7157895,2.33684211 C18.4105263,2.33684211 18.5368421,3.15789474 18.5368421,3.22105263 L16.8947368,3.22105263 C16.8947368,3.15789474 17.0210526,2.33684211 17.7157895,2.33684211 Z" id="Shape"></path>
                <path d="M25.7368421,6.18947368 L25.9894737,4.8 C25.9894737,4.8 25.3578947,5.11578947 24.9157895,5.11578947 C24.0315789,5.11578947 23.6526316,4.42105263 23.6526316,3.66315789 C23.6526316,2.14736842 24.4105263,1.32631579 25.2947368,1.32631579 C25.9263158,1.32631579 26.4315789,1.70526316 26.4315789,1.70526316 L26.6210526,0.378947368 C26.6210526,0.378947368 25.8631579,0.0631578947 25.1684211,0.0631578947 C23.7157895,0.0631578947 22.8947368,1.32631579 22.8947368,3.72631579 C22.8947368,5.30526316 23.0210526,6.37894737 24.5368421,6.37894737 C25.0421053,6.37894737 25.7368421,6.18947368 25.7368421,6.18947368 Z" id="Path"></path>
                <path d="M6.41052632,2.58947368 C6.41052632,2.58947368 6.97894737,2.33684211 7.8,2.33684211 C8.24210526,2.33684211 8.62105263,2.4 8.62105263,2.77894737 C8.62105263,3.03157895 8.55789474,3.09473684 8.55789474,3.09473684 C8.55789474,3.09473684 8.17894737,3.09473684 7.98947368,3.09473684 C6.91578947,3.09473684 5.71578947,3.53684211 5.71578947,4.98947368 C5.71578947,6.12631579 6.47368421,6.37894737 6.91578947,6.37894737 C7.8,6.37894737 8.17894737,5.81052632 8.24210526,5.81052632 L8.17894737,6.31578947 L9.31578947,6.31578947 L9.82105263,2.84210526 C9.82105263,1.38947368 8.55789474,1.32631579 8.05263158,1.32631579 M9,4.04210526 C9,4.23157895 8.24210526,5.24210526 7.48421053,5.24210526 C7.10526316,5.24210526 6.97894737,4.92631579 6.97894737,4.73684211 C6.97894737,4.42105263 7.16842105,3.97894737 8.11578947,3.97894737 C8.30526316,4.04210526 9,4.04210526 9,4.04210526 Z" id="Shape"></path>
                <path d="M9.63157895,6.18947368 C9.63157895,6.18947368 10.0105263,6.31578947 11.0842105,6.31578947 C11.4,6.31578947 12.9789474,6.37894737 12.9789474,4.67368421 C12.9789474,3.09473684 11.4631579,3.41052632 11.4631579,2.77894737 C11.4631579,2.46315789 11.7157895,2.33684211 12.1578947,2.33684211 C12.3473684,2.33684211 13.0421053,2.4 13.0421053,2.4 L13.2315789,1.26315789 C13.2315789,1.26315789 12.7894737,1.13684211 12.0315789,1.13684211 C11.0842105,1.13684211 10.7684211,1.51578947 10.7684211,2.77894737 C10.7684211,4.23157895 11.7157895,4.10526316 11.7157895,4.67368421 C11.7157895,5.05263158 11.2736842,5.11578947 10.9578947,5.11578947" id="Path"></path>
                <path d="M35.9684211,1.89473684 C35.9684211,1.89473684 35.4631579,1.26315789 34.7684211,1.26315789 C33.6315789,1.26315789 33.2526316,2.65263158 33.2526316,4.29473684 C33.2526316,5.30526316 33.1263158,6.37894737 34.2,6.37894737 C34.9578947,6.37894737 35.4,5.87368421 35.4,5.87368421 L35.3368421,6.31578947 L36.6,6.31578947 L37.5473684,0.252631579 M35.9052632,3.53684211 C35.9052632,4.23157895 35.3368421,5.11578947 34.6421053,5.11578947 C34.2,5.11578947 33.9473684,4.73684211 33.9473684,4.10526316 C33.9473684,3.09473684 34.3894737,2.46315789 34.9578947,2.46315789 C35.4,2.46315789 35.9052632,2.77894737 35.9052632,3.53684211 Z" id="Shape"></path>
                <polygon id="Path" points="1.23157895 6.25263158 1.98947368 1.70526316 2.11578947 6.25263158 3 6.25263158 4.64210526 1.70526316 3.94736842 6.25263158 5.27368421 6.25263158 6.28421053 0.189473684 4.70526316 0.189473684 2.93684211 3.91578947 2.87368421 0.189473684 2.17894737 0.189473684 0.0315789474 6.25263158"></polygon>
                <path d="M19.4842105,6.25263158 L20.8105263,6.25263158 C21.1894737,4.16842105 21.2526316,2.46315789 22.1368421,2.77894737 C22.2631579,1.95789474 22.4526316,1.64210526 22.5789474,1.32631579 C22.5789474,1.32631579 22.5157895,1.32631579 22.3263158,1.32631579 C21.7578947,1.32631579 21.3157895,2.08421053 21.3157895,2.08421053 L21.4421053,1.38947368" id="Path"></path>
                <path d="M26.9368421,2.58947368 C26.9368421,2.58947368 27.5052632,2.33684211 28.3263158,2.33684211 C28.7684211,2.33684211 29.1473684,2.4 29.1473684,2.77894737 C29.1473684,3.03157895 29.0842105,3.09473684 29.0842105,3.09473684 C29.0842105,3.09473684 28.7052632,3.09473684 28.5157895,3.09473684 C27.4421053,3.09473684 26.2421053,3.53684211 26.2421053,4.98947368 C26.2421053,6.12631579 27,6.37894737 27.4421053,6.37894737 C28.3263158,6.37894737 28.7052632,5.81052632 28.7684211,5.81052632 L28.7052632,6.31578947 L29.8421053,6.31578947 L30.3473684,2.84210526 C30.3473684,1.38947368 29.0842105,1.32631579 28.5789474,1.32631579 M29.5263158,4.04210526 C29.5263158,4.23157895 28.7684211,5.24210526 28.0105263,5.24210526 C27.6315789,5.24210526 27.5052632,4.92631579 27.5052632,4.73684211 C27.5052632,4.42105263 27.6947368,3.97894737 28.6421053,3.97894737 C28.8947368,4.04210526 29.5263158,4.04210526 29.5263158,4.04210526 Z" id="Shape"></path>
                <path d="M30.0947368,6.25263158 L31.4210526,6.25263158 C31.8,4.16842105 31.8631579,2.46315789 32.7473684,2.77894737 C32.8736842,1.95789474 33.0631579,1.64210526 33.1894737,1.32631579 C33.1894737,1.32631579 33.1263158,1.32631579 32.9368421,1.32631579 C32.3684211,1.32631579 31.9263158,2.08421053 31.9263158,2.08421053 L32.0526316,1.38947368" id="Path"></path>
            </g>
        </g>
    </g>
</svg>