<?xml version="1.0" encoding="UTF-8"?>
<svg width="25px" height="14px" viewBox="0 0 25 14" version="1.1" xmlns="http://www.w3.org/2000/svg" xmlns:xlink="http://www.w3.org/1999/xlink">
    <!-- Generator: Sketch 63.1 (92452) - https://sketch.com -->
    <title>offer</title>
    <desc>Created with Sketch.</desc>
    <g id="Page-1" stroke="none" stroke-width="1" fill="none" fill-rule="evenodd">
        <g id="iPhone-11-Pro-Copy-16" transform="translate(-32.000000, -868.000000)" fill="#000000" fill-rule="nonzero">
            <path d="M37.2085937,868 L38.25,869.076942 L39.2921387,868 L56.4796875,868 C56.767334,868 57,868.241054 57,868.538496 L57,868.538496 L57,881.461958 C57,881.759401 56.7673828,882 56.4796875,882 L56.4796875,882 L39.2921387,882 L38.25,880.924017 L37.2085937,882 L32.5210937,882 C32.2333496,882 32,881.759451 32,881.461958 L32,881.461958 L32,868.538496 C32,868.241054 32.2333496,868 32.5210937,868 L32.5210937,868 L37.2085937,868 Z M36.7774902,869.076942 L33.0421387,869.076942 L33.0421387,880.924017 L36.7774902,880.924017 L38.25,879.400153 L39.7232422,880.924017 L55.9588379,880.924017 L55.9588379,869.076942 L39.7232422,869.076942 L38.9869629,869.83842 L38.25,870.599847 L37.5137695,869.83837 L36.7774902,869.076942 Z M49.7088379,875.000252 C50.8591309,875.000252 51.7921875,875.964367 51.7921875,877.153683 C51.7921875,878.343 50.8591797,879.308578 49.7088379,879.308578 C48.557959,879.308578 47.625,878.342949 47.625,877.153683 C47.625,875.964417 48.5580078,875.000252 49.7088379,875.000252 Z M51.2713379,870.692432 C51.5585449,870.692432 51.7921875,870.933688 51.7921875,871.230928 C51.7921875,871.37965 51.7342285,871.514236 51.6394531,871.611516 L51.6394531,871.611516 L44.3482422,879.150719 L44.2872809,879.204395 C44.2007793,879.269646 44.0943652,879.308578 43.9796387,879.308578 C43.6919434,879.308578 43.4585938,879.06707 43.4585938,878.769122 C43.4585938,878.620653 43.5172363,878.486572 43.6112793,878.38904 L43.6112793,878.38904 L50.9026855,870.850089 L50.9634645,870.79624 C51.0498223,870.730912 51.1564551,870.692432 51.2713379,870.692432 Z M38.25,877.693139 C38.5384277,877.693139 38.7710937,877.933688 38.7710937,878.23108 C38.7710937,878.528523 38.5384277,878.769122 38.25,878.769122 C37.9632813,878.769122 37.7296387,878.528573 37.7296387,878.23108 C37.7296387,877.933738 37.9632324,877.693139 38.25,877.693139 Z M49.7088379,876.0777 C49.1339355,876.0777 48.6671875,876.560211 48.6671875,877.153683 C48.6671875,877.748518 49.1339355,878.23108 49.7088379,878.23108 C50.283252,878.23108 50.75,877.748518 50.75,877.153683 C50.75,876.560262 50.2833008,876.0777 49.7088379,876.0777 Z M38.25,875.538749 C38.5384277,875.538749 38.7710937,875.779702 38.7710937,876.0777 C38.7710937,876.374183 38.5384277,876.615641 38.25,876.615641 C37.9632813,876.615641 37.7296387,876.374183 37.7296387,876.0777 C37.7296387,875.779702 37.9632324,875.538749 38.25,875.538749 Z M45.5421387,870.692381 C46.6924805,870.692381 47.625,871.657 47.625,872.846317 C47.625,874.035886 46.6925293,875.000252 45.5421387,875.000252 C44.3915527,875.000252 43.4585937,874.035886 43.4585937,872.846317 C43.4585937,871.657 44.3916016,870.692381 45.5421387,870.692381 Z M38.25,873.384813 C38.5384277,873.384813 38.7710937,873.625817 38.7710937,873.92331 C38.7710937,874.220551 38.5384277,874.461806 38.25,874.461806 C37.9632813,874.461806 37.7296387,874.220551 37.7296387,873.92331 C37.7296387,873.625817 37.9632324,873.384813 38.25,873.384813 Z M45.5421387,871.769374 C44.9676758,871.769374 44.5,872.252441 44.5,872.846317 C44.5,873.439991 44.9676758,873.923259 45.5421387,873.923259 C46.1166016,873.923259 46.5838379,873.439991 46.5838379,872.846317 C46.5838379,872.252441 46.1166016,871.769374 45.5421387,871.769374 Z M38.25,871.230878 C38.5384277,871.230878 38.7710937,871.471881 38.7710937,871.769374 C38.7710937,872.066868 38.5384277,872.307871 38.25,872.307871 C37.9632813,872.307871 37.7296387,872.066868 37.7296387,871.769374 C37.7296387,871.471881 37.9632324,871.230878 38.25,871.230878 Z" id="offer"></path>
        </g>
    </g>
</svg>