<svg width="22" height="22" viewBox="0 0 22 22" fill="none" xmlns="http://www.w3.org/2000/svg">
<path d="M7.99937 17.1677C6.77958 17.1677 5.58719 16.806 4.57298 16.1283C3.55877 15.4506 2.76829 14.4874 2.30149 13.3605C1.8347 12.2335 1.71257 10.9935 1.95054 9.79716C2.18851 8.60081 2.77589 7.5019 3.6384 6.63938C4.50092 5.77686 5.59983 5.18948 6.79618 4.95151C7.99253 4.71355 9.23257 4.83568 10.3595 5.30247C11.4864 5.76926 12.4496 6.55974 13.1273 7.57396C13.805 8.58817 14.1667 9.78056 14.1667 11.0003C14.165 12.6355 13.5147 14.2032 12.3585 15.3594C11.2022 16.5157 9.63452 17.166 7.99937 17.1677Z" fill="#E61C24"/>
<path d="M14.0003 17.1677C12.7805 17.1679 11.5881 16.8063 10.5737 16.1288C9.55943 15.4513 8.7688 14.4882 8.30185 13.3613C7.83489 12.2345 7.71257 10.9944 7.95036 9.79806C8.18815 8.60168 8.77537 7.50267 9.63776 6.64003C10.5001 5.77738 11.599 5.18984 12.7953 4.95169C13.9916 4.71355 15.2317 4.8355 16.3587 5.30212C17.4857 5.76874 18.449 6.55908 19.1268 7.5732C19.8046 8.58731 20.1665 9.77964 20.1667 10.9994V11.0003C20.165 12.6353 19.5148 14.2029 18.3588 15.3591C17.2027 16.5153 15.6353 17.1657 14.0003 17.1677Z" fill="#F99F1B"/>
</svg>
