<?xml version="1.0" encoding="UTF-8"?>
<svg width="24px" height="25px" viewBox="0 0 24 25" version="1.1" xmlns="http://www.w3.org/2000/svg" xmlns:xlink="http://www.w3.org/1999/xlink">
    <title>visa</title>
    <g id="Page-1" stroke="none" stroke-width="1" fill="none" fill-rule="evenodd">
        <g id="visa" fill-rule="nonzero">
            <circle id="Oval" fill="#F3F2F2" cx="11.9989873" cy="11.9994937" r="11.998481"></circle>
            <g id="Group" transform="translate(3.949367, 8.759494)" fill="#293688">
                <polygon id="Path" points="4.9358481 5.54162025 5.85397468 0.120151899 7.34040506 0.120151899 6.42232911 5.54162025"></polygon>
                <path d="M11.7140253,0.260303797 C11.419443,0.15043038 10.9579241,0.0327594937 10.3815696,0.0327594937 C8.91250633,0.0327594937 7.87772152,0.768253165 7.86881013,1.82197468 C7.86065823,2.60081013 8.60749367,3.03524051 9.1716962,3.29478481 C9.75027848,3.56 9.94486076,3.73017722 9.94202532,3.96718987 C9.93843038,4.33058228 9.47974684,4.49670886 9.05235443,4.49670886 C8.45746835,4.49650633 8.14126582,4.41448101 7.65301266,4.2121519 L7.46146835,4.12577215 L7.25270886,5.33944304 C7.6,5.49083544 8.24222785,5.62212658 8.90891139,5.62875949 C10.4713418,5.62840506 11.4860759,4.90202532 11.4974684,3.7764557 C11.5031392,3.15979747 11.1069873,2.69048101 10.2493165,2.30344304 C9.72962025,2.05296203 9.41134177,1.88567089 9.41478481,1.63144304 C9.41478481,1.40617722 9.68435443,1.16521519 10.2661772,1.16521519 C10.7523038,1.15762025 11.1045063,1.26298734 11.379038,1.37286076 L11.5120506,1.43539241 L11.7140253,0.260303797 L11.7140253,0.260303797 Z" id="Path"></path>
                <path d="M14.2483544,0.120151899 C13.8922025,0.120151899 13.6348861,0.228911392 13.4783797,0.581873418 L11.2753924,5.54182278 L12.8492152,5.54182278 L13.1551899,4.71103797 L15.0355443,4.71103797 L15.2102278,5.54182278 L16.6093671,5.54182278 L15.3853165,0.120303797 L14.2484051,0.120303797 L14.2483544,0.120151899 L14.2483544,0.120151899 Z M13.5727595,3.62622785 C13.6955443,3.31402532 14.1648101,2.11093671 14.1648101,2.11093671 C14.1563038,2.12516456 14.2869873,1.79721519 14.3620253,1.59372152 L14.4626329,2.06091139 C14.4626329,2.06091139 14.7469873,3.35508861 14.8066835,3.62637975 L13.5727595,3.62637975 L13.5727595,3.62622785 Z" id="Shape"></path>
                <path d="M2.22511392,3.83650633 L2.09417722,3.09326582 C1.82288608,2.22688608 0.980911392,1.28946835 0.0374177215,0.819797468 L1.35073418,5.54162025 L2.92491139,5.54162025 L5.28572152,0.120151899 L3.71189873,0.120151899 L2.22511392,3.83650633 Z" id="Path"></path>
            </g>
            <g id="Group" transform="translate(1.316456, 8.860759)" fill="#F7981D">
                <path d="M1.05432911,0.0188860759 L1.05432911,0.10643038 C2.9195443,0.555037975 4.21448101,1.68916456 4.72713924,2.99205063 L4.1881519,0.48156962 C4.09817722,0.138481013 3.82551899,0.030835443 3.50288608,0.0189367089 L1.05432911,0.0188860759 L1.05432911,0.0188860759 Z" id="Path"></path>
                <path d="M10.6817215,15.1371139 C15.3128101,15.1371139 19.3283038,12.512 21.3284051,8.67002532 L0.0352405063,8.67002532 C2.03549367,12.512 6.05083544,15.1371139 10.6817215,15.1371139 Z" id="Path"></path>
            </g>
            <path d="M11.9981772,0 C7.44060759,0 3.47660759,2.54096203 1.44546835,6.2836962 L22.5512911,6.2836962 C20.5198987,2.54116456 16.5557468,0 11.9981772,0 Z" id="Path" fill="#293688"></path>
        </g>
    </g>
</svg>