<?xml version="1.0" encoding="UTF-8"?>
<svg width="25px" height="23px" viewBox="0 0 25 23" version="1.1" xmlns="http://www.w3.org/2000/svg" xmlns:xlink="http://www.w3.org/1999/xlink">
    <!-- Generator: Sketch 63.1 (92452) - https://sketch.com -->
    <title>zippay</title>
    <desc>Created with Sketch.</desc>
    <g id="Page-1" stroke="none" stroke-width="1" fill="none" fill-rule="evenodd">
        <g id="iPhone-11-Pro-Copy-16" transform="translate(-158.000000, -599.000000)" fill-rule="nonzero">
            <g id="zippay" transform="translate(158.000000, 599.000000)">
                <g id="Group">
                    <path d="M22.6867027,8.61318919 L17.5620541,13.2231351 L4.86978378,13.2231351 C3.68591017,13.2215399 2.54235815,13.6531358 1.65475676,14.4365405 L8.05621622,8.67659459 L8.15443243,8.58956757 L16.1745946,1.36756757 C17.4677899,0.204291495 19.2833519,-0.180708486 20.9373762,0.357593391 C22.5914004,0.895895269 23.8326011,2.27571814 24.1934302,3.9772961 C24.5542592,5.67887404 23.979898,7.4436969 22.6867027,8.60697297 L22.6867027,8.61318919 Z" id="Shape" fill="#F15C3E"></path>
                    <circle id="Oval" fill="#F8991C" cx="4.86978378" cy="4.99410811" r="4.86978378"></circle>
                    <path d="M4.86978378,13.2231307 C3.68591017,13.2215399 2.54235815,13.6531358 1.65475676,14.4365405 L1.61372973,14.4738378 C-0.385720116,16.2721069 -0.548809436,19.3507663 1.24945953,21.3502161 C3.04772851,23.349666 6.12638791,23.5127554 8.12583784,21.7144865 L17.5632973,13.2243784 L4.86978378,13.2231307 Z" id="Shape" fill="#21285E"></path>
                    <path d="M17.5554982,13.2268646 L8.11704788,21.7169727 C7.22333037,22.5206355 6.0629786,22.9636988 4.86108089,22.9602962 L19.4227997,22.9602962 C22.2315622,22.915332 24.2146483,20.8021773 24.2146483,18.0910538 C24.2146483,15.3799304 22.0815596,13.2643786 19.4227997,13.2218916 L17.5554982,13.2268646 Z" id="Shape" fill="#00AEB8"></path>
                </g>
            </g>
        </g>
    </g>
</svg>