<svg width="40" height="42" viewBox="0 0 40 42" fill="none" xmlns="http://www.w3.org/2000/svg">
<path fill-rule="evenodd" clip-rule="evenodd" d="M19.5617 0C24.7894 0 29.108 3.98332 29.6405 9.07784L29.7891 9.0796C32.6891 9.0796 36.2151 11.0056 37.4051 16.4076L38.9831 28.6216C39.5491 32.5636 38.8411 35.7256 36.8751 37.9936C34.9191 40.2496 31.8231 41.4436 27.9211 41.4436H11.2251C6.93906 41.4436 3.95306 40.3936 2.09506 38.2356C0.229061 36.0716 -0.394938 32.8256 0.241062 28.5896L1.79306 16.5376C2.81306 11.0116 6.54306 9.0796 9.43106 9.0796C9.68038 6.78055 10.7171 4.5934 12.3617 2.954C14.2517 1.076 16.8577 0 19.5197 0H19.5617ZM29.7891 12.0796H9.43106C8.54906 12.0796 5.60106 12.4356 4.75506 17.0036L3.21106 29.0036C2.70906 32.3696 3.09706 34.8056 4.36706 36.2796C5.62106 37.7356 7.86506 38.4436 11.2251 38.4436H27.9211C30.0171 38.4436 32.8791 38.0256 34.6071 36.0296C35.9791 34.4476 36.4511 32.0916 36.0111 29.0256L34.4531 16.9216C33.7891 13.9396 32.0371 12.0796 29.7891 12.0796ZM25.3947 17.6478C26.2227 17.6478 26.9407 18.3198 26.9407 19.1478C26.9407 19.9758 26.3147 20.6478 25.4867 20.6478H25.3947C24.5667 20.6478 23.8947 19.9758 23.8947 19.1478C23.8947 18.3198 24.5667 17.6478 25.3947 17.6478ZM13.7345 17.6478C14.5625 17.6478 15.2805 18.3198 15.2805 19.1478C15.2805 19.9758 14.6525 20.6478 13.8245 20.6478H13.7345C12.9065 20.6478 12.2345 19.9758 12.2345 19.1478C12.2345 18.3198 12.9065 17.6478 13.7345 17.6478ZM19.5557 3H19.5257C17.6437 3 15.8097 3.758 14.4797 5.08C13.3963 6.15853 12.6877 7.57639 12.4585 9.07867L26.6171 9.07923C26.1031 5.64276 23.1315 3 19.5557 3Z" fill="black"/>
</svg>
