<svg width="299" height="123" viewBox="0 0 299 123" fill="none" xmlns="http://www.w3.org/2000/svg">
<path fill-rule="evenodd" clip-rule="evenodd" d="M55.2618 122.131C29.1916 119.098 6.49265 98.5538 1.20779 73.0486C-5.30974 41.5608 15.1554 10.5034 47.9951 2.25232C68.5965 -2.88856 87.4953 0.845007 104.63 12.6947C106.619 14.0699 106.619 14.8989 105.052 16.6211C99.8017 22.4046 94.7075 28.2716 89.661 34.1965C88.3875 35.7002 87.4885 35.8929 85.8949 34.6077C83.9996 33.0729 82.0203 31.6439 79.869 30.0907C79.0208 29.4784 78.1459 28.8467 77.2389 28.1816C75.7635 38.5339 74.338 48.6216 72.9005 58.7929C72.3473 62.7075 71.7923 66.6346 71.2321 70.5939L112.966 54.3937C111.621 53.4017 110.338 52.4591 109.092 51.5443C107.425 50.3196 105.826 49.1446 104.235 47.9676C104.1 47.8621 103.954 47.7639 103.81 47.6671C103.078 47.1745 102.403 46.7202 103.479 45.5385C107.887 40.6022 112.219 35.607 116.614 30.5378C117.455 29.5688 118.297 28.5971 119.143 27.6226C125.314 36.2459 128.958 46.2555 129.706 56.6364C130.361 65.0727 130.293 73.5182 130.225 82.1287C130.177 88.0196 130.13 93.9878 130.312 100.083C129.981 99.5916 129.693 99.1599 129.434 98.7704C128.883 97.9431 128.459 97.3063 128.01 96.6902C123.631 90.6497 117.195 89.6216 110.215 90.5919C104.085 91.4209 99.8357 94.7945 98.1535 100.52C96.3079 106.792 96.7029 112.852 101.259 118.128C102.914 120.056 104.903 121.669 107.654 122.105C107.926 123.073 107.274 123.022 106.753 122.982C106.648 122.973 106.548 122.965 106.462 122.967C98.1263 122.992 89.7881 122.992 81.4477 122.967C80.5508 122.964 78.6151 122.917 76.1357 122.844C85.1393 122.467 92.3163 115.458 92.3163 106.867C92.3163 98.0348 84.7305 90.8747 75.3729 90.8747C73.8203 90.8747 72.3164 91.0719 70.8879 91.441V103.134C71.9837 101.962 73.5868 101.223 75.3729 101.223C78.6756 101.223 81.3529 103.75 81.3529 106.867C81.3529 109.985 78.6756 112.512 75.3729 112.512C72.4098 112.512 69.9501 110.478 69.4756 107.808H69.3929V77.7045L58.4296 73.9415V107.808H58.4584C58.9381 115.614 65.3498 121.918 73.5019 122.763C67.5397 122.576 59.8416 122.301 55.2618 122.131Z" fill="#90C63E"/>
<path d="M186.809 103.893C190.406 99.5301 193.612 95.7323 196.691 91.8382C197.556 90.5819 199.082 89.8873 200.652 90.0355C203.858 90.1573 207.064 90.0355 211.039 90.0355C207.522 94.1605 204.586 97.8686 201.325 101.301C199.628 103.091 199.769 104.335 201.103 106.202C204.666 111.2 208.007 116.345 211.759 121.907C207.381 121.907 203.514 121.868 199.635 121.907C198.476 121.907 198.126 121.208 197.668 120.483C196.044 117.916 194.441 115.35 192.757 112.855C192.265 112.117 191.969 110.629 190.905 110.994C189.557 111.469 188.015 112.207 187.577 113.824C187.525 114.35 187.514 114.88 187.543 115.408C187.334 117.5 188.453 121.015 187.085 121.413C183.906 122.337 180.262 121.849 176.799 121.817C175.614 121.817 175.984 120.739 175.977 120.078C175.977 106.735 175.96 93.3885 175.924 80.0404C175.924 78.366 176.631 78.1158 178.106 78.1735C181.117 78.2954 185.031 77.224 186.863 78.6418C188.837 80.1366 187.449 84.0307 187.476 86.8663C187.577 92.345 187.84 97.798 186.809 103.893Z" fill="black"/>
<path d="M118.367 106.801C118.287 108.758 118.367 110.569 117.542 112.259C116.783 113.822 115.615 114.8 113.681 114.8C111.627 114.8 110.176 113.943 109.552 112.176C108.317 108.64 108.275 104.828 109.431 101.267C109.874 99.546 111.528 98.3517 113.399 98.4019C115.501 98.3574 116.931 99.3613 117.683 101.312C118.435 103.262 118.273 105.073 118.367 106.801Z" fill="#91C63E"/>
<path d="M120.711 121.026C125.303 120.199 127.671 117.026 130.312 113.775V121.365C127.081 122.35 123.81 121.921 120.539 121.607C120.585 121.411 120.643 121.217 120.711 121.026Z" fill="#97CA4A"/>
<path fill-rule="evenodd" clip-rule="evenodd" d="M152.697 122.999C163.182 122.942 169.453 116.722 169.405 106.504C169.337 96.4524 162.808 90.1557 152.417 90.2004C141.871 90.2451 135.647 96.3439 135.743 106.645C135.838 116.76 142.368 123.063 152.697 122.999ZM148.622 100.835C147.866 102.648 147.562 104.605 147.735 106.55C147.557 108.493 147.859 110.448 148.616 112.258C149.172 113.81 150.713 114.838 152.423 114.798C154.264 114.83 155.675 114.189 156.337 112.519C157.814 108.745 157.833 104.589 156.39 100.804C155.761 99.121 154.284 98.4035 152.51 98.4035C150.803 98.3287 149.238 99.3079 148.622 100.835Z" fill="black"/>
<path fill-rule="evenodd" clip-rule="evenodd" d="M271.093 102.204H272.09H279.565C283.143 102.204 286.043 104.746 286.043 107.882C286.043 111.018 283.143 113.56 279.565 113.56H254.166C252.744 117.321 249.872 120.433 246.186 122.295H279.565H280.063V122.289C288.915 122.058 296.01 115.696 296.01 107.882C296.01 100.068 288.915 93.7057 280.063 93.4748V93.4684H279.565H272.09C268.512 93.4684 265.611 90.9262 265.611 87.7903C265.611 84.6545 268.512 82.1123 272.09 82.1123H295.013L299 73.377H272.09H271.093V73.403C262.475 73.8545 255.645 80.1234 255.645 87.7903C255.645 95.4573 262.475 101.726 271.093 102.178V102.204ZM237.206 114.703C237.532 114.747 237.865 114.77 238.203 114.77C239.706 114.77 241.097 114.322 242.235 113.56H237.206V114.703Z" fill="#90C63E"/>
<path d="M229.234 77.1399L219.267 73.377V106.303C219.267 115.135 226.853 122.295 236.21 122.295C245.568 122.295 253.154 115.135 253.154 106.303V81.8436H243.187V106.303C243.187 109.94 240.064 112.888 236.21 112.888C232.357 112.888 229.234 109.94 229.234 106.303V77.1399Z" fill="#90C63E"/>
</svg>
