<svg width="414" height="326" viewBox="0 0 414 326" fill="none" xmlns="http://www.w3.org/2000/svg">
<g clip-path="url(#clip0_2060_165233)">
<path d="M414.52 117.34V326.16H0.179993V74.0001C90.39 48.1901 180.61 58.3301 270.82 79.0001C318.72 89.7301 366.62 103.19 414.52 117.34Z" fill="#F9FCF5"/>
<path fill-rule="evenodd" clip-rule="evenodd" d="M147.746 222.357C131.355 220.337 117.082 206.651 113.759 189.661C109.661 168.686 122.529 147.997 143.177 142.5C156.131 139.076 168.014 141.563 178.787 149.457C180.038 150.373 180.038 150.925 179.053 152.072C175.751 155.925 172.548 159.833 169.375 163.78C168.575 164.782 168.009 164.91 167.007 164.054C165.816 163.031 164.571 162.079 163.219 161.045C162.685 160.637 162.135 160.216 161.565 159.773C160.637 166.671 159.74 173.393 158.836 180.17C158.489 182.776 158.14 185.39 157.788 188.026L184.029 177.234C183.183 176.573 182.376 175.946 181.593 175.336C180.545 174.52 179.539 173.738 178.539 172.953C178.454 172.883 178.362 172.818 178.272 172.753C177.812 172.425 177.387 172.122 178.064 171.335C180.836 168.047 183.559 164.719 186.323 161.342C186.851 160.697 187.381 160.05 187.913 159.401C191.792 165.145 194.084 171.813 194.554 178.728C194.966 184.348 194.924 189.974 194.88 195.71C194.851 199.634 194.821 203.61 194.935 207.67C194.727 207.343 194.546 207.055 194.383 206.795C194.037 206.244 193.77 205.82 193.488 205.41C190.735 201.386 186.688 200.701 182.299 201.347C178.445 201.9 175.773 204.147 174.715 207.961C173.555 212.139 173.803 216.176 176.668 219.69C177.708 220.975 178.959 222.049 180.689 222.34C180.86 222.985 180.45 222.951 180.122 222.924C180.056 222.918 179.993 222.913 179.939 222.914C174.698 222.931 169.455 222.931 164.211 222.914C163.647 222.912 162.431 222.881 160.873 222.832C166.533 222.58 171.045 217.912 171.045 212.189C171.045 206.306 166.275 201.536 160.392 201.536C159.415 201.536 158.47 201.667 157.572 201.913V209.702C158.261 208.922 159.269 208.429 160.392 208.429C162.468 208.429 164.152 210.113 164.152 212.189C164.152 214.266 162.468 215.949 160.392 215.949C158.529 215.949 156.982 214.594 156.684 212.816H156.632V192.763L149.738 190.256V212.816H149.756C150.058 218.016 154.089 222.215 159.214 222.778C155.465 222.653 150.626 222.47 147.746 222.357Z" fill="#90C63E"/>
<path d="M230.458 210.208C232.72 207.302 234.736 204.772 236.672 202.178C237.216 201.341 238.175 200.878 239.162 200.977C241.178 201.058 243.194 200.977 245.693 200.977C243.482 203.725 241.636 206.195 239.586 208.481C238.518 209.674 238.607 210.503 239.446 211.746C241.686 215.075 243.787 218.503 246.146 222.208C243.393 222.208 240.962 222.182 238.523 222.208C237.794 222.208 237.574 221.742 237.286 221.259C236.265 219.55 235.257 217.84 234.198 216.178C233.889 215.687 233.703 214.695 233.033 214.939C232.186 215.255 231.217 215.746 230.941 216.823C230.909 217.174 230.902 217.527 230.92 217.879C230.789 219.272 231.492 221.614 230.632 221.879C228.633 222.494 226.342 222.169 224.165 222.148C223.419 222.148 223.652 221.43 223.648 220.99C223.648 212.101 223.637 203.211 223.614 194.319C223.614 193.203 224.059 193.037 224.986 193.075C226.879 193.156 229.34 192.443 230.492 193.387C231.733 194.383 230.861 196.977 230.878 198.866C230.941 202.515 231.106 206.148 230.458 210.208Z" fill="black"/>
<path d="M187.425 212.145C187.374 213.448 187.425 214.654 186.906 215.78C186.429 216.821 185.694 217.473 184.478 217.473C183.186 217.473 182.275 216.902 181.882 215.725C181.106 213.369 181.079 210.83 181.806 208.458C182.084 207.311 183.124 206.516 184.301 206.549C185.622 206.52 186.521 207.188 186.994 208.488C187.467 209.787 187.366 210.993 187.425 212.145Z" fill="#91C63E"/>
<path d="M188.898 221.621C191.785 221.069 193.275 218.956 194.935 216.791V221.846C192.903 222.502 190.847 222.217 188.79 222.007C188.819 221.877 188.855 221.748 188.898 221.621Z" fill="#97CA4A"/>
<path fill-rule="evenodd" clip-rule="evenodd" d="M209.01 222.936C215.603 222.897 219.545 218.754 219.516 211.947C219.473 205.251 215.367 201.057 208.834 201.087C202.203 201.116 198.29 205.179 198.35 212.041C198.41 218.779 202.515 222.978 209.01 222.936ZM206.448 208.171C205.972 209.379 205.781 210.683 205.89 211.978C205.778 213.272 205.968 214.575 206.444 215.781C206.793 216.815 207.762 217.499 208.838 217.473C209.995 217.494 210.882 217.067 211.299 215.954C212.227 213.441 212.239 210.672 211.332 208.15C210.936 207.029 210.008 206.551 208.892 206.551C207.819 206.502 206.835 207.154 206.448 208.171Z" fill="black"/>
<path fill-rule="evenodd" clip-rule="evenodd" d="M283.453 209.083H284.079H288.779C291.029 209.083 292.853 210.776 292.853 212.865C292.853 214.954 291.029 216.648 288.779 216.648H272.81C271.916 219.153 270.11 221.226 267.791 222.467H288.779H289.093V222.462C294.658 222.308 299.119 218.071 299.119 212.865C299.119 207.66 294.658 203.422 289.093 203.268V203.264H288.779H284.079C281.83 203.264 280.006 201.57 280.006 199.481C280.006 197.392 281.83 195.699 284.079 195.699H298.493L300.999 189.88H284.079H283.453V189.897C278.034 190.198 273.739 194.374 273.739 199.481C273.739 204.589 278.034 208.765 283.453 209.065V209.083ZM262.146 217.409C262.351 217.438 262.56 217.454 262.773 217.454C263.717 217.454 264.592 217.155 265.308 216.648H262.146V217.409Z" fill="#90C63E"/>
<path d="M257.133 192.387L250.867 189.88V211.813C250.867 217.697 255.636 222.467 261.52 222.467C267.404 222.467 272.173 217.697 272.173 211.813V195.52H265.907V211.813C265.907 214.236 263.943 216.2 261.52 216.2C259.097 216.2 257.133 214.236 257.133 211.813V192.387Z" fill="#90C63E"/>
</g>
<defs>
<clipPath id="clip0_2060_165233">
<rect width="414" height="326" fill="white"/>
</clipPath>
</defs>
</svg>
