<svg width="301" height="234" viewBox="0 0 301 234" fill="none" xmlns="http://www.w3.org/2000/svg">
<path d="M301 205.64H0V205.797H301V205.64Z" fill="#EBEBEB"/>
<path d="M270.84 215.744H250.901V215.901H270.84V215.744Z" fill="#EBEBEB"/>
<path d="M199.394 217.452H194.163V217.609H199.394V217.452Z" fill="#EBEBEB"/>
<path d="M250.299 209.916H238.747V210.073H250.299V209.916Z" fill="#EBEBEB"/>
<path d="M57.5813 210.971H31.5809V211.128H57.5813V210.971Z" fill="#EBEBEB"/>
<path d="M66.7558 210.971H62.9452V211.128H66.7558V210.971Z" fill="#EBEBEB"/>
<path d="M135.54 213.621H79.145V213.778H135.54V213.621Z" fill="#EBEBEB"/>
<path d="M142.68 177.631H26.4339C24.5376 177.631 22.9965 176.023 22.9965 174.045V3.58589C22.9965 1.60769 24.5376 0 26.4339 0H142.68C144.576 0 146.117 1.60769 146.117 3.58589V174.045C146.117 176.023 144.576 177.631 142.68 177.631ZM26.4339 0.157001C24.6219 0.157001 23.147 1.69561 23.147 3.58589V174.045C23.147 175.935 24.6219 177.474 26.4339 177.474H142.68C144.492 177.474 145.967 175.935 145.967 174.045V3.58589C145.967 1.69561 144.492 0.157001 142.68 0.157001H26.4339Z" fill="#EBEBEB"/>
<path d="M272.893 177.631H156.646C154.75 177.631 153.209 176.023 153.209 174.045V3.58589C153.209 1.60769 154.75 0 156.646 0H272.893C274.789 0 276.33 1.60769 276.33 3.58589V174.045C276.33 176.023 274.789 177.631 272.893 177.631ZM156.646 0.157001C154.834 0.157001 153.359 1.69561 153.359 3.58589V174.045C153.359 175.935 154.834 177.474 156.646 177.474H272.893C274.705 177.474 276.18 175.935 276.18 174.045V3.58589C276.18 1.69561 274.705 0.157001 272.893 0.157001H156.646Z" fill="#EBEBEB"/>
<path d="M261.364 30.8604H166.615V102.296H261.364V30.8604Z" fill="#FAFAFA"/>
<path d="M253.851 102.289L220.284 30.8604H195.09L228.657 102.289H253.851Z" fill="white"/>
<path d="M223.342 102.289L189.774 30.8604H180.582L214.155 102.289H223.342Z" fill="white"/>
<path d="M160.318 27.4565H267.655C267.98 27.4565 268.239 27.7329 268.239 28.0657C268.239 28.4048 267.974 28.6749 267.655 28.6749H160.318C159.993 28.6749 159.734 28.3985 159.734 28.0657C159.734 27.7329 159.999 27.4565 160.318 27.4565Z" fill="#E0E0E0"/>
<path d="M214.769 30.647H213.204V102.503H214.769V30.647Z" fill="#F0F0F0"/>
<path d="M213.204 30.647H212.421V102.503H213.204V30.647Z" fill="#E0E0E0"/>
<path d="M262.273 65.7583H165.7V67.3911H262.273V65.7583Z" fill="#F0F0F0"/>
<path d="M165.7 101.611V31.5386V29.9058H167.266H260.708H262.273V31.5386V101.611V103.244H260.708H167.266H165.7V101.611ZM260.708 101.611V31.5386H167.266V101.611H260.708Z" fill="#F0F0F0"/>
<path d="M165.7 29.9058H164.917V103.244H165.7V29.9058Z" fill="#E0E0E0"/>
<path opacity="0.5" d="M192.195 25.9619V106.44H170.98L174.869 25.9619H192.195Z" fill="#EBEBEB"/>
<path opacity="0.5" d="M180.155 25.9619V109.599H158.94L162.829 25.9619H180.155Z" fill="#EBEBEB"/>
<path opacity="0.5" d="M234.997 25.9619V106.44H256.211L252.322 25.9619H234.997Z" fill="#EBEBEB"/>
<path opacity="0.5" d="M247.037 25.9619V109.599H268.251L264.362 25.9619H247.037Z" fill="#EBEBEB"/>
<path d="M129.635 14.4756H42.3267V199.567H129.635V14.4756Z" fill="#F0F0F0"/>
<path d="M122.381 195.692H49.5809C48.124 195.692 46.9381 194.455 46.9381 192.935V21.1008C46.9381 19.581 48.124 18.3501 49.5809 18.3501H122.381C123.838 18.3501 125.024 19.5873 125.024 21.1008V192.941C125.017 194.461 123.832 195.692 122.381 195.692ZM49.5809 19.0409C48.4913 19.0409 47.6063 19.9641 47.6063 21.1008V192.941C47.6063 194.078 48.4913 195.001 49.5809 195.001H122.381C123.47 195.001 124.355 194.078 124.355 192.941V21.1008C124.355 19.9641 123.47 19.0409 122.381 19.0409H49.5809Z" fill="#E0E0E0"/>
<path d="M42.3267 205.64H51.8262L54.4931 199.567H42.3267V205.64Z" fill="#F0F0F0"/>
<path d="M121.369 205.64H111.87L109.197 199.567H121.369V205.64Z" fill="#E0E0E0"/>
<path d="M129.635 205.64H120.129L117.462 199.567H129.635V205.64Z" fill="#F0F0F0"/>
<path d="M42.3268 14.4756H33.8446V205.64H42.3268V14.4756Z" fill="#E0E0E0"/>
<path d="M85.9776 195.692C85.797 195.692 85.6465 195.535 85.6465 195.346V18.6955C85.6465 18.5071 85.797 18.3501 85.9776 18.3501C86.1582 18.3501 86.3087 18.5071 86.3087 18.6955V195.346C86.3087 195.541 86.1642 195.692 85.9776 195.692Z" fill="#E0E0E0"/>
<path d="M78.6936 103.985C79.9504 103.985 80.9692 102.922 80.9692 101.611C80.9692 100.3 79.9504 99.2373 78.6936 99.2373C77.4369 99.2373 76.4181 100.3 76.4181 101.611C76.4181 102.922 77.4369 103.985 78.6936 103.985Z" fill="#E0E0E0"/>
<path d="M93.2619 103.985C94.5186 103.985 95.5374 102.922 95.5374 101.611C95.5374 100.3 94.5186 99.2373 93.2619 99.2373C92.0051 99.2373 90.9863 100.3 90.9863 101.611C90.9863 102.922 92.0051 103.985 93.2619 103.985Z" fill="#E0E0E0"/>
<path d="M180.492 132.478H157.688V202.343H180.492V132.478Z" fill="#F0F0F0"/>
<path d="M263.514 202.343H162.071V205.64H263.514V202.343Z" fill="#F0F0F0"/>
<path d="M267.89 132.478H180.492V202.343H267.89V132.478Z" fill="#F5F5F5"/>
<path d="M266.307 158.879H182.081V175.942H266.307V158.879Z" fill="#F0F0F0"/>
<path d="M266.307 179.057H182.081V196.119H266.307V179.057Z" fill="#F0F0F0"/>
<path d="M266.307 138.701H182.081V155.764H266.307V138.701Z" fill="#F0F0F0"/>
<path d="M270.93 129.607H180.492V132.477H270.93V129.607Z" fill="#F0F0F0"/>
<path d="M180.492 129.607H154.504V132.477H180.492V129.607Z" fill="#E6E6E6"/>
<path d="M150.5 234C214.964 234 267.222 230.817 267.222 226.891C267.222 222.965 214.964 219.782 150.5 219.782C86.0366 219.782 33.7784 222.965 33.7784 226.891C33.7784 230.817 86.0366 234 150.5 234Z" fill="#F5F5F5"/>
<path d="M65.0401 34.0693C62.6802 32.3612 64.2093 25.1831 71.9029 22.8721C79.5904 20.5547 86.8686 27.5632 90.3 33.9626C93.7314 40.3619 99.0892 40.6948 99.938 37.6552C102.581 40.073 103.213 50.7114 91.9073 51.0945C95.8685 55.2267 85.3034 63.6169 71.9029 57.9334C58.5084 52.2437 61.3257 36.8765 65.0401 34.0693Z" fill="#263238"/>
<path opacity="0.4" d="M65.0401 34.0693C62.6802 32.3612 64.2093 25.1831 71.9029 22.8721C79.5904 20.5547 86.8686 27.5632 90.3 33.9626C93.7314 40.3619 99.0892 40.6948 99.938 37.6552C102.581 40.073 103.213 50.7114 91.9073 51.0945C95.8685 55.2267 85.3034 63.6169 71.9029 57.9334C58.5084 52.2437 61.3257 36.8765 65.0401 34.0693Z" fill="white"/>
<path d="M98.126 226.891C94.815 226.891 91.6425 226.665 89.0358 226.615C86.8024 226.565 86.0138 226.929 84.2258 226.891C82.7269 226.86 82.7871 225.365 83.2446 223.644C83.4733 222.778 83.8345 221.723 84.1536 220.329H91.191C92.1482 222.231 95.712 223.94 98.3247 224.304C100.817 224.649 99.9742 226.891 98.126 226.891Z" fill="#263238"/>
<path d="M148.182 216.153C143.631 216.278 142.09 216.021 139.525 216.002C137.328 215.983 137.003 216.479 134.776 216.542C133.301 216.586 132.976 214.865 133.421 213.553C133.77 212.529 133.999 211.173 133.764 210.111L139.718 208.014C140.699 209.439 142.764 212.171 148.832 213.44C151.258 213.955 150.006 216.102 148.182 216.153Z" fill="#263238"/>
<path d="M105.958 93.2334C105.958 93.2334 116.643 123.578 122.591 143.53C128.214 163.08 139.718 208.013 139.718 208.013C139.935 209.037 134.824 210.394 133.764 210.111C133.764 210.111 114.874 180.953 110.184 148.115C92.9307 125.299 84.7736 98.6091 84.7736 98.6091L105.958 93.2334Z" fill="#90C63E"/>
<path d="M99.601 94.8413C99.601 94.8413 101.275 135.266 97.9214 154.432C94.3997 174.56 90.4446 207.103 91.1911 220.322C90.1075 220.982 86.2908 221.02 84.1537 220.322C84.1537 220.322 74.7023 175.785 84.6834 156.046C79.8193 109.103 81.6433 99.4006 81.6433 99.4006L99.601 94.8413Z" fill="#90C63E"/>
<path d="M91.7265 217.572C91.7446 218.237 91.8048 219.399 91.9733 220.285C92.0335 220.605 91.8289 220.9 91.5158 220.95C88.9393 221.384 85.2069 220.756 84.027 220.536C83.7982 220.492 83.6296 220.303 83.5935 220.071L83.2082 217.528C83.1541 217.182 83.4189 216.868 83.7561 216.875L91.1968 217.025C91.4857 217.032 91.7205 217.27 91.7265 217.572Z" fill="#263238"/>
<path opacity="0.1" d="M91.7265 217.572C91.7446 218.237 91.8048 219.399 91.9733 220.285C92.0335 220.605 91.8289 220.9 91.5158 220.95C88.9393 221.384 85.2069 220.756 84.027 220.536C83.7982 220.492 83.6296 220.303 83.5935 220.071L83.2082 217.528C83.1541 217.182 83.4189 216.868 83.7561 216.875L91.1968 217.025C91.4857 217.032 91.7205 217.27 91.7265 217.572Z" fill="white"/>
<path d="M139.393 205.093C139.658 205.746 140.133 206.908 140.519 207.762C140.645 208.045 140.531 208.371 140.266 208.51C138.273 209.552 134.812 210.463 133.668 210.745C133.439 210.802 133.21 210.701 133.084 210.494L131.754 208.284C131.573 207.982 131.699 207.58 132.019 207.455L138.695 204.792C138.972 204.685 139.279 204.817 139.393 205.093Z" fill="#263238"/>
<path opacity="0.1" d="M139.393 205.093C139.658 205.746 140.133 206.908 140.519 207.762C140.645 208.045 140.531 208.371 140.266 208.51C138.273 209.552 134.812 210.463 133.668 210.745C133.439 210.802 133.21 210.701 133.084 210.494L131.754 208.284C131.573 207.982 131.699 207.58 132.019 207.455L138.695 204.792C138.972 204.685 139.279 204.817 139.393 205.093Z" fill="white"/>
<path d="M97.9333 60.502L98.1982 60.9102L98.5353 61.4063C98.7701 61.7392 98.9988 62.0846 99.2517 62.4174C99.7453 63.0894 100.251 63.7613 100.787 64.4082C101.846 65.7207 102.996 66.9453 104.182 68.1134C105.38 69.2626 106.638 70.3365 107.957 71.3036C109.281 72.2582 110.654 73.106 112.086 73.8345L110.322 73.5268C110.401 73.5644 110.491 73.577 110.672 73.5519C110.846 73.5268 111.099 73.4263 111.382 73.2379C111.948 72.8422 112.64 72.1828 113.26 71.3539C113.904 70.5438 114.506 69.5892 115.09 68.5907C115.668 67.611 116.234 66.4931 116.752 65.5135L116.854 65.3251C117.444 64.2072 118.793 63.7927 119.864 64.4082C120.647 64.854 121.068 65.727 121.008 66.5999C120.906 68.0945 120.683 69.4008 120.364 70.7949C120.033 72.1703 119.599 73.5393 118.979 74.9209C118.347 76.2837 117.558 77.6967 116.312 79.0218C115.68 79.6812 114.916 80.3155 113.989 80.843C113.068 81.3705 111.954 81.7348 110.81 81.8541C110.292 81.9106 109.793 81.8352 109.335 81.6594L109.04 81.5464C107.078 80.7865 105.181 79.857 103.405 78.7329C102.508 78.1865 101.654 77.5837 100.811 76.9682C99.9801 76.3339 99.1734 75.6745 98.3848 74.9837C96.8196 73.6021 95.3688 72.1012 94.0263 70.4998C93.3581 69.696 92.7079 68.8733 92.1059 68.0066C91.7989 67.5733 91.4979 67.1337 91.2089 66.6815L90.7755 65.9845L90.5588 65.6202L90.3059 65.1806C89.0538 62.9952 89.7461 60.1629 91.841 58.8629C93.8638 57.6069 96.4584 58.2286 97.7587 60.232L97.9333 60.502Z" fill="#FFC3BD"/>
<path d="M91.203 55.9742C95.8926 55.7167 99.1975 59.0828 105.549 66.2608C105.242 69.6144 98.9628 74.3432 98.9628 74.3432C98.9628 74.3432 85.2131 63.8933 91.203 55.9742Z" fill="#263238"/>
<path d="M100.377 63.0263C101.034 65.5006 101.864 68.6344 102.924 74.6695C103.911 79.7563 104.73 84.7991 105.958 93.2332L81.6431 99.3939C80.4692 92.1279 77.7722 84.1837 69.6633 69.2184C67.785 65.7455 69.2058 61.5944 72.7214 60.3008C73.6606 59.9554 74.6599 59.6099 75.7013 59.2897C79.7287 58.0525 83.0397 57.0665 86.742 56.4888C87.9701 56.3004 89.2463 56.1371 90.4804 56.0115C94.9112 55.5531 99.2034 58.5926 100.377 63.0263Z" fill="#263238"/>
<path d="M73.4498 46.127C75.2739 49.5872 78.0371 56.0808 76.3033 59.1392C76.3033 59.1392 79.5481 57.7576 87.7594 60.5585C89.1079 56.9412 87.338 56.3446 87.338 56.3446C83.0758 56.3822 82.245 53.3427 82.0584 50.3409L73.4498 46.127Z" fill="#FFC3BD"/>
<path d="M86.0438 60.0121C83.7742 60.9604 84.7615 66.2042 84.7615 66.2042C84.7615 66.2042 76.3937 62.0406 74.6359 59.4783C75.3703 58.8064 76.5442 57.7388 76.5442 57.7388C76.5442 57.7388 84.3401 58.9445 86.0438 60.0121Z" fill="#90C63E"/>
<path d="M88.1929 59.0511C88.1929 59.0511 91.534 60.0434 92.9667 62.838C92.2443 57.299 88.4337 56.0556 88.4337 56.0556C88.4337 56.0556 87.5668 55.6913 86.2303 56.2754C88.3373 56.828 88.1929 59.0511 88.1929 59.0511Z" fill="#90C63E"/>
<path opacity="0.2" d="M76.9657 47.8477L82.0646 50.3346C82.1068 51.0442 82.1911 51.7601 82.3476 52.4258C80.7643 52.5828 78.1577 51.4084 77.4955 49.8259C77.1584 49.0409 76.9537 48.2559 76.9657 47.8477Z" fill="black"/>
<path d="M68.6881 39.4641C71.1623 45.1727 72.0894 47.6407 76.0265 49.6817C81.9562 52.7527 88.1869 48.7523 87.4103 42.4911C86.712 36.8516 82.787 28.4615 76.4178 27.9843C70.145 27.507 66.2139 33.7493 68.6881 39.4641Z" fill="#FFC3BD"/>
<path opacity="0.2" d="M76.2974 37.7869C76.2974 37.7869 75.3221 37.5106 74.6418 38.0256C75.5629 38.0884 76.2974 37.7869 76.2974 37.7869Z" fill="black"/>
<path opacity="0.2" d="M76.3214 38.2078C76.3214 38.2078 75.4003 38.1513 74.9187 38.8044C75.7434 38.6599 76.3214 38.2078 76.3214 38.2078Z" fill="black"/>
<path opacity="0.2" d="M84.2377 35.6959C84.2377 35.6959 84.5868 35.1809 84.8939 35.4133C84.5507 35.7335 84.2377 35.6959 84.2377 35.6959Z" fill="black"/>
<path opacity="0.2" d="M84.3461 36.0789C84.3461 36.0789 84.623 35.6205 84.8638 36.0098C84.5869 36.2359 84.3461 36.0789 84.3461 36.0789Z" fill="black"/>
<path opacity="0.2" d="M80.662 31.1743C80.662 31.1743 77.4534 31.3439 75.9243 32.2482C78.7597 31.8651 80.662 31.1743 80.662 31.1743Z" fill="black"/>
<path d="M77.062 38.1641C77.2486 38.6539 77.652 38.9679 77.953 38.8611C78.254 38.7544 78.3563 38.2771 78.1637 37.7873C77.9771 37.2974 77.5737 36.9834 77.2727 37.0902C76.9717 37.1969 76.8754 37.6742 77.062 38.1641Z" fill="#263238"/>
<path d="M82.8351 36.3175C83.0217 36.8073 83.425 37.1213 83.726 37.0145C84.0331 36.9141 84.1294 36.4305 83.9367 35.9469C83.7501 35.4571 83.3468 35.1431 83.0458 35.2499C82.7448 35.3503 82.6485 35.8276 82.8351 36.3175Z" fill="#263238"/>
<path d="M82.9255 35.3189L83.9188 34.603C83.9128 34.603 83.6901 35.7146 82.9255 35.3189Z" fill="#263238"/>
<path d="M82.2811 37.2471C82.2811 37.2471 83.8824 39.0808 85.1406 39.803C84.7553 40.6132 83.5995 40.6885 83.5995 40.6885L82.2811 37.2471Z" fill="#ED847E"/>
<path d="M81.6131 43.4014C81.8719 43.3637 82.1428 43.3009 82.4258 43.2067C82.504 43.1816 82.5401 43.0937 82.51 43.0183C82.4799 42.9367 82.3957 42.8927 82.3174 42.9241C80.2706 43.615 78.7355 42.4406 78.7235 42.428C78.6573 42.3778 78.5669 42.3841 78.5188 42.4469C78.4706 42.5097 78.4887 42.6039 78.5549 42.6604C78.6031 42.6981 79.8432 43.6463 81.6131 43.4014Z" fill="#263238"/>
<path d="M82.7207 29.8178C81.908 26.8788 70.4821 23.946 67.8814 31.884C65.1724 32.8134 67.5142 42.6291 71.0359 43.6402C74.8586 44.7392 73.7269 37.4606 71.06 33.6361C73.1489 32.9578 75.1054 31.6014 75.5329 30.2072C78.8017 32.4366 83.5997 32.983 82.7207 29.8178Z" fill="#263238"/>
<path opacity="0.4" d="M82.7207 29.8178C81.908 26.8788 70.4821 23.946 67.8814 31.884C65.1724 32.8134 67.5142 42.6291 71.0359 43.6402C74.8586 44.7392 73.7269 37.4606 71.06 33.6361C73.1489 32.9578 75.1054 31.6014 75.5329 30.2072C78.8017 32.4366 83.5997 32.983 82.7207 29.8178Z" fill="white"/>
<path d="M68.6702 45.5369C69.6214 46.5417 70.7953 46.9625 71.7344 46.906C73.1551 46.8243 73.2334 45.0722 72.3123 43.6592C71.4816 42.3906 69.7478 40.896 68.5739 41.6684C67.4241 42.4283 67.5866 44.3877 68.6702 45.5369Z" fill="#FFC3BD"/>
<path d="M74.3291 35.407C74.4073 35.3756 74.4796 35.3191 74.5097 35.2375C75.0575 33.9878 76.2374 33.7554 76.2494 33.7554C76.424 33.724 76.5444 33.5607 76.5083 33.3974C76.4722 33.2342 76.3036 33.1274 76.123 33.1588C76.0628 33.1714 74.5819 33.4602 73.9016 35.0114C73.8354 35.1684 73.9137 35.3442 74.0822 35.407C74.1665 35.4384 74.2568 35.4322 74.3291 35.407Z" fill="#263238"/>
<path d="M84.4664 33.1274C84.5326 33.1023 84.5928 33.0458 84.6169 32.9767C84.6771 32.826 84.5989 32.6502 84.4484 32.5874C82.9012 31.9217 81.7634 32.6439 81.7153 32.6816C81.5828 32.7695 81.5467 32.9516 81.643 33.0897C81.7394 33.2279 81.926 33.2656 82.0644 33.1777C82.1066 33.1463 82.9975 32.5999 84.2316 33.1274C84.3099 33.1588 84.3942 33.1525 84.4664 33.1274Z" fill="#263238"/>
<path d="M79.5903 41.6304C78.2779 41.6304 76.8873 40.1797 76.4419 38.2957C76.1649 37.1276 76.2974 35.9847 76.8031 35.2436C77.1281 34.7726 77.5736 34.49 78.0973 34.4461C79.4579 34.3142 80.9448 35.8151 81.4083 37.7745C81.6853 38.9488 81.5528 40.0855 81.0471 40.8266C80.7221 41.2976 80.2766 41.5739 79.7528 41.6241C79.6987 41.6304 79.6445 41.6304 79.5903 41.6304ZM78.2599 34.7852C78.2117 34.7852 78.1696 34.7852 78.1214 34.7915C77.7 34.8291 77.3328 35.0552 77.0679 35.4446C76.6225 36.104 76.5081 37.1339 76.7609 38.2078C77.1883 40.0102 78.5248 41.3918 79.7167 41.2724C80.1381 41.2348 80.5053 41.0087 80.7702 40.6193C81.2157 39.9662 81.3301 38.93 81.0772 37.8561C80.6679 36.1228 79.4278 34.7852 78.2599 34.7852Z" fill="white"/>
<path d="M85.5742 39.1187C84.2618 39.1187 82.8712 37.668 82.4257 35.784C82.1488 34.6159 82.2813 33.4729 82.7869 32.7319C83.112 32.2546 83.5575 31.9783 84.0812 31.9343C85.4357 31.8025 86.9287 33.3034 87.3922 35.2627C87.6691 36.4371 87.5367 37.5738 87.031 38.3148C86.706 38.7858 86.2605 39.0684 85.7367 39.1124C85.6826 39.1124 85.6284 39.1187 85.5742 39.1187ZM84.2498 32.2735C84.2016 32.2735 84.1595 32.2735 84.1113 32.2797C83.6899 32.3174 83.3227 32.5435 83.0578 32.9329C82.6124 33.5923 82.498 34.6222 82.7508 35.6961C83.1782 37.4984 84.5087 38.88 85.7066 38.7607C86.128 38.723 86.4952 38.497 86.7601 38.1076C87.2056 37.4482 87.32 36.4183 87.0672 35.3444C86.6518 33.6111 85.4117 32.2735 84.2498 32.2735Z" fill="white"/>
<path d="M81.0592 37.3728C81.0231 37.3728 80.9809 37.3603 80.9508 37.3289C80.8786 37.2661 80.8726 37.153 80.9328 37.084C80.9809 37.0274 82.0585 35.7212 82.9073 36.3052C82.9856 36.3555 83.0036 36.4685 82.9555 36.5502C82.9073 36.6318 82.799 36.6506 82.7207 36.6004C82.1308 36.1922 81.1976 37.3038 81.1856 37.3163C81.1495 37.3477 81.1013 37.3728 81.0592 37.3728Z" fill="white"/>
<path d="M77.1462 37.1656L78.1395 36.4497C78.1395 36.4497 77.9168 37.5613 77.1462 37.1656Z" fill="#263238"/>
<path d="M118.6 59.0828L117.197 60.3702C116.667 60.8538 116.403 61.576 116.475 62.3045L116.812 65.7082C116.944 67.071 117.703 68.2768 118.847 68.955L119.551 69.3695C122.013 67.3976 123.283 63.3783 123.283 63.3783L123.765 62.2731C124.199 61.2871 123.831 60.1881 122.922 59.7422L120.839 58.7123C120.123 58.3543 119.232 58.4988 118.6 59.0828Z" fill="#FFC3BD"/>
<path d="M75.822 69.3005L76.2253 74.4626C76.3577 76.2022 76.5263 77.9292 76.6828 79.6625C76.8514 81.3895 77.044 83.1039 77.2487 84.8121C77.4714 86.5077 77.7122 88.1908 77.9952 89.8424L76.9658 87.9082C77.038 88.0526 77.4173 88.3917 77.8627 88.7183C78.3142 89.0511 78.8801 89.3777 79.4701 89.6917C80.656 90.3134 81.9804 90.9226 83.3349 91.4627C84.6894 92.0279 86.0921 92.5491 87.5068 93.0703L91.7689 94.609L91.8231 94.6278C92.979 95.0423 93.593 96.3611 93.1957 97.5731C92.8766 98.5277 92.0158 99.1306 91.1007 99.1306C89.4573 99.1306 87.8981 99.0238 86.3028 98.8668C84.7135 98.7035 83.1242 98.4712 81.5229 98.1572C79.9216 97.8243 78.3082 97.4475 76.6527 96.8509C75.822 96.5495 74.9792 96.2166 74.0942 95.7645C73.2093 95.2998 72.2882 94.7534 71.2648 93.7611C70.8073 93.3153 70.4943 92.7626 70.3317 92.1786L70.2354 91.8269C69.7297 89.9869 69.2842 88.1531 68.9291 86.3193C68.5618 84.4855 68.2488 82.6581 67.9899 80.8243C67.719 78.9968 67.5204 77.163 67.3398 75.3293C67.1712 73.4829 67.0388 71.6869 66.9906 69.7652C66.9184 67.2155 68.8448 65.0928 71.2889 65.0175C73.6487 64.9484 75.6293 66.8199 75.822 69.2439V69.3005Z" fill="#FFC3BD"/>
<path d="M72.5048 60.3887C68.6941 62.0278 67.3998 63.6857 66.0995 72.8043C69.0613 76.9365 77.7121 76.9365 77.7121 76.9365C77.7121 76.9365 77.0679 65.0861 72.5048 60.3887Z" fill="#263238"/>
<path d="M198.982 59.1283L195.861 56.708L195.484 57.2372L198.605 59.6575L198.982 59.1283Z" fill="#90C63E"/>
<path d="M193.309 54.7327L185.289 48.5132L184.912 49.0424L192.932 55.2619L193.309 54.7327Z" fill="#90C63E"/>
<path d="M157.622 38.8801L93.6049 98.7351L165.544 95.2999L237.483 91.8647L168.488 38.3652C165.201 35.8155 160.662 36.0353 157.622 38.8801Z" fill="#90C63E"/>
<path opacity="0.5" d="M157.622 38.8801L93.6049 98.7351L165.544 95.2999L237.483 91.8647L168.488 38.3652C165.201 35.8155 160.662 36.0353 157.622 38.8801Z" fill="white"/>
<path d="M238.259 188.457L101.286 195.001C98.0355 195.158 95.2542 192.508 95.1037 189.117L91.281 101.988C91.1305 98.5966 93.671 95.6952 96.9218 95.5382L233.895 88.9944C237.146 88.8374 239.927 91.4876 240.077 94.8788L243.9 182.008C244.051 185.399 241.51 188.3 238.259 188.457Z" fill="#90C63E"/>
<path opacity="0.8" d="M238.259 188.457L101.286 195.001C98.0355 195.158 95.2542 192.508 95.1037 189.117L91.281 101.988C91.1305 98.5966 93.671 95.6952 96.9218 95.5382L233.895 88.9944C237.146 88.8374 239.927 91.4876 240.077 94.8788L243.9 182.008C244.051 185.399 241.51 188.3 238.259 188.457Z" fill="white"/>
<path opacity="0.2" d="M166.272 155.249L102.575 100.405C100.582 98.691 101.659 95.3123 104.242 95.1867L165.405 92.2665L226.568 89.3463C229.151 89.2207 230.524 92.4863 228.687 94.3829L170.059 155.073C169.029 156.134 167.392 156.216 166.272 155.249Z" fill="#90C63E"/>
<path d="M200.809 150.872L107.559 119.227C104.621 118.228 102.996 114.906 103.953 111.835L123.271 49.8765C124.228 46.8118 127.413 45.1162 130.357 46.1148L223.6 77.7598C226.538 78.7583 228.164 82.0805 227.206 85.1514L207.882 147.11C206.931 150.175 203.747 151.87 200.809 150.872Z" fill="#90C63E"/>
<path d="M200.141 150.646L106.897 119.001C103.959 118.002 102.334 114.68 103.291 111.609L122.609 49.6504C123.566 46.5858 126.751 44.8902 129.694 45.8887L222.938 77.5337C225.876 78.5323 227.501 81.8544 226.544 84.9253L207.226 146.884C206.263 149.949 203.078 151.644 200.141 150.646Z" fill="#90C63E"/>
<path opacity="0.2" d="M200.141 150.646L106.897 119.001C103.959 118.002 102.334 114.68 103.291 111.609L122.609 49.6504C123.566 46.5858 126.751 44.8902 129.694 45.8887L222.938 77.5337C225.876 78.5323 227.501 81.8544 226.544 84.9253L207.226 146.884C206.263 149.949 203.078 151.644 200.141 150.646Z" fill="white"/>
<path opacity="0.2" d="M142.686 131.153L127.545 126.009L181.099 63.3408L196.246 68.4779L142.686 131.153Z" fill="white"/>
<path opacity="0.2" d="M156.483 135.831L147.646 132.836L201.206 70.1611L210.043 73.163L156.483 135.831Z" fill="white"/>
<path d="M159.522 55.7799L158.852 55.5527L135.929 129.102L136.599 129.329L159.522 55.7799Z" fill="white"/>
<path d="M217.053 116.358L217.271 115.66L112.789 80.2107L112.571 80.9094L217.053 116.358Z" fill="white"/>
<path d="M147.725 92.6809C147.634 92.6809 147.55 92.6243 147.514 92.5427C146.039 89.2708 143.065 84.5796 139.917 79.6121C134.541 71.1278 129.46 63.1145 131.049 61.017C131.579 60.3199 132.705 60.3136 134.505 61.0044C142.505 64.0565 149.669 80.8242 147.953 92.4736C147.935 92.5804 147.857 92.662 147.755 92.6809C147.749 92.6809 147.737 92.6809 147.725 92.6809ZM132.319 60.9793C131.892 60.9793 131.591 61.0924 131.416 61.3184C130.038 63.1396 135.492 71.7433 140.308 79.3421C143.24 83.9705 146.021 88.3602 147.598 91.607C148.862 80.1899 142.006 64.3831 134.348 61.4629C133.511 61.1426 132.825 60.9793 132.319 60.9793Z" fill="#90C63E"/>
<path d="M118.949 112.746C118.323 112.746 117.751 112.664 117.245 112.495C115.415 111.879 114.53 110.215 114.608 107.534C114.675 105.317 115.981 103.094 118.491 100.921C125.204 95.0991 139.429 90.8601 147.761 92.1977C147.839 92.2103 147.905 92.2668 147.941 92.3422C147.971 92.4175 147.965 92.5054 147.923 92.5745C142.926 100.374 126.721 112.746 118.949 112.746ZM144.347 92.4364C136.058 92.4364 124.59 96.2672 118.792 101.297C116.39 103.382 115.138 105.486 115.078 107.552C115.006 109.989 115.782 111.496 117.39 112.036C123.795 114.178 141.855 100.783 147.321 92.631C146.394 92.4929 145.395 92.4364 144.347 92.4364Z" fill="#90C63E"/>
<path d="M154.081 114.944C154.033 114.944 153.985 114.944 153.931 114.944C151.673 114.875 149.916 114.064 148.7 112.538C145.467 108.488 146.406 99.9533 147.538 92.2665C147.556 92.1597 147.634 92.0781 147.736 92.0593C147.833 92.0404 147.935 92.0969 147.983 92.1974C148.982 94.4143 150.132 96.7316 151.246 98.9799C154.629 105.8 157.549 111.684 156.164 113.977C155.773 114.623 155.075 114.944 154.081 114.944ZM147.887 93.1331C146.827 100.5 146.063 108.469 149.061 112.224C150.205 113.656 151.8 114.385 153.949 114.454C154.858 114.485 155.448 114.24 155.767 113.719C157.007 111.659 154.009 105.612 150.831 99.2059C149.831 97.2026 148.808 95.1365 147.887 93.1331Z" fill="#90C63E"/>
<path d="M154.822 93.0833C152.414 93.0833 149.964 92.9074 147.736 92.5495C147.664 92.5369 147.604 92.4929 147.568 92.4301C147.532 92.3673 147.526 92.2857 147.556 92.2166C148.82 88.8505 153.004 85.6037 157.495 84.4985C161.396 83.5376 164.93 84.3101 167.434 86.6651C168.704 87.8645 168.644 88.838 168.367 89.4534C167.265 91.8524 161.179 93.0833 154.822 93.0833ZM148.098 92.1098C156.73 93.4287 166.675 92.0031 167.934 89.2462C168.241 88.5742 167.964 87.8331 167.115 87.0356C164.725 84.7873 161.342 84.0589 157.597 84.982C153.371 86.0182 149.44 88.9887 148.098 92.1098Z" fill="#90C63E"/>
<path d="M144.714 120.175C144.13 120.175 143.474 119.629 142.734 118.511C138.947 112.834 141.56 98.823 147.64 92.2038C147.712 92.1285 147.821 92.1033 147.917 92.1536C148.007 92.2038 148.062 92.3106 148.043 92.4111C147.586 95.168 147.466 99.5326 147.345 104.148C147.098 113.437 146.803 119.566 144.997 120.131C144.901 120.162 144.805 120.175 144.714 120.175ZM147.46 93.1333C141.873 99.8215 139.537 112.871 143.113 118.228C143.829 119.296 144.425 119.792 144.853 119.66C146.466 119.158 146.683 111.176 146.87 104.136C146.984 99.9282 147.092 95.9279 147.46 93.1333Z" fill="white"/>
<path d="M168.62 100.688C161.841 100.688 152.065 96.9702 147.646 92.5491C147.586 92.4926 147.562 92.4047 147.58 92.323C147.598 92.2414 147.652 92.1723 147.724 92.1409C154.762 89.2898 172.424 89.1516 175.778 93.7674C176.693 95.0297 176.542 96.5244 175.332 98.2074C174.333 99.5953 172.539 100.412 170.004 100.625C169.553 100.669 169.095 100.688 168.62 100.688ZM148.242 92.4675C153.028 97.0016 163.437 100.701 169.956 100.148C172.358 99.9407 174.038 99.1934 174.947 97.9248C176.018 96.4364 176.169 95.1365 175.392 94.0689C172.274 89.7608 155.237 89.8612 148.242 92.4675Z" fill="white"/>
<path d="M147.724 92.6812C147.688 92.6812 147.652 92.675 147.616 92.6561C147.526 92.6059 147.471 92.4991 147.49 92.3986C148.423 86.8094 151.577 75.3484 156.845 71.976C158.301 71.0465 159.806 70.8205 161.324 71.304C162.287 71.6117 162.865 72.1707 163.045 72.9619C163.816 76.2904 157.049 83.1921 151.613 88.7374C150.229 90.1504 148.922 91.4817 147.881 92.6121C147.851 92.6561 147.791 92.6812 147.724 92.6812ZM159.782 71.5427C158.873 71.5427 157.976 71.8253 157.097 72.3905C152.793 75.1411 149.47 84.1592 148.098 91.689C149.037 90.6905 150.144 89.5601 151.3 88.3794C156.369 83.2109 163.316 76.1271 162.606 73.0687C162.461 72.447 162.004 72.0262 161.197 71.7625C160.721 71.618 160.252 71.5427 159.782 71.5427Z" fill="white"/>
<path d="M143.077 93.8934C141.464 93.8934 139.754 93.5732 138.201 92.9263C135.299 91.7143 133.373 89.5728 132.783 86.8912C132.482 85.5096 132.957 84.8942 133.409 84.6304C135.793 83.2174 143.282 87.6511 147.893 92.2606C147.941 92.3109 147.971 92.3862 147.965 92.4616C147.959 92.537 147.923 92.5998 147.863 92.6437C146.653 93.4727 144.931 93.8934 143.077 93.8934ZM134.553 84.8502C134.179 84.8502 133.872 84.913 133.638 85.0512C133.18 85.3212 133.048 85.9052 133.24 86.7782C133.794 89.2965 135.618 91.3186 138.375 92.4679C141.464 93.7553 145.166 93.7113 147.345 92.3925C143.113 88.2477 137.226 84.8502 134.553 84.8502Z" fill="white"/>
<path opacity="0.2" d="M160.216 136.277L101.28 195.001L169.77 191.729L238.259 188.458L174.429 135.599C170.191 132.088 164.129 132.377 160.216 136.277Z" fill="#90C63E"/>
<path d="M162.233 138.017L101.286 195.002L169.776 191.73L238.265 188.458L172.581 137.521C169.451 135.103 165.128 135.31 162.233 138.017Z" fill="#90C63E"/>
<path opacity="0.8" d="M162.233 138.017L101.286 195.002L169.776 191.73L238.265 188.458L172.581 137.521C169.451 135.103 165.128 135.31 162.233 138.017Z" fill="white"/>
<path d="M98.4089 97.397L97.3494 95.7893C96.9521 95.1864 96.3019 94.8222 95.5975 94.8096L92.3166 94.7468C91.0043 94.7217 89.7642 95.3622 88.9876 96.4613L88.506 97.1458C90.0832 99.9341 93.7614 101.73 93.7614 101.73L94.7547 102.364C95.6397 102.93 96.7353 102.685 97.2651 101.799L98.4932 99.7645C98.9206 99.0612 98.8845 98.1192 98.4089 97.397Z" fill="#FFC3BD"/>
</svg>
