<svg width="16" height="17" viewBox="0 0 16 17" fill="none" xmlns="http://www.w3.org/2000/svg">
<path d="M9.63244 9.31065V8.32052C9.83659 8.27979 10.0403 8.21744 10.2395 8.13484C10.4391 8.05125 10.6253 7.94914 10.7995 7.8335L11.4915 8.51543L12.3998 7.60418L11.7074 6.92219C11.9407 6.56797 12.1031 6.17189 12.1857 5.75588L13.1256 5.7501V4.46743L12.1773 4.47322C12.1349 4.27006 12.074 4.06856 11.9898 3.87007C11.9057 3.67124 11.8036 3.48612 11.6869 3.31404L12.3423 2.65739L11.4249 1.7542L10.7703 2.4106C10.4145 2.17884 10.0153 2.01711 9.59827 1.93531L9.60366 1H8.30499L8.30742 1.94266C8.10243 1.9852 7.89869 2.04655 7.69912 2.12972C7.49954 2.21316 7.31372 2.31519 7.1408 2.4305L6.46292 1.76117L5.55504 2.67377L6.2321 3.34221C5.99876 3.69634 5.83627 4.09228 5.75418 4.50786L4.79297 4.50959V5.79351L5.7621 5.79004C5.80459 5.99275 5.86626 6.19597 5.95001 6.39377C6.03417 6.59284 6.13625 6.77772 6.25292 6.94892L5.55794 7.64077L6.47582 8.54233L7.16912 7.85264C7.52495 8.0858 7.9241 8.24694 8.34158 8.32842L8.34202 9.3102C8.77194 9.31346 9.63243 9.31064 9.63243 9.31064L9.63244 9.31065Z" stroke="#90C63E" stroke-linecap="round"/>
<path d="M8.96723 6.22315C9.58555 6.22315 10.0868 5.7222 10.0868 5.10425C10.0868 4.4863 9.58555 3.98535 8.96723 3.98535C8.34891 3.98535 7.84766 4.4863 7.84766 5.10425C7.84766 5.7222 8.34891 6.22315 8.96723 6.22315Z" stroke="#90C63E" stroke-linecap="square"/>
<g clip-path="url(#clip0)">
<path d="M14.9841 11.9193C14.9647 11.3002 14.8324 10.9442 14.5551 10.765C13.6389 10.1726 12.0813 10.8473 11.1175 11.3679C10.9333 11.117 10.6169 10.9802 10.285 11.0241L8.99672 11.1956C8.77615 11.225 8.54734 11.1923 8.33503 11.1012C8.08697 10.9947 7.62516 10.7966 6.88406 10.8813C5.55297 11.0333 5.59084 11.1422 5.22412 11.3188C5.13987 11.3568 4.85169 11.4036 4.52075 11.4374C4.37503 11.1085 4.04562 10.8782 3.66328 10.8782H1.95312C1.43619 10.8782 1.01562 11.2988 1.01562 11.8157V16.0628C1.01562 16.5798 1.43619 17.0003 1.95312 17.0003H3.66328C4.09375 17.0003 4.45716 16.7086 4.56675 16.3125L5.26581 16.1853C5.46259 16.1564 5.21781 16.1543 9.42422 16.4423C10.5953 16.5225 11.7213 16.0749 12.4625 15.3068C14.7982 12.9169 14.4037 13.3195 14.4494 13.2738C14.8098 12.8999 14.9997 12.4189 14.9841 11.9193ZM3.66325 16.0628H1.95312V11.8158H3.66328V16.0628H3.66325ZM13.7755 12.6221C11.4397 15.012 11.8345 14.6091 11.7888 14.6548C11.2172 15.2479 10.357 15.5665 9.48819 15.507L5.70891 15.2485C5.30194 15.2021 5.05625 15.2707 4.60078 15.3535V12.3726C4.96391 12.337 5.40269 12.2734 5.63009 12.1639C5.97841 11.9963 5.85491 11.9425 6.99044 11.8128C7.48431 11.7563 7.77378 11.8806 7.96537 11.9628C8.33297 12.1206 8.73231 12.1766 9.12044 12.1249L10.3689 11.9588C10.4142 12.1153 10.4251 12.3273 10.3658 12.4592C10.3358 12.5261 10.2909 12.5666 10.2158 12.5947C9.69631 12.789 9.69631 12.789 7.46656 13.1112C7.21034 13.1482 7.03266 13.386 7.06969 13.6422C7.10684 13.8993 7.34547 14.0761 7.60066 14.0391C9.8865 13.7087 9.93019 13.7024 10.5442 13.4728C11.0063 13.3 11.3134 12.8946 11.3412 12.3142C12.2076 11.8105 13.485 11.2881 13.9937 11.5236C14.0107 11.5774 14.0393 11.7025 14.047 11.9487C14.0547 12.1928 13.9582 12.4319 13.7755 12.6221Z" fill="#90C63E" stroke="#90C63E" stroke-width="0.2"/>
</g>
<defs>
<clipPath id="clip0">
<rect width="16" height="16" fill="white" transform="translate(0 1)"/>
</clipPath>
</defs>
</svg>
