<svg width="260" height="239" viewBox="0 0 260 239" fill="none" xmlns="http://www.w3.org/2000/svg">
<path d="M78.8821 160.848H38.4336V237.611H78.8821V160.848Z" fill="#E0E0E0"/>
<path d="M78.881 160.848H59.918V237.611H78.881V160.848Z" fill="#EBEBEB"/>
<path d="M50.5577 168.068H46.918V176.906H50.5577V168.068Z" fill="#F5F5F5"/>
<path d="M50.5577 202.648H46.918V211.486H50.5577V202.648Z" fill="#F5F5F5"/>
<path d="M49.1764 180.511C55.1094 180.511 59.9191 180.45 59.9191 180.375C59.9191 180.301 55.1094 180.24 49.1764 180.24C43.2433 180.24 38.4336 180.301 38.4336 180.375C38.4336 180.45 43.2433 180.511 49.1764 180.511Z" fill="#F5F5F5"/>
<path d="M50.5577 185.49H46.918V194.328H50.5577V185.49Z" fill="#F5F5F5"/>
<path d="M49.1764 197.933C55.1094 197.933 59.9191 197.872 59.9191 197.797C59.9191 197.723 55.1094 197.662 49.1764 197.662C43.2433 197.662 38.4336 197.723 38.4336 197.797C38.4336 197.872 43.2433 197.933 49.1764 197.933Z" fill="#F5F5F5"/>
<path d="M67.5889 168.068H63.9492V176.906H67.5889V168.068Z" fill="#E0E0E0"/>
<path d="M75.4737 168.068H71.8398V176.906H75.4737V168.068Z" fill="#E0E0E0"/>
<path d="M67.5889 184.838H63.9492V193.676H67.5889V184.838Z" fill="#E0E0E0"/>
<path d="M75.4737 184.838H71.8398V193.676H75.4737V184.838Z" fill="#E0E0E0"/>
<path d="M67.5889 201.602H63.9492V210.439H67.5889V201.602Z" fill="#E0E0E0"/>
<path d="M75.4737 201.602H71.8398V210.439H75.4737V201.602Z" fill="#E0E0E0"/>
<path d="M81.923 158.989H35.3945V160.912H81.923V158.989Z" fill="#E0E0E0"/>
<path d="M79.1651 161.094C79.1651 161.171 70.1217 161.229 58.9732 161.229C47.8188 161.229 38.7812 161.171 38.7812 161.094C38.7812 161.018 47.8188 160.959 58.9732 160.959C70.1275 160.959 79.1651 161.018 79.1651 161.094Z" fill="#EBEBEB"/>
<path d="M48.0645 189.636H11.8555V237.399H48.0645V189.636Z" fill="#EBEBEB"/>
<path d="M48.0654 189.636H31.0898V237.399H48.0654V189.636Z" fill="#E0E0E0"/>
<path d="M22.7028 196.104H19.4453V204.012H22.7028V196.104Z" fill="#F5F5F5"/>
<path d="M22.7028 227.062H19.4453V234.97H22.7028V227.062Z" fill="#F5F5F5"/>
<path d="M21.4693 207.276C26.7788 207.276 31.0831 207.204 31.0831 207.117C31.0831 207.029 26.7788 206.958 21.4693 206.958C16.1597 206.958 11.8555 207.029 11.8555 207.117C11.8555 207.204 16.1597 207.276 21.4693 207.276Z" fill="#F5F5F5"/>
<path d="M22.7028 211.697H19.4453V219.606H22.7028V211.697Z" fill="#F5F5F5"/>
<path d="M21.4693 222.869C26.7788 222.869 31.0831 222.798 31.0831 222.711C31.0831 222.623 26.7788 222.552 21.4693 222.552C16.1597 222.552 11.8555 222.623 11.8555 222.711C11.8555 222.798 16.1597 222.869 21.4693 222.869Z" fill="#F5F5F5"/>
<path d="M37.9528 196.104H34.6953V204.012H37.9528V196.104Z" fill="#F5F5F5"/>
<path d="M45.0114 196.104H41.7539V204.012H45.0114V196.104Z" fill="#F5F5F5"/>
<path d="M37.9528 211.109H34.6953V219.018H37.9528V211.109Z" fill="#F5F5F5"/>
<path d="M45.0114 211.109H41.7539V219.018H45.0114V211.109Z" fill="#F5F5F5"/>
<path d="M37.9528 226.121H34.6953V234.03H37.9528V226.121Z" fill="#F5F5F5"/>
<path d="M45.0114 226.121H41.7539V234.03H45.0114V226.121Z" fill="#F5F5F5"/>
<path d="M50.7867 187.972H9.13281V189.695H50.7867V187.972Z" fill="#E0E0E0"/>
<path d="M48.3182 189.859C48.3182 189.947 40.2273 190.018 30.2431 190.018C20.2589 190.018 12.168 189.947 12.168 189.859C12.168 189.771 20.2589 189.701 30.2431 189.701C40.2273 189.695 48.3182 189.771 48.3182 189.859Z" fill="#EBEBEB"/>
<path d="M30.9957 10.0962C30.9957 10.0962 25.2333 11.8308 30.5488 24.2199C35.8643 36.6032 39.7098 42.8125 39.7098 42.8125C39.7098 42.8125 40.6095 45.6643 38.2398 45.9407C35.8702 46.217 30.7722 45.0528 29.5374 47.8517C28.2615 50.7505 30.2313 53.6964 34.4413 56.4423C38.6514 59.1883 47.6596 65.5505 48.4769 66.1267C49.2766 66.6971 50.0233 68.0436 48.4416 68.4905C46.8599 68.9373 35.1763 69.3842 35.7173 74.9114C36.2583 80.4386 49.2531 86.1657 50.6584 86.8184C52.0696 87.4711 52.3695 88.1061 52.1989 88.8941C52.0284 89.682 48.0888 89.4585 44.7725 89.7173C41.4562 89.9819 37.6577 90.8639 38.2398 94.0273C38.8219 97.1907 46.2719 104.247 65.2996 107.393L74.2137 108.275L79.5762 101.054C90.1073 84.8957 89.9368 74.6351 87.9905 72.0714C86.0501 69.5077 82.8338 71.7127 80.3994 73.9824C77.9651 76.2521 75.472 79.3038 74.7781 78.8981C74.0843 78.4923 73.8197 77.8397 74.2901 76.3579C74.7605 74.8762 79.3116 61.4286 75.6014 57.2949C71.8911 53.1613 63.6826 61.4756 62.2831 62.34C60.8837 63.2043 60.3957 61.7402 60.5133 60.77C60.6367 59.7822 62.0303 48.8395 62.8476 43.8768C63.665 38.9141 62.8241 35.4684 59.8253 34.457C56.9324 33.4809 54.3452 38.0262 52.54 39.5844C50.7348 41.1426 49.2413 38.5554 49.2413 38.5554C49.2413 38.5554 47.2539 31.5288 41.7149 19.2455C36.1701 6.96214 30.8839 10.1373 30.8839 10.1373" fill="#EBEBEB"/>
<path d="M74.5424 110.409C70.5087 101.371 63.6056 85.1835 57.608 71.3184C51.6104 57.4593 46.1714 44.9172 42.1847 35.8561C40.1914 31.3344 38.5744 27.677 37.4513 25.131C36.8986 23.8727 36.4635 22.8907 36.1636 22.2145C36.0225 21.8852 35.9167 21.6324 35.8343 21.456C35.7638 21.2855 35.7344 21.1914 35.7344 21.1914C35.7344 21.1914 35.7814 21.2737 35.8637 21.4442C35.9461 21.6206 36.0637 21.8735 36.2165 22.1969C36.5282 22.8672 36.9751 23.8433 37.5513 25.0898C38.7038 27.6065 40.3502 31.258 42.367 35.7797C46.4007 44.8172 51.8691 57.3534 57.8667 71.2126C63.8643 85.0776 70.738 101.271 74.7247 110.332" fill="#E0E0E0"/>
<path d="M36.6056 49.7632C36.6115 49.7456 36.829 49.822 37.2171 49.9808C37.6052 50.1337 38.1579 50.3748 38.84 50.6746C40.1983 51.2803 42.0564 52.1623 44.0908 53.1678C46.09 54.1732 47.9011 55.0788 49.2829 55.7726C49.9061 56.0842 50.4353 56.343 50.8587 56.5546C51.235 56.7369 51.4349 56.8486 51.4291 56.8663C51.4232 56.8839 51.2056 56.8075 50.8175 56.6546C50.4295 56.5017 49.8767 56.2606 49.2005 55.9549C47.8482 55.3375 46.0018 54.432 43.9674 53.4206C41.9623 52.4328 40.1454 51.539 38.7577 50.8569C38.1285 50.5512 37.5993 50.2924 37.176 50.0866C36.7996 49.8926 36.5997 49.7809 36.6056 49.7632Z" fill="#E0E0E0"/>
<path d="M55.7559 47.5978C53.6518 52.3873 52.0038 56.2954 52.0752 56.3268C52.1466 56.3581 53.9101 52.5008 56.0143 47.7113C58.1185 42.9218 59.7664 39.0137 59.695 38.9823C59.6237 38.951 57.8601 42.8082 55.7559 47.5978Z" fill="#E0E0E0"/>
<path d="M60.321 78.034C60.3092 78.0223 60.4504 77.8341 60.7208 77.5048C61.0325 77.1344 61.4147 76.6758 61.8733 76.1289C62.8435 74.9647 64.1842 73.3536 65.5895 71.519C67.0007 69.6844 68.2237 67.9851 69.0998 66.7444C69.5114 66.1623 69.8584 65.6684 70.1347 65.2744C70.3817 64.9275 70.5287 64.7452 70.5404 64.7511C70.5522 64.757 70.4405 64.9687 70.2229 65.3332C70.0053 65.6978 69.6761 66.2152 69.2586 66.8503C68.4236 68.1204 67.2241 69.8432 65.807 71.6836C64.3958 73.5241 63.0317 75.1234 62.0203 76.2524C61.5146 76.8169 61.0972 77.2696 60.7973 77.5754C60.5092 77.8812 60.3386 78.0458 60.321 78.034Z" fill="#E0E0E0"/>
<path d="M45.0236 75.1756C45.0294 75.1579 45.2411 75.1756 45.6351 75.2285C46.082 75.2932 46.6288 75.3755 47.2815 75.4696C48.6692 75.6871 50.5802 75.9988 52.6852 76.3692C54.7961 76.7338 56.7012 77.0807 58.0772 77.3453C58.7181 77.4746 59.2649 77.5864 59.7059 77.6746C60.0881 77.7569 60.2998 77.8157 60.2939 77.8333C60.288 77.851 60.0764 77.8333 59.6824 77.7804C59.2355 77.7157 58.6887 77.6334 58.036 77.5393C56.6483 77.3218 54.7373 77.0101 52.6264 76.6397C50.5155 76.2751 48.6104 75.9282 47.2344 75.6636C46.5935 75.5342 46.0467 75.4225 45.6057 75.3343C45.2294 75.2461 45.0177 75.1932 45.0236 75.1756Z" fill="#E0E0E0"/>
<path d="M49.8712 95.2566C49.8771 95.239 50.1534 95.2625 50.6532 95.3272C51.2001 95.4036 51.9115 95.5095 52.7641 95.6271C54.5399 95.8917 56.9977 96.2798 59.7025 96.7208C62.4073 97.1618 64.8593 97.5792 66.6292 97.8968C67.4759 98.0555 68.1756 98.1849 68.7225 98.2848C69.2164 98.3848 69.4869 98.4436 69.481 98.4671C69.4751 98.4906 69.1987 98.4612 68.7048 98.3966C68.158 98.3201 67.4465 98.2202 66.5939 98.0967C64.8181 97.8321 62.3603 97.444 59.6555 97.003C56.9507 96.562 54.4987 96.1445 52.7289 95.827C51.8821 95.6682 51.1824 95.5389 50.6356 95.4389C50.1358 95.339 49.8653 95.2802 49.8712 95.2566Z" fill="#E0E0E0"/>
<path d="M69.0286 98.261C69.0109 98.2492 69.1873 98.0081 69.5166 97.5789C69.8753 97.1144 70.3516 96.5087 70.916 95.7796C72.0979 94.2567 73.7208 92.1516 75.4436 89.7761C77.1724 87.4006 78.6835 85.2132 79.7595 83.6198C80.277 82.8554 80.7121 82.2203 81.0414 81.7323C81.3472 81.2854 81.5236 81.0443 81.5353 81.0561C81.553 81.0678 81.406 81.3266 81.1296 81.7911C80.8532 82.2556 80.4416 82.9142 79.9183 83.7256C78.8776 85.3485 77.3958 87.5594 75.6612 89.9349C73.9325 92.3163 72.2802 94.4037 71.063 95.8972C70.4515 96.644 69.9458 97.2378 69.593 97.6436C69.2461 98.0552 69.0462 98.2727 69.0286 98.261Z" fill="#E0E0E0"/>
<path d="M202.883 133.276C190.97 124.956 188.271 109.509 188.742 95.6261C188.818 93.3094 188.565 90.8633 189.671 88.8288C190.776 86.7944 193.346 85.4067 195.421 86.3828C197.144 87.1942 197.891 89.1934 198.855 90.8516C200.137 93.0566 202.042 94.8794 204.288 96.0436C205.764 96.808 207.593 97.2784 209.045 96.4729C211.044 95.3674 211.28 92.6097 211.268 90.3047C211.238 86.0064 211.215 81.714 211.186 77.4158C211.174 75.1108 211.162 72.7588 211.879 70.5714C212.597 68.3841 214.178 66.3496 216.372 65.7381C218.565 65.1266 221.276 66.3908 221.74 68.6428C221.934 69.5836 221.74 70.5538 221.805 71.5123C221.869 72.4707 222.316 73.5291 223.222 73.7937C224.139 74.0642 225.062 73.4115 225.75 72.7353C228.132 70.4068 229.743 67.408 231.254 64.4269C232.765 61.4457 234.229 58.394 236.387 55.8538C238.545 53.3137 241.532 51.3027 244.831 51.1145C248.135 50.9264 251.652 52.9667 252.487 56.2066C253.322 59.4583 251.428 62.7511 249.364 65.3853C246.301 69.2896 242.685 72.7412 238.651 75.5989C237.922 76.1163 237.134 76.669 236.858 77.5275C236.358 79.0622 237.81 80.591 239.333 81.0967C241.05 81.667 242.914 81.4906 244.713 81.7023C246.513 81.914 248.459 82.7078 249.135 84.4071C250.082 86.765 248.106 89.2346 246.172 90.8516C242.291 94.0915 237.857 96.6493 233.124 98.3839C231.43 99.0071 229.643 99.5481 228.279 100.742C226.909 101.935 226.085 104.005 226.915 105.628C227.744 107.251 229.86 107.774 231.636 107.445C233.412 107.116 234.999 106.151 236.693 105.51C239.862 104.317 243.949 104.534 245.977 107.269C247.312 109.068 247.43 111.573 246.754 113.719C246.077 115.865 244.713 117.711 243.261 119.417C238.186 125.373 231.683 130.171 224.333 132.717C216.995 135.257 210.186 135.951 202.883 133.276Z" fill="#F5F5F5"/>
<path d="M202.699 143.572C203.205 138.074 204.41 131.577 206.468 124.574C208.515 117.565 211.39 110.073 214.665 102.335C215.494 100.407 216.306 98.4958 217.111 96.6142C217.917 94.7384 218.722 92.8804 219.616 91.1105C221.392 87.559 223.373 84.2838 225.349 81.2321C227.325 78.1803 229.312 75.3521 231.188 72.7237C233.069 70.0953 234.869 67.6845 236.603 65.5501C240.061 61.2753 243.254 58.1648 245.529 56.1186C246.664 55.0896 247.575 54.3252 248.199 53.8077C248.499 53.5667 248.734 53.3726 248.91 53.2315C249.075 53.1021 249.157 53.0433 249.163 53.0492C249.169 53.0551 249.092 53.1315 248.94 53.2668C248.769 53.4197 248.546 53.6196 248.257 53.8783C247.652 54.4134 246.764 55.2013 245.647 56.2421C243.406 58.3236 240.261 61.4576 236.844 65.7441C235.127 67.8786 233.346 70.3011 231.482 72.9295C229.618 75.5638 227.648 78.392 225.684 81.4437C223.72 84.4955 221.756 87.7648 219.998 91.2928C219.11 93.0568 218.316 94.8972 217.511 96.7788C216.705 98.6604 215.894 100.566 215.065 102.494C211.79 110.226 208.908 117.694 206.85 124.674C204.781 131.647 203.546 138.109 203.011 143.589" fill="#E0E0E0"/>
<path d="M219.739 91.0988C219.71 91.1046 219.633 90.7518 219.516 90.1168C219.392 89.4818 219.251 88.5527 219.086 87.4061C218.763 85.1129 218.416 81.926 218.057 78.4156C217.693 74.8994 217.305 71.7301 216.946 69.4486C216.77 68.3079 216.617 67.3847 216.505 66.7438C216.393 66.1088 216.346 65.7501 216.376 65.7442C216.405 65.7383 216.505 66.0794 216.664 66.7085C216.829 67.3377 217.028 68.255 217.24 69.3957C217.675 71.6771 218.11 74.8523 218.475 78.3686C218.828 81.8378 219.139 84.9718 219.38 87.3708C219.498 88.4528 219.592 89.3642 219.674 90.0992C219.745 90.7342 219.769 91.0929 219.739 91.0988Z" fill="#E0E0E0"/>
<path d="M249.378 85.5593C249.378 85.5887 248.954 85.6357 248.196 85.7004C247.437 85.771 246.332 85.8592 244.979 86.0179C242.263 86.3119 238.529 86.847 234.437 87.6173C230.344 88.3993 226.663 89.2578 224.023 89.9634C222.7 90.3045 221.636 90.6102 220.901 90.816C220.166 91.0277 219.754 91.1277 219.742 91.0983C219.731 91.0689 220.131 90.916 220.848 90.6573C221.571 90.4044 222.624 90.0516 223.941 89.6694C226.569 88.8933 230.244 87.9819 234.354 87.1939C238.464 86.4237 242.216 85.9297 244.95 85.7122C246.314 85.5946 247.42 85.5475 248.19 85.5299C248.954 85.5181 249.378 85.5299 249.378 85.5593Z" fill="#E0E0E0"/>
<path d="M206.833 124.027C206.822 124.032 206.751 123.909 206.628 123.668C206.492 123.38 206.322 123.027 206.122 122.598C205.687 121.663 205.093 120.299 204.376 118.599C202.947 115.207 201.118 110.45 199.172 105.181C197.225 99.9067 195.444 95.144 194.085 91.7277C193.421 90.0636 192.874 88.6995 192.468 87.6822C192.292 87.2412 192.151 86.8767 192.033 86.5768C191.939 86.324 191.892 86.1887 191.91 86.177C191.922 86.1711 191.992 86.2946 192.116 86.5415C192.251 86.8296 192.421 87.1824 192.621 87.6117C193.057 88.5466 193.65 89.9108 194.368 91.6101C195.797 95.0028 197.625 99.7598 199.572 105.028C201.518 110.297 203.299 115.06 204.658 118.482C205.322 120.146 205.869 121.51 206.275 122.527C206.451 122.968 206.592 123.333 206.71 123.633C206.798 123.885 206.845 124.021 206.833 124.027Z" fill="#E0E0E0"/>
<path d="M246.211 111.337C246.216 111.349 246.081 111.408 245.822 111.496C245.517 111.602 245.135 111.725 244.676 111.878C243.618 112.219 242.195 112.684 240.46 113.242C236.897 114.395 231.999 116.047 226.589 117.882C221.174 119.716 216.258 121.321 212.671 122.403C210.878 122.944 209.425 123.368 208.414 123.638C207.944 123.762 207.561 123.862 207.25 123.944C206.979 124.009 206.838 124.038 206.832 124.02C206.826 124.009 206.962 123.95 207.22 123.856C207.526 123.756 207.908 123.626 208.367 123.473C209.425 123.132 210.848 122.668 212.583 122.109C216.146 120.957 221.044 119.305 226.46 117.47C231.869 115.635 236.791 114.03 240.378 112.948C242.171 112.407 243.623 111.984 244.635 111.713C245.099 111.59 245.487 111.49 245.799 111.408C246.064 111.349 246.205 111.319 246.211 111.337Z" fill="#E0E0E0"/>
<path d="M259.002 238.458C259.002 238.54 201.02 238.61 129.507 238.61C57.9709 238.61 0 238.54 0 238.458C0 238.375 57.9709 238.305 129.507 238.305C201.02 238.305 259.002 238.369 259.002 238.458Z" fill="#263238"/>
<path d="M71.4753 147.153C80.8245 137.721 80.7245 123.386 78.0256 110.973C77.5728 108.903 77.4023 106.663 76.0793 105.017C74.7563 103.37 72.2161 102.541 70.505 103.758C69.088 104.77 68.7411 106.692 68.1472 108.339C67.3534 110.532 65.9363 112.484 64.1076 113.895C62.9081 114.824 61.3381 115.548 59.8975 115.06C57.9219 114.395 57.2574 111.949 56.887 109.873C56.2049 106.004 55.5287 102.135 54.8466 98.2722C54.482 96.1966 54.0998 94.0798 53.1003 92.2276C52.0948 90.3754 50.3425 88.8113 48.2669 88.6172C46.1912 88.4232 43.9627 90.0049 43.9157 92.11C43.8981 92.9861 44.2273 93.8328 44.3273 94.703C44.4273 95.5733 44.1979 96.5964 43.4277 96.9904C42.6456 97.3843 41.7107 96.9492 40.9757 96.4553C38.4532 94.7501 36.5128 92.3216 34.6665 89.8873C32.8201 87.453 31.0032 84.9481 28.6453 83.0195C26.2875 81.0908 23.271 79.7678 20.2722 80.1442C17.2734 80.5146 14.4451 82.9254 14.2217 85.9771C14.0041 89.0347 16.2444 91.6925 18.5317 93.7211C21.9245 96.7316 25.7465 99.2424 29.839 101.148C30.574 101.494 31.3737 101.865 31.7676 102.588C32.4673 103.888 31.4089 105.499 30.1271 106.204C28.6747 106.998 26.9695 107.145 25.3878 107.627C23.8061 108.109 22.1832 109.144 21.8539 110.785C21.3894 113.06 23.565 114.954 25.576 116.094C29.5979 118.37 34.002 119.946 38.5414 120.728C40.1701 121.01 41.8636 121.204 43.2865 122.051C44.7095 122.898 45.7914 124.626 45.3151 126.22C44.8389 127.819 43.0161 128.631 41.3638 128.625C39.7115 128.619 38.1239 128.013 36.501 127.713C33.4552 127.155 29.8154 128.025 28.4395 130.818C27.534 132.653 27.8398 134.928 28.7982 136.745C29.7566 138.562 31.2913 140.003 32.873 141.296C38.412 145.824 45.0446 149.07 52.0712 150.157C59.1037 151.245 65.3424 150.751 71.4753 147.153Z" fill="#90C63E"/>
<path d="M73.3219 156.384C71.9695 151.522 69.8175 145.877 66.8245 139.915C63.8375 133.946 60.0214 127.678 55.8054 121.257C54.747 119.658 53.7004 118.076 52.6655 116.518C51.6306 114.966 50.6075 113.425 49.5079 111.979C47.3265 109.08 45.0097 106.457 42.7342 104.035C40.4586 101.612 38.2066 99.3955 36.0898 97.3375C33.9671 95.2853 31.9503 93.4096 30.0451 91.775C26.2349 88.4939 22.8539 86.2184 20.4725 84.7543C19.2789 84.0134 18.3381 83.4724 17.6971 83.1137C17.3855 82.9432 17.1444 82.808 16.9621 82.708C16.7975 82.6198 16.7093 82.5787 16.7034 82.5845C16.6975 82.5904 16.7799 82.6433 16.9386 82.7433C17.115 82.8491 17.3561 82.9961 17.656 83.1784C18.2851 83.5606 19.2142 84.1192 20.3961 84.8777C22.7539 86.383 26.0938 88.688 29.8687 91.9808C31.7621 93.6213 33.7613 95.5029 35.8722 97.5668C37.9773 99.6306 40.2175 101.853 42.4813 104.276C44.7451 106.698 47.0442 109.315 49.2081 112.202C50.2959 113.643 51.3131 115.171 52.348 116.73C53.377 118.288 54.4236 119.87 55.482 121.469C59.6921 127.884 63.5082 134.134 66.5011 140.073C69.5058 146.006 71.6697 151.616 73.0515 156.455" fill="#263238"/>
<path d="M49.4007 111.978C49.4242 111.978 49.4419 111.649 49.4419 111.055C49.4478 110.461 49.4242 109.603 49.3831 108.545C49.3008 106.428 49.0832 103.505 48.8362 100.289C48.5893 97.0668 48.4129 94.1562 48.3658 92.0394C48.3364 90.981 48.3247 90.1284 48.3188 89.5345C48.3129 88.9406 48.2953 88.6172 48.2717 88.6113C48.2423 88.6113 48.2129 88.9347 48.1718 89.5286C48.1247 90.1225 48.1012 90.9751 48.0953 92.0394C48.0777 94.1621 48.2071 97.0903 48.454 100.313C48.7069 103.488 48.9362 106.363 49.1126 108.556C49.1832 109.55 49.2478 110.385 49.2949 111.055C49.336 111.655 49.3713 111.984 49.4007 111.978Z" fill="#263238"/>
<path d="M21.8438 111.855C21.8497 111.885 22.2378 111.855 22.9316 111.791C23.6255 111.726 24.6309 111.632 25.8775 111.549C28.3647 111.367 31.8163 111.238 35.6207 111.261C39.4309 111.291 42.8766 111.467 45.3697 111.661C46.6163 111.749 47.6217 111.849 48.3156 111.914C49.0094 111.985 49.3975 112.008 49.4034 111.979C49.4093 111.949 49.0271 111.879 48.3332 111.761C47.6394 111.649 46.6339 111.508 45.3873 111.379C42.8942 111.108 39.4368 110.891 35.6148 110.861C31.7928 110.838 28.3353 111.014 25.8422 111.267C24.5957 111.385 23.5902 111.526 22.9022 111.632C22.2201 111.755 21.8379 111.826 21.8438 111.855Z" fill="#263238"/>
<path d="M66.4059 139.485C66.4177 139.491 66.4588 139.368 66.5294 139.127C66.6058 138.844 66.6999 138.498 66.8116 138.08C67.0527 137.169 67.3644 135.846 67.7289 134.199C68.458 130.912 69.3224 126.338 70.2103 121.281C71.0982 116.218 71.9214 111.644 72.5799 108.345C72.9033 106.74 73.1738 105.423 73.3737 104.441C73.456 104.017 73.5266 103.664 73.5854 103.376C73.6266 103.135 73.6442 103 73.6324 103C73.6207 103 73.5795 103.123 73.509 103.359C73.4325 103.641 73.3384 103.988 73.2267 104.405C72.9856 105.317 72.674 106.64 72.3094 108.286C71.5803 111.573 70.716 116.148 69.8281 121.21C68.9402 126.267 68.117 130.842 67.4584 134.14C67.1292 135.746 66.8646 137.063 66.6646 138.045C66.5823 138.468 66.5118 138.821 66.453 139.109C66.4118 139.35 66.3942 139.479 66.4059 139.485Z" fill="#263238"/>
<path d="M28.9102 134.522C28.9102 134.534 29.0395 134.563 29.2865 134.604C29.5805 134.645 29.9392 134.698 30.3802 134.763C31.3856 134.898 32.7439 135.081 34.3962 135.304C37.789 135.757 42.4636 136.439 47.6321 137.203C52.8006 137.968 57.487 138.603 60.8915 138.991C62.5908 139.185 63.9726 139.326 64.9252 139.408C65.3662 139.444 65.7307 139.467 66.0247 139.491C66.2776 139.508 66.4069 139.508 66.4128 139.491C66.4128 139.479 66.2834 139.449 66.0365 139.408C65.7425 139.367 65.3838 139.314 64.9428 139.25C63.9373 139.114 62.579 138.932 60.9268 138.709C57.534 138.256 52.8594 137.574 47.6909 136.809C42.5224 136.045 37.836 135.41 34.4374 135.022C32.738 134.828 31.3562 134.687 30.4037 134.604C29.9627 134.569 29.5981 134.54 29.3041 134.522C29.0454 134.504 28.9102 134.504 28.9102 134.522Z" fill="#263238"/>
<path d="M178.493 40.5601C180.31 39.1489 181.121 36.6558 180.745 34.3861C180.363 32.1164 178.899 30.1113 177.005 28.806C176.129 28.2062 175.041 27.7299 174.018 28.0298C173.066 28.312 172.401 29.2352 172.207 30.2113C172.013 31.1874 172.225 32.1987 172.548 33.1395C173.659 36.3676 175.329 39.2782 178.493 40.5601Z" fill="#455A64"/>
<path d="M181.473 46.0644C185.054 42.7951 190.281 41.431 195.003 42.5246C196.208 42.801 197.561 43.436 197.761 44.6591C197.961 45.8821 196.867 46.917 195.797 47.5344C191.346 50.1157 185.313 49.6277 181.332 46.3702" fill="#455A64"/>
<path d="M198.736 20.5861C196.748 20.0392 194.572 20.5332 192.814 21.6033C191.056 22.6735 189.68 24.2846 188.581 26.0251C186.452 29.3884 185.7 33.916 185.605 37.8968C190.027 37.7204 193.802 34.2453 195.607 32.3578C198.459 29.3884 201.811 22.2736 198.736 20.5861Z" fill="#455A64"/>
<path d="M174.789 52.0795C175.048 51.6091 175.471 51.2798 175.895 50.4155C176.724 48.6926 177.841 46.2348 178.382 43.3183C178.923 40.3959 178.558 37.6324 177.829 35.8331C177.476 34.9276 177.076 34.2396 176.759 33.8045C176.441 33.3635 176.23 33.1518 176.212 33.1636C176.136 33.2106 176.918 34.1396 177.529 35.9389C178.158 37.7206 178.464 40.3901 177.941 43.2419C177.412 46.0937 176.359 48.5339 175.606 50.2861" fill="#263238"/>
<path d="M174.747 52.1321C175.34 51.3677 176.111 50.3681 177.051 49.1627C178.986 46.652 181.673 43.1887 184.69 39.4019C187.706 35.6211 190.481 32.2283 192.498 29.7823C193.463 28.6004 194.268 27.6243 194.88 26.8775C195.438 26.1896 195.738 25.7956 195.715 25.778C195.691 25.7603 195.35 26.1131 194.75 26.7658C194.151 27.4185 193.298 28.3828 192.263 29.5823C190.182 31.9814 187.365 35.3447 184.349 39.1315C181.332 42.9182 178.68 46.4168 176.805 48.9805C175.87 50.2623 175.117 51.3031 174.617 52.0381" fill="#263238"/>
<path d="M192.245 45.1411C192.25 45.1117 191.98 45.0293 191.48 44.9059C191.227 44.8412 190.922 44.7706 190.557 44.7295C190.192 44.6824 189.781 44.606 189.316 44.5942C188.393 44.5237 187.288 44.5589 186.071 44.7177C184.859 44.9 183.542 45.2175 182.219 45.7232C180.902 46.2465 179.714 46.9051 178.697 47.5871C177.692 48.2927 176.851 49.016 176.221 49.6922C175.886 50.0097 175.634 50.3507 175.398 50.6271C175.157 50.9035 174.975 51.1622 174.834 51.3797C174.546 51.809 174.587 52.0089 174.61 52.0265C174.681 52.0795 175.134 51.1739 176.439 49.9097C177.086 49.2747 177.933 48.5926 178.926 47.9223C179.932 47.2755 181.096 46.6405 182.378 46.1348C183.671 45.6409 184.953 45.3233 186.129 45.1234C187.311 44.947 188.393 44.8765 189.305 44.9059C191.116 44.9588 192.227 45.2234 192.245 45.1411Z" fill="#263238"/>
<path d="M157.971 238.381L79.2553 238.017C69.7885 237.976 62.1504 230.055 62.1916 220.324L63.0501 17.5461C63.0912 7.81473 70.8058 -0.04683 80.2784 0.000210003L158.994 0.364772C168.461 0.405932 176.099 8.32629 176.058 18.0577L175.199 220.835C175.152 230.567 167.438 238.428 157.971 238.381Z" fill="#455A64"/>
<path d="M168.071 186.972C169.029 186.972 169.805 186.196 169.805 185.238C169.805 184.28 169.029 183.503 168.071 183.503C167.113 183.503 166.336 184.28 166.336 185.238C166.336 186.196 167.113 186.972 168.071 186.972Z" fill="#E0E0E0"/>
<path d="M168.071 189.042C168.155 189.042 168.224 188.191 168.224 187.142C168.224 186.093 168.155 185.243 168.071 185.243C167.986 185.243 167.918 186.093 167.918 187.142C167.918 188.191 167.986 189.042 168.071 189.042Z" fill="#E0E0E0"/>
<path d="M160.563 7.0561L144.823 6.98554C142.712 6.97378 140.995 8.75542 140.983 10.9663L140.971 13.824C140.965 16.029 139.242 17.8106 137.132 17.8047L106.45 17.6636C104.339 17.6519 102.634 15.8585 102.645 13.6476L102.657 10.7899C102.669 8.5849 100.964 6.78562 98.8527 6.77386L93.3138 6.75034L79.5369 6.68566C72.6926 6.65626 67.1243 12.1776 67.0949 19.0219L66.254 217.701C66.2246 224.54 71.7459 230.108 78.5844 230.143L159.617 230.52C166.461 230.549 172.029 225.028 172.059 218.183L172.9 19.5041C172.917 12.6597 167.402 7.09138 160.563 7.0561Z" fill="#FAFAFA"/>
<path d="M71.6274 163.84C72.3154 163.323 106.208 148.393 106.208 148.393L66.6235 128.648L66.4883 160.447L71.6274 163.84Z" fill="#EBEBEB"/>
<path d="M73.6966 128.038L102.567 113.361L71.5387 96.1562L66.7582 97.3558L66.6406 125.192L73.6966 128.038Z" fill="#90C63E"/>
<path opacity="0.7" d="M73.6966 128.038L102.567 113.361L71.5387 96.1562L66.7582 97.3558L66.6406 125.192L73.6966 128.038Z" fill="white"/>
<path d="M67.8008 94.1571L156.806 52.5855L68.624 23.7676L67.8008 94.1571Z" fill="#EBEBEB"/>
<path d="M66.7656 202.419L107.438 181.545L167.984 217.166L153.56 229.814H101.893L66.7656 208.346V202.419Z" fill="#EBEBEB"/>
<path d="M115.445 179.288L165.743 209.111L171.352 208.476V179.799L143.787 165.211L115.445 179.288Z" fill="#EBEBEB"/>
<path d="M123.715 150.81L171.137 177.488V142.614L153.979 135.264L123.715 150.81Z" fill="#EBEBEB"/>
<path d="M73.0625 165.511L100.881 180.775L134.638 163.288L107.819 149.646L73.0625 165.511Z" fill="#EBEBEB"/>
<path d="M114.82 113.167L154.228 132.694L172.503 123.363L172.621 110.274L146.002 97.3555L114.82 113.167Z" fill="#EBEBEB"/>
<path d="M74.5234 130.201L113.931 149.728L132.206 140.397L132.324 127.308L105.699 114.39L74.5234 130.201Z" fill="#EBEBEB"/>
<path d="M79.9844 95.1034L112.095 111.185L142.048 95.1034L111.013 80.9443L79.9844 95.1034Z" fill="#EBEBEB"/>
<path d="M142.05 197.874C142.044 197.885 141.844 197.785 141.468 197.58C141.091 197.368 140.533 197.056 139.803 196.645C138.345 195.804 136.199 194.563 133.43 192.958C127.891 189.712 119.847 184.996 109.815 179.111L109.327 178.822L109.839 178.564C118.624 174.095 129.137 168.75 140.815 162.811L140.809 163.523C133.647 159.707 125.844 155.549 117.677 151.192L116.942 150.804L117.677 150.416C127.732 145.136 138.58 139.444 149.811 133.552L149.817 134.37C148.606 133.758 147.295 133.094 145.983 132.429C119.059 118.77 94.1453 106.128 74.0121 95.9144L73.3359 95.5734L74.018 95.25C89.9469 87.653 103.065 81.3967 112.209 77.0338C116.783 74.8758 120.364 73.1941 122.81 72.0416C124.033 71.483 124.968 71.0479 125.603 70.7598C125.915 70.6246 126.156 70.5187 126.321 70.4423C126.485 70.3717 126.568 70.3423 126.573 70.3541C126.579 70.36 126.503 70.4129 126.344 70.4952C126.185 70.5775 125.95 70.701 125.65 70.8598C125.027 71.1773 124.104 71.6359 122.904 72.2416C120.482 73.4352 116.93 75.1816 112.391 77.416C103.277 81.8495 90.2057 88.2058 74.3355 95.9203L74.3414 95.25C94.4981 105.422 119.435 118.006 146.389 131.612C147.7 132.276 149.012 132.941 150.223 133.552L151.017 133.952L150.229 134.364C138.992 140.244 128.138 145.93 118.077 151.192L118.083 150.416C126.238 154.791 134.029 158.972 141.179 162.811L141.861 163.176L141.174 163.523C129.466 169.403 118.924 174.695 110.115 179.111L110.133 178.564C120.105 184.55 128.102 189.348 133.606 192.652C136.34 194.316 138.457 195.604 139.898 196.48C140.609 196.921 141.144 197.262 141.515 197.491C141.879 197.733 142.055 197.862 142.05 197.874Z" fill="#90C63E"/>
<path d="M135.139 51.4741C135.139 45.6058 128.977 41.8897 122.691 44.8297C121.274 45.4941 120.098 46.6172 119.386 47.999C117.805 51.0625 118.504 54.5611 119.939 57.4599L124.831 69.8549C125.537 71.6425 128.065 71.6307 128.759 69.8373L133.557 57.3776C135.209 53.5909 135.139 51.4741 135.139 51.4741ZM129.235 56.5779C125.013 59.0357 120.727 54.4964 123.044 50.0158C123.349 49.4219 123.826 48.9221 124.384 48.5929C128.612 46.135 132.893 50.6744 130.576 55.1549C130.27 55.7488 129.794 56.2545 129.235 56.5779Z" fill="#90C63E"/>
<path d="M125.754 115.647L125.613 108.721L143.671 117.464V124.661L125.754 115.647Z" fill="#F5F5F5"/>
<path d="M143.672 117.465L166.098 106.322V114.078L143.672 124.662V117.465Z" fill="#E0E0E0"/>
<path d="M125.613 108.721L147.622 97.7139L166.097 106.322L143.671 117.465L125.613 108.721Z" fill="#F5F5F5"/>
<path d="M127.969 111.714V115.071L129.733 115.865V112.655L127.969 111.714Z" fill="#FAFAFA"/>
<path d="M130.793 112.955V116.318L132.557 117.112V113.902L130.793 112.955Z" fill="#FAFAFA"/>
<path d="M68.9414 71.9418V62.9277L90.3152 73.2824V81.7967L68.9414 71.9418Z" fill="#E0E0E0"/>
<path d="M90.3164 73.2826L116.87 60.0879V69.2725L90.3164 81.7968V73.2826Z" fill="#F5F5F5"/>
<path d="M68.9414 62.9275L94.9898 49.9033L116.869 60.0875L90.3152 73.2822L68.9414 62.9275Z" fill="#FAFAFA"/>
<path d="M71.7344 66.4678V70.4485L73.8218 71.3893V67.585L71.7344 66.4678Z" fill="#FAFAFA"/>
<path d="M75.0742 67.9434V71.9182L77.1675 72.8649V69.0606L75.0742 67.9434Z" fill="#FAFAFA"/>
<path d="M133.375 147.288C133.375 147.711 133.375 154.391 133.375 154.391L140.995 158.148V150.81L133.375 147.288Z" fill="#E0E0E0"/>
<path d="M150.72 146.159L140.988 150.81V158.148L150.72 152.715V146.159Z" fill="#E0E0E0"/>
<path d="M133.375 147.288L143.018 142.613L150.721 146.159L140.99 150.81L133.375 147.288Z" fill="#F5F5F5"/>
<path d="M136.078 152.386V155.743L137.842 156.543V153.327L136.078 152.386Z" fill="#FAFAFA"/>
<path d="M71.8398 143.613C71.8398 144.037 71.8398 150.716 71.8398 150.716L79.4603 154.474V147.135L71.8398 143.613Z" fill="#E0E0E0"/>
<path d="M89.1904 142.484L79.4531 147.135V154.474L89.1904 149.041V142.484Z" fill="#E0E0E0"/>
<path d="M71.8398 143.613L81.4889 138.938L89.1917 142.484L79.4544 147.135L71.8398 143.613Z" fill="#F5F5F5"/>
<path d="M74.543 148.711V152.068L76.307 152.868V149.658L74.543 148.711Z" fill="#FAFAFA"/>
<path d="M103.422 96.7266C103.422 97.1499 103.422 103.83 103.422 103.83L111.042 107.587V100.255L103.422 96.7266Z" fill="#F5F5F5"/>
<path d="M120.772 95.6035L111.035 100.255V107.593L120.772 102.16V95.6035Z" fill="#E0E0E0"/>
<path d="M103.422 96.7263L113.071 92.0576L120.774 95.6033L111.036 100.254L103.422 96.7263Z" fill="#F5F5F5"/>
<path d="M106.125 101.83V105.188L107.889 105.987V102.771L106.125 101.83Z" fill="#E0E0E0"/>
<path d="M94.9531 157.603C94.9531 158.026 94.9531 164.706 94.9531 164.706L102.574 168.463V161.131L94.9531 157.603Z" fill="#E0E0E0"/>
<path d="M112.304 156.474L102.566 161.131V168.463L112.304 163.036V156.474Z" fill="#EBEBEB"/>
<path d="M94.9531 157.602L104.602 152.934L112.305 156.473L102.568 161.13L94.9531 157.602Z" fill="#F5F5F5"/>
<path d="M97.6562 162.7V166.064L99.4202 166.857V163.647L97.6562 162.7Z" fill="#FAFAFA"/>
<path d="M126.402 174.766C126.402 175.295 126.402 183.674 126.402 183.674L142.455 193.129V183.927L126.402 174.766Z" fill="#F5F5F5"/>
<path d="M154.66 177.353L142.453 183.926V193.123L154.66 186.314V177.353Z" fill="#E0E0E0"/>
<path d="M126.402 174.766L138.503 168.903L154.662 177.353L142.455 183.927L126.402 174.766Z" fill="#FAFAFA"/>
<path d="M132.465 183.004V187.214L134.682 188.543V184.38L132.465 183.004Z" fill="#FAFAFA"/>
<path d="M87.7852 193.099C87.7852 193.628 87.7852 202.007 87.7852 202.007L103.838 211.462V202.266L87.7852 193.099Z" fill="#E0E0E0"/>
<path d="M122.993 191.882L103.836 202.26V211.462L123.046 200.814L122.993 191.882Z" fill="#FAFAFA"/>
<path d="M87.7852 193.099L108.048 183.285L123.048 191.917L103.838 202.26L87.7852 193.099Z" fill="#F5F5F5"/>
<path d="M93.8477 201.337V205.553L96.0585 206.882V202.713L93.8477 201.337Z" fill="#FAFAFA"/>
<path d="M148.551 159.789V195.369L158.57 200.549V164.522L148.551 159.789Z" fill="#F5F5F5"/>
<path d="M155.954 156.379L148.551 159.789L158.57 164.523L165.309 160.724L155.954 156.379Z" fill="#FAFAFA"/>
<path d="M158.57 164.523V200.55L164.668 197.269L165.309 160.725L158.57 164.523Z" fill="#E0E0E0"/>
<path d="M106.211 130.971V166.551L116.23 171.731V135.704L106.211 130.971Z" fill="#F5F5F5"/>
<path d="M113.608 127.555L106.211 130.971L116.23 135.704L122.969 131.906L113.608 127.555Z" fill="#FAFAFA"/>
<path d="M116.23 135.705V171.732L122.322 168.727L122.969 131.906L116.23 135.705Z" fill="#E0E0E0"/>
<path d="M110.754 198.632C110.754 199.161 110.754 207.54 110.754 207.54L126.806 216.995V207.799L110.754 198.632Z" fill="#E0E0E0"/>
<path d="M139.013 201.226L126.812 207.799V216.996L139.013 210.187V201.226Z" fill="#FAFAFA"/>
<path d="M110.754 198.632L122.996 191.882L139.013 201.225L126.812 207.799L110.754 198.632Z" fill="#F5F5F5"/>
<path d="M116.816 206.87V211.086L119.033 212.415V208.246L116.816 206.87Z" fill="#FAFAFA"/>
<path d="M146.458 92.4216L117.223 79.2445L157.936 58.5234L171.295 78.4449L146.458 92.4216Z" fill="#EBEBEB"/>
<path d="M172.481 104.523L172.681 81.709L150.02 94.6097L172.481 104.523Z" fill="#90C63E"/>
<path d="M153.524 129.107C154.482 129.107 155.258 128.33 155.258 127.372C155.258 126.414 154.482 125.638 153.524 125.638C152.566 125.638 151.789 126.414 151.789 127.372C151.789 128.33 152.566 129.107 153.524 129.107Z" fill="#E0E0E0"/>
<path d="M153.524 131.171C153.608 131.171 153.677 130.32 153.677 129.271C153.677 128.222 153.608 127.372 153.524 127.372C153.44 127.372 153.371 128.222 153.371 129.271C153.371 130.32 153.44 131.171 153.524 131.171Z" fill="#E0E0E0"/>
<path d="M106.207 124.856C107.165 124.856 107.942 124.079 107.942 123.121C107.942 122.163 107.165 121.387 106.207 121.387C105.249 121.387 104.473 122.163 104.473 123.121C104.473 124.079 105.249 124.856 106.207 124.856Z" fill="#E0E0E0"/>
<path d="M106.208 126.92C106.292 126.92 106.36 126.069 106.36 125.02C106.36 123.971 106.292 123.121 106.208 123.121C106.123 123.121 106.055 123.971 106.055 125.02C106.055 126.069 106.123 126.92 106.208 126.92Z" fill="#E0E0E0"/>
<path d="M83.0276 149.07C83.9856 149.07 84.7622 148.293 84.7622 147.335C84.7622 146.377 83.9856 145.601 83.0276 145.601C82.0696 145.601 81.293 146.377 81.293 147.335C81.293 148.293 82.0696 149.07 83.0276 149.07Z" fill="#E0E0E0"/>
<path d="M83.0279 151.133C83.1123 151.133 83.1808 150.283 83.1808 149.234C83.1808 148.185 83.1123 147.335 83.0279 147.335C82.9434 147.335 82.875 148.185 82.875 149.234C82.875 150.283 82.9434 151.133 83.0279 151.133Z" fill="#E0E0E0"/>
<path d="M84.7619 130.383C85.7199 130.383 86.4965 129.607 86.4965 128.649C86.4965 127.691 85.7199 126.914 84.7619 126.914C83.8039 126.914 83.0273 127.691 83.0273 128.649C83.0273 129.607 83.8039 130.383 84.7619 130.383Z" fill="#E0E0E0"/>
<path d="M84.7623 132.453C84.8467 132.453 84.9151 131.602 84.9151 130.554C84.9151 129.505 84.8467 128.654 84.7623 128.654C84.6778 128.654 84.6094 129.505 84.6094 130.554C84.6094 131.602 84.6778 132.453 84.7623 132.453Z" fill="#E0E0E0"/>
<path d="M127.571 128.672C128.529 128.672 129.305 127.896 129.305 126.938C129.305 125.98 128.529 125.203 127.571 125.203C126.613 125.203 125.836 125.98 125.836 126.938C125.836 127.896 126.613 128.672 127.571 128.672Z" fill="#E0E0E0"/>
<path d="M127.571 130.736C127.655 130.736 127.724 129.886 127.724 128.837C127.724 127.788 127.655 126.938 127.571 126.938C127.486 126.938 127.418 127.788 127.418 128.837C127.418 129.886 127.486 130.736 127.571 130.736Z" fill="#E0E0E0"/>
<path d="M154.965 141.661C155.923 141.661 156.7 140.884 156.7 139.926C156.7 138.968 155.923 138.191 154.965 138.191C154.007 138.191 153.23 138.968 153.23 139.926C153.23 140.884 154.007 141.661 154.965 141.661Z" fill="#E0E0E0"/>
<path d="M154.965 143.73C155.05 143.73 155.118 142.88 155.118 141.831C155.118 140.782 155.05 139.932 154.965 139.932C154.881 139.932 154.812 140.782 154.812 141.831C154.812 142.88 154.881 143.73 154.965 143.73Z" fill="#E0E0E0"/>
<path d="M156.071 151.863C157.029 151.863 157.805 151.086 157.805 150.128C157.805 149.17 157.029 148.394 156.071 148.394C155.113 148.394 154.336 149.17 154.336 150.128C154.336 151.086 155.113 151.863 156.071 151.863Z" fill="#E0E0E0"/>
<path d="M156.071 153.926C156.155 153.926 156.224 153.076 156.224 152.027C156.224 150.978 156.155 150.128 156.071 150.128C155.986 150.128 155.918 150.978 155.918 152.027C155.918 153.076 155.986 153.926 156.071 153.926Z" fill="#E0E0E0"/>
<path d="M107.438 173.031C108.396 173.031 109.172 172.254 109.172 171.296C109.172 170.338 108.396 169.562 107.438 169.562C106.48 169.562 105.703 170.338 105.703 171.296C105.703 172.254 106.48 173.031 107.438 173.031Z" fill="#E0E0E0"/>
<path d="M107.438 175.094C107.522 175.094 107.591 174.244 107.591 173.195C107.591 172.146 107.522 171.296 107.438 171.296C107.354 171.296 107.285 172.146 107.285 173.195C107.285 174.244 107.354 175.094 107.438 175.094Z" fill="#E0E0E0"/>
<path d="M164.422 203.272C165.38 203.272 166.157 202.495 166.157 201.537C166.157 200.579 165.38 199.803 164.422 199.803C163.464 199.803 162.688 200.579 162.688 201.537C162.688 202.495 163.464 203.272 164.422 203.272Z" fill="#E0E0E0"/>
<path d="M164.422 205.341C164.507 205.341 164.575 204.491 164.575 203.442C164.575 202.393 164.507 201.543 164.422 201.543C164.338 201.543 164.27 202.393 164.27 203.442C164.27 204.491 164.338 205.341 164.422 205.341Z" fill="#E0E0E0"/>
<path d="M131.274 222.241C132.232 222.241 133.008 221.464 133.008 220.506C133.008 219.548 132.232 218.771 131.274 218.771C130.316 218.771 129.539 219.548 129.539 220.506C129.539 221.464 130.316 222.241 131.274 222.241Z" fill="#E0E0E0"/>
<path d="M131.274 224.31C131.358 224.31 131.427 223.46 131.427 222.411C131.427 221.362 131.358 220.512 131.274 220.512C131.19 220.512 131.121 221.362 131.121 222.411C131.121 223.46 131.19 224.31 131.274 224.31Z" fill="#E0E0E0"/>
<path d="M117.922 217.001C118.88 217.001 119.657 216.225 119.657 215.267C119.657 214.309 118.88 213.532 117.922 213.532C116.964 213.532 116.188 214.309 116.188 215.267C116.188 216.225 116.964 217.001 117.922 217.001Z" fill="#E0E0E0"/>
<path d="M117.922 219.071C118.007 219.071 118.075 218.218 118.075 217.166C118.075 216.114 118.007 215.261 117.922 215.261C117.838 215.261 117.77 216.114 117.77 217.166C117.77 218.218 117.838 219.071 117.922 219.071Z" fill="#E0E0E0"/>
<path d="M148.551 213.197C149.509 213.197 150.286 212.42 150.286 211.462C150.286 210.504 149.509 209.728 148.551 209.728C147.593 209.728 146.816 210.504 146.816 211.462C146.816 212.42 147.593 213.197 148.551 213.197Z" fill="#E0E0E0"/>
<path d="M148.551 215.26C148.636 215.26 148.704 214.41 148.704 213.361C148.704 212.312 148.636 211.462 148.551 211.462C148.467 211.462 148.398 212.312 148.398 213.361C148.398 214.41 148.467 215.26 148.551 215.26Z" fill="#E0E0E0"/>
<path d="M122.438 179.792C123.396 179.792 124.172 179.016 124.172 178.058C124.172 177.1 123.396 176.323 122.438 176.323C121.48 176.323 120.703 177.1 120.703 178.058C120.703 179.016 121.48 179.792 122.438 179.792Z" fill="#E0E0E0"/>
<path d="M122.438 181.862C122.522 181.862 122.591 181.012 122.591 179.963C122.591 178.914 122.522 178.063 122.438 178.063C122.354 178.063 122.285 178.914 122.285 179.963C122.285 181.012 122.354 181.862 122.438 181.862Z" fill="#E0E0E0"/>
<path d="M126.813 162.865C127.771 162.865 128.547 162.088 128.547 161.13C128.547 160.172 127.771 159.396 126.813 159.396C125.855 159.396 125.078 160.172 125.078 161.13C125.078 162.088 125.855 162.865 126.813 162.865Z" fill="#E0E0E0"/>
<path d="M126.813 164.928C126.897 164.928 126.966 164.078 126.966 163.029C126.966 161.98 126.897 161.13 126.813 161.13C126.729 161.13 126.66 161.98 126.66 163.029C126.66 164.078 126.729 164.928 126.813 164.928Z" fill="#E0E0E0"/>
<path d="M84.7619 164.77C85.7199 164.77 86.4965 163.993 86.4965 163.035C86.4965 162.077 85.7199 161.301 84.7619 161.301C83.8039 161.301 83.0273 162.077 83.0273 163.035C83.0273 163.993 83.8039 164.77 84.7619 164.77Z" fill="#E0E0E0"/>
<path d="M84.7623 166.834C84.8467 166.834 84.9151 165.983 84.9151 164.934C84.9151 163.885 84.8467 163.035 84.7623 163.035C84.6778 163.035 84.6094 163.885 84.6094 164.934C84.6094 165.983 84.6778 166.834 84.7623 166.834Z" fill="#E0E0E0"/>
<path d="M164.864 149.07C165.822 149.07 166.598 148.293 166.598 147.335C166.598 146.377 165.822 145.601 164.864 145.601C163.906 145.601 163.129 146.377 163.129 147.335C163.129 148.293 163.906 149.07 164.864 149.07Z" fill="#E0E0E0"/>
<path d="M164.864 151.133C164.948 151.133 165.017 150.283 165.017 149.234C165.017 148.185 164.948 147.335 164.864 147.335C164.779 147.335 164.711 148.185 164.711 149.234C164.711 150.283 164.779 151.133 164.864 151.133Z" fill="#E0E0E0"/>
<path d="M160.211 123.122C161.169 123.122 161.946 122.345 161.946 121.387C161.946 120.429 161.169 119.652 160.211 119.652C159.253 119.652 158.477 120.429 158.477 121.387C158.477 122.345 159.253 123.122 160.211 123.122Z" fill="#E0E0E0"/>
<path d="M160.211 125.191C160.296 125.191 160.364 124.341 160.364 123.292C160.364 122.243 160.296 121.393 160.211 121.393C160.127 121.393 160.059 122.243 160.059 123.292C160.059 124.341 160.127 125.191 160.211 125.191Z" fill="#E0E0E0"/>
<path d="M125.082 100.19C126.04 100.19 126.817 99.4133 126.817 98.4553C126.817 97.4973 126.04 96.7207 125.082 96.7207C124.124 96.7207 123.348 97.4973 123.348 98.4553C123.348 99.4133 124.124 100.19 125.082 100.19Z" fill="#E0E0E0"/>
<path d="M125.09 102.265C125.175 102.265 125.243 101.412 125.243 100.36C125.243 99.308 125.175 98.4551 125.09 98.4551C125.006 98.4551 124.938 99.308 124.938 100.36C124.938 101.412 125.006 102.265 125.09 102.265Z" fill="#E0E0E0"/>
<path d="M91.926 132.912C92.884 132.912 93.6606 132.135 93.6606 131.177C93.6606 130.219 92.884 129.442 91.926 129.442C90.968 129.442 90.1914 130.219 90.1914 131.177C90.1914 132.135 90.968 132.912 91.926 132.912Z" fill="#E0E0E0"/>
<path d="M91.9263 134.975C92.0108 134.975 92.0792 134.125 92.0792 133.076C92.0792 132.027 92.0108 131.177 91.9263 131.177C91.8419 131.177 91.7734 132.027 91.7734 133.076C91.7734 134.125 91.8419 134.975 91.9263 134.975Z" fill="#E0E0E0"/>
<path d="M112.305 87.812C113.263 87.812 114.04 87.0354 114.04 86.0774C114.04 85.1194 113.263 84.3428 112.305 84.3428C111.347 84.3428 110.57 85.1194 110.57 86.0774C110.57 87.0354 111.347 87.812 112.305 87.812Z" fill="#E0E0E0"/>
<path d="M112.305 89.8756C112.39 89.8756 112.458 89.0253 112.458 87.9764C112.458 86.9275 112.39 86.0771 112.305 86.0771C112.221 86.0771 112.152 86.9275 112.152 87.9764C112.152 89.0253 112.221 89.8756 112.305 89.8756Z" fill="#E0E0E0"/>
<path d="M147.676 84.0083C148.634 84.0083 149.411 83.2317 149.411 82.2737C149.411 81.3157 148.634 80.5391 147.676 80.5391C146.718 80.5391 145.941 81.3157 145.941 82.2737C145.941 83.2317 146.718 84.0083 147.676 84.0083Z" fill="#E0E0E0"/>
<path d="M147.676 86.0719C147.761 86.0719 147.829 85.2216 147.829 84.1727C147.829 83.1238 147.761 82.2734 147.676 82.2734C147.592 82.2734 147.523 83.1238 147.523 84.1727C147.523 85.2216 147.592 86.0719 147.676 86.0719Z" fill="#E0E0E0"/>
<path d="M157.453 82.4087C158.411 82.4087 159.188 81.6321 159.188 80.6741C159.188 79.7161 158.411 78.9395 157.453 78.9395C156.495 78.9395 155.719 79.7161 155.719 80.6741C155.719 81.6321 156.495 82.4087 157.453 82.4087Z" fill="#E0E0E0"/>
<path d="M157.454 84.4723C157.538 84.4723 157.607 83.622 157.607 82.5731C157.607 81.5241 157.538 80.6738 157.454 80.6738C157.369 80.6738 157.301 81.5241 157.301 82.5731C157.301 83.622 157.369 84.4723 157.454 84.4723Z" fill="#E0E0E0"/>
<path d="M153.524 69.6137C154.482 69.6137 155.258 68.8371 155.258 67.8791C155.258 66.9211 154.482 66.1445 153.524 66.1445C152.566 66.1445 151.789 66.9211 151.789 67.8791C151.789 68.8371 152.566 69.6137 153.524 69.6137Z" fill="#E0E0E0"/>
<path d="M153.524 71.6774C153.608 71.6774 153.677 70.8271 153.677 69.7782C153.677 68.7292 153.608 67.8789 153.524 67.8789C153.44 67.8789 153.371 68.7292 153.371 69.7782C153.371 70.8271 153.44 71.6774 153.524 71.6774Z" fill="#E0E0E0"/>
<path d="M99.0588 99.0903C100.017 99.0903 100.793 98.3137 100.793 97.3557C100.793 96.3977 100.017 95.6211 99.0588 95.6211C98.1008 95.6211 97.3242 96.3977 97.3242 97.3557C97.3242 98.3137 98.1008 99.0903 99.0588 99.0903Z" fill="#E0E0E0"/>
<path d="M99.0591 101.154C99.1436 101.154 99.212 100.304 99.212 99.2547C99.212 98.2058 99.1436 97.3555 99.0591 97.3555C98.9747 97.3555 98.9062 98.2058 98.9062 99.2547C98.9062 100.304 98.9747 101.154 99.0591 101.154Z" fill="#E0E0E0"/>
<path d="M139.371 82.6792C140.329 82.6792 141.106 81.9026 141.106 80.9446C141.106 79.9866 140.329 79.21 139.371 79.21C138.413 79.21 137.637 79.9866 137.637 80.9446C137.637 81.9026 138.413 82.6792 139.371 82.6792Z" fill="#E0E0E0"/>
<path d="M139.372 84.7428C139.456 84.7428 139.525 83.8925 139.525 82.8436C139.525 81.7947 139.456 80.9443 139.372 80.9443C139.287 80.9443 139.219 81.7947 139.219 82.8436C139.219 83.8925 139.287 84.7428 139.372 84.7428Z" fill="#E0E0E0"/>
<path d="M90.6682 43.6118C91.6262 43.6118 92.4028 42.8352 92.4028 41.8772C92.4028 40.9192 91.6262 40.1426 90.6682 40.1426C89.7102 40.1426 88.9336 40.9192 88.9336 41.8772C88.9336 42.8352 89.7102 43.6118 90.6682 43.6118Z" fill="#E0E0E0"/>
<path d="M90.6685 45.6754C90.7529 45.6754 90.8214 44.8251 90.8214 43.7762C90.8214 42.7273 90.7529 41.877 90.6685 41.877C90.5841 41.877 90.5156 42.7273 90.5156 43.7762C90.5156 44.8251 90.5841 45.6754 90.6685 45.6754Z" fill="#E0E0E0"/>
<path d="M110.571 53.1079C111.529 53.1079 112.305 52.3313 112.305 51.3733C112.305 50.4153 111.529 49.6387 110.571 49.6387C109.613 49.6387 108.836 50.4153 108.836 51.3733C108.836 52.3313 109.613 53.1079 110.571 53.1079Z" fill="#E0E0E0"/>
<path d="M110.571 55.1774C110.655 55.1774 110.724 54.3271 110.724 53.2782C110.724 52.2292 110.655 51.3789 110.571 51.3789C110.486 51.3789 110.418 52.2292 110.418 53.2782C110.418 54.3271 110.486 55.1774 110.571 55.1774Z" fill="#E0E0E0"/>
<path d="M78.9377 83.1079C79.8957 83.1079 80.6723 82.3313 80.6723 81.3733C80.6723 80.4153 79.8957 79.6387 78.9377 79.6387C77.9797 79.6387 77.2031 80.4153 77.2031 81.3733C77.2031 82.3313 77.9797 83.1079 78.9377 83.1079Z" fill="#E0E0E0"/>
<path d="M78.938 85.1715C79.0225 85.1715 79.0909 84.3212 79.0909 83.2723C79.0909 82.2234 79.0225 81.373 78.938 81.373C78.8536 81.373 78.7852 82.2234 78.7852 83.2723C78.7852 84.3212 78.8536 85.1715 78.938 85.1715Z" fill="#E0E0E0"/>
<path d="M80.6721 54.8432C81.6301 54.8432 82.4067 54.0666 82.4067 53.1086C82.4067 52.1506 81.6301 51.374 80.6721 51.374C79.7141 51.374 78.9375 52.1506 78.9375 53.1086C78.9375 54.0666 79.7141 54.8432 80.6721 54.8432Z" fill="#E0E0E0"/>
<path d="M80.6724 56.9127C80.7569 56.9127 80.8253 56.0624 80.8253 55.0135C80.8253 53.9646 80.7569 53.1143 80.6724 53.1143C80.588 53.1143 80.5195 53.9646 80.5195 55.0135C80.5195 56.0624 80.588 56.9127 80.6724 56.9127Z" fill="#E0E0E0"/>
<path d="M157.051 133.988L171.351 126.408L171.292 140.079L157.051 133.988Z" fill="#EBEBEB"/>
<path d="M97.6607 182.463L66.332 198.633V168.462L69.8071 166.916L97.6607 182.463Z" fill="#EBEBEB"/>
<path d="M142.452 200.631C143.556 200.631 144.452 199.736 144.452 198.632C144.452 197.528 143.556 196.633 142.452 196.633C141.348 196.633 140.453 197.528 140.453 198.632C140.453 199.736 141.348 200.631 142.452 200.631Z" fill="#90C63E"/>
<path d="M162.746 55.9307L172.724 58.9647V74.6879L162.746 55.9307Z" fill="#EBEBEB"/>
<path d="M172.822 34.9274L172.763 17.7695C171.946 11.7484 166.812 7.08557 160.562 7.05617L144.821 6.98561C142.71 6.97385 140.993 8.75549 140.981 10.9664L140.97 13.8241C140.964 16.0291 139.241 17.8107 137.13 17.8048L106.448 17.6637C104.337 17.6519 102.632 15.8585 102.644 13.6477L102.656 10.79C102.667 8.58497 100.962 6.78569 98.8512 6.77393L93.3123 6.75041L79.5354 6.68573C76.3014 6.66809 73.3556 7.90877 71.1447 9.93149C69.7629 12.5893 68.2576 16.3701 68.9456 19.2748L172.751 53.0672L172.822 34.9274Z" fill="#90C63E"/>
<path opacity="0.7" d="M172.822 34.9274L172.763 17.7695C171.946 11.7484 166.812 7.08557 160.562 7.05617L144.821 6.98561C142.71 6.97385 140.993 8.75549 140.981 10.9664L140.97 13.8241C140.964 16.0291 139.241 17.8107 137.13 17.8048L106.448 17.6637C104.337 17.6519 102.632 15.8585 102.644 13.6477L102.656 10.79C102.667 8.58497 100.962 6.78569 98.8512 6.77393L93.3123 6.75041L79.5354 6.68573C76.3014 6.66809 73.3556 7.90877 71.1447 9.93149C69.7629 12.5893 68.2576 16.3701 68.9456 19.2748L172.751 53.0672L172.822 34.9274Z" fill="white"/>
<path d="M160.564 7.05656C160.564 7.05656 160.705 7.05657 160.987 7.07421C161.27 7.10361 161.693 7.07421 162.24 7.18005C163.339 7.31529 165.003 7.67984 166.879 8.80292C167.826 9.34388 168.784 10.1142 169.696 11.102C170.601 12.0898 171.442 13.3305 172.036 14.8064C172.642 16.2823 172.965 17.9992 172.941 19.8338C172.936 21.6625 172.93 23.6088 172.924 25.6726C172.865 42.1778 172.783 66.0565 172.677 95.5623C172.559 125.068 172.424 160.201 172.271 199.215C172.253 204.089 172.23 209.029 172.212 214.021C172.206 215.267 172.201 216.52 172.195 217.778C172.177 219.036 172.089 220.324 171.707 221.547C171.348 222.77 170.836 223.958 170.113 225.028C169.396 226.092 168.526 227.057 167.526 227.874C165.509 229.479 162.987 230.497 160.376 230.62C159.723 230.661 159.076 230.655 158.43 230.649L156.489 230.644C155.196 230.638 153.896 230.632 152.591 230.626C147.381 230.602 142.124 230.579 136.815 230.555C126.201 230.508 115.4 230.455 104.439 230.408C98.9593 230.385 93.438 230.361 87.8814 230.332C85.1001 230.32 82.313 230.308 79.52 230.291C76.7153 230.42 73.8106 229.673 71.4762 228.033C69.1301 226.41 67.4013 223.958 66.6017 221.241C66.1724 219.889 66.096 218.448 66.1019 217.055C66.1077 215.661 66.1136 214.268 66.1195 212.88C66.143 207.318 66.1666 201.796 66.1901 196.316C66.2371 185.35 66.2842 174.548 66.3312 163.935C66.4253 142.702 66.5135 122.222 66.6017 102.718C66.6899 83.2084 66.7722 64.6688 66.8486 47.3228C66.8898 38.6498 66.9251 30.2708 66.9662 22.2152C66.9721 21.2097 66.978 20.2042 66.978 19.2105C66.9897 18.7107 67.025 18.205 67.0544 17.7111C67.1426 17.2172 67.1838 16.7174 67.3132 16.2352C67.7718 14.3007 68.6773 12.4897 69.9356 11.002C71.2057 9.52028 72.7933 8.35604 74.5397 7.59164C76.286 6.81548 78.197 6.545 80.0433 6.5744C83.7301 6.59204 87.3345 6.60968 90.839 6.62732C92.5913 6.63908 94.3259 6.64496 96.0311 6.65672C96.8837 6.6626 97.7363 6.66848 98.5771 6.66848C99.4297 6.62732 100.306 6.8684 101.006 7.35644C101.699 7.84448 102.234 8.55008 102.511 9.34388C102.822 10.1377 102.746 10.9962 102.752 11.7841C102.752 12.1898 102.746 12.5896 102.746 12.9895C102.746 13.3893 102.728 13.7892 102.781 14.1714C102.875 14.9416 103.199 15.6766 103.699 16.2529C104.193 16.835 104.869 17.2584 105.592 17.4406C105.957 17.5347 106.327 17.5641 106.709 17.5524C107.091 17.5524 107.474 17.5582 107.85 17.5582C109.367 17.5641 110.855 17.5759 112.319 17.5818C118.181 17.6112 123.632 17.6406 128.653 17.67C131.164 17.6817 133.563 17.6994 135.856 17.7111C136.427 17.7052 137.003 17.7405 137.544 17.6994C138.091 17.6406 138.614 17.4524 139.067 17.1702C139.978 16.6057 140.601 15.6649 140.819 14.677C140.937 14.1831 140.919 13.6716 140.919 13.1718C140.919 12.672 140.925 12.178 140.925 11.69C140.931 11.2078 140.907 10.7198 140.995 10.2494C141.078 9.779 141.242 9.33212 141.466 8.9264C141.913 8.11496 142.642 7.50345 143.447 7.19181C144.259 6.84489 145.123 6.95073 145.905 6.93897C149.08 6.96249 151.768 6.97425 153.943 6.99189C156.113 7.00953 157.765 7.02128 158.882 7.02716C159.994 7.0448 160.564 7.05656 160.564 7.05656C160.564 7.05656 159.994 7.06244 158.882 7.06244C157.765 7.06244 156.113 7.05656 153.943 7.05656C151.773 7.05068 149.086 7.04481 145.911 7.03305C145.123 7.05069 144.276 6.94485 143.489 7.28589C142.707 7.59165 142.001 8.1914 141.566 8.9852C141.348 9.37916 141.189 9.81428 141.107 10.2729C141.019 10.7316 141.048 11.2078 141.042 11.6959C141.042 12.1839 141.042 12.6778 141.037 13.1776C141.031 13.6774 141.054 14.1949 140.937 14.7064C140.719 15.7296 140.078 16.6998 139.137 17.2819C138.667 17.5759 138.126 17.7699 137.562 17.8346C136.991 17.8816 136.433 17.8464 135.856 17.8522C133.569 17.8464 131.164 17.8346 128.653 17.8228C123.632 17.8052 118.181 17.7817 112.319 17.7582C110.855 17.7523 109.361 17.7464 107.85 17.7405C107.474 17.7405 107.091 17.7405 106.709 17.7346C106.333 17.7405 105.927 17.7111 105.545 17.617C104.781 17.423 104.069 16.9879 103.557 16.3764C103.034 15.7707 102.693 15.0004 102.593 14.1949C102.54 13.7892 102.558 13.3834 102.558 12.9895C102.558 12.5896 102.558 12.1898 102.564 11.7841C102.558 10.9785 102.628 10.1612 102.329 9.40856C102.07 8.65004 101.558 7.97973 100.894 7.51521C100.224 7.05069 99.4121 6.82724 98.5771 6.86252C97.7363 6.85664 96.8837 6.85664 96.0311 6.85076C94.32 6.84488 92.5913 6.839 90.839 6.82724C87.3287 6.81548 83.7301 6.79785 80.0433 6.78021C78.2088 6.75081 76.3448 7.02128 74.6279 7.78568C72.9168 8.53832 71.3586 9.68493 70.112 11.1373C68.8772 12.6014 67.9894 14.3772 67.5425 16.2764C67.4131 16.7468 67.3778 17.2407 67.2896 17.7229C67.2602 18.2109 67.225 18.7048 67.2191 19.1988C67.2132 20.1925 67.2132 21.198 67.2073 22.2034C67.1779 30.259 67.1426 38.6322 67.1073 47.311C67.0368 64.6629 66.9662 83.1967 66.8898 102.707C66.8075 122.216 66.7252 142.696 66.6428 163.923C66.5958 174.537 66.5546 185.344 66.5076 196.304C66.4841 201.785 66.4606 207.312 66.437 212.868C66.4312 214.256 66.4253 215.65 66.4194 217.043C66.4135 218.431 66.4841 219.818 66.9074 221.141C67.6895 223.787 69.3711 226.181 71.6643 227.762C73.9575 229.356 76.7505 230.091 79.5377 229.961C82.3365 229.973 85.1237 229.985 87.899 230.003C93.4556 230.026 98.977 230.056 104.457 230.079C115.417 230.132 126.219 230.179 136.832 230.232C142.136 230.255 147.399 230.279 152.608 230.308C153.908 230.314 155.207 230.32 156.507 230.326L158.447 230.338C159.094 230.344 159.741 230.35 160.376 230.308C162.928 230.197 165.392 229.197 167.361 227.633C168.337 226.833 169.19 225.893 169.89 224.852C170.595 223.811 171.095 222.647 171.448 221.453C171.824 220.254 171.907 219.007 171.93 217.76C171.936 216.502 171.942 215.256 171.948 214.003C171.971 209.011 171.989 204.072 172.012 199.197C172.189 160.184 172.348 125.051 172.483 95.5447C172.63 66.0388 172.747 42.1602 172.824 25.655C172.836 23.5911 172.847 21.6448 172.853 19.8162C172.883 17.9934 172.565 16.2882 171.965 14.8182C171.377 13.3482 170.548 12.1192 169.649 11.1314C168.749 10.1436 167.796 9.37329 166.856 8.83233C164.998 7.70337 163.339 7.32704 162.246 7.18592C161.699 7.0742 161.276 7.09772 160.993 7.06832C160.705 7.0742 160.564 7.05656 160.564 7.05656Z" fill="#263238"/>
<path d="M153.595 238.282C153.595 238.282 152.36 234.26 152.607 232.56C152.854 230.861 155.141 229.315 155.141 229.315L152.66 164.834C152.66 164.834 152.336 136.634 167.266 127.867L176.174 125.621L198.147 124.321C198.859 124.556 224.684 134.27 228.235 138.063L217.099 194.922C217.099 194.922 218.451 211.722 219.804 223.799C220.08 226.269 221.932 238.458 221.932 238.458L153.595 238.282Z" fill="#90C63E"/>
<g opacity="0.3">
<path opacity="0.3" d="M219.4 220.001C219.195 221.571 218.595 223.482 217.09 223.964C215.584 224.452 213.95 224.311 212.392 224.034C206.882 223.052 201.813 220.465 196.839 217.908C187.537 213.133 178.152 208.3 170.126 201.602C168.997 200.661 167.792 199.191 168.486 197.898C169.268 196.428 171.473 196.922 172.984 197.616C188.754 204.883 203.63 212.727 219.4 220.001Z" fill="black"/>
</g>
<path d="M165.933 128.625C165.933 128.625 156.096 131.906 152.915 141.02C149.399 151.087 147.07 170.632 147.07 170.632L156.79 171.855L165.933 128.625Z" fill="#90C63E"/>
<path d="M228.237 138.063C228.237 138.063 233.511 145.001 236.081 153.433C238.645 161.865 240.115 186.302 240.115 186.302L213.655 185.932L212.249 164.435C212.249 164.429 209.58 128.555 228.237 138.063Z" fill="#90C63E"/>
<path d="M148.539 150.799C148.539 150.799 148.733 150.499 149.268 150.111C149.797 149.729 150.791 149.329 152.055 149.576C153.337 149.764 154.584 150.77 156.224 151.399C157.036 151.711 157.988 151.958 158.953 151.74C159.923 151.528 160.758 150.835 161.646 150.164C162.092 149.829 162.563 149.482 163.116 149.241C163.662 148.994 164.339 148.912 164.944 149.165C165.556 149.388 166.014 149.905 166.367 150.435C166.732 150.964 167.026 151.546 167.408 152.063C167.778 152.581 168.272 153.034 168.902 153.216C169.519 153.422 170.213 153.369 170.865 153.198C171.53 153.028 172.171 152.734 172.776 152.375C173.388 152.016 173.976 151.575 174.611 151.187C175.24 150.793 175.91 150.423 176.657 150.194C177.398 149.976 178.233 149.923 178.997 150.188C179.768 150.441 180.432 150.911 181.032 151.428C181.638 151.946 182.202 152.504 182.831 152.992C183.449 153.481 184.142 153.904 184.925 154.021C185.695 154.174 186.512 154.063 187.271 153.78C188.799 153.204 190.152 152.169 191.651 151.334C192.404 150.929 193.192 150.541 194.044 150.382C194.891 150.217 195.797 150.276 196.596 150.582C198.202 151.205 199.389 152.416 200.812 153.098C201.165 153.275 201.536 153.398 201.906 153.492C202.282 153.569 202.664 153.586 203.047 153.563C203.811 153.51 204.546 153.257 205.24 152.934C206.633 152.305 207.892 151.423 209.332 150.946C210.044 150.711 210.814 150.605 211.555 150.746C212.302 150.87 212.949 151.281 213.49 151.734C214.571 152.634 215.418 153.78 216.653 154.163C217.259 154.357 217.9 154.339 218.505 154.216C219.117 154.092 219.699 153.886 220.275 153.686C221.41 153.286 222.598 152.875 223.75 153.139C224.321 153.251 224.814 153.551 225.244 153.874C225.673 154.204 226.043 154.562 226.42 154.898C226.796 155.227 227.178 155.527 227.584 155.75C227.99 155.968 228.431 156.097 228.86 156.162C229.724 156.285 230.553 156.15 231.259 155.915C231.976 155.68 232.576 155.333 233.088 154.98C234.105 154.268 234.781 153.563 235.251 153.104C235.475 152.881 235.651 152.704 235.781 152.575C235.898 152.457 235.963 152.399 235.969 152.399C235.975 152.404 235.916 152.469 235.804 152.593C235.681 152.728 235.51 152.91 235.298 153.145C234.84 153.616 234.175 154.339 233.158 155.074C232.647 155.439 232.035 155.797 231.306 156.05C230.583 156.297 229.736 156.45 228.836 156.326C228.389 156.268 227.931 156.132 227.502 155.909C227.072 155.68 226.678 155.374 226.296 155.045C225.538 154.398 224.785 153.575 223.703 153.351C222.633 153.11 221.486 153.504 220.352 153.91C219.775 154.11 219.187 154.327 218.552 154.457C217.923 154.586 217.229 154.609 216.577 154.404C215.918 154.204 215.348 153.786 214.836 153.334C214.325 152.881 213.848 152.375 213.319 151.934C212.796 151.493 212.19 151.123 211.502 151.011C210.82 150.882 210.103 150.982 209.421 151.205C208.039 151.658 206.78 152.54 205.363 153.187C204.658 153.516 203.888 153.786 203.07 153.845C202.664 153.869 202.247 153.851 201.847 153.769C201.447 153.675 201.053 153.539 200.689 153.357C199.207 152.646 198.019 151.44 196.496 150.858C195.744 150.57 194.915 150.523 194.115 150.67C193.309 150.817 192.545 151.193 191.81 151.593C190.334 152.404 188.976 153.457 187.382 154.057C186.589 154.357 185.712 154.474 184.877 154.31C184.031 154.18 183.29 153.722 182.655 153.222C181.379 152.228 180.362 150.934 178.915 150.458C178.21 150.211 177.445 150.258 176.745 150.458C176.04 150.67 175.387 151.029 174.77 151.417C174.141 151.799 173.558 152.234 172.929 152.604C172.3 152.969 171.636 153.275 170.942 153.451C170.254 153.628 169.507 153.68 168.831 153.457C168.143 153.251 167.596 152.746 167.214 152.205C166.82 151.664 166.526 151.081 166.173 150.564C165.832 150.047 165.415 149.582 164.868 149.376C164.327 149.153 163.727 149.218 163.216 149.441C162.692 149.664 162.234 150 161.787 150.329C160.905 150.993 160.04 151.705 159.005 151.922C157.982 152.146 156.994 151.881 156.177 151.552C154.513 150.893 153.29 149.888 152.049 149.688C150.826 149.429 149.85 149.8 149.321 150.158C148.768 150.529 148.557 150.817 148.539 150.799Z" fill="#FAFAFA"/>
<path d="M145.422 166.699C145.422 166.693 145.51 166.699 145.681 166.716C145.863 166.734 146.116 166.763 146.439 166.793C147.109 166.834 148.097 167.116 149.332 166.716C149.955 166.581 150.655 166.452 151.419 166.322C152.184 166.187 153.007 166.005 153.913 165.899C154.812 165.793 155.824 165.793 156.823 166.111C157.823 166.405 158.793 166.916 159.863 167.275C160.927 167.651 162.133 167.692 163.326 167.375C164.526 167.093 165.702 166.54 166.972 166.099C168.225 165.646 169.677 165.299 171.117 165.699C172.54 166.099 173.687 167.151 175.116 167.498C175.469 167.581 175.833 167.604 176.198 167.575C176.562 167.534 176.927 167.44 177.28 167.316C177.997 167.069 178.691 166.705 179.449 166.44C180.196 166.164 181.084 166.046 181.884 166.358C182.678 166.663 183.295 167.24 183.942 167.722C184.265 167.963 184.6 168.186 184.965 168.339C185.329 168.492 185.723 168.557 186.117 168.557C186.917 168.527 187.699 168.21 188.458 167.857C189.222 167.504 189.998 167.11 190.857 166.893C191.292 166.799 191.739 166.74 192.191 166.799C192.644 166.852 193.079 167.01 193.473 167.216C194.267 167.634 194.926 168.216 195.625 168.692C195.972 168.933 196.337 169.145 196.719 169.292C196.913 169.362 197.101 169.427 197.307 169.456L197.607 169.509L197.913 169.521C198.73 169.539 199.536 169.304 200.312 169.021C201.088 168.739 201.852 168.41 202.652 168.169C203.44 167.934 204.304 167.781 205.127 167.992C205.962 168.169 206.644 168.71 207.215 169.245C207.791 169.792 208.32 170.368 208.932 170.797C209.543 171.232 210.278 171.432 210.996 171.385C211.719 171.338 212.413 171.073 213.065 170.756C213.718 170.438 214.341 170.068 214.965 169.721C216.199 169.039 217.558 168.404 218.963 168.563C220.357 168.727 221.491 169.498 222.491 170.215C223.502 170.944 224.426 171.714 225.443 172.191C226.448 172.69 227.513 172.943 228.524 173.026C229.541 173.09 230.5 172.984 231.382 172.802C233.128 172.379 234.516 171.603 235.492 170.797C236.474 169.991 237.038 169.168 237.403 168.61C237.567 168.322 237.679 168.086 237.761 167.939C237.844 167.786 237.885 167.71 237.891 167.716C237.897 167.716 237.861 167.798 237.791 167.957C237.714 168.11 237.614 168.351 237.456 168.645C237.103 169.215 236.55 170.062 235.568 170.891C234.592 171.72 233.199 172.526 231.423 172.973C230.529 173.167 229.553 173.278 228.518 173.22C227.483 173.143 226.395 172.89 225.355 172.385C224.302 171.897 223.367 171.12 222.362 170.403C221.362 169.692 220.251 168.957 218.945 168.81C217.634 168.663 216.329 169.262 215.106 169.95C214.482 170.297 213.859 170.674 213.195 171.003C212.53 171.326 211.807 171.614 211.025 171.667C210.243 171.72 209.426 171.497 208.779 171.032C208.126 170.579 207.591 169.986 207.021 169.456C206.456 168.927 205.821 168.439 205.063 168.275C204.31 168.086 203.505 168.222 202.74 168.451C201.964 168.68 201.205 169.015 200.418 169.298C199.63 169.586 198.795 169.839 197.907 169.821L197.577 169.809L197.248 169.75C197.031 169.721 196.813 169.65 196.607 169.568C196.196 169.409 195.813 169.18 195.455 168.939C194.737 168.451 194.085 167.875 193.338 167.481C192.968 167.287 192.568 167.146 192.162 167.099C191.756 167.046 191.339 167.099 190.933 167.181C190.122 167.387 189.363 167.769 188.593 168.122C187.823 168.474 187.011 168.815 186.135 168.845C185.7 168.845 185.259 168.774 184.859 168.604C184.459 168.433 184.106 168.198 183.771 167.945C183.113 167.451 182.513 166.893 181.79 166.616C181.072 166.34 180.279 166.434 179.555 166.699C178.82 166.952 178.126 167.31 177.386 167.569C177.015 167.692 176.633 167.798 176.233 167.839C175.839 167.875 175.439 167.845 175.057 167.757C173.534 167.369 172.399 166.316 171.053 165.94C169.7 165.564 168.307 165.881 167.066 166.322C165.808 166.752 164.62 167.304 163.391 167.587C162.174 167.91 160.892 167.857 159.804 167.463C158.717 167.087 157.752 166.575 156.776 166.281C155.806 165.964 154.836 165.958 153.942 166.058C153.048 166.158 152.225 166.334 151.455 166.458C150.69 166.581 149.991 166.693 149.367 166.822C149.056 166.881 148.762 166.952 148.479 166.993C148.191 167.034 147.921 167.016 147.68 166.999C147.192 166.946 146.78 166.887 146.445 166.84C146.122 166.793 145.875 166.758 145.686 166.734C145.51 166.722 145.422 166.705 145.422 166.699Z" fill="#FAFAFA"/>
<path d="M155.211 180.563C155.211 180.557 155.27 180.563 155.387 180.569C155.517 180.581 155.687 180.598 155.899 180.622C156.346 180.669 157.004 180.757 157.857 180.886C159.556 181.122 161.991 181.621 165.036 181.874C166.559 182.004 168.229 181.992 170.017 181.786C170.911 181.704 171.857 181.621 172.833 181.763C173.315 181.833 173.809 181.968 174.268 182.186C174.733 182.403 175.144 182.703 175.544 183.021C176.344 183.638 177.102 184.385 178.084 184.685C178.566 184.838 179.084 184.808 179.589 184.673C180.095 184.532 180.577 184.291 181.083 184.062C181.589 183.832 182.112 183.591 182.7 183.521C183.282 183.427 183.917 183.574 184.417 183.891C185.434 184.508 186.099 185.537 187.133 185.973C188.174 186.431 189.35 186.143 190.415 185.826C191.496 185.508 192.572 185.085 193.719 185.061C194.289 185.055 194.866 185.161 195.371 185.402C195.883 185.643 196.324 185.978 196.73 186.32C197.541 187.007 198.258 187.778 199.152 188.189C200.04 188.619 201.051 188.495 201.939 188.195C202.845 187.913 203.674 187.472 204.579 187.266C205.467 187.066 206.42 187.043 207.208 187.46C207.596 187.666 207.913 187.995 208.107 188.372C208.301 188.748 208.396 189.13 208.519 189.489C208.637 189.847 208.79 190.177 209.025 190.43C209.254 190.688 209.554 190.865 209.866 190.971C210.501 191.182 211.159 191.129 211.724 190.959C212.294 190.782 212.759 190.465 213.117 190.1C213.482 189.742 213.752 189.348 213.97 188.983C214.399 188.248 214.628 187.619 214.799 187.201C214.875 187.007 214.94 186.849 214.987 186.725C215.028 186.619 215.058 186.566 215.058 186.566C215.063 186.566 215.046 186.625 215.016 186.737C214.975 186.86 214.922 187.025 214.858 187.225C214.705 187.648 214.493 188.283 214.076 189.042C213.864 189.418 213.599 189.824 213.229 190.2C212.864 190.583 212.376 190.929 211.782 191.123C211.194 191.306 210.495 191.376 209.807 191.153C209.466 191.041 209.136 190.847 208.878 190.565C208.613 190.283 208.443 189.924 208.319 189.553C208.19 189.189 208.09 188.813 207.913 188.472C207.737 188.131 207.455 187.848 207.108 187.666C206.396 187.296 205.497 187.313 204.644 187.513C203.786 187.707 202.951 188.154 202.028 188.448C201.569 188.601 201.075 188.719 200.563 188.742C200.052 188.76 199.523 188.666 199.04 188.442C198.076 188.001 197.347 187.213 196.547 186.543C196.148 186.208 195.724 185.89 195.254 185.667C194.783 185.443 194.26 185.349 193.731 185.355C192.661 185.379 191.602 185.784 190.509 186.114C189.962 186.278 189.397 186.425 188.803 186.484C188.215 186.543 187.586 186.502 187.022 186.243C185.875 185.743 185.205 184.697 184.27 184.138C183.811 183.85 183.276 183.726 182.747 183.803C182.218 183.868 181.712 184.097 181.218 184.32C180.718 184.55 180.219 184.791 179.678 184.944C179.137 185.091 178.549 185.12 178.014 184.949C176.938 184.614 176.173 183.838 175.385 183.227C174.991 182.915 174.591 182.627 174.162 182.421C173.733 182.215 173.274 182.086 172.81 182.015C171.881 181.874 170.952 181.951 170.058 182.027C168.265 182.221 166.565 182.221 165.036 182.08C161.973 181.798 159.55 181.263 157.857 180.992C157.028 180.857 156.375 180.751 155.911 180.675C155.705 180.639 155.534 180.616 155.405 180.592C155.27 180.581 155.211 180.569 155.211 180.563Z" fill="#FAFAFA"/>
<path d="M154.391 219.777C154.391 219.771 154.449 219.747 154.561 219.706C154.691 219.659 154.861 219.6 155.079 219.524C155.531 219.365 156.196 219.124 157.066 218.842C157.936 218.571 159.001 218.213 160.312 218.083C160.97 218.013 161.688 218.177 162.376 218.424C163.07 218.665 163.787 218.977 164.581 219.054C165.374 219.13 166.192 218.877 166.991 218.513C167.797 218.16 168.62 217.689 169.585 217.472C170.555 217.254 171.59 217.384 172.583 217.648C173.583 217.913 174.559 218.307 175.588 218.607C176.605 218.912 177.705 219.112 178.781 218.883C179.857 218.66 180.868 218.077 181.968 217.642C182.521 217.425 183.109 217.248 183.738 217.225C184.361 217.195 185.002 217.372 185.537 217.695C186.613 218.33 187.383 219.377 188.506 219.794C189.059 219.994 189.665 219.983 190.241 219.836C190.817 219.694 191.37 219.448 191.923 219.201C192.475 218.954 193.028 218.695 193.616 218.53C194.204 218.36 194.851 218.307 195.451 218.495C196.056 218.665 196.538 219.077 196.944 219.489C197.356 219.9 197.72 220.341 198.138 220.694C198.955 221.453 200.108 221.553 201.131 221.317C202.172 221.112 203.148 220.706 204.147 220.447C204.647 220.329 205.153 220.206 205.67 220.218C206.176 220.212 206.705 220.312 207.134 220.571C207.587 220.794 207.928 221.176 208.199 221.558C208.469 221.946 208.681 222.352 208.898 222.74C209.322 223.505 209.845 224.21 210.609 224.451C211.35 224.704 212.144 224.54 212.785 224.228C213.432 223.916 213.973 223.475 214.396 222.999C215.219 222.023 215.654 220.97 216.095 220.177C216.513 219.365 216.901 218.765 217.201 218.389C217.501 218.013 217.701 217.848 217.701 217.848C217.712 217.86 217.536 218.042 217.254 218.424C216.971 218.812 216.607 219.412 216.201 220.23C215.778 221.035 215.366 222.088 214.525 223.111C214.096 223.611 213.543 224.069 212.873 224.398C212.209 224.728 211.368 224.922 210.545 224.651C209.704 224.393 209.128 223.616 208.698 222.852C208.251 222.093 207.846 221.211 207.017 220.788C206.217 220.312 205.182 220.447 204.224 220.7C203.248 220.959 202.271 221.37 201.195 221.588C200.66 221.7 200.09 221.752 199.52 221.652C199.231 221.623 198.961 221.5 198.685 221.4C198.42 221.27 198.179 221.1 197.956 220.912C197.509 220.535 197.144 220.094 196.738 219.694C196.339 219.295 195.898 218.924 195.362 218.777C194.833 218.613 194.257 218.66 193.698 218.818C193.14 218.977 192.599 219.23 192.046 219.477C191.493 219.724 190.929 219.983 190.312 220.135C189.7 220.294 189.018 220.312 188.401 220.088C187.16 219.612 186.39 218.548 185.378 217.96C184.878 217.654 184.314 217.507 183.744 217.525C183.173 217.542 182.615 217.707 182.074 217.919C180.998 218.342 179.98 218.93 178.834 219.165C177.687 219.406 176.535 219.183 175.5 218.871C174.459 218.56 173.483 218.166 172.507 217.901C171.537 217.642 170.549 217.513 169.632 217.713C168.714 217.913 167.903 218.366 167.08 218.718C166.268 219.083 165.398 219.353 164.551 219.259C163.71 219.171 162.987 218.842 162.299 218.601C161.611 218.348 160.947 218.183 160.312 218.242C159.036 218.348 157.96 218.689 157.09 218.942C156.237 219.212 155.567 219.418 155.084 219.571C154.867 219.636 154.691 219.683 154.561 219.724C154.455 219.771 154.397 219.783 154.391 219.777Z" fill="#FAFAFA"/>
<path d="M187.422 205.212C187.428 205.224 187.311 205.295 187.087 205.424C186.858 205.553 186.517 205.724 186.052 205.894C185.129 206.241 183.683 206.571 181.907 206.324C181.466 206.253 181.007 206.159 180.543 206.006C180.078 205.859 179.614 205.647 179.143 205.448C178.673 205.259 178.167 205.089 177.65 205.142C177.132 205.189 176.638 205.448 176.174 205.777C175.709 206.106 175.251 206.5 174.716 206.829C174.451 206.994 174.151 207.129 173.834 207.217C173.675 207.264 173.51 207.282 173.346 207.294C173.181 207.317 173.016 207.3 172.846 207.282C171.499 207.112 170.429 206.224 169.265 205.63C168.683 205.33 168.059 205.095 167.454 205.165L167.23 205.195C167.16 205.212 167.089 205.242 167.019 205.265C166.872 205.306 166.736 205.377 166.607 205.453C166.354 205.618 166.131 205.83 165.919 206.059C165.496 206.512 165.137 207.035 164.626 207.429C164.373 207.629 164.073 207.782 163.749 207.835C163.426 207.888 163.091 207.835 162.809 207.694C162.232 207.411 161.88 206.906 161.562 206.459C161.245 206 160.968 205.548 160.627 205.183C159.945 204.448 158.969 204.148 158.128 204.189C157.264 204.207 156.564 204.636 156.017 205.042C155.464 205.453 155.059 205.9 154.794 206.306C154.247 207.129 154.359 207.729 154.318 207.717C154.318 207.717 154.277 207.582 154.3 207.317C154.324 207.059 154.43 206.671 154.688 206.241C154.947 205.812 155.353 205.342 155.905 204.907C156.458 204.483 157.187 204.013 158.11 203.978C159.01 203.925 160.057 204.225 160.809 205.018C161.174 205.412 161.468 205.871 161.78 206.318C162.091 206.759 162.438 207.217 162.92 207.453C163.402 207.688 164.002 207.582 164.443 207.212C164.896 206.853 165.255 206.341 165.696 205.865C165.913 205.63 166.154 205.395 166.442 205.212C166.589 205.124 166.742 205.042 166.913 204.995C166.995 204.965 167.077 204.93 167.16 204.912L167.419 204.877C168.124 204.795 168.806 205.065 169.406 205.371C170.605 205.989 171.67 206.847 172.881 206.994C173.481 207.07 174.063 206.906 174.563 206.594C175.068 206.288 175.521 205.9 176.009 205.565C176.491 205.23 177.038 204.942 177.626 204.895C178.214 204.848 178.761 205.036 179.243 205.236C179.725 205.442 180.172 205.653 180.619 205.806C181.066 205.959 181.513 206.059 181.942 206.136C183.665 206.406 185.1 206.118 186.017 205.812C186.94 205.483 187.405 205.183 187.422 205.212Z" fill="#FAFAFA"/>
<path d="M154.965 235.489C154.965 235.483 155.03 235.501 155.141 235.536C155.206 235.56 155.276 235.577 155.353 235.607C155.441 235.624 155.541 235.636 155.659 235.654C156.123 235.712 156.823 235.577 157.628 235.177C158.446 234.819 159.363 234.148 160.645 233.848C160.962 233.778 161.309 233.766 161.662 233.801C162.015 233.854 162.362 233.972 162.691 234.142C163.356 234.484 163.938 235.001 164.585 235.471C165.22 235.936 165.984 236.347 166.842 236.271C167.695 236.206 168.501 235.748 169.371 235.36C169.806 235.166 170.27 234.983 170.77 234.895C171.27 234.807 171.793 234.83 172.299 234.925C173.316 235.113 174.275 235.548 175.286 235.824C176.292 236.124 177.385 236.112 178.455 235.871C179.531 235.642 180.59 235.219 181.672 234.807C182.754 234.395 183.877 233.972 185.094 233.819C186.305 233.631 187.593 233.878 188.722 234.395C189.863 234.889 190.903 235.53 192.003 235.971C193.091 236.418 194.273 236.6 195.36 236.283C197.56 235.654 199.159 233.872 201.246 233.184C202.275 232.819 203.416 232.837 204.386 233.166C205.374 233.478 206.221 234.019 207.02 234.531C207.814 235.054 208.561 235.583 209.32 236.012C210.078 236.447 210.854 236.759 211.625 236.935C213.183 237.276 214.664 237.112 215.876 236.759C217.093 236.395 218.051 235.83 218.757 235.283C220.174 234.166 220.592 233.202 220.639 233.249C220.644 233.249 220.615 233.308 220.55 233.407C220.474 233.525 220.38 233.678 220.262 233.866C219.974 234.242 219.545 234.813 218.828 235.377C218.122 235.942 217.158 236.542 215.923 236.924C214.694 237.3 213.183 237.488 211.577 237.153C210.778 236.977 209.972 236.665 209.202 236.224C208.426 235.789 207.673 235.266 206.879 234.748C206.086 234.242 205.251 233.719 204.304 233.431C203.369 233.119 202.311 233.108 201.335 233.455C200.341 233.784 199.435 234.395 198.5 235.001C197.571 235.607 196.589 236.253 195.437 236.577C194.279 236.918 193.003 236.724 191.885 236.259C190.756 235.807 189.716 235.166 188.598 234.683C187.493 234.184 186.299 233.954 185.129 234.131C183.959 234.272 182.854 234.689 181.772 235.095C180.69 235.507 179.62 235.93 178.508 236.165C177.409 236.412 176.245 236.424 175.204 236.106C174.163 235.818 173.21 235.383 172.24 235.201C171.758 235.107 171.27 235.083 170.806 235.16C170.341 235.236 169.894 235.407 169.465 235.595C168.612 235.971 167.777 236.442 166.854 236.512C165.919 236.589 165.09 236.13 164.455 235.654C163.802 235.171 163.232 234.654 162.603 234.325C162.291 234.16 161.962 234.043 161.639 233.995C161.309 233.96 160.986 233.966 160.68 234.031C159.445 234.301 158.516 234.948 157.681 235.301C156.864 235.689 156.135 235.812 155.659 235.73C155.541 235.707 155.435 235.695 155.347 235.671C155.265 235.636 155.194 235.612 155.135 235.583C155.018 235.518 154.965 235.495 154.965 235.489Z" fill="#FAFAFA"/>
<path d="M156.418 134.388C156.436 134.376 156.588 134.6 156.988 134.917C157.388 135.229 158.058 135.611 159.011 135.799C159.964 136.005 161.151 135.999 162.533 135.87C163.221 135.817 163.962 135.746 164.756 135.758C165.544 135.77 166.396 135.87 167.225 136.199C168.054 136.523 168.831 137.028 169.66 137.475C170.077 137.699 170.506 137.904 170.971 138.057C171.43 138.204 171.924 138.281 172.423 138.298C173.429 138.34 174.475 138.134 175.546 137.94C176.616 137.746 177.756 137.546 178.932 137.681C180.126 137.816 181.208 138.422 182.231 139.045C183.26 139.668 184.313 140.345 185.524 140.509C186.124 140.58 186.741 140.539 187.347 140.386C187.952 140.227 188.54 139.986 189.123 139.721C190.293 139.192 191.445 138.51 192.768 138.169C193.427 138.004 194.121 137.946 194.797 138.046C195.473 138.157 196.096 138.422 196.672 138.745C197.819 139.392 198.801 140.233 199.918 140.75C201.03 141.274 202.27 141.374 203.446 141.185C204.628 141.021 205.745 140.639 206.851 140.303C207.95 139.962 209.044 139.645 210.144 139.504C211.243 139.363 212.337 139.468 213.342 139.704C215.365 140.186 217.088 141.062 218.705 141.685C220.298 142.403 221.886 142.532 223.256 142.408C224.626 142.285 225.778 141.95 226.666 141.556C228.46 140.756 229.042 139.739 229.077 139.792C229.077 139.792 228.936 140.027 228.577 140.398C228.225 140.774 227.607 141.244 226.719 141.668C225.831 142.085 224.667 142.444 223.279 142.585C222.586 142.661 221.833 142.661 221.045 142.567C220.251 142.485 219.44 142.214 218.634 141.897C217 141.28 215.277 140.421 213.295 139.962C212.307 139.733 211.255 139.639 210.185 139.78C209.115 139.921 208.038 140.233 206.939 140.58C205.839 140.915 204.71 141.309 203.493 141.479C202.288 141.673 200.971 141.579 199.801 141.027C198.63 140.486 197.643 139.645 196.531 139.016C195.979 138.704 195.385 138.457 194.756 138.351C194.126 138.257 193.48 138.31 192.85 138.469C191.586 138.792 190.44 139.463 189.258 140.004C188.664 140.274 188.058 140.521 187.423 140.686C186.788 140.844 186.13 140.891 185.483 140.815C184.183 140.627 183.101 139.921 182.078 139.304C181.055 138.675 180.02 138.098 178.897 137.969C176.633 137.722 174.511 138.657 172.412 138.557C171.888 138.534 171.377 138.451 170.895 138.298C170.412 138.14 169.971 137.922 169.548 137.693C168.707 137.228 167.943 136.728 167.149 136.411C165.538 135.77 163.909 135.97 162.545 136.052C161.163 136.17 159.946 136.158 158.988 135.929C158.023 135.717 157.347 135.311 156.953 134.976C156.559 134.623 156.418 134.388 156.418 134.388Z" fill="#FAFAFA"/>
<path d="M156.816 230.485C156.816 230.473 156.928 230.485 157.134 230.52C157.375 230.561 157.669 230.62 158.028 230.685C158.845 230.838 159.956 231.049 161.309 231.308C164.078 231.826 167.918 232.496 172.175 233.09C176.438 233.684 180.307 234.089 183.118 234.348C184.488 234.472 185.611 234.572 186.446 234.642C186.81 234.677 187.11 234.707 187.351 234.73C187.557 234.754 187.669 234.771 187.663 234.783C187.663 234.795 187.551 234.795 187.345 234.795C187.104 234.789 186.804 234.777 186.44 234.766C185.652 234.736 184.511 234.666 183.106 234.566C180.289 234.366 176.409 233.989 172.14 233.396C167.877 232.802 164.037 232.096 161.273 231.526C159.892 231.238 158.774 230.991 158.01 230.802C157.657 230.714 157.363 230.644 157.128 230.585C156.922 230.526 156.816 230.497 156.816 230.485Z" fill="#263238"/>
<path d="M174.954 125.591C174.965 125.591 174.971 125.738 174.965 126.014C174.965 126.32 174.959 126.726 174.959 127.226C174.971 128.272 174.948 129.819 175.406 131.63C175.653 132.524 176.018 133.494 176.676 134.37C177.311 135.258 178.229 136.016 179.305 136.604C180.381 137.192 181.622 137.622 182.933 137.904C184.244 138.192 185.638 138.339 187.066 138.304C189.918 138.245 192.611 137.451 194.705 136.146C196.815 134.852 198.25 133.041 199.091 131.389C199.938 129.713 200.185 128.184 200.238 127.143C200.273 126.097 200.167 125.515 200.202 125.515C200.214 125.515 200.238 125.656 200.279 125.932C200.326 126.208 200.349 126.62 200.355 127.149C200.338 128.202 200.12 129.766 199.285 131.483C198.45 133.182 197.004 135.046 194.857 136.387C192.729 137.739 189.983 138.556 187.078 138.615C185.626 138.651 184.209 138.504 182.874 138.204C181.539 137.916 180.275 137.475 179.175 136.857C178.07 136.246 177.123 135.452 176.477 134.529C175.8 133.617 175.436 132.612 175.201 131.695C174.76 129.836 174.824 128.284 174.842 127.232C174.86 126.702 174.889 126.297 174.907 126.02C174.924 125.738 174.942 125.591 174.954 125.591Z" fill="#263238"/>
<path d="M159.724 179.394L152.938 166.875H132.299L131.641 168.116L149.116 197.169L168.89 198.121L159.724 179.394Z" fill="#5A7481"/>
<path d="M238.421 186.296V208.176C238.421 212.168 236.627 215.949 233.534 218.478C229.765 221.553 224.614 222.329 220.11 220.489L171.941 199.138L176.657 183.074L215.406 195.846L215.359 185.885L238.421 186.296Z" fill="#FFBE9D"/>
<path d="M159.065 180.635L152.279 168.116H131.641L148.457 198.41L168.238 199.363L159.065 180.635Z" fill="#455A64"/>
<path d="M178.552 184.798L175.288 180.746C173.136 178.077 169.896 176.53 166.468 176.53H163.617L161.67 178.718C161.67 178.718 147.711 179.323 147.2 181.046L147.188 181.605L147.182 181.928L159.118 182.734C159.118 182.734 148.964 182.704 148.352 182.722C147.682 182.745 145.518 182.551 145.559 183.745C145.594 184.727 146.753 185.497 148.511 185.756C149.234 185.862 158.031 186.626 158.031 186.626C158.031 186.626 148.793 186.538 148.346 186.538C147.258 186.532 147.4 188.273 148.041 188.49C148.552 188.661 160.953 192.283 160.953 192.283C160.953 192.283 158.866 193.682 157.166 193.559C155.467 193.435 152.545 191.248 151.939 192.283C151.333 193.318 151.451 193.923 151.816 194.17C152.18 194.411 156.196 196.481 157.531 196.846C158.872 197.21 169.791 198.939 169.791 198.939L173.736 199.574L178.552 184.798Z" fill="#FFBE9D"/>
<path d="M134.527 173.002C134.527 173.002 132.369 173.755 133.468 176.53C135.074 180.587 137.849 183.462 137.849 183.462C137.849 183.462 137.467 184.897 138.708 185.95C138.708 185.95 137.179 186.332 138.131 188.913C138.131 188.913 137.079 191.589 139.948 192.735C139.948 192.735 139.184 194.934 141.953 195.987C144.723 197.039 147.398 195.222 147.398 195.222L134.527 173.002Z" fill="#FFBE9D"/>
<path d="M138.903 183.251C140.867 183.78 143.019 184.204 144.836 184.892C145.435 185.115 146.023 185.133 146.423 185.632C146.817 186.132 146.911 186.932 146.459 187.385C146.059 187.779 145.424 187.773 144.865 187.708C142.772 187.455 140.767 186.738 138.785 186.02" fill="#FFBE9D"/>
<path d="M139.69 186.526C141.654 187.056 143.806 187.479 145.623 188.167C146.217 188.39 146.811 188.408 147.205 188.908C147.598 189.408 147.693 190.207 147.24 190.66C146.84 191.054 146.205 191.048 145.646 190.983C143.553 190.731 141.548 190.013 139.566 189.296" fill="#FFBE9D"/>
<path d="M140.803 189.896C142.767 190.425 144.919 190.848 146.736 191.536C147.33 191.759 147.924 191.777 148.318 192.277C148.712 192.777 148.806 193.576 148.353 194.029C147.953 194.423 147.318 194.417 146.76 194.353C144.666 194.1 142.661 193.382 140.68 192.665" fill="#FFBE9D"/>
<path d="M138.895 186.085C138.93 186.003 140.312 186.485 142.053 186.967C143.793 187.455 145.228 187.755 145.21 187.844C145.198 187.92 143.728 187.755 141.97 187.261C140.212 186.773 138.866 186.156 138.895 186.085Z" fill="#EB996E"/>
<path d="M138.532 188.972C138.561 188.89 140.149 189.413 142.124 189.99C144.1 190.572 145.717 190.983 145.699 191.072C145.682 191.154 144.029 190.872 142.042 190.284C140.049 189.707 138.502 189.049 138.532 188.972Z" fill="#EB996E"/>
<path d="M143.192 193.362C141.352 192.902 139.844 192.596 139.823 192.678C139.803 192.76 141.278 193.199 143.118 193.659C144.958 194.119 146.466 194.425 146.486 194.343C146.507 194.261 145.032 193.822 143.192 193.362Z" fill="#EB996E"/>
<path d="M137.274 182.851C137.303 182.768 139.044 183.356 141.231 183.915C143.418 184.485 145.223 184.809 145.206 184.897C145.2 184.938 144.741 184.909 144 184.797C143.265 184.685 142.254 184.491 141.149 184.209C140.049 183.921 139.067 183.603 138.373 183.344C137.679 183.086 137.262 182.886 137.274 182.851Z" fill="#EB996E"/>
<path d="M161.815 178.701C159.11 178.715 156.917 178.795 156.918 178.88C156.918 178.964 159.112 179.021 161.817 179.007C164.522 178.992 166.714 178.912 166.714 178.828C166.714 178.743 164.52 178.686 161.815 178.701Z" fill="#EB996E"/>
<path d="M142.765 173.602C143.337 173.602 143.8 173.139 143.8 172.567C143.8 171.996 143.337 171.532 142.765 171.532C142.194 171.532 141.73 171.996 141.73 172.567C141.73 173.139 142.194 173.602 142.765 173.602Z" fill="#EBEBEB"/>
<path d="M212.879 195.282C212.885 195.258 213.05 195.282 213.355 195.334C213.661 195.382 214.09 195.493 214.62 195.652C215.672 195.975 217.083 196.593 218.471 197.551C219.859 198.516 220.929 199.627 221.599 200.497C221.934 200.932 222.187 201.303 222.34 201.567C222.499 201.832 222.575 201.985 222.558 201.997C222.516 202.026 222.14 201.461 221.429 200.638C220.723 199.815 219.653 198.751 218.295 197.81C216.936 196.869 215.566 196.234 214.543 195.864C213.526 195.487 212.867 195.329 212.879 195.282Z" fill="#EB996E"/>
<path d="M186.602 137.322C180.246 136.816 175.447 131.348 175.765 124.98C175.988 120.511 176.218 116.483 176.218 116.483C176.218 116.483 166.639 114.995 166.522 105.417C166.404 95.8383 168.062 73.8471 168.062 73.8471C179.152 69.0843 191.947 70.6895 201.508 78.0513L202.925 79.145L199.297 126.467C198.797 132.976 193.105 137.839 186.602 137.322Z" fill="#FFBE9D"/>
<path d="M176.201 116.342C176.201 116.342 182.252 116.835 188.69 112.796C188.69 112.796 185.739 119.687 176.184 118.823L176.201 116.342Z" fill="#EB996E"/>
<path d="M170.426 88.8536C170.403 89.5768 170.991 90.1942 171.744 90.2354C172.496 90.2765 173.125 89.7238 173.155 89.0006C173.178 88.2773 172.59 87.6599 171.838 87.6188C171.079 87.5835 170.45 88.1362 170.426 88.8536Z" fill="#263238"/>
<path d="M169.873 87.3186C170.043 87.495 171.078 86.7305 172.548 86.7364C174.018 86.7188 175.1 87.4773 175.259 87.295C175.335 87.2127 175.165 86.8952 174.694 86.5483C174.23 86.2072 173.442 85.8779 172.525 85.8779C171.607 85.8838 170.837 86.219 170.396 86.5659C169.943 86.9128 169.791 87.2362 169.873 87.3186Z" fill="#263238"/>
<path d="M184.301 89.1999C184.278 89.9231 184.866 90.5405 185.619 90.5817C186.371 90.6228 187 90.0701 187.03 89.3469C187.053 88.6236 186.465 88.0062 185.713 87.965C184.96 87.9239 184.325 88.4766 184.301 89.1999Z" fill="#263238"/>
<path d="M184.338 87.5949C184.508 87.7713 185.543 87.0069 187.013 87.0128C188.483 86.9951 189.565 87.7537 189.724 87.5714C189.8 87.4891 189.63 87.1715 189.159 86.8246C188.695 86.4836 187.907 86.1543 186.99 86.1543C186.072 86.1602 185.302 86.4953 184.855 86.8423C184.408 87.1892 184.255 87.5126 184.338 87.5949Z" fill="#263238"/>
<path d="M179 98.5077C179.006 98.4253 178.095 98.2666 176.607 98.0784C176.231 98.0373 175.878 97.9667 175.813 97.708C175.725 97.4375 175.884 97.0318 176.066 96.5967C176.419 95.6853 176.79 94.7327 177.178 93.7331C178.724 89.6583 179.835 86.3067 179.677 86.2479C179.512 86.1891 178.13 89.4407 176.584 93.5155C176.213 94.521 175.855 95.4795 175.519 96.3967C175.378 96.826 175.131 97.3081 175.325 97.8726C175.425 98.1549 175.702 98.3548 175.943 98.4195C176.184 98.4959 176.396 98.4959 176.578 98.5077C178.071 98.5841 178.995 98.59 179 98.5077Z" fill="#263238"/>
<path d="M183.33 99.5256C183.089 99.5139 183.089 101.107 181.719 102.242C180.355 103.383 178.649 103.201 178.638 103.424C178.614 103.524 179.014 103.736 179.737 103.753C180.443 103.777 181.472 103.553 182.307 102.86C183.142 102.166 183.5 101.237 183.553 100.578C183.612 99.9137 183.436 99.5139 183.33 99.5256Z" fill="#263238"/>
<path d="M183.961 81.8265C184.108 82.2263 185.578 82.0382 187.301 82.244C189.03 82.4145 190.424 82.9202 190.653 82.5615C190.753 82.391 190.512 82.0146 189.947 81.6266C189.389 81.2385 188.501 80.8739 187.46 80.7563C186.425 80.6446 185.473 80.8092 184.843 81.0621C184.214 81.3208 183.897 81.6324 183.961 81.8265Z" fill="#263238"/>
<path d="M170.414 83.0557C170.673 83.3908 171.684 83.0439 172.907 83.0263C174.124 82.9675 175.159 83.2497 175.394 82.9028C175.5 82.7323 175.336 82.3971 174.883 82.0796C174.436 81.7621 173.695 81.5092 172.854 81.5328C172.019 81.5622 171.29 81.862 170.867 82.2031C170.443 82.55 170.296 82.8969 170.414 83.0557Z" fill="#263238"/>
<path d="M201.742 89.0593C201.906 88.9887 208.321 87.113 208.116 93.6633C207.904 100.214 201.377 98.6496 201.371 98.4614C201.365 98.2733 201.742 89.0593 201.742 89.0593Z" fill="#FFBE9D"/>
<path d="M203.452 96.0447C203.482 96.0271 203.564 96.127 203.752 96.2211C203.94 96.3152 204.258 96.3799 204.605 96.2682C205.304 96.0388 205.922 94.9569 205.992 93.775C206.028 93.1812 205.922 92.6108 205.728 92.1345C205.545 91.6465 205.246 91.3054 204.899 91.229C204.558 91.1408 204.299 91.3407 204.217 91.523C204.122 91.7053 204.164 91.8346 204.128 91.8464C204.111 91.864 203.993 91.7347 204.052 91.4642C204.081 91.3348 204.164 91.182 204.322 91.0644C204.481 90.9409 204.716 90.8821 204.957 90.9174C205.463 90.9703 205.898 91.4465 206.116 91.9699C206.357 92.4991 206.492 93.14 206.451 93.8103C206.369 95.1274 205.651 96.3387 204.699 96.5857C204.234 96.6915 203.852 96.5386 203.664 96.3799C203.458 96.2035 203.429 96.0565 203.452 96.0447Z" fill="#EB996E"/>
<path d="M164.392 65.5682C165.785 62.8222 168.49 60.776 171.512 60.1998C174.535 59.6176 177.81 60.5114 180.121 62.5459C181.567 59.6647 184.507 57.5773 187.706 57.1657C190.905 56.7541 194.28 58.0183 196.414 60.435C198.249 62.5165 199.201 65.3389 201.353 67.0911C203.217 68.6082 205.74 69.108 207.61 70.6132C209.668 72.2655 210.697 75.1114 210.168 77.7045C209.638 80.2917 207.574 82.5085 205.028 83.22C207.081 86.9244 205.158 92.2399 201.206 93.7687L200.254 93.3747C196.632 89.3998 195.803 83.12 198.272 78.3396C198.155 78.3454 198.043 78.3278 197.931 78.3219C196.667 79.0099 195.221 79.3568 193.786 79.2686C191.498 79.1334 189.293 77.9103 187.965 76.0405C185.348 77.928 181.602 78.0867 178.839 76.4227C178.404 76.164 177.969 75.8523 177.463 75.7994C176.863 75.7347 176.293 76.0464 175.746 76.311C174.311 77.0166 172.694 77.4752 171.113 77.2459C169.637 77.0342 168.214 76.111 167.632 74.7528C167.596 74.7469 167.561 74.7469 167.526 74.741C165.679 74.4058 164.198 72.83 163.692 71.0248C163.18 69.2197 163.545 67.244 164.392 65.5682Z" fill="#263238"/>
</svg>
