<svg width="36" height="32" viewBox="0 0 36 32" fill="none" xmlns="http://www.w3.org/2000/svg">
<path d="M25.0619 27.3217L22.4813 28.68L23.303 23.6678C24.2178 24.1502 25.2589 24.4242 26.363 24.4242C27.4671 24.4242 28.5081 24.1501 29.423 23.6678L29.742 25.6146L29.7417 25.6146L29.743 25.6199L29.7433 25.622L29.7439 25.6251L30.2447 28.6802L27.6638 27.3217C27.6638 27.3217 27.6638 27.3217 27.6638 27.3217C26.9078 26.9236 25.8178 26.9236 25.0619 27.3217C25.0619 27.3217 25.0619 27.3217 25.0619 27.3217ZM31.5085 21.9415C32.4074 20.816 32.9465 19.3903 32.9465 17.8409C32.9465 14.2106 29.9933 11.2574 26.363 11.2574C22.7328 11.2574 19.7796 14.2106 19.7796 17.8409C19.7796 19.3903 20.3186 20.8157 21.2175 21.9415L20.8434 24.2238H2.49364C2.35579 24.2238 2.2374 24.1054 2.2374 23.9675V2.92723C2.2374 2.78938 2.35579 2.671 2.49364 2.671H33.5064C33.6442 2.671 33.7626 2.78938 33.7626 2.92723V23.9675C33.7626 24.1054 33.6442 24.2238 33.5064 24.2238H31.8827L31.5085 21.9415ZM33.5064 0.333594H2.49364C1.06349 0.333594 -0.1 1.49708 -0.1 2.92723V23.9675C-0.1 25.3977 1.06349 26.5612 2.49364 26.5612H20.4599L19.9329 29.7751C19.8251 30.4326 20.0418 31.0412 20.5279 31.3911C21.0138 31.741 21.6592 31.7544 22.2489 31.4436C22.2489 31.4436 22.249 31.4436 22.249 31.4436L26.1496 29.3905C26.1498 29.3904 26.1499 29.3903 26.15 29.3903C26.1634 29.3835 26.1902 29.3752 26.2308 29.3689C26.27 29.3628 26.3159 29.3596 26.3628 29.3596C26.4097 29.3596 26.4556 29.3628 26.4948 29.3689C26.5354 29.3752 26.5622 29.3835 26.5756 29.3903C26.5757 29.3903 26.5759 29.3904 26.576 29.3905L30.4767 31.4436C30.7566 31.591 31.0489 31.6656 31.3315 31.6656C31.6443 31.6656 31.9437 31.574 32.1979 31.391C32.6838 31.041 32.9005 30.4324 32.7928 29.7748L32.266 26.561H33.5065C34.9367 26.561 36.1001 25.3976 36.1001 23.9674V2.92723C36.1 1.49694 34.9365 0.333594 33.5064 0.333594ZM26.3629 22.0869C24.0218 22.0869 22.1168 20.182 22.1168 17.8409C22.1168 15.4998 24.0218 13.5948 26.3629 13.5948C28.704 13.5948 30.6089 15.4998 30.6089 17.8409C30.6089 20.182 28.704 22.0869 26.3629 22.0869Z" fill="#90C63E" stroke="#90C63E" stroke-width="0.2"/>
<path d="M29.7262 6.48398H5.5023C4.85672 6.48398 4.33359 7.00711 4.33359 7.65269C4.33359 8.29827 4.85672 8.82139 5.5023 8.82139H29.7262C30.3718 8.82139 30.8949 8.29827 30.8949 7.65269C30.8949 7.00711 30.3718 6.48398 29.7262 6.48398Z" fill="#90C63E" stroke="#90C63E" stroke-width="0.2"/>
<path d="M15.7618 12.2789H5.5023C4.85672 12.2789 4.33359 12.802 4.33359 13.4476C4.33359 14.0932 4.85672 14.6163 5.5023 14.6163H15.7618C16.4074 14.6163 16.9305 14.0932 16.9305 13.4476C16.9305 12.802 16.4074 12.2789 15.7618 12.2789Z" fill="#90C63E" stroke="#90C63E" stroke-width="0.2"/>
</svg>
