<svg width="40" height="40" viewBox="0 0 40 40" fill="none" xmlns="http://www.w3.org/2000/svg">
<path d="M19.9987 39.1663C9.41295 39.1663 0.832031 30.5854 0.832031 19.9997C0.832031 9.41393 9.41295 0.833008 19.9987 0.833008C30.5844 0.833008 39.1654 9.41393 39.1654 19.9997C39.1654 30.5854 30.5844 39.1663 19.9987 39.1663ZM15.6095 34.6948C13.7186 30.6838 12.6231 26.3443 12.3838 21.9163H4.7842C5.15715 24.8659 6.37871 27.6437 8.30045 29.9121C10.2222 32.1806 12.7614 33.8421 15.6095 34.6948V34.6948ZM16.2229 21.9163C16.5123 26.5911 17.8482 30.9822 19.9987 34.8577C22.2073 30.8797 23.4975 26.4578 23.7745 21.9163H16.2229V21.9163ZM35.2132 21.9163H27.6136C27.3743 26.3443 26.2788 30.6838 24.3879 34.6948C27.236 33.8421 29.7752 32.1806 31.6969 29.9121C33.6187 27.6437 34.8402 24.8659 35.2132 21.9163V21.9163ZM4.7842 18.083H12.3838C12.6231 13.6551 13.7186 9.31557 15.6095 5.30459C12.7614 6.15728 10.2222 7.81878 8.30045 10.0872C6.37871 12.3557 5.15715 15.1335 4.7842 18.083V18.083ZM16.2248 18.083H23.7726C23.4961 13.5417 22.2066 9.11978 19.9987 5.14167C17.7901 9.11962 16.4999 13.5415 16.2229 18.083H16.2248ZM24.3879 5.30459C26.2788 9.31557 27.3743 13.6551 27.6136 18.083H35.2132C34.8402 15.1335 33.6187 12.3557 31.6969 10.0872C29.7752 7.81878 27.236 6.15728 24.3879 5.30459V5.30459Z" fill="#90C63E"/>
</svg>
