<svg width="32" height="33" viewBox="0 0 32 33" fill="none" xmlns="http://www.w3.org/2000/svg">
<path d="M8.08464 6.91634V2.16634C8.08464 1.74641 8.25145 1.34369 8.54838 1.04676C8.84532 0.749823 9.24804 0.583008 9.66797 0.583008H22.3346C22.7546 0.583008 23.1573 0.749823 23.4542 1.04676C23.7512 1.34369 23.918 1.74641 23.918 2.16634V6.91634H30.2513C30.6712 6.91634 31.074 7.08316 31.3709 7.38009C31.6678 7.67702 31.8346 8.07975 31.8346 8.49967V30.6663C31.8346 31.0863 31.6678 31.489 31.3709 31.7859C31.074 32.0829 30.6712 32.2497 30.2513 32.2497H1.7513C1.33138 32.2497 0.928649 32.0829 0.631716 31.7859C0.334784 31.489 0.167969 31.0863 0.167969 30.6663V8.49967C0.167969 8.07975 0.334784 7.67702 0.631716 7.38009C0.928649 7.08316 1.33138 6.91634 1.7513 6.91634H8.08464ZM28.668 19.583H3.33464V29.083H28.668V19.583ZM28.668 10.083H3.33464V16.4163H8.08464V13.2497H11.2513V16.4163H20.7513V13.2497H23.918V16.4163H28.668V10.083ZM11.2513 3.74967V6.91634H20.7513V3.74967H11.2513Z" fill="#90C63E"/>
</svg>
