<svg width="38" height="38" viewBox="0 0 38 38" fill="none" xmlns="http://www.w3.org/2000/svg">
<path d="M19.0013 4.29278C10.9011 4.29278 4.33464 10.8228 4.33464 18.878C4.33464 26.9331 10.9011 33.4632 19.0013 33.4632C27.1015 33.4632 33.668 26.9331 33.668 18.878C33.668 10.8228 27.1015 4.29278 19.0013 4.29278ZM0.667969 18.878C0.667969 8.809 8.87608 0.646484 19.0013 0.646484C29.1265 0.646484 37.3346 8.809 37.3346 18.878C37.3346 28.9469 29.1265 37.1095 19.0013 37.1095C8.87608 37.1095 0.667969 28.9469 0.667969 18.878ZM19.0013 7.93908C20.0138 7.93908 20.8346 8.75533 20.8346 9.76223V18.1228L25.7977 23.0583C26.5136 23.7702 26.5136 24.9246 25.7977 25.6366C25.0817 26.3486 23.9209 26.3486 23.2049 25.6366L17.7049 20.1671C17.3611 19.8252 17.168 19.3615 17.168 18.878V9.76223C17.168 8.75533 17.9888 7.93908 19.0013 7.93908Z" fill="#90C63E"/>
</svg>
