<svg width="91" height="91" viewBox="0 0 91 91" fill="none" xmlns="http://www.w3.org/2000/svg">
<ellipse cx="45.5" cy="45.3312" rx="45.5" ry="45.2472" fill="#EFF7E4"/>
<path d="M46.0013 30.2493C37.9011 30.2493 31.3346 36.7793 31.3346 44.8345C31.3346 52.8897 37.9011 59.4197 46.0013 59.4197C54.1015 59.4197 60.668 52.8897 60.668 44.8345C60.668 36.7793 54.1015 30.2493 46.0013 30.2493ZM27.668 44.8345C27.668 34.7655 35.8761 26.603 46.0013 26.603C56.1265 26.603 64.3346 34.7655 64.3346 44.8345C64.3346 54.9035 56.1265 63.066 46.0013 63.066C35.8761 63.066 27.668 54.9035 27.668 44.8345ZM46.0013 33.8956C47.0138 33.8956 47.8346 34.7119 47.8346 35.7188V44.0793L52.7977 49.0148C53.5136 49.7268 53.5136 50.8811 52.7977 51.5931C52.0817 52.3051 50.9209 52.3051 50.2049 51.5931L44.7049 46.1237C44.3611 45.7818 44.168 45.318 44.168 44.8345V35.7188C44.168 34.7119 44.9888 33.8956 46.0013 33.8956Z" fill="#90C63E"/>
</svg>
