<svg width="91" height="91" viewBox="0 0 91 91" fill="none" xmlns="http://www.w3.org/2000/svg">
<ellipse cx="45.5" cy="45.3312" rx="45.5" ry="45.2472" fill="#EFF7E4"/>
<g clip-path="url(#clip0)">
<path d="M46 61.0604L55.075 52.0358C56.8697 50.2509 58.0918 47.977 58.5869 45.5014C59.0819 43.0259 58.8277 40.4599 57.8563 38.128C56.885 35.7961 55.2401 33.8031 53.1297 32.4008C51.0193 30.9986 48.5381 30.2501 46 30.2501C43.4619 30.2501 40.9807 30.9986 38.8703 32.4008C36.7599 33.8031 35.115 35.7961 34.1437 38.128C33.1723 40.4599 32.9181 43.0259 33.4132 45.5014C33.9082 47.977 35.1304 50.2509 36.925 52.0358L46 61.0604ZM46 66.2163L34.3327 54.6137C32.0251 52.319 30.4537 49.3953 29.817 46.2124C29.1804 43.0295 29.5072 39.7303 30.756 36.7321C32.0049 33.7339 34.1197 31.1713 36.8331 29.3683C39.5465 27.5654 42.7366 26.603 46 26.603C49.2634 26.603 52.4535 27.5654 55.1669 29.3683C57.8803 31.1713 59.9952 33.7339 61.244 36.7321C62.4929 39.7303 62.8196 43.0295 62.183 46.2124C61.5463 49.3953 59.9749 52.319 57.6673 54.6137L46 66.2163V66.2163ZM46 46.6575C46.9725 46.6575 47.9051 46.2734 48.5927 45.5895C49.2804 44.9057 49.6667 43.9783 49.6667 43.0112C49.6667 42.0442 49.2804 41.1167 48.5927 40.4329C47.9051 39.7491 46.9725 39.3649 46 39.3649C45.0275 39.3649 44.0949 39.7491 43.4073 40.4329C42.7197 41.1167 42.3333 42.0442 42.3333 43.0112C42.3333 43.9783 42.7197 44.9057 43.4073 45.5895C44.0949 46.2734 45.0275 46.6575 46 46.6575ZM46 50.3038C44.0551 50.3038 42.1898 49.5355 40.8146 48.1679C39.4393 46.8002 38.6667 44.9453 38.6667 43.0112C38.6667 41.0771 39.4393 39.2222 40.8146 37.8546C42.1898 36.487 44.0551 35.7186 46 35.7186C47.9449 35.7186 49.8102 36.487 51.1855 37.8546C52.5607 39.2222 53.3333 41.0771 53.3333 43.0112C53.3333 44.9453 52.5607 46.8002 51.1855 48.1679C49.8102 49.5355 47.9449 50.3038 46 50.3038Z" fill="#90C63E"/>
</g>
<defs>
<clipPath id="clip0">
<rect width="44" height="43.7556" fill="white" transform="translate(24 22.9565)"/>
</clipPath>
</defs>
</svg>
