<svg width="31" height="31" viewBox="0 0 31 31" fill="none" xmlns="http://www.w3.org/2000/svg">
<path d="M29.231 0.708008H0.886012C0.398854 0.708008 0.00390625 1.10076 0.00390625 1.58521V29.7727C0.00390625 30.2572 0.398854 30.6499 0.886012 30.6499H8.00167C8.48882 30.6499 8.88377 30.2572 8.88377 29.7727C8.88377 26.1949 7.53768 22.4948 5.64891 19.394C6.5693 19.9737 7.77026 20.8999 9.25978 22.3812C9.43197 22.5525 9.65773 22.6381 9.88349 22.6381C10.6623 22.6381 11.0646 21.6948 10.5072 21.1407C8.80703 19.45 7.41477 18.3932 6.31602 17.7351C10.0453 15.8314 11.1564 10.4156 11.2385 6.2637H18.8784C18.9605 10.414 20.071 15.831 23.8009 17.7351C22.7022 18.3932 21.31 19.4499 19.6098 21.1407C19.2653 21.4832 19.2653 22.0387 19.6098 22.3812C19.9543 22.7238 20.5127 22.7238 20.8572 22.3812C22.3468 20.9 23.5477 19.9737 24.4681 19.3941C22.5803 22.4932 21.2333 26.1934 21.2333 29.7727C21.2333 30.2572 21.6282 30.6499 22.1154 30.6499H29.231C29.7182 30.6499 30.1131 30.2572 30.1131 29.7727C30.1131 28.0232 30.1131 2.84646 30.1131 1.58521C30.1131 1.10076 29.7182 0.708008 29.231 0.708008ZM1.76812 2.46242H28.3489V4.50923C27.4164 4.50923 2.70039 4.50923 1.76812 4.50923V2.46242ZM7.08986 28.8955H1.76812V18.4276H2.80765C3.69811 19.6028 6.7589 23.9612 7.08986 28.8955ZM6.75296 15.2427C5.84703 16.1778 4.75352 16.6447 3.41472 16.6706C3.25694 16.6673 3.96791 16.6731 1.76812 16.6731V6.26364H9.47078C9.42485 8.17542 9.06784 12.8533 6.75296 15.2427ZM23.3641 15.2427C21.0492 12.8533 20.6922 8.17542 20.6462 6.26364H28.3489V16.6731C26.2762 16.6731 26.8748 16.6683 26.7625 16.6707C25.423 16.6451 24.2703 16.1781 23.3641 15.2427ZM28.3489 28.8955H23.0272C23.3581 23.9612 26.4189 19.6028 27.3094 18.4276H28.3489V28.8955Z" fill="black" fill-opacity="0.87"/>
</svg>
