<svg width="91" height="91" viewBox="0 0 91 91" fill="none" xmlns="http://www.w3.org/2000/svg">
<ellipse cx="45.5" cy="45.3312" rx="45.5" ry="45.2472" fill="#EFF7E4"/>
<path d="M42.3346 30.2493C38.2845 30.2493 35.0013 33.5143 35.0013 37.5419C35.0013 41.5695 38.2845 44.8345 42.3346 44.8345C46.3847 44.8345 49.668 41.5695 49.668 37.5419C49.668 33.5143 46.3847 30.2493 42.3346 30.2493ZM31.3346 37.5419C31.3346 31.5005 36.2595 26.603 42.3346 26.603C48.4098 26.603 53.3346 31.5005 53.3346 37.5419C53.3346 43.5833 48.4098 48.4808 42.3346 48.4808C36.2595 48.4808 31.3346 43.5833 31.3346 37.5419ZM54.8534 29.807C55.5694 29.095 56.7302 29.095 57.4462 29.807C61.7419 34.0789 61.7419 41.005 57.4462 45.2769C56.7302 45.9889 55.5694 45.9889 54.8534 45.2769C54.1375 44.5649 54.1375 43.4105 54.8534 42.6986C57.7173 39.8506 57.7173 35.2332 54.8534 32.3853C54.1375 31.6733 54.1375 30.5189 54.8534 29.807ZM56.1394 53.5081C56.3849 52.5312 57.3803 51.9373 58.3626 52.1815C60.7971 52.7868 62.3381 54.3348 63.2244 56.0975C64.082 57.8032 64.3346 59.7062 64.3346 61.2428C64.3346 62.2497 63.5138 63.066 62.5013 63.066C61.4888 63.066 60.668 62.2497 60.668 61.2428C60.668 60.0448 60.4623 58.7573 59.9449 57.7282C59.4561 56.7562 58.7055 56.0253 57.4733 55.719C56.491 55.4748 55.8938 54.4849 56.1394 53.5081ZM35.918 55.7734C33.609 55.7734 31.3346 57.9859 31.3346 61.2428C31.3346 62.2497 30.5138 63.066 29.5013 63.066C28.4888 63.066 27.668 62.2497 27.668 61.2428C27.668 56.4446 31.1393 52.1271 35.918 52.1271H48.7513C53.53 52.1271 57.0013 56.4446 57.0013 61.2428C57.0013 62.2497 56.1805 63.066 55.168 63.066C54.1554 63.066 53.3346 62.2497 53.3346 61.2428C53.3346 57.9859 51.0603 55.7734 48.7513 55.7734H35.918Z" fill="#90C63E"/>
</svg>
