<svg width="151" height="113" viewBox="0 0 151 113" fill="none" xmlns="http://www.w3.org/2000/svg">
<g clip-path="url(#clip0_2961:6083)">
<path d="M115.944 6.75977C114.077 6.75977 112.563 8.27323 112.563 10.14L105.803 24.113H112.563C116.297 24.113 119.324 21.0861 119.324 17.3524V10.14C119.324 8.27323 117.81 6.75977 115.944 6.75977Z" fill="#FAC75A"/>
<path d="M112.563 17.3524V10.14H31.4363C31.4363 8.27323 29.9229 6.75977 28.0561 6.75977C26.1892 6.75977 24.6758 8.27323 24.6758 10.14V17.3524C24.6758 21.0861 27.7025 24.113 31.4363 24.113H61.8589L66.2291 28.4833C67.7595 30.0136 69.8352 30.8736 71.9997 30.8736C74.164 30.8736 76.2397 30.0139 77.7703 28.4833L82.1406 24.113H105.803C109.536 24.113 112.563 21.0863 112.563 17.3524Z" fill="#FCE06F"/>
<path d="M105.802 0L92.2812 8.67673L105.802 17.3535H112.563V1.69014C112.563 0.756732 111.806 0 110.873 0H105.802Z" fill="#608EBF"/>
<path d="M92.2828 0L78.7617 8.67673L92.2828 17.3532H105.804V0H92.2828Z" fill="#60B5D6"/>
<path d="M85.5211 0L72 8.67673L85.5211 17.3532H92.2817V0H85.5211Z" fill="#FBF0A8"/>
<path d="M51.7184 0L38.1973 8.67673L51.7184 17.3532H85.5212V0H51.7184Z" fill="#FFFBDB"/>
<path d="M44.9592 0L34.8184 8.67673L44.9592 17.3532H51.7198V0H44.9592Z" fill="#608EBF"/>
<path d="M31.4375 1.69014V17.3532H44.9586V0H33.1276C32.1942 0 31.4375 0.756732 31.4375 1.69014Z" fill="#60B5D6"/>
<path d="M121.24 37.5977L107.719 51.1188L121.24 64.6399H126.31C127.244 64.6399 128 63.8832 128 62.9498V39.2878C128 38.3544 127.244 37.5977 126.31 37.5977H121.24Z" fill="#F593AD"/>
<path d="M16 39.2878V62.9498C16 63.8832 16.7567 64.6399 17.6901 64.6399H107.718L121.239 51.1542V37.5977H17.6901C16.7567 37.5977 16 38.3544 16 39.2878Z" fill="#FAAAC0"/>
<path d="M114.466 44.3926H107.705L114.481 61.2963C118.156 61.2949 121.242 57.9158 121.242 51.2014C121.242 47.4671 118.2 44.3836 114.466 44.3926Z" fill="#F25E91"/>
<path d="M114.482 51.2012C114.473 47.4671 111.44 44.3836 107.706 44.3926H29.5358C25.8017 44.3836 22.7617 47.4671 22.7617 51.2012C22.7617 57.9171 25.7882 61.2963 29.5223 61.2963H114.48C114.482 61.2947 114.392 54.8539 114.482 51.2012Z" fill="#F57D9F"/>
<path d="M72 30.873V112C94.4025 112 112.563 93.8389 112.563 71.4364C112.563 49.0339 94.4025 30.873 72 30.873Z" fill="#FAC75A"/>
<path d="M105.804 71.4364C105.804 49.0339 90.6697 30.873 72.0009 30.873C49.5984 30.873 31.4375 49.0339 31.4375 71.4364C31.4375 93.8389 49.5984 112 72.0009 112C90.6697 112 105.804 93.8389 105.804 71.4364Z" fill="#FADC60"/>
<path d="M71.9993 98.479C86.9343 98.479 99.0415 86.3718 99.0415 71.4368C99.0415 56.5018 86.9343 44.3945 71.9993 44.3945C57.0643 44.3945 44.957 56.5018 44.957 71.4368C44.957 86.3718 57.0643 98.479 71.9993 98.479Z" fill="#FBF0A8"/>
<path d="M72.0004 91.7177C83.2017 91.7177 92.2821 82.6372 92.2821 71.436C92.2821 60.2347 83.2017 51.1543 72.0004 51.1543C60.7992 51.1543 51.7188 60.2347 51.7188 71.436C51.7188 82.6372 60.7992 91.7177 72.0004 91.7177Z" fill="#FFFBDB"/>
<path d="M114.479 57.9156L107.719 64.6762V84.9579H114.479C118.213 84.9579 121.24 81.9314 121.24 78.1973V51.3105C121.15 54.9635 118.155 57.9156 114.479 57.9156Z" fill="#F57D9F"/>
<path d="M114.48 57.9149V78.1966C114.48 81.9306 111.454 84.9571 107.719 84.9571H29.5223C25.7882 84.9571 22.7617 81.9306 22.7617 78.1966V51.1543C22.7617 54.8884 25.7882 57.9149 29.5223 57.9149H114.48Z" fill="#F593AD"/>
</g>
<path d="M37.0279 76.8709C36.1092 76.8709 35.3032 76.6802 34.6099 76.2989C33.9252 75.9176 33.3922 75.3716 33.0109 74.6609C32.6382 73.9502 32.4519 73.1182 32.4519 72.1649C32.4519 71.2202 32.6382 70.3926 33.0109 69.6819C33.3922 68.9712 33.9252 68.4252 34.6099 68.0439C35.3032 67.6626 36.1092 67.4719 37.0279 67.4719C38.1286 67.4719 39.0949 67.7622 39.9269 68.3429C40.0742 68.4469 40.1782 68.5596 40.2389 68.6809C40.3082 68.8022 40.3429 68.9582 40.3429 69.1489C40.3429 69.4176 40.2649 69.6472 40.1089 69.8379C39.9616 70.0199 39.7796 70.1109 39.5629 70.1109C39.4329 70.1109 39.3159 70.0936 39.2119 70.0589C39.1079 70.0156 38.9866 69.9506 38.8479 69.8639C38.5446 69.6819 38.2586 69.5519 37.9899 69.4739C37.7212 69.3959 37.4439 69.3569 37.1579 69.3569C36.3866 69.3569 35.8102 69.5909 35.4289 70.0589C35.0562 70.5182 34.8699 71.2202 34.8699 72.1649C34.8699 73.1182 35.0562 73.8289 35.4289 74.2969C35.8102 74.7562 36.3866 74.9859 37.1579 74.9859C37.4179 74.9859 37.6692 74.9469 37.9119 74.8689C38.1546 74.7822 38.4666 74.6522 38.8479 74.4789C39.0299 74.3836 39.1642 74.3186 39.2509 74.2839C39.3376 74.2492 39.4416 74.2319 39.5629 74.2319C39.7796 74.2319 39.9616 74.3272 40.1089 74.5179C40.2649 74.6999 40.3429 74.9252 40.3429 75.1939C40.3429 75.3759 40.3082 75.5319 40.2389 75.6619C40.1782 75.7832 40.0742 75.8959 39.9269 75.9999C39.0949 76.5806 38.1286 76.8709 37.0279 76.8709ZM46.2983 76.8709C45.3623 76.8709 44.5477 76.6802 43.8543 76.2989C43.1697 75.9089 42.641 75.3629 42.2683 74.6609C41.8957 73.9502 41.7093 73.1182 41.7093 72.1649C41.7093 71.2116 41.8957 70.3839 42.2683 69.6819C42.641 68.9712 43.1697 68.4252 43.8543 68.0439C44.5477 67.6626 45.3623 67.4719 46.2983 67.4719C47.2343 67.4719 48.0447 67.6626 48.7293 68.0439C49.4227 68.4252 49.9513 68.9712 50.3153 69.6819C50.688 70.3839 50.8743 71.2116 50.8743 72.1649C50.8743 73.1182 50.688 73.9502 50.3153 74.6609C49.9427 75.3629 49.4097 75.9089 48.7163 76.2989C48.0317 76.6802 47.2257 76.8709 46.2983 76.8709ZM46.2983 75.0379C46.9917 75.0379 47.5333 74.7952 47.9233 74.3099C48.3133 73.8159 48.5083 73.1009 48.5083 72.1649C48.5083 71.2289 48.309 70.5182 47.9103 70.0329C47.5203 69.5476 46.983 69.3049 46.2983 69.3049C45.605 69.3049 45.0633 69.5476 44.6733 70.0329C44.2833 70.5096 44.0883 71.2202 44.0883 72.1649C44.0883 73.1096 44.2833 73.8246 44.6733 74.3099C45.0633 74.7952 45.605 75.0379 46.2983 75.0379ZM59.986 67.5239C60.3153 67.5239 60.584 67.6322 60.792 67.8489C61.0087 68.0656 61.117 68.3472 61.117 68.6939V75.6489C61.117 76.0042 61.013 76.2902 60.805 76.5069C60.597 76.7236 60.3283 76.8319 59.999 76.8319C59.609 76.8319 59.3143 76.7019 59.115 76.4419L55.163 71.5149V75.6489C55.163 76.0042 55.0633 76.2902 54.864 76.5069C54.6647 76.7236 54.396 76.8319 54.058 76.8319C53.7287 76.8319 53.46 76.7236 53.252 76.5069C53.044 76.2902 52.94 76.0042 52.94 75.6489V68.6939C52.94 68.3472 53.044 68.0656 53.252 67.8489C53.46 67.6322 53.7287 67.5239 54.058 67.5239C54.4307 67.5239 54.721 67.6539 54.929 67.9139L58.881 72.8279V68.6939C58.881 68.3386 58.9807 68.0569 59.18 67.8489C59.388 67.6322 59.6567 67.5239 59.986 67.5239ZM70.6049 71.5799C70.8909 71.5799 71.1162 71.6622 71.2809 71.8269C71.4542 71.9829 71.5409 72.1952 71.5409 72.4639V74.7259C71.5409 75.1592 71.5062 75.4929 71.4369 75.7269C71.3762 75.9522 71.2592 76.1299 71.0859 76.2599C70.9212 76.3899 70.6699 76.5026 70.3319 76.5979C69.9939 76.6846 69.6169 76.7496 69.2009 76.7929C68.7935 76.8449 68.4122 76.8709 68.0569 76.8709C67.0602 76.8709 66.1935 76.6846 65.4569 76.3119C64.7289 75.9306 64.1699 75.3889 63.7799 74.6869C63.3899 73.9762 63.1949 73.1356 63.1949 72.1649C63.1949 71.2116 63.3899 70.3839 63.7799 69.6819C64.1699 68.9712 64.7245 68.4252 65.4439 68.0439C66.1632 67.6626 67.0039 67.4719 67.9659 67.4719C68.5725 67.4719 69.1142 67.5456 69.5909 67.6929C70.0762 67.8316 70.5269 68.0482 70.9429 68.3429C71.0902 68.4469 71.1942 68.5596 71.2549 68.6809C71.3242 68.8022 71.3589 68.9582 71.3589 69.1489C71.3589 69.4176 71.2852 69.6472 71.1379 69.8379C70.9905 70.0199 70.8129 70.1109 70.6049 70.1109C70.4662 70.1109 70.3449 70.0936 70.2409 70.0589C70.1455 70.0156 70.0199 69.9462 69.8639 69.8509C69.5432 69.6776 69.2399 69.5519 68.9539 69.4739C68.6765 69.3959 68.3732 69.3569 68.0439 69.3569C67.2205 69.3569 66.6052 69.5866 66.1979 70.0459C65.7992 70.5052 65.5999 71.2116 65.5999 72.1649C65.5999 73.1442 65.8079 73.8722 66.2239 74.3489C66.6485 74.8169 67.2942 75.0509 68.1609 75.0509C68.5769 75.0509 68.9885 75.0076 69.3959 74.9209V73.2179H68.4599C68.1739 73.2179 67.9529 73.1486 67.7969 73.0099C67.6409 72.8626 67.5629 72.6589 67.5629 72.3989C67.5629 72.1389 67.6409 71.9396 67.7969 71.8009C67.9529 71.6536 68.1739 71.5799 68.4599 71.5799H70.6049ZM81.4617 75.2329C81.6177 75.4669 81.6957 75.6879 81.6957 75.8959C81.6957 76.1732 81.5787 76.4072 81.3447 76.5979C81.1194 76.7799 80.855 76.8709 80.5517 76.8709C80.3437 76.8709 80.1487 76.8232 79.9667 76.7279C79.7847 76.6326 79.6287 76.4896 79.4987 76.2989L77.8087 73.8289C77.6874 73.6556 77.5574 73.5299 77.4187 73.4519C77.2887 73.3652 77.1327 73.3219 76.9507 73.3219H76.1057V75.6489C76.1057 76.0129 76.0017 76.3032 75.7937 76.5199C75.5857 76.7279 75.2997 76.8319 74.9357 76.8319C74.5717 76.8319 74.2814 76.7279 74.0647 76.5199C73.8567 76.3032 73.7527 76.0129 73.7527 75.6489V68.6939C73.7527 68.3386 73.848 68.0656 74.0387 67.8749C74.2294 67.6842 74.5024 67.5889 74.8577 67.5889H78.1207C79.23 67.5889 80.062 67.8316 80.6167 68.3169C81.18 68.7936 81.4617 69.4869 81.4617 70.3969C81.4617 71.0902 81.271 71.6796 80.8897 72.1649C80.5084 72.6416 79.971 72.9622 79.2777 73.1269C79.5637 73.1702 79.8107 73.2656 80.0187 73.4129C80.2354 73.5602 80.4477 73.7812 80.6557 74.0759L81.4617 75.2329ZM77.7437 71.5279C78.2724 71.5279 78.6494 71.4456 78.8747 71.2809C79.1087 71.1162 79.2257 70.8476 79.2257 70.4749C79.2257 70.0936 79.1087 69.8206 78.8747 69.6559C78.6494 69.4826 78.2724 69.3959 77.7437 69.3959H76.0797V71.5279H77.7437ZM92.2295 75.2849C92.3075 75.4496 92.3465 75.6099 92.3465 75.7659C92.3465 76.0519 92.2295 76.2946 91.9955 76.4939C91.7701 76.6932 91.5101 76.7929 91.2155 76.7929C91.0161 76.7929 90.8341 76.7409 90.6695 76.6369C90.5048 76.5329 90.3748 76.3769 90.2795 76.1689L89.6945 74.8559H85.4825L84.8845 76.1689C84.7891 76.3769 84.6548 76.5329 84.4815 76.6369C84.3168 76.7409 84.1348 76.7929 83.9355 76.7929C83.6408 76.7929 83.3721 76.6932 83.1295 76.4939C82.8955 76.2946 82.7785 76.0519 82.7785 75.7659C82.7785 75.6099 82.8175 75.4496 82.8955 75.2849L86.3275 68.2389C86.4401 68.0049 86.6048 67.8272 86.8215 67.7059C87.0468 67.5759 87.2938 67.5109 87.5625 67.5109C87.8225 67.5109 88.0651 67.5759 88.2905 67.7059C88.5158 67.8272 88.6848 68.0049 88.7975 68.2389L92.2295 75.2849ZM86.2885 73.0619H88.8885L87.5885 70.1629L86.2885 73.0619ZM96.0768 76.8189C95.7128 76.8189 95.4181 76.7149 95.1928 76.5069C94.9761 76.2902 94.8678 76.0042 94.8678 75.6489V69.5259H93.0348C92.6534 69.5259 92.3674 69.4479 92.1768 69.2919C91.9948 69.1272 91.9037 68.8802 91.9037 68.5509C91.9037 68.2216 91.9948 67.9789 92.1768 67.8229C92.3674 67.6669 92.6534 67.5889 93.0348 67.5889H99.1188C99.5001 67.5889 99.7818 67.6669 99.9638 67.8229C100.154 67.9789 100.25 68.2216 100.25 68.5509C100.25 68.8802 100.154 69.1272 99.9638 69.2919C99.7818 69.4479 99.5001 69.5259 99.1188 69.5259H97.2858V75.6489C97.2858 76.0042 97.1731 76.2902 96.9478 76.5069C96.7311 76.7149 96.4408 76.8189 96.0768 76.8189ZM104.868 76.8709C104.175 76.8709 103.529 76.7972 102.931 76.6499C102.342 76.4939 101.857 76.2816 101.475 76.0129C101.328 75.9002 101.22 75.7832 101.15 75.6619C101.09 75.5406 101.059 75.3846 101.059 75.1939C101.059 74.9339 101.137 74.7086 101.293 74.5179C101.449 74.3272 101.631 74.2319 101.839 74.2319C101.952 74.2319 102.06 74.2492 102.164 74.2839C102.268 74.3186 102.398 74.3836 102.554 74.4789C102.91 74.6782 103.261 74.8212 103.607 74.9079C103.963 74.9946 104.361 75.0379 104.803 75.0379C105.315 75.0379 105.7 74.9642 105.96 74.8169C106.229 74.6609 106.363 74.4356 106.363 74.1409C106.363 73.9416 106.238 73.7726 105.986 73.6339C105.744 73.4866 105.276 73.3436 104.582 73.2049C103.724 73.0229 103.053 72.8062 102.567 72.5549C102.082 72.3036 101.74 72.0089 101.54 71.6709C101.35 71.3242 101.254 70.9082 101.254 70.4229C101.254 69.8682 101.419 69.3656 101.748 68.9149C102.078 68.4642 102.528 68.1132 103.1 67.8619C103.681 67.6019 104.331 67.4719 105.05 67.4719C105.683 67.4719 106.246 67.5412 106.74 67.6799C107.234 67.8186 107.685 68.0352 108.092 68.3299C108.248 68.4426 108.357 68.5639 108.417 68.6939C108.487 68.8152 108.521 68.9669 108.521 69.1489C108.521 69.4089 108.443 69.6342 108.287 69.8249C108.14 70.0156 107.962 70.1109 107.754 70.1109C107.642 70.1109 107.538 70.0979 107.442 70.0719C107.347 70.0372 107.213 69.9679 107.039 69.8639C106.996 69.8379 106.87 69.7729 106.662 69.6689C106.463 69.5562 106.225 69.4696 105.947 69.4089C105.679 69.3396 105.384 69.3049 105.063 69.3049C104.621 69.3049 104.266 69.3916 103.997 69.5649C103.729 69.7296 103.594 69.9506 103.594 70.2279C103.594 70.3926 103.642 70.5269 103.737 70.6309C103.833 70.7349 104.01 70.8389 104.27 70.9429C104.53 71.0382 104.916 71.1379 105.427 71.2419C106.259 71.4239 106.914 71.6449 107.39 71.9049C107.867 72.1562 108.205 72.4509 108.404 72.7889C108.604 73.1269 108.703 73.5256 108.703 73.9849C108.703 74.5569 108.543 75.0639 108.222 75.5059C107.902 75.9392 107.451 76.2772 106.87 76.5199C106.298 76.7539 105.631 76.8709 104.868 76.8709Z" fill="white"/>
<path d="M113 105.5H113C114.989 105.5 116.897 104.71 118.303 103.303C119.71 101.897 120.5 99.9891 120.5 98C120.5 99.9891 121.29 101.897 122.697 103.303C124.103 104.71 126.011 105.5 128 105.5C127.015 105.5 126.04 105.694 125.13 106.071C124.22 106.448 123.393 107 122.697 107.697C122 108.393 121.448 109.22 121.071 110.13C120.694 111.04 120.5 112.015 120.5 113C120.5 111.011 119.71 109.103 118.303 107.697C116.897 106.29 114.989 105.5 113 105.5H113Z" fill="#F0C033"/>
<path d="M132 19.5H132C134.52 19.5 136.936 18.4991 138.718 16.7175C140.499 14.9359 141.5 12.5196 141.5 10C141.5 12.5196 142.501 14.9359 144.282 16.7175C146.064 18.4991 148.48 19.5 151 19.5C149.752 19.5 148.517 19.7457 147.365 20.2231C146.212 20.7006 145.165 21.4003 144.282 22.2825C143.4 23.1646 142.701 24.2119 142.223 25.3645C141.746 26.5171 141.5 27.7524 141.5 29C141.5 26.4804 140.499 24.0641 138.718 22.2825C136.936 20.5009 134.52 19.5 132 19.5H132Z" fill="#F0C033"/>
<path d="M0 92.5H1.0848e-05C2.78478 92.5 5.45549 91.3937 7.42462 89.4246C9.39375 87.4555 10.5 84.7848 10.5 82C10.5 84.7848 11.6063 87.4555 13.5754 89.4246C15.5445 91.3938 18.2152 92.5 21 92.5C19.6211 92.5 18.2557 92.7716 16.9818 93.2993C15.7079 93.8269 14.5504 94.6004 13.5754 95.5754C12.6004 96.5504 11.8269 97.7079 11.2993 98.9818C10.7716 100.256 10.5 101.621 10.5 103C10.5 100.215 9.39375 97.5445 7.42462 95.5754C5.45549 93.6062 2.78478 92.5 1.0848e-05 92.5H0Z" fill="#F0C033"/>
<defs>
<clipPath id="clip0_2961:6083">
<rect width="112" height="112" fill="white" transform="translate(16)"/>
</clipPath>
</defs>
</svg>
