<svg width="151" height="67" viewBox="0 0 151 67" fill="none" xmlns="http://www.w3.org/2000/svg">
<g clip-path="url(#clip0)">
<path d="M41.1731 66.2921C45.1009 65.751 47.2764 63.206 47.0735 59.4427C46.9441 57.0513 45.5766 55.6758 43.3801 54.9322C44.0796 54.3981 44.8176 54.0001 45.3562 53.4241C45.8166 52.9267 46.1742 52.3435 46.4087 51.708C46.6431 51.0725 46.7497 50.3971 46.7224 49.7204C46.6951 49.0438 46.5345 48.3791 46.2496 47.7644C45.9648 47.1498 45.5614 46.5972 45.0624 46.1383C44.5336 45.6483 43.9065 45.2758 43.2227 45.0456C40.2988 43.9983 37.2384 44.302 34.2165 44.2881C29.897 44.2636 29.897 44.2881 29.897 48.596C29.897 54.063 29.8551 59.5334 29.925 65.0039C29.925 66.2676 29.6382 66.512 28.3791 66.3584C14.9904 64.7106 3.33308 53.5498 0.61898 39.6939C-2.72818 22.5878 7.78197 5.71558 24.6472 1.23309C35.2273 -1.55974 44.933 0.468549 53.7329 6.90602C54.7542 7.65311 54.7542 8.10345 53.9497 9.03905C51.2531 12.181 48.6369 15.3683 46.0452 18.587C45.3912 19.4039 44.9295 19.5087 44.1111 18.8105C42.754 17.6479 41.313 16.5971 39.6657 15.3194C38.6164 23.1079 37.6161 30.6206 36.5809 38.3603L58.0139 29.5594C56.398 28.2991 54.957 27.1855 53.53 26.0683C53.1068 25.7192 52.4808 25.5167 53.1418 24.7487C55.8384 21.5544 58.4791 18.3147 61.1862 15.0157C64.3551 19.7004 66.2266 25.1382 66.6109 30.7777C67.1775 38.4964 66.6913 46.2291 66.9222 54.3806C66.3905 53.5463 66.0793 53.0296 65.74 52.5374C63.4911 49.2558 60.1859 48.6972 56.6009 49.2244C53.4531 49.6747 51.2706 51.5075 50.4067 54.618C49.4589 58.0253 49.6617 61.3173 52.0016 64.1835C52.8515 65.2308 53.8728 66.107 55.2858 66.3444C55.4537 66.9763 54.936 66.8087 54.6737 66.8122C50.3927 66.8262 46.1105 66.8262 41.8272 66.8122C41.5369 66.7738 41.0892 66.8751 41.1731 66.2921Z" fill="#90C63E"/>
<path d="M112.684 52.0164C112.684 49.8101 112.719 47.6003 112.667 45.3835C112.639 44.3746 112.898 43.9661 114.017 43.9382C118.721 43.8125 118.718 43.7741 118.721 48.4451C118.721 51.5871 118.676 54.729 118.759 57.8709C118.829 60.5381 120.277 61.746 122.775 61.4772C124.244 61.3201 125.076 60.5451 125.44 59.1382C125.874 57.4764 125.685 55.7868 125.702 54.1076C125.737 51.203 125.744 48.295 125.702 45.38C125.702 44.385 125.891 43.9591 127.028 43.9347C131.707 43.8335 131.704 43.7916 131.704 48.473C131.704 51.2659 131.638 54.0587 131.704 56.8515C131.924 64.2316 126.993 67.1885 120.512 66.4938C115.29 65.9352 112.817 63.0586 112.695 57.7662C112.649 55.8496 112.695 53.926 112.695 52.013L112.684 52.0164Z" fill="#90C63E"/>
<path d="M96.2983 56.8061C98.166 54.4322 99.8308 52.3655 101.429 50.2465C101.65 49.9111 101.958 49.6423 102.32 49.4694C102.683 49.2965 103.086 49.2259 103.486 49.2655C105.151 49.3318 106.815 49.2655 108.879 49.2655C107.053 51.5102 105.528 53.528 103.836 55.3957C102.954 56.3697 103.028 57.047 103.72 58.0629C105.57 60.7824 107.305 63.5822 109.253 66.609C106.98 66.609 104.972 66.588 102.958 66.609C102.356 66.609 102.174 66.2284 101.936 65.834C101.093 64.4375 100.261 63.0411 99.3867 61.6831C99.1313 61.2816 98.9774 60.4717 98.4248 60.6707C97.7253 60.929 96.9244 61.3305 96.697 62.2103C96.6703 62.4969 96.6644 62.7851 96.6795 63.0725C96.5711 64.2106 97.1517 66.1237 96.4417 66.3402C94.7909 66.8429 92.8987 66.5775 91.1009 66.5601C90.4854 66.5601 90.6777 65.9736 90.6742 65.614C90.6742 58.3527 90.6649 51.0901 90.6463 43.8265C90.6463 42.9153 91.0135 42.7791 91.7795 42.8106C93.3429 42.8769 95.375 42.2939 96.3263 43.0654C97.3511 43.8788 96.6306 45.9979 96.6446 47.5409C96.697 50.5223 96.8334 53.4896 96.2983 56.8061Z" fill="black"/>
<path d="M135.474 59.9481C137.325 60.5939 138.916 61.3166 140.661 61.5156C140.948 61.547 141.231 61.6482 141.518 61.6517C142.844 61.6762 144.474 61.9729 144.886 60.2902C145.278 58.7053 143.641 58.4295 142.62 57.8709C141.298 57.1483 139.888 56.5723 138.598 55.7763C136.191 54.331 135.307 52.0688 135.614 49.3772C135.922 46.6857 137.601 45.003 140.161 44.2245C143.54 43.2016 146.831 43.6554 150.063 44.8878C150.171 44.9297 150.336 44.9331 150.381 45.01C151.294 46.539 149.779 47.5759 149.573 48.885C149.444 49.6949 149.013 49.88 148.205 49.5204C146.836 48.8677 145.344 48.5108 143.827 48.4731C142.858 48.4731 141.847 48.6371 141.599 49.7368C141.378 50.7108 142.246 51.1332 142.966 51.5242C144.411 52.2748 145.89 52.9556 147.342 53.6922C150.091 55.0886 151.315 57.3473 150.93 60.4124C150.58 63.2611 148.832 65.0136 146.208 65.8968C142.942 66.9965 139.678 66.7452 136.464 65.5792C135.961 65.3976 135.464 65.23 135.464 64.5318C135.474 63.09 135.474 61.6029 135.474 59.9481Z" fill="#90C63E"/>
<path d="M87.271 57.9163C87.2955 63.502 84.0742 66.9022 78.688 66.9336C73.3822 66.9686 70.0281 63.5229 69.9791 57.9931C69.9301 52.362 73.1269 49.0281 78.5446 49.0037C83.8819 48.9792 87.236 52.4214 87.271 57.9163Z" fill="black"/>
<path d="M61.1128 58.049C61.0708 59.1243 61.1128 60.1192 60.6826 61.0478C60.2873 61.9066 59.6788 62.4442 58.6715 62.4442C57.6012 62.4442 56.8458 61.973 56.5205 61.0024C55.8774 59.0592 55.8554 56.9646 56.4575 55.0083C56.5694 54.5494 56.8358 54.1426 57.212 53.8561C57.5882 53.5695 58.0515 53.4205 58.5246 53.4339C59.6193 53.4094 60.3643 53.961 60.756 55.0328C61.1477 56.1045 61.0638 57.0995 61.1128 58.049Z" fill="#91C63E"/>
<path d="M35.878 59.5536C36.0214 58.4819 35.3079 57.068 37.3959 57.1867C39.8127 57.3298 40.855 57.9443 40.8305 59.6584C40.806 61.3166 39.8512 61.8647 37.4868 62.0323C35.1225 62.1998 36.1228 60.5102 35.878 59.5536Z" fill="#93C742"/>
<path d="M35.906 50.7352C35.8396 49.6635 35.6577 48.6406 37.3855 48.7802C39.484 48.9373 40.4633 49.4784 40.4319 50.819C40.4004 52.1596 39.3616 52.7845 37.361 52.9136C35.4408 53.0428 35.955 51.7371 35.906 50.7352Z" fill="#93C742"/>
<path d="M61.9067 66.2983C64.327 65.82 65.5756 63.9872 66.9677 62.109V66.4938C65.2643 67.0628 63.5401 66.8149 61.8158 66.6334C61.8403 66.5202 61.8706 66.4083 61.9067 66.2983Z" fill="#97CA4A"/>
<path d="M41.1733 66.2913C41.2537 66.3716 41.3307 66.5182 41.4146 66.5217C45.9614 66.7172 50.5083 66.6928 55.0551 66.5217C55.1355 66.5217 55.2125 66.3716 55.2894 66.2913L57.1781 66.602C57.2947 66.6788 57.3331 66.7556 57.2935 66.8324C57.255 66.9092 57.2166 66.9441 57.1781 66.9441H32.0377C35.0805 66.5426 38.1444 66.7591 41.1733 66.2913Z" fill="#F0F7E5"/>
<path d="M57.1885 66.9581V66.609C58.7554 66.5147 60.3363 66.8499 61.8892 66.2913C63.5541 67.0105 65.2574 66.6404 66.9537 66.4728C66.5724 67.2444 65.8554 66.9406 65.2749 66.9476C62.5782 66.9825 59.8816 66.9616 57.1885 66.9581Z" fill="#F7FBF2"/>
<path d="M76.0789 57.9128C75.9879 56.8433 76.1483 55.7674 76.5476 54.7708C76.7062 54.3613 76.9898 54.0119 77.3582 53.772C77.7266 53.532 78.1612 53.4137 78.6006 53.4338C79.538 53.4338 80.3179 53.8282 80.6502 54.7534C81.4123 56.8347 81.4023 59.1197 80.6222 61.1943C80.2725 62.1125 79.5275 62.4651 78.5552 62.4476C78.1148 62.4582 77.6826 62.3285 77.321 62.0775C76.9594 61.8264 76.6873 61.467 76.5441 61.0512C76.1446 60.056 75.9852 58.9808 76.0789 57.9128Z" fill="#FDFDFD"/>
</g>
<defs>
<clipPath id="clip0">
<rect width="151" height="67" fill="white"/>
</clipPath>
</defs>
</svg>
