<svg width="358" height="370" viewBox="0 0 358 370" fill="none" xmlns="http://www.w3.org/2000/svg">
<mask id="mask0_12991_123293" style="mask-type:alpha" maskUnits="userSpaceOnUse" x="0" y="0" width="358" height="370">
<rect width="358" height="370" rx="5" fill="#EFF7E4"/>
</mask>
<g mask="url(#mask0_12991_123293)">
<path fill-rule="evenodd" clip-rule="evenodd" d="M254.748 0H358V57.0489C353.053 58.2327 347.778 58.3333 342.853 57.2276C331.817 54.737 328.643 42.0719 320.149 36.2531C315.484 33.0589 309.384 31.8527 303.465 31.9085C296.801 31.9644 290.17 33.4163 283.743 34.8682C275.577 36.7221 266.009 37.6045 259.492 32.8802C249.981 25.9892 255.245 17.099 257.459 8.73379C258.441 5.10402 257.244 2.28955 254.748 0Z" fill="#90C63E" fill-opacity="0.15"/>
<path fill-rule="evenodd" clip-rule="evenodd" d="M-3.26799e-08 103.252L-4.54598e-06 -3.46187e-06L57.0489 -5.95555e-06C58.2327 4.94743 58.3333 10.2224 57.2276 15.1473C54.737 26.183 42.0719 29.3571 36.2531 37.8513C33.0589 42.5163 31.8527 48.6159 31.9085 54.5348C31.9644 61.1991 33.4163 67.8296 34.8682 74.2567C36.7221 82.4234 37.6045 91.9907 32.8802 98.5082C25.9892 108.019 17.099 102.755 8.73379 100.541C5.10402 99.5587 2.28955 100.756 -3.26799e-08 103.252Z" fill="#90C63E" fill-opacity="0.15"/>
<path fill-rule="evenodd" clip-rule="evenodd" d="M0 256C8.41 259.49 15.68 265.78 19.26 274.62C23.76 285.73 21.79 298.58 18.82 310.28C17.89 313.95 16.86 317.65 16.72 321.45C16.26 334.67 27.21 345.94 39.15 348.73C43.44 349.73 47.94 349.9 51.99 351.73C57.69 354.31 61.93 360.12 63.36 366.63C63.62 367.84 63.79 369.06 63.87 370.29H0V256V256Z" fill="#90C63E" fill-opacity="0.15"/>
</g>
</svg>
