<svg width="155" height="110" viewBox="0 0 155 110" fill="none" xmlns="http://www.w3.org/2000/svg">
<path fill-rule="evenodd" clip-rule="evenodd" d="M73.0007 16C104.836 16 130.642 42.2096 130.642 74.5435C130.642 83.4983 128.658 91.9897 125.118 99.5847H20.8835C17.3429 91.9897 15.3594 83.5083 15.3594 74.5435C15.3594 42.2096 41.1651 16 73.0007 16Z" fill="#90C63E" fill-opacity="0.15"/>
<path fill-rule="evenodd" clip-rule="evenodd" d="M43.833 42.3301H107.703C108.932 42.3301 109.934 43.3474 109.934 44.5965V50.0459C109.934 51.2949 108.932 52.3123 107.703 52.3123H43.833C42.6032 52.3123 41.6016 51.2949 41.6016 50.0459V44.5965C41.6016 43.3474 42.6132 42.3301 43.833 42.3301Z" fill="#C7EA93"/>
<path fill-rule="evenodd" clip-rule="evenodd" d="M45.1427 52.1406H106.404V106.897C106.404 108.518 105.105 109.838 103.508 109.838H48.0288C46.4419 109.838 45.1328 108.518 45.1328 106.897V52.1406H45.1427Z" fill="#C7EA93"/>
<path fill-rule="evenodd" clip-rule="evenodd" d="M75.7677 52.1406H106.393V106.897C106.393 108.508 105.094 109.838 103.497 109.838H78.6538C77.0669 109.838 75.7578 108.518 75.7578 106.897V52.1406H75.7677Z" fill="#ADD76D"/>
<path fill-rule="evenodd" clip-rule="evenodd" d="M75.7666 42.3301H107.701C108.931 42.3301 109.933 43.3474 109.933 44.5965V50.0459C109.933 51.2949 108.931 52.3123 107.701 52.3123H75.7666C74.5368 52.3123 73.5352 51.2949 73.5352 50.0459V44.5965C73.5352 43.3474 74.5468 42.3301 75.7666 42.3301Z" fill="#ADD76D"/>
<path d="M106.402 52.3125H45.1406V55.7876H106.402V52.3125Z" fill="#90B853"/>
<path d="M106.401 52.3125H75.7656V55.7876H106.401V52.3125Z" fill="#90B853"/>
<path fill-rule="evenodd" clip-rule="evenodd" d="M57.4005 52.3125H63.5098V106.897C63.5098 108.509 64.809 109.839 66.4058 109.839H60.2866C58.6998 109.839 57.3906 108.519 57.3906 106.897V52.3125H57.4005Z" fill="white"/>
<path d="M63.5077 52.3125H57.3984V55.7876H63.5077V52.3125Z" fill="#D4E2F6"/>
<path fill-rule="evenodd" clip-rule="evenodd" d="M94.144 52.3125H88.0249V106.897C88.0249 108.509 86.7256 109.839 85.1289 109.839H91.2481C92.8349 109.839 94.144 108.519 94.144 106.897V52.3125Z" fill="#D4E2F6"/>
<path d="M94.1327 52.3125H88.0234V55.7876H94.1327V52.3125Z" fill="#B3CBEA"/>
<path fill-rule="evenodd" clip-rule="evenodd" d="M57.3994 42.3301H63.5087C62.2789 42.3301 61.2772 43.3474 61.2772 44.5965V50.0459C61.2772 51.2949 62.2789 52.3123 63.5087 52.3123H57.3994C56.1696 52.3123 55.168 51.2949 55.168 50.0459V44.5965C55.168 43.3474 56.1696 42.3301 57.3994 42.3301Z" fill="white"/>
<path fill-rule="evenodd" clip-rule="evenodd" d="M94.1426 42.3301H88.0234C89.2532 42.3301 90.2549 43.3474 90.2549 44.5965V50.0459C90.2549 51.2949 89.2532 52.3123 88.0234 52.3123H94.1426C95.3724 52.3123 96.3741 51.2949 96.3741 50.0459V44.5965C96.3642 43.3474 95.3625 42.3301 94.1426 42.3301Z" fill="#D4E2F6"/>
<path fill-rule="evenodd" clip-rule="evenodd" d="M75.37 42.3314H66.4937C63.6573 40.6794 62.2887 38.5037 62.3878 35.9552C62.6259 29.9518 72.0873 27.5444 75.3601 39.6923V42.3314H75.37Z" fill="white"/>
<path fill-rule="evenodd" clip-rule="evenodd" d="M74.2383 42.3302C70.4994 39.9127 67.7324 37.6161 67.5241 35.5713C67.3059 33.456 68.8828 32.358 70.9556 33.9395C73.4945 35.8735 74.526 39.6407 75.3689 42.3402H74.2383V42.3302Z" fill="#EFF7E4"/>
<path fill-rule="evenodd" clip-rule="evenodd" d="M76.1719 42.3314H85.0482C87.8846 40.6794 89.2532 38.5037 89.1541 35.9552C88.916 29.9518 79.4546 27.5444 76.1818 39.6923V42.3314H76.1719Z" fill="white"/>
<path fill-rule="evenodd" clip-rule="evenodd" d="M77.2947 42.3302C81.0336 39.9127 83.8006 37.6161 84.0089 35.5713C84.2271 33.456 82.6502 32.358 80.5774 33.9395C78.0385 35.8735 77.0071 39.6407 76.1641 42.3402H77.2947V42.3302Z" fill="#EFF7E4"/>
<path fill-rule="evenodd" clip-rule="evenodd" d="M72.4727 42.3305H79.0679V40.0036C79.0679 39.1273 78.3637 38.4121 77.5009 38.4121H74.0396C73.1768 38.4121 72.4727 39.1273 72.4727 40.0036V42.3305V42.3305Z" fill="white"/>
<path fill-rule="evenodd" clip-rule="evenodd" d="M15.924 83.3984H71.076C72.1372 83.3984 73 84.2748 73 85.3526V90.0566C73 91.1344 72.1372 92.0107 71.076 92.0107H15.924C14.8628 92.0107 14 91.1344 14 90.0566V85.3526C14 84.2748 14.8628 83.3984 15.924 83.3984Z" fill="#DC95AB"/>
<path fill-rule="evenodd" clip-rule="evenodd" d="M17.0547 91.8691H69.9553V107.301C69.9553 108.701 68.8347 109.839 67.4561 109.839H19.5539C18.1754 109.839 17.0547 108.701 17.0547 107.301V91.8691Z" fill="#DC95AB"/>
<path fill-rule="evenodd" clip-rule="evenodd" d="M43.5039 91.8691H69.9542V107.301C69.9542 108.701 68.8336 109.839 67.455 109.839H46.0032C44.6246 109.839 43.5039 108.701 43.5039 107.301V91.8691Z" fill="#DE6F70"/>
<path fill-rule="evenodd" clip-rule="evenodd" d="M43.506 83.3984H71.087C72.1482 83.3984 73.011 84.2748 73.011 85.3526V90.0566C73.011 91.1344 72.1482 92.0107 71.087 92.0107H43.506C42.4449 92.0107 41.582 91.1344 41.582 90.0566V85.3526C41.582 84.2748 42.4449 83.3984 43.506 83.3984Z" fill="#DE6F70"/>
<path d="M69.9653 92.0098H17.0547V95.0115H69.9653V92.0098Z" fill="#C36464"/>
<path d="M69.9542 92.0098H43.5039V95.0115H69.9542V92.0098Z" fill="#C36464"/>
<path fill-rule="evenodd" clip-rule="evenodd" d="M27.6367 92.0098H32.9129V107.3C32.9129 108.701 34.0336 109.839 35.4121 109.839H30.136C28.7574 109.839 27.6367 108.701 27.6367 107.3V92.0098Z" fill="white"/>
<path d="M32.9129 92.0098H27.6367V95.0115H32.9129V92.0098Z" fill="#D4E2F6"/>
<path fill-rule="evenodd" clip-rule="evenodd" d="M59.3731 92.0098H54.0969V107.3C54.0969 108.701 52.9762 109.839 51.5977 109.839H56.8738C58.2524 109.839 59.3731 108.701 59.3731 107.3V92.0098Z" fill="#D4E2F6"/>
<path d="M59.3621 92.0098H54.0859V95.0115H59.3621V92.0098Z" fill="#B3CBEA"/>
<path fill-rule="evenodd" clip-rule="evenodd" d="M27.635 83.3984H32.9111C31.8499 83.3984 30.9871 84.2748 30.9871 85.3526V90.0566C30.9871 91.1344 31.8499 92.0107 32.9111 92.0107H27.635C26.5738 92.0107 25.7109 91.1344 25.7109 90.0566V85.3526C25.7109 84.2748 26.5738 83.3984 27.635 83.3984Z" fill="white"/>
<path fill-rule="evenodd" clip-rule="evenodd" d="M59.3738 83.3984H54.0977C55.1588 83.3984 56.0217 84.2748 56.0217 85.3526V90.0566C56.0217 91.1344 55.1588 92.0107 54.0977 92.0107H59.3738C60.435 92.0107 61.2979 91.1344 61.2979 90.0566V85.3526C61.2979 84.2748 60.4251 83.3984 59.3738 83.3984Z" fill="#D4E2F6"/>
<path fill-rule="evenodd" clip-rule="evenodd" d="M43.1569 83.3978H35.4906C33.041 81.9775 31.8608 80.0939 31.95 77.8879C32.1484 72.7004 40.3205 70.6254 43.1569 81.1213V83.3978Z" fill="white"/>
<path fill-rule="evenodd" clip-rule="evenodd" d="M42.1864 83.3968C38.9631 81.3117 36.5631 79.3273 36.3846 77.5545C36.1961 75.7213 37.5648 74.7845 39.3499 76.1443C41.5417 77.8164 42.4244 81.0599 43.1583 83.3968H42.1864Z" fill="#EFF7E4"/>
<path fill-rule="evenodd" clip-rule="evenodd" d="M43.8516 83.3978H51.5179C53.9676 81.9775 55.1478 80.0939 55.0585 77.8879C54.8601 72.7004 46.688 70.6254 43.8516 81.1213V83.3978Z" fill="white"/>
<path fill-rule="evenodd" clip-rule="evenodd" d="M44.8235 83.3968C48.0467 81.3117 50.4468 79.3273 50.6253 77.5545C50.8137 75.7213 49.455 74.7845 47.6599 76.1443C45.4681 77.8164 44.5855 81.0599 43.8516 83.3968H44.8235Z" fill="#C7EA93"/>
<path fill-rule="evenodd" clip-rule="evenodd" d="M40.6602 83.3981H46.3529V81.3936C46.3529 80.6382 45.7479 80.0137 45.0041 80.0137H42.0189C41.275 80.0137 40.6701 80.6281 40.6701 81.3936V83.3981H40.6602Z" fill="white"/>
<path fill-rule="evenodd" clip-rule="evenodd" d="M81.9555 73.1641H130.314C131.246 73.1641 132 73.9397 132 74.8765V79.0063C132 79.9532 131.236 80.7187 130.314 80.7187H81.9555C81.0233 80.7187 80.2695 79.9431 80.2695 79.0063V74.8765C80.2695 73.9397 81.0233 73.1641 81.9555 73.1641Z" fill="#EAD46D"/>
<path fill-rule="evenodd" clip-rule="evenodd" d="M82.9375 80.5977H129.322V107.653C129.322 108.882 128.34 109.879 127.13 109.879H85.1293C83.9194 109.879 82.9375 108.882 82.9375 107.653V80.5977Z" fill="#EAD46D"/>
<path fill-rule="evenodd" clip-rule="evenodd" d="M106.137 80.5977H129.324V107.653C129.324 108.882 128.342 109.879 127.132 109.879H108.329C107.119 109.879 106.137 108.882 106.137 107.653V80.5977V80.5977Z" fill="#DEC453"/>
<path fill-rule="evenodd" clip-rule="evenodd" d="M106.135 73.1641H130.314C131.247 73.1641 132 73.9397 132 74.8765V79.0063C132 79.9532 131.237 80.7187 130.314 80.7187H106.135C105.203 80.7187 104.449 79.9431 104.449 79.0063V74.8765C104.449 73.9397 105.203 73.1641 106.135 73.1641Z" fill="#DEC453"/>
<path d="M129.322 80.7188H82.9375V83.3478H129.322V80.7188Z" fill="#CFB74F"/>
<path d="M129.334 80.7188H106.137V83.3478H129.334V80.7188Z" fill="#CFB74F"/>
<path fill-rule="evenodd" clip-rule="evenodd" d="M92.2188 80.7188H96.8503V107.774C96.8503 109.003 97.8321 110.001 99.0421 110.001H94.4106C93.2006 110.001 92.2188 109.003 92.2188 107.774V80.7188Z" fill="white"/>
<path d="M96.8503 80.7188H92.2188V83.3478H96.8503V80.7188Z" fill="#D4E2F6"/>
<path fill-rule="evenodd" clip-rule="evenodd" d="M120.038 80.7188H115.407V107.774C115.407 109.003 114.425 110.001 113.215 110.001H117.846C119.056 110.001 120.038 109.003 120.038 107.774V80.7188Z" fill="#D4E2F6"/>
<path d="M120.05 80.7188H115.418V83.3478H120.05V80.7188Z" fill="#B3CBEA"/>
<path fill-rule="evenodd" clip-rule="evenodd" d="M92.2212 73.1641H96.8527C95.9204 73.1641 95.1667 73.9397 95.1667 74.8765V79.0063C95.1667 79.9532 95.9304 80.7187 96.8527 80.7187H92.2212C91.2889 80.7187 90.5352 79.9431 90.5352 79.0063V74.8765C90.5352 73.9397 91.2988 73.1641 92.2212 73.1641Z" fill="white"/>
<path fill-rule="evenodd" clip-rule="evenodd" d="M120.038 73.1641H115.406C116.339 73.1641 117.092 73.9397 117.092 74.8765V79.0063C117.092 79.9532 116.329 80.7187 115.406 80.7187H120.038C120.97 80.7187 121.724 79.9431 121.724 79.0063V74.8765C121.734 73.9397 120.97 73.1641 120.038 73.1641Z" fill="#D4E2F6"/>
<path fill-rule="evenodd" clip-rule="evenodd" d="M105.709 73.1627H96.4455C93.4802 71.4402 92.0619 69.1738 92.1611 66.5045C92.4091 60.2392 102.277 57.7311 105.699 70.4128V73.1627H105.709Z" fill="white"/>
<path fill-rule="evenodd" clip-rule="evenodd" d="M104.539 73.164C100.641 70.6458 97.745 68.2485 97.5368 66.1029C97.3087 63.8869 98.955 62.7487 101.117 64.4007C103.765 66.4152 104.836 70.3436 105.719 73.164H104.539Z" fill="#ADD76D"/>
<path fill-rule="evenodd" clip-rule="evenodd" d="M106.551 73.1627H115.814C118.779 71.4402 120.197 69.1738 120.098 66.5045C119.85 60.2392 109.982 57.7311 106.561 70.4128V73.1627H106.551Z" fill="white"/>
<path fill-rule="evenodd" clip-rule="evenodd" d="M107.731 73.164C111.629 70.6458 114.525 68.2485 114.733 66.1029C114.961 63.8869 113.315 62.7487 111.153 64.4007C108.505 66.4152 107.433 70.3436 106.551 73.164H107.731Z" fill="#EFF7E4"/>
<path fill-rule="evenodd" clip-rule="evenodd" d="M102.695 73.1638H109.578V70.7362C109.578 69.8196 108.844 69.0742 107.942 69.0742H104.332C103.429 69.0742 102.695 69.8196 102.695 70.7362V73.1638Z" fill="white"/>
<path fill-rule="evenodd" clip-rule="evenodd" d="M45.984 33.9304C45.984 34.283 45.7063 34.565 45.3592 34.565C45.0121 34.565 44.7344 34.283 44.7344 33.9304V29.035C44.7344 28.6824 45.0121 28.4004 45.3592 28.4004C45.7063 28.4004 45.984 28.6824 45.984 29.035V33.9304Z" fill="#90C63E"/>
<path fill-rule="evenodd" clip-rule="evenodd" d="M47.769 30.8477C48.1161 30.8477 48.3938 31.1297 48.3938 31.4823C48.3938 31.8348 48.1161 32.1168 47.769 32.1168H42.949C42.6019 32.1168 42.3242 31.8348 42.3242 31.4823C42.3242 31.1297 42.6019 30.8477 42.949 30.8477H47.769Z" fill="#90C63E"/>
<path fill-rule="evenodd" clip-rule="evenodd" d="M27.6974 57.8531L27.747 57.9639V57.974C28.0445 58.8 28.0049 59.6763 27.6875 60.4217C27.3602 61.2174 26.7354 61.8822 25.8825 62.2348L25.7734 62.2852H25.7635C24.9502 62.5873 24.0874 62.5471 23.3535 62.2247C22.57 61.8923 21.9154 61.2577 21.5683 60.3915L21.5187 60.2806V60.2706C21.2212 59.4446 21.2609 58.5784 21.5782 57.8229C21.9055 57.0271 22.5303 56.3623 23.3832 56.0098L23.4923 55.9594H23.5023C24.3155 55.6572 25.1783 55.6975 25.9122 56.0198C26.6957 56.3623 27.3503 56.9969 27.6974 57.8531ZM26.5966 58.2862C26.3784 57.7423 25.9519 57.3394 25.456 57.1279C24.9502 56.9163 24.3651 56.8962 23.8295 57.1178L23.8097 57.1279C23.2742 57.3495 22.8775 57.7826 22.6692 58.2862C22.4609 58.7999 22.4411 59.3942 22.6593 59.9382L22.6692 59.9583C22.8874 60.5023 23.3138 60.9052 23.8097 61.1167C24.3155 61.3282 24.9006 61.3484 25.4362 61.1268L25.456 61.1167C25.9916 60.8951 26.3883 60.462 26.5966 59.9583C26.8048 59.4446 26.8247 58.8503 26.6065 58.3064L26.5966 58.2862Z" fill="#90C63E"/>
<path fill-rule="evenodd" clip-rule="evenodd" d="M26.7438 39.6107C27.2199 39.6107 27.6166 39.2179 27.6166 38.7243C27.6166 38.2408 27.2298 37.8379 26.7438 37.8379C26.2678 37.8379 25.8711 38.2307 25.8711 38.7243C25.8711 39.2179 26.2579 39.6107 26.7438 39.6107Z" fill="#90C63E"/>
<path fill-rule="evenodd" clip-rule="evenodd" d="M141.873 50.7728C142.349 50.7728 142.746 50.38 142.746 49.8864C142.746 49.4029 142.359 49 141.873 49C141.397 49 141 49.3928 141 49.8864C141 50.38 141.387 50.7728 141.873 50.7728Z" fill="#90C63E"/>
<path fill-rule="evenodd" clip-rule="evenodd" d="M73.9431 24.2103C74.4191 24.2103 74.8158 23.8175 74.8158 23.3239C74.8158 22.8404 74.429 22.4375 73.9431 22.4375C73.4571 22.4375 73.0703 22.8303 73.0703 23.3239C73.0703 23.8175 73.4571 24.2103 73.9431 24.2103Z" fill="#90C63E"/>
<path fill-rule="evenodd" clip-rule="evenodd" d="M1.87276 85.7728C2.3488 85.7728 2.74551 85.38 2.74551 84.8864C2.74551 84.4029 2.35872 84 1.87276 84C1.38679 84 1 84.3928 1 84.8864C1 85.38 1.38679 85.7728 1.87276 85.7728Z" fill="#90C63E"/>
<path fill-rule="evenodd" clip-rule="evenodd" d="M129.152 63.0905C129.152 63.4431 128.874 63.7251 128.527 63.7251C128.18 63.7251 127.902 63.4431 127.902 63.0905V58.1951C127.902 57.8426 128.18 57.5605 128.527 57.5605C128.874 57.5605 129.152 57.8426 129.152 58.1951V63.0905Z" fill="#90C63E"/>
<path fill-rule="evenodd" clip-rule="evenodd" d="M130.937 60.0078C131.284 60.0078 131.562 60.2899 131.562 60.6424C131.562 60.995 131.284 61.277 130.937 61.277H126.117C125.77 61.277 125.492 60.995 125.492 60.6424C125.492 60.2899 125.77 60.0078 126.117 60.0078H130.937Z" fill="#90C63E"/>
<path fill-rule="evenodd" clip-rule="evenodd" d="M143.66 31.53C143.66 31.8825 143.382 32.1646 143.035 32.1646C142.688 32.1646 142.41 31.8825 142.41 31.53V26.6346C142.41 26.282 142.688 26 143.035 26C143.382 26 143.66 26.282 143.66 26.6346V31.53Z" fill="#90C63E"/>
<path fill-rule="evenodd" clip-rule="evenodd" d="M145.445 28.4473C145.792 28.4473 146.07 28.7293 146.07 29.0819C146.07 29.4344 145.792 29.7165 145.445 29.7165H140.625C140.278 29.7165 140 29.4344 140 29.0819C140 28.7293 140.278 28.4473 140.625 28.4473H145.445Z" fill="#90C63E"/>
<path fill-rule="evenodd" clip-rule="evenodd" d="M76.6598 5.52999C76.6598 5.88254 76.3821 6.16459 76.035 6.16459C75.6878 6.16459 75.4102 5.88254 75.4102 5.52999V0.634596C75.4102 0.282045 75.6878 0 76.035 0C76.3821 0 76.6598 0.282045 76.6598 0.634596V5.52999Z" fill="#90C63E"/>
<path fill-rule="evenodd" clip-rule="evenodd" d="M78.4448 2.44727C78.7919 2.44727 79.0696 2.72931 79.0696 3.08186C79.0696 3.43441 78.7919 3.71646 78.4448 3.71646H73.6248C73.2777 3.71646 73 3.43441 73 3.08186C73 2.72931 73.2777 2.44727 73.6248 2.44727H78.4448Z" fill="#90C63E"/>
<path fill-rule="evenodd" clip-rule="evenodd" d="M3.65977 65.53C3.65977 65.8825 3.38207 66.1646 3.03496 66.1646C2.68784 66.1646 2.41016 65.8825 2.41016 65.53V60.6346C2.41016 60.282 2.68784 60 3.03496 60C3.38207 60 3.65977 60.282 3.65977 60.6346V65.53Z" fill="#90C63E"/>
<path fill-rule="evenodd" clip-rule="evenodd" d="M5.44479 62.4473C5.7919 62.4473 6.0696 62.7293 6.0696 63.0819C6.0696 63.4344 5.7919 63.7165 5.44479 63.7165H0.624816C0.277699 63.7165 0 63.4344 0 63.0819C0 62.7293 0.277699 62.4473 0.624816 62.4473H5.44479Z" fill="#90C63E"/>
<path fill-rule="evenodd" clip-rule="evenodd" d="M111.522 27.1304L111.571 27.2412V27.2513C111.869 28.0773 111.829 28.9436 111.512 29.699C111.184 30.4948 110.56 31.1596 109.707 31.5121L109.598 31.5625H109.588C108.774 31.8647 107.922 31.8244 107.178 31.5021C106.394 31.1697 105.74 30.5351 105.393 29.6688L105.343 29.558V29.5479C105.045 28.722 105.085 27.8456 105.402 27.1002C105.73 26.3045 106.355 25.6396 107.207 25.2871L107.317 25.2367H107.326C108.14 24.9346 109.003 24.9748 109.736 25.2972C110.52 25.6296 111.175 26.2642 111.522 27.1304ZM110.421 27.5636C110.203 27.0196 109.776 26.6167 109.28 26.4052C108.774 26.1937 108.189 26.1735 107.654 26.3951L107.634 26.4052C107.098 26.6369 106.712 27.0599 106.493 27.5636C106.285 28.0773 106.265 28.6716 106.483 29.2155L106.493 29.2357C106.721 29.7796 107.138 30.1825 107.634 30.394C108.14 30.6056 108.725 30.6257 109.26 30.4041L109.28 30.394C109.816 30.1724 110.213 29.7393 110.421 29.2357C110.629 28.722 110.649 28.1276 110.431 27.5837L110.421 27.5636Z" fill="#90C63E"/>
<path fill-rule="evenodd" clip-rule="evenodd" d="M24.381 15.0992L24.4306 15.21V15.2201C24.7281 16.046 24.6885 16.9123 24.3711 17.6678C24.0438 18.4635 23.419 19.1283 22.5661 19.4809L22.457 19.5313H22.4471C21.6338 19.8334 20.7809 19.7932 20.0371 19.4708C19.2536 19.1384 18.599 18.5038 18.2519 17.6376L18.2023 17.5267V17.5167C17.9048 16.6907 17.9445 15.8144 18.2618 15.069C18.5891 14.2732 19.2139 13.6084 20.0668 13.2558L20.1759 13.2055H20.1859C20.9991 12.9033 21.8619 12.9436 22.5958 13.2659C23.3793 13.5983 24.0339 14.2329 24.381 15.0992ZM23.2802 15.5323C23.062 14.9884 22.6355 14.5855 22.1396 14.374C21.6338 14.1624 21.0487 14.1423 20.5131 14.3639L20.4933 14.374C19.9577 14.6056 19.571 15.0287 19.3528 15.5323C19.1445 16.046 19.1247 16.6403 19.3429 17.1843L19.3528 17.2044C19.5809 17.7484 19.9974 18.1513 20.4933 18.3628C20.9991 18.5743 21.5842 18.5945 22.1198 18.3729L22.1396 18.3628C22.6752 18.1412 23.0719 17.7081 23.2802 17.2044C23.4884 16.6907 23.5083 16.0964 23.2901 15.5525L23.2802 15.5323Z" fill="#90C63E"/>
<path fill-rule="evenodd" clip-rule="evenodd" d="M154.381 83.0992L154.431 83.21V83.2201C154.728 84.046 154.688 84.9123 154.371 85.6678C154.044 86.4635 153.419 87.1283 152.566 87.4809L152.457 87.5313H152.447C151.634 87.8334 150.781 87.7932 150.037 87.4708C149.254 87.1384 148.599 86.5038 148.252 85.6376L148.202 85.5267V85.5167C147.905 84.6907 147.944 83.8144 148.262 83.069C148.589 82.2732 149.214 81.6084 150.067 81.2558L150.176 81.2055H150.186C150.999 80.9033 151.862 80.9436 152.596 81.2659C153.379 81.5983 154.034 82.2329 154.381 83.0992ZM153.28 83.5323C153.062 82.9884 152.636 82.5855 152.14 82.374C151.634 82.1624 151.049 82.1423 150.513 82.3639L150.493 82.374C149.958 82.6056 149.571 83.0287 149.353 83.5323C149.144 84.046 149.125 84.6403 149.343 85.1843L149.353 85.2044C149.581 85.7484 149.997 86.1513 150.493 86.3628C150.999 86.5743 151.584 86.5945 152.12 86.3729L152.14 86.3628C152.675 86.1412 153.072 85.7081 153.28 85.2044C153.488 84.6907 153.508 84.0964 153.29 83.5525L153.28 83.5323Z" fill="#90C63E"/>
<path fill-rule="evenodd" clip-rule="evenodd" d="M116.955 49.3119C117.431 49.3119 117.828 48.909 117.828 48.4255C117.828 47.942 117.441 47.5391 116.955 47.5391C116.479 47.5391 116.082 47.9319 116.082 48.4255C116.082 48.9191 116.479 49.3119 116.955 49.3119Z" fill="#90C63E"/>
</svg>
