<svg class="svg-love-birds" xmlns="http://www.w3.org/2000/svg" xmlns:xlink="http://www.w3.org/1999/xlink" x="0px" y="0px" width="239.74px" height="122.36px" viewBox="0 0 239.74 122.36" style="enable-background:new 0 0 239.74 122.36;" xml:space="preserve"><path d="M1.07,78.34c10.19,7.06,63.02,29.5,82.11,10.03c1.47,3.13,11.81-1.84,13.59-4.65

c-2.56,1.19-7.12,4.46-3.52,7.13c3.58,2.66,13.4,0.61,12.91-1.73c-0.07-1.49-4.59,0.73-5.13,0.98c-1.03,0.47-5.56,2.55-6.93,2.92

c-2.96,0.79-5.88,1.36-8.93,1.79c-2.31,0.33-6.09,1.47-6.72,4.3c-1.1,4.93,5.01,2.45,6.15,2.79c2.04,0.62-1.88,2.73-2.37,3.29

c-3.32,3.75,1.64,4.12,2.99,3.75c1.15-0.32,1.37-0.95,2.54-1.12c1.09-0.16,0.49,0.94,0.07,1.64c-0.34,0.55-0.62,1.1-0.85,1.7

c-0.4,1.06-0.66,2.36,0.71,2.78c1.1,0.33,2.17-0.16,3.17-0.58c0.19-0.08,2.71-0.94,2.7-0.95c0.35,1.25-0.38,4.42,0.73,5.34

c1.82,1.51,5.99-0.5,7.68-0.73c-0.5,0.07,0.64,3.06,0.91,3.34c0.89,0.91,2.31,1,3.5,0.83c7.29-1.05,5.7-11.92,3.45-16.57

c-1.63-3.36-1.51-5.11,2.33-6.19c5.17-1.46,9.75-3.32,12.94-5.34c4.45-2.82,8.38-10.09,7.14-15.2c-0.99-4.04-4.5-4.81-4.14-6.79

c1.48-0.33,2.58,0.29,3.67,1.2c0.63-1.26-1.32-4.17-2.05-4.43c-0.27-8.1-12.45-6.96-11.89,1.78c0.08,1.26,1.57,4.79,0.01,5.36

c-2.8,1.03-1.83-4.62-1.54-5.78c0.76-3.05,2.58-5.88,3.55-8.81c1.29-3.9,1.19-7.91,1.55-11.99c1.19-13.41,2.4-26.35,5.47-39.4

c-9.4,2.32-13.95,24.61-11.25,32.57c-2.01-3.92-5.79-21.28-12.05-19.86c-6.47,1.46,1.15,17.81,1.03,21.78

c-1.61-3.34-6.83-8.8-11-7.09c-0.69,6.16,4.03,10.79,7.66,14.96c-2.77-0.08-9.64-0.57-10.58,2.83c-1.17,4.27,7.29,5.84,9.94,6.79

c-2.9,0.41-12.98,1.88-13.49,5.48c-0.6,4.27,7.5,3.9,10.03,4.01c-3.78,2.29-15.39,6.83-12.47,13.04c1.21,2.59,6.33,0.87,8.46-2.43

c2.7-4.18,0.03-5.56-2.87-4.94c-1.99,0.42-10.62,3.36-11.01-0.16c-1.64-0.58-7.33,3.77-3.8-3.1c3.13-4.92-6.39,2.7-5.24-5.17

c-0.06-5.15-3.89-1.37-6.97-3.7c-1.33-1.01,1.27-3.3,0.22-4.42c-1.3-1.38-3.58-0.63-4.79-1.8c-1.6-1.55-0.09-1.9-0.69-3.77

c-0.59-1.85-1.83-2.02-2.71-3.61c-1.53-2.78-0.36-3.74,3.26-3.32c-4.01,0.75-8.65-4.41-9.68-8.72c-1.04-4.35,3.47-1.81,7.2-1.78

c-0.79-2.55-8.51-7.08-7.68-10.19c1.25-4.74,7.92,3.25,9.68,4.25c-1.98-3.82-6.66-7.46-6.7-11.34c-0.05-6.3,8.07,3.33,9.37,4.78

c4.58,5.09,9.01,10.27,14.02,14.94c3.49,3.26,6.04,7.38,10.34,9.65c3.2,1.69,10.58,0.24,7.35-3.1c-9.26-9.58,0.89-7.92-0.65-10.11

c-2.36-3.34-6.24-6.73-6-10.99c0.74-2.11,6.03,1,7.78,2.42c-1.28-4.38-8.41-4.85-7.92-12.53c0.4-2.18,9.74,2.84,10.35,4.12

c-1.23-4.17-9.73-12.91-7.2-16.72c3.8-2.85,11.33,6.05,15.61,11.38c4.39,5.47,16.52,24.45,18.76,26.69

c4.69,4.69,3.72,11.11,5.2,7.62c0.8-1.88,1.32-3.82,3.29-4.86c3.54-1.88,8.64,0.09,10.59,3.47c1.77,3.08,2.96,8.79-0.81,9.27

c-1.73,0.22-4.69-0.73-6.52-1.04c-1.94-0.32-2.1,0.4-3.34,2.36c-0.23-2.66,0.93-4.77,2.59-6.87c-0.37,0.16-3.4-1.38-4.21,1.54

c0.26,1.63,0.79,9.34,2.28,13.78c1.38,4.13,6.64,10.44,5.48,14.84c-1.14,4.34-2.97,5.79-5.34,9.7c-2.17,3.6-3.34,4.72-4.37,9.22

c-0.32,1.39,1.29,7.76,4.03,7.79c3.91,0.04,4.13-4.81,6.49-6.42c-0.25,1.94-0.35,5.08,1.62,5.99c2.43,0.73,2.67-1.75,3.31-2.81

c2.73,4.94,7.12,1.51,8.13-3.01c-0.01,1.54,0.62,2.78,1.88,3.72c5.43,3.15,6.24-3,4.95-6.07c3.96,1.15,13.07-6.7,6.87-9.3

c-6.31-2.65-17.55,0.49-11.65-12.72c2.86-6.4,1.12-14.82-2.67-20.95c-1.96-3.17-3.99-5.33-6.23-7.41c9.9,5.8,15.83-5.76,22.56-12.86

c5.78-6.09,12.07-9.38,19.73-12.94c4.23-1.96,20.38-6.92,25.03-1.79c-1.58,3.73-5.96,4.53-8.21,5.67

c-6.11,3.13-6.14,2.57-12.62,4.85c7.21-1.83,7.31-3.21,14.72-2.26c5.11,3.98-10.52,8.78-15.69,10.67c34.12-1.62-10.43,9.3,6.31,9.38

c3.32,4.21-7.29,6.02-11.16,6.63c0.88,2.92,5.68,3.4,0.97,7.6c-3.68,3.28-9.33,2.21-13.42,1.78c0.81,2.04,2.04,6.3-0.81,7.52

c-2.73,1.17-7.56-1.06-8.8-3.05c-1.06,10.87-10.15-2.12-3.56-4.94c5.29-2.27,17.23,15.16,45.04,0.51

c10.96-5.78,26.77-18.88,34.02-31.62"></path></svg>