<svg width="22" height="22" viewBox="0 0 22 22" fill="none" xmlns="http://www.w3.org/2000/svg">
<g clip-path="url(#clip0)">
<path d="M9.07435 3.88702C9.70532 3.73932 10.3513 3.66549 10.9993 3.66702C17.416 3.66702 21.0827 11.0003 21.0827 11.0003C20.5262 12.0413 19.8626 13.0214 19.1027 13.9245M12.9427 12.9437C12.6909 13.2139 12.3873 13.4306 12.05 13.5809C11.7127 13.7312 11.3485 13.812 10.9793 13.8185C10.61 13.825 10.2432 13.7571 9.90082 13.6188C9.5584 13.4805 9.24734 13.2746 8.98621 13.0135C8.72507 12.7524 8.51921 12.4413 8.3809 12.0989C8.24259 11.7564 8.17466 11.3897 8.18118 11.0204C8.18769 10.6512 8.26851 10.287 8.41882 9.94971C8.56912 9.61238 8.78583 9.30878 9.05602 9.05702M16.4443 16.4453C14.8774 17.6398 12.9694 18.3015 10.9993 18.3337C4.58268 18.3337 0.916016 11.0003 0.916016 11.0003C2.05625 8.87542 3.63772 7.01891 5.55435 5.55535L16.4443 16.4453Z" stroke="#252525" stroke-width="2" stroke-linecap="round" stroke-linejoin="round"/>
<path d="M9 10H9.5L12 12L12.5 13L11.5 13.5L9 13L8.5 11.5L9 10Z" fill="#252525"/>
<path d="M0.916016 0.916992L21.0827 21.0837" stroke="#252525" stroke-width="2" stroke-linecap="round" stroke-linejoin="round"/>
</g>
<defs>
<clipPath id="clip0">
<rect width="22" height="22" fill="white"/>
</clipPath>
</defs>
</svg>
