<svg width="54" height="40" viewBox="0 0 54 40" fill="none" xmlns="http://www.w3.org/2000/svg">
<g clip-path="url(#clip0_2147_85401)">
<path d="M12.0662 39.8049V19.3054L5.70458 13.4893L0 10.2617V36.1873C0 38.189 1.6228 39.8049 3.61993 39.8049H12.0662Z" fill="#4285F4"/>
<path d="M41.0234 39.8047H49.4697C51.4728 39.8047 53.0896 38.1828 53.0896 36.1871V10.2617L46.6283 13.9585L41.0234 19.3052V39.8047Z" fill="#34A853"/>
<path d="M12.0648 19.3048L11.1992 11.295L12.0648 3.62891L26.5442 14.4815L41.0235 3.62891L41.9919 10.8811L41.0235 19.3048L26.5442 30.1574L12.0648 19.3048Z" fill="#EA4335"/>
<path d="M41.0234 3.62771V19.3036L53.0896 10.2598V5.43641C53.0896 0.962838 47.9796 -1.58742 44.4022 1.09548L41.0234 3.62771Z" fill="#FBBC04"/>
<path d="M0 10.2599L5.54945 14.4195L12.0662 19.3037V3.6278L8.68742 1.09557C5.10378 -1.58753 0 0.962932 0 5.4363V10.2597V10.2599Z" fill="#C5221F"/>
</g>
<defs>
<clipPath id="clip0_2147_85401">
<rect width="53.0909" height="40" fill="white"/>
</clipPath>
</defs>
</svg>
