<svg width="49" height="40" viewBox="0 0 49 40" fill="none" xmlns="http://www.w3.org/2000/svg">
<g clip-path="url(#clip0_2147_85409)">
<path d="M48.8889 4.86974C47.0899 5.66917 45.1569 6.20946 43.128 6.45252C45.1991 5.2085 46.7893 3.23855 47.5381 0.89137C45.5693 2.06225 43.4153 2.88721 41.169 3.3306C39.3393 1.37711 36.7327 0.15625 33.8477 0.15625C28.3084 0.15625 23.8173 4.65692 23.8173 10.2079C23.8173 10.9959 23.9061 11.7629 24.077 12.4988C15.7411 12.0795 8.35045 8.07778 3.40332 1.99625C2.54012 3.48084 2.0455 5.20773 2.0455 7.04965C2.0455 10.5371 3.81639 13.6137 6.50757 15.4163C4.91476 15.3664 3.357 14.9352 1.96434 14.1589C1.96377 14.201 1.96377 14.2431 1.96377 14.2854C1.96377 19.1557 5.42113 23.2185 10.0094 24.1419C8.53242 24.5445 6.98315 24.6034 5.47995 24.3141C6.75622 28.3076 10.4605 31.2137 14.8494 31.295C11.4167 33.9909 7.09175 35.598 2.39269 35.598C1.58297 35.598 0.784705 35.5503 0 35.4575C4.43877 38.3095 9.71094 39.9737 15.3752 39.9737C33.8244 39.9737 43.9129 24.6567 43.9129 11.3737C43.9129 10.9377 43.9034 10.5042 43.8839 10.0732C45.8475 8.65057 47.5424 6.88853 48.8889 4.86974Z" fill="#55ACEE"/>
</g>
<defs>
<clipPath id="clip0_2147_85409">
<rect width="48.8889" height="40" fill="white"/>
</clipPath>
</defs>
</svg>
