<svg width="40" height="41" viewBox="0 0 40 41" fill="none" xmlns="http://www.w3.org/2000/svg">
<g clip-path="url(#clip0_2147_85414)">
<path d="M10.5713 34.5643L11.2252 34.8904C13.9502 36.5208 17.0019 37.2816 20.0538 37.2816C29.6452 37.2816 37.4927 29.4558 37.4927 19.8908C37.4927 15.3258 35.6397 10.8694 32.37 7.60853C29.1002 4.3477 24.7403 2.5 20.0538 2.5C10.4624 2.5 2.61472 10.3259 2.72378 19.9996C2.72378 23.2602 3.70472 26.4125 5.33956 29.1296L5.7755 29.7819L4.03175 36.1948L10.5713 34.5643Z" fill="#00E676"/>
<path d="M34.2239 5.86939C30.5181 2.06523 25.3955 0 20.1638 0C9.04656 0 0.109062 9.02146 0.217969 19.9994C0.217969 23.4776 1.19891 26.8472 2.83391 29.8905L0 40.2163L10.5723 37.499C13.5152 39.1294 16.7848 39.8903 20.0548 39.8903C31.0631 39.8903 40.0006 30.8687 40.0006 19.8909C40.0006 14.5649 37.9297 9.56495 34.2241 5.86939H34.2239ZM20.1638 36.5209C17.2209 36.5209 14.2781 35.7602 11.7712 34.2384L11.1173 33.9123L4.79578 35.5426L6.43062 29.3473L5.99469 28.695C1.19891 20.9779 3.48781 10.7606 11.3353 5.978C19.1828 1.1956 29.3192 3.47819 34.115 11.3041C38.9106 19.1299 36.6217 29.2384 28.7744 34.0209C26.2673 35.6512 23.2156 36.5207 20.1638 36.5207V36.5209ZM29.7552 24.4561L28.5562 23.9126C28.5562 23.9126 26.8125 23.1518 25.7225 22.6083C25.6134 22.6083 25.5045 22.4995 25.3955 22.4995C25.0684 22.4995 24.8505 22.6083 24.6325 22.717C24.6325 22.717 24.5236 22.8256 22.9977 24.5647C22.8886 24.7821 22.6706 24.8909 22.4527 24.8909H22.3436C22.2347 24.8909 22.0167 24.7821 21.9077 24.6735L21.3627 24.4561C20.1637 23.9126 19.0739 23.2604 18.2019 22.3909C17.9839 22.1735 17.6569 21.9562 17.4389 21.7388C16.6759 20.9779 15.913 20.1083 15.3681 19.1301L15.2591 18.9127C15.1502 18.8039 15.1502 18.6953 15.0411 18.478C15.0411 18.2606 15.0411 18.0432 15.1502 17.9345C15.1502 17.9345 15.5861 17.391 15.913 17.065C16.1311 16.8475 16.24 16.5215 16.458 16.3041C16.6759 15.978 16.785 15.5433 16.6759 15.2171C16.567 14.6736 15.2591 11.7389 14.9322 11.0868C14.7141 10.7607 14.4962 10.6521 14.1692 10.5433H12.9703C12.7522 10.5433 12.5344 10.6521 12.3162 10.6521L12.2072 10.7607C11.9892 10.8695 11.7713 11.0868 11.5533 11.1954C11.3353 11.413 11.2263 11.6302 11.0083 11.8477C10.2453 12.8259 9.80937 14.0215 9.80937 15.2171C9.80937 16.0866 10.0273 16.9562 10.3544 17.7171L10.4634 18.0432C11.4444 20.1083 12.7522 21.9562 14.4963 23.5865L14.9322 24.0212C15.2591 24.3474 15.5861 24.5647 15.8041 24.8907C18.093 26.8473 20.7087 28.2603 23.6516 29.0211C23.9786 29.1298 24.4145 29.1298 24.7416 29.2385H25.8314C26.3764 29.2385 27.0303 29.0211 27.4664 28.8038C27.7933 28.5864 28.0113 28.5864 28.2292 28.369L28.4473 28.1515C28.6653 27.9342 28.8833 27.8255 29.1013 27.6082C29.3192 27.3908 29.5372 27.1734 29.6462 26.9559C29.8642 26.5212 29.9731 25.9777 30.0822 25.4343V24.6735C30.0822 24.6735 29.9731 24.5647 29.7552 24.4561V24.4561Z" fill="white"/>
</g>
<defs>
<clipPath id="clip0_2147_85414">
<rect width="40" height="40.3571" fill="white"/>
</clipPath>
</defs>
</svg>
