<svg width="24" height="24" viewBox="0 0 24 24" fill="none" xmlns="http://www.w3.org/2000/svg">
<path d="M7.9375 14.4375L4.2 2.65625C4.0375 1.925 3.30625 1.4375 2.575 1.4375H0.625" stroke="#A6AEC1" stroke-width="2" stroke-miterlimit="10" stroke-linejoin="round"/>
<path d="M20.1242 17.6875H5.82422C4.93047 17.6875 4.19922 16.9563 4.19922 16.0625C4.19922 15.1687 4.93047 14.6 5.82422 14.4375L22.5617 12V3.875H7.93672" stroke="#A6AEC1" stroke-width="2" stroke-miterlimit="10" stroke-linejoin="round"/>
<path d="M7.9375 22.5625C8.38623 22.5625 8.75 22.1987 8.75 21.75C8.75 21.3013 8.38623 20.9375 7.9375 20.9375C7.48877 20.9375 7.125 21.3013 7.125 21.75C7.125 22.1987 7.48877 22.5625 7.9375 22.5625Z" stroke="#A6AEC1" stroke-width="2" stroke-miterlimit="10" stroke-linejoin="round"/>
<path d="M18.5 22.5625C18.9487 22.5625 19.3125 22.1987 19.3125 21.75C19.3125 21.3013 18.9487 20.9375 18.5 20.9375C18.0513 20.9375 17.6875 21.3013 17.6875 21.75C17.6875 22.1987 18.0513 22.5625 18.5 22.5625Z" stroke="#A6AEC1" stroke-width="2" stroke-miterlimit="10" stroke-linejoin="round"/>
</svg>
