<svg width="20" height="21" viewBox="0 0 20 21" fill="none" xmlns="http://www.w3.org/2000/svg">
<path d="M19.75 19.6665C19.75 19.9538 19.6359 20.2293 19.4327 20.4325C19.2295 20.6357 18.954 20.7498 18.6667 20.7498H1.33333C1.04602 20.7498 0.770466 20.6357 0.567301 20.4325C0.364137 20.2293 0.25 19.9538 0.25 19.6665V8.28064C0.249886 8.11555 0.287502 7.95262 0.359976 7.8043C0.432449 7.65597 0.537863 7.52617 0.668167 7.42481L9.33483 0.684306C9.525 0.536372 9.75906 0.456055 10 0.456055C10.2409 0.456055 10.475 0.536372 10.6652 0.684306L19.3318 7.42481C19.4621 7.52617 19.5676 7.65597 19.64 7.8043C19.7125 7.95262 19.7501 8.11555 19.75 8.28064V19.6665ZM17.5833 18.5831V8.80931L10 2.91164L2.41667 8.80931V18.5831H17.5833ZM4.58333 14.2498H15.4167V16.4165H4.58333V14.2498Z" fill="#90C63E"/>
</svg>
