<svg width="20" height="22" viewBox="0 0 20 22" fill="none" xmlns="http://www.w3.org/2000/svg">
<path d="M7.99166 1.51912C8.31358 0.726164 9.09149 0.166992 10 0.166992C10.9085 0.166992 11.6864 0.726164 12.0083 1.51912C15.2219 2.39944 17.5833 5.34077 17.5833 8.83366V13.9223L19.5681 16.8994C19.7897 17.2318 19.8103 17.6593 19.6218 18.0115C19.4333 18.3638 19.0662 18.5837 18.6667 18.5837H13.7533C13.4904 20.4212 11.9102 21.8337 10 21.8337C8.08983 21.8337 6.50957 20.4212 6.24673 18.5837H1.33334C0.933807 18.5837 0.566708 18.3638 0.378188 18.0115C0.189667 17.6593 0.210329 17.2318 0.431947 16.8994L2.41667 13.9223V8.83366C2.41667 5.34077 4.77815 2.39944 7.99166 1.51912ZM8.46747 18.5837C8.69055 19.2148 9.29247 19.667 10 19.667C10.7075 19.667 11.3095 19.2148 11.5325 18.5837H8.46747ZM10 3.41699C7.00846 3.41699 4.58333 5.84212 4.58333 8.83366V14.2503C4.58333 14.4642 4.52003 14.6733 4.40139 14.8513L3.35756 16.417H16.6424L15.5986 14.8513C15.48 14.6733 15.4167 14.4642 15.4167 14.2503V8.83366C15.4167 5.84212 12.9915 3.41699 10 3.41699Z" fill="#A6AEC1"/>
</svg>
