<svg width="20" height="21" viewBox="0 0 20 21" fill="none" xmlns="http://www.w3.org/2000/svg">
<path d="M6.75 0.166992C7.34831 0.166992 7.83333 0.652017 7.83333 1.25033V2.33366H12.1667V1.25033C12.1667 0.652017 12.6517 0.166992 13.25 0.166992C13.8483 0.166992 14.3333 0.652017 14.3333 1.25033V2.33366H17.5833C18.78 2.33366 19.75 3.30371 19.75 4.50033V18.5837C19.75 19.7803 18.78 20.7503 17.5833 20.7503H2.41667C1.22005 20.7503 0.25 19.7803 0.25 18.5837V4.50033C0.25 3.30371 1.22005 2.33366 2.41667 2.33366H5.66667V1.25033C5.66667 0.652017 6.15169 0.166992 6.75 0.166992ZM5.66667 4.50033H2.41667V7.75033H17.5833V4.50033H14.3333V5.58366C14.3333 6.18197 13.8483 6.66699 13.25 6.66699C12.6517 6.66699 12.1667 6.18197 12.1667 5.58366V4.50033H7.83333V5.58366C7.83333 6.18197 7.34831 6.66699 6.75 6.66699C6.15169 6.66699 5.66667 6.18197 5.66667 5.58366V4.50033ZM17.5833 9.91699H2.41667V18.5837H17.5833V9.91699Z" fill="#A6AEC1"/>
</svg>
