<svg width="24" height="24" viewBox="0 0 24 24" fill="none" xmlns="http://www.w3.org/2000/svg">
<mask id="path-1-outside-1" maskUnits="userSpaceOnUse" x="3.36328" y="-0.22168" width="17" height="24" fill="black">
<rect fill="white" x="3.36328" y="-0.22168" width="17" height="24"/>
<path d="M19.4842 0.880723C19.4369 0.840409 19.3814 0.810864 19.3216 0.794136C19.2617 0.777408 19.199 0.773899 19.1376 0.783851L4.72388 3.11345C4.62331 3.12964 4.5318 3.18158 4.46573 3.25911C4.39965 3.33663 4.36334 3.43515 4.36328 3.53701V22.7938C4.36328 22.9076 4.40849 23.0167 4.48895 23.0972C4.56942 23.1776 4.67855 23.2228 4.79235 23.2228H19.2061C19.3199 23.2228 19.429 23.1776 19.5095 23.0972C19.5899 23.0167 19.6351 22.9076 19.6351 22.7938V1.20744C19.6351 1.14529 19.6217 1.08389 19.5956 1.02748C19.5695 0.971072 19.5315 0.920997 19.4842 0.880723ZM5.2214 22.3647V12.4342H6.83554V18.1175C6.83554 18.2313 6.88074 18.3405 6.96121 18.4209C7.04167 18.5014 7.15081 18.5466 7.2646 18.5466C7.6371 18.547 7.99423 18.6952 8.25763 18.9586C8.52103 19.222 8.66919 19.5791 8.66962 19.9516C8.66962 20.0654 8.71482 20.1745 8.79529 20.255C8.87575 20.3355 8.98489 20.3807 9.09868 20.3807H14.8678C14.9816 20.3807 15.0907 20.3355 15.1712 20.255C15.2517 20.1745 15.2969 20.0654 15.2969 19.9516C15.2972 19.5794 15.4451 19.2224 15.7082 18.9591C15.9712 18.6957 16.328 18.5474 16.7002 18.5466L16.7264 18.5473C16.7289 18.5473 16.7313 18.5474 16.7338 18.5474C16.8476 18.5474 16.9567 18.5022 17.0372 18.4217C17.1177 18.3413 17.1629 18.2321 17.1629 18.1183V12.4342H18.777V22.3647H5.2214ZM16.3047 11.5761H14.8554V11.2329C14.8555 11.103 14.8207 10.9755 14.7548 10.8636C14.6889 10.7517 14.5943 10.6594 14.4807 10.5964C14.3672 10.5333 14.2388 10.5018 14.109 10.5051C13.9792 10.5084 13.8526 10.5464 13.7423 10.6151L12.0438 11.6739C12.0093 11.6663 11.974 11.6629 11.9387 11.664L10.2561 10.6151C10.1459 10.5464 10.0193 10.5084 9.88947 10.5051C9.75963 10.5018 9.63127 10.5333 9.5177 10.5964C9.40414 10.6594 9.3095 10.7517 9.24361 10.8636C9.17772 10.9755 9.14297 11.103 9.14297 11.2329V11.5761H7.69367V8.56901C8.13076 8.48195 8.53279 8.26882 8.85015 7.95592C9.16751 7.64302 9.38631 7.24404 9.47954 6.80823H14.487C14.5813 7.24945 14.8044 7.6528 15.1279 7.96728C15.4515 8.28175 15.861 8.49323 16.3047 8.57499L16.3047 11.5761ZM9.14295 12.4342V12.9525C9.14199 13.0826 9.17634 13.2105 9.24232 13.3226C9.3083 13.4347 9.40346 13.5268 9.51765 13.5891C9.63092 13.653 9.75943 13.6851 9.88947 13.6818C10.0195 13.6785 10.1462 13.64 10.2561 13.5703L11.4211 12.8441L10.4959 15.415C10.4766 15.468 10.468 15.5244 10.4705 15.5808C10.473 15.6372 10.4867 15.6925 10.5107 15.7436C10.5346 15.7947 10.5684 15.8406 10.6102 15.8786C10.6519 15.9167 10.7007 15.9461 10.7538 15.9652C10.807 15.9843 10.8633 15.9928 10.9197 15.99C10.9761 15.9873 11.0314 15.9735 11.0825 15.9494C11.1335 15.9253 11.1793 15.8913 11.2172 15.8495C11.2551 15.8076 11.2843 15.7587 11.3033 15.7055L12.0501 13.6306L12.7968 15.7055C12.8158 15.7587 12.8451 15.8076 12.883 15.8495C12.9208 15.8913 12.9666 15.9253 13.0177 15.9494C13.0687 15.9735 13.124 15.9873 13.1804 15.99C13.2368 15.9928 13.2932 15.9843 13.3463 15.9652C13.3994 15.9461 13.4482 15.9167 13.49 15.8786C13.5317 15.8406 13.5655 15.7947 13.5895 15.7436C13.6134 15.6925 13.6271 15.6372 13.6296 15.5808C13.6322 15.5244 13.6235 15.468 13.6043 15.415L12.7085 12.9259L13.7423 13.5703C13.8525 13.6391 13.9791 13.677 14.1089 13.6803C14.2388 13.6836 14.3671 13.6521 14.4807 13.5891C14.5943 13.5261 14.6889 13.4338 14.7548 13.3219C14.8207 13.2099 14.8554 13.0824 14.8554 12.9525V12.4342H16.3047V17.7234C15.8547 17.8045 15.4396 18.0197 15.1139 18.3407C14.7882 18.6617 14.5671 19.0737 14.4795 19.5225H9.48695C9.40043 19.0791 9.18356 18.6716 8.86409 18.3521C8.54462 18.0327 8.1371 17.8158 7.69367 17.7293V12.4342L9.14295 12.4342ZM17.1629 11.5761V8.18053C17.1629 8.12356 17.1515 8.06716 17.1295 8.01462C17.1075 7.96208 17.0752 7.91446 17.0346 7.87452C16.9939 7.83459 16.9458 7.80314 16.8929 7.78202C16.84 7.7609 16.7834 7.75053 16.7264 7.75151L16.7004 7.75227C16.3328 7.75018 15.9806 7.60476 15.7186 7.34695C15.4567 7.08914 15.3056 6.73929 15.2977 6.37183C15.2957 6.25932 15.2497 6.15207 15.1694 6.07318C15.0892 5.9943 14.9812 5.95009 14.8686 5.95009H9.09787C8.98535 5.95009 8.87733 5.99429 8.79709 6.07317C8.71684 6.15205 8.67079 6.25929 8.66886 6.3718C8.66088 6.73953 8.50963 7.08961 8.24733 7.34746C7.98503 7.60532 7.63242 7.75056 7.2646 7.75226C7.15081 7.75226 7.04167 7.79746 6.96121 7.87793C6.88074 7.95839 6.83554 8.06753 6.83554 8.18132V11.5761H5.2214V3.96608H18.777V11.5761L17.1629 11.5761Z"/>
</mask>
<path d="M19.4842 0.880723C19.4369 0.840409 19.3814 0.810864 19.3216 0.794136C19.2617 0.777408 19.199 0.773899 19.1376 0.783851L4.72388 3.11345C4.62331 3.12964 4.5318 3.18158 4.46573 3.25911C4.39965 3.33663 4.36334 3.43515 4.36328 3.53701V22.7938C4.36328 22.9076 4.40849 23.0167 4.48895 23.0972C4.56942 23.1776 4.67855 23.2228 4.79235 23.2228H19.2061C19.3199 23.2228 19.429 23.1776 19.5095 23.0972C19.5899 23.0167 19.6351 22.9076 19.6351 22.7938V1.20744C19.6351 1.14529 19.6217 1.08389 19.5956 1.02748C19.5695 0.971072 19.5315 0.920997 19.4842 0.880723ZM5.2214 22.3647V12.4342H6.83554V18.1175C6.83554 18.2313 6.88074 18.3405 6.96121 18.4209C7.04167 18.5014 7.15081 18.5466 7.2646 18.5466C7.6371 18.547 7.99423 18.6952 8.25763 18.9586C8.52103 19.222 8.66919 19.5791 8.66962 19.9516C8.66962 20.0654 8.71482 20.1745 8.79529 20.255C8.87575 20.3355 8.98489 20.3807 9.09868 20.3807H14.8678C14.9816 20.3807 15.0907 20.3355 15.1712 20.255C15.2517 20.1745 15.2969 20.0654 15.2969 19.9516C15.2972 19.5794 15.4451 19.2224 15.7082 18.9591C15.9712 18.6957 16.328 18.5474 16.7002 18.5466L16.7264 18.5473C16.7289 18.5473 16.7313 18.5474 16.7338 18.5474C16.8476 18.5474 16.9567 18.5022 17.0372 18.4217C17.1177 18.3413 17.1629 18.2321 17.1629 18.1183V12.4342H18.777V22.3647H5.2214ZM16.3047 11.5761H14.8554V11.2329C14.8555 11.103 14.8207 10.9755 14.7548 10.8636C14.6889 10.7517 14.5943 10.6594 14.4807 10.5964C14.3672 10.5333 14.2388 10.5018 14.109 10.5051C13.9792 10.5084 13.8526 10.5464 13.7423 10.6151L12.0438 11.6739C12.0093 11.6663 11.974 11.6629 11.9387 11.664L10.2561 10.6151C10.1459 10.5464 10.0193 10.5084 9.88947 10.5051C9.75963 10.5018 9.63127 10.5333 9.5177 10.5964C9.40414 10.6594 9.3095 10.7517 9.24361 10.8636C9.17772 10.9755 9.14297 11.103 9.14297 11.2329V11.5761H7.69367V8.56901C8.13076 8.48195 8.53279 8.26882 8.85015 7.95592C9.16751 7.64302 9.38631 7.24404 9.47954 6.80823H14.487C14.5813 7.24945 14.8044 7.6528 15.1279 7.96728C15.4515 8.28175 15.861 8.49323 16.3047 8.57499L16.3047 11.5761ZM9.14295 12.4342V12.9525C9.14199 13.0826 9.17634 13.2105 9.24232 13.3226C9.3083 13.4347 9.40346 13.5268 9.51765 13.5891C9.63092 13.653 9.75943 13.6851 9.88947 13.6818C10.0195 13.6785 10.1462 13.64 10.2561 13.5703L11.4211 12.8441L10.4959 15.415C10.4766 15.468 10.468 15.5244 10.4705 15.5808C10.473 15.6372 10.4867 15.6925 10.5107 15.7436C10.5346 15.7947 10.5684 15.8406 10.6102 15.8786C10.6519 15.9167 10.7007 15.9461 10.7538 15.9652C10.807 15.9843 10.8633 15.9928 10.9197 15.99C10.9761 15.9873 11.0314 15.9735 11.0825 15.9494C11.1335 15.9253 11.1793 15.8913 11.2172 15.8495C11.2551 15.8076 11.2843 15.7587 11.3033 15.7055L12.0501 13.6306L12.7968 15.7055C12.8158 15.7587 12.8451 15.8076 12.883 15.8495C12.9208 15.8913 12.9666 15.9253 13.0177 15.9494C13.0687 15.9735 13.124 15.9873 13.1804 15.99C13.2368 15.9928 13.2932 15.9843 13.3463 15.9652C13.3994 15.9461 13.4482 15.9167 13.49 15.8786C13.5317 15.8406 13.5655 15.7947 13.5895 15.7436C13.6134 15.6925 13.6271 15.6372 13.6296 15.5808C13.6322 15.5244 13.6235 15.468 13.6043 15.415L12.7085 12.9259L13.7423 13.5703C13.8525 13.6391 13.9791 13.677 14.1089 13.6803C14.2388 13.6836 14.3671 13.6521 14.4807 13.5891C14.5943 13.5261 14.6889 13.4338 14.7548 13.3219C14.8207 13.2099 14.8554 13.0824 14.8554 12.9525V12.4342H16.3047V17.7234C15.8547 17.8045 15.4396 18.0197 15.1139 18.3407C14.7882 18.6617 14.5671 19.0737 14.4795 19.5225H9.48695C9.40043 19.0791 9.18356 18.6716 8.86409 18.3521C8.54462 18.0327 8.1371 17.8158 7.69367 17.7293V12.4342L9.14295 12.4342ZM17.1629 11.5761V8.18053C17.1629 8.12356 17.1515 8.06716 17.1295 8.01462C17.1075 7.96208 17.0752 7.91446 17.0346 7.87452C16.9939 7.83459 16.9458 7.80314 16.8929 7.78202C16.84 7.7609 16.7834 7.75053 16.7264 7.75151L16.7004 7.75227C16.3328 7.75018 15.9806 7.60476 15.7186 7.34695C15.4567 7.08914 15.3056 6.73929 15.2977 6.37183C15.2957 6.25932 15.2497 6.15207 15.1694 6.07318C15.0892 5.9943 14.9812 5.95009 14.8686 5.95009H9.09787C8.98535 5.95009 8.87733 5.99429 8.79709 6.07317C8.71684 6.15205 8.67079 6.25929 8.66886 6.3718C8.66088 6.73953 8.50963 7.08961 8.24733 7.34746C7.98503 7.60532 7.63242 7.75056 7.2646 7.75226C7.15081 7.75226 7.04167 7.79746 6.96121 7.87793C6.88074 7.95839 6.83554 8.06753 6.83554 8.18132V11.5761H5.2214V3.96608H18.777V11.5761L17.1629 11.5761Z" fill="black"/>
<path d="M19.4842 0.880723C19.4369 0.840409 19.3814 0.810864 19.3216 0.794136C19.2617 0.777408 19.199 0.773899 19.1376 0.783851L4.72388 3.11345C4.62331 3.12964 4.5318 3.18158 4.46573 3.25911C4.39965 3.33663 4.36334 3.43515 4.36328 3.53701V22.7938C4.36328 22.9076 4.40849 23.0167 4.48895 23.0972C4.56942 23.1776 4.67855 23.2228 4.79235 23.2228H19.2061C19.3199 23.2228 19.429 23.1776 19.5095 23.0972C19.5899 23.0167 19.6351 22.9076 19.6351 22.7938V1.20744C19.6351 1.14529 19.6217 1.08389 19.5956 1.02748C19.5695 0.971072 19.5315 0.920997 19.4842 0.880723ZM5.2214 22.3647V12.4342H6.83554V18.1175C6.83554 18.2313 6.88074 18.3405 6.96121 18.4209C7.04167 18.5014 7.15081 18.5466 7.2646 18.5466C7.6371 18.547 7.99423 18.6952 8.25763 18.9586C8.52103 19.222 8.66919 19.5791 8.66962 19.9516C8.66962 20.0654 8.71482 20.1745 8.79529 20.255C8.87575 20.3355 8.98489 20.3807 9.09868 20.3807H14.8678C14.9816 20.3807 15.0907 20.3355 15.1712 20.255C15.2517 20.1745 15.2969 20.0654 15.2969 19.9516C15.2972 19.5794 15.4451 19.2224 15.7082 18.9591C15.9712 18.6957 16.328 18.5474 16.7002 18.5466L16.7264 18.5473C16.7289 18.5473 16.7313 18.5474 16.7338 18.5474C16.8476 18.5474 16.9567 18.5022 17.0372 18.4217C17.1177 18.3413 17.1629 18.2321 17.1629 18.1183V12.4342H18.777V22.3647H5.2214ZM16.3047 11.5761H14.8554V11.2329C14.8555 11.103 14.8207 10.9755 14.7548 10.8636C14.6889 10.7517 14.5943 10.6594 14.4807 10.5964C14.3672 10.5333 14.2388 10.5018 14.109 10.5051C13.9792 10.5084 13.8526 10.5464 13.7423 10.6151L12.0438 11.6739C12.0093 11.6663 11.974 11.6629 11.9387 11.664L10.2561 10.6151C10.1459 10.5464 10.0193 10.5084 9.88947 10.5051C9.75963 10.5018 9.63127 10.5333 9.5177 10.5964C9.40414 10.6594 9.3095 10.7517 9.24361 10.8636C9.17772 10.9755 9.14297 11.103 9.14297 11.2329V11.5761H7.69367V8.56901C8.13076 8.48195 8.53279 8.26882 8.85015 7.95592C9.16751 7.64302 9.38631 7.24404 9.47954 6.80823H14.487C14.5813 7.24945 14.8044 7.6528 15.1279 7.96728C15.4515 8.28175 15.861 8.49323 16.3047 8.57499L16.3047 11.5761ZM9.14295 12.4342V12.9525C9.14199 13.0826 9.17634 13.2105 9.24232 13.3226C9.3083 13.4347 9.40346 13.5268 9.51765 13.5891C9.63092 13.653 9.75943 13.6851 9.88947 13.6818C10.0195 13.6785 10.1462 13.64 10.2561 13.5703L11.4211 12.8441L10.4959 15.415C10.4766 15.468 10.468 15.5244 10.4705 15.5808C10.473 15.6372 10.4867 15.6925 10.5107 15.7436C10.5346 15.7947 10.5684 15.8406 10.6102 15.8786C10.6519 15.9167 10.7007 15.9461 10.7538 15.9652C10.807 15.9843 10.8633 15.9928 10.9197 15.99C10.9761 15.9873 11.0314 15.9735 11.0825 15.9494C11.1335 15.9253 11.1793 15.8913 11.2172 15.8495C11.2551 15.8076 11.2843 15.7587 11.3033 15.7055L12.0501 13.6306L12.7968 15.7055C12.8158 15.7587 12.8451 15.8076 12.883 15.8495C12.9208 15.8913 12.9666 15.9253 13.0177 15.9494C13.0687 15.9735 13.124 15.9873 13.1804 15.99C13.2368 15.9928 13.2932 15.9843 13.3463 15.9652C13.3994 15.9461 13.4482 15.9167 13.49 15.8786C13.5317 15.8406 13.5655 15.7947 13.5895 15.7436C13.6134 15.6925 13.6271 15.6372 13.6296 15.5808C13.6322 15.5244 13.6235 15.468 13.6043 15.415L12.7085 12.9259L13.7423 13.5703C13.8525 13.6391 13.9791 13.677 14.1089 13.6803C14.2388 13.6836 14.3671 13.6521 14.4807 13.5891C14.5943 13.5261 14.6889 13.4338 14.7548 13.3219C14.8207 13.2099 14.8554 13.0824 14.8554 12.9525V12.4342H16.3047V17.7234C15.8547 17.8045 15.4396 18.0197 15.1139 18.3407C14.7882 18.6617 14.5671 19.0737 14.4795 19.5225H9.48695C9.40043 19.0791 9.18356 18.6716 8.86409 18.3521C8.54462 18.0327 8.1371 17.8158 7.69367 17.7293V12.4342L9.14295 12.4342ZM17.1629 11.5761V8.18053C17.1629 8.12356 17.1515 8.06716 17.1295 8.01462C17.1075 7.96208 17.0752 7.91446 17.0346 7.87452C16.9939 7.83459 16.9458 7.80314 16.8929 7.78202C16.84 7.7609 16.7834 7.75053 16.7264 7.75151L16.7004 7.75227C16.3328 7.75018 15.9806 7.60476 15.7186 7.34695C15.4567 7.08914 15.3056 6.73929 15.2977 6.37183C15.2957 6.25932 15.2497 6.15207 15.1694 6.07318C15.0892 5.9943 14.9812 5.95009 14.8686 5.95009H9.09787C8.98535 5.95009 8.87733 5.99429 8.79709 6.07317C8.71684 6.15205 8.67079 6.25929 8.66886 6.3718C8.66088 6.73953 8.50963 7.08961 8.24733 7.34746C7.98503 7.60532 7.63242 7.75056 7.2646 7.75226C7.15081 7.75226 7.04167 7.79746 6.96121 7.87793C6.88074 7.95839 6.83554 8.06753 6.83554 8.18132V11.5761H5.2214V3.96608H18.777V11.5761L17.1629 11.5761Z" stroke="black" stroke-width="0.6" mask="url(#path-1-outside-1)"/>
</svg>
