<svg width="18" height="18" viewBox="0 0 18 18" fill="none" xmlns="http://www.w3.org/2000/svg">
<path d="M2 2H8C8.55 2 9 1.55 9 1C9 0.45 8.55 0 8 0H2C0.9 0 0 0.9 0 2V16C0 17.1 0.9 18 2 18H8C8.55 18 9 17.55 9 17C9 16.45 8.55 16 8 16H2V2Z" fill="black"/>
<path d="M17.65 8.64955L14.86 5.85955C14.7905 5.7881 14.7012 5.73903 14.6036 5.71862C14.506 5.69821 14.4045 5.70738 14.3121 5.74497C14.2198 5.78255 14.1408 5.84684 14.0851 5.9296C14.0295 6.01237 13.9999 6.10984 14 6.20955V7.99955H7C6.45 7.99955 6 8.44955 6 8.99955C6 9.54955 6.45 9.99955 7 9.99955H14V11.7896C14 12.2396 14.54 12.4596 14.85 12.1396L17.64 9.34955C17.84 9.15955 17.84 8.83955 17.65 8.64955V8.64955Z" fill="black"/>
</svg>
