<svg width="22" height="22" viewBox="0 0 22 22" fill="none" xmlns="http://www.w3.org/2000/svg">
<path d="M19.1262 2.0625H2.87375C2.42571 2.0625 2.0625 2.42571 2.0625 2.87375V6.06375C2.0625 6.51179 2.42571 6.875 2.87375 6.875H19.1262C19.5743 6.875 19.9375 6.51179 19.9375 6.06375V2.87375C19.9375 2.42571 19.5743 2.0625 19.1262 2.0625Z" stroke="black" stroke-width="1.5" stroke-linecap="round" stroke-linejoin="round"/>
<path d="M17.1875 6.875V18.5625C17.1875 18.9272 17.0426 19.2769 16.7848 19.5348C16.5269 19.7926 16.1772 19.9375 15.8125 19.9375H6.1875C5.82283 19.9375 5.47309 19.7926 5.21523 19.5348C4.95737 19.2769 4.8125 18.9272 4.8125 18.5625V6.875H17.1875Z" stroke="black" stroke-width="1.5" stroke-linecap="round" stroke-linejoin="round"/>
<path d="M19.9375 13.75V15.8125C19.9375 16.1772 19.7926 16.5269 19.5348 16.7848C19.2769 17.0426 18.9272 17.1875 18.5625 17.1875H17.1875V12.375H18.5625C18.9272 12.375 19.2769 12.5199 19.5348 12.7777C19.7926 13.0356 19.9375 13.3853 19.9375 13.75Z" stroke="black" stroke-width="1.5" stroke-linecap="round" stroke-linejoin="round"/>
<path d="M4.8125 12.375V17.1875H3.4375C3.07283 17.1875 2.72309 17.0426 2.46523 16.7848C2.20737 16.5269 2.0625 16.1772 2.0625 15.8125V13.75C2.0625 13.3853 2.20737 13.0356 2.46523 12.7777C2.72309 12.5199 3.07283 12.375 3.4375 12.375H4.8125Z" stroke="black" stroke-width="1.5" stroke-linecap="round" stroke-linejoin="round"/>
<path d="M13.75 2.0625V11" stroke="black" stroke-width="1.5" stroke-linecap="round" stroke-linejoin="round"/>
<path d="M8.25 2.0625V11" stroke="black" stroke-width="1.5" stroke-linecap="round" stroke-linejoin="round"/>
<path d="M14.4375 14.4375H7.5625V17.1875H14.4375V14.4375Z" stroke="black" stroke-width="1.5" stroke-linecap="round" stroke-linejoin="round"/>
</svg>
