<svg width="21" height="21" viewBox="0 0 21 21" fill="none" xmlns="http://www.w3.org/2000/svg">
<path d="M12.6452 10.7249L12.6453 10.7249L12.6467 10.7197C12.7302 10.3869 12.5617 10.0515 12.2282 9.92692L12.2284 9.92631L12.2174 9.92356C11.8841 9.84055 11.5475 10.0078 11.4223 10.3405L11.422 10.3404L11.4198 10.3482C11.2108 11.0767 10.7923 11.7723 10.2333 12.3292C9.35985 13.1994 8.17284 13.7206 6.91742 13.7206C5.66032 13.7206 4.47458 13.2338 3.6029 12.3306C2.72731 11.4234 2.20506 10.2755 2.20506 9.0262C2.20506 7.77413 2.69357 6.59299 3.60012 5.72457C4.51073 4.85224 5.66305 4.33179 6.91742 4.33179C8.17452 4.33179 9.36025 4.81863 10.2319 5.7218L10.2319 5.72181L10.2333 5.7232C10.687 6.1752 11.0359 6.69636 11.2803 7.28728C11.4096 7.62812 11.7921 7.75234 12.0877 7.62747C12.429 7.4986 12.5541 7.11767 12.4286 6.82252C12.2213 6.27263 11.9162 5.75611 11.5444 5.30341L13.8042 3.05201V4.0187C13.8042 4.3584 14.0989 4.65141 14.439 4.65141C14.779 4.65141 15.0737 4.3584 15.0737 4.0187V1.4972V1.49389C15.0737 1.46075 15.0737 1.41914 15.0682 1.3809C15.0633 1.347 15.0525 1.30147 15.0215 1.26313C14.9515 1.12548 14.8646 0.989636 14.6874 0.941204C14.5985 0.899954 14.5129 0.899986 14.4765 0.9L14.4746 0.9H11.908C11.568 0.9 11.2733 1.19302 11.2733 1.53271C11.2733 1.87241 11.568 2.16542 11.908 2.16542H12.9136L10.6537 4.41684C9.57863 3.55131 8.26425 3.10188 6.88177 3.10188C5.28757 3.10188 3.76479 3.7156 2.64048 4.83571C1.51616 5.95585 0.9 7.47312 0.9 9.06171C0.9 10.6503 1.51616 12.1676 2.64048 13.2877C3.76479 14.4078 5.28757 15.0215 6.88177 15.0215C8.47707 15.0215 9.96387 14.4071 11.1231 13.2522C11.8121 12.5658 12.3553 11.6637 12.6452 10.7249ZM16.5702 10.4179L18.8306 8.16598V9.13267C18.8306 9.47236 19.1252 9.76538 19.4653 9.76538C19.8053 9.76538 20.1 9.47236 20.1 9.13267V6.57565V6.55197L20.0894 6.5308C20.0749 6.50203 20.0679 6.4811 20.0592 6.45514L20.059 6.45444C20.0499 6.42728 20.0391 6.39513 20.0181 6.35323C19.947 6.21166 19.8603 6.06945 19.6781 6.01966C19.5892 5.97841 19.5035 5.97844 19.4672 5.97845L19.4653 5.97845H16.8987C16.5587 5.97845 16.264 6.27147 16.264 6.61117C16.264 6.95086 16.5587 7.24388 16.8987 7.24388H17.9043L15.6444 9.4953C14.5693 8.62976 13.2549 8.18033 11.8725 8.18033C10.2783 8.18033 8.75549 8.79405 7.63118 9.91417C6.94218 10.6006 6.39897 11.5027 6.10903 12.4415L6.10889 12.4414L6.10758 12.4467C6.02406 12.7795 6.19254 13.1148 6.52605 13.2394L6.52582 13.2401L6.53688 13.2428C6.87017 13.3258 7.2067 13.1586 7.33193 12.8259L7.33224 12.826L7.33447 12.8182C7.5434 12.0897 7.96195 11.3941 8.52092 10.8372C9.39438 9.96696 10.5814 9.44576 11.8368 9.44576C13.0939 9.44576 14.2796 9.93259 15.1513 10.8358L15.1527 10.8372C17.0028 12.6803 17.0028 15.6355 15.1527 17.4787C14.2793 18.3489 13.0922 18.8701 11.8368 18.8701C10.5797 18.8701 9.39398 18.3833 8.5223 17.4801L8.52092 17.4787C8.06722 17.0267 7.71837 16.5055 7.47393 15.9146C7.34462 15.5738 6.96214 15.4495 6.66649 15.5744C6.32519 15.7033 6.20006 16.0844 6.32575 16.3796C6.61722 17.1409 7.0896 17.7911 7.66682 18.3662C8.79113 19.4863 10.3139 20.1 11.9081 20.1C13.5023 20.1 15.0251 19.4863 16.1494 18.3662C18.3391 16.1846 18.4672 12.7639 16.5702 10.4179Z" fill="black" stroke="black" stroke-width="0.2"/>
</svg>
