<svg width="24" height="24" viewBox="0 0 24 24" fill="none" xmlns="http://www.w3.org/2000/svg">
<path d="M22.4016 21.3265H20.6746V16.2458V16.0958H20.5246H16.8016H16.6516V16.2458V21.3265H14.5823V4.12269V3.97269H14.4323H10.6785H10.5285V4.12269V21.3265H8.45925V11.3842V11.2342H8.30925H4.58618H4.43618V11.3842V21.3265H2.67464V1.59961V1.44961H2.52464H1.60156H1.45156V1.59961V22.3996V22.5496H1.60156H22.4016H22.5516V22.3996V21.4765V21.3265H22.4016ZM5.65925 21.3265V12.4573H7.23618V21.3265H5.65925ZM11.7516 21.3265V5.19576H13.3285V21.3265H11.7516ZM17.8746 21.3265V17.3188H19.4516V21.3265H17.8746Z" fill="black" stroke="black" stroke-width="0.3"/>
</svg>
