<svg width="250" height="187" viewBox="0 0 250 187" fill="none" xmlns="http://www.w3.org/2000/svg">
<path d="M250 163.725H0V163.85H250V163.725Z" fill="#CEE5A9"/>
<path d="M224.951 171.77H208.391V171.895H224.951V171.77Z" fill="#CEE5A9"/>
<path d="M165.611 173.131H161.266V173.256H165.611V173.131Z" fill="#CEE5A9"/>
<path d="M207.892 167.131H198.297V167.256H207.892V167.131Z" fill="#CEE5A9"/>
<path d="M47.8255 167.971H26.2305V168.096H47.8255V167.971Z" fill="#CEE5A9"/>
<path d="M55.4463 167.971H52.2812V168.096H55.4463V167.971Z" fill="#CEE5A9"/>
<path d="M112.574 170.08H65.7344V170.205H112.574V170.08Z" fill="#CEE5A9"/>
<path d="M118.507 141.425H21.9566C20.3816 141.425 19.1016 140.145 19.1016 138.57V2.855C19.1016 1.28 20.3816 0 21.9566 0H118.507C120.082 0 121.362 1.28 121.362 2.855V138.57C121.362 140.145 120.082 141.425 118.507 141.425ZM21.9566 0.125C20.4516 0.125 19.2266 1.35 19.2266 2.855V138.57C19.2266 140.075 20.4516 141.3 21.9566 141.3H118.507C120.012 141.3 121.237 140.075 121.237 138.57V2.855C121.237 1.35 120.012 0.125 118.507 0.125H21.9566Z" fill="#CEE5A9"/>
<path d="M226.655 141.425H130.105C128.53 141.425 127.25 140.145 127.25 138.57V2.855C127.25 1.28 128.53 0 130.105 0H226.655C228.23 0 229.51 1.28 229.51 2.855V138.57C229.51 140.145 228.23 141.425 226.655 141.425ZM130.105 0.125C128.6 0.125 127.375 1.35 127.375 2.855V138.57C127.375 140.075 128.6 141.3 130.105 141.3H226.655C228.16 141.3 229.385 140.075 229.385 138.57V2.855C229.385 1.35 228.16 0.125 226.655 0.125H130.105Z" fill="#CEE5A9"/>
<path d="M217.078 24.5703H138.383V81.4453H217.078V24.5703Z" fill="#DAEDBD"/>
<path d="M210.836 81.4403L182.956 24.5703H162.031L189.911 81.4403H210.836Z" fill="#F8FFED"/>
<path d="M185.499 81.4403L157.619 24.5703H149.984L177.869 81.4403H185.499Z" fill="#F8FFED"/>
<path d="M133.153 21.8594H222.303C222.573 21.8594 222.788 22.0794 222.788 22.3444C222.788 22.6144 222.568 22.8294 222.303 22.8294H133.153C132.883 22.8294 132.668 22.6094 132.668 22.3444C132.668 22.0794 132.888 21.8594 133.153 21.8594Z" fill="#DAEDBD"/>
<path d="M178.378 24.3984H177.078V81.6084H178.378V24.3984Z" fill="#DAEDBD"/>
<path d="M177.08 24.3984H176.43V81.6084H177.08V24.3984Z" fill="#DAEDBD"/>
<path d="M217.831 52.3535H137.621V53.6535H217.831V52.3535Z" fill="#DAEDBD"/>
<path d="M137.621 80.8986V25.1086V23.8086H138.921H216.531H217.831V25.1086V80.8986V82.1986H216.531H138.921H137.621V80.8986ZM216.531 80.8986V25.1086H138.921V80.8986H216.531Z" fill="#DAEDBD"/>
<path d="M137.623 23.8086H136.973V82.1986H137.623V23.8086Z" fill="#DAEDBD"/>
<path opacity="0.5" d="M159.628 20.6699V84.7449H142.008L145.238 20.6699H159.628Z" fill="#CEE5A9"/>
<path opacity="0.5" d="M149.628 20.6699V87.2599H132.008L135.238 20.6699H149.628Z" fill="#CEE5A9"/>
<path opacity="0.5" d="M195.18 20.6699V84.7449H212.8L209.57 20.6699H195.18Z" fill="#CEE5A9"/>
<path opacity="0.5" d="M205.18 20.6699V87.2599H222.8L219.57 20.6699H205.18Z" fill="#CEE5A9"/>
<path d="M107.671 11.5254H35.1562V158.89H107.671V11.5254Z" fill="#DAEDBD"/>
<path d="M101.644 155.806H41.1794C39.9694 155.806 38.9844 154.821 38.9844 153.611V16.8013C38.9844 15.5913 39.9694 14.6113 41.1794 14.6113H101.644C102.854 14.6113 103.839 15.5963 103.839 16.8013V153.616C103.834 154.826 102.849 155.806 101.644 155.806ZM41.1794 15.1613C40.2744 15.1613 39.5394 15.8963 39.5394 16.8013V153.616C39.5394 154.521 40.2744 155.256 41.1794 155.256H101.644C102.549 155.256 103.284 154.521 103.284 153.616V16.8013C103.284 15.8963 102.549 15.1613 101.644 15.1613H41.1794Z" fill="#DAEDBD"/>
<path d="M35.1562 163.726H43.0462L45.2612 158.891H35.1562V163.726Z" fill="#DAEDBD"/>
<path d="M100.805 163.726H92.9153L90.6953 158.891H100.805V163.726Z" fill="#DAEDBD"/>
<path d="M107.669 163.726H99.7736L97.5586 158.891H107.669V163.726Z" fill="#DAEDBD"/>
<path d="M35.1544 11.5254H28.1094V163.725H35.1544V11.5254Z" fill="#DAEDBD"/>
<path d="M71.4078 155.806C71.2578 155.806 71.1328 155.681 71.1328 155.531V14.8863C71.1328 14.7363 71.2578 14.6113 71.4078 14.6113C71.5578 14.6113 71.6828 14.7363 71.6828 14.8863V155.531C71.6828 155.686 71.5628 155.806 71.4078 155.806Z" fill="#DAEDBD"/>
<path d="M65.3587 82.7898C66.4026 82.7898 67.2487 81.9436 67.2487 80.8998C67.2487 79.8559 66.4026 79.0098 65.3587 79.0098C64.3149 79.0098 63.4688 79.8559 63.4688 80.8998C63.4688 81.9436 64.3149 82.7898 65.3587 82.7898Z" fill="#DAEDBD"/>
<path d="M77.4603 82.7898C78.5041 82.7898 79.3503 81.9436 79.3503 80.8998C79.3503 79.8559 78.5041 79.0098 77.4603 79.0098C76.4165 79.0098 75.5703 79.8559 75.5703 80.8998C75.5703 81.9436 76.4165 82.7898 77.4603 82.7898Z" fill="#DAEDBD"/>
<path d="M149.909 105.475H130.969V161.1H149.909V105.475Z" fill="#DAEDBD"/>
<path d="M218.864 161.1H134.609V163.725H218.864V161.1Z" fill="#DAEDBD"/>
<path d="M222.5 105.475H149.91V161.1H222.5V105.475Z" fill="#E2F2CA"/>
<path d="M221.185 126.494H151.23V140.079H221.185V126.494Z" fill="#DAEDBD"/>
<path d="M221.185 142.561H151.23V156.146H221.185V142.561Z" fill="#DAEDBD"/>
<path d="M221.185 110.43H151.23V124.015H221.185V110.43Z" fill="#DAEDBD"/>
<path d="M225.025 103.189H149.91V105.474H225.025V103.189Z" fill="#DAEDBD"/>
<path d="M149.909 103.189H128.324V105.474H149.909V103.189Z" fill="#E6F1D3"/>
<path d="M125 186.304C178.541 186.304 221.945 183.77 221.945 180.644C221.945 177.518 178.541 174.984 125 174.984C71.4584 174.984 28.0547 177.518 28.0547 180.644C28.0547 183.77 71.4584 186.304 125 186.304Z" fill="#E6F1D3"/>
<path d="M54.0209 27.1254C52.0609 25.7654 53.3309 20.0504 59.7209 18.2104C66.1059 16.3654 72.1509 21.9454 75.0009 27.0404C77.8509 32.1354 82.3009 32.4004 83.0059 29.9804C85.2009 31.9054 85.7259 40.3754 76.3359 40.6804C79.6259 43.9704 70.8509 50.6504 59.7209 46.1254C48.5959 41.5954 50.9359 29.3604 54.0209 27.1254Z" fill="#263238"/>
<path opacity="0.4" d="M54.0209 27.1254C52.0609 25.7654 53.3309 20.0504 59.7209 18.2104C66.1059 16.3654 72.1509 21.9454 75.0009 27.0404C77.8509 32.1354 82.3009 32.4004 83.0059 29.9804C85.2009 31.9054 85.7259 40.3754 76.3359 40.6804C79.6259 43.9704 70.8509 50.6504 59.7209 46.1254C48.5959 41.5954 50.9359 29.3604 54.0209 27.1254Z" fill="white"/>
<path d="M81.4998 180.645C78.7497 180.645 76.1147 180.465 73.9497 180.425C72.0947 180.385 71.4397 180.675 69.9547 180.645C68.7097 180.62 68.7597 179.43 69.1397 178.06C69.3297 177.37 69.6297 176.53 69.8947 175.42H75.7397C76.5347 176.935 79.4948 178.295 81.6648 178.585C83.7348 178.86 83.0348 180.645 81.4998 180.645Z" fill="#263238"/>
<path d="M123.078 172.095C119.298 172.195 118.018 171.99 115.888 171.975C114.063 171.96 113.793 172.355 111.943 172.405C110.718 172.44 110.448 171.07 110.818 170.025C111.108 169.21 111.298 168.13 111.103 167.285L116.048 165.615C116.863 166.75 118.578 168.925 123.618 169.935C125.633 170.345 124.593 172.055 123.078 172.095Z" fill="#263238"/>
<path d="M88.0051 74.2305C88.0051 74.2305 96.8801 98.3905 101.82 114.275C106.49 129.84 116.045 165.615 116.045 165.615C116.225 166.43 111.98 167.51 111.1 167.285C111.1 167.285 95.4102 144.07 91.5152 117.925C77.1852 99.7605 70.4102 78.5105 70.4102 78.5105L88.0051 74.2305Z" fill="#90C63E"/>
<path d="M82.7272 75.5098C82.7272 75.5098 84.1173 107.695 81.3323 122.955C78.4073 138.98 75.1222 164.89 75.7422 175.415C74.8422 175.94 71.6722 175.97 69.8972 175.415C69.8972 175.415 62.0472 139.955 70.3372 124.24C66.2972 86.8648 67.8122 79.1398 67.8122 79.1398L82.7272 75.5098Z" fill="#90C63E"/>
<path d="M76.1863 173.225C76.2013 173.755 76.2513 174.68 76.3913 175.385C76.4413 175.64 76.2713 175.875 76.0113 175.915C73.8713 176.26 70.7713 175.76 69.7913 175.585C69.6013 175.55 69.4613 175.4 69.4313 175.215L69.1113 173.19C69.0663 172.915 69.2863 172.665 69.5663 172.67L75.7463 172.79C75.9863 172.795 76.1813 172.985 76.1863 173.225Z" fill="#263238"/>
<path opacity="0.1" d="M76.1863 173.225C76.2013 173.755 76.2513 174.68 76.3913 175.385C76.4413 175.64 76.2713 175.875 76.0113 175.915C73.8713 176.26 70.7713 175.76 69.7913 175.585C69.6013 175.55 69.4613 175.4 69.4313 175.215L69.1113 173.19C69.0663 172.915 69.2863 172.665 69.5663 172.67L75.7463 172.79C75.9863 172.795 76.1813 172.985 76.1863 173.225Z" fill="white"/>
<path d="M115.777 163.291C115.997 163.811 116.392 164.736 116.712 165.416C116.817 165.641 116.722 165.901 116.502 166.011C114.847 166.841 111.972 167.566 111.022 167.791C110.832 167.836 110.642 167.756 110.537 167.591L109.432 165.831C109.282 165.591 109.387 165.271 109.652 165.171L115.197 163.051C115.427 162.966 115.682 163.071 115.777 163.291Z" fill="#263238"/>
<path opacity="0.1" d="M115.777 163.291C115.997 163.811 116.392 164.736 116.712 165.416C116.817 165.641 116.722 165.901 116.502 166.011C114.847 166.841 111.972 167.566 111.022 167.791C110.832 167.836 110.642 167.756 110.537 167.591L109.432 165.831C109.282 165.591 109.387 165.271 109.652 165.171L115.197 163.051C115.427 162.966 115.682 163.071 115.777 163.291Z" fill="white"/>
<path d="M81.3417 48.1702L81.5617 48.4952L81.8417 48.8902C82.0367 49.1552 82.2267 49.4302 82.4367 49.6952C82.8467 50.2302 83.2667 50.7652 83.7117 51.2802C84.5917 52.3252 85.5467 53.3002 86.5317 54.2302C87.5267 55.1452 88.5717 56.0002 89.6667 56.7702C90.7667 57.5302 91.9067 58.2052 93.0967 58.7852L91.6317 58.5402C91.6967 58.5702 91.7717 58.5802 91.9217 58.5602C92.0667 58.5402 92.2767 58.4602 92.5117 58.3102C92.9817 57.9952 93.5567 57.4702 94.0717 56.8102C94.6067 56.1652 95.1067 55.4052 95.5917 54.6102C96.0717 53.8302 96.5417 52.9402 96.9717 52.1602L97.0567 52.0102C97.5467 51.1202 98.6667 50.7902 99.5567 51.2802C100.207 51.6352 100.557 52.3302 100.507 53.0252C100.422 54.2152 100.237 55.2552 99.9717 56.3652C99.6967 57.4602 99.3367 58.5502 98.8217 59.6502C98.2967 60.7352 97.6417 61.8602 96.6067 62.9152C96.0817 63.4402 95.4467 63.9452 94.6767 64.3652C93.9117 64.7852 92.9867 65.0752 92.0367 65.1702C91.6067 65.2152 91.1917 65.1552 90.8117 65.0152L90.5667 64.9252C88.9367 64.3202 87.3617 63.5802 85.8867 62.6852C85.1417 62.2502 84.4317 61.7702 83.7317 61.2802C83.0417 60.7752 82.3717 60.2502 81.7167 59.7002C80.4167 58.6002 79.2117 57.4052 78.0967 56.1302C77.5417 55.4902 77.0017 54.8352 76.5017 54.1452C76.2467 53.8002 75.9967 53.4502 75.7567 53.0902L75.3967 52.5352L75.2167 52.2452L75.0067 51.8952C73.9667 50.1552 74.5417 47.9002 76.2817 46.8652C77.9617 45.8652 80.1167 46.3602 81.1967 47.9552L81.3417 48.1702Z" fill="#FFC3BD"/>
<path d="M75.7513 44.5656C79.6463 44.3606 82.3913 47.0406 87.6663 52.7556C87.4113 55.4256 82.1963 59.1906 82.1963 59.1906C82.1963 59.1906 70.7763 50.8706 75.7513 44.5656Z" fill="#263238"/>
<path d="M83.3692 50.18C83.9142 52.15 84.6042 54.645 85.4842 59.45C86.3042 63.5 86.9842 67.515 88.0042 74.23L67.8092 79.135C66.8342 73.35 64.5942 67.025 57.8592 55.11C56.2992 52.345 57.4792 49.04 60.3992 48.01C61.1792 47.735 62.0092 47.46 62.8742 47.205C66.2192 46.22 68.9692 45.435 72.0442 44.975C73.0642 44.825 74.1242 44.695 75.1492 44.595C78.8292 44.23 82.3942 46.65 83.3692 50.18Z" fill="#263238"/>
<path d="M61.0078 36.7246C62.5228 39.4796 64.8178 44.6496 63.3778 47.0846C63.3778 47.0846 66.0728 45.9846 72.8928 48.2146C74.0128 45.3346 72.5428 44.8596 72.5428 44.8596C69.0028 44.8896 68.3128 42.4696 68.1578 40.0796L61.0078 36.7246Z" fill="#FFC3BD"/>
<path d="M71.4672 47.7807C69.5822 48.5357 70.4022 52.7107 70.4022 52.7107C70.4022 52.7107 63.4522 49.3957 61.9922 47.3557C62.6022 46.8207 63.5772 45.9707 63.5772 45.9707C63.5772 45.9707 70.0522 46.9307 71.4672 47.7807Z" fill="#90C63E"/>
<path d="M73.2511 47.0153C73.2511 47.0153 76.0261 47.8053 77.2161 50.0303C76.6161 45.6203 73.4511 44.6304 73.4511 44.6304C73.4511 44.6304 72.7311 44.3403 71.6211 44.8053C73.3711 45.2453 73.2511 47.0153 73.2511 47.0153Z" fill="#90C63E"/>
<path opacity="0.2" d="M63.9262 38.0957L68.1612 40.0757C68.1962 40.6407 68.2662 41.2107 68.3962 41.7407C67.0812 41.8657 64.9162 40.9307 64.3662 39.6707C64.0862 39.0457 63.9162 38.4207 63.9262 38.0957Z" fill="black"/>
<path d="M57.0519 31.4203C59.1069 35.9653 59.8769 37.9303 63.1469 39.5553C68.0719 42.0003 73.2469 38.8153 72.6019 33.8303C72.0219 29.3403 68.7619 22.6603 63.4719 22.2803C58.2619 21.9003 54.9969 26.8703 57.0519 31.4203Z" fill="#FFC3BD"/>
<path opacity="0.2" d="M63.3711 30.0863C63.3711 30.0863 62.5611 29.8663 61.9961 30.2763C62.7611 30.3263 63.3711 30.0863 63.3711 30.0863Z" fill="black"/>
<path opacity="0.2" d="M63.3916 30.4209C63.3916 30.4209 62.6266 30.3759 62.2266 30.8959C62.9116 30.7809 63.3916 30.4209 63.3916 30.4209Z" fill="black"/>
<path opacity="0.2" d="M69.9648 28.4194C69.9648 28.4194 70.2548 28.0094 70.5098 28.1944C70.2248 28.4494 69.9648 28.4194 69.9648 28.4194Z" fill="black"/>
<path opacity="0.2" d="M70.0547 28.7248C70.0547 28.7248 70.2847 28.3598 70.4847 28.6698C70.2547 28.8498 70.0547 28.7248 70.0547 28.7248Z" fill="black"/>
<path opacity="0.2" d="M66.9975 24.8203C66.9975 24.8203 64.3325 24.9553 63.0625 25.6753C65.4175 25.3703 66.9975 24.8203 66.9975 24.8203Z" fill="black"/>
<path d="M64.005 30.3853C64.16 30.7753 64.495 31.0253 64.745 30.9403C64.995 30.8553 65.08 30.4753 64.92 30.0853C64.765 29.6953 64.43 29.4453 64.18 29.5303C63.93 29.6153 63.85 29.9953 64.005 30.3853Z" fill="#263238"/>
<path d="M68.8018 28.9154C68.9568 29.3054 69.2918 29.5554 69.5418 29.4704C69.7968 29.3904 69.8768 29.0054 69.7168 28.6204C69.5618 28.2304 69.2268 27.9804 68.9768 28.0654C68.7268 28.1454 68.6468 28.5254 68.8018 28.9154Z" fill="#263238"/>
<path d="M68.875 28.1208L69.7 27.5508C69.695 27.5508 69.51 28.4358 68.875 28.1208Z" fill="#263238"/>
<path d="M68.3398 29.6562C68.3398 29.6562 69.6698 31.1162 70.7148 31.6912C70.3948 32.3362 69.4348 32.3962 69.4348 32.3962L68.3398 29.6562Z" fill="#ED847E"/>
<path d="M67.784 34.5556C67.999 34.5256 68.224 34.4756 68.459 34.4006C68.524 34.3806 68.554 34.3106 68.529 34.2506C68.504 34.1856 68.434 34.1506 68.369 34.1756C66.669 34.7256 65.394 33.7906 65.384 33.7806C65.329 33.7406 65.254 33.7456 65.214 33.7956C65.174 33.8456 65.189 33.9206 65.244 33.9656C65.284 33.9956 66.314 34.7506 67.784 34.5556Z" fill="#263238"/>
<path d="M68.7066 23.7406C68.0316 21.4006 58.5416 19.0656 56.3816 25.3856C54.1316 26.1256 56.0766 33.9406 59.0016 34.7456C62.1766 35.6206 61.2366 29.8256 59.0216 26.7806C60.7566 26.2406 62.3816 25.1606 62.7366 24.0506C65.4516 25.8256 69.4366 26.2606 68.7066 23.7406Z" fill="#263238"/>
<path opacity="0.4" d="M68.7066 23.7406C68.0316 21.4006 58.5416 19.0656 56.3816 25.3856C54.1316 26.1256 56.0766 33.9406 59.0016 34.7456C62.1766 35.6206 61.2366 29.8256 59.0216 26.7806C60.7566 26.2406 62.3816 25.1606 62.7366 24.0506C65.4516 25.8256 69.4366 26.2606 68.7066 23.7406Z" fill="white"/>
<path d="M57.0348 36.2545C57.8248 37.0545 58.7998 37.3895 59.5798 37.3445C60.7598 37.2795 60.8248 35.8845 60.0598 34.7595C59.3698 33.7495 57.9298 32.5595 56.9548 33.1745C55.9998 33.7795 56.1348 35.3395 57.0348 36.2545Z" fill="#FFC3BD"/>
<path d="M61.7378 28.1908C61.8028 28.1658 61.8628 28.1208 61.8878 28.0558C62.3428 27.0608 63.3228 26.8758 63.3328 26.8758C63.4778 26.8508 63.5778 26.7208 63.5478 26.5908C63.5178 26.4608 63.3778 26.3758 63.2278 26.4008C63.1778 26.4108 61.9478 26.6408 61.3828 27.8758C61.3278 28.0008 61.3928 28.1408 61.5328 28.1908C61.6028 28.2158 61.6778 28.2108 61.7378 28.1908Z" fill="#263238"/>
<path d="M70.1558 26.3762C70.2108 26.3562 70.2608 26.3112 70.2808 26.2562C70.3308 26.1362 70.2658 25.9962 70.1408 25.9462C68.8558 25.4162 67.9108 25.9912 67.8708 26.0212C67.7608 26.0912 67.7308 26.2362 67.8108 26.3462C67.8908 26.4562 68.0458 26.4862 68.1608 26.4162C68.1958 26.3912 68.9358 25.9562 69.9608 26.3762C70.0258 26.4012 70.0958 26.3962 70.1558 26.3762Z" fill="#263238"/>
<path d="M66.1079 33.1444C65.0179 33.1444 63.8629 31.9894 63.4929 30.4894C63.2629 29.5594 63.3729 28.6494 63.7929 28.0594C64.0629 27.6844 64.4329 27.4594 64.8679 27.4244C65.9979 27.3194 67.2329 28.5144 67.6179 30.0744C67.8479 31.0094 67.7379 31.9144 67.3179 32.5044C67.0479 32.8794 66.6779 33.0994 66.2429 33.1394C66.1979 33.1444 66.1529 33.1444 66.1079 33.1444ZM65.0029 27.6944C64.9629 27.6944 64.9279 27.6944 64.8879 27.6994C64.5379 27.7294 64.2329 27.9094 64.0129 28.2194C63.6429 28.7444 63.5479 29.5644 63.7579 30.4194C64.1129 31.8544 65.2229 32.9544 66.2129 32.8594C66.5629 32.8294 66.8679 32.6494 67.0879 32.3394C67.4579 31.8194 67.5529 30.9944 67.3429 30.1394C67.0029 28.7594 65.9729 27.6944 65.0029 27.6944Z" fill="white"/>
<path d="M71.0766 31.1444C69.9866 31.1444 68.8316 29.9894 68.4616 28.4894C68.2316 27.5594 68.3416 26.6494 68.7616 26.0594C69.0316 25.6794 69.4016 25.4594 69.8366 25.4244C70.9616 25.3194 72.2016 26.5144 72.5866 28.0744C72.8166 29.0094 72.7066 29.9144 72.2866 30.5044C72.0166 30.8794 71.6466 31.1044 71.2116 31.1394C71.1666 31.1394 71.1216 31.1444 71.0766 31.1444ZM69.9766 25.6944C69.9366 25.6944 69.9016 25.6944 69.8616 25.6994C69.5116 25.7294 69.2066 25.9094 68.9866 26.2194C68.6166 26.7444 68.5216 27.5644 68.7316 28.4194C69.0866 29.8544 70.1916 30.9544 71.1866 30.8594C71.5366 30.8294 71.8416 30.6494 72.0616 30.3394C72.4316 29.8144 72.5266 28.9944 72.3166 28.1394C71.9716 26.7594 70.9416 25.6944 69.9766 25.6944Z" fill="white"/>
<path d="M67.3266 29.7546C67.2966 29.7546 67.2616 29.7446 67.2366 29.7196C67.1766 29.6696 67.1716 29.5796 67.2216 29.5246C67.2616 29.4796 68.1566 28.4396 68.8616 28.9046C68.9266 28.9446 68.9416 29.0346 68.9016 29.0996C68.8616 29.1646 68.7716 29.1796 68.7066 29.1396C68.2166 28.8146 67.4416 29.6996 67.4316 29.7096C67.4016 29.7346 67.3616 29.7546 67.3266 29.7546Z" fill="white"/>
<path d="M64.0742 29.5895L64.8992 29.0195C64.8992 29.0195 64.7142 29.9045 64.0742 29.5895Z" fill="#263238"/>
<path d="M98.5052 47.0395L97.3402 48.0645C96.9002 48.4495 96.6802 49.0245 96.7402 49.6045L97.0202 52.3145C97.1302 53.3995 97.7602 54.3595 98.7102 54.8995L99.2952 55.2295C101.34 53.6595 102.395 50.4595 102.395 50.4595L102.795 49.5795C103.155 48.7945 102.85 47.9195 102.095 47.5645L100.365 46.7445C99.7702 46.4595 99.0302 46.5745 98.5052 47.0395Z" fill="#FFC3BD"/>
<path d="M62.9773 55.1751L63.3123 59.2851C63.4223 60.6701 63.5623 62.0451 63.6923 63.4251C63.8323 64.8001 63.9923 66.1651 64.1623 67.5251C64.3473 68.8751 64.5473 70.2151 64.7823 71.5301L63.9273 69.9901C63.9873 70.1051 64.3023 70.3751 64.6723 70.6351C65.0473 70.9001 65.5173 71.1601 66.0073 71.4101C66.9923 71.9051 68.0923 72.3901 69.2173 72.8201C70.3423 73.2701 71.5073 73.6851 72.6823 74.1001L76.2223 75.3251L76.2673 75.3401C77.2273 75.6701 77.7373 76.7201 77.4073 77.6851C77.1423 78.4451 76.4273 78.9251 75.6673 78.9251C74.3023 78.9251 73.0073 78.8401 71.6823 78.7151C70.3623 78.5851 69.0423 78.4001 67.7123 78.1501C66.3823 77.8851 65.0423 77.5851 63.6673 77.1101C62.9773 76.8701 62.2773 76.6051 61.5423 76.2451C60.8073 75.8751 60.0423 75.4401 59.1923 74.6501C58.8123 74.2951 58.5523 73.8551 58.4173 73.3901L58.3373 73.1101C57.9173 71.6451 57.5473 70.1851 57.2523 68.7251C56.9473 67.2651 56.6873 65.8101 56.4723 64.3501C56.2473 62.8951 56.0823 61.4351 55.9323 59.9751C55.7923 58.5051 55.6823 57.0751 55.6423 55.5451C55.5823 53.5151 57.1823 51.8251 59.2123 51.7651C61.1723 51.7101 62.8173 53.2002 62.9773 55.1302V55.1751Z" fill="#FFC3BD"/>
<path d="M60.2223 48.0801C57.0573 49.3851 55.9823 50.7051 54.9023 57.9651C57.3623 61.2551 64.5473 61.2551 64.5473 61.2551C64.5473 61.2551 64.0123 51.8201 60.2223 48.0801Z" fill="#263238"/>
<path d="M165.268 47.0774L162.676 45.1504L162.363 45.5717L164.955 47.4987L165.268 47.0774Z" fill="#90C63E"/>
<path d="M160.556 43.5768L153.895 38.625L153.581 39.0464L160.243 43.9982L160.556 43.5768Z" fill="#90C63E"/>
<path d="M130.916 30.9559L77.7461 78.6109L137.496 75.8759L197.246 73.1409L139.941 30.5459C137.211 28.5159 133.441 28.6909 130.916 30.9559Z" fill="#90C63E"/>
<path opacity="0.5" d="M130.916 30.9559L77.7461 78.6109L137.496 75.8759L197.246 73.1409L139.941 30.5459C137.211 28.5159 133.441 28.6909 130.916 30.9559Z" fill="white"/>
<path d="M197.893 150.047L84.1278 155.257C81.4278 155.382 79.1178 153.272 78.9928 150.572L75.8178 81.2018C75.6928 78.5018 77.8028 76.1918 80.5028 76.0668L194.268 70.8568C196.968 70.7318 199.278 72.8418 199.403 75.5418L202.578 144.912C202.703 147.612 200.593 149.922 197.893 150.047Z" fill="#90C63E"/>
<path opacity="0.8" d="M197.893 150.047L84.1278 155.257C81.4278 155.382 79.1178 153.272 78.9928 150.572L75.8178 81.2018C75.6928 78.5018 77.8028 76.1918 80.5028 76.0668L194.268 70.8568C196.968 70.7318 199.278 72.8418 199.403 75.5418L202.578 144.912C202.703 147.612 200.593 149.922 197.893 150.047Z" fill="white"/>
<path opacity="0.2" d="M138.102 123.606L85.1965 79.9406C83.5415 78.5756 84.4365 75.8856 86.5815 75.7856L137.382 73.4606L188.181 71.1356C190.326 71.0356 191.467 73.6356 189.942 75.1456L141.247 123.466C140.392 124.311 139.032 124.376 138.102 123.606Z" fill="#90C63E"/>
<path d="M166.79 120.121L89.3404 94.9265C86.9004 94.1315 85.5504 91.4865 86.3454 89.0415L102.39 39.7115C103.185 37.2715 105.83 35.9215 108.275 36.7165L185.72 61.9115C188.16 62.7065 189.51 65.3515 188.715 67.7965L172.665 117.127C171.875 119.567 169.23 120.917 166.79 120.121Z" fill="#90C63E"/>
<path d="M166.235 119.942L88.7896 94.7468C86.3496 93.9518 84.9996 91.3068 85.7946 88.8618L101.84 39.5318C102.635 37.0918 105.28 35.7418 107.725 36.5368L185.17 61.7318C187.61 62.5268 188.96 65.1718 188.165 67.6168L172.12 116.947C171.32 119.387 168.675 120.737 166.235 119.942Z" fill="#90C63E"/>
<path opacity="0.2" d="M166.235 119.942L88.7896 94.7468C86.3496 93.9518 84.9996 91.3068 85.7946 88.8618L101.84 39.5318C102.635 37.0918 105.28 35.7418 107.725 36.5368L185.17 61.7318C187.61 62.5268 188.96 65.1718 188.165 67.6168L172.12 116.947C171.32 119.387 168.675 120.737 166.235 119.942Z" fill="white"/>
<path opacity="0.2" d="M118.516 104.422L105.941 100.327L150.421 50.4316L163.001 54.5216L118.516 104.422Z" fill="white"/>
<path opacity="0.2" d="M129.973 108.146L122.633 105.761L167.118 55.8613L174.458 58.2513L129.973 108.146Z" fill="white"/>
<path d="M132.498 44.4114L131.941 44.2305L112.902 102.788L113.459 102.969L132.498 44.4114Z" fill="white"/>
<path d="M180.28 92.6423L180.461 92.0859L93.6822 63.8623L93.5013 64.4186L180.28 92.6423Z" fill="white"/>
<path d="M122.701 73.7915C122.626 73.7915 122.556 73.7465 122.526 73.6815C121.301 71.0765 118.831 67.3415 116.216 63.3865C111.751 56.6315 107.531 50.2515 108.851 48.5815C109.291 48.0265 110.226 48.0215 111.721 48.5715C118.366 51.0015 124.316 64.3515 122.891 73.6265C122.876 73.7115 122.811 73.7765 122.726 73.7915C122.721 73.7915 122.711 73.7915 122.701 73.7915ZM109.906 48.5515C109.551 48.5515 109.301 48.6415 109.156 48.8215C108.011 50.2715 112.541 57.1215 116.541 63.1715C118.976 66.8565 121.286 70.3515 122.596 72.9365C123.646 63.8465 117.951 51.2615 111.591 48.9365C110.896 48.6815 110.326 48.5515 109.906 48.5515Z" fill="#90C63E"/>
<path d="M98.8004 89.7665C98.2804 89.7665 97.8054 89.7015 97.3854 89.5665C95.8654 89.0765 95.1304 87.7515 95.1954 85.6165C95.2504 83.8515 96.3354 82.0815 98.4204 80.3515C103.995 75.7164 115.81 72.3414 122.73 73.4064C122.795 73.4164 122.85 73.4615 122.88 73.5215C122.905 73.5815 122.9 73.6515 122.865 73.7065C118.715 79.9165 105.255 89.7665 98.8004 89.7665ZM119.895 73.5965C113.01 73.5965 103.485 76.6465 98.6704 80.6515C96.6754 82.3115 95.6354 83.9865 95.5854 85.6315C95.5254 87.5715 96.1704 88.7715 97.5054 89.2015C102.825 90.9065 117.825 80.2415 122.365 73.7515C121.595 73.6415 120.765 73.5965 119.895 73.5965Z" fill="#90C63E"/>
<path d="M127.981 91.5158C127.941 91.5158 127.901 91.5158 127.856 91.5158C125.981 91.4608 124.521 90.8158 123.511 89.6008C120.826 86.3758 121.606 79.5808 122.546 73.4608C122.561 73.3758 122.626 73.3108 122.711 73.2958C122.791 73.2808 122.876 73.3258 122.916 73.4058C123.746 75.1708 124.701 77.0158 125.626 78.8058C128.436 84.2358 130.861 88.9208 129.711 90.7458C129.386 91.2608 128.806 91.5158 127.981 91.5158ZM122.836 74.1508C121.956 80.0158 121.321 86.3608 123.811 89.3508C124.761 90.4908 126.086 91.0708 127.871 91.1258C128.626 91.1508 129.116 90.9558 129.381 90.5408C130.411 88.9008 127.921 84.0858 125.281 78.9858C124.451 77.3908 123.601 75.7458 122.836 74.1508Z" fill="#90C63E"/>
<path d="M128.594 74.1127C126.594 74.1127 124.559 73.9727 122.709 73.6877C122.649 73.6777 122.599 73.6427 122.569 73.5927C122.539 73.5427 122.534 73.4777 122.559 73.4227C123.609 70.7427 127.084 68.1577 130.814 67.2777C134.054 66.5127 136.989 67.1277 139.069 69.0027C140.124 69.9577 140.074 70.7327 139.844 71.2227C138.929 73.1327 133.874 74.1127 128.594 74.1127ZM123.009 73.3377C130.179 74.3877 138.439 73.2527 139.484 71.0577C139.739 70.5227 139.509 69.9327 138.804 69.2977C136.819 67.5077 134.009 66.9277 130.899 67.6627C127.389 68.4877 124.124 70.8527 123.009 73.3377Z" fill="#90C63E"/>
<path d="M120.201 95.6824C119.716 95.6824 119.171 95.2474 118.556 94.3574C115.411 89.8374 117.581 78.6824 122.631 73.4124C122.691 73.3524 122.781 73.3324 122.861 73.3724C122.936 73.4124 122.981 73.4974 122.966 73.5774C122.586 75.7724 122.486 79.2474 122.386 82.9224C122.181 90.3174 121.936 95.1974 120.436 95.6474C120.356 95.6724 120.276 95.6824 120.201 95.6824ZM122.481 74.1524C117.841 79.4774 115.901 89.8674 118.871 94.1324C119.466 94.9824 119.961 95.3774 120.316 95.2724C121.656 94.8724 121.836 88.5174 121.991 82.9124C122.086 79.5624 122.176 76.3774 122.481 74.1524Z" fill="white"/>
<path d="M140.054 80.167C134.424 80.167 126.304 77.207 122.634 73.687C122.584 73.642 122.564 73.572 122.579 73.507C122.594 73.442 122.639 73.387 122.699 73.362C128.544 71.092 143.214 70.982 145.999 74.657C146.759 75.662 146.634 76.852 145.629 78.192C144.799 79.297 143.309 79.947 141.204 80.117C140.829 80.152 140.449 80.167 140.054 80.167ZM123.129 73.622C127.104 77.232 135.749 80.177 141.164 79.737C143.159 79.572 144.554 78.977 145.309 77.967C146.199 76.782 146.324 75.747 145.679 74.897C143.089 71.467 128.939 71.547 123.129 73.622Z" fill="white"/>
<path d="M122.698 73.7912C122.668 73.7912 122.638 73.7862 122.608 73.7712C122.533 73.7312 122.488 73.6462 122.503 73.5662C123.278 69.1162 125.898 59.9912 130.273 57.3062C131.483 56.5662 132.733 56.3862 133.993 56.7712C134.793 57.0162 135.273 57.4612 135.423 58.0912C136.063 60.7412 130.443 66.2362 125.928 70.6512C124.778 71.7762 123.693 72.8362 122.828 73.7362C122.803 73.7712 122.753 73.7912 122.698 73.7912ZM132.713 56.9612C131.958 56.9612 131.213 57.1862 130.483 57.6362C126.908 59.8262 124.148 67.0062 123.008 73.0012C123.788 72.2062 124.708 71.3062 125.668 70.3662C129.878 66.2512 135.648 60.6112 135.058 58.1762C134.938 57.6812 134.558 57.3462 133.888 57.1362C133.493 57.0212 133.103 56.9612 132.713 56.9612Z" fill="white"/>
<path d="M118.839 74.7576C117.499 74.7576 116.079 74.5026 114.789 73.9876C112.379 73.0226 110.779 71.3176 110.289 69.1826C110.039 68.0826 110.434 67.5926 110.809 67.3826C112.789 66.2576 119.009 69.7876 122.839 73.4576C122.879 73.4976 122.904 73.5576 122.899 73.6176C122.894 73.6776 122.864 73.7276 122.814 73.7626C121.809 74.4226 120.379 74.7576 118.839 74.7576ZM111.759 67.5576C111.449 67.5576 111.194 67.6076 110.999 67.7176C110.619 67.9326 110.509 68.3976 110.669 69.0926C111.129 71.0976 112.644 72.7076 114.934 73.6226C117.499 74.6476 120.574 74.6126 122.384 73.5626C118.869 70.2626 113.979 67.5576 111.759 67.5576Z" fill="white"/>
<path opacity="0.2" d="M133.071 108.502L84.1211 155.257L141.006 152.652L197.891 150.047L144.876 107.962C141.356 105.167 136.321 105.397 133.071 108.502Z" fill="#90C63E"/>
<path d="M134.749 109.885L84.1289 155.255L141.014 152.65L197.899 150.045L143.344 109.49C140.744 107.565 137.154 107.73 134.749 109.885Z" fill="#90C63E"/>
<path opacity="0.8" d="M134.749 109.885L84.1289 155.255L141.014 152.65L197.899 150.045L143.344 109.49C140.744 107.565 137.154 107.73 134.749 109.885Z" fill="white"/>
<path d="M81.7367 77.5461L80.8567 76.2661C80.5267 75.7861 79.9867 75.4961 79.4017 75.4861L76.6767 75.4361C75.5867 75.4161 74.5567 75.9261 73.9117 76.8011L73.5117 77.3461C74.8217 79.5661 77.8767 80.9961 77.8767 80.9961L78.7017 81.5011C79.4367 81.9511 80.3467 81.7561 80.7867 81.0511L81.8067 79.4311C82.1617 78.8711 82.1317 78.1211 81.7367 77.5461Z" fill="#FFC3BD"/>
</svg>
