<svg width="234" height="187" viewBox="0 0 234 187" fill="none" xmlns="http://www.w3.org/2000/svg">
<path d="M233.26 165.232H0V165.349H233.26V165.232Z" fill="#DFF1C1"/>
<path d="M200.47 168.41H154.938V168.527H200.47V168.41Z" fill="#DFF1C1"/>
<path d="M156.597 171.105H134.824V171.222H156.597V171.105Z" fill="#DFF1C1"/>
<path d="M209.886 172.738H200.934V172.855H209.886V172.738Z" fill="#DFF1C1"/>
<path d="M102.167 171.162H59V171.279H102.167V171.162Z" fill="#DFF1C1"/>
<path d="M54.8502 171.162H45.5664V171.279H54.8502V171.162Z" fill="#DFF1C1"/>
<path d="M42.2908 169.193H26.9609V169.31H42.2908V169.193Z" fill="#DFF1C1"/>
<path d="M110.569 144.426H20.4841C19.0146 144.426 17.8203 143.232 17.8203 141.762V15.1345C17.8203 13.665 19.0146 12.4707 20.4841 12.4707H110.569C112.039 12.4707 113.233 13.665 113.233 15.1345V141.762C113.233 143.232 112.039 144.426 110.569 144.426ZM20.4841 12.5873C19.0799 12.5873 17.9369 13.7303 17.9369 15.1345V141.762C17.9369 143.166 19.0799 144.309 20.4841 144.309H110.569C111.973 144.309 113.116 143.166 113.116 141.762V15.1345C113.116 13.7303 111.973 12.5873 110.569 12.5873H20.4841Z" fill="#DFF1C1"/>
<path d="M211.479 144.426H121.394C119.925 144.426 118.73 143.232 118.73 141.762V15.1345C118.73 13.665 119.925 12.4707 121.394 12.4707H211.479C212.949 12.4707 214.143 13.665 214.143 15.1345V141.762C214.143 143.232 212.949 144.426 211.479 144.426ZM121.394 12.5873C119.99 12.5873 118.847 13.7303 118.847 15.1345V141.762C118.847 143.166 119.99 144.309 121.394 144.309H211.479C212.883 144.309 214.026 143.166 214.026 141.762V15.1345C214.026 13.7303 212.883 12.5873 211.479 12.5873H121.394Z" fill="#DFF1C1"/>
<path d="M216.814 161.574H134.086V165.232H216.814V161.574Z" fill="#DFF1C1"/>
<path d="M219.962 161.574H216.812V165.232H219.962V161.574Z" fill="#CEE6A9"/>
<path d="M217.629 159.084H214.48V161.571H217.629V159.084Z" fill="#CEE6A9"/>
<path d="M214.481 159.084H136.418V161.571H214.481V159.084Z" fill="#DFF1C1"/>
<path d="M206.669 103.465H144.234V159.083H206.669V103.465Z" fill="#DAEDBD"/>
<path d="M211.254 103.465H206.668V159.083H211.254V103.465Z" fill="#CEE6A9"/>
<path d="M209.258 98.6465H141.641V103.466H209.258V98.6465Z" fill="#DAEDBD"/>
<path d="M212.658 98.6465H209.262V103.466H212.658V98.6465Z" fill="#CEE6A9"/>
<path d="M187.94 10.5387V98.6456H166.867V10.5387C166.867 4.71652 171.588 0 177.406 0C178.073 0 178.731 0.0606483 179.361 0.186609C181.549 0.592481 183.499 1.67947 184.987 3.22365C186.816 5.11306 187.94 7.69758 187.94 10.5387Z" fill="#DAEDBD"/>
<path d="M184.99 3.22454V98.6465H179.363V0.1875C181.551 0.593372 183.501 1.68036 184.99 3.22454Z" fill="#E8F4D4"/>
<path d="M206.669 103.465H144.234V104.659H206.669V103.465Z" fill="#CEE6A9"/>
<path d="M197.649 117.773H153.25V159.088H197.649V117.773Z" fill="#CEE6A9"/>
<path d="M157.086 151.661L193.81 149.701V155.598L157.086 157.557V151.661Z" fill="#DCF3B5"/>
<path d="M191.117 148.498L159.781 146.539V152.441L191.117 154.395V148.498Z" fill="#DCF3B5"/>
<path d="M175.465 151.516C166.904 151.516 163.522 144.164 166.615 138.01C169.708 131.857 168.439 130.191 168.439 130.191C168.439 130.191 172.26 133.504 172.26 135.967C175.273 133.135 167.804 127.052 170.893 120.959C173.193 125.022 174.723 127.056 181.66 133.023C188.173 138.626 192.217 151.516 175.465 151.516Z" fill="#E6F1D3"/>
<path opacity="0.5" d="M177.169 150.564C181.834 150.564 184.003 146.234 181.801 142.88C179.594 139.526 180.677 138.457 180.677 138.457C180.677 138.457 178.344 140.426 178.549 141.77C176.669 140.225 179.31 136.447 177.108 133.125C176.198 135.341 176.422 136.894 173.175 140.165C169.76 143.608 168.043 150.564 177.169 150.564Z" fill="#E8F4D4"/>
<path opacity="0.5" d="M176.273 149.273C174.193 149.273 173.222 147.342 174.207 145.849C175.191 144.351 174.706 143.875 174.706 143.875C174.706 143.875 175.746 144.752 175.653 145.35C176.493 144.659 175.312 142.975 176.297 141.496C176.703 142.485 176.6 143.176 178.051 144.636C179.576 146.171 180.342 149.273 176.273 149.273Z" fill="#DCF3B5"/>
<path d="M63.9872 106.674H26.1758V165.227H63.9872V106.674Z" fill="#E8F4D4"/>
<path d="M30.4351 111.236H29.7773V160.669H30.4351V111.236Z" fill="#DCF3B5"/>
<path d="M59.7886 111.236H29.7773V112.067H59.7886V111.236Z" fill="#DCF3B5"/>
<path d="M102.456 106.674H64.6445V165.227H102.456V106.674Z" fill="#E8F4D4"/>
<path d="M106.227 106.674H102.457V165.227H106.227V106.674Z" fill="#CEE6A9"/>
<path d="M68.9039 111.236H68.2461V160.669H68.9039V111.236Z" fill="#DCF3B5"/>
<path d="M64.6461 107.342H63.9883V165.232H64.6461V107.342Z" fill="#DCF3B5"/>
<path d="M98.2573 111.236H68.2461V112.067H98.2573V111.236Z" fill="#DCF3B5"/>
<path d="M62.7378 119.629H61.3242V132.566H62.7378V119.629Z" fill="#CEE6A9"/>
<path d="M67.3081 119.629H65.8945V132.566H67.3081V119.629Z" fill="#CEE6A9"/>
<path d="M99.8509 26.5547H32.5508V93.8548H99.8509V26.5547Z" fill="#E6F1D3"/>
<path d="M37.8828 93.8548L61.7313 26.5547H79.6223L55.7785 93.8548H37.8828Z" fill="#F8FFED"/>
<path d="M59.5586 93.8548L83.4024 26.5547H89.929L66.0852 93.8548H59.5586Z" fill="#F8FFED"/>
<path d="M104.322 24.2402H28.0832C27.8546 24.2402 27.668 24.4268 27.668 24.6554C27.668 24.884 27.8546 25.0706 28.0832 25.0706H104.322C104.55 25.0706 104.737 24.884 104.737 24.6554C104.737 24.4268 104.55 24.2402 104.322 24.2402Z" fill="#CEE6A9"/>
<path d="M66.7588 26.4102H65.6484V93.9996H66.7588V26.4102Z" fill="#E8F4D4"/>
<path d="M67.313 26.4102H66.7578V93.9996H67.313V26.4102Z" fill="#CEE6A9"/>
<path d="M100.499 59.6484H31.9023V60.7587H100.499V59.6484Z" fill="#E8F4D4"/>
<path d="M100.499 93.393V27.0166V25.9062H99.3891H33.0127H31.9023V27.0166V93.393V94.5033H33.0127H99.3891H100.499V93.393ZM33.0127 93.393V27.0166H99.3891V93.393H33.0127Z" fill="#E8F4D4"/>
<path d="M101.055 25.9062H100.5V94.5033H101.055V25.9062Z" fill="#CEE6A9"/>
<path opacity="0.5" d="M86.7188 23.2188V96.677H106.784L103.103 23.2188H86.7188Z" fill="#DFF1C1"/>
<path opacity="0.5" d="M46.2408 23.2188V96.677H26.1758L29.8566 23.2188H46.2408Z" fill="#DFF1C1"/>
<path d="M144.949 37.1855H126.391V55.7437H144.949V37.1855Z" fill="#DFF1C1"/>
<path d="M146.596 37.1855H144.949V55.7437H146.596V37.1855Z" fill="#CEE6A9"/>
<path d="M142.435 39.6992H128.906V53.2283H142.435V39.6992Z" fill="#F8FFED"/>
<path d="M140.774 41.3613H130.566V51.5688H140.774V41.3613Z" fill="#DAEDBD"/>
<path d="M153.406 59.8906H134.848V78.4488H153.406V59.8906Z" fill="#DFF1C1"/>
<path d="M155.053 59.8906H153.406V78.4488H155.053V59.8906Z" fill="#CEE6A9"/>
<path d="M150.892 62.4043H137.363V75.9334H150.892V62.4043Z" fill="#F8FFED"/>
<path d="M145.826 74.2727H142.425C140.545 74.2727 139.02 72.7472 139.02 70.8671V67.4661C139.02 65.5861 140.545 64.0605 142.425 64.0605H145.826C147.706 64.0605 149.232 65.5861 149.232 67.4661V70.8671C149.232 72.7472 147.706 74.2727 145.826 74.2727Z" fill="#DAEDBD"/>
<path d="M116.629 186.3C166.585 186.3 207.083 183.936 207.083 181.019C207.083 178.103 166.585 175.738 116.629 175.738C66.6732 175.738 26.1758 178.103 26.1758 181.019C26.1758 183.936 66.6732 186.3 116.629 186.3Z" fill="#F5F5F5"/>
<path d="M36.0759 122.074H35.6094V128.344H36.0759V122.074Z" fill="#90C63E"/>
<path d="M36.0759 130.211H35.6094V132.805H36.0759V130.211Z" fill="#90C63E"/>
<path d="M113.532 99.1582H37.2422V178.835C37.2422 180.039 38.2172 181.014 39.4208 181.014H113.528V99.1582H113.532Z" fill="#90C63E"/>
<path opacity="0.2" d="M113.532 99.1582H37.2422V104.962H81.137L82.5926 181.018L83.6096 104.962H113.532V99.1582Z" fill="black"/>
<path d="M113.531 103.305H36.5831C35.9813 103.305 35.4961 102.82 35.4961 102.218V87.8077C35.4961 87.2059 35.9813 86.7207 36.5831 86.7207H113.536V103.305H113.531Z" fill="#90C63E"/>
<path d="M66.6181 181.019L65.8203 86.7168H82.4098L83.2028 181.019H66.6181Z" fill="#263238"/>
<path d="M113.531 99.1582H145.758V178.835C145.758 180.039 144.783 181.014 143.58 181.014H113.531V99.1582Z" fill="#90C63E"/>
<path opacity="0.2" d="M113.531 99.1582H145.758V178.835C145.758 180.039 144.783 181.014 143.58 181.014H113.531V99.1582Z" fill="black"/>
<path opacity="0.2" d="M113.531 99.1582H145.758V104.962H127.774L125.33 181.018L125.595 104.962H113.531V99.1582Z" fill="black"/>
<path d="M113.531 103.305H146.421C147.023 103.305 147.508 102.82 147.508 102.218V87.8077C147.508 87.2059 147.023 86.7207 146.421 86.7207H113.531V103.305Z" fill="#90C63E"/>
<path opacity="0.2" d="M113.531 103.305H146.421C147.023 103.305 147.508 102.82 147.508 102.218V87.8077C147.508 87.2059 147.023 86.7207 146.421 86.7207H113.531V103.305Z" fill="black"/>
<path d="M125.328 181.019L126.718 86.7168H137.07L135.68 181.019H125.328Z" fill="#263238"/>
<path opacity="0.2" d="M125.328 181.019L126.718 86.7168H137.07L135.68 181.019H125.328Z" fill="black"/>
<path d="M130.73 55.4315L130.749 55.4082H117.159L117.155 55.4129C116.66 55.4082 115.923 55.5995 114.906 56.024C101.144 61.7902 94.4538 76.9008 91.4961 86.7163H105.38C105.384 86.7163 138.241 54.4938 130.73 55.4315Z" fill="#263238"/>
<path opacity="0.5" d="M105.383 86.717C105.383 73.967 115.03 61.7861 128.793 56.0246C142.555 50.2584 105.383 86.717 105.383 86.717Z" fill="black"/>
<path d="M134.276 63.4894L134.299 63.4707H124.208L124.204 63.4754C123.835 63.4707 123.238 63.6153 122.361 63.9326C110.488 68.2152 101.19 79.435 96.1797 86.722H106.49C106.485 86.7174 140.121 62.7896 134.276 63.4894Z" fill="#263238"/>
<path opacity="0.5" d="M106.484 86.7167C111.336 74.1207 120.793 68.2052 132.665 63.9272C144.538 59.6493 106.484 86.7167 106.484 86.7167Z" fill="black"/>
<path d="M66.4543 51.4342L66.4356 51.4062H52.8459L52.8505 51.4109C52.3467 51.4062 51.9268 51.6208 51.6143 52.1014C47.3689 58.6046 65.6285 75.6466 78.873 86.7171H92.7567C92.7567 86.7171 72.4164 50.3752 66.4543 51.4342Z" fill="#263238"/>
<path opacity="0.5" d="M92.7558 86.7166C79.5113 75.6461 61.2517 58.6041 65.4971 52.1008C69.7471 45.6022 92.7558 86.7166 92.7558 86.7166Z" fill="black"/>
<path d="M80.6349 60.5226L80.6255 60.5039H70.5347V60.5086C70.1615 60.5039 69.8069 60.6625 69.4757 61.0217C64.9738 65.8502 74.9993 78.5022 82.5383 86.7223H92.8483C92.8483 86.7177 85.2767 59.7341 80.6349 60.5226Z" fill="#263238"/>
<path opacity="0.5" d="M92.8468 86.7175C85.3079 78.4974 75.2824 65.8454 79.7843 61.0169C84.2815 56.1931 92.8468 86.7175 92.8468 86.7175Z" fill="black"/>
<path d="M179.385 174.185L182.949 173.033L181.232 164.477L177.668 165.624L179.385 174.185Z" fill="#FF8B7B"/>
<path d="M151.117 177.194H154.859L155.857 168.521H152.111L151.117 177.194Z" fill="#FF8B7B"/>
<path d="M155.22 176.76H150.652C150.498 176.76 150.372 176.867 150.344 177.016L149.743 180.343C149.682 180.688 149.966 181.014 150.316 181.01C151.786 180.986 152.854 180.898 154.702 180.898C155.84 180.898 159.278 181.014 160.85 181.014C162.39 181.014 162.563 179.461 161.914 179.321C159.003 178.691 156.792 177.819 155.835 176.988C155.663 176.844 155.443 176.76 155.22 176.76Z" fill="#263238"/>
<path d="M182.792 172.632L178.901 173.887C178.756 173.934 178.663 174.074 178.677 174.228L178.994 177.624C179.027 177.974 179.377 178.207 179.713 178.091C181.108 177.615 183.109 176.878 184.877 176.308C186.939 175.641 188.166 175.305 190.583 174.522C192.048 174.051 191.973 172.441 191.32 172.502C188.334 172.791 186.631 173.337 183.744 172.628C183.426 172.553 183.1 172.53 182.792 172.632Z" fill="#263238"/>
<path d="M164.02 63.5684C164.495 64.618 165.004 65.747 165.531 66.8293C166.063 67.9163 166.585 69.0033 167.145 70.0716C167.696 71.14 168.26 72.199 168.853 73.2253C169.431 74.2657 170.056 75.2547 170.695 76.2157C171.022 76.6776 171.339 77.1627 171.684 77.5919L172.193 78.2404C172.305 78.385 172.403 78.497 172.506 78.595C172.706 78.7862 172.869 78.9075 173.089 78.9915C173.308 79.0708 173.611 79.1128 173.994 79.0708C174.763 78.9868 175.743 78.5856 176.686 78.0398C177.161 77.7646 177.633 77.4567 178.104 77.1254C178.566 76.7989 179.055 76.421 179.461 76.0991L181.631 77.8905C181.229 78.5157 180.852 79.0335 180.408 79.5653C179.97 80.0925 179.499 80.5963 178.976 81.0722C178.458 81.5574 177.889 82.0006 177.25 82.4158C176.611 82.831 175.897 83.1902 175.067 83.4514C174.241 83.7127 173.275 83.848 172.263 83.708C171.255 83.5821 170.252 83.1669 169.464 82.6024C169.067 82.3225 168.708 82.0052 168.4 81.6927L167.696 80.9229C167.22 80.4051 166.814 79.8779 166.385 79.3507C164.761 77.2141 163.385 75.0028 162.139 72.7401C161.519 71.6065 160.926 70.4682 160.376 69.3066C159.821 68.1403 159.289 67.0066 158.785 65.761L164.02 63.5684Z" fill="#FF8B7B"/>
<path d="M157.164 63.9046C156.492 67.4222 160.863 72.4419 160.863 72.4419L167.278 69.6801C167.278 69.6801 166.616 65.654 164.05 62.7476C160.91 59.1881 157.896 60.0605 157.164 63.9046Z" fill="#90C63E"/>
<path opacity="0.2" d="M160.629 65.1458C158.88 64.5207 157.588 64.726 157.121 65.1645C157.438 68.5048 160.863 72.4422 160.863 72.4422L165.406 70.4875C165.061 68.9153 163.368 66.1209 160.629 65.1458Z" fill="black"/>
<path d="M178.934 76.8973L180.982 72.582L183.855 75.5864C183.855 75.5864 183.039 79.0293 180.347 78.5908L178.934 76.8973Z" fill="#FF8B7B"/>
<path d="M182.623 70.5527L184.848 73.3099L183.854 75.5865L180.98 72.5821L182.623 70.5527Z" fill="#FF8B7B"/>
<path opacity="0.2" d="M181.232 164.477L182.119 168.89L178.55 170.042L177.668 165.629L181.232 164.477Z" fill="black"/>
<path opacity="0.2" d="M152.112 168.525H155.858L155.34 172.995H151.594L152.112 168.525Z" fill="black"/>
<path d="M140.359 63.9554C145.757 77.7177 146.419 92.8236 147.077 95.828C149.974 95.3335 160.872 93.4394 166.811 92.4084C167.273 73.8036 162.612 63.5169 161.362 61.1096C161.18 60.7597 160.835 60.5311 160.443 60.5078C159.897 60.4705 159.025 60.4285 158.003 60.4238C157.453 60.4238 156.86 60.4285 156.244 60.4565C155.904 60.4705 155.559 60.4938 155.209 60.5171C152.955 60.6991 149.317 61.4175 146.821 61.9727C146.298 62.0893 145.766 62.2246 145.253 62.3599C144.777 62.4905 144.311 62.6258 143.872 62.7564C141.885 63.3629 140.359 63.9554 140.359 63.9554Z" fill="#90C63E"/>
<path opacity="0.2" d="M142.277 69.4925C142.93 71.6478 143.49 73.7938 143.961 75.8745C144.582 72.1096 144.857 68.2422 144.857 68.2422L142.277 69.4925Z" fill="black"/>
<path d="M146.062 52.4414C147.061 55.0493 148.446 59.9011 146.87 62.0331C148.591 63.2367 150.798 64.5896 154.026 64.1464C157.25 63.7032 156.307 61.5945 155.262 60.5775C152.127 60.3816 151.819 58.1329 151.978 55.945L146.062 52.4414Z" fill="#FF8B7B"/>
<path d="M156.121 65.0338C156.121 65.0338 158.617 62.7806 155.883 60.42C155.514 60.3453 154.824 60.5319 154.824 60.5319C154.824 60.5319 157.893 63.1584 154.399 64.0775C150.014 63.8209 146.851 61.7822 146.851 61.7822C146.851 61.7822 146.375 61.8848 146.062 62.0994C147.028 64.0262 153.559 65.5377 153.559 65.5377C153.559 65.5377 153.634 65.0898 153.867 64.6653C154.077 65.2671 154.81 67.2405 155.37 70.1982C155.757 70.1749 156.671 69.9043 156.671 69.9043C156.671 69.9043 155.957 66.2515 155.286 64.4041C155.817 64.7026 156.121 65.0338 156.121 65.0338Z" fill="white"/>
<path opacity="0.2" d="M148.467 53.875L151.966 55.9463C151.928 56.4642 151.914 56.9867 151.966 57.4812C150.785 57.5138 148.989 56.5248 148.658 55.3445C148.495 54.7521 148.42 54.1689 148.467 53.875Z" fill="black"/>
<path d="M153.049 48.7665C155.792 47.7215 155.508 40.705 151.281 41.7407C148.431 42.4405 148.725 43.3036 149.242 45.137C149.765 46.9704 151.314 49.429 153.049 48.7665Z" fill="#263238"/>
<path d="M145.035 48.4343C145.893 52.0499 146.21 54.2099 148.384 55.768C151.65 58.11 155.872 55.6514 156.11 51.8539C156.324 48.4343 154.883 43.0974 151.057 42.2623C147.279 41.4365 144.176 44.8188 145.035 48.4343Z" fill="#FF8B7B"/>
<path d="M145.567 51.0602C148.31 50.0152 147.256 43.1387 143.034 44.1791C140.184 44.8789 140.673 46.507 141.481 48.1165C142.325 49.824 143.832 51.7227 145.567 51.0602Z" fill="#263238"/>
<path d="M151.825 38.8944C151.106 37.0703 147.393 35.7547 146.711 39.3049C143.59 39.0903 136.14 45.1458 144.981 45.1224C149.357 46.2234 155.827 43.8162 155.925 41.283C156.023 38.7498 152.898 37.8307 151.825 38.8944Z" fill="#263238"/>
<path d="M144.105 51.9332C144.619 52.7076 145.426 53.1788 146.149 53.3234C147.24 53.538 147.66 52.507 147.25 51.4947C146.881 50.5803 145.869 49.3673 144.824 49.6146C143.793 49.8479 143.518 51.0468 144.105 51.9332Z" fill="#FF8B7B"/>
<path d="M183.189 167.636L177.152 169.581C177.152 169.581 171.148 147.827 168.871 136.384C168.181 132.903 166.259 128.443 164.551 123.321C162.401 116.869 159.816 109.923 157.731 104.488C155.529 98.7634 153.91 94.6534 153.91 94.6534L166.814 92.4141C166.814 92.4141 177.941 122.556 179.489 133.878C181.108 145.649 183.189 167.636 183.189 167.636Z" fill="#263238"/>
<path opacity="0.2" d="M164.555 123.32C162.404 116.868 159.82 109.921 157.734 104.486L158.793 101.426C162.423 104.943 164.518 116.779 164.555 123.32Z" fill="black"/>
<path d="M160.667 93.4766C160.667 93.4766 161.717 125.718 161.25 136.681C160.742 148.685 157.075 172.127 157.075 172.127H150.217C150.217 172.127 151.743 150.868 151.598 139.154C151.435 125.811 147.082 95.8325 147.082 95.8325L160.667 93.4766Z" fill="#263238"/>
<path d="M157.897 172.278H149.816V169.866L158.848 169.707L157.897 172.278Z" fill="#90C63E"/>
<path d="M183.991 167.532L176.802 169.851L176.051 167.528L184.052 164.812L183.991 167.532Z" fill="#90C63E"/>
<path d="M151.014 47.8998C150.819 47.9337 150.702 48.2019 150.754 48.499C150.805 48.796 151.005 49.0093 151.201 48.9754C151.396 48.9415 151.513 48.6733 151.461 48.3763C151.41 48.0792 151.21 47.8659 151.014 47.8998Z" fill="#263238"/>
<path d="M154.378 47.3194C154.183 47.3532 154.066 47.6214 154.117 47.9184C154.168 48.2155 154.369 48.4289 154.564 48.3951C154.759 48.3614 154.876 48.0932 154.825 47.7961C154.774 47.4991 154.574 47.2856 154.378 47.3194Z" fill="#263238"/>
<path d="M153.074 48.248C153.074 48.248 154.049 49.8482 154.936 50.548C154.492 51.1311 153.559 51.0612 153.559 51.0612L153.074 48.248Z" fill="#FF5652"/>
<path d="M152.446 52.074C151.289 52.1159 150.627 51.4208 150.594 51.3882C150.562 51.3509 150.562 51.2949 150.599 51.2622C150.636 51.2296 150.692 51.2296 150.725 51.2669C150.734 51.2762 151.504 52.0786 152.806 51.8547C152.852 51.8454 152.899 51.878 152.908 51.9247C152.918 51.9713 152.885 52.018 152.838 52.0273C152.698 52.0553 152.568 52.0693 152.446 52.074Z" fill="#263238"/>
<path d="M149.528 47.5911C149.5 47.5911 149.468 47.5864 149.44 47.5724C149.351 47.5258 149.318 47.4184 149.365 47.3345C149.813 46.4621 150.629 46.3688 150.662 46.3641C150.76 46.3548 150.848 46.4248 150.858 46.5227C150.867 46.6207 150.797 46.7047 150.699 46.7187C150.671 46.7233 150.037 46.8026 149.678 47.4978C149.65 47.5537 149.594 47.5911 149.528 47.5911Z" fill="#263238"/>
<path d="M155.367 46.5029C155.311 46.5029 155.25 46.4796 155.217 46.4283C154.76 45.7938 154.121 45.8078 154.093 45.8078C153.995 45.8125 153.911 45.7378 153.906 45.6399C153.902 45.5419 153.976 45.4579 154.074 45.4532C154.112 45.4532 154.928 45.4253 155.502 46.2183C155.558 46.2976 155.539 46.4096 155.46 46.4656C155.432 46.4936 155.399 46.5029 155.367 46.5029Z" fill="#263238"/>
<path d="M156.483 177.418C156.137 177.418 155.759 177.348 155.498 177.282C155.461 177.273 155.438 177.245 155.428 177.212C155.419 177.18 155.438 177.142 155.466 177.124C155.596 177.04 156.776 176.298 157.201 176.508C157.266 176.541 157.346 176.611 157.364 176.76C157.383 176.956 157.332 177.114 157.201 177.226C157.033 177.366 156.767 177.418 156.483 177.418ZM155.75 177.156C156.389 177.282 156.879 177.259 157.075 177.086C157.164 177.012 157.196 176.905 157.182 176.765C157.173 176.695 157.145 176.671 157.122 176.662C156.902 176.555 156.231 176.872 155.75 177.156Z" fill="#90C63E"/>
<path d="M155.515 177.283C155.496 177.283 155.482 177.279 155.468 177.269C155.44 177.251 155.422 177.223 155.426 177.19C155.426 177.143 155.473 176.066 155.893 175.706C156 175.613 156.126 175.576 156.266 175.595C156.481 175.622 156.541 175.753 156.56 175.828C156.658 176.248 155.94 177.064 155.562 177.274C155.548 177.283 155.534 177.283 155.515 177.283ZM156.21 175.767C156.136 175.767 156.07 175.795 156.01 175.846C155.739 176.075 155.646 176.705 155.618 177.017C155.991 176.723 156.444 176.103 156.388 175.86C156.383 175.837 156.369 175.786 156.252 175.772C156.238 175.767 156.224 175.767 156.21 175.767Z" fill="#90C63E"/>
<path d="M183.3 173.009C183.267 173.009 183.235 172.991 183.221 172.958C183.202 172.925 183.211 172.883 183.239 172.855C183.375 172.72 184.574 171.531 185.082 171.633C185.18 171.652 185.255 171.717 185.292 171.815C185.357 171.978 185.353 172.132 185.269 172.277C184.989 172.748 183.92 172.939 183.309 173.009C183.309 173.009 183.305 173.009 183.3 173.009ZM185.012 171.806C184.714 171.801 184.032 172.347 183.552 172.8C184.382 172.678 184.956 172.454 185.115 172.188C185.171 172.095 185.175 171.997 185.129 171.885C185.11 171.843 185.087 171.82 185.045 171.811C185.035 171.806 185.026 171.806 185.012 171.806Z" fill="#90C63E"/>
<path d="M183.297 173.01C183.287 173.01 183.278 173.01 183.273 173.005C183.245 172.996 183.222 172.972 183.213 172.94C183.203 172.898 182.989 171.909 183.325 171.386C183.427 171.228 183.567 171.13 183.745 171.092C183.983 171.041 184.09 171.139 184.137 171.228C184.332 171.61 183.726 172.655 183.362 172.986C183.339 173 183.32 173.01 183.297 173.01ZM183.871 171.256C183.847 171.256 183.815 171.256 183.777 171.265C183.647 171.293 183.544 171.363 183.469 171.484C183.25 171.825 183.311 172.441 183.353 172.734C183.707 172.329 184.09 171.535 183.973 171.307C183.969 171.293 183.95 171.256 183.871 171.256Z" fill="#90C63E"/>
<path d="M144.918 68.5977C144.466 69.6707 143.971 70.8276 143.524 71.9613C143.08 73.1043 142.628 74.2379 142.213 75.3855C141.797 76.5285 141.387 77.6761 141.032 78.8191C140.654 79.9621 140.342 81.1097 140.071 82.2387C139.945 82.8032 139.81 83.3677 139.726 83.9182L139.651 84.3334L139.633 84.436C139.633 84.4407 139.633 84.4174 139.633 84.408C139.623 84.3894 139.628 84.3474 139.619 84.3147C139.6 84.1654 139.497 83.9835 139.437 83.9368C139.292 83.8482 139.502 84.1141 139.866 84.2961C140.23 84.4873 140.706 84.6833 141.219 84.8419C143.309 85.481 145.823 85.8029 148.212 86.1015L148.361 88.9099C147.027 89.1619 145.744 89.3065 144.405 89.3718C143.071 89.4324 141.718 89.4231 140.281 89.2178C139.563 89.1105 138.816 88.9706 138.014 88.672C137.613 88.5227 137.193 88.3408 136.75 88.0655C136.306 87.7856 135.831 87.4357 135.392 86.8666C134.958 86.3161 134.622 85.5183 134.548 84.7439C134.534 84.5573 134.52 84.3567 134.524 84.1794L134.538 83.9135L134.552 83.7829L134.604 83.2604C134.66 82.5513 134.767 81.8795 134.87 81.203C135.331 78.5205 136.05 75.992 136.866 73.5101C137.291 72.2738 137.725 71.0516 138.21 69.8433C138.7 68.6303 139.176 67.4547 139.759 66.2324L144.918 68.5977Z" fill="#FF8B7B"/>
<path d="M140.359 63.9561C138.419 65.0057 137.07 71.3131 137.07 71.3131L142.808 74.84C142.808 74.84 144.292 71.9289 145.388 69.5263C147.478 64.9404 144.175 61.894 140.359 63.9561Z" fill="#90C63E"/>
<path d="M147.73 86.0402L151.505 85.877L149.83 89.4505C149.83 89.4505 146.275 89.2406 146.741 87.5331L147.73 86.0402Z" fill="#FF8B7B"/>
<path d="M153.993 88.3495L152.113 90.6914L149.832 89.4505L151.507 85.877L153.993 88.3495Z" fill="#FF8B7B"/>
</svg>
