<svg width="195" height="186" viewBox="0 0 195 186" fill="none" xmlns="http://www.w3.org/2000/svg">
<path d="M10.0365 32.0303C10.0365 33.9969 8.44419 35.5891 6.48249 35.5891C4.52078 35.5891 2.92846 33.9969 2.92846 32.0303C2.92846 30.0636 4.52078 28.4714 6.48249 28.4714C8.44419 28.4714 10.0365 30.0636 10.0365 32.0303Z" stroke="#90C63E" stroke-width="2.37255"/>
<mask id="path-2-inside-1" fill="white">
<ellipse cx="192.538" cy="123.373" rx="2.37015" ry="2.37255"/>
</mask>
<path d="M192.536 123.373C192.536 123.376 192.535 123.377 192.536 123.376C192.536 123.375 192.536 123.374 192.537 123.373C192.537 123.371 192.537 123.372 192.536 123.373C192.534 123.375 192.533 123.375 192.536 123.374C192.537 123.373 192.538 123.373 192.54 123.373C192.541 123.372 192.541 123.373 192.538 123.373V128.118C195.16 128.118 197.281 125.991 197.281 123.373H192.536ZM192.538 123.373C192.535 123.373 192.535 123.372 192.537 123.373C192.538 123.373 192.539 123.373 192.541 123.374C192.543 123.375 192.542 123.375 192.541 123.373C192.539 123.372 192.539 123.371 192.54 123.373C192.54 123.374 192.54 123.375 192.541 123.376C192.541 123.377 192.541 123.376 192.541 123.373H187.795C187.795 125.991 189.917 128.118 192.538 128.118V123.373ZM192.541 123.373C192.541 123.369 192.541 123.369 192.541 123.37C192.54 123.37 192.54 123.372 192.54 123.372C192.539 123.374 192.539 123.373 192.541 123.372C192.542 123.37 192.543 123.37 192.541 123.371C192.539 123.372 192.538 123.372 192.537 123.372C192.535 123.373 192.535 123.373 192.538 123.373V118.627C189.917 118.627 187.795 120.754 187.795 123.373H192.541ZM192.538 123.373C192.541 123.373 192.541 123.373 192.54 123.372C192.538 123.372 192.537 123.372 192.536 123.371C192.533 123.37 192.534 123.37 192.536 123.372C192.537 123.373 192.537 123.374 192.537 123.372C192.536 123.372 192.536 123.37 192.536 123.37C192.535 123.369 192.536 123.369 192.536 123.373H197.281C197.281 120.754 195.16 118.627 192.538 118.627V123.373Z" fill="#90C63E" mask="url(#path-2-inside-1)"/>
<ellipse cx="92.4358" cy="92.5294" rx="92.4358" ry="92.5294" fill="#90C63E" fill-opacity="0.05"/>
<ellipse cx="92.4369" cy="92.5303" rx="65.1791" ry="65.2451" fill="#90C63E" fill-opacity="0.1"/>
<ellipse cx="92.6735" cy="92.1878" rx="45.0328" ry="45.0784" fill="#90C63E" fill-opacity="0.15"/>
<path d="M105.243 83.864C105.4 84.0201 105.525 84.2057 105.611 84.4103C105.696 84.6148 105.74 84.8342 105.74 85.0558C105.74 85.2774 105.696 85.4968 105.611 85.7013C105.525 85.9059 105.4 86.0915 105.243 86.2476L90.136 101.355C89.9791 101.51 89.7931 101.633 89.5886 101.717C89.3841 101.8 89.1651 101.843 88.9442 101.842H88.8435C88.6086 101.826 88.3796 101.761 88.1714 101.651C87.9631 101.541 87.7804 101.389 87.6349 101.204L80.9206 92.8108C80.7611 92.6418 80.6384 92.4414 80.5603 92.2225C80.4822 92.0036 80.4504 91.7708 80.467 91.539C80.4835 91.3071 80.5481 91.0812 80.6565 90.8756C80.7649 90.67 80.9149 90.4892 81.0968 90.3446C81.2788 90.1999 81.4888 90.0947 81.7135 90.0354C81.9383 89.9762 82.1729 89.9643 82.4025 90.0005C82.6321 90.0366 82.8517 90.1201 83.0474 90.2456C83.2431 90.3711 83.4105 90.5358 83.5392 90.7294L89.0785 97.6451L102.86 83.864C103.016 83.7067 103.201 83.5818 103.406 83.4966C103.61 83.4114 103.83 83.3675 104.051 83.3675C104.273 83.3675 104.492 83.4114 104.697 83.4966C104.901 83.5818 105.087 83.7067 105.243 83.864ZM116.641 92.6094C116.641 97.2572 115.262 101.801 112.68 105.665C110.098 109.53 106.428 112.542 102.134 114.321C97.8396 116.099 93.1146 116.565 88.556 115.658C83.9975 114.751 79.8102 112.513 76.5236 109.226C73.2371 105.94 70.9989 101.753 70.0922 97.194C69.1854 92.6354 69.6508 87.9104 71.4295 83.6163C73.2081 79.3222 76.2202 75.6521 80.0847 73.0698C83.9493 70.4876 88.4928 69.1094 93.1406 69.1094C99.3732 69.1094 105.351 71.5853 109.758 75.9924C114.165 80.3995 116.641 86.3768 116.641 92.6094ZM113.283 92.6094C113.283 88.6255 112.102 84.7311 109.889 81.4186C107.675 78.1061 104.53 75.5244 100.849 73.9998C97.1683 72.4752 93.1183 72.0763 89.211 72.8536C85.3036 73.6308 81.7145 75.5492 78.8975 78.3662C76.0805 81.1832 74.162 84.7724 73.3848 88.6797C72.6076 92.587 73.0065 96.6371 74.5311 100.318C76.0556 103.998 78.6374 107.144 81.9499 109.358C85.2623 111.571 89.1567 112.752 93.1406 112.752C98.4828 112.752 103.606 110.63 107.384 106.853C111.161 103.075 113.283 97.9516 113.283 92.6094Z" fill="#90C63E"/>
</svg>
