<svg width="58" height="32" viewBox="0 0 58 32" fill="none" xmlns="http://www.w3.org/2000/svg">
<g clip-path="url(#clip0)">
<path d="M5.24219 12.0776H7.25482L6.2485 9.53027L5.24219 12.0776Z" fill="#2FABF7"/>
<path d="M30.2139 9.89371C30.0309 9.80273 29.7565 9.80273 29.482 9.80273H27.6523V11.2583H29.482C29.7565 11.2583 30.0309 11.2583 30.2139 11.1674C30.3968 11.0764 30.4883 10.8035 30.4883 10.5305C30.5798 10.1666 30.3968 9.98468 30.2139 9.89371Z" fill="#228FE0"/>
<path d="M49.7933 7.16504V8.25674L49.2444 7.16504H44.9447V8.25674L44.3958 7.16504H38.5408C37.5345 7.16504 36.7112 7.34699 35.9793 7.71089V7.16504H31.8625V7.71089C31.4051 7.34699 30.8562 7.16504 30.1244 7.16504H15.3955L14.3892 9.43942L13.3829 7.16504H8.71725V8.25674L8.16835 7.16504H4.23457L2.4049 11.4409L0.300781 16.1716H2.4049H4.96643L5.51533 14.716H6.7961L7.345 16.1716H12.651V15.0799L13.1085 16.1716H15.7615L16.2189 15.0799V16.1716H28.9351V13.8062H29.118C29.301 13.8062 29.301 13.8062 29.301 14.0791V16.0806H35.8878V15.5347C36.4367 15.8077 37.2601 16.0806 38.3579 16.0806H41.1024L41.6513 14.625H42.932L43.4809 16.0806H48.787V14.716L49.6103 16.0806H53.91V7.16504H49.7933ZM18.8719 14.8069H17.3167V9.80332L15.1211 14.8069H13.7488L11.5532 9.80332V14.8069H8.4428L7.80242 13.4423H4.69198L4.14308 14.8979H2.4049L5.1494 8.43869H7.43648L9.99802 14.534V8.43869H12.4681L14.4807 12.8055L16.3104 8.43869H18.8719V14.8069ZM25.0928 9.80332H21.5249V10.986H25.0013V12.2596H21.5249V13.5333H25.0928V14.8979H19.9697V8.43869H25.0928V9.80332ZM31.954 12.4416C32.137 12.8055 32.2285 13.0784 32.2285 13.6243V14.8979H30.6733V14.0791C30.6733 13.7152 30.6733 13.1694 30.3988 12.8055C30.1244 12.5326 29.8499 12.5326 29.301 12.5326H27.6543V14.8979H26.0991V8.43869H29.5755C30.3988 8.43869 30.9477 8.43869 31.4051 8.71162C31.8625 8.98454 32.137 9.43942 32.137 10.1672C32.137 11.1679 31.4966 11.7138 31.0392 11.8957C31.4966 11.9867 31.7711 12.2596 31.954 12.4416ZM34.6985 14.8069H33.1433V8.34772H34.6985V14.8069ZM52.7208 14.8069H50.5252L47.5977 9.98527V14.8069H44.4873L43.9384 13.4423H40.7364L40.1875 14.8979H38.4494C37.7175 14.8979 36.8027 14.716 36.2537 14.1701C35.7048 13.6243 35.4304 12.8965 35.4304 11.7138C35.4304 10.804 35.6134 9.89429 36.2537 9.16649C36.7112 8.62064 37.5345 8.43869 38.5408 8.43869H40.0046V9.80332H38.5408C37.9919 9.80332 37.7175 9.89429 37.3516 10.1672C37.0771 10.4401 36.8941 10.986 36.8941 11.6228C36.8941 12.3506 36.9856 12.8055 37.3516 13.1694C37.626 13.4423 37.9919 13.5333 38.4494 13.5333H39.0897L41.1939 8.52966H43.4809L46.0425 14.625V8.52966H48.3296L50.9826 12.9874V8.52966H52.5378V14.8069H52.7208Z" fill="#0571C1"/>
<path d="M41.2852 12.0776H43.3893L42.383 9.53027L41.2852 12.0776Z" fill="#228FE0"/>
<path d="M25.734 25.1778V19.9922L23.3555 22.5395L25.734 25.1778Z" fill="#228FE0"/>
<path d="M15.9453 20.6299V21.8126H19.3302V23.0862H15.9453V24.4508H19.6961L21.4343 22.5404L19.7876 20.6299H15.9453Z" fill="#2FABF7"/>
<path d="M29.2102 20.6299H27.2891V22.2674H29.3017C29.8506 22.2674 30.2165 21.9945 30.2165 21.4487C30.125 20.9028 29.7591 20.6299 29.2102 20.6299Z" fill="#228FE0"/>
<path d="M57.4765 22.1759V18.082H56.3787H53.6342C52.8109 18.082 52.1705 18.264 51.7131 18.6279V18.082H47.5049C46.8645 18.082 46.0411 18.264 45.6752 18.6279V18.082H38.265V18.6279C37.7161 18.173 36.7098 18.082 36.2524 18.082H31.3123V18.6279C30.8549 18.173 29.7571 18.082 29.2082 18.082H23.7192L22.4384 19.4467L21.2491 18.082H13.0156V26.9976H21.0662L22.3469 25.633L23.5362 26.9976H28.4763V24.9052H29.1167C29.7571 24.9052 30.5804 24.9052 31.2208 24.6322V27.0886H35.3376V24.7232H35.5205C35.795 24.7232 35.795 24.7232 35.795 24.9962V27.0886H48.2367C49.0601 27.0886 49.8834 26.9066 50.3408 26.5427V27.0886H54.2746C55.098 27.0886 55.9213 26.9976 56.4702 26.6337C57.3851 26.0879 57.934 25.0871 57.934 23.9044C57.934 23.2676 57.751 22.6308 57.4765 22.1759ZM29.1167 23.6315H27.287V25.8149H24.3596L22.5299 23.7225L20.6087 25.8149H14.5708V19.3557H20.7002L22.5299 21.4481L24.451 19.3557H29.2997C30.489 19.3557 31.8612 19.7196 31.8612 21.4481C31.7697 23.2676 30.4889 23.6315 29.1167 23.6315ZM38.265 23.2676C38.448 23.5405 38.5395 23.9044 38.5395 24.4503V25.724H36.9843V24.9052C36.9843 24.5413 36.9843 23.9044 36.7098 23.6315C36.5269 23.3586 36.1609 23.3586 35.612 23.3586H33.9653V25.724H32.4101V19.2647H35.8865C36.6183 19.2647 37.2587 19.2647 37.7161 19.5376C38.1736 19.8106 38.5395 20.2654 38.5395 20.9932C38.5395 21.994 37.8991 22.5398 37.4417 22.7218C37.8991 22.9037 38.1736 23.0857 38.265 23.2676ZM44.5774 20.6293H41.0095V21.812H44.4859V23.0857H41.0095V24.3593H44.5774V25.724H39.4543V19.2647H44.5774V20.6293ZM48.4197 25.724H45.4922V24.3593H48.4197C48.6941 24.3593 48.8771 24.3593 49.0601 24.1774C49.1516 24.0864 49.243 23.9044 49.243 23.7225C49.243 23.5405 49.1516 23.3586 49.0601 23.2676C48.9686 23.1766 48.7856 23.0857 48.5112 23.0857C47.0474 22.9947 45.3093 23.0857 45.3093 21.0842C45.3093 20.1745 45.8582 19.1737 47.5049 19.1737H50.5238V20.7203H47.6878C47.4134 20.7203 47.2304 20.7203 47.0474 20.8113C46.8645 20.9023 46.8645 21.0842 46.8645 21.2662C46.8645 21.5391 47.0474 21.6301 47.2304 21.721C47.4134 21.812 47.5963 21.812 47.7793 21.812H48.6027C49.426 21.812 49.9749 21.994 50.3408 22.3579C50.6153 22.6308 50.7983 23.0857 50.7983 23.7225C50.7983 25.0871 49.9749 25.724 48.4197 25.724ZM56.2873 25.0871C55.9213 25.451 55.2809 25.724 54.3661 25.724H51.4386V24.3593H54.3661C54.6406 24.3593 54.8235 24.3593 55.0065 24.1774C55.098 24.0864 55.1895 23.9044 55.1895 23.7225C55.1895 23.5405 55.098 23.3586 55.0065 23.2676C54.915 23.1766 54.732 23.0857 54.4576 23.0857C52.9939 22.9947 51.2557 23.0857 51.2557 21.0842C51.2557 20.1745 51.8046 19.1737 53.4513 19.1737H56.4702V20.7203H53.7257C53.4513 20.7203 53.2683 20.7203 53.0853 20.8113C52.9024 20.9023 52.9024 21.0842 52.9024 21.2662C52.9024 21.5391 52.9939 21.6301 53.2683 21.721C53.4513 21.812 53.6342 21.812 53.8172 21.812H54.6406C55.4639 21.812 56.0128 21.994 56.3787 22.3579C56.4702 22.3579 56.4702 22.4488 56.4702 22.4488C56.7447 22.8127 56.8362 23.2676 56.8362 23.7225C56.8362 24.2683 56.6532 24.7232 56.2873 25.0871Z" fill="#0571C1"/>
<path d="M36.6201 20.8117C36.4372 20.7207 36.1627 20.7207 35.8883 20.7207H34.0586V22.1763H35.8883C36.1627 22.1763 36.4372 22.1763 36.6201 22.0853C36.8031 21.9944 36.8946 21.7214 36.8946 21.4485C36.9861 21.0846 36.8031 20.9027 36.6201 20.8117Z" fill="#228FE0"/>
<path d="M30.2178 9.89371C30.0348 9.80273 29.7604 9.80273 29.4859 9.80273H27.6562V11.2583H29.4859C29.7604 11.2583 30.0348 11.2583 30.2178 11.1674C30.4008 11.0764 30.4922 10.8035 30.4922 10.5305C30.5837 10.1666 30.4008 9.98468 30.2178 9.89371Z" fill="#228FE0"/>
<path d="M41.2852 12.0776H43.3893L42.383 9.53027L41.2852 12.0776Z" fill="#228FE0"/>
<path d="M25.734 25.1778V19.9922L23.3555 22.5395L25.734 25.1778Z" fill="#228FE0"/>
<path d="M29.2102 20.6299H27.2891V22.2674H29.3017C29.8506 22.2674 30.2165 21.9945 30.2165 21.4487C30.125 20.9028 29.7591 20.6299 29.2102 20.6299Z" fill="#228FE0"/>
<path d="M36.6201 20.8117C36.4372 20.7207 36.1627 20.7207 35.8883 20.7207H34.0586V22.1763H35.8883C36.1627 22.1763 36.4372 22.1763 36.6201 22.0853C36.8031 21.9944 36.8946 21.7214 36.8946 21.4485C36.9861 21.0846 36.8031 20.9027 36.6201 20.8117Z" fill="#228FE0"/>
<path d="M28.5678 25.542L27.287 24.1774V25.7239H24.2681L22.4384 23.6315L20.4258 25.7239H14.3879V19.3557H20.5173L22.4384 21.4481L23.3532 20.3564L21.0662 18.082H13.0156V26.9976H21.0662L22.4384 25.633L23.6277 26.9976H28.5678V25.542Z" fill="#2FABF7"/>
<path d="M19.0549 16.0806L17.8656 14.8069H17.3167V14.2611L15.9444 12.8965L15.0296 14.8069H13.7488L11.5532 9.80332V14.8069H8.4428L7.80242 13.4423H4.69198L4.0516 14.8069H2.4049L5.1494 8.43869H7.43648L9.99802 14.534V8.43869H11.3703L10.0895 7.16504H8.71725V8.25674L8.25983 7.16504H4.23457L2.4049 11.4409L0.300781 16.0806H2.4049H5.05792L5.60682 14.716H6.88758L7.52797 16.0806H12.651V14.9889L13.1085 16.0806H15.7615L16.2189 14.9889V16.0806H19.0549Z" fill="#2FABF7"/>
<path d="M14.8466 11.8951L13.3828 10.4395L14.4806 12.8048L14.8466 11.8951Z" fill="#2FABF7"/>
<path d="M56.4696 26.5422C57.2929 25.9963 57.8418 25.0866 57.9333 24.0859L56.6525 22.8122C56.744 23.0851 56.8355 23.3581 56.8355 23.722C56.8355 24.2678 56.6525 24.7227 56.2866 25.0866C55.9207 25.4505 55.2803 25.7234 54.3655 25.7234H51.438V24.3588H54.3655C54.6399 24.3588 54.8229 24.3588 55.0058 24.1768C55.0973 24.0859 55.1888 23.9039 55.1888 23.722C55.1888 23.54 55.0973 23.3581 55.0058 23.2671C54.9144 23.1761 54.7314 23.0851 54.457 23.0851C52.9932 22.9942 51.255 23.0851 51.255 21.0837C51.255 20.1739 51.8039 19.3552 53.1762 19.1732L52.1699 18.1725C51.9869 18.2635 51.8954 18.3544 51.8039 18.3544V17.8086H47.5957C46.9553 17.8086 46.132 17.9905 45.766 18.3544V17.8086H38.2644V18.3544C37.7155 17.8996 36.7092 17.8086 36.2518 17.8086H31.3117V18.3544C30.8543 17.8996 29.7565 17.8086 29.2076 17.8086H23.7186L22.4378 19.1732L21.2485 17.8086H20.2422L22.9867 20.5378L24.3589 19.0822H29.2076C30.3968 19.0822 31.7691 19.4461 31.7691 21.1747C31.7691 22.9942 30.4883 23.3581 29.1161 23.3581H27.2864V24.7227L28.6587 26.0873V24.7227H29.1161C29.7565 24.7227 30.5798 24.7227 31.2202 24.4498V26.9061H35.3369V24.5408H35.5199C35.7944 24.5408 35.7944 24.5407 35.7944 24.8137V26.9061H48.2361C49.0594 26.9061 49.8828 26.7242 50.3402 26.3603V26.9061H54.274C55.0058 26.9971 55.8292 26.9061 56.4696 26.5422ZM38.2644 23.2671C38.4474 23.54 38.5389 23.9039 38.5389 24.4498V25.7234H36.9836V24.9046C36.9836 24.5407 36.9836 23.9039 36.7092 23.631C36.5262 23.3581 36.1603 23.3581 35.6114 23.3581H33.9647V25.7234H32.4095V19.2642H35.8858C36.6177 19.2642 37.2581 19.2642 37.7155 19.5371C38.1729 19.81 38.5389 20.2649 38.5389 20.9927C38.5389 21.9934 37.8985 22.5393 37.4411 22.7212C37.8985 22.9032 38.1729 23.0851 38.2644 23.2671ZM44.5768 20.6288H41.0089V21.8115H44.4853V23.0851H41.0089V24.3588H44.5768V25.7234H39.4537V19.2642H44.5768V20.6288ZM48.419 25.7234H45.4916V24.3588H48.419C48.6935 24.3588 48.8765 24.3588 49.0594 24.1768C49.1509 24.0859 49.2424 23.9039 49.2424 23.722C49.2424 23.54 49.1509 23.3581 49.0594 23.2671C48.9679 23.1761 48.785 23.0851 48.5105 23.0851C47.0468 22.9942 45.3086 23.0851 45.3086 21.0837C45.3086 20.1739 45.8575 19.1732 47.5042 19.1732H50.5232V20.7198H47.6872C47.4127 20.7198 47.2298 20.7198 47.0468 20.8108C46.8638 20.9017 46.8638 21.0837 46.8638 21.2656C46.8638 21.5386 47.0468 21.6295 47.2298 21.7205C47.4127 21.8115 47.5957 21.8115 47.7787 21.8115H48.602C49.4254 21.8115 49.9743 21.9934 50.3402 22.3573C50.6147 22.6303 50.7976 23.0851 50.7976 23.722C50.7976 25.0866 49.9743 25.7234 48.419 25.7234Z" fill="#228FE0"/>
<path d="M52.8125 21.2666C52.8125 21.5395 52.904 21.6305 53.1784 21.7214C53.3614 21.8124 53.5444 21.8124 53.7273 21.8124H54.5507C55.0996 21.8124 55.4655 21.9034 55.8315 22.0853L54.4592 20.7207H53.6359C53.3614 20.7207 53.1784 20.7207 52.9955 20.8117C52.904 20.9027 52.8125 21.0846 52.8125 21.2666Z" fill="#228FE0"/>
<path d="M49.6094 15.8076L49.7925 16.0808H49.8841L49.6094 15.8076Z" fill="#228FE0"/>
<path d="M44.5742 10.8037L46.1294 14.5337V12.3503L44.5742 10.8037Z" fill="#228FE0"/>
<path d="M28.9329 13.8061H29.1159C29.2988 13.8061 29.2988 13.8061 29.2988 14.079V16.0804H35.8856V15.5346C36.4345 15.8075 37.2579 16.0804 38.3557 16.0804H41.1002L41.6491 14.6248H42.9298L43.4788 16.0804H48.7848V15.1707L47.504 13.897V14.8978H44.3936L43.9362 13.4422H40.7343L40.1853 14.8978H38.4472C37.7153 14.8978 36.8005 14.7158 36.2516 14.17C35.7027 13.6241 35.4282 12.8963 35.4282 11.7136C35.4282 10.8039 35.6112 9.89414 36.2516 9.16634C36.709 8.62049 37.5323 8.43854 38.5387 8.43854H40.0024V9.80316H38.5387C37.9898 9.80316 37.7153 9.89414 37.3494 10.1671C37.0749 10.44 36.892 10.9858 36.892 11.6227C36.892 12.3505 36.9834 12.8053 37.3494 13.1692C37.6238 13.4422 37.9898 13.5331 38.4472 13.5331H39.0876L41.1917 8.52951H42.1065L40.8257 7.25586H38.4472C37.4409 7.25586 36.6175 7.43781 35.8856 7.80171V7.25586H31.8604V7.80171C31.403 7.43781 30.854 7.25586 30.1222 7.25586H15.3934L14.3871 9.53024L13.3807 7.25586H9.35547L10.6362 8.52951H12.4659L14.0211 11.8956L14.57 12.4414L16.2167 8.43854H18.7783V14.8978H17.223V9.89414L15.6678 13.5331L18.3208 16.1714H28.8414L28.9329 13.8061ZM33.1411 8.43854H34.6964V14.8978H33.1411V8.43854ZM25.0906 9.80316H21.5228V10.9858H24.9991V12.2595H21.5228V13.5331H25.0906V14.8978H19.9675V8.43854H25.0906V9.80316ZM27.6521 14.8068H26.0969V8.34756H29.5733C30.3966 8.34756 30.9455 8.34756 31.403 8.62049C31.8604 8.89341 32.1348 9.34829 32.1348 10.0761C32.1348 11.0768 31.4944 11.6227 31.037 11.8046C31.403 11.8956 31.6774 12.1685 31.7689 12.3505C31.9519 12.7144 32.0433 12.9873 32.0433 13.5331V14.8068H30.4881V13.988C30.4881 13.6241 30.4881 13.0783 30.2137 12.7144C30.1222 12.5324 29.8477 12.5324 29.2988 12.5324H27.6521V14.8068Z" fill="#228FE0"/>
</g>
<defs>
<clipPath id="clip0">
<rect width="57.6345" height="30.8616" fill="white" transform="translate(0.300781 0.226562)"/>
</clipPath>
</defs>
</svg>
