<svg width="41" height="28" viewBox="0 0 41 28" fill="none" xmlns="http://www.w3.org/2000/svg">
<path d="M4.2989 0.177734H35.902C38.1985 0.177734 40.0603 2.09062 40.0603 4.45028V23.2496C40.0603 25.6093 38.1985 27.5222 35.902 27.5222H4.2989C2.00235 27.5223 0.140625 25.6094 0.140625 23.2496V4.45036C0.140625 2.09062 2.00235 0.177734 4.2989 0.177734Z" fill="#2196F3"/>
<path d="M40.0603 5.30469H0.140625V12.1408H40.0603V5.30469Z" fill="#455A64"/>
<path d="M12.6178 18.9776H5.9645C5.50519 18.9776 5.13281 18.595 5.13281 18.1231C5.13281 17.6512 5.50519 17.2686 5.9645 17.2686H12.6178C13.0771 17.2686 13.4494 17.6512 13.4494 18.1231C13.4494 18.595 13.0771 18.9776 12.6178 18.9776Z" fill="#FAFAFA"/>
<path d="M17.6077 22.3956H5.9645C5.50519 22.3956 5.13281 22.013 5.13281 21.5411C5.13281 21.0691 5.50519 20.6865 5.9645 20.6865H17.6077C18.067 20.6865 18.4394 21.0691 18.4394 21.5411C18.4394 22.013 18.067 22.3956 17.6077 22.3956Z" fill="#FAFAFA"/>
</svg>
