<svg width="41" height="29" viewBox="0 0 41 29" fill="none" xmlns="http://www.w3.org/2000/svg">
<g id="gift-card">
<path id="Shape" d="M37.7883 28.7818H4.2862C3.03208 28.7818 2.01172 27.7335 2.01172 26.4449V6.84372C2.01172 5.55514 3.03208 4.50684 4.2862 4.50684H37.7882C39.0423 4.50684 40.0627 5.55514 40.0627 6.84372V26.4448C40.0628 27.7334 39.0424 28.7818 37.7883 28.7818Z" fill="#FFEF31"/>
<path id="Path" d="M37.7849 4.50684H21.0273V28.7818H37.7848C39.0389 28.7818 40.0593 27.7335 40.0593 26.4449V6.84372C40.0593 5.55514 39.039 4.50684 37.7849 4.50684Z" fill="#EAD000"/>
<path id="Path_2" d="M34.2042 20.3673H25.861C25.2151 20.3673 24.6914 19.8292 24.6914 19.1656C24.6914 18.5019 25.2151 17.9639 25.861 17.9639H34.2042C34.8501 17.9639 35.3738 18.5019 35.3738 19.1656C35.3738 19.8292 34.8501 20.3673 34.2042 20.3673Z" fill="#152659"/>
<path id="Path_3" d="M31.4747 25.1768H25.861C25.2151 25.1768 24.6914 24.6388 24.6914 23.9751C24.6914 23.3115 25.2151 22.7734 25.861 22.7734H31.4747C32.1206 22.7734 32.6443 23.3115 32.6443 23.9751C32.6443 24.6388 32.1206 25.1768 31.4747 25.1768Z" fill="#152659"/>
<path id="Shape_2" fill-rule="evenodd" clip-rule="evenodd" d="M40.0603 10.9555H16.72C17.6391 10.573 18.6468 10.0373 19.3245 9.34096C21.3556 7.25409 21.3556 3.85853 19.3245 1.77174C18.3407 0.76083 17.0325 0.204102 15.6412 0.204102C14.2498 0.204102 12.9417 0.76083 11.9579 1.77174C11.3433 2.40313 10.8571 3.31349 10.4942 4.18172C10.1313 3.31349 9.64509 2.40313 9.03058 1.77174C8.04672 0.76083 6.73856 0.204102 5.34729 0.204102C3.95585 0.204102 2.64778 0.76083 1.66391 1.77174C-0.367136 3.85853 -0.367136 7.25409 1.66391 9.34104C2.34165 10.0374 3.34946 10.5731 4.26845 10.9556H2.00941V13.3591H7.3912L5.76772 14.9813C5.30463 15.444 5.29426 16.2048 5.74456 16.6807C6.19485 17.1565 6.93537 17.167 7.39845 16.7044L9.49413 14.6104V27.5798C9.49413 28.2434 10.0178 28.7815 10.6637 28.7815C11.3097 28.7815 11.8333 28.2434 11.8333 27.5798V14.7495L13.8979 16.9746C14.1277 17.2223 14.4358 17.3471 14.7445 17.3471C15.0345 17.3471 15.325 17.2369 15.5515 17.0151C16.019 16.5571 16.0367 15.7965 15.5909 15.316L13.7751 13.359H40.0603V10.9555ZM12.0758 6.78223C12.4713 5.33836 13.088 4.00778 13.6101 3.47124C14.1522 2.91427 14.8728 2.60758 15.6394 2.60758C16.406 2.60758 17.1267 2.91435 17.6687 3.47124C18.7877 4.621 18.7877 6.49172 17.6687 7.64148C17.1466 8.17794 15.8516 8.81151 14.4463 9.21802C13.039 9.6251 12.0899 9.6573 11.7028 9.60106C11.6482 9.20376 11.6795 8.22834 12.0758 6.78223ZM5.3496 2.60758C4.58297 2.60758 3.86234 2.91426 3.32027 3.47123C2.20128 4.62098 2.20128 6.49169 3.3202 7.64151C3.8423 8.17805 5.13736 8.81153 6.54259 9.21803C7.94993 9.62502 8.89917 9.65731 9.28607 9.60107C9.34073 9.20377 9.30947 8.22836 8.91321 6.78219C8.51757 5.33834 7.90096 4.00777 7.37885 3.47123C6.83678 2.91434 6.11616 2.60758 5.3496 2.60758Z" fill="#F90053"/>
<rect id="Rectangle" x="21.0273" y="10.957" width="19.0319" height="2.40359" fill="#A50043"/>
</g>
</svg>
