<svg width="41" height="29" viewBox="0 0 41 29" fill="none" xmlns="http://www.w3.org/2000/svg">
<path d="M36.9416 0.413086H3.25935C1.53976 0.413086 0.140625 1.80445 0.140625 3.51449V25.8446C0.140625 27.5546 1.53976 28.946 3.25935 28.946H36.9416C38.6612 28.946 40.0603 27.5546 40.0603 25.8446V3.51449C40.0603 1.80445 38.6612 0.413086 36.9416 0.413086Z" fill="#5D647F"/>
<path d="M13.8652 12.8184H6.3803C5.6913 12.8184 5.13281 12.263 5.13281 11.5778V6.61556C5.13281 5.93038 5.6913 5.375 6.3803 5.375H13.8652C14.5543 5.375 15.1127 5.93038 15.1127 6.61556V11.5778C15.1127 12.263 14.5543 12.8184 13.8652 12.8184Z" fill="#FFD100"/>
<path d="M9.49903 20.8827H6.3803C5.6913 20.8827 5.13281 20.3273 5.13281 19.6421V19.0218C5.13281 18.3366 5.6913 17.7812 6.3803 17.7812H9.49903C10.188 17.7812 10.7465 18.3366 10.7465 19.0218V19.6421C10.7465 20.3273 10.188 20.8827 9.49903 20.8827Z" fill="#B8BAC0"/>
<path d="M17.6045 20.8827H14.4858C13.7968 20.8827 13.2383 20.3273 13.2383 19.6421V19.0218C13.2383 18.3366 13.7968 17.7812 14.4858 17.7812H17.6045C18.2935 17.7812 18.852 18.3366 18.852 19.0218V19.6421C18.852 20.3273 18.2935 20.8827 17.6045 20.8827Z" fill="#B8BAC0"/>
<path d="M25.7139 20.8827H22.5951C21.9061 20.8827 21.3477 20.3273 21.3477 19.6421V19.0218C21.3477 18.3366 21.9061 17.7812 22.5951 17.7812H25.7139C26.4029 17.7812 26.9614 18.3366 26.9614 19.0218V19.6421C26.9614 20.3273 26.4029 20.8827 25.7139 20.8827Z" fill="#B8BAC0"/>
<path d="M33.8232 20.8827H30.7045C30.0155 20.8827 29.457 20.3273 29.457 19.6421V19.0218C29.457 18.3366 30.0155 17.7812 30.7045 17.7812H33.8232C34.5123 17.7812 35.0707 18.3366 35.0707 19.0218V19.6421C35.0707 20.3273 34.5123 20.8827 33.8232 20.8827Z" fill="#B8BAC0"/>
<path d="M18.2315 24.6038H5.75656C5.41178 24.6038 5.13281 24.3261 5.13281 23.9836C5.13281 23.641 5.41178 23.3633 5.75656 23.3633H18.2315C18.5762 23.3633 18.8552 23.641 18.8552 23.9836C18.8552 24.3261 18.5762 24.6038 18.2315 24.6038Z" fill="#8A8895"/>
<path d="M26.3351 24.6038H20.7214C20.3766 24.6038 20.0977 24.3261 20.0977 23.9836C20.0977 23.641 20.3766 23.3633 20.7214 23.3633H26.3351C26.6799 23.3633 26.9589 23.641 26.9589 23.9836C26.9589 24.3261 26.6799 24.6038 26.3351 24.6038Z" fill="#8A8895"/>
<path d="M28.8326 11.578C28.1474 12.3393 27.1516 12.8184 26.0433 12.8184C23.9763 12.8184 22.3008 11.1521 22.3008 9.09668C22.3008 7.04123 23.9763 5.375 26.0433 5.375C27.1514 5.375 28.1471 5.85393 28.8323 6.61502" fill="#FF4F19"/>
<path d="M15.1099 9.71696H8.87249V8.4764H15.1099V7.23584H8.87249V5.375H7.625V12.8184H8.87249V10.9575H15.1099V9.71696Z" fill="#FF9500"/>
<path d="M31.3284 12.8184C33.3953 12.8184 35.0709 11.1521 35.0709 9.09668C35.0709 7.04125 33.3953 5.375 31.3284 5.375C29.2615 5.375 27.5859 7.04125 27.5859 9.09668C27.5859 11.1521 29.2615 12.8184 31.3284 12.8184Z" fill="#FFD100"/>
</svg>
