<svg width="41" height="26" viewBox="0 0 41 26" fill="none" xmlns="http://www.w3.org/2000/svg">
<g clip-path="url(#clip0)">
<path d="M38.2458 23.9491H1.95518C0.957186 23.9491 0.140625 23.1371 0.140625 22.1447V2.29568C0.140625 1.30324 0.957186 0.491211 1.95518 0.491211H38.2459C39.2439 0.491211 40.0604 1.30324 40.0604 2.29568V22.1447C40.0603 23.1371 39.2438 23.9491 38.2458 23.9491Z" fill="#0E9347"/>
<path d="M34.6147 22.1457H5.58215C5.58215 20.1609 3.94911 18.5369 1.95312 18.5369V5.90574C3.94911 5.90574 5.58215 4.28177 5.58215 2.29688H34.6147C34.6147 4.28177 36.2477 5.90574 38.2437 5.90574V18.5369C36.2477 18.5369 34.6147 20.1609 34.6147 22.1457Z" fill="#3BB54A"/>
<path d="M20.098 20.3406C24.1065 20.3406 27.3561 16.7052 27.3561 12.2206C27.3561 7.73604 24.1065 4.10059 20.098 4.10059C16.0894 4.10059 12.8398 7.73604 12.8398 12.2206C12.8398 16.7052 16.0894 20.3406 20.098 20.3406Z" fill="#0E9347"/>
<path d="M9.21299 14.025C10.2151 14.025 11.0275 13.2171 11.0275 12.2205C11.0275 11.2239 10.2151 10.416 9.21299 10.416C8.21084 10.416 7.39844 11.2239 7.39844 12.2205C7.39844 13.2171 8.21084 14.025 9.21299 14.025Z" fill="#0E9347"/>
<path d="M30.9864 14.025C31.9886 14.025 32.801 13.2171 32.801 12.2205C32.801 11.2239 31.9886 10.416 30.9864 10.416C29.9843 10.416 29.1719 11.2239 29.1719 12.2205C29.1719 13.2171 29.9843 14.025 30.9864 14.025Z" fill="#0E9347"/>
<path d="M21.0089 11.3196H19.1944C18.65 11.3196 18.2871 10.9587 18.2871 10.4174C18.2871 9.87603 18.6501 9.51519 19.1944 9.51519H21.9161C22.4605 9.51519 22.8234 9.15426 22.8234 8.61299C22.8234 8.07164 22.4604 7.71079 21.9161 7.71079H21.0089C21.0089 7.16944 20.646 6.80859 20.1017 6.80859C19.5573 6.80859 19.1944 7.16952 19.1944 7.71079C17.6521 7.71079 16.4727 8.88366 16.4727 10.4175C16.4727 11.9513 17.6521 13.1241 19.1944 13.1241H21.009C21.5534 13.1241 21.9162 13.4851 21.9162 14.0263C21.9162 14.5677 21.5533 14.9285 21.009 14.9285H18.2872C17.7428 14.9285 17.38 15.2895 17.38 15.8307C17.38 16.3721 17.7429 16.7329 18.2872 16.7329H19.1944C19.1944 17.2743 19.5574 17.6351 20.1017 17.6351C20.646 17.6351 21.0089 17.2742 21.0089 16.7329C22.5513 16.7329 23.7307 15.56 23.7307 14.0263C23.7307 12.4925 22.5513 11.3196 21.0089 11.3196Z" fill="#89C763"/>
</g>
<defs>
<clipPath id="clip0">
<rect width="39.9197" height="24.995" fill="white" transform="translate(0.140625 0.158203)"/>
</clipPath>
</defs>
</svg>
