<svg width="46" height="28" viewBox="0 0 46 28" fill="none" xmlns="http://www.w3.org/2000/svg">
<path d="M23.9891 11.6935C25.6023 10.765 27.1189 9.89168 28.7409 8.95824C28.2157 8.04182 28.3437 8.26214 27.8653 7.39748C27.3583 6.48144 27.5495 6.12129 28.5964 6.11373C31.645 6.09257 34.6942 6.08992 37.7427 6.1058C38.6483 6.11071 38.8668 6.49617 38.4127 7.29054C36.9048 9.92758 35.3802 12.5552 33.8419 15.1748C33.3505 16.0111 32.9207 16.0092 32.4073 15.1911C31.8798 14.3502 32.0204 14.5581 31.4561 13.605C29.8657 14.5233 28.2765 15.4413 26.7195 16.3403C26.813 16.5829 26.9323 16.7386 27.03 16.9075C28.2031 18.938 28.7272 19.9077 29.9394 21.9152C31.3759 24.2941 34.3872 24.4373 36.0973 22.2387C36.2873 21.9942 36.4613 21.7346 36.6168 21.467C39.4939 16.5111 42.3725 11.5564 45.2325 6.59065C45.5225 6.08803 45.7839 5.53893 45.9097 4.97812C46.411 2.74279 44.7435 0.629533 42.3999 0.617062C36.2345 0.584562 30.0679 0.579649 23.9025 0.63369C21.0941 0.658254 19.4064 3.45439 20.64 5.91193C21.0421 6.71196 21.5243 7.47231 21.9761 8.2474C22.8262 9.7065 23.0508 10.0905 23.9891 11.6935Z" fill="#306E9A"/>
<path d="M10.2847 27.0053C10.2873 25.166 10.2923 21.5657 10.2923 21.5657C10.2923 21.5657 9.53414 21.5578 8.50961 21.5578C7.46646 21.5578 7.25137 21.1912 7.76629 20.2944C9.26661 17.6827 10.7836 15.0801 12.3163 12.4869C12.7715 11.7167 13.1747 11.649 13.6722 12.5054C15.1854 15.1118 16.7036 17.7156 18.1971 20.3334C18.674 21.1689 18.4581 21.5347 17.4963 21.5653C16.5033 21.5653 15.6543 21.5642 15.6543 21.5642L15.654 27.0201C15.654 27.0201 19.7019 27.0208 22.0683 27.0208C24.836 26.98 26.4598 24.4824 25.4148 21.9281C25.2989 21.6443 25.1617 21.3666 25.0081 21.1005C22.166 16.1768 19.325 11.2522 16.4661 6.33792C16.1765 5.8406 15.8333 5.34365 15.4123 4.95705C13.7334 3.41556 11.0793 3.78553 9.90124 5.77862C6.80142 11.0228 3.72517 16.2818 0.699837 21.5687C-0.678112 23.9771 0.893267 26.8103 3.62827 26.9819C4.51865 27.0378 8.32074 27.0053 10.2847 27.0053Z" fill="#1F4066"/>
</svg>
