<svg width="48" height="15" viewBox="0 0 48 15" fill="none" xmlns="http://www.w3.org/2000/svg">
<path d="M18.043 14.6033L20.445 1.16699H24.1982L21.8712 14.6033H18.043Z" fill="#3C58BF"/>
<path d="M18.043 14.6033L21.1206 1.16699H24.1982L21.8712 14.6033H18.043Z" fill="#293688"/>
<path d="M35.4573 1.3169C34.7067 1.01831 33.5057 0.719727 32.0044 0.719727C28.2513 0.719727 25.549 2.58588 25.549 5.27315C25.549 7.2886 27.4256 8.33364 28.9268 9.00546C30.4281 9.67727 30.8785 10.1252 30.8785 10.7223C30.8785 11.6181 29.6775 12.066 28.6266 12.066C27.1253 12.066 26.2996 11.842 25.0235 11.3195L24.4981 11.0956L23.9727 14.1561C24.8734 14.5293 26.5248 14.9025 28.2513 14.9025C32.2296 14.9025 34.8568 13.0364 34.8568 10.1998C34.8568 8.63223 33.881 7.43789 31.6291 6.46749C30.278 5.79567 29.4523 5.42244 29.4523 4.75062C29.4523 4.15345 30.1278 3.55628 31.6291 3.55628C32.9052 3.55628 33.8059 3.78022 34.4815 4.07881L34.8568 4.2281L35.4573 1.3169Z" fill="#3C58BF"/>
<path d="M35.4573 1.3169C34.7067 1.01831 33.5057 0.719727 32.0044 0.719727C28.2513 0.719727 26.2246 2.58588 26.2246 5.27315C26.2246 7.2886 27.4256 8.33364 28.9268 9.00546C30.4281 9.67727 30.8785 10.1252 30.8785 10.7223C30.8785 11.6181 29.6775 12.066 28.6266 12.066C27.1253 12.066 26.2996 11.842 25.0235 11.3195L24.4981 11.0956L23.9727 14.1561C24.8734 14.5293 26.5248 14.9025 28.2513 14.9025C32.2296 14.9025 34.8568 13.0364 34.8568 10.1998C34.8568 8.63223 33.881 7.43789 31.6291 6.46749C30.278 5.79567 29.4523 5.42244 29.4523 4.75062C29.4523 4.15345 30.1278 3.55628 31.6291 3.55628C32.9052 3.55628 33.8059 3.78022 34.4815 4.07881L34.8568 4.2281L35.4573 1.3169Z" fill="#293688"/>
<path d="M41.9134 1.16699C41.0127 1.16699 40.3371 1.24164 39.9618 2.1374L34.332 14.6033H38.3854L39.1361 12.3639H43.9401L44.3905 14.6033H47.9935L44.8409 1.16699H41.9134ZM40.187 10.1245C40.4122 9.45273 41.6882 6.1683 41.6882 6.1683C41.6882 6.1683 41.9885 5.34719 42.2137 4.82466L42.4389 6.09365C42.4389 6.09365 43.1895 9.45273 43.3396 10.1992H40.187V10.1245Z" fill="#3C58BF"/>
<path d="M42.8142 1.16699C41.9134 1.16699 41.2379 1.24164 40.8625 2.1374L34.332 14.6033H38.3854L39.1361 12.3639H43.9401L44.3905 14.6033H47.9935L44.8409 1.16699H42.8142ZM40.187 10.1245C40.4872 9.37809 41.6882 6.1683 41.6882 6.1683C41.6882 6.1683 41.9885 5.34719 42.2137 4.82466L42.4389 6.09365C42.4389 6.09365 43.1895 9.45273 43.3396 10.1992H40.187V10.1245Z" fill="#293688"/>
<path d="M11.1376 10.572L10.7622 8.63119C10.0867 6.3918 7.90984 3.92848 5.50781 2.73414L8.88566 14.6775H12.9391L19.0192 1.24121H14.9658L11.1376 10.572Z" fill="#3C58BF"/>
<path d="M11.1376 10.572L10.7622 8.63119C10.0867 6.3918 7.90984 3.92848 5.50781 2.73414L8.88566 14.6775H12.9391L19.0192 1.24121H15.7164L11.1376 10.572Z" fill="#293688"/>
<path d="M0.703125 1.16699L1.37869 1.31629C6.18274 2.43598 9.48553 5.27254 10.7616 8.63162L9.41047 2.28669C9.18528 1.39093 8.50971 1.16699 7.68401 1.16699H0.703125Z" fill="#FFBC00"/>
<path d="M0.703125 1.16699C5.50717 2.28669 9.48553 5.1979 10.7616 8.55699L9.48553 3.25709C9.26034 2.36134 8.50971 1.83881 7.68401 1.83881L0.703125 1.16699Z" fill="#F7981D"/>
<path d="M0.703125 1.16699C5.50717 2.28669 9.48553 5.1979 10.7616 8.55699L9.86084 5.64578C9.63565 4.75002 9.3354 3.85426 8.28452 3.48103L0.703125 1.16699Z" fill="#ED7C00"/>
<path d="M14.8899 10.1238L12.3377 7.58584L11.1367 10.4224L10.8365 8.55624C10.1609 6.31685 7.98406 3.85352 5.58203 2.65918L8.95988 14.6026H13.0133L14.8899 10.1238Z" fill="#051244"/>
<path d="M21.8707 14.6028L18.643 11.3183L18.0425 14.6028H21.8707Z" fill="#051244"/>
<path d="M30.5029 9.9746C30.8032 10.2732 30.9533 10.4971 30.8782 10.7957C30.8782 11.6915 29.6772 12.1393 28.6263 12.1393C27.125 12.1393 26.2994 11.9154 25.0233 11.3929L24.4978 11.1689L23.9724 14.2294C24.8731 14.6027 26.5245 14.9759 28.251 14.9759C30.653 14.9759 32.6047 14.3041 33.7306 13.1097L30.5029 9.9746Z" fill="#051244"/>
<path d="M34.8563 14.6027H38.3843L39.1349 12.3633H43.939L44.3894 14.6027H47.9924L46.7163 9.1535L42.2125 4.82402L42.4377 6.01836C42.4377 6.01836 43.1883 9.37744 43.3385 10.1239H40.1858C40.4861 9.37744 41.6871 6.16765 41.6871 6.16765C41.6871 6.16765 41.9873 5.34654 42.2125 4.82402" fill="#051244"/>
</svg>
