<svg width="22" height="24" viewBox="0 0 22 24" fill="none" xmlns="http://www.w3.org/2000/svg">
<path d="M2.96763 2.65635H7.61579L9.11399 6.86813L6.70719 8.67241C6.41919 8.88832 6.2462 9.25179 6.2462 9.64101C6.24883 9.75001 6.2462 9.64218 6.2462 9.64218L6.2462 9.6434L6.24621 9.646L6.24624 9.65187L6.24639 9.66624C6.24655 9.67697 6.24681 9.69 6.24724 9.70526C6.24812 9.73577 6.2497 9.77523 6.25254 9.82303C6.2582 9.9186 6.26888 10.0478 6.28896 10.2058C6.32908 10.5216 6.40695 10.9543 6.55814 11.4643C6.8617 12.4883 7.45818 13.8143 8.61989 15.1206C9.78159 16.4269 10.9607 17.0977 11.8714 17.439C12.325 17.609 12.7097 17.6966 12.9906 17.7417C13.1311 17.7643 13.246 17.7763 13.331 17.7827C13.3735 17.7858 13.4086 17.7876 13.4357 17.7886C13.4493 17.7891 13.4609 17.7894 13.4704 17.7896L13.4832 17.7897L13.4884 17.7898L13.4907 17.7898L13.4918 17.7898C13.4918 17.7898 13.6074 17.7827 13.4929 17.7898C13.885 17.7898 14.2434 17.5407 14.4188 17.1463L15.1121 15.5871L19.7043 16.4477V21.4765C17.5188 21.8319 11.6164 22.1822 6.97822 16.9666C2.34005 11.7511 2.65157 5.1139 2.96763 2.65635ZM8.39292 10.2069L10.2625 8.80533C11.0771 8.19461 11.4 7.02569 11.0364 6.00345L9.53817 1.79167C9.22374 0.907738 8.46241 0.328125 7.61579 0.328125H2.91354C1.97302 0.328125 1.08771 1.06287 0.933306 2.21038C0.58204 4.82101 0.103919 12.5292 5.51418 18.6129C10.9244 24.6967 17.7793 24.1591 20.1009 23.7641C21.1214 23.5904 21.7748 22.5949 21.7748 21.5373V16.4477C21.7748 15.3096 21.043 14.3383 20.0447 14.1512L15.4525 13.2905C14.5559 13.1225 13.6667 13.6317 13.2602 14.5459L12.9015 15.3526C12.7888 15.3215 12.6629 15.2815 12.5262 15.2303C11.884 14.9896 10.9927 14.4962 10.0839 13.4743C9.17517 12.4524 8.73641 11.4501 8.52236 10.728C8.46452 10.5329 8.42288 10.3575 8.39292 10.2069Z" fill="white"/>
</svg>
