<svg width="16" height="15" viewBox="0 0 16 15" fill="none" xmlns="http://www.w3.org/2000/svg">
<path fill-rule="evenodd" clip-rule="evenodd" d="M9.68786 1.12305C9.53867 1.12305 9.3956 1.06708 9.29011 0.967447C9.18462 0.867819 9.12536 0.732693 9.12536 0.591797C9.12536 0.450901 9.18462 0.315775 9.29011 0.216146C9.3956 0.116518 9.53867 0.0605469 9.68786 0.0605469H15.3129C15.462 0.0605469 15.6051 0.116518 15.7106 0.216146C15.8161 0.315775 15.8754 0.450901 15.8754 0.591797V5.9043C15.8754 6.04519 15.8161 6.18032 15.7106 6.27995C15.6051 6.37958 15.462 6.43555 15.3129 6.43555C15.1637 6.43555 15.0206 6.37958 14.9151 6.27995C14.8096 6.18032 14.7504 6.04519 14.7504 5.9043V1.87423L10.1052 6.2613C11.0185 7.31656 11.4674 8.66297 11.3591 10.0221C11.2508 11.3811 10.5936 12.6489 9.5234 13.5632C8.45317 14.4775 7.05182 14.9683 5.60918 14.9342C4.16653 14.9001 2.79295 14.3436 1.77253 13.3799C0.752101 12.4162 0.162894 11.1189 0.126765 9.75638C0.0906363 8.39388 0.61035 7.07039 1.57842 6.05962C2.54649 5.04885 3.88885 4.42814 5.32788 4.32586C6.76691 4.22358 8.19252 4.64756 9.30986 5.51011L13.955 1.12305H9.68786ZM5.75036 5.37305C4.55688 5.37305 3.41229 5.82081 2.56838 6.61784C1.72446 7.41487 1.25036 8.49588 1.25036 9.62305C1.25036 10.7502 1.72446 11.8312 2.56838 12.6283C3.41229 13.4253 4.55688 13.873 5.75036 13.873C6.94383 13.873 8.08843 13.4253 8.93234 12.6283C9.77625 11.8312 10.2504 10.7502 10.2504 9.62305C10.2504 8.49588 9.77625 7.41487 8.93234 6.61784C8.08843 5.82081 6.94383 5.37305 5.75036 5.37305V5.37305Z" fill="#039BE5"/>
</svg>
