<svg width="13" height="19" viewBox="0 0 13 19" fill="none" xmlns="http://www.w3.org/2000/svg">
<path d="M12.7344 7.12297C12.7349 5.92784 12.3919 4.75773 11.7463 3.75202C11.1006 2.74631 10.1795 1.94738 9.09258 1.45038C8.00569 0.95338 6.79884 0.779264 5.61579 0.948768C4.43274 1.11827 3.32334 1.62425 2.41972 2.40644C1.51611 3.18863 0.856362 4.21407 0.519065 5.36062C0.181767 6.50717 0.181134 7.7265 0.517239 8.8734C0.853344 10.0203 1.51202 11.0464 2.41482 11.8296C3.31763 12.6127 4.4265 13.1198 5.60938 13.2905V14.5448H3.53125C3.29504 14.5448 3.06851 14.6387 2.90148 14.8057C2.73446 14.9727 2.64063 15.1993 2.64063 15.4355C2.64063 15.6717 2.73446 15.8982 2.90148 16.0652C3.06851 16.2323 3.29504 16.3261 3.53125 16.3261H5.60938V17.8105C5.60938 18.0467 5.70321 18.2732 5.87023 18.4402C6.03726 18.6073 6.26379 18.7011 6.5 18.7011C6.73621 18.7011 6.96274 18.6073 7.12977 18.4402C7.29679 18.2732 7.39063 18.0467 7.39063 17.8105V16.3261H9.46875C9.70496 16.3261 9.93149 16.2323 10.0985 16.0652C10.2655 15.8982 10.3594 15.6717 10.3594 15.4355C10.3594 15.1993 10.2655 14.9727 10.0985 14.8057C9.93149 14.6387 9.70496 14.5448 9.46875 14.5448H7.39063V13.2905C8.87392 13.0765 10.2304 12.3352 11.2118 11.2026C12.1932 10.0699 12.7337 8.62163 12.7344 7.12297ZM2.04688 7.12297C2.04688 6.24223 2.30805 5.38126 2.79736 4.64895C3.28668 3.91664 3.98216 3.34587 4.79586 3.00882C5.60957 2.67178 6.50494 2.58359 7.36876 2.75541C8.23258 2.92724 9.02606 3.35136 9.64884 3.97414C10.2716 4.59692 10.6957 5.39039 10.8676 6.25421C11.0394 7.11803 10.9512 8.01341 10.6142 8.82711C10.2771 9.64081 9.70634 10.3363 8.97403 10.8256C8.24171 11.3149 7.38075 11.5761 6.5 11.5761C5.31896 11.5761 4.18629 11.1069 3.35117 10.2718C2.51604 9.43668 2.04688 8.30401 2.04688 7.12297Z" fill="#FD6D6D"/>
</svg>
