<svg width="20" height="24" viewBox="0 0 20 24" fill="none" xmlns="http://www.w3.org/2000/svg">
<path d="M10.5175 1.0108C10.1714 0.9964 9.82856 0.9964 9.48252 1.0108C7.17173 1.16092 5.00585 2.18915 3.42877 3.88476C1.85168 5.58036 0.982826 7.81494 1.00026 10.1305C1.06776 14.3304 4.38266 18.1478 6.79759 20.9377C7.32258 21.5452 7.81756 22.1152 8.23755 22.6402C8.44757 22.9067 8.71528 23.1221 9.02055 23.2701C9.32583 23.4182 9.6607 23.4952 10 23.4952C10.3393 23.4952 10.6742 23.4182 10.9794 23.2701C11.2847 23.1221 11.5524 22.9067 11.7625 22.6402C12.1824 22.1152 12.6774 21.5452 13.2024 20.9377C15.6173 18.1478 18.9322 14.3304 18.9997 10.1305C19.0172 7.81494 18.1483 5.58036 16.5712 3.88476C14.9941 2.18915 12.8283 1.16092 10.5175 1.0108ZM12.0699 19.9553C11.53 20.5777 11.02 21.1627 10.5925 21.7027C10.5228 21.7937 10.4331 21.8674 10.3304 21.9181C10.2276 21.9688 10.1146 21.9952 10 21.9952C9.88542 21.9952 9.77237 21.9688 9.66962 21.9181C9.56688 21.8674 9.47719 21.7937 9.40752 21.7027C8.98003 21.1627 8.47004 20.5777 7.93006 19.9553C5.53763 17.1953 2.56021 13.7604 2.50021 10.108C2.48582 8.17929 3.20949 6.31803 4.52296 4.90556C5.83644 3.49309 7.6403 2.63631 9.56501 2.51076C9.8548 2.49553 10.1452 2.49553 10.435 2.51076C12.3597 2.63631 14.1636 3.49309 15.477 4.90556C16.7905 6.31803 17.5142 8.17929 17.4998 10.108C17.4398 13.7604 14.4624 17.1953 12.0699 19.9553Z" fill="white" stroke="white" stroke-width="0.3"/>
<path d="M10.0038 4.7428C8.96544 4.7428 7.95043 5.0507 7.0871 5.62756C6.22376 6.20442 5.55088 7.02433 5.15353 7.98362C4.75618 8.9429 4.65222 9.99847 4.85478 11.0168C5.05735 12.0352 5.55735 12.9706 6.29155 13.7049C7.02576 14.4391 7.96119 14.9391 8.97956 15.1416C9.99793 15.3442 11.0535 15.2402 12.0128 14.8429C12.9721 14.4455 13.792 13.7726 14.3688 12.9093C14.9457 12.046 15.2536 11.031 15.2536 9.99265C15.2521 8.60077 14.6985 7.26634 13.7143 6.28213C12.7301 5.29792 11.3956 4.74433 10.0038 4.7428ZM10.0038 13.7425C9.2621 13.7425 8.5371 13.5226 7.92043 13.1106C7.30376 12.6985 6.82313 12.1129 6.53931 11.4277C6.25549 10.7425 6.18123 9.98849 6.32592 9.26108C6.47061 8.53367 6.82775 7.8655 7.35218 7.34107C7.87662 6.81664 8.54478 6.4595 9.27219 6.31481C9.9996 6.17012 10.7536 6.24438 11.4388 6.5282C12.124 6.81202 12.7096 7.29265 13.1217 7.90932C13.5337 8.52599 13.7537 9.25099 13.7537 9.99265C13.7533 10.9871 13.3581 11.9407 12.6549 12.6438C11.9518 13.347 10.9982 13.7422 10.0038 13.7425Z" fill="white" stroke="white" stroke-width="0.3"/>
</svg>
