<svg width="24" height="28" viewBox="0 0 24 28" fill="none" xmlns="http://www.w3.org/2000/svg">
<path d="M12.0783 23.7169L18.2981 17.5294C19.5281 16.3057 20.3657 14.7466 20.705 13.0493C21.0443 11.352 20.8701 9.59269 20.2044 7.99389C19.5386 6.39509 18.4112 5.02858 16.9648 4.06715C15.5184 3.10573 13.8179 2.59257 12.0783 2.59257C10.3387 2.59257 8.63818 3.10573 7.19175 4.06715C5.74533 5.02858 4.61796 6.39509 3.95221 7.99389C3.28646 9.59269 3.11222 11.352 3.45153 13.0493C3.79084 14.7466 4.62846 16.3057 5.85847 17.5294L12.0783 23.7169ZM12.0783 27.2519L4.08174 19.2969C2.5002 17.7236 1.42316 15.719 0.986821 13.5368C0.550481 11.3545 0.77444 9.09248 1.63038 7.03682C2.48631 4.98116 3.93578 3.22416 5.7955 1.988C7.65521 0.751839 9.84163 0.092041 12.0783 0.092041C14.3149 0.092041 16.5014 0.751839 18.3611 1.988C20.2208 3.22416 21.6703 4.98116 22.5262 7.03682C23.3821 9.09248 23.6061 11.3545 23.1698 13.5368C22.7334 15.719 21.6564 17.7236 20.0748 19.2969L12.0783 27.2519V27.2519ZM12.0783 13.8419C12.7448 13.8419 13.384 13.5786 13.8553 13.1097C14.3266 12.6409 14.5913 12.005 14.5913 11.3419C14.5913 10.6789 14.3266 10.043 13.8553 9.57418C13.384 9.10534 12.7448 8.84194 12.0783 8.84194C11.4118 8.84194 10.7726 9.10534 10.3013 9.57418C9.83 10.043 9.56523 10.6789 9.56523 11.3419C9.56523 12.005 9.83 12.6409 10.3013 13.1097C10.7726 13.5786 11.4118 13.8419 12.0783 13.8419ZM12.0783 16.3419C10.7453 16.3419 9.46687 15.8152 8.52429 14.8775C7.58171 13.9398 7.05217 12.668 7.05217 11.3419C7.05217 10.0159 7.58171 8.74409 8.52429 7.80641C9.46687 6.86873 10.7453 6.34194 12.0783 6.34194C13.4113 6.34194 14.6897 6.86873 15.6323 7.80641C16.5749 8.74409 17.1044 10.0159 17.1044 11.3419C17.1044 12.668 16.5749 13.9398 15.6323 14.8775C14.6897 15.8152 13.4113 16.3419 12.0783 16.3419Z" fill="#A6AEC1"/>
</svg>
