<svg width="42" height="40" viewBox="0 0 42 40" fill="none" xmlns="http://www.w3.org/2000/svg">
<g clip-path="url(#clip0_2321_164297)">
<path d="M36.7674 26.7119C35.6479 29.6258 33.9548 32.1593 31.7345 34.2416C29.2073 36.6116 25.898 38.4948 21.8985 39.8382C21.7673 39.8821 21.6303 39.9181 21.4927 39.9447C21.311 39.9792 21.126 39.9978 20.9427 40.0002H20.9067C20.7113 40.0002 20.5149 39.9813 20.3201 39.9447C20.1825 39.9181 20.0475 39.8821 19.9169 39.8391C15.9126 38.4978 12.5992 36.6155 10.0694 34.2455C7.8482 32.1633 6.15543 29.6313 5.03751 26.7174C3.00472 21.4196 3.12038 15.5834 3.21349 10.8935L3.21508 10.8214C3.23383 10.4342 3.2459 10.0274 3.25258 9.57814C3.28658 7.37264 5.1125 5.54799 7.40936 5.425C12.1982 5.16835 15.9028 3.66841 19.0681 0.705454L19.0958 0.68104C19.6214 0.218088 20.2836 -0.00896305 20.9427 0.000497444C21.5782 0.00843204 22.2112 0.235178 22.718 0.68104L22.7451 0.705454C25.911 3.66841 29.6156 5.16835 34.4044 5.425C36.7013 5.54799 38.5272 7.37264 38.5612 9.57814C38.5679 10.0304 38.58 10.4366 38.5987 10.8214L38.5997 10.8519C38.6925 15.5507 38.8075 21.3985 36.7674 26.7119Z" fill="#90C63E"/>
<path d="M36.7671 26.712C35.6476 29.6258 33.9545 32.1594 31.7343 34.2416C29.207 36.6116 25.8977 38.4949 21.8982 39.8383C21.767 39.8822 21.63 39.9182 21.4924 39.9448C21.3107 39.9793 21.1257 39.9979 20.9424 40.0003V0.000579834C21.5779 0.00851443 22.2109 0.23526 22.7178 0.681122L22.7448 0.705536C25.9108 3.66849 29.6153 5.16843 34.4042 5.42508C36.701 5.54807 38.527 7.37272 38.561 9.57823C38.5676 10.0305 38.5797 10.4367 38.5985 10.8215L38.5994 10.852C38.6922 15.5508 38.8072 21.3986 36.7671 26.712Z" fill="#7BAA32"/>
<path d="M31.2854 20.0003C31.2854 25.4852 26.6482 29.95 20.9416 29.9695H20.9051C15.1817 29.9695 10.5244 25.4971 10.5244 20.0003C10.5244 14.5038 15.1817 10.0314 20.9051 10.0314H20.9416C26.6482 10.051 31.2854 14.5157 31.2854 20.0003Z" fill="white"/>
<path d="M31.2862 20.0003C31.2862 25.4852 26.6489 29.95 20.9424 29.9695V10.0314C26.6489 10.051 31.2862 14.5157 31.2862 20.0003Z" fill="#E1EBF0"/>
<path d="M25.618 18.5647L20.943 23.0551L19.9328 24.0252C19.6941 24.2544 19.3811 24.3689 19.0684 24.3689C18.7554 24.3689 18.4427 24.2544 18.2038 24.0252L16.0318 21.9384C15.5545 21.4801 15.5545 20.7376 16.0318 20.2789C16.5085 19.8205 17.2826 19.8205 17.7598 20.2789L19.0684 21.5356L23.89 16.9052C24.3673 16.4465 25.1414 16.4465 25.618 16.9052C26.0953 17.3635 26.0953 18.107 25.618 18.5647Z" fill="#90C63E"/>
<path d="M25.6174 18.5647L20.9424 23.0551V19.7351L23.8894 16.9052C24.3667 16.4465 25.1408 16.4465 25.6174 16.9052C26.0947 17.3635 26.0947 18.107 25.6174 18.5647Z" fill="#7BAA32"/>
</g>
<defs>
<clipPath id="clip0_2321_164297">
<rect width="41.651" height="40" fill="white"/>
</clipPath>
</defs>
</svg>
