<svg width="17" height="18" viewBox="0 0 17 18" fill="none" xmlns="http://www.w3.org/2000/svg">
<path d="M7.05157 2.33329C5.27288 2.33329 3.83096 3.82568 3.83096 5.66663C3.83096 7.50757 5.27288 8.99996 7.05157 8.99996C8.83027 8.99996 10.2722 7.50757 10.2722 5.66663C10.2722 3.82568 8.83027 2.33329 7.05157 2.33329ZM2.22066 5.66663C2.22066 2.9052 4.38353 0.666626 7.05157 0.666626C9.71962 0.666626 11.8825 2.9052 11.8825 5.66663C11.8825 8.42805 9.71962 10.6666 7.05157 10.6666C4.38353 10.6666 2.22066 8.42805 2.22066 5.66663ZM12.5495 2.13109C12.8639 1.80566 13.3737 1.80566 13.6882 2.13109C15.5748 4.08371 15.5748 7.24954 13.6882 9.20216C13.3737 9.5276 12.8639 9.5276 12.5495 9.20216C12.2351 8.87672 12.2351 8.34909 12.5495 8.02365C13.8072 6.7219 13.8072 4.61135 12.5495 3.3096C12.2351 2.98417 12.2351 2.45653 12.5495 2.13109ZM13.1143 12.9645C13.2221 12.518 13.6593 12.2465 14.0907 12.3582C15.1598 12.6348 15.8366 13.3424 16.2258 14.1481C16.6025 14.9277 16.7134 15.7976 16.7134 16.5C16.7134 16.9602 16.3529 17.3333 15.9083 17.3333C15.4636 17.3333 15.1031 16.9602 15.1031 16.5C15.1031 15.9523 15.0128 15.3638 14.7855 14.8935C14.5709 14.4492 14.2412 14.1151 13.7001 13.9751C13.2687 13.8635 13.0064 13.411 13.1143 12.9645ZM4.23354 14C3.21948 14 2.22066 15.0112 2.22066 16.5C2.22066 16.9602 1.86018 17.3333 1.4155 17.3333C0.970831 17.3333 0.610352 16.9602 0.610352 16.5C0.610352 14.3068 2.13488 12.3333 4.23354 12.3333H9.86961C11.9683 12.3333 13.4928 14.3068 13.4928 16.5C13.4928 16.9602 13.1323 17.3333 12.6876 17.3333C12.243 17.3333 11.8825 16.9602 11.8825 16.5C11.8825 15.0112 10.8837 14 9.86961 14H4.23354Z" fill="#A6AEC1"/>
</svg>
