<svg width="17" height="18" viewBox="0 0 17 18" fill="none" xmlns="http://www.w3.org/2000/svg">
<path d="M8.66188 2.33329C5.10449 2.33329 2.22066 5.31806 2.22066 8.99996C2.22066 12.6819 5.10449 15.6666 8.66188 15.6666C12.2193 15.6666 15.1031 12.6819 15.1031 8.99996C15.1031 5.31806 12.2193 2.33329 8.66188 2.33329ZM0.610352 8.99996C0.610352 4.39759 4.21514 0.666626 8.66188 0.666626C13.1086 0.666626 16.7134 4.39759 16.7134 8.99996C16.7134 13.6023 13.1086 17.3333 8.66188 17.3333C4.21514 17.3333 0.610352 13.6023 0.610352 8.99996ZM8.66188 3.99996C9.10656 3.99996 9.46703 4.37306 9.46703 4.83329V8.65478L11.6467 10.9107C11.9611 11.2361 11.9611 11.7638 11.6467 12.0892C11.3322 12.4147 10.8224 12.4147 10.508 12.0892L8.09255 9.58922C7.94156 9.43294 7.85673 9.22097 7.85673 8.99996V4.83329C7.85673 4.37306 8.21721 3.99996 8.66188 3.99996Z" fill="#A6AEC1"/>
</svg>
