<svg width="24" height="24" viewBox="0 0 24 24" fill="none" xmlns="http://www.w3.org/2000/svg">
<g clip-path="url(#clip0)">
<path d="M12 0.00878906C5.3725 0.00878906 0 5.38129 0 12.0088C0 18.6363 5.3725 24.0093 12 24.0093C18.6275 24.0093 24 18.6363 24 12.0088C24 5.38129 18.6275 0.00878906 12 0.00878906ZM12 22.0718C6.477 22.0718 2 17.5943 2 12.0713C2 6.54829 6.477 2.07129 12 2.07129C17.523 2.07129 22 6.54829 22 12.0713C22 17.5943 17.523 22.0718 12 22.0718Z" fill="#90C63E"/>
<path d="M11.3897 15.9727C10.5282 15.9727 10.0977 16.4152 10.0977 17.2997C10.0977 17.7272 10.2092 18.0597 10.4317 18.2967C10.6542 18.5337 10.9737 18.6532 11.3897 18.6532C11.8062 18.6532 12.1262 18.5312 12.3517 18.2882C12.5772 18.0452 12.6907 17.7157 12.6907 17.2997C12.6907 16.8777 12.5792 16.5507 12.3567 16.3192C12.1342 16.0877 11.8117 15.9727 11.3897 15.9727Z" fill="#90C63E"/>
<path d="M14.6696 6.20728C13.9956 5.64478 13.0846 5.36328 11.9366 5.36328C10.7951 5.36328 9.71513 5.59978 8.69363 6.06628C8.12063 6.32428 8.37763 6.90928 8.37863 6.91228L8.60763 7.39178C8.60763 7.39178 8.87813 7.85028 9.46113 7.62478C9.46713 7.62278 9.46913 7.62378 9.47463 7.62128C9.72663 7.51578 9.98163 7.41778 10.2406 7.33128C10.7151 7.17328 11.2306 7.09378 11.7876 7.09378C12.4026 7.09378 12.8741 7.22578 13.2026 7.48928C13.5311 7.75278 13.6946 8.13078 13.6946 8.62328C13.6946 9.04528 13.5931 9.40828 13.3911 9.71328C13.1891 10.0183 12.7396 10.4458 12.0426 10.9963C11.4571 11.4533 11.0466 11.8958 10.8121 12.3233C10.5776 12.7513 10.4606 13.2878 10.4606 13.9323C10.4381 14.4013 11.0356 14.4948 11.0356 14.4948H11.3966C11.3966 14.4948 12.0836 14.4988 12.1886 13.9068C12.1901 13.8988 12.1926 13.8963 12.1941 13.8883C12.2181 13.5133 12.3041 13.2028 12.4596 12.9653C12.6441 12.6838 13.0096 12.3293 13.5541 11.9013C14.1926 11.4033 14.6421 10.9988 14.9026 10.6883C15.1631 10.3778 15.3586 10.0513 15.4876 9.70828C15.6166 9.36528 15.6811 8.97428 15.6811 8.53478C15.6801 7.54628 15.3436 6.76978 14.6696 6.20728Z" fill="#90C63E"/>
</g>
<defs>
<clipPath id="clip0">
<rect width="24" height="24" fill="white"/>
</clipPath>
</defs>
</svg>
