<svg width="18" height="18" viewBox="0 0 18 18" fill="none" xmlns="http://www.w3.org/2000/svg">
<path d="M8.99015 7.91976C9.89296 7.91976 10.6248 7.18788 10.6248 6.28507C10.6248 5.38226 9.89296 4.65039 8.99015 4.65039C8.08734 4.65039 7.35547 5.38226 7.35547 6.28507C7.35547 7.18788 8.08734 7.91976 8.99015 7.91976Z" fill="#90C63E"/>
<path d="M14.6544 8.94739C15.1065 7.99225 15.3096 6.9383 15.2451 5.88356C15.1805 4.82881 14.8502 3.80753 14.285 2.91468C13.7198 2.02183 12.9379 1.28641 12.0122 0.776818C11.0865 0.267223 10.0469 0 8.99021 0C7.93349 0 6.89394 0.267223 5.96821 0.776818C5.04248 1.28641 4.26066 2.02183 3.69544 2.91468C3.13021 3.80753 2.79996 4.82881 2.73537 5.88356C2.67079 6.9383 2.87397 7.99225 3.32604 8.94739L0.198887 12.5617C0.102183 12.6736 0.0376611 12.8097 0.0122004 12.9554C-0.0132603 13.1011 0.00129433 13.2509 0.0543126 13.389C0.107331 13.5271 0.196825 13.6482 0.313256 13.7394C0.429687 13.8307 0.56869 13.8886 0.715447 13.907L3.71672 14.283L4.0927 17.2843C4.11295 17.4458 4.18098 17.5977 4.28809 17.7203C4.3952 17.843 4.5365 17.9308 4.69387 17.9726C4.85124 18.0144 5.01751 18.0083 5.17136 17.9549C5.32521 17.9016 5.45963 17.8036 5.55738 17.6733L8.99021 13.0962L12.423 17.6733C12.5208 17.8036 12.6552 17.9016 12.8091 17.9549C12.9629 18.0083 13.1292 18.0144 13.2866 17.9726C13.4439 17.9308 13.5852 17.843 13.6923 17.7203C13.7994 17.5977 13.8675 17.4458 13.8877 17.2843L14.2637 14.283L17.265 13.907C17.4117 13.8886 17.5507 13.8307 17.6672 13.7394C17.7836 13.6482 17.8731 13.5271 17.9261 13.389C17.9791 13.2509 17.9937 13.1011 17.9682 12.9554C17.9428 12.8097 17.8782 12.6736 17.7815 12.5617L14.6544 8.94739ZM5.46338 15.0742L5.26068 13.4493C5.23824 13.2687 5.15619 13.1008 5.02753 12.9722C4.89888 12.8435 4.73097 12.7615 4.55041 12.739L2.43513 12.475L4.24963 10.3753C4.25454 10.3818 4.26107 10.3859 4.26598 10.3916C4.68327 10.8706 5.17044 11.284 5.71104 11.6176L5.72984 11.6283C6.26071 11.9533 6.83737 12.1969 7.44053 12.3508C7.4577 12.3557 7.47404 12.3639 7.49121 12.368L5.46338 15.0742ZM10.0634 10.7864C9.95141 10.8126 9.83861 10.8346 9.72419 10.8526C9.66207 10.8624 9.60077 10.8739 9.53701 10.8812C9.17399 10.9281 8.80644 10.9281 8.44341 10.8812C8.37966 10.8739 8.31836 10.8624 8.25624 10.8526C8.14181 10.8346 8.02902 10.8126 7.91704 10.7864C7.84267 10.7684 7.7691 10.7504 7.69636 10.7292C7.59828 10.7006 7.50265 10.6671 7.40702 10.6319C7.31139 10.5968 7.21495 10.5608 7.12177 10.52C7.00162 10.4668 6.88311 10.4104 6.76868 10.3475C6.68694 10.305 6.61747 10.2568 6.54309 10.2102C6.46871 10.1636 6.39188 10.1146 6.31914 10.0622C6.2464 10.0099 6.18755 9.96661 6.1238 9.91594C6.02653 9.8342 5.93172 9.75737 5.841 9.67074C5.80748 9.63968 5.77234 9.61107 5.74046 9.57919C5.60771 9.44729 5.48298 9.30754 5.36694 9.16071C5.35713 9.14927 5.34896 9.13619 5.33915 9.12393C5.22489 8.97595 5.11928 8.82149 5.02284 8.66132C4.59944 7.95862 4.37028 7.15607 4.35879 6.33575C4.3473 5.51543 4.5539 4.70678 4.95744 3.9925C5.36099 3.27821 5.94701 2.68393 6.65557 2.27041C7.36414 1.8569 8.16982 1.63901 8.99021 1.63901C9.81061 1.63901 10.6163 1.8569 11.3249 2.27041C12.0334 2.68393 12.6194 3.27821 13.023 3.9925C13.4265 4.70678 13.6331 5.51543 13.6216 6.33575C13.6101 7.15607 13.381 7.95862 12.9576 8.66132C12.8611 8.82149 12.7555 8.97595 12.6413 9.12393C12.6315 9.13619 12.6233 9.14927 12.6135 9.16071C12.4975 9.30754 12.3727 9.44729 12.24 9.57919C12.2081 9.61107 12.1721 9.64049 12.1386 9.67155C12.0479 9.75329 11.9539 9.83502 11.8566 9.91675C11.7929 9.96743 11.7275 10.0157 11.6613 10.0631C11.5951 10.1105 11.5133 10.1636 11.4373 10.211C11.3613 10.2584 11.2894 10.3058 11.2117 10.3483C11.0973 10.4112 10.9788 10.4676 10.8587 10.5208C10.7655 10.5616 10.6699 10.5976 10.5734 10.6327C10.477 10.6679 10.3821 10.7014 10.2841 10.73C10.2113 10.7504 10.1345 10.7684 10.0634 10.7864V10.7864ZM13.43 12.739C13.2495 12.7615 13.0815 12.8435 12.9529 12.9722C12.8242 13.1008 12.7422 13.2687 12.7197 13.4493L12.517 15.0742L10.4868 12.3671C10.5039 12.3671 10.5203 12.3549 10.5374 12.35C11.1406 12.1961 11.7173 11.9525 12.2481 11.6275L12.2669 11.6168C12.8075 11.2831 13.2947 10.8698 13.712 10.3908C13.7169 10.3851 13.7234 10.381 13.7283 10.3745L15.5453 12.475L13.43 12.739Z" fill="#90C63E"/>
</svg>
