<svg width="18" height="13" viewBox="0 0 18 13" fill="none" xmlns="http://www.w3.org/2000/svg">
<path d="M8.35547 6.54199H16.9992" stroke="#90C63E" stroke-width="2" stroke-linecap="round" stroke-linejoin="round"/>
<path d="M8.35547 11.7168H16.9992" stroke="#90C63E" stroke-width="1.5" stroke-linecap="round" stroke-linejoin="round"/>
<path d="M8.35547 1.36719H16.9992" stroke="#90C63E" stroke-width="2" stroke-linecap="round" stroke-linejoin="round"/>
<path d="M6.68527 11.1785C6.90841 11.1785 7.0893 11.4195 7.0893 11.7167C7.0893 12.0139 6.90841 12.2549 6.68527 12.2549C6.46214 12.2549 6.28125 12.0139 6.28125 11.7167C6.28125 11.4195 6.46214 11.1785 6.68527 11.1785Z" fill="#90C63E"/>
<path d="M6.68527 6.00275C6.90841 6.00275 7.0893 6.2437 7.0893 6.54092C7.0893 6.83815 6.90841 7.0791 6.68527 7.0791C6.46214 7.0791 6.28125 6.83815 6.28125 6.54092C6.28125 6.2437 6.46214 6.00275 6.68527 6.00275Z" fill="#90C63E"/>
<path d="M6.68527 0.829895C6.90841 0.829895 7.0893 1.07085 7.0893 1.36807C7.0893 1.6653 6.90841 1.90625 6.68527 1.90625C6.46214 1.90625 6.28125 1.6653 6.28125 1.36807C6.28125 1.07085 6.46214 0.829895 6.68527 0.829895Z" fill="#90C63E"/>
<path d="M1.65625 6.54199H5.01187" stroke="#90C63E" stroke-width="2" stroke-linecap="round" stroke-linejoin="round"/>
<path d="M1.65625 11.7168H5.01187" stroke="#90C63E" stroke-width="2" stroke-linecap="round" stroke-linejoin="round"/>
<path d="M1.65625 1.36719H5.01187" stroke="#90C63E" stroke-width="2" stroke-linecap="round" stroke-linejoin="round"/>
</svg>
