<svg width="22" height="22" viewBox="0 0 22 22" fill="none" xmlns="http://www.w3.org/2000/svg">
<path d="M4.85102 21.0498H17.1493C18.1818 21.0498 19.1721 20.6396 19.9022 19.9095C20.6323 19.1794 21.0425 18.1891 21.0425 17.1566V9.47016C21.0425 8.43762 20.6323 7.44736 19.9022 6.71725C19.1721 5.98713 18.1818 5.57695 17.1493 5.57695H1.77645C1.55934 5.57695 1.35111 5.6632 1.19759 5.81673C1.04406 5.97025 0.957812 6.17848 0.957812 6.39559V17.1566C0.957812 18.1891 1.36799 19.1794 2.09811 19.9095C2.82822 20.6396 3.81848 21.0498 4.85102 21.0498ZM2.5951 17.1566V7.21424H17.1493C17.7476 7.21424 18.3214 7.45191 18.7445 7.87498C19.1675 8.29805 19.4052 8.87185 19.4052 9.47016V17.1566C19.4052 17.7549 19.1675 18.3287 18.7445 18.7518C18.3214 19.1748 17.7476 19.4125 17.1493 19.4125H4.85102C4.25271 19.4125 3.67891 19.1748 3.25584 18.7518C2.83277 18.3287 2.5951 17.7549 2.5951 17.1566Z" fill="#90C63E" stroke="#90C63E" stroke-width="0.1"/>
<path d="M0.957898 6.29453C0.957954 6.51157 1.0442 6.71971 1.19767 6.87319C1.3512 7.02671 1.55942 7.11296 1.77654 7.11296C1.99366 7.11296 2.20188 7.02671 2.35541 6.87319C2.50893 6.71966 2.59518 6.51144 2.5952 6.29432L2.59517 6.2931C2.59111 6.12698 2.64474 5.96458 2.74694 5.83355C2.84914 5.70253 2.99359 5.61097 3.15571 5.57446L3.1558 5.57444L16.0459 2.64591L16.0459 2.64595L16.0479 2.64542C16.2592 2.58824 16.4807 2.57993 16.6956 2.62112C16.9099 2.66218 17.1121 2.75135 17.2868 2.8819C17.4822 3.05565 17.6359 3.27117 17.7365 3.51247C17.8374 3.7544 17.8824 4.016 17.8681 4.27775L17.868 4.27774V4.28048V6.39424C17.868 6.61136 17.9543 6.81959 18.1078 6.97311C18.2613 7.12664 18.4695 7.21288 18.6866 7.21288C18.9038 7.21288 19.112 7.12664 19.2655 6.97311C19.419 6.81959 19.5053 6.61136 19.5053 6.39424V4.28119C19.5193 3.77446 19.4194 3.27105 19.2129 2.80809C19.0063 2.34492 18.6983 1.93409 18.3116 1.60592L18.3116 1.60589L18.3101 1.60467C17.9438 1.31793 17.5167 1.11885 17.0616 1.02268C16.6067 0.926551 16.1358 0.935787 15.685 1.04968L2.78776 3.97807L2.78767 3.97809C2.26436 4.09797 1.79769 4.39299 1.46493 4.81429C1.13222 5.23553 0.953339 5.75777 0.957898 6.29453ZM0.957898 6.29453C0.957898 6.29461 0.957899 6.29468 0.957899 6.29475L1.0079 6.29432H0.957897C0.957897 6.29439 0.957898 6.29446 0.957898 6.29453Z" fill="#90C63E" stroke="#90C63E" stroke-width="0.1"/>
<path d="M14.8441 16.4384H20.2246C20.4417 16.4384 20.6499 16.3521 20.8035 16.1986C20.957 16.0451 21.0432 15.8369 21.0432 15.6197V11.0079C21.0432 10.7908 20.957 10.5826 20.8035 10.429C20.6499 10.2755 20.4417 10.1893 20.2246 10.1893H14.8441C14.0154 10.1893 13.2207 10.5185 12.6347 11.1044C12.0487 11.6904 11.7195 12.4851 11.7195 13.3138C11.7195 14.1425 12.0487 14.9373 12.6347 15.5232C13.2207 16.1092 14.0154 16.4384 14.8441 16.4384ZM13.7924 12.2622C14.0713 11.9832 14.4496 11.8265 14.8441 11.8265H19.4059V14.8011H14.8441C14.4496 14.8011 14.0713 14.6444 13.7924 14.3655C13.5135 14.0866 13.3568 13.7083 13.3568 13.3138C13.3568 12.9194 13.5135 12.5411 13.7924 12.2622Z" fill="#90C63E" stroke="#90C63E" stroke-width="0.1"/>
</svg>
