<svg width="367" height="183" viewBox="0 0 367 183" fill="none" xmlns="http://www.w3.org/2000/svg">
<mask id="mask0" style="mask-type:alpha" maskUnits="userSpaceOnUse" x="0" y="0" width="367" height="183">
<rect x="0.851562" y="0.861816" width="365.437" height="181.856" rx="10" fill="#90C63E"/>
</mask>
<g mask="url(#mask0)">
<rect x="0.851562" y="0.861816" width="365.437" height="181.856" rx="10" fill="#3B276D"/>
<path d="M315.799 228.45C315.63 228.45 315.46 228.362 315.369 228.206C311.244 221.226 311.034 211.837 314.819 203.71C316.115 200.925 317.828 198.33 319.483 195.82C320.687 193.996 321.935 192.106 323.004 190.17C325.11 186.347 327.264 180.686 325.544 175.432C324.842 173.281 323.512 171.297 322.23 169.377C320.463 166.735 318.635 164.005 318.367 160.762C318.343 160.487 318.55 160.247 318.825 160.223C319.1 160.206 319.341 160.406 319.364 160.681C319.612 163.666 321.287 166.169 323.061 168.821C324.384 170.799 325.748 172.841 326.494 175.123C328.322 180.72 326.08 186.659 323.879 190.655C322.793 192.625 321.535 194.532 320.317 196.373C318.682 198.853 316.99 201.417 315.725 204.134C312.075 211.969 312.268 220.998 316.227 227.701C316.366 227.938 316.288 228.247 316.05 228.386C315.972 228.426 315.888 228.45 315.799 228.45Z" fill="#FEEFE9"/>
<path d="M291.057 133.738C291.764 144.531 298.947 153.512 308.643 157.2C311.635 158.337 314.862 158.971 318.215 158.998C318.718 159.004 319.222 158.992 319.732 158.968C320.482 158.936 321.217 158.87 321.946 158.777C335.715 157.032 345.851 145.144 344.944 131.26C344.227 120.261 336.779 111.145 326.801 107.595C323.516 106.425 319.953 105.859 316.269 106.03C301.389 106.715 290.1 119.121 291.057 133.738Z" fill="white"/>
<path d="M315.879 164.368C316.839 165.131 322.659 165.321 323.399 163.954C324.142 162.587 322.449 162.197 321.896 161.413C321.638 161.044 321.489 159.914 321.404 158.812C321.303 157.554 321.289 156.332 321.289 156.332L317.599 156.071C317.599 156.071 317.836 157.598 317.86 159.06C317.88 160.25 317.761 161.393 317.259 161.641C315.94 162.285 314.919 163.605 315.879 164.368Z" fill="white"/>
<g opacity="0.4">
<path opacity="0.4" d="M313.081 110.067C311.867 108.481 308.989 108.522 306.652 110.159C304.315 111.796 303.404 114.409 304.618 115.995C305.831 117.581 308.709 117.539 311.046 115.902C313.383 114.265 314.294 111.653 313.081 110.067Z" fill="#3B276D"/>
</g>
<path d="M120.524 170.672C121.478 175.674 123.688 187.695 123.499 190.661C123.499 190.661 135.189 191.624 140.788 191.252C141.587 191.198 142.262 191.118 142.761 191.003C142.761 191.003 146.194 172.802 148.054 168.373C148.054 168.373 127.423 167.133 120.097 168.47C120.099 168.47 120.264 169.311 120.524 170.672Z" fill="#F9C815"/>
<path d="M120.097 168.47C120.097 168.47 120.263 169.311 120.524 170.672C123.108 170.511 136.989 169.774 142.782 172.069C142.782 172.069 140.898 184.578 140.79 191.25C141.589 191.196 142.263 191.116 142.763 191.002C142.763 191.002 146.195 172.801 148.055 168.371C148.052 168.373 127.423 167.133 120.097 168.47Z" fill="#F8A000"/>
<path d="M122.439 173.382C122.898 173.382 123.271 173.01 123.271 172.55C123.271 172.09 122.898 171.718 122.439 171.718C121.979 171.718 121.606 172.09 121.606 172.55C121.606 173.01 121.979 173.382 122.439 173.382Z" fill="#F55A70"/>
<path d="M126.955 173.345C127.415 173.345 127.787 172.972 127.787 172.512C127.787 172.053 127.415 171.68 126.955 171.68C126.495 171.68 126.123 172.053 126.123 172.512C126.123 172.972 126.495 173.345 126.955 173.345Z" fill="#F55A70"/>
<path d="M131.484 173.307C131.944 173.307 132.316 172.934 132.316 172.475C132.316 172.015 131.944 171.643 131.484 171.643C131.025 171.643 130.652 172.015 130.652 172.475C130.652 172.934 131.025 173.307 131.484 173.307Z" fill="#F55A70"/>
<path d="M136.009 173.269C136.468 173.269 136.841 172.896 136.841 172.436C136.841 171.977 136.468 171.604 136.009 171.604C135.549 171.604 135.177 171.977 135.177 172.436C135.177 172.896 135.549 173.269 136.009 173.269Z" fill="#F55A70"/>
<path d="M140.534 173.23C140.993 173.23 141.366 172.858 141.366 172.398C141.366 171.939 140.993 171.566 140.534 171.566C140.074 171.566 139.702 171.939 139.702 172.398C139.702 172.858 140.074 173.23 140.534 173.23Z" fill="#F55A70"/>
<path d="M145.05 173.192C145.509 173.192 145.882 172.819 145.882 172.36C145.882 171.9 145.509 171.528 145.05 171.528C144.59 171.528 144.218 171.9 144.218 172.36C144.218 172.819 144.59 173.192 145.05 173.192Z" fill="#F55A70"/>
<path d="M124.727 176.454C125.186 176.454 125.559 176.081 125.559 175.621C125.559 175.162 125.186 174.789 124.727 174.789C124.267 174.789 123.895 175.162 123.895 175.621C123.895 176.081 124.267 176.454 124.727 176.454Z" fill="#F55A70"/>
<path d="M129.256 176.415C129.716 176.415 130.088 176.043 130.088 175.583C130.088 175.124 129.716 174.751 129.256 174.751C128.796 174.751 128.424 175.124 128.424 175.583C128.424 176.043 128.796 176.415 129.256 176.415Z" fill="#F55A70"/>
<path d="M133.772 176.377C134.232 176.377 134.605 176.005 134.605 175.545C134.605 175.085 134.232 174.713 133.772 174.713C133.313 174.713 132.94 175.085 132.94 175.545C132.94 176.005 133.313 176.377 133.772 176.377Z" fill="#F55A70"/>
<path d="M138.297 176.338C138.756 176.338 139.129 175.966 139.129 175.506C139.129 175.046 138.756 174.674 138.297 174.674C137.837 174.674 137.465 175.046 137.465 175.506C137.465 175.966 137.837 176.338 138.297 176.338Z" fill="#F55A70"/>
<path d="M142.826 176.301C143.286 176.301 143.658 175.928 143.658 175.468C143.658 175.009 143.286 174.636 142.826 174.636C142.366 174.636 141.994 175.009 141.994 175.468C141.994 175.928 142.366 176.301 142.826 176.301Z" fill="#F55A70"/>
<path d="M123.112 179.756C123.572 179.756 123.945 179.383 123.945 178.924C123.945 178.464 123.572 178.092 123.112 178.092C122.653 178.092 122.28 178.464 122.28 178.924C122.28 179.383 122.653 179.756 123.112 179.756Z" fill="#F55A70"/>
<path d="M127.637 179.718C128.096 179.718 128.469 179.345 128.469 178.886C128.469 178.426 128.096 178.053 127.637 178.053C127.177 178.053 126.805 178.426 126.805 178.886C126.805 179.345 127.177 179.718 127.637 179.718Z" fill="#F55A70"/>
<path d="M132.158 179.68C132.617 179.68 132.99 179.307 132.99 178.848C132.99 178.388 132.617 178.015 132.158 178.015C131.698 178.015 131.325 178.388 131.325 178.848C131.325 179.307 131.698 179.68 132.158 179.68Z" fill="#F55A70"/>
<path d="M136.683 179.642C137.142 179.642 137.515 179.269 137.515 178.81C137.515 178.35 137.142 177.977 136.683 177.977C136.223 177.977 135.85 178.35 135.85 178.81C135.85 179.269 136.223 179.642 136.683 179.642Z" fill="#F55A70"/>
<path d="M141.212 179.603C141.671 179.603 142.044 179.231 142.044 178.771C142.044 178.312 141.671 177.939 141.212 177.939C140.752 177.939 140.38 178.312 140.38 178.771C140.38 179.231 140.752 179.603 141.212 179.603Z" fill="#F55A70"/>
<path d="M125.409 182.824C125.868 182.824 126.241 182.452 126.241 181.992C126.241 181.533 125.868 181.16 125.409 181.16C124.949 181.16 124.576 181.533 124.576 181.992C124.576 182.452 124.949 182.824 125.409 182.824Z" fill="#F55A70"/>
<path d="M129.934 182.787C130.393 182.787 130.766 182.414 130.766 181.955C130.766 181.495 130.393 181.122 129.934 181.122C129.474 181.122 129.102 181.495 129.102 181.955C129.102 182.414 129.474 182.787 129.934 182.787Z" fill="#F55A70"/>
<path d="M134.463 182.75C134.922 182.75 135.295 182.377 135.295 181.918C135.295 181.458 134.922 181.085 134.463 181.085C134.003 181.085 133.631 181.458 133.631 181.918C133.631 182.377 134.003 182.75 134.463 182.75Z" fill="#F55A70"/>
<path d="M138.988 182.712C139.447 182.712 139.82 182.339 139.82 181.88C139.82 181.42 139.447 181.047 138.988 181.047C138.528 181.047 138.156 181.42 138.156 181.88C138.156 182.339 138.528 182.712 138.988 182.712Z" fill="#F55A70"/>
<path d="M143.509 182.674C143.969 182.674 144.342 182.301 144.342 181.842C144.342 181.382 143.969 181.01 143.509 181.01C143.05 181.01 142.677 181.382 142.677 181.842C142.677 182.301 143.05 182.674 143.509 182.674Z" fill="#F55A70"/>
<path d="M133.507 163.327C133.509 163.327 135.179 163.682 135.179 163.682C134.944 158.719 143.062 151.654 143.795 154.181C143.798 154.189 143.8 154.197 143.802 154.203C143.805 154.213 143.805 154.218 143.805 154.218C144.472 156.845 135.179 163.683 135.179 163.683L136.387 163.679C136.408 163.679 136.447 163.648 136.465 163.639C138.015 162.837 139.517 161.93 140.96 160.951C143.067 159.523 145.665 157.782 146.667 155.325C147.286 153.809 146.825 152.232 145.49 151.292C144.191 150.377 142.457 149.901 140.919 150.416C139.735 150.813 138.755 151.661 137.967 152.622C137.825 152.795 137.69 152.972 137.56 153.15C136.14 155.109 135.213 157.417 134.476 159.707C134.412 159.906 133.44 163.313 133.507 163.327Z" fill="#F55A70"/>
<path d="M133.506 163.326C133.508 163.326 135.179 163.681 135.179 163.681C134.943 158.719 143.061 151.654 143.795 154.181C143.713 153.88 143.018 151.783 139.709 152.128C139.074 152.195 138.496 152.37 137.968 152.621C137.826 152.795 137.691 152.971 137.56 153.149C136.141 155.108 135.214 157.417 134.477 159.707C134.412 159.906 133.439 163.312 133.506 163.326Z" fill="#D83D5D"/>
<path d="M134.604 163.322C134.602 163.322 132.935 163.688 132.935 163.688C133.135 158.724 124.968 151.715 124.253 154.246C124.25 154.254 124.249 154.262 124.247 154.269C124.244 154.278 124.244 154.283 124.244 154.283C123.596 156.915 132.935 163.688 132.935 163.688L131.727 163.693C131.706 163.693 131.667 163.663 131.649 163.655C130.093 162.864 128.585 161.968 127.135 160.999C125.017 159.585 122.408 157.863 121.388 155.413C120.758 153.901 121.208 152.321 122.537 151.371C123.829 150.447 125.558 149.96 127.102 150.464C128.289 150.853 129.275 151.693 130.069 152.649C130.212 152.821 130.348 152.997 130.48 153.176C131.912 155.125 132.857 157.427 133.609 159.71C133.673 159.909 134.671 163.308 134.604 163.322Z" fill="#F55A70"/>
<path d="M134.603 163.322C134.602 163.322 132.934 163.688 132.934 163.688C133.135 158.724 124.967 151.715 124.253 154.246C124.332 153.944 125.013 151.844 128.325 152.167C128.96 152.229 129.539 152.399 130.069 152.649C130.212 152.821 130.347 152.997 130.479 153.176C131.911 155.125 132.856 157.427 133.609 159.71C133.673 159.909 134.67 163.308 134.603 163.322Z" fill="#D83D5D"/>
<path d="M148.651 169.749C148.651 169.749 127.848 168.201 119.673 169.849L118.375 163.973C118.375 163.973 135.156 161.359 149.06 164.549L148.651 169.749Z" fill="#F9C815"/>
<path d="M145.222 179.016C145.222 179.016 138.569 177.137 121.679 176.927L122.593 182.358L144.159 183.99L145.222 179.016Z" fill="#D83D5D"/>
<path d="M130.147 191.289C131.854 192.048 135.687 191.344 135.687 191.344L137.038 170.839L137.146 169.176L137.549 163.066C133.712 162.669 130.56 163.09 130.56 163.09L130.471 169.091L130.451 170.449L130.147 191.289Z" fill="#F55A70"/>
<path d="M130.447 170.451C131.009 170.46 137.033 170.84 137.033 170.84L137.141 169.178C135.378 169.12 130.842 169.093 130.468 169.092L130.447 170.451Z" fill="#D83D5D"/>
<path d="M189.758 163.312C191.683 169.647 196.202 184.883 196.366 188.743C196.366 188.743 211.611 188.372 218.799 187.117C219.824 186.937 220.687 186.741 221.315 186.525C221.315 186.525 223.237 162.521 225.029 156.536C225.029 156.536 198.188 157.784 188.902 160.524C188.902 160.522 189.233 161.588 189.758 163.312Z" fill="#62E188"/>
<path d="M188.902 160.522C188.902 160.522 189.233 161.588 189.756 163.312C193.074 162.747 210.919 159.876 218.725 162.043C218.725 162.043 218.017 178.475 218.798 187.117C219.823 186.937 220.685 186.741 221.313 186.525C221.313 186.525 223.236 162.521 225.027 156.536C225.03 156.535 198.188 157.782 188.902 160.522Z" fill="#5ACC78"/>
<path d="M192.477 166.558C193.075 166.558 193.559 166.074 193.559 165.476C193.559 164.879 193.075 164.394 192.477 164.394C191.88 164.394 191.395 164.879 191.395 165.476C191.395 166.074 191.88 166.558 192.477 166.558Z" fill="white"/>
<path d="M198.323 165.884C198.921 165.884 199.405 165.399 199.405 164.802C199.405 164.204 198.921 163.72 198.323 163.72C197.726 163.72 197.241 164.204 197.241 164.802C197.241 165.399 197.726 165.884 198.323 165.884Z" fill="white"/>
<path d="M204.168 165.208C204.765 165.208 205.25 164.724 205.25 164.126C205.25 163.529 204.765 163.044 204.168 163.044C203.57 163.044 203.086 163.529 203.086 164.126C203.086 164.724 203.57 165.208 204.168 165.208Z" fill="white"/>
<path d="M210.014 164.534C210.612 164.534 211.096 164.05 211.096 163.452C211.096 162.855 210.612 162.37 210.014 162.37C209.417 162.37 208.932 162.855 208.932 163.452C208.932 164.05 209.417 164.534 210.014 164.534Z" fill="white"/>
<path d="M215.856 163.859C216.453 163.859 216.938 163.375 216.938 162.777C216.938 162.18 216.453 161.695 215.856 161.695C215.258 161.695 214.774 162.18 214.774 162.777C214.774 163.375 215.258 163.859 215.856 163.859Z" fill="white"/>
<path d="M221.696 163.185C222.294 163.185 222.778 162.701 222.778 162.103C222.778 161.505 222.294 161.021 221.696 161.021C221.099 161.021 220.615 161.505 220.615 162.103C220.615 162.701 221.099 163.185 221.696 163.185Z" fill="white"/>
<path d="M195.879 170.207C196.477 170.207 196.961 169.723 196.961 169.125C196.961 168.527 196.477 168.043 195.879 168.043C195.282 168.043 194.797 168.527 194.797 169.125C194.797 169.723 195.282 170.207 195.879 170.207Z" fill="white"/>
<path d="M201.72 169.532C202.317 169.532 202.802 169.048 202.802 168.45C202.802 167.853 202.317 167.368 201.72 167.368C201.122 167.368 200.638 167.853 200.638 168.45C200.638 169.048 201.122 169.532 201.72 169.532Z" fill="white"/>
<path d="M207.561 168.858C208.159 168.858 208.643 168.373 208.643 167.776C208.643 167.178 208.159 166.694 207.561 166.694C206.964 166.694 206.479 167.178 206.479 167.776C206.479 168.373 206.964 168.858 207.561 168.858Z" fill="white"/>
<path d="M213.408 168.184C214.005 168.184 214.49 167.7 214.49 167.102C214.49 166.505 214.005 166.02 213.408 166.02C212.81 166.02 212.326 166.505 212.326 167.102C212.326 167.7 212.81 168.184 213.408 168.184Z" fill="white"/>
<path d="M219.252 167.51C219.85 167.51 220.334 167.025 220.334 166.428C220.334 165.83 219.85 165.346 219.252 165.346C218.655 165.346 218.17 165.83 218.17 166.428C218.17 167.025 218.655 167.51 219.252 167.51Z" fill="white"/>
<path d="M194.243 174.702C194.84 174.702 195.325 174.218 195.325 173.62C195.325 173.023 194.84 172.538 194.243 172.538C193.645 172.538 193.161 173.023 193.161 173.62C193.161 174.218 193.645 174.702 194.243 174.702Z" fill="white"/>
<path d="M200.083 174.028C200.681 174.028 201.165 173.544 201.165 172.946C201.165 172.349 200.681 171.864 200.083 171.864C199.485 171.864 199.001 172.349 199.001 172.946C199.001 173.544 199.485 174.028 200.083 174.028Z" fill="white"/>
<path d="M205.928 173.354C206.525 173.354 207.01 172.87 207.01 172.272C207.01 171.675 206.525 171.19 205.928 171.19C205.33 171.19 204.846 171.675 204.846 172.272C204.846 172.87 205.33 173.354 205.928 173.354Z" fill="white"/>
<path d="M211.774 172.68C212.371 172.68 212.856 172.196 212.856 171.598C212.856 171.001 212.371 170.516 211.774 170.516C211.176 170.516 210.692 171.001 210.692 171.598C210.692 172.196 211.176 172.68 211.774 172.68Z" fill="white"/>
<path d="M217.615 172.005C218.213 172.005 218.697 171.52 218.697 170.923C218.697 170.325 218.213 169.841 217.615 169.841C217.018 169.841 216.533 170.325 216.533 170.923C216.533 171.52 217.018 172.005 217.615 172.005Z" fill="white"/>
<path d="M197.643 178.355C198.24 178.355 198.725 177.87 198.725 177.273C198.725 176.675 198.24 176.191 197.643 176.191C197.045 176.191 196.561 176.675 196.561 177.273C196.561 177.87 197.045 178.355 197.643 178.355Z" fill="white"/>
<path d="M203.485 177.68C204.082 177.68 204.567 177.196 204.567 176.598C204.567 176 204.082 175.516 203.485 175.516C202.887 175.516 202.403 176 202.403 176.598C202.403 177.196 202.887 177.68 203.485 177.68Z" fill="white"/>
<path d="M209.326 177.005C209.924 177.005 210.408 176.521 210.408 175.923C210.408 175.325 209.924 174.841 209.326 174.841C208.729 174.841 208.244 175.325 208.244 175.923C208.244 176.521 208.729 177.005 209.326 177.005Z" fill="white"/>
<path d="M215.175 176.33C215.773 176.33 216.257 175.846 216.257 175.248C216.257 174.651 215.773 174.166 215.175 174.166C214.578 174.166 214.093 174.651 214.093 175.248C214.093 175.846 214.578 176.33 215.175 176.33Z" fill="white"/>
<path d="M221.011 175.656C221.609 175.656 222.093 175.171 222.093 174.574C222.093 173.976 221.609 173.492 221.011 173.492C220.414 173.492 219.929 173.976 219.929 174.574C219.929 175.171 220.414 175.656 221.011 175.656Z" fill="white"/>
<path d="M201.486 183.108C202.083 183.108 202.568 182.623 202.568 182.026C202.568 181.428 202.083 180.944 201.486 180.944C200.888 180.944 200.404 181.428 200.404 182.026C200.404 182.623 200.888 183.108 201.486 183.108Z" fill="white"/>
<path d="M207.33 182.433C207.928 182.433 208.412 181.949 208.412 181.351C208.412 180.753 207.928 180.269 207.33 180.269C206.733 180.269 206.248 180.753 206.248 181.351C206.248 181.949 206.733 182.433 207.33 182.433Z" fill="white"/>
<path d="M213.175 181.76C213.773 181.76 214.257 181.275 214.257 180.678C214.257 180.08 213.773 179.596 213.175 179.596C212.577 179.596 212.093 180.08 212.093 180.678C212.093 181.275 212.577 181.76 213.175 181.76Z" fill="white"/>
<path d="M219.021 181.085C219.619 181.085 220.103 180.6 220.103 180.003C220.103 179.405 219.619 178.921 219.021 178.921C218.424 178.921 217.939 179.405 217.939 180.003C217.939 180.6 218.424 181.085 219.021 181.085Z" fill="white"/>
<path d="M205.526 152.021C205.528 152.021 207.736 152.249 207.736 152.249C206.746 145.865 216.266 135.61 217.561 138.775C217.566 138.786 217.569 138.794 217.573 138.802C217.577 138.815 217.579 138.82 217.579 138.82C218.803 142.124 207.736 152.249 207.736 152.249L209.297 152.077C209.324 152.074 209.37 152.029 209.393 152.015C211.286 150.764 213.103 149.385 214.833 147.919C217.359 145.781 220.478 143.171 221.434 139.859C222.026 137.814 221.212 135.838 219.355 134.807C217.549 133.804 215.243 133.429 213.324 134.305C211.848 134.982 210.699 136.213 209.813 137.564C209.653 137.808 209.504 138.056 209.361 138.304C207.797 141.033 206.915 144.145 206.279 147.206C206.226 147.475 205.439 152.013 205.526 152.021Z" fill="#F55A70"/>
<path d="M205.526 152.022C205.528 152.022 207.736 152.249 207.736 152.249C206.747 145.865 216.267 135.61 217.562 138.775C217.414 138.397 216.225 135.782 211.996 136.688C211.184 136.861 210.46 137.167 209.813 137.566C209.654 137.809 209.504 138.058 209.361 138.306C207.797 141.035 206.915 144.147 206.279 147.208C206.226 147.476 205.439 152.014 205.526 152.022Z" fill="#D83D5D"/>
<path d="M206.95 151.866C206.948 151.866 204.841 152.571 204.841 152.571C204.415 146.125 192.889 138.194 192.314 141.565C192.313 141.576 192.311 141.586 192.309 141.594C192.308 141.607 192.306 141.613 192.306 141.613C191.832 145.106 204.841 152.571 204.841 152.571L203.28 152.743C203.253 152.746 203.199 152.713 203.174 152.703C201.054 151.895 198.979 150.945 196.971 149.893C194.039 148.358 190.427 146.491 188.771 143.465C187.748 141.599 188.112 139.494 189.698 138.082C191.242 136.709 193.41 135.84 195.474 136.278C197.062 136.615 198.453 137.567 199.611 138.693C199.82 138.897 200.02 139.105 200.214 139.317C202.335 141.638 203.874 144.483 205.163 147.333C205.276 147.58 207.034 151.838 206.95 151.866Z" fill="#F55A70"/>
<path d="M206.945 151.867C206.943 151.867 204.837 152.571 204.837 152.571C204.41 146.126 192.884 138.194 192.31 141.565C192.372 141.165 192.96 138.353 197.285 138.313C198.116 138.305 198.887 138.447 199.607 138.695C199.815 138.899 200.015 139.107 200.21 139.319C202.331 141.64 203.869 144.485 205.158 147.335C205.271 147.58 207.029 151.838 206.945 151.867Z" fill="#D83D5D"/>
<path d="M225.995 158.231C225.995 158.231 198.888 159.104 188.546 162.365L186.054 154.947C186.054 154.947 207.388 149.247 225.804 151.451L225.995 158.231Z" fill="#62E188"/>
<path d="M222.836 170.688C222.836 170.688 213.977 169.177 192.111 171.24L194.043 178.135L222.15 177.265L222.836 170.688Z" fill="#D83D5D"/>
<path d="M205.048 188.635C207.36 189.379 212.218 187.943 212.218 187.943L211.131 161.248L211.042 159.084L210.719 151.128C205.705 151.144 201.688 152.124 201.688 152.124L202.402 159.894L202.564 161.654L205.048 188.635Z" fill="#F55A70"/>
<path d="M202.565 161.652C203.292 161.587 211.132 161.247 211.132 161.247L211.043 159.083C208.755 159.253 202.888 159.845 202.403 159.894L202.565 161.652Z" fill="#D83D5D"/>
<path d="M195.055 169.291C194.587 174.538 193.55 187.14 194.051 190.173C194.051 190.173 182.117 192.367 176.314 192.561C175.487 192.588 174.784 192.576 174.259 192.51C174.259 192.51 168.852 174.129 166.481 169.76C166.481 169.76 187.589 166.36 195.268 166.982C195.267 166.979 195.184 167.864 195.055 169.291Z" fill="#F9C815"/>
<path d="M195.267 166.979C195.267 166.979 195.182 167.862 195.055 169.291C192.379 169.391 178.014 170.063 172.287 173.02C172.287 173.02 175.516 185.704 176.314 192.56C175.487 192.587 174.784 192.574 174.259 192.509C174.259 192.509 168.852 174.128 166.481 169.759C166.481 169.759 187.589 166.358 195.267 166.979Z" fill="#F8A000"/>
<path d="M181.399 163.396C181.398 163.396 179.689 162.947 179.689 162.947C182.211 158.468 177.986 148.167 176.136 150.164C176.13 150.17 176.125 150.177 176.12 150.182C176.114 150.19 176.11 150.193 176.11 150.193C174.274 152.312 179.689 162.949 179.689 162.949L178.575 162.384C178.556 162.375 178.534 162.328 178.521 162.311C177.461 160.85 176.492 159.315 175.612 157.74C174.328 155.44 172.734 152.626 172.947 149.889C173.078 148.201 174.238 146.956 175.908 146.707C177.533 146.465 179.356 146.829 180.542 148.019C181.454 148.936 181.964 150.174 182.246 151.429C182.297 151.655 182.34 151.881 182.376 152.107C182.779 154.576 182.566 157.141 182.184 159.6C182.149 159.814 181.468 163.415 181.399 163.396Z" fill="white"/>
<path d="M181.397 163.396C181.396 163.396 179.687 162.947 179.687 162.947C182.209 158.468 177.984 148.167 176.134 150.164C176.349 149.924 177.965 148.309 180.863 150.164C181.418 150.521 181.871 150.95 182.244 151.429C182.295 151.655 182.338 151.881 182.374 152.107C182.777 154.576 182.564 157.141 182.182 159.6C182.147 159.814 181.466 163.415 181.397 163.396Z" fill="#EAEAEA"/>
<path d="M179.795 163.177C179.796 163.177 181.551 163.382 181.551 163.382C180.834 158.292 188.519 150.238 189.515 152.769C189.518 152.777 189.522 152.785 189.523 152.791C189.526 152.801 189.528 152.806 189.528 152.806C190.465 155.449 181.55 163.382 181.55 163.382L182.794 163.263C182.815 163.261 182.853 163.226 182.871 163.215C184.39 162.24 185.851 161.162 187.243 160.017C189.277 158.343 191.786 156.301 192.583 153.674C193.076 152.053 192.449 150.473 190.984 149.633C189.558 148.815 187.728 148.492 186.191 149.168C185.009 149.69 184.081 150.658 183.362 151.724C183.233 151.916 183.111 152.11 182.995 152.308C181.72 154.462 180.985 156.928 180.446 159.356C180.401 159.566 179.725 163.169 179.795 163.177Z" fill="white"/>
<path d="M179.795 163.177C179.797 163.177 181.552 163.382 181.552 163.382C180.834 158.292 188.52 150.238 189.516 152.769C189.403 152.467 188.485 150.373 185.111 151.048C184.464 151.176 183.885 151.412 183.364 151.722C183.235 151.915 183.113 152.109 182.997 152.306C181.722 154.461 180.987 156.927 180.448 159.355C180.402 159.567 179.725 163.169 179.795 163.177Z" fill="#EAEAEA"/>
<path d="M179.789 163.177C179.788 163.177 178.104 163.715 178.104 163.715C177.835 158.582 168.751 152.145 168.257 154.822C168.255 154.831 168.253 154.838 168.252 154.844C168.25 154.853 168.25 154.858 168.25 154.858C167.835 157.632 178.104 163.713 178.104 163.713L176.86 163.832C176.839 163.834 176.795 163.807 176.776 163.8C175.097 163.134 173.458 162.356 171.872 161.496C169.555 160.243 166.702 158.718 165.416 156.293C164.622 154.798 164.936 153.125 166.214 152.02C167.456 150.944 169.191 150.276 170.83 150.648C172.09 150.934 173.186 151.706 174.095 152.615C174.258 152.779 174.416 152.947 174.567 153.118C176.23 154.989 177.423 157.269 178.418 159.549C178.504 159.749 179.856 163.156 179.789 163.177Z" fill="white"/>
<path d="M179.786 163.176C179.784 163.176 178.101 163.714 178.101 163.714C177.832 158.581 168.748 152.145 168.253 154.821C168.306 154.503 168.807 152.272 172.247 152.288C172.907 152.291 173.52 152.412 174.089 152.617C174.253 152.781 174.411 152.95 174.562 153.12C176.225 154.991 177.418 157.272 178.413 159.552C178.5 159.749 179.853 163.156 179.786 163.176Z" fill="#EAEAEA"/>
<path d="M165.999 171.236C165.999 171.236 187.252 167.501 195.839 168.356L196.571 162.173C196.571 162.173 179.027 161.208 165.044 165.924L165.999 171.236Z" fill="#F9C815"/>
<path d="M170.493 180.424C170.493 180.424 177.148 177.804 194.512 175.85L194.13 181.533L172.097 185.433L170.493 180.424Z" fill="#EAEAEA"/>
<path d="M187.272 191.503C185.592 192.46 181.576 192.132 181.576 192.132L178.074 171.164L177.791 169.463L176.747 163.214C180.655 162.411 183.944 162.519 183.944 162.519L184.652 168.686L184.812 170.083L187.272 191.503Z" fill="white"/>
<path d="M184.812 170.085C184.234 170.152 178.073 171.164 178.073 171.164L177.79 169.463C179.599 169.223 184.266 168.728 184.651 168.687L184.812 170.085Z" fill="#EAEAEA"/>
<path d="M126.984 164.658C125.022 170.94 120.414 186.046 120.222 189.881C120.222 189.881 105.074 189.396 97.9377 188.092C96.921 187.906 96.0649 187.704 95.4412 187.485C95.4412 187.485 93.7148 163.614 91.9805 157.652C91.9805 157.652 118.648 159.099 127.854 161.893C127.854 161.893 127.517 162.949 126.984 164.658Z" fill="#60E5FF"/>
<path d="M127.846 161.892C127.846 161.892 127.508 162.949 126.974 164.658C123.68 164.07 105.969 161.081 98.1932 163.175C98.1932 163.175 98.7708 179.511 97.9275 188.094C96.9107 187.907 96.0547 187.705 95.431 187.486C95.431 187.486 93.7046 163.615 91.9702 157.653C91.9718 157.652 118.638 159.097 127.846 161.892Z" fill="#52C8D8"/>
<path d="M111.874 153.84C111.872 153.84 109.905 152.839 109.905 152.839C114.171 148.04 111.746 134.346 108.959 136.292C108.949 136.299 108.941 136.305 108.935 136.31C108.924 136.318 108.921 136.321 108.921 136.321C106.117 138.421 109.907 152.84 109.907 152.84L108.696 151.855C108.676 151.838 108.661 151.776 108.65 151.752C107.743 149.687 106.968 147.556 106.313 145.4C105.355 142.253 104.155 138.394 105.142 135.11C105.749 133.083 107.493 131.872 109.6 132.011C111.648 132.146 113.777 133.075 114.906 134.841C115.775 136.202 116.073 137.849 116.082 139.456C116.084 139.745 116.076 140.033 116.062 140.318C115.898 143.44 114.957 146.514 113.839 149.413C113.74 149.666 111.952 153.881 111.874 153.84Z" fill="#F9C815"/>
<path d="M111.871 153.839C111.87 153.839 109.903 152.839 109.903 152.839C114.169 148.04 111.744 134.346 108.956 136.292C109.282 136.055 111.685 134.513 114.729 137.546C115.313 138.128 115.752 138.773 116.078 139.455C116.08 139.745 116.072 140.033 116.058 140.318C115.894 143.44 114.953 146.514 113.835 149.413C113.738 149.666 111.949 153.881 111.871 153.839Z" fill="#F8A000"/>
<path d="M109.973 153.147C109.975 153.147 112.062 153.863 112.062 153.863C112.535 147.46 124.052 139.665 124.597 143.021C124.599 143.032 124.601 143.042 124.602 143.05C124.604 143.062 124.604 143.069 124.604 143.069C125.048 146.544 112.062 153.863 112.062 153.863L113.612 154.046C113.639 154.049 113.693 154.016 113.719 154.008C115.832 153.22 117.9 152.293 119.905 151.263C122.831 149.759 126.435 147.933 128.106 144.938C129.137 143.091 128.792 140.995 127.226 139.581C125.703 138.205 123.554 137.325 121.499 137.745C119.918 138.068 118.529 139.002 117.369 140.114C117.16 140.314 116.958 140.52 116.764 140.728C114.638 143.019 113.087 145.836 111.784 148.657C111.669 148.902 109.889 153.12 109.973 153.147Z" fill="#F9C815"/>
<path d="M109.973 153.147C109.975 153.147 112.062 153.863 112.062 153.863C112.535 147.461 124.052 139.666 124.597 143.021C124.54 142.622 123.975 139.825 119.678 139.752C118.853 139.737 118.083 139.873 117.367 140.113C117.159 140.313 116.957 140.519 116.763 140.727C114.637 143.018 113.085 145.835 111.782 148.656C111.669 148.902 109.889 153.12 109.973 153.147Z" fill="#F8A000"/>
<path d="M109.981 153.147C109.979 153.147 107.782 153.357 107.782 153.357C108.814 147.021 99.433 136.755 98.1203 139.891C98.1156 139.902 98.1124 139.91 98.1092 139.918C98.1044 139.93 98.1028 139.936 98.1028 139.936C96.8601 143.21 107.782 153.357 107.782 153.357L106.232 153.174C106.205 153.171 106.16 153.126 106.138 153.112C104.267 151.854 102.471 150.469 100.762 149.001C98.2667 146.856 95.1879 144.238 94.2618 140.938C93.689 138.902 94.5148 136.945 96.3669 135.934C98.1681 134.951 100.464 134.596 102.364 135.484C103.826 136.166 104.959 137.4 105.828 138.751C105.984 138.994 106.132 139.241 106.272 139.489C107.806 142.213 108.657 145.312 109.266 148.359C109.32 148.622 110.068 153.139 109.981 153.147Z" fill="#F9C815"/>
<path d="M109.975 153.147C109.974 153.147 107.776 153.357 107.776 153.357C108.809 147.021 99.4274 136.755 98.1147 139.891C98.2643 139.518 99.4656 136.927 103.661 137.86C104.467 138.038 105.183 138.348 105.824 138.749C105.98 138.992 106.128 139.239 106.268 139.487C107.802 142.211 108.653 145.311 109.262 148.358C109.315 148.622 110.063 153.139 109.975 153.147Z" fill="#F8A000"/>
<path d="M91.0005 159.329C91.0005 159.329 117.934 160.406 128.187 163.725L130.72 156.373C130.72 156.373 109.561 150.544 91.2423 152.594L91.0005 159.329Z" fill="#60E5FF"/>
<path d="M94.0547 171.735C94.0547 171.735 102.871 170.302 124.586 172.52L122.613 179.357L94.6848 178.275L94.0547 171.735Z" fill="#F8A000"/>
<path d="M111.586 189.705C109.282 190.428 104.465 188.962 104.465 188.962L105.751 162.439L105.856 160.288L106.238 152.385C111.221 152.441 115.206 153.445 115.206 153.445L114.435 161.16L114.26 162.907L111.586 189.705Z" fill="#F9C815"/>
<path d="M114.262 162.909C113.54 162.839 105.751 162.439 105.751 162.439L105.856 160.288C108.128 160.474 113.955 161.108 114.437 161.16L114.262 162.909Z" fill="#F8A000"/>
<path d="M145.747 175.049C146.796 179.509 149.241 190.227 149.182 192.9C149.182 192.9 159.724 193.32 164.744 192.771C165.46 192.693 166.063 192.594 166.507 192.473C166.507 192.473 168.898 175.986 170.4 171.933C170.4 171.933 151.813 171.605 145.281 173.085C145.281 173.085 145.461 173.836 145.747 175.049Z" fill="#FAD1D4"/>
<path d="M145.281 173.085C145.281 173.085 145.462 173.835 145.747 175.049C148.064 174.805 160.51 173.615 165.804 175.456C165.804 175.456 164.586 186.769 164.744 192.771C165.46 192.693 166.063 192.594 166.507 192.473C166.507 192.473 168.898 175.986 170.4 171.933C170.4 171.933 151.813 171.605 145.281 173.085Z" fill="#D8B6BA"/>
<path d="M157.119 167.951L158.636 168.206C158.235 163.755 165.261 157.096 166.017 159.338C166.02 159.346 166.022 159.353 166.023 159.357C166.027 159.365 166.027 159.37 166.027 159.37C166.725 161.706 158.636 168.206 158.636 168.206L159.721 168.156C159.74 168.155 159.773 168.126 159.789 168.118C161.151 167.339 162.467 166.467 163.727 165.533C165.567 164.169 167.836 162.505 168.642 160.26C169.142 158.874 168.666 157.473 167.43 156.679C166.229 155.906 164.652 155.545 163.288 156.067C162.238 156.468 161.39 157.267 160.72 158.162C160.599 158.323 160.485 158.487 160.375 158.653C159.175 160.466 158.427 162.576 157.853 164.662C157.804 164.844 157.057 167.942 157.119 167.951Z" fill="#60E5FF"/>
<path d="M157.119 167.951L158.636 168.206C158.235 163.756 165.261 157.097 166.017 159.339C165.933 159.071 165.228 157.213 162.267 157.65C161.699 157.735 161.186 157.913 160.72 158.159C160.599 158.32 160.485 158.484 160.375 158.65C159.175 160.463 158.427 162.573 157.853 164.659C157.804 164.844 157.057 167.942 157.119 167.951Z" fill="#52C8D8"/>
<path d="M158.112 167.907L156.626 168.3C156.618 163.83 149.011 157.843 148.465 160.145C148.464 160.153 148.462 160.16 148.461 160.164C148.459 160.172 148.457 160.177 148.457 160.177C147.975 162.567 156.626 168.298 156.626 168.298L155.541 168.348C155.522 168.349 155.485 168.322 155.47 168.316C154.042 167.664 152.652 166.917 151.312 166.101C149.355 164.911 146.944 163.463 145.934 161.301C145.31 159.966 145.655 158.529 146.812 157.625C147.939 156.745 149.474 156.242 150.881 156.635C151.963 156.939 152.881 157.657 153.63 158.486C153.765 158.635 153.894 158.788 154.018 158.942C155.38 160.64 156.316 162.672 157.08 164.696C157.147 164.874 158.173 167.891 158.112 167.907Z" fill="#60E5FF"/>
<path d="M158.11 167.907L156.624 168.3C156.616 163.83 149.009 157.843 148.463 160.145C148.524 159.872 149.055 157.956 152.043 158.121C152.616 158.153 153.144 158.284 153.63 158.487C153.765 158.637 153.894 158.79 154.018 158.944C155.38 160.642 156.315 162.674 157.079 164.698C157.144 164.874 158.171 167.891 158.11 167.907Z" fill="#52C8D8"/>
<path d="M170.988 173.145C170.988 173.145 152.235 172.547 144.949 174.34L143.558 169.108C143.558 169.108 158.541 166.118 171.157 168.456L170.988 173.145Z" fill="#FAD1D4"/>
<path d="M168.249 181.607C168.249 181.607 162.2 180.172 147.012 180.627L148.04 185.472L167.484 186.116L168.249 181.607Z" fill="#52C8D8"/>
<path d="M155.178 193.209C156.742 193.827 160.158 193.049 160.158 193.049L160.591 174.571L160.626 173.072L160.754 167.565C157.292 167.355 154.476 167.853 154.476 167.853L154.625 173.248L154.659 174.47L155.178 193.209Z" fill="#60E5FF"/>
<path d="M154.66 174.471C155.164 174.458 160.593 174.57 160.593 174.57L160.628 173.071C159.04 173.087 154.964 173.236 154.628 173.247L154.66 174.471Z" fill="#52C8D8"/>
<path d="M146.54 -5.57914L146.393 -5.03128C148.286 -4.4786 150.184 -3.94563 152.088 -3.43204C152.611 -3.28921 153.135 -3.14965 153.66 -3.01143L153.66 -3.01122C154.155 -2.87927 154.651 -2.74962 155.148 -2.6215C155.384 -2.56052 155.621 -2.49954 155.857 -2.43856C156.354 -2.3112 156.851 -2.18538 157.349 -2.06088C157.723 -1.9664 158.096 -1.87366 158.47 -1.78147C160.288 -1.33284 162.109 -0.90203 163.934 -0.488283C164.746 -0.30342 165.559 -0.123151 166.373 0.0540524C167.296 0.256391 168.22 0.453162 169.145 0.645334C170.417 0.909977 171.69 1.16675 172.966 1.41434C173.469 1.51313 173.973 1.60963 174.477 1.7046C174.854 1.77604 175.232 1.84692 175.61 1.91627C177.452 2.25814 179.296 2.58197 181.144 2.88854C181.965 3.02487 182.787 3.15813 183.61 3.2868C184.543 3.43427 185.477 3.57638 186.413 3.71388C188.523 4.02586 190.637 4.31501 192.753 4.58187C194.611 4.81548 196.47 5.0314 198.331 5.22986C199.222 5.32581 200.114 5.41619 201.005 5.50331C201.949 5.59534 202.893 5.68258 203.838 5.76501C204.377 5.81342 204.916 5.85877 205.457 5.90258C205.968 5.94513 206.479 5.98614 206.991 6.02562C207.234 6.04496 207.477 6.06333 207.721 6.08017C208.233 6.11965 208.743 6.15545 209.255 6.1909L209.256 6.1911C209.639 6.2184 210.023 6.24396 210.406 6.26799L210.407 6.26819C212.275 6.39113 214.143 6.49694 216.013 6.58278C216.839 6.62202 217.667 6.65667 218.494 6.68784C219.443 6.72475 220.393 6.75665 221.342 6.78375C222.641 6.82062 223.939 6.84921 225.238 6.86896C225.75 6.87651 226.262 6.88308 226.774 6.88735C227.158 6.89196 227.544 6.89504 227.929 6.89638C228.18 6.89816 228.433 6.89937 228.685 6.90037L230.161 6.90775L231.638 6.88896L233.545 6.86324L234.591 6.84963C235.07 6.84257 235.549 6.83704 236.029 6.83094C236.534 6.82432 237.039 6.81693 237.545 6.80704L238.877 6.75694L240.496 6.69649C242.088 6.63309 243.681 6.59105 245.271 6.50261L245.272 6.50281C245.647 6.48186 246.022 6.4582 246.397 6.43147L249.345 6.2535C249.856 6.22216 250.367 6.19332 250.878 6.16023C251.349 6.12975 251.821 6.09524 252.291 6.05126C252.706 6.0206 253.123 5.98939 253.538 5.95622C254.49 5.88214 255.441 5.80361 256.392 5.71854C256.93 5.6715 257.468 5.62194 258.006 5.57142C258.518 5.52316 259.031 5.47337 259.543 5.42184C259.787 5.39769 260.031 5.37278 260.275 5.34766C260.785 5.29475 261.294 5.24163 261.804 5.18775C262.187 5.14575 262.568 5.10355 262.95 5.05982L262.951 5.06002C264.811 4.85221 266.668 4.62494 268.523 4.38145C269.337 4.27463 270.152 4.16455 270.966 4.05021C271.913 3.91792 272.858 3.78215 273.803 3.6404C274.454 3.54312 275.105 3.4441 275.755 3.34335C276.387 3.2442 277.019 3.14352 277.65 3.04166C278.157 2.95906 278.663 2.87471 279.17 2.79037C279.17 2.79113 279.171 2.79057 279.171 2.79057C279.55 2.72716 279.928 2.66278 280.307 2.59763C282.152 2.28085 283.995 1.9469 285.834 1.59578C286.642 1.44112 287.449 1.28396 288.257 1.12255C289.193 0.935822 290.129 0.744851 291.063 0.549432C293.151 0.112081 295.234 -0.346892 297.312 -0.827896C297.853 -0.953024 298.393 -1.07856 298.933 -1.20717C299.116 -1.25102 299.298 -1.29508 299.48 -1.33893L298.33 -1.64751C297.868 -1.53873 297.407 -1.43092 296.945 -1.32485C294.87 -0.84629 292.79 -0.390327 290.706 0.0438083C289.933 0.205414 289.16 0.362777 288.386 0.518197C287.42 0.711734 286.453 0.900058 285.484 1.08393C283.649 1.43281 281.81 1.76528 279.968 2.07961C279.59 2.14399 279.211 2.20761 278.833 2.27123C278.326 2.35557 277.82 2.43915 277.314 2.52023C276.765 2.60963 276.216 2.69652 275.668 2.78188C274.937 2.89571 274.207 3.00627 273.476 3.1151C272.695 3.23152 271.912 3.34446 271.129 3.45413C270.155 3.59211 269.18 3.72411 268.204 3.8509C266.353 4.0929 264.499 4.31773 262.643 4.52406C262.262 4.56647 261.88 4.60847 261.498 4.6499C260.989 4.70399 260.479 4.75787 259.97 4.80849C259.727 4.8336 259.483 4.85795 259.24 4.88133C258.729 4.93251 258.218 4.98195 257.707 5.02964C257.171 5.08058 256.634 5.1288 256.097 5.1755C255.311 5.24469 254.524 5.31041 253.737 5.3721C253.241 5.41082 252.745 5.44858 252.248 5.48536C251.697 5.53719 251.144 5.57553 250.591 5.60963C250.164 5.637 249.735 5.6609 249.307 5.6875L246.365 5.86517C245.908 5.89726 245.452 5.9253 244.996 5.94911C243.491 6.02842 241.983 6.0694 240.476 6.12923L238.615 6.19865L237.53 6.2397C237.107 6.24791 236.685 6.25383 236.262 6.25954C235.703 6.26716 235.142 6.27381 234.583 6.28219L233.292 6.29914L231.635 6.32142L230.161 6.34006L228.687 6.33254C228.353 6.33168 228.02 6.33025 227.686 6.32785C227.301 6.32498 226.917 6.32211 226.533 6.3177C226.022 6.31211 225.511 6.30574 225 6.29763C223.705 6.27717 222.409 6.24689 221.113 6.20911C220.329 6.18694 219.545 6.16052 218.761 6.13105C217.771 6.0948 216.781 6.05277 215.792 6.00518C213.926 5.91731 212.062 5.81079 210.198 5.68638C209.814 5.66158 209.431 5.63602 209.048 5.60796C208.537 5.57292 208.027 5.53559 207.517 5.49652C207.274 5.47892 207.031 5.46075 206.789 5.44085C206.278 5.40157 205.767 5.36076 205.256 5.31745C204.718 5.27349 204.181 5.22702 203.643 5.17979C202.863 5.11035 202.083 5.03842 201.305 4.96265C200.251 4.86162 199.197 4.75405 198.145 4.64035C196.287 4.44119 194.433 4.22323 192.58 3.98835L192.579 3.98814C190.467 3.72174 188.358 3.43133 186.252 3.11731C185.481 3.00338 184.71 2.88618 183.94 2.76515C182.957 2.61163 181.975 2.45331 180.993 2.28866C179.149 1.98235 177.309 1.65725 175.471 1.31488L175.47 1.31467C175.093 1.24476 174.716 1.17408 174.34 1.10188C173.837 1.00635 173.333 0.910055 172.832 0.810902L172.831 0.810697C171.559 0.563168 170.289 0.305681 169.02 0.0410933C168.257 -0.118305 167.495 -0.280774 166.733 -0.446506C165.761 -0.657958 164.789 -0.874212 163.819 -1.09563C161.998 -1.51008 160.18 -1.9416 158.367 -2.39074C157.993 -2.48272 157.62 -2.57623 157.247 -2.67051C156.751 -2.79536 156.254 -2.92098 155.759 -3.04889C155.523 -3.10966 155.287 -3.17065 155.051 -3.23142C154.555 -3.3601 154.061 -3.49011 153.567 -3.62186L153.566 -3.62207C153.044 -3.76044 152.521 -3.90076 151.999 -4.0422L151.998 -4.04241C150.174 -4.53735 148.354 -5.04992 146.54 -5.57914Z" fill="white"/>
<path d="M272.996 2.35092C273.87 3.76475 274.755 5.17799 275.649 6.5891L276.998 8.70433L277.678 9.76137L278.361 10.8084C280.186 13.5974 282.051 16.3799 283.955 19.155L284.581 16.7479L284.889 15.545L285.191 14.3342L285.655 12.4439L285.997 11.0284C286.548 8.73259 287.079 6.43973 287.59 4.15133C287.924 2.6518 288.251 1.15927 288.566 -0.353109C287.922 -0.212791 287.274 -0.0973662 286.627 0.0273109L284.686 0.395568L282.745 0.763824L282.26 0.855454L281.773 0.937627L280.799 1.10274L276.903 1.76243L276.416 1.84461L275.928 1.91732L274.951 2.06199L272.996 2.35092Z" fill="#ED5696"/>
<g opacity="0.33">
<path opacity="0.33" d="M279.47 1.32728C280.532 2.95482 281.607 4.58029 282.696 6.20368L283.515 7.41952L284.338 8.62408L285.999 11.0298C286.549 8.73399 287.08 6.44113 287.591 4.15273C286.71 2.88406 285.837 1.61341 284.973 0.34196L282.227 0.861456L279.47 1.32728Z" fill="white"/>
</g>
<g opacity="0.33">
<path opacity="0.33" d="M276.83 1.77523C278.178 3.87794 279.55 5.97624 280.944 8.07146C281.641 9.11917 282.344 10.1658 283.052 11.2108C283.761 12.2541 284.476 13.3065 285.194 14.3352L285.658 12.4449C285.031 11.5435 284.411 10.6445 283.792 9.73781C283.173 8.82691 282.559 7.91473 281.948 7.00204C280.728 5.17668 279.525 3.34873 278.34 1.51799L276.83 1.77523Z" fill="white"/>
</g>
<path d="M255.666 4.38101C256.455 5.84767 257.256 7.31394 258.066 8.77884C258.876 10.2345 259.694 11.6801 260.523 13.1295C262.181 16.0257 263.88 18.9182 265.619 21.8057C265.838 21.1359 266.056 20.474 266.27 19.7987L266.857 17.939L267.134 17.0531L267.709 15.1967L268.133 13.8049C268.818 11.5468 269.484 9.29162 270.129 7.03918L270.756 4.8255L271.368 2.5954L270.391 2.74007L269.412 2.86429L267.452 3.1133L265.492 3.36308C264.838 3.44492 264.186 3.53622 263.53 3.5986L259.601 4.01275C258.946 4.0811 258.292 4.1537 257.636 4.21781L255.666 4.38101Z" fill="#F7CE22"/>
<g opacity="0.33">
<path opacity="0.33" d="M262.19 3.74024L263.647 6.2745C264.136 7.1168 264.629 7.96862 265.123 8.79928C266.114 10.4693 267.117 12.1378 268.135 13.8046C268.82 11.5465 269.486 9.29134 270.131 7.0389C269.326 5.71918 268.528 4.39902 267.74 3.07728L264.968 3.43046L264.275 3.51894C264.044 3.54735 263.811 3.5688 263.58 3.59393L262.19 3.74024Z" fill="white"/>
</g>
<g opacity="0.33">
<path opacity="0.33" d="M259.524 4.02076C260.747 6.20236 261.992 8.38185 263.262 10.5587C263.896 11.6471 264.536 12.7352 265.182 13.8218C265.828 14.9066 266.477 15.976 267.134 17.0523L267.709 15.1958C267.137 14.259 266.57 13.3216 266.007 12.3837L265.165 10.9762L264.329 9.55611C263.218 7.6591 262.124 5.76006 261.047 3.85921L259.524 4.02076Z" fill="white"/>
</g>
<g opacity="0.33">
<path opacity="0.33" d="M257.275 4.24721L257.815 5.23144L258.357 6.20551L259.451 8.1513C260.184 9.44844 260.925 10.7446 261.674 12.0402C263.173 14.6293 264.705 17.2224 266.269 19.7985L266.856 17.9388L265.816 16.2275C265.472 15.657 265.127 15.076 264.785 14.5004C264.1 13.3469 263.422 12.1917 262.75 11.0367C261.407 8.72584 260.089 6.41293 258.797 4.097C258.291 4.1492 257.784 4.21045 257.275 4.24721Z" fill="white"/>
</g>
<path d="M290.184 -0.690074C290.358 -0.44312 290.531 -0.196372 290.705 0.0500213C290.824 0.218307 290.943 0.387359 291.062 0.555645C291.731 1.49953 292.404 2.44388 293.082 3.38542C294.058 4.74094 295.044 6.09953 296.037 7.43417C298.022 10.1135 300.049 12.784 302.114 15.4452L302.51 13.4504L302.893 11.4464C303.145 10.1104 303.391 8.77602 303.63 7.44459C304.046 5.12188 304.445 2.80829 304.821 0.491251C304.842 0.366131 304.862 0.24004 304.881 0.114715L296.623 -2.09959L296.403 -2.04925L294.049 -1.51175C293.408 -1.35906 292.763 -1.22993 292.118 -1.09386L290.184 -0.690074Z" fill="#0CBAD2"/>
<g opacity="0.33">
<path opacity="0.33" d="M296.402 -2.05032C296.582 -1.80653 296.762 -1.56274 296.943 -1.31971C297.065 -1.15387 297.187 -0.988034 297.311 -0.822758C298.192 0.362971 299.082 1.54769 299.978 2.72598C301.181 4.30185 302.398 5.8741 303.629 7.44352C304.045 5.12081 304.444 2.80722 304.82 0.490177C304.691 0.324789 304.561 0.159402 304.431 -0.00675124L296.622 -2.10067L296.402 -2.05032Z" fill="white"/>
</g>
<path d="M220.785 5.39148C221.398 6.93788 222.019 8.48444 222.652 10.0314C223.285 11.571 223.927 13.1091 224.579 14.6482C225.232 16.1859 225.895 17.7287 226.568 19.2627C227.241 20.7934 227.925 22.3237 228.619 23.8551L229.659 21.5919C230.003 20.8382 230.345 20.0839 230.683 19.3212L231.473 17.5404L232.059 16.2052C233.005 14.0393 233.931 11.8736 234.837 9.70836C235.43 8.28962 236.014 6.87189 236.59 5.45343L232.639 5.50524L230.663 5.53153C230.498 5.53335 230.334 5.53768 230.169 5.53699L229.675 5.53438L228.688 5.52915L226.712 5.51926C226.053 5.5127 225.394 5.49708 224.736 5.48648L222.76 5.45119L220.785 5.39148Z" fill="#ED5696"/>
<g opacity="0.33">
<path opacity="0.33" d="M227.341 5.52225C228.1 7.30765 228.873 9.09347 229.659 10.8795L230.252 12.2187L230.85 13.547L232.061 16.2036C233.007 14.0376 233.933 11.8719 234.839 9.70666C234.194 8.30423 233.558 6.90252 232.931 5.50001L230.136 5.53586L227.341 5.52225Z" fill="white"/>
</g>
<g opacity="0.33">
<path opacity="0.33" d="M224.664 5.48611C225.143 6.64365 225.627 7.80185 226.117 8.95976C226.607 10.1204 227.104 11.2653 227.605 12.419C228.107 13.5704 228.614 14.7224 229.129 15.8738L229.903 17.601L230.294 18.4638L230.687 19.3206L231.476 17.5398C231.018 16.5431 230.565 15.5509 230.116 14.5501C229.667 13.5461 229.223 12.5423 228.782 11.5388C227.902 9.52946 227.039 7.52813 226.194 5.51267L224.664 5.48611Z" fill="white"/>
</g>
<path d="M203.364 4.34167C203.884 5.91998 204.413 7.50577 204.953 9.08135C205.494 10.6554 206.045 12.2306 206.606 13.8059C207.727 16.9647 208.891 20.0917 210.095 23.2349L211.09 21.3727L211.996 19.6493L212.424 18.828L213.317 17.1043L213.98 15.811C215.051 13.7181 216.104 11.6038 217.136 9.49281C217.812 8.10934 218.479 6.72612 219.137 5.34216C213.872 5.14746 208.612 4.81316 203.364 4.34167Z" fill="#F7CE22"/>
<g opacity="0.33">
<path opacity="0.33" d="M209.901 4.85757C210.553 6.68579 211.219 8.51925 211.899 10.3451C212.58 12.1661 213.274 13.9883 213.982 15.8119C215.053 13.7189 216.107 11.6046 217.138 9.49362C216.577 8.05778 216.025 6.6244 215.481 5.1875L212.69 5.03541L211.993 4.99701L211.295 4.95053L209.901 4.85757Z" fill="white"/>
</g>
<g opacity="0.33">
<path opacity="0.33" d="M207.225 4.6632C207.635 5.8465 208.05 7.03528 208.471 8.21609C208.893 9.39516 209.321 10.5751 209.753 11.7555C210.186 12.9362 210.625 14.1165 211.07 15.2969C211.514 16.4796 211.966 17.6489 212.422 18.8266L213.315 17.1029C212.917 16.078 212.523 15.0541 212.134 14.0299L211.553 12.4937L210.98 10.9503C210.219 8.89254 209.477 6.83572 208.752 4.78015C208.242 4.74609 207.734 4.70186 207.225 4.6632Z" fill="white"/>
</g>
<g opacity="0.33">
<path opacity="0.33" d="M204.972 4.48571C205.925 7.30392 206.911 10.1217 207.93 12.9435C208.95 15.7508 210.003 18.5612 211.089 21.3713L211.994 19.6479L211.272 17.7771L210.56 15.8976C210.089 14.6444 209.624 13.3912 209.166 12.1392C208.25 9.63971 207.361 7.11971 206.498 4.6067L204.972 4.48571Z" fill="white"/>
</g>
<path d="M238.234 5.40863C239.637 8.41229 241.082 11.4155 242.567 14.4165C243.309 15.9174 244.062 17.4177 244.825 18.9166C245.587 20.4097 246.359 21.8865 247.142 23.3709C248.135 20.8348 249.102 18.2999 250.041 15.7667C250.86 13.5584 251.66 11.3631 252.436 9.12767C252.971 7.59479 253.496 6.06272 254.012 4.53125L252.043 4.69562C251.715 4.7218 251.387 4.75222 251.059 4.77589L250.073 4.83516L246.129 5.073C245.472 5.11109 244.815 5.15747 244.157 5.18805L242.183 5.26074L238.234 5.40863Z" fill="#0CBAD2"/>
<g opacity="0.33">
<path opacity="0.33" d="M244.598 5.16796C246.355 8.70432 248.171 12.2382 250.045 15.7681C250.864 13.5598 251.663 11.3644 252.439 9.12901L251.302 6.99179L250.178 4.83092L244.598 5.16796Z" fill="white"/>
</g>
<path d="M168.848 -0.802897C170.168 5.72261 171.659 12.2314 173.313 18.7493C174.266 17.3836 175.209 16.016 176.143 14.6468L177.232 13.0423L178.043 11.8331C179.356 9.86895 180.647 7.90728 181.92 5.93164C182.754 4.63495 183.58 3.33697 184.397 2.03827L182.445 1.73167L180.496 1.40626C179.196 1.19406 177.901 0.954211 176.603 0.723769C174.013 0.242756 171.425 -0.254755 168.848 -0.802897Z" fill="#ED5696"/>
<g opacity="0.33">
<path opacity="0.33" d="M175.278 0.475222C175.494 1.42181 175.714 2.3727 175.937 3.31787L176.619 6.15437L177.321 8.99467L177.68 10.4157L178.045 11.8319C179.358 9.86769 180.649 7.90603 181.922 5.93039C181.534 4.44148 181.155 2.94293 180.785 1.4522L179.406 1.22058L178.029 0.976284C177.112 0.81233 176.193 0.653174 175.278 0.475222Z" fill="white"/>
</g>
<g opacity="0.33">
<path opacity="0.33" d="M172.647 -0.0292137C173.718 4.86485 174.883 9.75781 176.143 14.6458L177.232 13.0414C176.683 10.9097 176.152 8.77966 175.637 6.65319C175.379 5.59198 175.128 4.52336 174.88 3.45731C174.632 2.39125 174.389 1.32566 174.15 0.261297L173.398 0.118824L172.647 -0.0292137Z" fill="white"/>
</g>
<path d="M151.878 -4.89153C152.815 1.69136 153.918 8.28494 155.187 14.8862L156.494 13.2213L157.688 11.6867L158.254 10.9547L159.435 9.41759L160.315 8.25812C161.027 7.31729 161.735 6.37543 162.437 5.43193L163.488 4.01672L164.532 2.59333C165.441 1.34871 166.342 0.102803 167.233 -1.14557C164.658 -1.70214 162.091 -2.2961 159.53 -2.91612C156.973 -3.54436 154.421 -4.20137 151.878 -4.89153Z" fill="#F7CE22"/>
<g opacity="0.33">
<path opacity="0.33" d="M158.226 -3.23953L158.717 -0.363183C158.884 0.595094 159.055 1.55093 159.23 2.50876C159.58 4.42247 159.941 6.34851 160.32 8.25945C161.032 7.31862 161.74 6.37676 162.443 5.43326L163.493 4.01805L164.538 2.59466C164.237 1.08743 163.947 -0.429251 163.665 -1.9406L162.302 -2.25336L160.943 -2.57683L159.584 -2.90185L158.226 -3.23953Z" fill="white"/>
</g>
<g opacity="0.33">
<path opacity="0.33" d="M155.62 -3.90162C155.816 -2.66557 156.016 -1.42348 156.224 -0.187617C156.431 1.04825 156.645 2.28499 156.864 3.52393C157.301 6.00489 157.764 8.47321 158.249 10.9531L159.43 9.41594C159.007 7.25658 158.602 5.09869 158.212 2.94663C157.825 0.789421 157.456 -1.36941 157.103 -3.52064C156.608 -3.64334 156.115 -3.77468 155.62 -3.90162Z" fill="white"/>
</g>
<g opacity="0.33">
<path opacity="0.33" d="M153.438 -4.47322L153.776 -2.26048L154.127 -0.0521189C154.365 1.42115 154.611 2.89648 154.866 4.37407C155.121 5.84629 155.384 7.32036 155.655 8.79593L156.068 11.0117L156.495 13.2221L157.688 11.6875C157.431 10.3725 157.18 9.05851 156.935 7.746C156.691 6.43062 156.454 5.11362 156.223 3.8C155.76 1.17582 155.327 -1.45844 154.918 -4.08228C154.424 -4.20805 153.932 -4.34092 153.438 -4.47322Z" fill="white"/>
</g>
<path d="M186.028 2.2864C186.881 5.49719 187.772 8.71999 188.708 11.9228C189.175 13.5266 189.652 15.1343 190.14 16.7379C190.629 18.3374 191.128 19.9381 191.636 21.5405C193.059 19.2314 194.458 16.8969 195.83 14.565C196.428 13.5483 197.02 12.5335 197.608 11.5141C198.196 10.4915 198.779 9.46845 199.357 8.44491C200.153 7.03462 200.94 5.62514 201.718 4.21222C196.472 3.7067 191.24 3.0621 186.028 2.2864Z" fill="#0CBAD2"/>
<g opacity="0.33">
<path opacity="0.33" d="M192.337 3.16153C192.89 5.06254 193.457 6.96496 194.039 8.86953C194.621 10.7726 195.219 12.6643 195.831 14.5646C196.429 13.5479 197.021 12.5331 197.609 11.5138C198.197 10.4912 198.78 9.46808 199.358 8.44454L198.616 6.13314C198.371 5.36347 198.128 4.59289 197.889 3.81832L195.112 3.50483L192.337 3.16153Z" fill="white"/>
</g>
<path d="M321.147 4.47632C321.321 4.62148 321.495 4.76684 321.669 4.912C321.965 5.15795 322.26 5.40312 322.557 5.64774C322.557 5.64774 322.558 5.64871 322.558 5.64795C322.954 5.97507 323.35 6.30144 323.748 6.6257C324.243 7.03033 324.74 7.43384 325.238 7.83505C325.75 8.24844 326.264 8.65974 326.78 9.06895C327.527 9.66432 328.278 10.255 329.031 10.8429C329.679 11.3493 330.329 11.8522 330.981 12.3522C332.465 13.491 333.959 14.6169 335.465 15.7271L335.466 15.7273C335.775 15.9563 336.085 16.1838 336.395 16.4115C336.809 16.714 337.224 17.0149 337.639 17.3159C337.837 17.4594 338.036 17.6031 338.235 17.746C338.653 18.0469 339.072 18.3465 339.491 18.6438C339.931 18.9573 340.373 19.2694 340.815 19.5786C341.596 20.128 342.38 20.6717 343.167 21.2121C343.511 21.4487 343.856 21.6841 344.2 21.9186C344.585 22.1918 344.976 22.4577 345.369 22.7199C345.795 23.004 346.223 23.2848 346.65 23.5676L349.113 25.1964C349.425 25.4072 349.737 25.615 350.051 25.8208L350.052 25.821C351.385 26.6934 352.743 27.5265 354.09 28.3779L355.461 29.2401L356.59 29.9501C357.023 30.2114 357.456 30.4707 357.891 30.7292C358.303 30.9744 358.715 31.2187 359.126 31.4645L360.025 31.9995L361.663 32.976L362.933 33.7311L364.215 34.4634C364.433 34.5885 364.653 34.7139 364.872 34.8382C365.205 35.0296 365.541 35.2196 365.876 35.4081C366.322 35.6607 366.768 35.9109 367.215 36.1606C368.35 36.7933 369.488 37.4181 370.631 38.0358C371.466 38.4881 372.304 38.9353 373.145 39.3776C373.876 39.765 374.61 40.1491 375.345 40.5286C376.872 41.3148 378.404 42.0903 379.944 42.8522L380.093 42.2936C378.665 41.5862 377.243 40.8673 375.827 40.1353C374.947 39.6809 374.069 39.222 373.193 38.759C372.5 38.3923 371.807 38.0226 371.117 37.6495C369.976 37.034 368.84 36.4122 367.708 35.7818C367.261 35.5331 366.815 35.2831 366.37 35.0323C366.036 34.8439 365.701 34.6541 365.367 34.4643C365.077 34.2994 364.788 34.134 364.498 33.9677L363.218 33.2368L361.951 32.4831L360.527 31.6349L359.418 30.9745C358.938 30.6871 358.456 30.4011 357.975 30.1144C357.612 29.8979 357.249 29.6816 356.887 29.4631L355.969 28.885L354.392 27.8939C353.117 27.0879 351.832 26.2983 350.568 25.4765C350.185 25.2275 349.804 24.9751 349.425 24.7191L346.966 23.093C346.609 22.856 346.25 22.6209 345.893 22.3832C345.432 22.0771 344.972 21.7675 344.521 21.447C344.109 21.1665 343.698 20.8855 343.289 20.604C342.638 20.1561 341.99 19.7054 341.343 19.2528C340.902 18.9432 340.461 18.6328 340.023 18.3205C339.604 18.0234 339.186 17.725 338.769 17.426C338.57 17.2838 338.372 17.1411 338.174 16.9977C337.758 16.6981 337.343 16.3965 336.93 16.0958C336.62 15.8691 336.31 15.6413 336.001 15.414C334.498 14.307 333.005 13.1848 331.523 12.0491C330.741 11.451 329.963 10.8489 329.189 10.2421C328.566 9.75567 327.945 9.26635 327.326 8.77437C326.748 8.31465 326.171 7.85359 325.595 7.38968C325.163 7.04058 324.731 6.69071 324.301 6.33952C323.903 6.01525 323.507 5.68966 323.11 5.36406C322.892 5.18486 322.675 5.0051 322.457 4.82436C322.379 4.75992 322.301 4.6945 322.223 4.63006C322.166 4.65911 322.11 4.68837 322.053 4.71588L321.148 4.47325L321.147 4.47632Z" fill="white"/>
<path d="M310.228 17.4183C313.266 15.9686 316.273 14.4923 319.248 12.9903L320.363 12.4252L321.481 11.8509L323.707 10.6943C324.736 10.1569 325.761 9.61457 326.781 9.07019C326.963 8.9736 327.145 8.87701 327.327 8.77868C327.593 8.63657 327.859 8.49426 328.125 8.35194L326.577 7.12315L325.804 6.50847L325.418 6.20114L325.095 5.93472L325.036 5.88696L324.38 5.34296L322.459 4.8279C322.381 4.76346 322.302 4.69805 322.224 4.6336C322.167 4.66265 322.111 4.69191 322.054 4.71943L314.556 2.70913C313.864 4.91362 313.188 7.13051 312.526 9.3611L312.114 10.7587L311.57 12.6268L311.226 13.8264L310.89 15.0218L310.228 17.4183Z" fill="#ED5696"/>
<g opacity="0.33">
<path opacity="0.33" d="M312.527 9.36216L315.169 8.10983L316.484 7.47847L317.801 6.83541C319.097 6.19989 320.388 5.56022 321.673 4.91431C321.801 4.85086 321.928 4.78644 322.056 4.72125L314.558 2.71095C313.866 4.91468 313.19 7.13157 312.527 9.36216Z" fill="white"/>
</g>
<g opacity="0.33">
<path opacity="0.33" d="M311.569 12.6254C312.704 12.0937 313.851 11.5396 314.985 10.9904C316.121 10.4401 317.254 9.88549 318.381 9.32695C320.182 8.43558 321.971 7.53459 323.748 6.62475C323.933 6.53051 324.116 6.43607 324.3 6.34163C324.565 6.20565 324.829 6.0687 325.093 5.93328L324.379 5.34193L323.579 5.12745C323.422 5.20772 323.266 5.28743 323.11 5.36617C322.926 5.46061 322.742 5.55428 322.558 5.64699C322.558 5.64775 322.557 5.64678 322.557 5.64678C321.061 6.40534 319.558 7.15628 318.046 7.90071C317.061 8.38489 316.073 8.86727 315.081 9.34633C314.093 9.82141 313.105 10.2899 312.112 10.7572L311.569 12.6254Z" fill="white"/>
</g>
<path d="M342.119 18.7799C340.702 19.6549 339.276 20.5242 337.841 21.3871C336.413 22.2426 334.98 23.0848 333.537 23.9249C330.652 25.6032 327.734 27.2576 324.784 28.8879C324.929 28.1983 325.072 27.5163 325.225 26.8246L325.646 24.9205L325.85 24.0149L326.281 22.1191L326.61 20.7018C327.146 18.4038 327.698 16.1182 328.267 13.8453L328.831 11.6147L329.417 9.37765L330.19 9.99156L330.976 10.5891L332.549 11.7853L334.121 12.9821C334.646 13.38 335.165 13.7852 335.701 14.1672L338.897 16.4916C339.429 16.8784 339.96 17.2686 340.495 17.652L342.119 18.7799Z" fill="#F7CE22"/>
<g opacity="0.33">
<path opacity="0.33" d="M336.791 14.9612L334.261 16.4267C333.417 16.9115 332.563 17.4022 331.72 17.8741C330.027 18.8247 328.323 19.7675 326.608 20.7013C327.144 18.4034 327.696 16.1178 328.265 13.8448C329.623 13.1058 330.973 12.3608 332.317 11.6106L334.54 13.3033L335.096 13.7266C335.282 13.8668 335.473 14.0017 335.66 14.139L336.791 14.9612Z" fill="white"/>
</g>
<g opacity="0.33">
<path opacity="0.33" d="M338.959 16.5382C336.809 17.8154 334.64 19.0794 332.452 20.3292C331.358 20.9542 330.259 21.5763 329.156 22.1937C328.054 22.8101 326.957 23.4111 325.85 24.0152L326.281 22.1193C327.245 21.5942 328.205 21.0665 329.162 20.5362L330.595 19.7385L332.029 18.9273C333.94 17.8406 335.838 16.7436 337.721 15.6362L338.959 16.5382Z" fill="white"/>
</g>
<g opacity="0.33">
<path opacity="0.33" d="M340.793 17.8591L339.833 18.4411L338.876 19.0133L336.956 20.1509C335.672 20.9073 334.382 21.6585 333.085 22.4057C330.492 23.8976 327.868 25.3764 325.225 26.8246L325.647 24.9205L327.404 23.9591C327.988 23.6376 328.576 23.3068 329.161 22.9798C330.331 22.3235 331.496 21.6626 332.656 20.9986C334.975 19.6698 337.273 18.3262 339.55 16.9672C339.962 17.266 340.371 17.5725 340.793 17.8591Z" fill="white"/>
</g>
<path d="M371.809 37.1025C370.506 38.1353 369.194 39.1633 367.872 40.1863C366.554 41.2029 365.228 42.2133 363.893 43.2196C362.559 44.2243 361.213 45.2285 359.863 46.2201C358.514 47.2088 357.157 48.1918 355.79 49.1705L356.022 46.6908C356.101 45.866 356.182 45.0418 356.271 44.2122L356.478 42.2752L356.638 40.8259C356.902 38.4771 357.184 36.1388 357.483 33.8108C357.68 32.2857 357.883 30.7656 358.094 29.2494L361.489 31.271L363.187 32.2822C363.328 32.3662 363.469 32.4523 363.612 32.5342L364.041 32.779L364.898 33.2685L366.614 34.2484C367.188 34.5722 367.766 34.8882 368.341 35.2083L370.069 36.1662L371.809 37.1025Z" fill="#ED5696"/>
<g opacity="0.33">
<path opacity="0.33" d="M366.07 33.9376C364.519 35.1037 362.957 36.2634 361.383 37.4166L360.199 38.2796L359.017 39.1305L356.639 40.8247C356.903 38.4759 357.185 36.1376 357.484 33.8096C358.744 32.918 359.996 32.0225 361.241 31.1217L363.642 32.5509L366.07 33.9376Z" fill="white"/>
</g>
<g opacity="0.33">
<path opacity="0.33" d="M368.409 35.2456C367.415 36.0083 366.416 36.7687 365.413 37.5264C364.408 38.286 363.405 39.0291 362.394 39.7772C361.383 40.5231 360.368 41.2667 359.346 42.0064L357.812 43.1143L357.042 43.666L356.273 44.2114L356.48 42.2744C357.376 41.6406 358.265 41.0083 359.154 40.3663C360.044 39.7213 360.932 39.0746 361.815 38.4261C363.583 37.1268 365.331 35.8257 367.071 34.5034L368.409 35.2456Z" fill="white"/>
</g>
<path d="M356.686 28.3871C353.969 30.2859 351.216 32.1637 348.428 34.0191C347.035 34.9472 345.632 35.8698 344.221 36.7859C342.814 37.6972 341.407 38.5896 339.987 39.4836C340.396 36.7909 340.827 34.1123 341.28 31.4488C341.676 29.1271 342.082 26.8261 342.529 24.5024C342.832 22.9075 343.143 21.3179 343.463 19.7338L345.086 20.8605C345.357 21.0474 345.626 21.2376 345.898 21.4224L346.722 21.9669L350.018 24.1458C350.568 24.5077 351.114 24.8766 351.668 25.2322L353.341 26.2828L356.686 28.3871Z" fill="#0CBAD2"/>
<g opacity="0.33">
<path opacity="0.33" d="M351.298 24.9955C348.008 27.1783 344.668 29.33 341.279 31.4488C341.675 29.1271 342.081 26.8262 342.527 24.5024L344.581 23.2207L346.635 21.912L351.298 24.9955Z" fill="white"/>
</g>
<ellipse opacity="0.25" cx="29.0005" cy="132" rx="99" ry="109" fill="white"/>
<path d="M46.2608 193.838C75.119 193.838 98.5132 187.232 98.5132 179.083C98.5132 170.934 75.119 164.328 46.2608 164.328C17.4025 164.328 -5.9917 170.934 -5.9917 179.083C-5.9917 187.232 17.4025 193.838 46.2608 193.838Z" fill="#FBD066"/>
<path d="M46.2596 191.129C72.3476 191.129 93.4962 185.736 93.4962 179.083C93.4962 172.43 72.3476 167.037 46.2596 167.037C20.1715 167.037 -0.977051 172.43 -0.977051 179.083C-0.977051 185.736 20.1715 191.129 46.2596 191.129Z" fill="#F8B100"/>
<path d="M7.6814 171.426C7.6814 174.473 9.35901 177.29 12.0792 178.783C17.3939 181.699 27.9852 185.665 46.2922 185.665C64.5992 185.665 75.1913 181.699 80.5053 178.783C83.2255 177.29 84.9031 174.474 84.9031 171.426V144.265H7.6814V171.426Z" fill="#0CBAD2"/>
<path d="M84.8281 144.202C84.8791 145.045 84.9029 146.231 84.7697 147.641C84.5897 149.54 84.4145 151.384 83.4759 153.241C82.29 155.585 79.7729 158.802 76.4116 158.858C74.698 158.887 72.875 158.227 71.3339 158.96C69.4077 159.878 69.0226 162.425 67.4903 163.888C66.0369 165.275 63.7371 165.47 61.7668 164.983C59.7964 164.497 58.0346 163.44 56.2028 162.579C54.371 161.72 52.3355 161.037 50.3339 161.377C46.0543 162.106 43.5216 167.136 39.2101 167.658C36.0946 168.035 33.3065 165.911 30.9103 163.93C28.5141 161.949 25.6819 159.857 22.5773 160.314C19.4394 160.775 18.9076 162.086 16.3035 161.648C12.82 161.061 10.7145 157.361 9.91165 155.949C8.71219 153.841 8.35697 151.942 8.03435 150.218C7.55077 147.632 7.57114 145.434 7.68253 143.915" fill="#EDD9C1"/>
<path d="M46.2922 155.119C67.6164 155.119 84.9031 150.237 84.9031 144.216C84.9031 138.195 67.6164 133.314 46.2922 133.314C24.9681 133.314 7.6814 138.195 7.6814 144.216C7.6814 150.237 24.9681 155.119 46.2922 155.119Z" fill="#FEFFFC"/>
<path d="M73.7833 140.341C73.7833 142.117 72.8338 143.765 71.2778 144.684C67.7262 146.78 60.069 149.952 46.2386 149.952C32.4081 149.952 24.7509 146.78 21.1994 144.684C19.6434 143.765 18.6938 142.117 18.6938 140.341V120.419H73.7833V140.341Z" fill="#ED5696"/>
<path d="M18.7468 120.374C18.7102 120.975 18.6932 121.822 18.789 122.827C18.9173 124.182 19.0423 125.498 19.712 126.822C20.5576 128.495 22.3534 130.79 24.7516 130.83C25.9741 130.851 27.2748 130.379 28.3737 130.903C29.7478 131.557 30.0228 133.374 31.1156 134.418C32.1528 135.409 33.793 135.547 35.199 135.2C36.6049 134.853 37.8614 134.099 39.1682 133.485C40.4749 132.872 41.9271 132.385 43.3554 132.628C46.4084 133.148 48.2157 136.736 51.2911 137.108C53.5134 137.377 55.5028 135.862 57.2123 134.448C58.9219 133.035 60.9425 131.543 63.1573 131.869C65.3959 132.197 65.7756 133.133 67.6332 132.82C70.1184 132.402 71.6201 129.762 72.1933 128.755C73.0491 127.251 73.3024 125.896 73.5327 124.667C73.8777 122.822 73.8635 121.254 73.784 120.17" fill="#EDD9C1"/>
<path d="M46.2386 128.161C61.4511 128.161 73.7833 124.679 73.7833 120.383C73.7833 116.088 61.4511 112.606 46.2386 112.606C31.026 112.606 18.6938 116.088 18.6938 120.383C18.6938 124.679 31.026 128.161 46.2386 128.161Z" fill="#FEFFFC"/>
<path d="M62.3375 117.374C62.3375 118.412 61.786 119.378 60.8772 119.915C58.8057 121.138 54.338 122.99 46.2664 122.99C38.1949 122.99 33.7264 121.138 31.6556 119.915C30.7468 119.378 30.1953 118.412 30.1953 117.374V105.41H62.3382V117.374H62.3375Z" fill="#F7CE22"/>
<path d="M30.3262 105.369C30.1985 105.853 29.8114 107.57 30.7446 109.335C30.9001 109.63 31.8075 111.345 33.625 111.845C34.5684 112.104 35.1919 111.774 35.9574 111.803C38.4976 111.901 40.4455 114.288 42.9762 114.525C45.788 114.789 48.3995 112.32 51.1679 112.867C52.2791 113.086 53.2571 113.779 54.3798 113.93C55.3559 114.061 56.3522 113.764 57.2053 113.283C58.0584 112.802 58.7912 112.145 59.5166 111.493C60.6271 110.496 61.1487 109.962 61.5684 109.244C61.9033 108.671 62.5207 107.381 62.3434 105.37" fill="#EDD9C1"/>
<path d="M46.2664 109.927C55.1422 109.927 62.3375 107.896 62.3375 105.39C62.3375 102.884 55.1422 100.852 46.2664 100.852C37.3906 100.852 30.1953 102.884 30.1953 105.39C30.1953 107.896 37.3906 109.927 46.2664 109.927Z" fill="#FEFFFC"/>
<path d="M47.6306 105.162C47.3094 105.33 46.8727 105.493 46.3517 105.502C45.7873 105.512 45.3166 105.338 44.9797 105.162V83.1306C44.9797 81.993 45.5598 81.072 46.2784 81.0632C46.2994 81.0632 46.3211 81.0632 46.3429 81.0632C46.3483 81.0632 46.3537 81.0632 46.3592 81.0639C47.0669 81.0815 47.63 82.01 47.63 83.13V105.162H47.6306Z" fill="#F7CE22"/>
<g opacity="0.55">
<path opacity="0.55" d="M48.7904 83.8636C46.9498 86.2666 44.8321 87.2433 42.7395 86.6537C42.7864 85.7422 42.8332 84.8308 42.8801 83.9193C44.7255 84.4396 46.5939 83.5777 48.2179 81.4579C48.4087 82.2593 48.5996 83.0615 48.7904 83.8636Z" fill="white"/>
<path opacity="0.55" d="M49.9698 88.8293C47.6816 91.8171 45.0483 93.0315 42.447 92.2986C42.4939 91.3871 42.5408 90.4757 42.5876 89.5642C44.9424 90.2278 47.3264 89.1281 49.3972 86.4236C49.5881 87.2257 49.7789 88.0278 49.9698 88.8293Z" fill="white"/>
<path opacity="0.55" d="M51.153 93.7961C48.4165 97.3686 45.2677 98.8208 42.1577 97.9446C42.2046 97.0331 42.2514 96.1216 42.2983 95.2102C45.1618 96.017 48.0613 94.6804 50.5804 91.3911C50.7706 92.1918 50.9621 92.9939 51.153 93.7961Z" fill="white"/>
<path opacity="0.55" d="M52.3357 98.7616C49.1517 102.919 45.4874 104.609 41.8687 103.589C41.9155 102.677 41.9624 101.766 42.0092 100.854C45.3821 101.804 48.7964 100.23 51.7632 96.3559C51.954 97.158 52.1449 97.9602 52.3357 98.7616Z" fill="white"/>
</g>
<path d="M48.1841 78.4678C48.1841 80.3859 47.0471 80.7825 46.3054 80.7825C45.5637 80.7825 44.4268 80.3852 44.4268 78.4678C44.4268 76.5505 46.3054 73.8378 46.3054 73.8378C46.3054 73.8378 48.1841 76.5505 48.1841 78.4678Z" fill="#F8B100"/>
<path d="M47.5392 79.2649C47.5392 80.5235 46.7935 80.7836 46.3065 80.7836C45.8195 80.7836 45.0737 80.5228 45.0737 79.2649C45.0737 78.007 46.3065 76.2269 46.3065 76.2269C46.3065 76.2269 47.5392 78.0064 47.5392 79.2649Z" fill="#FFED00"/>
<path d="M27.732 119.418C27.4325 119.621 27.0182 119.832 26.502 119.9C25.9423 119.974 25.4547 119.854 25.0995 119.718L22.4859 97.8343C22.3508 96.7048 22.818 95.7241 23.5305 95.6337C23.5516 95.631 23.5733 95.629 23.5944 95.6269C23.5998 95.6263 23.6052 95.6256 23.6107 95.6256C24.3157 95.5631 24.9854 96.4216 25.1185 97.5341L27.732 119.418Z" fill="#ED5696"/>
<g opacity="0.55">
<path opacity="0.55" d="M26.3574 98.1311C24.8143 100.726 22.8263 101.937 20.6786 101.588C20.6168 100.677 20.5557 99.7666 20.4939 98.8558C22.3888 99.1635 24.1425 98.0958 25.5036 95.8069C25.7882 96.5812 26.0728 97.3561 26.3574 98.1311Z" fill="white"/>
<path opacity="0.55" d="M28.1206 102.93C26.2019 106.157 23.7303 107.661 21.0597 107.227C20.9979 106.316 20.9368 105.406 20.875 104.495C23.2923 104.888 25.5295 103.526 27.2662 100.605C27.5515 101.381 27.8361 102.155 28.1206 102.93Z" fill="white"/>
<path opacity="0.55" d="M29.8864 107.728C27.5928 111.587 24.6369 113.385 21.444 112.867C21.3822 111.956 21.3211 111.045 21.2593 110.135C24.1995 110.613 26.9204 108.956 29.0327 105.404C29.3172 106.178 29.6018 106.953 29.8864 107.728Z" fill="white"/>
<path opacity="0.55" d="M31.649 112.528C28.9798 117.018 25.541 119.111 21.8251 118.508C21.7633 117.597 21.7022 116.687 21.6404 115.776C25.1029 116.338 28.308 114.388 30.7952 110.204C31.0798 110.978 31.3644 111.753 31.649 112.528Z" fill="white"/>
</g>
<path d="M25.1037 92.8413C25.3312 94.7464 24.2493 95.2694 23.5123 95.3536C22.7754 95.4379 21.599 95.1716 21.3715 93.2672C21.144 91.362 22.6885 88.4557 22.6885 88.4557C22.6885 88.4557 24.8762 90.9362 25.1037 92.8413Z" fill="#F8B100"/>
<path d="M24.5539 93.7056C24.7033 94.9553 23.9935 95.299 23.5099 95.354C23.0264 95.409 22.2548 95.2344 22.1054 93.9847C21.9559 92.735 22.9693 90.8278 22.9693 90.8278C22.9693 90.8278 24.4044 92.4559 24.5539 93.7056Z" fill="#FFED00"/>
<path d="M16.1084 142.627C15.819 142.843 15.4156 143.073 14.9028 143.165C14.3472 143.264 13.8541 143.167 13.4928 143.047L9.8333 121.307C9.64449 120.184 10.0642 119.184 10.7713 119.061C10.7923 119.057 10.8134 119.054 10.8351 119.051C10.8405 119.05 10.846 119.049 10.8514 119.049C11.5523 118.954 12.2628 119.781 12.4489 120.886L16.1084 142.627Z" fill="#0CBAD2"/>
<g opacity="0.55">
<path opacity="0.55" d="M13.7173 121.426C12.3005 124.089 10.3722 125.388 8.21036 125.138C8.10508 124.232 7.99981 123.325 7.89453 122.418C9.80171 122.639 11.5024 121.493 12.7528 119.143C13.0747 119.904 13.396 120.665 13.7173 121.426Z" fill="white"/>
<path opacity="0.55" d="M15.7104 126.139C13.9486 129.45 11.5517 131.066 8.86343 130.755C8.75816 129.848 8.65288 128.941 8.54761 128.035C10.9812 128.317 13.1505 126.854 14.7453 123.856C15.0672 124.618 15.3891 125.378 15.7104 126.139Z" fill="white"/>
<path opacity="0.55" d="M17.6969 130.852C15.5907 134.811 12.7245 136.743 9.50992 136.371C9.40464 135.465 9.29937 134.558 9.19409 133.651C12.154 133.994 14.7927 132.215 16.7318 128.569C17.0537 129.33 17.3757 130.091 17.6969 130.852Z" fill="white"/>
<path opacity="0.55" d="M19.6896 135.565C17.2384 140.172 13.9036 142.42 10.1632 141.988C10.058 141.081 9.95269 140.174 9.84741 139.267C13.333 139.671 16.441 137.575 18.7252 133.283C19.0464 134.043 19.3684 134.804 19.6896 135.565Z" fill="white"/>
</g>
<path d="M12.2228 116.198C12.5414 118.09 11.4859 118.663 10.7537 118.78C10.0216 118.898 8.83434 118.686 8.5158 116.793C8.19726 114.901 9.60047 111.927 9.60047 111.927C9.60047 111.927 11.9043 114.306 12.2228 116.198Z" fill="#F8B100"/>
<path d="M11.7212 117.086C11.9304 118.327 11.2376 118.703 10.7574 118.78C10.2772 118.857 9.49816 118.718 9.28897 117.476C9.07978 116.235 10.0008 114.283 10.0008 114.283C10.0008 114.283 11.512 115.844 11.7212 117.086Z" fill="#FFED00"/>
<path d="M79.4523 143.602C79.1066 143.714 78.6475 143.801 78.1333 143.724C77.575 143.64 77.1424 143.39 76.8408 143.161L80.6905 121.452C80.8895 120.331 81.6217 119.52 82.3314 119.631C82.3525 119.635 82.3735 119.638 82.3946 119.642C82.4 119.644 82.4055 119.644 82.4109 119.646C83.105 119.782 83.4983 120.789 83.302 121.894L79.4523 143.602Z" fill="#0CBAD2"/>
<g opacity="0.55">
<path opacity="0.55" d="M84.3156 122.81C82.0824 124.87 79.8248 125.48 77.866 124.551C78.0711 123.66 78.2769 122.77 78.482 121.88C80.2099 122.7 82.2013 122.163 84.1716 120.344C84.2198 121.165 84.2681 121.988 84.3156 122.81Z" fill="white"/>
<path opacity="0.55" d="M84.6155 127.901C81.839 130.463 79.0318 131.22 76.5969 130.064C76.802 129.174 77.0078 128.284 77.213 127.394C79.4169 128.44 81.9578 127.755 84.4715 125.435C84.5197 126.256 84.5673 127.079 84.6155 127.901Z" fill="white"/>
<path opacity="0.55" d="M84.9129 132.991C81.593 136.055 78.2364 136.961 75.3247 135.579C75.5298 134.688 75.7356 133.798 75.9407 132.908C78.6215 134.181 81.7119 133.347 84.7682 130.525C84.8171 131.347 84.8647 132.168 84.9129 132.991Z" fill="white"/>
<path opacity="0.55" d="M85.2094 138.081C81.3454 141.646 77.4401 142.7 74.0522 141.092C74.2574 140.201 74.4632 139.311 74.6683 138.421C77.8252 139.92 81.465 138.937 85.0654 135.615C85.1136 136.437 85.1618 137.259 85.2094 138.081Z" fill="white"/>
</g>
<path d="M84.6524 117.392C84.3175 119.281 83.1276 119.483 82.3968 119.359C81.666 119.236 80.6152 118.655 80.9501 116.765C81.2849 114.875 83.6098 112.516 83.6098 112.516C83.6098 112.516 84.9879 115.502 84.6524 117.392Z" fill="#F8B100"/>
<path d="M83.8767 118.07C83.6567 119.309 82.8763 119.442 82.3968 119.361C81.9173 119.28 81.2279 118.899 81.4479 117.659C81.668 116.42 83.1935 114.872 83.1935 114.872C83.1935 114.872 84.0968 116.83 83.8767 118.07Z" fill="#FFED00"/>
<path d="M67.4867 119.716C67.1471 119.844 66.6934 119.954 66.1751 119.901C65.6134 119.844 65.1679 119.616 64.8555 119.401L67.5906 97.5319C67.7319 96.4031 68.4219 95.5575 69.1364 95.6336C69.1575 95.6356 69.1792 95.6384 69.2003 95.6411C69.2057 95.6417 69.2111 95.6424 69.2166 95.6431C69.9168 95.745 70.361 96.7325 70.2218 97.8451L67.4867 119.716Z" fill="#ED5696"/>
<g opacity="0.55">
<path opacity="0.55" d="M71.2778 98.7111C69.1526 100.878 66.9289 101.597 64.9253 100.764C65.0849 99.865 65.2445 98.9658 65.4041 98.0665C67.1714 98.8014 69.1329 98.1671 71.0082 96.2551C71.0978 97.0736 71.1881 97.892 71.2778 98.7111Z" fill="white"/>
<path opacity="0.55" d="M71.8337 103.781C69.1916 106.476 66.4266 107.369 63.9353 106.333C64.0949 105.434 64.2545 104.534 64.4141 103.635C66.6691 104.572 69.1719 103.764 71.5633 101.325C71.6537 102.143 71.744 102.962 71.8337 103.781Z" fill="white"/>
<path opacity="0.55" d="M72.3888 108.85C69.2292 112.072 65.9236 113.141 62.9453 111.903C63.1049 111.003 63.2645 110.104 63.4241 109.205C66.1667 110.345 69.2102 109.361 72.1192 106.395C72.2088 107.213 72.2985 108.032 72.3888 108.85Z" fill="white"/>
<path opacity="0.55" d="M72.9481 113.92C69.2716 117.669 65.4247 118.912 61.9587 117.471C62.1184 116.572 62.278 115.673 62.4376 114.773C65.6671 116.116 69.2519 114.957 72.6778 111.464C72.7681 112.283 72.8578 113.101 72.9481 113.92Z" fill="white"/>
</g>
<path d="M71.3584 93.2855C71.12 95.1893 69.9429 95.4487 69.206 95.3611C68.4698 95.2735 67.3905 94.7444 67.6289 92.8406C67.8673 90.9368 70.0686 88.4673 70.0686 88.4673C70.0686 88.4673 71.5961 91.3817 71.3584 93.2855Z" fill="#F8B100"/>
<path d="M70.6154 93.9983C70.4592 95.2473 69.6863 95.4178 69.2034 95.36C68.7205 95.3023 68.0121 94.9552 68.1683 93.7062C68.3245 92.4572 69.7692 90.8366 69.7692 90.8366C69.7692 90.8366 70.7716 92.7492 70.6154 93.9983Z" fill="#FFED00"/>
<path d="M16.787 142.135C17.0404 142.198 17.2937 142.285 17.4941 142.445C17.6944 142.605 17.8337 142.849 17.8024 143.094C17.7705 143.345 17.5688 143.553 17.3324 143.671C17.0961 143.789 16.8271 143.833 16.5636 143.875C15.5624 144.034 14.5613 144.193 13.5602 144.351C13.2362 144.403 12.9027 144.454 12.5815 144.39C10.9541 144.061 13.0012 142.73 13.6037 142.454C14.583 142.007 15.7302 141.872 16.787 142.135Z" fill="#EBDAC0"/>
<path d="M28.2997 118.576C28.5531 118.639 28.8064 118.726 29.0068 118.886C29.2071 119.045 29.3464 119.29 29.3151 119.535C29.2832 119.786 29.0815 119.993 28.8451 120.112C28.6088 120.23 28.3398 120.273 28.0763 120.315C27.0751 120.474 26.074 120.633 25.0729 120.792C24.7489 120.844 24.4154 120.895 24.0942 120.83C22.4668 120.502 24.5139 119.17 25.1163 118.895C26.0957 118.448 27.2436 118.313 28.2997 118.576Z" fill="#EBDAC0"/>
<path d="M64.0508 118.576C63.7974 118.639 63.5441 118.726 63.3437 118.886C63.1434 119.045 63.0041 119.29 63.0354 119.535C63.0673 119.786 63.269 119.993 63.5054 120.112C63.7417 120.23 64.0107 120.273 64.2742 120.315C65.2754 120.474 66.2765 120.633 67.2776 120.792C67.6016 120.844 67.9351 120.895 68.2564 120.83C69.8837 120.502 67.8366 119.17 67.2342 118.895C66.2548 118.448 65.1076 118.313 64.0508 118.576Z" fill="#EBDAC0"/>
<path d="M76.0772 142.7C75.8238 142.763 75.5705 142.85 75.3701 143.01C75.1697 143.17 75.0305 143.414 75.0618 143.659C75.0937 143.91 75.2954 144.118 75.5318 144.236C75.7681 144.354 76.0371 144.398 76.3006 144.44C77.3017 144.599 78.3029 144.758 79.304 144.917C79.628 144.968 79.9615 145.019 80.2827 144.955C81.9101 144.627 79.863 143.295 79.2605 143.02C78.2811 142.573 77.134 142.437 76.0772 142.7Z" fill="#EBDAC0"/>
<path d="M48.238 104.568C48.4805 104.663 48.7203 104.782 48.8975 104.966C49.0741 105.15 49.1794 105.41 49.1155 105.649C49.0503 105.893 48.8221 106.073 48.5722 106.16C48.3222 106.247 48.0499 106.256 47.783 106.264C46.7689 106.293 45.7549 106.321 44.7415 106.351C44.4135 106.36 44.0759 106.368 43.7662 106.263C42.1973 105.729 44.406 104.672 45.0397 104.476C46.0707 104.159 47.226 104.172 48.238 104.568Z" fill="#EBDAC0"/>
<path d="M34.4612 105.502C34.9586 105.502 35.3618 105.108 35.3618 104.622C35.3618 104.136 34.9586 103.743 34.4612 103.743C33.9638 103.743 33.5605 104.136 33.5605 104.622C33.5605 105.108 33.9638 105.502 34.4612 105.502Z" fill="#F7CE22"/>
<path d="M40.3774 103.994C40.8748 103.994 41.278 103.6 41.278 103.114C41.278 102.628 40.8748 102.235 40.3774 102.235C39.88 102.235 39.4768 102.628 39.4768 103.114C39.4768 103.6 39.88 103.994 40.3774 103.994Z" fill="#F7CE22"/>
<path d="M40.3774 108.391C40.8748 108.391 41.278 107.998 41.278 107.512C41.278 107.026 40.8748 106.632 40.3774 106.632C39.88 106.632 39.4768 107.026 39.4768 107.512C39.4768 107.998 39.88 108.391 40.3774 108.391Z" fill="#F7CE22"/>
<path d="M57.8706 105.502C58.368 105.502 58.7712 105.108 58.7712 104.622C58.7712 104.136 58.368 103.743 57.8706 103.743C57.3732 103.743 56.97 104.136 56.97 104.622C56.97 105.108 57.3732 105.502 57.8706 105.502Z" fill="#F7CE22"/>
<path d="M51.9546 103.994C52.452 103.994 52.8552 103.6 52.8552 103.114C52.8552 102.628 52.452 102.235 51.9546 102.235C51.4572 102.235 51.054 102.628 51.054 103.114C51.054 103.6 51.4572 103.994 51.9546 103.994Z" fill="#F7CE22"/>
<path d="M51.9546 108.391C52.452 108.391 52.8552 107.998 52.8552 107.512C52.8552 107.026 52.452 106.632 51.9546 106.632C51.4572 106.632 51.054 107.026 51.054 107.512C51.054 107.998 51.4572 108.391 51.9546 108.391Z" fill="#F7CE22"/>
<path d="M46.1643 108.391C46.6617 108.391 47.0649 107.998 47.0649 107.512C47.0649 107.026 46.6617 106.632 46.1643 106.632C45.6669 106.632 45.2637 107.026 45.2637 107.512C45.2637 107.998 45.6669 108.391 46.1643 108.391Z" fill="#F7CE22"/>
<path d="M46.3025 126.421C46.7999 126.421 47.2031 126.027 47.2031 125.541C47.2031 125.055 46.7999 124.662 46.3025 124.662C45.8051 124.662 45.4019 125.055 45.4019 125.541C45.4019 126.027 45.8051 126.421 46.3025 126.421Z" fill="#ED5696"/>
<path d="M36.8484 125.101C37.3458 125.101 37.749 124.707 37.749 124.222C37.749 123.736 37.3458 123.342 36.8484 123.342C36.351 123.342 35.9478 123.736 35.9478 124.222C35.9478 124.707 36.351 125.101 36.8484 125.101Z" fill="#ED5696"/>
<path d="M28.4248 122.965C28.9222 122.965 29.3254 122.571 29.3254 122.086C29.3254 121.6 28.9222 121.206 28.4248 121.206C27.9274 121.206 27.5242 121.6 27.5242 122.086C27.5242 122.571 27.9274 122.965 28.4248 122.965Z" fill="#ED5696"/>
<path d="M55.7568 125.101C56.2542 125.101 56.6574 124.707 56.6574 124.222C56.6574 123.736 56.2542 123.342 55.7568 123.342C55.2594 123.342 54.8562 123.736 54.8562 124.222C54.8562 124.707 55.2594 125.101 55.7568 125.101Z" fill="#ED5696"/>
<path d="M64.1804 122.965C64.6778 122.965 65.081 122.571 65.081 122.086C65.081 121.6 64.6778 121.206 64.1804 121.206C63.683 121.206 63.2798 121.6 63.2798 122.086C63.2798 122.571 63.683 122.965 64.1804 122.965Z" fill="#ED5696"/>
<path d="M46.1672 154C46.6646 154 47.0678 153.607 47.0678 153.121C47.0678 152.635 46.6646 152.241 46.1672 152.241C45.6698 152.241 45.2666 152.635 45.2666 153.121C45.2666 153.607 45.6698 154 46.1672 154Z" fill="#0CBAD2"/>
<path d="M34.7195 152.744C35.2169 152.744 35.6201 152.35 35.6201 151.864C35.6201 151.378 35.2169 150.985 34.7195 150.985C34.2221 150.985 33.8188 151.378 33.8188 151.864C33.8188 152.35 34.2221 152.744 34.7195 152.744Z" fill="#0CBAD2"/>
<path d="M24.0437 150.293C24.5411 150.293 24.9443 149.899 24.9443 149.413C24.9443 148.928 24.5411 148.534 24.0437 148.534C23.5463 148.534 23.1431 148.928 23.1431 149.413C23.1431 149.899 23.5463 150.293 24.0437 150.293Z" fill="#0CBAD2"/>
<path d="M16.0693 147.404C16.5667 147.404 16.9699 147.01 16.9699 146.525C16.9699 146.039 16.5667 145.645 16.0693 145.645C15.5719 145.645 15.1687 146.039 15.1687 146.525C15.1687 147.01 15.5719 147.404 16.0693 147.404Z" fill="#0CBAD2"/>
<path d="M16.9675 139.927C17.4649 139.927 17.8681 139.534 17.8681 139.048C17.8681 138.562 17.4649 138.168 16.9675 138.168C16.4701 138.168 16.0669 138.562 16.0669 139.048C16.0669 139.534 16.4701 139.927 16.9675 139.927Z" fill="#0CBAD2"/>
<path d="M46.1723 153.999C46.6697 153.999 47.073 153.605 47.073 153.119C47.073 152.634 46.6697 152.24 46.1723 152.24C45.6749 152.24 45.2717 152.634 45.2717 153.119C45.2717 153.605 45.6749 153.999 46.1723 153.999Z" fill="#0CBAD2"/>
<path d="M57.6203 152.742C58.1177 152.742 58.521 152.349 58.521 151.863C58.521 151.377 58.1177 150.983 57.6203 150.983C57.1229 150.983 56.7197 151.377 56.7197 151.863C56.7197 152.349 57.1229 152.742 57.6203 152.742Z" fill="#0CBAD2"/>
<path d="M68.2959 150.292C68.7933 150.292 69.1965 149.898 69.1965 149.412C69.1965 148.926 68.7933 148.532 68.2959 148.532C67.7985 148.532 67.3953 148.926 67.3953 149.412C67.3953 149.898 67.7985 150.292 68.2959 150.292Z" fill="#0CBAD2"/>
<path d="M76.2702 147.403C76.7676 147.403 77.1709 147.009 77.1709 146.523C77.1709 146.037 76.7676 145.644 76.2702 145.644C75.7728 145.644 75.3696 146.037 75.3696 146.523C75.3696 147.009 75.7728 147.403 76.2702 147.403Z" fill="#0CBAD2"/>
<path d="M75.3689 139.926C75.8663 139.926 76.2695 139.532 76.2695 139.046C76.2695 138.561 75.8663 138.167 75.3689 138.167C74.8715 138.167 74.4683 138.561 74.4683 139.046C74.4683 139.532 74.8715 139.926 75.3689 139.926Z" fill="#0CBAD2"/>
<path d="M-10.7716 96.6093L-10.6414 96.6722L18.321 36.709L18.1908 36.6461L-10.7716 96.6093Z" fill="#90C63E"/>
<path d="M18.1893 35.9832C17.8321 36.2119 17.374 36.5876 17.2501 36.713C17.2569 36.7256 17.4136 36.9284 17.9685 37.189C18.5105 37.4435 18.7276 37.4366 18.7468 37.436C18.7946 37.1276 18.7782 36.6103 18.7314 36.2441C21.0076 36.7506 30.9553 35.31 35.2778 26.3465C38.2835 20.1133 36.3266 12.9409 30.9017 10.322C25.4801 7.70621 18.6454 10.637 15.6398 16.8702C11.2211 26.0285 16.3728 34.551 18.1893 35.9832Z" fill="#ED5696"/>
<path d="M25.5438 11.1619C25.5438 11.1619 20.1085 12.0471 17.6519 17.1472C15.1954 22.2472 15.9495 26.6733 16.6485 30.0686C16.6485 30.0686 15.8713 17.9548 25.5438 11.1619Z" fill="#EEF7E2"/>
<path d="M-13.8417 87.7898L-13.7737 87.86L18.5628 56.552L18.4948 56.4818L-13.8417 87.7898Z" fill="#90C63E"/>
<path d="M18.6499 56.0614C18.37 56.1234 17.9919 56.2552 17.884 56.306C17.8854 56.3155 17.9376 56.4807 18.2291 56.7752C18.5137 57.0629 18.6532 57.1091 18.6655 57.1132C18.7676 56.9286 18.8776 56.5965 18.9331 56.3532C20.2596 57.2045 26.9073 58.606 31.7367 53.9244C35.0949 50.6688 35.5228 45.662 32.6901 42.7373C29.8586 39.8154 24.8395 40.0841 21.4812 43.3397C16.5455 48.1226 17.8306 54.7298 18.6499 56.0614Z" fill="#0CBAD2"/>
<path d="M29.0953 42.0234C29.0953 42.0234 25.4402 41.3199 22.6942 43.9843C19.9482 46.6488 19.3964 49.6329 19.0496 51.9501C19.0496 51.9501 21.3763 44.0823 29.0953 42.0234Z" fill="#EEF7E2"/>
<path d="M255.512 108.514C256.884 108.514 257.996 107.402 257.996 106.031C257.996 104.659 256.884 103.548 255.512 103.548C254.14 103.548 253.028 104.659 253.028 106.031C253.028 107.402 254.14 108.514 255.512 108.514Z" fill="#0CBAD2"/>
<path d="M262.175 178.319C263.547 178.319 264.659 177.207 264.659 175.836C264.659 174.464 263.547 173.353 262.175 173.353C260.803 173.353 259.691 174.464 259.691 175.836C259.691 177.207 260.803 178.319 262.175 178.319Z" fill="#ED5696"/>
<path d="M309.288 86.0397C310.659 86.0397 311.772 84.928 311.772 83.5567C311.772 82.1853 310.659 81.0736 309.288 81.0736C307.916 81.0736 306.803 82.1853 306.803 83.5567C306.803 84.928 307.916 86.0397 309.288 86.0397Z" fill="#F7CE22"/>
<path d="M242.85 158.802C243.872 158.802 244.7 157.974 244.7 156.953C244.7 155.931 243.872 155.104 242.85 155.104C241.828 155.104 241 155.931 241 156.953C241 157.974 241.828 158.802 242.85 158.802Z" fill="#0CBAD2"/>
<path d="M351.604 99.5006C352.626 99.5006 353.455 98.6727 353.455 97.6515C353.455 96.6303 352.626 95.8025 351.604 95.8025C350.583 95.8025 349.754 96.6303 349.754 97.6515C349.754 98.6727 350.583 99.5006 351.604 99.5006Z" fill="#0CBAD2"/>
<path d="M260.288 58.6981C261.309 58.6981 262.138 57.8702 262.138 56.849C262.138 55.8278 261.309 55 260.288 55C259.266 55 258.438 55.8278 258.438 56.849C258.438 57.8702 259.266 58.6981 260.288 58.6981Z" fill="#ED5696"/>
<path d="M259.918 143.641C260.94 143.641 261.768 142.814 261.768 141.792C261.768 140.771 260.94 139.943 259.918 139.943C258.896 139.943 258.068 140.771 258.068 141.792C258.068 142.814 258.896 143.641 259.918 143.641Z" fill="#F7CE22"/>
<path d="M236.494 17.2995C237.866 17.2995 238.978 16.1878 238.978 14.8165C238.978 13.4451 237.866 12.3334 236.494 12.3334C235.122 12.3334 234.01 13.4451 234.01 14.8165C234.01 16.1878 235.122 17.2995 236.494 17.2995Z" fill="#0CBAD2"/>
<path d="M138.011 53.2664C139.383 53.2664 140.495 52.1547 140.495 50.7833C140.495 49.412 139.383 48.3003 138.011 48.3003C136.639 48.3003 135.527 49.412 135.527 50.7833C135.527 52.1547 136.639 53.2664 138.011 53.2664Z" fill="#0CBAD2"/>
<path d="M7.51167 63.5138C8.8836 63.5138 9.99576 62.4021 9.99576 61.0308C9.99576 59.6594 8.8836 58.5477 7.51167 58.5477C6.13975 58.5477 5.02759 59.6594 5.02759 61.0308C5.02759 62.4021 6.13975 63.5138 7.51167 63.5138Z" fill="#0CBAD2"/>
<path d="M177.844 18.7838C179.216 18.7838 180.328 17.6721 180.328 16.3007C180.328 14.9294 179.216 13.8177 177.844 13.8177C176.472 13.8177 175.36 14.9294 175.36 16.3007C175.36 17.6721 176.472 18.7838 177.844 18.7838Z" fill="#ED5696"/>
<path d="M277.704 111.125C279.076 111.125 280.188 110.013 280.188 108.642C280.188 107.271 279.076 106.159 277.704 106.159C276.332 106.159 275.22 107.271 275.22 108.642C275.22 110.013 276.332 111.125 277.704 111.125Z" fill="#ED5696"/>
<path d="M14.175 133.319C15.5469 133.319 16.6591 132.207 16.6591 130.836C16.6591 129.464 15.5469 128.353 14.175 128.353C12.8031 128.353 11.6909 129.464 11.6909 130.836C11.6909 132.207 12.8031 133.319 14.175 133.319Z" fill="#ED5696"/>
<path d="M164.853 129.321C166.225 129.321 167.337 128.21 167.337 126.838C167.337 125.467 166.225 124.355 164.853 124.355C163.481 124.355 162.369 125.467 162.369 126.838C162.369 128.21 163.481 129.321 164.853 129.321Z" fill="#F7CE22"/>
<path d="M61.2875 41.0397C62.6595 41.0397 63.7716 39.928 63.7716 38.5567C63.7716 37.1853 62.6595 36.0736 61.2875 36.0736C59.9156 36.0736 58.8035 37.1853 58.8035 38.5567C58.8035 39.928 59.9156 41.0397 61.2875 41.0397Z" fill="#F7CE22"/>
<path d="M211.252 28.7979C212.624 28.7979 213.736 27.6862 213.736 26.3148C213.736 24.9435 212.624 23.8318 211.252 23.8318C209.88 23.8318 208.768 24.9435 208.768 26.3148C208.768 27.6862 209.88 28.7979 211.252 28.7979Z" fill="#F7CE22"/>
<path d="M193.389 115.303C194.411 115.303 195.239 114.475 195.239 113.454C195.239 112.432 194.411 111.604 193.389 111.604C192.367 111.604 191.539 112.432 191.539 113.454C191.539 114.475 192.367 115.303 193.389 115.303Z" fill="#0CBAD2"/>
<path d="M103.604 54.5006C104.626 54.5006 105.455 53.6727 105.455 52.6515C105.455 51.6303 104.626 50.8025 103.604 50.8025C102.583 50.8025 101.754 51.6303 101.754 52.6515C101.754 53.6727 102.583 54.5006 103.604 54.5006Z" fill="#0CBAD2"/>
<path d="M12.2876 13.6981C13.3093 13.6981 14.1376 12.8702 14.1376 11.849C14.1376 10.8278 13.3093 10 12.2876 10C11.2658 10 10.4375 10.8278 10.4375 11.849C10.4375 12.8702 11.2658 13.6981 12.2876 13.6981Z" fill="#ED5696"/>
<path d="M141.838 30.0794C142.86 30.0794 143.688 29.2516 143.688 28.2304C143.688 27.2092 142.86 26.3813 141.838 26.3813C140.816 26.3813 139.988 27.2092 139.988 28.2304C139.988 29.2516 140.816 30.0794 141.838 30.0794Z" fill="#ED5696"/>
<path d="M160.036 151.279C161.058 151.279 161.886 150.451 161.886 149.43C161.886 148.409 161.058 147.581 160.036 147.581C159.014 147.581 158.186 148.409 158.186 149.43C158.186 150.451 159.014 151.279 160.036 151.279Z" fill="#ED5696"/>
<path d="M265.112 83.3656C266.134 83.3656 266.962 82.5378 266.962 81.5166C266.962 80.4954 266.134 79.6675 265.112 79.6675C264.09 79.6675 263.262 80.4954 263.262 81.5166C263.262 82.5378 264.09 83.3656 265.112 83.3656Z" fill="#F7CE22"/>
<path d="M270.299 22.5233C271.321 22.5233 272.149 21.6954 272.149 20.6742C272.149 19.653 271.321 18.8252 270.299 18.8252C269.277 18.8252 268.449 19.653 268.449 20.6742C268.449 21.6954 269.277 22.5233 270.299 22.5233Z" fill="#F7CE22"/>
<path d="M177.697 64.3382C178.719 64.3382 179.547 63.5104 179.547 62.4892C179.547 61.468 178.719 60.6401 177.697 60.6401C176.675 60.6401 175.847 61.468 175.847 62.4892C175.847 63.5104 176.675 64.3382 177.697 64.3382Z" fill="#F7CE22"/>
<path d="M11.9179 98.6414C12.9397 98.6414 13.768 97.8136 13.768 96.7924C13.768 95.7712 12.9397 94.9434 11.9179 94.9434C10.8962 94.9434 10.0679 95.7712 10.0679 96.7924C10.0679 97.8136 10.8962 98.6414 11.9179 98.6414Z" fill="#F7CE22"/>
<path d="M135.93 71.1456H148.102C148.935 71.1456 149.75 71.2197 150.557 71.3679C151.36 71.5162 152.072 71.7742 152.691 72.1448C153.311 72.5154 153.809 73.0046 154.189 73.6154C154.568 74.2262 154.758 74.9942 154.758 75.9163C154.758 77.2476 154.417 78.2883 153.732 79.0355C153.047 79.7827 152.06 80.3252 150.764 80.6573V80.7137C151.428 80.8056 152.036 80.9953 152.582 81.2829C153.127 81.5705 153.584 81.9175 153.954 82.3237C154.325 82.7299 154.61 83.1776 154.814 83.6698C155.019 84.159 155.12 84.6453 155.12 85.1256C155.12 86.3442 154.894 87.3108 154.441 88.0224C153.987 88.734 153.391 89.2736 152.653 89.6443C151.915 90.0149 151.064 90.2491 150.103 90.3499C149.142 90.4508 148.161 90.5012 147.165 90.5012H135.933V71.1456H135.93ZM142.919 78.5492H144.778C145.11 78.5492 145.439 78.5225 145.762 78.4662C146.085 78.4098 146.376 78.315 146.637 78.1756C146.895 78.0363 147.102 77.8465 147.259 77.6063C147.417 77.3662 147.494 77.0608 147.494 76.6901C147.494 75.9696 147.236 75.4745 146.717 75.2076C146.198 74.9408 145.608 74.8044 144.941 74.8044H142.916V78.5492H142.919ZM142.919 86.5073H144.861C145.193 86.5073 145.531 86.4747 145.872 86.4095C146.213 86.3442 146.518 86.2345 146.788 86.0774C147.055 85.9202 147.274 85.7127 147.44 85.4547C147.606 85.1968 147.689 84.8825 147.689 84.5118C147.689 84.1056 147.609 83.7736 147.455 83.5126C147.298 83.2547 147.09 83.0501 146.833 82.9018C146.575 82.7536 146.278 82.6558 145.946 82.6113C145.614 82.5668 145.27 82.5431 144.92 82.5431H142.925V86.5073H142.919Z" fill="white"/>
<path d="M165.875 74.5284H158.887V69.7043H165.875V74.5284ZM158.887 76.0524H165.875V90.498H158.887V76.0524Z" fill="white"/>
<path d="M176.581 76.0524V79.3258H176.637C176.842 78.8099 177.085 78.3325 177.373 77.8967C177.66 77.4638 177.983 77.0842 178.342 76.761C178.704 76.4379 179.104 76.1829 179.549 75.999C179.994 75.8152 180.492 75.7203 181.046 75.7203C181.491 75.7203 181.868 75.7678 182.182 75.8597V81.6563C182.016 81.5822 181.787 81.5258 181.503 81.4902C181.215 81.4547 180.916 81.4339 180.601 81.4339C180.121 81.4339 179.662 81.5318 179.229 81.7245C178.793 81.9172 178.416 82.193 178.093 82.5428C177.77 82.8957 177.512 83.3019 177.316 83.7615C177.123 84.224 177.026 84.7221 177.026 85.2588V90.498H170.037V76.0524H176.581Z" fill="white"/>
<path d="M186.367 76.0527V72.7259L193.356 70.5911V76.0527H196.517V80.2126H193.356V84.2895C193.356 84.9003 193.495 85.3658 193.771 85.689C194.05 86.0122 194.417 86.1752 194.88 86.1752C195.47 86.1752 196.015 86.0922 196.517 85.9262V90.0861C195.74 90.3085 194.963 90.4893 194.186 90.6257C193.409 90.7651 192.588 90.8333 191.719 90.8333C189.908 90.8333 188.561 90.3767 187.684 89.4605C186.806 88.5443 186.367 87.127 186.367 85.2057V80.2156H183.9V76.0556H186.367V76.0527Z" fill="white"/>
<path d="M199.398 69.7017H206.387V77.8525H206.443C206.775 77.2624 207.33 76.7584 208.107 76.3403C208.884 75.9252 209.77 75.7177 210.769 75.7177C211.694 75.7177 212.48 75.8333 213.126 76.0646C213.773 76.2959 214.295 76.619 214.692 77.0341C215.089 77.4493 215.38 77.9503 215.567 78.5315C215.75 79.1126 215.845 79.756 215.845 80.4587V90.4953H208.857V82.1814C208.857 81.9768 208.851 81.7604 208.842 81.5291C208.833 81.2978 208.786 81.0843 208.703 80.8916C208.62 80.6989 208.495 80.5358 208.329 80.4054C208.163 80.2749 207.932 80.2126 207.635 80.2126C207.321 80.2126 207.081 80.2779 206.915 80.4054C206.749 80.5358 206.624 80.6959 206.541 80.8916C206.458 81.0843 206.411 81.2978 206.402 81.5291C206.393 81.7604 206.387 81.9768 206.387 82.1814V90.5012H199.398V69.7017Z" fill="white"/>
<path d="M230.151 90.4983V87.8653H230.095C229.615 88.9565 229.004 89.7244 228.266 90.1662C227.527 90.6109 226.584 90.8303 225.437 90.8303C224.272 90.8303 223.287 90.6228 222.484 90.2077C221.68 89.7926 221.028 89.2292 220.53 88.5176C220.032 87.806 219.664 86.9788 219.436 86.0359C219.204 85.093 219.089 84.0938 219.089 83.0412C219.089 82.0628 219.204 81.1288 219.436 80.2393C219.667 79.3528 220.032 78.5759 220.53 77.9088C221.028 77.2446 221.665 76.711 222.442 76.3136C223.219 75.9163 224.153 75.7177 225.244 75.7177C226.187 75.7177 227.014 75.8896 227.726 76.2306C228.438 76.5716 229.06 77.132 229.597 77.9088H229.653V69.7017H236.642V90.4983H230.151ZM229.793 82.0154C229.754 81.6269 229.671 81.2889 229.544 81.0043C229.413 80.7167 229.235 80.4884 229.004 80.3105C228.773 80.1355 228.464 80.0466 228.076 80.0466C227.705 80.0466 227.412 80.1355 227.189 80.3105C226.967 80.4854 226.792 80.7137 226.662 80.9895C226.531 81.2682 226.448 81.5854 226.412 81.9472C226.374 82.3089 226.356 82.6736 226.356 83.0412C226.356 83.4297 226.38 83.8092 226.424 84.1769C226.469 84.5475 226.555 84.8796 226.673 85.1761C226.792 85.4726 226.97 85.7127 227.201 85.8966C227.432 86.0804 227.741 86.1753 228.129 86.1753C228.5 86.1753 228.799 86.0834 229.031 85.8966C229.262 85.7127 229.437 85.4755 229.558 85.1909C229.677 84.9033 229.757 84.586 229.793 84.2332C229.828 83.8833 229.849 83.5394 229.849 83.2073C229.849 82.8011 229.828 82.4038 229.793 82.0154Z" fill="white"/>
<path d="M241.491 76.5505C242.01 76.4023 242.49 76.2778 242.932 76.177C243.377 76.0761 243.825 75.9872 244.278 75.9131C244.732 75.8389 245.215 75.7885 245.734 75.7618C246.25 75.7352 246.852 75.7203 247.537 75.7203C248.536 75.7203 249.556 75.7856 250.6 75.9131C251.643 76.0435 252.595 76.3163 253.455 76.7314C254.315 77.1465 255.018 77.7543 255.563 78.549C256.109 79.3436 256.382 80.3991 256.382 81.7097V90.5009H249.894V88.4224H249.838C249.357 89.2556 248.702 89.8634 247.869 90.2519C247.036 90.6403 246.123 90.833 245.123 90.833C244.459 90.833 243.807 90.753 243.169 90.5988C242.532 90.4416 241.963 90.1926 241.465 89.8516C240.966 89.5106 240.569 89.0718 240.273 88.5351C239.976 87.9985 239.828 87.3521 239.828 86.593C239.828 85.4841 240.053 84.5828 240.507 83.889C240.961 83.1951 241.542 82.6555 242.253 82.2671C242.965 81.8787 243.765 81.6148 244.652 81.4754C245.538 81.3361 246.416 81.2679 247.285 81.2679C247.765 81.2679 248.26 81.2916 248.767 81.3361C249.274 81.3835 249.687 81.425 250.001 81.4606C250.001 80.9981 249.891 80.6274 249.669 80.3517C249.446 80.073 249.159 79.8654 248.809 79.729C248.456 79.5897 248.065 79.4978 247.632 79.4503C247.196 79.4058 246.757 79.3821 246.315 79.3821C245.482 79.3821 244.646 79.4978 243.807 79.729C242.965 79.9603 242.194 80.2509 241.491 80.6037V76.5505ZM250.004 84.1499H249.31C248.939 84.1499 248.575 84.1647 248.216 84.1914C247.854 84.2181 247.522 84.2892 247.217 84.3989C246.911 84.5086 246.665 84.6776 246.481 84.897C246.298 85.1194 246.203 85.4159 246.203 85.7836C246.203 86.2817 246.342 86.6375 246.618 86.851C246.896 87.0645 247.303 87.1712 247.836 87.1712C248.186 87.1712 248.501 87.0971 248.779 86.9488C249.058 86.8006 249.283 86.6019 249.458 86.3529C249.633 86.1038 249.767 85.8251 249.861 85.5197C249.953 85.2143 250.001 84.9059 250.001 84.5917V84.1499H250.004Z" fill="white"/>
<path d="M265.641 76.0527L267.444 84.927H267.5L269.22 76.0527H275.93L272.102 88.141C271.749 89.2885 271.384 90.3737 271.008 91.3996C270.628 92.4255 270.142 93.3268 269.552 94.1037C268.959 94.8805 268.22 95.5002 267.334 95.9627C266.447 96.4253 265.318 96.6565 263.951 96.6565C263.026 96.6565 262.204 96.6002 261.484 96.4905C260.763 96.3808 260.061 96.2681 259.376 96.1584V92.0548C259.655 92.1468 259.948 92.2179 260.262 92.2624C260.577 92.3069 260.974 92.3306 261.454 92.3306C262.157 92.3306 262.697 92.1972 263.076 91.9274C263.456 91.6605 263.645 91.3403 263.645 90.9697C263.645 90.6909 263.589 90.3648 263.479 89.9853C263.37 89.6058 263.23 89.1995 263.064 88.7666C262.898 88.3337 262.726 87.892 262.551 87.4502C262.376 87.0054 262.222 86.5814 262.095 86.1752L258.403 76.0527H265.641Z" fill="white"/>
<path d="M193.178 63.1759C185.976 64.2285 178.869 66.1705 172.031 69.0021C172.58 66.129 173.262 63.247 174.08 60.365C171.637 58.6335 169.081 56.9909 166.419 55.4491C174.389 52.149 182.667 49.8837 191.061 48.6592C191.764 53.501 192.469 58.3399 193.178 63.1759Z" fill="#F8A000"/>
<path d="M180.516 58.3489C184.987 59.6565 189.215 61.2813 193.171 63.176C192.818 60.7565 192.465 58.3371 192.112 55.9176C188.213 56.4898 184.341 57.2993 180.516 58.3489Z" fill="#F76E11"/>
<path d="M218.828 63.1759C226.03 64.2285 233.137 66.1705 239.974 69.0021C239.426 66.129 238.744 63.247 237.926 60.365C240.369 58.6335 242.925 56.9909 245.587 55.4491C237.617 52.149 229.339 49.8837 220.945 48.6592C220.239 53.501 219.534 58.3399 218.828 63.1759Z" fill="#F8A000"/>
<path d="M231.482 58.3485C227.01 59.6561 222.782 61.2809 218.827 63.1756C219.18 60.7561 219.533 58.3367 219.885 55.9172C223.784 56.4895 227.657 57.2989 231.482 58.3485Z" fill="#F76E11"/>
<path d="M231.486 58.3487C214.811 53.7618 197.195 53.7618 180.52 58.3487C179.225 53.6343 177.926 48.92 176.63 44.2026C195.852 38.916 216.154 38.916 235.376 44.2026C234.077 48.92 232.782 53.6343 231.486 58.3487Z" fill="#F9C815"/>
<path d="M191.338 52.1608C190.863 52.232 190.389 52.3061 189.917 52.3832C189.746 51.3306 189.574 50.278 189.402 49.2255C188.141 49.43 186.881 49.6613 185.627 49.9133C185.838 50.96 186.048 52.0037 186.259 53.0503C185.787 53.1452 185.313 53.2431 184.844 53.3468C184.334 50.9956 183.827 48.6473 183.317 46.296C183.821 46.1863 184.328 46.0796 184.835 45.9788C185.034 46.9602 185.23 47.9416 185.428 48.923C186.695 48.668 187.967 48.4368 189.239 48.2292C189.078 47.2419 188.915 46.2545 188.755 45.2672C189.262 45.1842 189.769 45.1041 190.279 45.03C190.632 47.4049 190.985 49.7829 191.338 52.1608Z" fill="white"/>
<path d="M198.783 49.6553C197.698 49.7324 196.613 49.8273 195.531 49.9399C195.362 50.5211 195.196 51.1022 195.036 51.6834C194.54 51.7397 194.042 51.796 193.547 51.8583C194.285 49.341 195.098 46.8326 195.987 44.3331C196.447 44.2886 196.906 44.2501 197.366 44.2115C198.677 46.5183 199.913 48.8488 201.075 51.2001C200.574 51.2238 200.076 51.2534 199.575 51.2861C199.317 50.7405 199.053 50.1979 198.783 49.6553ZM195.839 48.8933C196.657 48.8132 197.476 48.7391 198.297 48.6798C197.814 47.7162 197.316 46.7555 196.809 45.7978C196.474 46.8267 196.15 47.8585 195.839 48.8933Z" fill="white"/>
<path d="M204.585 48.4132C204.596 49.3057 204.608 50.1952 204.62 51.0876C204.14 51.0936 203.662 51.1054 203.182 51.1173C203.114 48.7127 203.046 46.311 202.978 43.9064C204.11 43.8738 205.243 43.8619 206.375 43.8649C207.369 43.8678 208.154 44.0932 208.724 44.529C209.293 44.9649 209.56 45.5312 209.536 46.2191C209.512 46.9277 209.216 47.4674 208.656 47.8439C208.095 48.2235 207.327 48.4043 206.343 48.4013C205.756 48.4043 205.172 48.4073 204.585 48.4132ZM204.57 47.4021C205.169 47.3932 205.765 47.3903 206.364 47.3932C206.894 47.3962 207.301 47.2954 207.582 47.0908C207.867 46.8862 208.012 46.5868 208.021 46.1894C208.03 45.801 207.891 45.4867 207.606 45.2495C207.321 45.0123 206.924 44.8878 206.414 44.8789C205.788 44.876 205.163 44.8789 204.534 44.8878C204.546 45.7269 204.558 46.566 204.57 47.4021Z" fill="white"/>
<path d="M213.416 48.674C213.351 49.5635 213.289 50.453 213.223 51.3425C212.746 51.3069 212.266 51.2773 211.785 51.2476C211.925 48.846 212.064 46.4473 212.203 44.0456C213.333 44.1108 214.466 44.1938 215.592 44.2976C216.583 44.3866 217.348 44.6801 217.876 45.1604C218.406 45.6437 218.626 46.2308 218.543 46.9157C218.457 47.6184 218.116 48.1314 217.523 48.4605C216.93 48.7896 216.15 48.9053 215.168 48.8163C214.587 48.7629 214 48.7155 213.416 48.674ZM213.49 47.6659C214.086 47.7104 214.682 47.7578 215.278 47.8112C215.806 47.8586 216.221 47.7934 216.521 47.6155C216.82 47.4346 216.992 47.15 217.033 46.7556C217.075 46.3672 216.965 46.044 216.701 45.7831C216.438 45.5222 216.052 45.365 215.545 45.3117C214.919 45.2553 214.297 45.2049 213.671 45.1604C213.612 45.9906 213.55 46.8268 213.49 47.6659Z" fill="white"/>
<path d="M223.691 48.8017C224.536 47.7906 225.404 46.7914 226.291 45.8011C226.851 45.9108 227.412 46.0235 227.972 46.1391C226.685 47.423 225.437 48.7276 224.227 50.053C224.07 50.9247 223.913 51.7964 223.756 52.6651C223.281 52.5791 222.804 52.4961 222.327 52.419C222.472 51.5444 222.617 50.6726 222.76 49.798C222.066 48.1435 221.327 46.4949 220.548 44.8553C221.114 44.9324 221.68 45.0154 222.247 45.1014C222.754 46.3348 223.234 47.5683 223.691 48.8017Z" fill="white"/>
</g>
</svg>
