<svg width="32" height="32" viewBox="0 0 32 32" fill="none" xmlns="http://www.w3.org/2000/svg">
<path d="M20.1833 31.3982C20.0651 31.783 19.9542 31.8582 19.4915 31.8582H7.81335C5.88386 31.8582 3.95436 31.8582 2.02486 31.8582C0.75225 31.86 0.00765674 31.1127 0.00318202 29.8454C0.00318202 29.5331 -0.00397753 29.219 0.00318202 28.9084C0.0139213 28.5505 0.182171 28.384 0.547308 28.3795C1.06101 28.3742 1.5756 28.3527 2.08661 28.3876C2.42669 28.41 2.47502 28.2891 2.47412 27.9822C2.46159 24.7604 2.46607 21.5386 2.46696 18.3114C2.46696 17.1641 3.07015 16.5591 4.21568 16.5528C4.95132 16.5484 5.68697 16.5412 6.42261 16.5358C6.52195 16.5412 6.62129 16.552 6.72152 16.552H24.6016C24.6571 16.552 24.7135 16.5475 24.769 16.552C24.9157 16.5645 24.9596 16.4956 24.9587 16.3542C24.9587 15.2623 24.9587 14.1696 24.9587 13.0429C23.9071 13.3901 23.0328 13.1324 22.2363 12.4039C21.9803 12.1781 21.6478 12.0587 21.3067 12.0702C20.9656 12.0817 20.6418 12.2231 20.4016 12.4656C19.9379 12.9252 19.3121 13.1842 18.6592 13.1867C18.0063 13.1892 17.3786 12.9351 16.9114 12.4791C16.7855 12.3495 16.635 12.2465 16.4688 12.1759C16.3025 12.1054 16.1239 12.0688 15.9433 12.0683C15.7627 12.0678 15.5838 12.1034 15.4171 12.173C15.2505 12.2426 15.0995 12.3449 14.9729 12.4737C14.507 12.9306 13.8804 13.1866 13.2278 13.1866C12.5751 13.1866 11.9486 12.9306 11.4826 12.4737C10.9304 11.9314 10.1295 11.9689 9.53881 12.4782C9.31867 12.6835 9.06998 12.8559 8.80048 12.9901C8.19102 13.2648 7.57082 13.2532 6.9211 13.0474C6.9211 13.5163 6.91304 13.9593 6.9211 14.4023C6.92915 14.7495 6.78238 14.9518 6.43246 14.9965C6.10491 14.9294 5.97783 14.7173 5.97783 14.3942C5.97783 12.6536 5.97246 10.9129 5.97783 9.17225C5.98319 8.21018 6.64366 7.56135 7.6102 7.56135C8.87118 7.55508 10.1322 7.55329 11.3931 7.56135C11.633 7.56135 11.7189 7.52018 11.7126 7.25528C11.692 6.48652 11.7037 5.71598 11.7055 4.94632C11.7055 4.47111 11.8478 4.33329 12.3221 4.3306C12.4001 4.33688 12.4785 4.33688 12.5566 4.3306C12.6398 4.31718 12.791 4.39951 12.7821 4.22947C12.7758 4.10418 12.8653 3.96099 12.6783 3.8527C11.7144 3.27994 11.4325 2.31519 11.9176 1.30122C12.1596 0.822907 12.5185 0.413484 12.9611 0.110945C13.132 -0.0125577 13.319 -0.0447756 13.4918 0.0751468C14.2543 0.612113 14.8118 1.2869 14.8118 2.27402C14.8118 2.97297 14.5138 3.52694 13.8668 3.84196C13.6547 3.94399 13.728 4.09792 13.7316 4.23305C13.7316 4.4192 13.8981 4.32255 13.9911 4.33508C14.0805 4.3419 14.1703 4.3419 14.2596 4.33508C14.6471 4.34224 14.8064 4.49348 14.8091 4.88278C14.8136 5.67481 14.8181 6.46773 14.8091 7.25975C14.8091 7.47991 14.8405 7.57477 15.0928 7.56582C15.6611 7.54524 16.2312 7.54703 16.7995 7.56582C17.0313 7.57298 17.0733 7.48886 17.068 7.28123C17.0563 6.56528 17.068 5.84932 17.068 5.13874C17.068 4.40936 17.136 4.32344 17.8654 4.34403C18.1491 4.35208 18.1741 4.23484 18.1544 4.01648C18.1464 3.92698 18.1007 3.89566 18.0264 3.8527C17.1235 3.33006 16.8165 2.39574 17.2291 1.41219C17.4599 0.861802 17.8555 0.445653 18.337 0.1011C18.4079 0.0457806 18.4935 0.0123393 18.5831 0.00486882C18.6727 -0.00260171 18.7626 0.0162225 18.8417 0.0590378C19.5899 0.429544 20.2289 1.52138 20.1663 2.38679C20.1206 3.03115 19.8387 3.54574 19.2409 3.83033C19.0368 3.92788 19.0825 4.06839 19.0852 4.21158C19.0852 4.42994 19.2642 4.3127 19.3608 4.33508C19.4385 4.34271 19.5167 4.34271 19.5944 4.33508C20.0061 4.34045 20.1618 4.48811 20.1645 4.89621C20.1689 5.68823 20.1752 6.48115 20.16 7.27318C20.16 7.51123 20.2262 7.56761 20.4571 7.56493C21.6957 7.55419 22.9343 7.55866 24.1729 7.56493C25.2665 7.56493 25.8939 8.19139 25.8948 9.29038C25.8948 11.6002 25.9011 13.9101 25.8885 16.2199C25.8885 16.5045 25.9628 16.5779 26.2376 16.5609C26.7155 16.5376 27.196 16.552 27.6766 16.5555C28.781 16.5618 29.3967 17.1775 29.3967 18.2774C29.3967 21.535 29.3952 24.7932 29.3922 28.052C29.3922 28.2999 29.4334 28.4001 29.7117 28.3876C30.2576 28.3625 30.8053 28.3813 31.3522 28.3804C31.6457 28.3804 31.8381 28.5352 31.8497 28.8136C31.8847 29.3031 31.8775 29.7948 31.8283 30.2831C31.7825 30.7155 31.5775 31.1155 31.2531 31.4052C30.9287 31.6948 30.5082 31.8534 30.0733 31.8501C28.7309 31.8734 27.3947 31.8582 26.0559 31.8582C25.7453 31.8582 25.552 31.7096 25.5001 31.3955C25.544 31.0375 25.7534 30.914 26.0988 30.9167C27.3034 30.9256 28.5089 30.9167 29.7135 30.9167C30.6443 30.9167 30.9083 30.6321 30.9342 29.6978C30.9441 29.3613 30.8394 29.3058 30.5279 29.3058C20.8029 29.3147 11.0757 29.3171 1.34649 29.313C1.26774 29.313 1.18988 29.313 1.11202 29.313C1.0091 29.313 0.960772 29.3389 0.941978 29.4579C0.785363 30.4424 1.18451 30.9167 2.18595 30.9167H19.521C19.9917 30.9203 20.0839 30.9874 20.1833 31.3982ZM15.9448 17.489H4.40004C4.27739 17.4851 4.15462 17.4875 4.03222 17.4961C3.61517 17.5373 3.41471 17.753 3.41292 18.1745C3.41292 19.0336 3.41829 19.8928 3.40576 20.751C3.39789 20.8327 3.41653 20.9148 3.45892 20.985C3.50131 21.0553 3.5652 21.1101 3.64113 21.1412C4.27475 21.4768 4.93701 21.3667 5.5751 20.8101C6.5846 19.9295 7.9476 19.9232 8.95888 20.7949C9.80371 21.5243 10.5331 21.5171 11.3904 20.7725C12.3453 19.9429 13.7719 19.9062 14.6892 20.7725C15.4266 21.4724 16.4335 21.4813 17.195 20.7671C18.1168 19.8981 19.5353 19.942 20.492 20.7761C21.3404 21.5162 22.0725 21.5198 22.9263 20.7877C23.2002 20.54 23.5258 20.3564 23.8795 20.2502C24.2332 20.144 24.6062 20.1179 24.9712 20.1738C25.5449 20.2543 26.0102 20.5389 26.438 20.9184C26.6817 21.1421 26.9903 21.2824 27.3191 21.3188C27.6479 21.3551 27.9797 21.2857 28.2664 21.1206C28.327 21.0952 28.3782 21.0518 28.4133 20.9962C28.4484 20.9407 28.4655 20.8757 28.4624 20.8101C28.4543 19.9151 28.4624 19.0202 28.4561 18.1324C28.4561 17.7646 28.2574 17.5561 27.8923 17.506C27.7592 17.4916 27.6252 17.4862 27.4914 17.4899L15.9448 17.489ZM3.40934 22.0881C3.40934 22.8998 3.42634 23.69 3.40128 24.4794C3.39144 24.7917 3.48541 24.8534 3.78253 24.8534C11.8836 24.8445 19.9849 24.8421 28.0865 24.8463C28.1533 24.8427 28.2202 24.8427 28.287 24.8463C28.415 24.8588 28.466 24.8123 28.4615 24.678C28.4561 23.8216 28.4615 22.9642 28.4615 22.0827C27.3616 22.4648 26.4407 22.2152 25.6048 21.4562C24.9981 20.905 24.1452 20.964 23.5035 21.5243C22.358 22.5248 21.0773 22.5257 19.9237 21.5243C19.231 20.9255 18.4023 20.9291 17.7177 21.535C16.6035 22.5194 15.2736 22.5194 14.1603 21.535C13.473 20.93 12.6389 20.9238 11.9543 21.5243C11.7422 21.7218 11.5032 21.8884 11.2446 22.0192C10.2861 22.4666 9.25332 22.3055 8.42192 21.5663C7.74534 20.964 6.89425 20.8888 6.27405 21.4536C5.42922 22.2187 4.50922 22.4702 3.40934 22.0881ZM15.9224 28.3786C19.9944 28.3786 24.0661 28.3807 28.1375 28.3849C28.4006 28.3849 28.474 28.3196 28.4651 28.0573C28.4454 27.4219 28.4382 26.7847 28.4651 26.1502C28.4803 25.8254 28.363 25.7788 28.0749 25.7797C20.3784 25.7869 12.6818 25.7887 4.98533 25.7851C4.53786 25.7851 4.09039 25.794 3.64292 25.7806C3.4505 25.7752 3.3986 25.8379 3.40128 26.0258C3.41202 26.6836 3.42008 27.3423 3.40128 28.0001C3.39233 28.29 3.45229 28.3876 3.77179 28.3867C7.8232 28.3742 11.8728 28.3786 15.9224 28.3786ZM15.9609 8.50194H7.69164C7.13678 8.50194 6.91394 8.7203 6.91125 9.26622C6.91125 10.0815 6.91752 10.8959 6.90409 11.7103C6.89461 11.7987 6.91622 11.8876 6.96523 11.9618C7.01423 12.0359 7.08755 12.0907 7.17257 12.1166C7.79009 12.3851 8.336 12.2804 8.84612 11.841C9.90752 10.9192 11.1542 10.9245 12.2004 11.841C12.8358 12.4003 13.5875 12.4102 14.2283 11.8669C15.3658 10.9031 16.5328 10.9058 17.6586 11.8759C18.2618 12.394 19.0288 12.394 19.6382 11.8759C19.7866 11.7409 19.9452 11.6177 20.1126 11.5072C21.046 10.9353 22.1459 11.0489 23.0158 11.8195C23.508 12.2553 24.0423 12.3663 24.6553 12.1327C24.879 12.0432 24.9757 11.9144 24.9694 11.6566C24.9506 10.887 24.9632 10.1173 24.9623 9.34676C24.9623 8.6854 24.7681 8.49478 24.1004 8.49478L15.9609 8.50194ZM13.8748 6.33259C13.8336 6.04711 14.0269 5.58889 13.7969 5.32668C13.6538 5.1629 13.1875 5.28193 12.8653 5.27387C12.8543 5.27477 12.8432 5.27477 12.8322 5.27387C12.6872 5.25687 12.638 5.32131 12.6389 5.46539C12.6443 6.1008 12.6443 6.73681 12.6389 7.37341C12.6389 7.51571 12.6845 7.57119 12.8313 7.56761C13.1096 7.55866 13.3889 7.55777 13.6681 7.56761C13.8283 7.57388 13.8829 7.5166 13.8775 7.3573C13.8659 7.04497 13.8748 6.73263 13.8748 6.33259ZM17.9987 6.40061C17.9987 6.72368 18.0041 7.04765 17.9987 7.37073C17.9987 7.51123 18.0399 7.57209 18.1884 7.56761C18.4668 7.55866 18.746 7.55777 19.0243 7.56761C19.1827 7.57298 19.24 7.52018 19.2364 7.35909C19.2275 6.97964 19.2436 6.60018 19.231 6.22072C19.2203 5.91376 19.3742 5.48419 19.1666 5.33115C18.959 5.17811 18.5473 5.28909 18.226 5.27119C18.0524 5.26134 17.9898 5.31952 17.9978 5.49671C18.005 5.79742 17.996 6.09901 17.996 6.40061H17.9987ZM13.882 2.24807C13.8649 1.93441 13.7501 1.63396 13.5535 1.38892C13.2904 1.03095 13.2179 1.03095 12.9539 1.38892C12.5789 1.8883 12.519 2.44138 12.7991 2.81099C13.047 3.13854 13.4578 3.14033 13.7048 2.81099C13.8277 2.64966 13.8909 2.45075 13.8838 2.24807H13.882ZM19.2445 2.17916C19.2239 1.82924 19.0315 1.48647 18.7451 1.18846C18.6905 1.13118 18.6377 1.08643 18.5437 1.13387C18.0345 1.38534 17.8278 2.43332 18.2019 2.85574C18.2533 2.91832 18.3183 2.96843 18.3919 3.00234C18.4655 3.03624 18.5458 3.05304 18.6268 3.05149C18.7078 3.04994 18.7875 3.03008 18.8597 2.99339C18.9319 2.9567 18.995 2.90413 19.044 2.83963C19.1836 2.66959 19.2445 2.47181 19.2445 2.17916Z" fill="#040303"/>
<path d="M21.6953 31.3931C21.7633 31.0396 21.9763 30.8947 22.3361 30.9161C22.6467 30.9318 22.958 30.9318 23.2686 30.9161C23.6141 30.9027 23.8199 31.0414 23.8611 31.3949C23.8074 31.7252 23.5998 31.8603 23.2785 31.8576C22.9572 31.8549 22.6368 31.8504 22.3155 31.8576C21.9942 31.8648 21.7669 31.7287 21.6953 31.3931Z" fill="#040303"/>
<path d="M15.9415 17.4889H27.4863C27.6202 17.4853 27.7541 17.4906 27.8872 17.505C28.2524 17.5542 28.4484 17.7627 28.451 18.1315C28.4582 19.0264 28.451 19.916 28.4573 20.8091C28.4604 20.8747 28.4433 20.9397 28.4082 20.9953C28.3732 21.0508 28.3219 21.0942 28.2613 21.1197C27.9745 21.2866 27.6419 21.3575 27.312 21.3219C26.9821 21.2863 26.6722 21.1462 26.4276 20.9219C25.9998 20.5424 25.5326 20.2578 24.9608 20.1773C24.5957 20.1214 24.2228 20.1476 23.8691 20.2537C23.5154 20.3599 23.1897 20.5435 22.9158 20.7912C22.062 21.5233 21.33 21.5197 20.4816 20.7796C19.5249 19.9455 18.1064 19.9017 17.1846 20.7706C16.4266 21.4866 15.4198 21.4759 14.6788 20.776C13.7614 19.907 12.3349 19.9437 11.38 20.776C10.5226 21.5206 9.79326 21.5278 8.94844 20.7984C7.93715 19.9267 6.57415 19.933 5.56466 20.8136C4.92656 21.3703 4.2643 21.4803 3.63068 21.1447C3.55528 21.1126 3.49221 21.057 3.45079 20.9863C3.40938 20.9155 3.39181 20.8333 3.40068 20.7519C3.41321 19.8936 3.40068 19.0345 3.40784 18.1753C3.40784 17.7538 3.6101 17.5381 4.02714 17.4969C4.14955 17.4883 4.27232 17.4859 4.39497 17.4898L15.9415 17.4889Z" fill="#90C63E"/>
<path d="M15.9619 8.50195H24.097C24.7646 8.50195 24.9579 8.69258 24.9588 9.35394C24.9588 10.1245 24.9472 10.8941 24.966 11.6638C24.9722 11.9215 24.8765 12.054 24.6518 12.1399C24.0388 12.3735 23.5045 12.2625 23.0123 11.8267C22.1424 11.0561 21.0434 10.9425 20.1091 11.5143C19.9417 11.6248 19.7832 11.7481 19.6348 11.883C19.0253 12.3976 18.2583 12.3976 17.6552 11.883C16.5293 10.9129 15.3623 10.9102 14.2248 11.8741C13.5841 12.4173 12.8323 12.4111 12.1969 11.8481C11.1507 10.9281 9.90405 10.9228 8.84265 11.8481C8.33611 12.2876 7.78661 12.3851 7.1691 12.1238C7.08408 12.0979 7.01076 12.0431 6.96176 11.9689C6.91275 11.8948 6.89113 11.8059 6.90062 11.7175C6.91404 10.9031 6.90062 10.0887 6.90778 9.27339C6.90778 8.72748 7.13331 8.51001 7.68817 8.50911L15.9619 8.50195Z" fill="#90C63E"/>
<path d="M13.8753 6.33274C13.8753 6.73278 13.8691 7.0487 13.8753 7.35745C13.8807 7.51675 13.8261 7.57403 13.6659 7.56776C13.3867 7.55792 13.1075 7.55881 12.8291 7.56776C12.6824 7.56776 12.6358 7.51586 12.6367 7.37356C12.6421 6.73696 12.6421 6.10095 12.6367 5.46554C12.6367 5.32146 12.6851 5.25702 12.83 5.27402C12.8411 5.27492 12.8521 5.27492 12.8632 5.27402C13.1853 5.28208 13.6516 5.16305 13.7948 5.32683C14.0248 5.58904 13.8315 6.04726 13.8753 6.33274Z" fill="#90C63E"/>
<path d="M17.9968 6.40086C17.9968 6.09927 18.0057 5.79767 17.9968 5.49697C17.9887 5.31798 18.0514 5.2616 18.225 5.27144C18.5463 5.28934 18.9526 5.17568 19.1656 5.3314C19.3786 5.48712 19.2193 5.91401 19.23 6.22098C19.2425 6.60043 19.23 6.97989 19.2354 7.35935C19.2354 7.52044 19.1817 7.57324 19.0233 7.56787C18.7449 7.55802 18.4657 7.55892 18.1874 7.56787C18.0388 7.56787 17.995 7.51149 17.9977 7.37098C18.0021 7.04791 17.9968 6.72394 17.9968 6.40086Z" fill="#90C63E"/>
<path d="M13.8845 2.24784C13.8917 2.45052 13.8284 2.64943 13.7055 2.81076C13.4585 3.13652 13.0477 3.13473 12.7998 2.81076C12.5197 2.44115 12.5797 1.88808 12.9547 1.3887C13.2231 1.03698 13.2912 1.03072 13.5543 1.3887C13.7515 1.63351 13.867 1.93398 13.8845 2.24784Z" fill="#90C63E"/>
<path d="M19.2472 2.17951C19.2472 2.47216 19.189 2.66994 19.0467 2.83998C18.9977 2.90448 18.9347 2.95705 18.8624 2.99374C18.7902 3.03043 18.7106 3.0503 18.6296 3.05185C18.5485 3.0534 18.4682 3.03659 18.3946 3.00269C18.321 2.96879 18.2561 2.91867 18.2046 2.85609C17.8269 2.43368 18.0372 1.3857 18.5465 1.13422C18.6404 1.08679 18.6932 1.13422 18.7478 1.18881C19.0315 1.48682 19.2239 1.82959 19.2472 2.17951Z" fill="#90C63E"/>
</svg>
