<svg width="22" height="25" viewBox="0 0 22 25" fill="none" xmlns="http://www.w3.org/2000/svg">
<path d="M17.5 2.46962H14.5V0.900391H13V2.46962H7V0.900391H5.5V2.46962H2.5C1.675 2.46962 1 3.17578 1 4.03885V19.7312C1 20.5942 1.675 21.3004 2.5 21.3004H17.5C18.325 21.3004 19 20.5942 19 19.7312V4.03885C19 3.17578 18.325 2.46962 17.5 2.46962ZM17.5 19.7312H2.5V8.74654H17.5V19.7312ZM17.5 7.17731H2.5V4.03885H5.5V5.60808H7V4.03885H13V5.60808H14.5V4.03885H17.5V7.17731Z" fill="black" stroke="black" stroke-width="0.6"/>
<path d="M22 18.5693C22 22.9596 20.8475 24 17 24C12.5 24.5 10 22.904 10 19.0245C10 15.145 13.119 12 16.9664 12C20.8139 12 22 14.179 22 18.5693Z" fill="white"/>
<path d="M16.7961 14.1006C14.1454 14.1006 11.9961 16.2499 11.9961 18.9006C11.9961 21.5513 14.1454 23.7006 16.7961 23.7006C19.4468 23.7006 21.5961 21.5513 21.5961 18.9006C21.5961 16.2499 19.4468 14.1006 16.7961 14.1006ZM16.7961 22.8863C14.5954 22.8863 12.8104 21.1013 12.8104 18.9006C12.8104 16.6999 14.5954 14.9149 16.7961 14.9149C18.9968 14.9149 20.7818 16.6999 20.7818 18.9006C20.7818 21.1013 18.9968 22.8863 16.7961 22.8863Z" fill="black"/>
<path d="M16.7961 14.1006C14.1454 14.1006 11.9961 16.2499 11.9961 18.9006C11.9961 21.5513 14.1454 23.7006 16.7961 23.7006C19.4468 23.7006 21.5961 21.5513 21.5961 18.9006C21.5961 16.2499 19.4468 14.1006 16.7961 14.1006ZM16.7961 22.8863C14.5954 22.8863 12.8104 21.1013 12.8104 18.9006C12.8104 16.6999 14.5954 14.9149 16.7961 14.9149C18.9968 14.9149 20.7818 16.6999 20.7818 18.9006C20.7818 21.1013 18.9968 22.8863 16.7961 22.8863Z" stroke="black" stroke-width="0.7"/>
<path d="M16.7961 14.1006C14.1454 14.1006 11.9961 16.2499 11.9961 18.9006C11.9961 21.5513 14.1454 23.7006 16.7961 23.7006C19.4468 23.7006 21.5961 21.5513 21.5961 18.9006C21.5961 16.2499 19.4468 14.1006 16.7961 14.1006ZM16.7961 22.8863C14.5954 22.8863 12.8104 21.1013 12.8104 18.9006C12.8104 16.6999 14.5954 14.9149 16.7961 14.9149C18.9968 14.9149 20.7818 16.6999 20.7818 18.9006C20.7818 21.1013 18.9968 22.8863 16.7961 22.8863Z" stroke="black" stroke-opacity="0.2" stroke-width="0.7"/>
<path d="M18.3715 20.0868L17.2852 19.2861V17.3639C17.2852 17.3297 17.2578 17.3018 17.2242 17.3018H16.8578C16.8243 17.3018 16.7969 17.3297 16.7969 17.3639V19.5027C16.7969 19.5229 16.806 19.5416 16.822 19.5532L18.082 20.4899C18.1095 20.51 18.1476 20.5038 18.1674 20.4767L18.3852 20.1738C18.4051 20.145 18.399 20.1062 18.3715 20.0868Z" fill="black"/>
<path d="M18.3715 20.0868L17.2852 19.2861V17.3639C17.2852 17.3297 17.2578 17.3018 17.2242 17.3018H16.8578C16.8243 17.3018 16.7969 17.3297 16.7969 17.3639V19.5027C16.7969 19.5229 16.806 19.5416 16.822 19.5532L18.082 20.4899C18.1095 20.51 18.1476 20.5038 18.1674 20.4767L18.3852 20.1738C18.4051 20.145 18.399 20.1062 18.3715 20.0868Z" stroke="black" stroke-width="0.7"/>
<path d="M18.3715 20.0868L17.2852 19.2861V17.3639C17.2852 17.3297 17.2578 17.3018 17.2242 17.3018H16.8578C16.8243 17.3018 16.7969 17.3297 16.7969 17.3639V19.5027C16.7969 19.5229 16.806 19.5416 16.822 19.5532L18.082 20.4899C18.1095 20.51 18.1476 20.5038 18.1674 20.4767L18.3852 20.1738C18.4051 20.145 18.399 20.1062 18.3715 20.0868Z" stroke="black" stroke-opacity="0.2" stroke-width="0.7"/>
</svg>
