<svg width="33" height="32" viewBox="0 0 33 32" fill="none" xmlns="http://www.w3.org/2000/svg">
<path d="M32.0892 25.527C31.9188 26.0907 31.4961 26.4282 31.0324 26.742C30.3221 27.2253 29.6299 27.7341 28.8926 28.2584L25.7245 23.8148L25.6344 23.8336V24.1761C25.6344 26.0194 25.6402 27.8627 25.6344 29.706C25.6295 30.8062 24.9389 31.6763 23.8763 31.9269C23.6459 31.9733 23.4108 31.9931 23.1759 31.9859C18.3939 31.9859 13.6112 31.9687 8.82928 31.9999C7.29975 32.0097 6.33468 30.8464 6.34779 29.5208C6.3822 25.9481 6.35926 22.3737 6.35926 18.8002V18.4225H21.888L17.7156 12.5584C18.6168 11.9161 19.4811 11.264 20.3831 10.6659C21.0319 10.2375 21.7193 10.3751 22.2002 11.0117C22.8105 11.8194 23.3782 12.66 23.9656 13.485C24.0353 13.5841 24.1131 13.6767 24.2073 13.7971C24.4277 13.6332 24.63 13.485 24.8389 13.3416C25.351 12.9909 25.8941 12.85 26.4873 13.1286C26.7828 13.2634 27.028 13.4884 27.1877 13.7713C27.3475 14.0542 27.4134 14.3804 27.3761 14.7032C27.2991 15.5593 27.2401 16.417 27.1566 17.2723C27.1328 17.523 27.1992 17.6279 27.4556 17.6869C28.2617 17.8728 29.0597 18.0965 29.8634 18.2915C30.5573 18.4619 31.0169 18.8715 31.134 19.5842C31.2479 20.2716 30.9497 20.7951 30.3811 21.1776C30.1788 21.3136 29.9846 21.4619 29.7667 21.6192C30.0846 22.0673 30.3844 22.4925 30.6851 22.9169C30.9996 23.3585 31.3273 23.7919 31.6255 24.2441C31.8033 24.5136 31.936 24.8126 32.0892 25.0977V25.527ZM7.26616 19.3212C7.25961 19.4318 7.25059 19.522 7.25059 19.6113C7.25059 22.9483 7.25059 26.2848 7.25059 29.6208C7.25059 30.5342 7.83308 31.1175 8.74571 31.12C10.4661 31.1249 12.1865 31.12 13.9069 31.12C14.3026 31.12 14.3035 31.12 14.3035 30.7169V19.3212H7.26616ZM17.7173 31.1183H18.0818C19.7908 31.1183 21.4997 31.1183 23.2086 31.1183C24.1917 31.1183 24.7718 30.5383 24.7734 29.5495C24.7772 27.2775 24.7753 25.0057 24.7677 22.7342C24.7632 22.5642 24.7106 22.3989 24.6161 22.2574C23.9804 21.3415 23.325 20.4395 22.6868 19.5252C22.6395 19.4485 22.5717 19.3864 22.4911 19.3461C22.4105 19.3057 22.3203 19.2886 22.2305 19.2967C20.8287 19.3049 19.427 19.3008 18.0245 19.3016C17.9262 19.3016 17.8278 19.3122 17.7173 19.3196V31.1183ZM18.9412 12.7525L23.0374 18.5061L25.3166 16.8832L24.0287 15.0792C23.2095 13.929 22.3902 12.7785 21.571 11.6277C21.3449 11.3115 21.1089 11.2263 20.8459 11.4057C20.2135 11.8366 19.595 12.2889 18.9371 12.7558L18.9412 12.7525ZM29.0998 27.0279C29.7044 26.5978 30.2713 26.1955 30.8366 25.7908C31.2593 25.4877 31.2913 25.2796 30.9841 24.8479C29.8218 23.2132 28.6585 21.5794 27.4941 19.9463C27.4302 19.8562 27.3606 19.7685 27.2762 19.6563L25.0044 21.2743L29.0998 27.0279ZM16.8112 19.327H15.1809V30.7505C15.1809 30.8021 15.185 30.8537 15.1809 30.9045C15.1678 31.0618 15.2366 31.1257 15.3947 31.1224C15.733 31.1167 16.0706 31.1224 16.4089 31.1224C16.8095 31.1224 16.8103 31.1224 16.8103 30.7259V19.3311L16.8112 19.327ZM25.8228 17.6008L23.5437 19.2238C23.8714 19.6809 24.1737 20.1094 24.4908 20.5542L26.7707 18.9305C26.4455 18.4774 26.1448 18.0563 25.8237 17.6049L25.8228 17.6008ZM24.7152 14.5246L26.3029 16.7513C26.3291 16.4719 26.3463 16.2999 26.3619 16.127C26.4102 15.5986 26.4881 15.071 26.4979 14.5426C26.5077 13.9798 25.9728 13.6889 25.4886 13.9749C25.2281 14.1313 24.993 14.3271 24.7152 14.5246ZM29.2448 20.8868C29.5135 20.6992 29.7831 20.5591 29.9821 20.3519C30.1306 20.1944 30.2245 19.9933 30.25 19.7784C30.2795 19.4507 30.0616 19.2475 29.6299 19.1353C29.1465 19.0099 28.6582 18.9018 28.1724 18.7863L27.6555 18.6601C28.2208 19.4515 28.7262 20.1618 29.2448 20.8893V20.8868Z" fill="black"/>
<path d="M12.7832 5.0823C12.2335 5.66806 11.6846 6.27184 11.1185 6.86252C10.7859 7.20906 10.4385 7.54413 10.0821 7.86691C10.0063 7.92638 9.94914 8.00646 9.91761 8.09756C9.88608 8.18867 9.88148 8.28693 9.90437 8.38058C10.128 9.62747 10.3427 10.876 10.5598 12.1245C10.5633 12.1772 10.5633 12.23 10.5598 12.2826C10.3238 12.1622 10.1084 12.0549 9.89618 11.9435C8.95405 11.4519 8.01192 10.9604 7.0747 10.4541C6.99487 10.4029 6.90204 10.3757 6.80722 10.3757C6.7124 10.3757 6.61957 10.4029 6.53974 10.4541C5.47472 11.0276 4.4097 11.5805 3.33731 12.1409C3.25047 12.1868 3.16036 12.2277 3.0219 12.2949C3.12349 11.6903 3.21361 11.1382 3.30864 10.5876C3.43808 9.83228 3.58309 9.07939 3.69368 8.32159C3.69576 8.24465 3.68232 8.16807 3.65417 8.09643C3.62602 8.02479 3.58373 7.95955 3.52984 7.9046C2.67455 7.05176 1.80942 6.21122 0.937749 5.3715C0.857313 5.30855 0.770876 5.25366 0.679688 5.20765L0.738673 5.11016L2.54101 4.84472C3.2685 4.73904 3.99844 4.64401 4.72347 4.51702C4.83489 4.49818 4.96105 4.36874 5.01676 4.25814C5.56484 3.16445 6.0998 2.0724 6.63968 0.98035C6.68392 0.890233 6.73226 0.800936 6.79452 0.679688C6.85351 0.781274 6.9002 0.853367 6.93871 0.930376C7.48187 2.02079 8.01929 3.11038 8.54688 4.20244C8.58308 4.29487 8.64513 4.37492 8.72562 4.43304C8.8061 4.49115 8.90162 4.52485 9.00074 4.53013C10.2886 4.70709 11.5699 4.90453 12.7832 5.0823ZM4.18933 10.6745C4.34253 10.6024 4.4351 10.5622 4.52358 10.5163C5.21174 10.1559 5.90155 9.80033 6.58316 9.42839C6.64969 9.38503 6.72739 9.36194 6.80681 9.36194C6.88623 9.36194 6.96393 9.38503 7.03046 9.42839C7.70388 9.79377 8.38467 10.1452 9.06383 10.5016C9.15804 10.5508 9.25471 10.5958 9.39152 10.6654C9.3776 10.5188 9.37514 10.4279 9.35957 10.3378C9.23095 9.58241 9.10807 8.82625 8.96306 8.075C8.93718 7.98324 8.93892 7.88589 8.96806 7.79511C8.9972 7.70434 9.05245 7.62416 9.12691 7.56461C9.48164 7.23691 9.82245 6.9002 10.1624 6.56022C10.4287 6.2956 10.6859 6.02198 10.9653 5.7336C10.896 5.70793 10.8251 5.68686 10.7531 5.67052C10.0772 5.56893 9.40217 5.4313 8.7222 5.38297C8.25277 5.34938 8.00536 5.16423 7.82103 4.73658C7.52693 4.04432 7.16564 3.38073 6.80599 2.6598C6.73226 2.79252 6.68065 2.87772 6.63723 2.9662C6.28823 3.67157 5.9466 4.38021 5.58532 5.07903C5.51569 5.19221 5.40454 5.27366 5.27564 5.30596C4.90698 5.38788 4.53013 5.4272 4.15656 5.48291L2.65816 5.70902L2.55985 5.85321C2.66226 5.90482 2.78351 5.93514 2.86297 6.00969C3.4176 6.53892 3.97059 7.0747 4.50719 7.6195C4.55333 7.67284 4.58822 7.73494 4.60976 7.80209C4.63129 7.86925 4.63904 7.94006 4.63254 8.01028C4.50228 8.87704 4.34826 9.7397 4.18933 10.6745Z" fill="black"/>
<path d="M21.5262 3.71783C21.0822 4.56411 20.6775 5.35632 20.2507 6.13378C20.131 6.35416 20.1179 6.52128 20.2433 6.74903C20.6775 7.53469 21.0846 8.33509 21.5254 9.17481C20.5931 9.01097 19.7083 8.87251 18.8284 8.70703C18.5909 8.66279 18.4287 8.70703 18.2607 8.88234C17.7135 9.46401 17.149 10.0293 16.5952 10.6028C16.5319 10.6835 16.477 10.7705 16.4313 10.8625L16.3306 10.8018C16.2426 10.212 16.1547 9.62212 16.0668 9.03227C16.0416 8.93306 16.027 8.83144 16.0234 8.72915C16.0782 7.99183 15.6817 7.62481 15.0329 7.37248C14.398 7.12671 13.804 6.77853 13.1445 6.45411C13.2846 6.37792 13.3903 6.31484 13.5017 6.26077C14.2071 5.91013 14.9084 5.55212 15.6211 5.21951C15.8382 5.11792 15.9152 4.98193 15.9447 4.75663C16.0602 3.87431 16.1954 2.98543 16.3273 2.09901L16.4092 2.04248C16.5174 2.17356 16.6181 2.31119 16.7369 2.43326C17.2555 2.9715 17.7839 3.49828 18.2935 4.04389C18.3521 4.11377 18.4297 4.16519 18.517 4.19194C18.6042 4.21868 18.6973 4.21962 18.785 4.19463C19.6739 4.0316 20.5693 3.8825 21.5262 3.71783ZM15.1238 6.44591C15.608 6.68677 16.0332 6.90305 16.4633 7.10868C16.5387 7.13541 16.6044 7.18396 16.6521 7.24815C16.6998 7.31234 16.7273 7.38927 16.7312 7.46915C16.7812 7.94185 16.868 8.40964 16.9442 8.90037C17.3186 8.544 17.6684 8.22203 18.0043 7.8886C18.0545 7.82619 18.122 7.77988 18.1983 7.75542C18.2746 7.73096 18.3564 7.72941 18.4336 7.75097C18.8989 7.84764 19.3708 7.91482 19.9082 8.0033C19.6624 7.53387 19.4642 7.12261 19.2356 6.72855C19.1795 6.64489 19.1499 6.54619 19.151 6.44544C19.152 6.34468 19.1835 6.2466 19.2413 6.16409C19.4666 5.77086 19.6657 5.36206 19.9082 4.89836C19.3806 4.98029 18.9251 5.03682 18.4811 5.14004C18.241 5.19657 18.1067 5.12038 17.951 4.96145C17.634 4.63375 17.2956 4.33309 16.9401 3.99556C16.8647 4.4871 16.7762 4.95243 16.7279 5.42514C16.7253 5.50498 16.6989 5.58223 16.6521 5.64692C16.6052 5.7116 16.54 5.76077 16.4649 5.78806C16.0356 5.98878 15.6096 6.20588 15.1238 6.44591Z" fill="black"/>
<path d="M15.5631 11.0483C15.5631 11.7316 15.5754 12.3542 15.5565 12.976C15.5491 13.2283 15.6196 13.3856 15.8342 13.5306C16.3618 13.8805 16.8714 14.2573 17.4449 14.6628C17.2114 14.7407 17.0279 14.8046 16.8427 14.8627C16.3946 15.0028 15.9481 15.1487 15.4959 15.2724C15.4126 15.2905 15.3364 15.3327 15.2769 15.3937C15.2173 15.4548 15.177 15.5319 15.1608 15.6156C14.9789 16.2415 14.7758 16.8617 14.5595 17.5531C14.4382 17.3852 14.3473 17.2615 14.2588 17.1361C13.9631 16.7183 13.6616 16.3054 13.3757 15.8819C13.335 15.8127 13.2753 15.7565 13.2038 15.7201C13.1322 15.6837 13.0517 15.6684 12.9718 15.6762C12.3164 15.6869 11.661 15.6762 10.9688 15.6762C11.0049 15.602 11.0457 15.53 11.0908 15.4608C11.4316 15.0004 11.7675 14.5367 12.1206 14.0861C12.1845 14.015 12.2262 13.9269 12.2408 13.8325C12.2553 13.738 12.242 13.6414 12.2025 13.5544C11.9838 12.9506 11.7864 12.3403 11.5611 11.6701C11.7864 11.739 11.9707 11.7898 12.1435 11.8496C12.5982 12.0028 13.0537 12.1527 13.5043 12.3182C13.5776 12.3509 13.6587 12.3617 13.738 12.3491C13.8173 12.3366 13.8912 12.3014 13.9508 12.2477C14.4727 11.8528 15.0068 11.4629 15.5631 11.0483ZM13.0234 13.0563L12.9906 13.1472C13.0257 13.2931 13.0726 13.4358 13.1307 13.5741C13.2823 13.8723 13.2594 14.1262 13.0128 14.3663C12.9095 14.4844 12.8163 14.611 12.7342 14.7448L12.7449 14.8267C13.4609 14.6129 13.9303 14.8906 14.2195 15.555C14.3223 15.3515 14.402 15.1372 14.4571 14.916C14.5013 14.7063 14.6209 14.6088 14.8176 14.5613C15.0142 14.5137 15.2133 14.4359 15.473 14.3507C15.3207 14.2288 15.1615 14.1159 14.9962 14.0124C14.7397 13.8747 14.634 13.6847 14.6816 13.3914C14.6971 13.2192 14.6988 13.0461 14.6865 12.8736L14.6111 12.8081C14.1605 13.393 13.6297 13.4602 13.0267 13.0563H13.0234Z" fill="black"/>
<path d="M24.8126 3.67676H25.613V4.50583C25.5892 4.52467 25.5819 4.53614 25.5729 4.53696C24.7798 4.63937 24.666 4.51566 24.8126 3.67676Z" fill="black"/>
<path d="M23.3203 5.15186H24.1396V5.99895H23.3203V5.15186Z" fill="black"/>
<path d="M27.0981 5.15967V6.02479C26.8589 6.02479 26.6287 6.0338 26.4001 6.01742C26.3657 6.00763 26.3343 5.98915 26.3091 5.96376C26.2838 5.93837 26.2655 5.90691 26.2559 5.87241C26.2396 5.6422 26.2486 5.40954 26.2486 5.15967H27.0981Z" fill="black"/>
<path d="M24.8008 6.62939H25.6151V7.47895H24.8008V6.62939Z" fill="black"/>
<path d="M6 13.806V12.9688H6.87331C6.87331 13.2014 6.8856 13.4251 6.86512 13.6454C6.85339 13.6834 6.83219 13.7178 6.80353 13.7453C6.77487 13.7728 6.73968 13.7926 6.70127 13.8027C6.47844 13.8183 6.25069 13.806 6 13.806Z" fill="black"/>
<path d="M5.38238 14.4331C5.3914 14.4986 5.40041 14.538 5.40205 14.5773C5.43236 15.3285 5.32012 15.4162 4.53119 15.2327C4.52546 15.1696 4.51644 15.1 4.51562 15.0312C4.51562 14.8386 4.51562 14.6461 4.51562 14.4339L5.38238 14.4331Z" fill="black"/>
<path d="M7.48438 14.4243H8.35113C8.35113 14.6652 8.36015 14.897 8.34376 15.1272C8.33342 15.1617 8.31445 15.193 8.28864 15.2181C8.26284 15.2431 8.23105 15.2612 8.1963 15.2706C7.96609 15.287 7.73343 15.2771 7.48438 15.2771V14.4243Z" fill="black"/>
<path d="M6.85453 16.737H6.01562V15.9014H6.85453V16.737Z" fill="black"/>
<path d="M16.8107 19.3315V30.7256C16.8107 31.1213 16.8107 31.1221 16.4093 31.1221C16.071 31.1221 15.7334 31.1172 15.3951 31.1221C15.237 31.1221 15.1681 31.0615 15.1813 30.9042C15.1854 30.8534 15.1813 30.8018 15.1813 30.7502V19.3315H16.8107Z" fill="#90C63E"/>
<path d="M25.826 17.606C26.1472 18.0574 26.4478 18.4785 26.7739 18.9356L24.4939 20.5593C24.1769 20.1145 23.8729 19.686 23.5469 19.2289L25.826 17.606Z" fill="#90C63E"/>
<path d="M24.7188 14.525C24.9965 14.3251 25.2316 14.1293 25.4921 13.9752C25.9763 13.6893 26.5113 13.9802 26.5014 14.543C26.4916 15.0714 26.4138 15.599 26.3654 16.1274C26.3499 16.3003 26.3327 16.4723 26.3064 16.7517L24.7188 14.525Z" fill="#90C63E"/>
<path d="M29.2462 20.89C28.7276 20.1625 28.2222 19.4522 27.6602 18.6616L28.1771 18.7878C28.6629 18.9033 29.1512 19.0114 29.6345 19.1368C30.0663 19.249 30.2842 19.4489 30.2547 19.7799C30.2292 19.9948 30.1353 20.1959 29.9868 20.3534C29.7845 20.5623 29.519 20.7024 29.2462 20.89Z" fill="#90C63E"/>
<path d="M4.19198 10.6743C4.35091 9.7387 4.50493 8.87194 4.63519 8.00928C4.64169 7.93906 4.63394 7.86825 4.6124 7.8011C4.59086 7.73394 4.55598 7.67184 4.50984 7.6185C3.97324 7.06961 3.42025 6.53874 2.86562 6.00951C2.7837 5.93414 2.66491 5.90464 2.5625 5.85303L2.66081 5.70884L4.16166 5.48683C4.53524 5.43112 4.91209 5.38852 5.28075 5.30987C5.40965 5.27757 5.5208 5.19613 5.59042 5.08294C5.95171 4.38413 6.29334 3.67548 6.64233 2.97339C6.68575 2.88491 6.73737 2.79971 6.8111 2.66699C7.16829 3.38793 7.53203 4.05151 7.82614 4.74377C8.00883 5.17142 8.25624 5.35657 8.72731 5.39016C9.40728 5.43849 10.0823 5.57613 10.7582 5.67771C10.8303 5.69405 10.9011 5.71512 10.9704 5.74079C10.691 6.02917 10.4338 6.3028 10.1675 6.56741C9.82755 6.9074 9.48675 7.24738 9.13201 7.5718C9.05756 7.63135 9.00231 7.71153 8.97317 7.8023C8.94403 7.89308 8.94229 7.99043 8.96817 8.08219C9.11317 8.83344 9.23606 9.5896 9.36468 10.3449C9.38025 10.4334 9.3827 10.5244 9.39663 10.6726C9.259 10.6055 9.16233 10.5604 9.06893 10.5088C8.38978 10.1524 7.70899 9.80096 7.03557 9.43558C6.96904 9.39222 6.89133 9.36914 6.81192 9.36914C6.7325 9.36914 6.6548 9.39222 6.58826 9.43558C5.90665 9.80752 5.21685 10.1631 4.52868 10.5235C4.43775 10.5629 4.34517 10.603 4.19198 10.6743Z" fill="#90C63E"/>
<path d="M15.125 6.44631C15.6108 6.20627 16.0368 5.98917 16.4686 5.78518C16.5436 5.75788 16.6088 5.70872 16.6557 5.64403C16.7026 5.57935 16.729 5.5021 16.7315 5.42226C16.7831 4.94955 16.8684 4.48094 16.9437 3.99268C17.3001 4.3302 17.6376 4.63414 17.9547 4.95856C18.1103 5.1175 18.2447 5.19369 18.4847 5.13716C18.9279 5.03393 19.3859 4.9815 19.9118 4.89548C19.6661 5.35917 19.4703 5.76798 19.245 6.16121C19.1871 6.24372 19.1556 6.3418 19.1546 6.44255C19.1536 6.54331 19.1831 6.64201 19.2392 6.72567C19.4678 7.11973 19.6669 7.53099 19.9118 8.00042C19.372 7.9103 18.9001 7.84476 18.4372 7.74809C18.3594 7.72637 18.2768 7.72816 18.2 7.75323C18.1232 7.77831 18.0555 7.82554 18.0055 7.889C17.6696 8.22571 17.3198 8.54439 16.9454 8.90404C16.8692 8.4125 16.7815 7.94553 16.7324 7.47282C16.7285 7.39294 16.701 7.31601 16.6533 7.25182C16.6056 7.18763 16.5398 7.13908 16.4645 7.11236C16.0344 6.90591 15.6092 6.68717 15.125 6.44631Z" fill="#90C63E"/>
<path d="M13.0244 13.0563C13.6265 13.4561 14.1582 13.393 14.6113 12.8105L14.6866 12.8761C14.6989 13.0485 14.6973 13.2217 14.6817 13.3938C14.6342 13.688 14.7399 13.8772 14.9963 14.0148C15.1616 14.1183 15.3208 14.2313 15.4731 14.3532C15.2118 14.4351 15.0176 14.517 14.8177 14.5637C14.6178 14.6104 14.5015 14.7087 14.4572 14.9185C14.4021 15.1397 14.3224 15.354 14.2197 15.5575C13.9329 14.8931 13.4635 14.6153 12.745 14.8292L12.7344 14.7472C12.8165 14.6135 12.9096 14.4869 13.0129 14.3687C13.2587 14.1287 13.2824 13.8772 13.1309 13.5765C13.0727 13.4383 13.0259 13.2955 12.9908 13.1497L13.0244 13.0563Z" fill="#90C63E"/>
</svg>
