<svg width="635" height="377" viewBox="0 0 635 377" fill="none" xmlns="http://www.w3.org/2000/svg">
<g clip-path="url(#clip0_2917_73116)">
<path d="M28.7436 377C22.2349 376.997 15.9364 374.697 10.9594 370.507C5.98235 366.316 2.64655 360.504 1.54048 354.096C-3.83796 323.09 0.823202 264.919 83.9143 206.798C164.026 150.759 127.892 -10.5841 298.113 0.548659C468.333 11.6814 452.103 130.918 556.478 185.568C630.79 224.478 637.097 305.02 634.565 348.189C634.116 355.977 630.703 363.299 625.027 368.655C619.35 374.011 611.839 376.997 604.031 377H28.7436Z" fill="#F3F8E7"/>
<path d="M177.282 255.773L522.088 255.773V6.29123L177.282 6.29123L177.282 255.773Z" fill="white"/>
<path d="M177.282 26.8437L522.088 26.8438V6.29272L177.282 6.29272V26.8437Z" fill="#263238"/>
<path d="M188.831 21.7226C191.681 21.7226 193.992 19.4141 193.992 16.5664C193.992 13.7187 191.681 11.4102 188.831 11.4102C185.98 11.4102 183.67 13.7187 183.67 16.5664C183.67 19.4141 185.98 21.7226 188.831 21.7226Z" fill="#93C742"/>
<path d="M340.672 93.0273H357.659C359.806 93.0273 361.547 91.2883 361.547 89.143V74.4615C361.547 72.3162 359.806 70.5771 357.659 70.5771H340.672C338.525 70.5771 336.784 72.3162 336.784 74.4615V89.143C336.784 91.2883 338.525 93.0273 340.672 93.0273Z" fill="#91B857"/>
<path d="M312.807 64.1914C314.867 64.1914 320.593 66.7501 329.279 75.6121C327.701 75.6723 326.164 75.7026 324.668 75.703C321.423 75.7208 318.18 75.545 314.956 75.1766C310.293 74.6103 309.673 69.7664 309.617 69.2145C309.524 68.2816 309.635 67.3396 309.941 66.4534C310.238 65.6768 310.782 64.8032 312.563 64.2114C312.643 64.1953 312.725 64.1886 312.807 64.1914V64.1914ZM312.807 58.0901C312.072 58.0841 311.341 58.1965 310.641 58.4229C303.239 60.8817 303.337 67.7729 303.543 69.8269C304.054 74.922 307.555 80.426 314.222 81.2353C317.69 81.6336 321.179 81.8244 324.67 81.8066C329.944 81.8066 335.019 81.4422 338.982 81.0445C339.276 81.0215 339.557 80.9154 339.793 80.7386C340.029 80.5618 340.21 80.3216 340.314 80.0461C340.43 79.7799 340.467 79.4863 340.422 79.1997C340.377 78.9131 340.251 78.6453 340.059 78.4275C329.112 65.445 319.184 58.0906 312.81 58.0906L312.807 58.0901Z" fill="#91B857"/>
<path d="M385.254 64.1914C385.335 64.1888 385.416 64.1953 385.496 64.2108V64.2108C387.278 64.8032 387.823 65.6768 388.12 66.4534C388.426 67.3399 388.537 68.2823 388.443 69.2156C388.388 69.7664 387.769 74.6103 383.104 75.1766C379.881 75.5453 376.638 75.721 373.394 75.703C371.898 75.703 370.361 75.6727 368.782 75.6121C377.467 66.7496 383.193 64.1914 385.254 64.1914V64.1914ZM385.254 58.0901C378.88 58.0901 368.953 65.4433 358.007 78.427C357.815 78.6449 357.689 78.9129 357.644 79.1995C357.598 79.4862 357.636 79.7798 357.751 80.0461C357.856 80.3216 358.036 80.5618 358.272 80.7386C358.508 80.9154 358.79 81.0215 359.084 81.0445C363.047 81.4422 368.12 81.8066 373.396 81.8066C376.887 81.8243 380.375 81.6335 383.843 81.2353C390.51 80.426 394.01 74.922 394.522 69.8269C394.728 67.7746 394.826 60.8817 387.424 58.4229C386.724 58.1965 385.993 58.0841 385.258 58.0901H385.254Z" fill="#91B857"/>
<path d="M290.268 196.965L409.1 196.965V95.1005L290.268 95.1005V196.965Z" fill="#D8EDB0"/>
<path d="M337.944 196.965H361.424V95.3041H337.944V196.965Z" fill="white"/>
<g opacity="0.19">
<path opacity="0.19" d="M290.268 116.273L409.1 116.273V95.1034L290.268 95.1034V116.273Z" fill="black"/>
</g>
<path d="M282.011 100.48L417.354 100.48V79.4363L282.011 79.4363V100.48Z" fill="#ADCC72"/>
<path d="M332.64 100.48H366.725V79.4363H332.64V100.48Z" fill="white"/>
<path d="M454.219 147.24C454.219 147.24 449.755 145.323 449.755 133.605L440.78 132.691C440.78 132.691 442.63 143.047 438.43 146.725L454.219 147.24Z" fill="#E98862"/>
<path d="M454.399 128.68C454.078 132.262 452.423 135.764 449.399 137.161C446.11 138.787 442.474 139.584 438.807 139.484C429.064 139.484 429.174 117.343 433.418 112.696C437.662 108.049 451.368 109.649 453.595 116.657C454.746 120.282 454.707 125.271 454.399 128.68Z" fill="#E98862"/>
<path d="M416.837 370.999C415.607 360.673 415.607 359.61 415.607 359.261H427.266C427.266 359.226 427.266 359.18 427.266 359.125C427.308 359.987 427.895 365.246 428.417 369.624L416.837 370.999Z" fill="#E98862"/>
<path d="M463.291 372.393C463.291 372.393 463.252 360.33 463.252 359.262H474.91C474.91 360.327 474.949 372.355 474.949 372.355L463.291 372.393Z" fill="#E98862"/>
<path d="M433.075 367.324L412.537 366.975C413.501 342.552 413.561 316.933 413.861 292.451C417.87 266.064 419.981 237.086 424.929 210.888L425.077 210.932L425.511 207.975L467.746 205.371L469.259 232.938C471.465 272.538 475.446 328.313 477.954 366.662L457.487 368.39C453.799 330.792 448.092 276.006 444.581 236.509C440.55 255.739 437.808 275.651 434.303 294.716C433.602 318.581 433.009 343.53 433.075 367.324Z" fill="#262626"/>
<path d="M449.119 376.899C448.806 376.898 448.496 376.832 448.209 376.705C447.922 376.579 447.665 376.394 447.452 376.164C447.24 375.934 447.078 375.662 446.975 375.366C446.872 375.07 446.832 374.756 446.856 374.444C446.89 374.011 447.047 373.597 447.308 373.25C447.57 372.903 447.925 372.638 448.332 372.486L461.902 367.945C462.165 367.858 462.443 367.829 462.719 367.859C462.994 367.89 463.259 367.98 463.496 368.122C465.362 369.416 467.594 370.077 469.863 370.008C471.631 369.882 473.327 369.263 474.76 368.221C474.886 368.118 475.038 368.052 475.2 368.033C475.362 368.013 475.526 368.039 475.673 368.109C475.82 368.179 475.944 368.289 476.031 368.427C476.118 368.564 476.164 368.724 476.163 368.886V375.516C476.163 375.711 476.124 375.905 476.049 376.086C475.974 376.266 475.864 376.43 475.726 376.568C475.587 376.706 475.422 376.816 475.241 376.89C475.06 376.964 474.866 377.002 474.67 377.001L449.119 376.899Z" fill="#C1D8ED"/>
<path d="M402.633 376.899C402.32 376.898 402.01 376.832 401.723 376.705C401.436 376.579 401.178 376.394 400.966 376.164C400.754 375.934 400.591 375.662 400.489 375.366C400.386 375.07 400.346 374.756 400.37 374.444C400.404 374.011 400.561 373.596 400.822 373.25C401.084 372.903 401.439 372.638 401.846 372.486L415.416 367.945C415.679 367.858 415.957 367.829 416.233 367.859C416.508 367.89 416.773 367.98 417.011 368.122C418.876 369.415 421.107 370.076 423.377 370.008C425.145 369.882 426.841 369.263 428.274 368.221C428.4 368.118 428.552 368.052 428.714 368.032C428.876 368.013 429.04 368.039 429.187 368.109C429.334 368.179 429.458 368.289 429.545 368.427C429.632 368.564 429.677 368.724 429.677 368.886V375.516C429.677 375.711 429.638 375.905 429.563 376.086C429.488 376.266 429.378 376.43 429.239 376.569C429.101 376.707 428.936 376.816 428.755 376.89C428.574 376.964 428.38 377.002 428.184 377.001L402.633 376.899Z" fill="#C1D8ED"/>
<path d="M480.176 225.355C480.176 227.008 479.303 232.534 480.708 232.929C481.55 233.166 482.545 229.046 482.545 229.046" fill="#E98862"/>
<path d="M486.809 224.487C486.809 224.487 491.397 235.644 486.164 242.053C486.031 242.216 485.851 242.335 485.649 242.395C485.447 242.454 485.231 242.451 485.03 242.387C484.83 242.322 484.653 242.198 484.524 242.032C484.395 241.865 484.319 241.664 484.306 241.454C484.052 237.132 483.18 228.256 480.328 229.293V222.324" fill="#E98862"/>
<path d="M383.359 165.049C383.359 165.049 376.951 159.964 376.498 158.137C376.045 156.311 380.557 152.718 380.557 152.718C380.557 152.718 374.557 146.672 375.753 145.799C377.166 144.765 384.128 153.555 384.128 153.555C384.128 153.555 383.144 150.393 384.37 150.185C384.874 150.1 385.273 150.594 386.061 152.832C386.959 155.384 388.755 159.219 388.755 159.219L383.359 165.049Z" fill="#E98862"/>
<path d="M390.103 158.286L409.056 179.589L423.879 153.079C425.282 148.891 428.477 146.085 434.995 145.806C437.224 145.711 448.1 145.695 456.063 145.695C461.414 145.695 465.805 147.335 468.341 149.869C469.619 151.127 470.575 152.674 471.129 154.378L471.205 154.35L483.948 188.969C484.091 189.358 484.193 189.759 484.254 190.169L489.398 224.788L477.423 226.563L472.371 192.559L467.225 178.578C466.689 180.727 466.396 182.929 466.352 185.143C466.352 196.791 471.626 202.015 471.237 207.995C470.626 217.394 424.92 215.173 422.591 209.834C420.194 204.329 425.06 200.936 424.847 182.927C424.824 180.968 424.673 178.917 424.464 176.83L415.47 192.915C414.999 193.758 414.334 194.475 413.529 195.008C412.723 195.541 411.802 195.874 410.842 195.978C409.882 196.083 408.911 195.956 408.01 195.609C407.109 195.262 406.304 194.704 405.663 193.983L380.744 164.863L390.103 158.286Z" fill="#90C63E"/>
<path d="M428.287 121.214C428.287 121.214 428.901 105.433 446.393 107.864C448.44 108.21 450.375 109.033 452.044 110.266C456.136 106.026 461.786 107.655 463.856 109.696C466.542 112.344 468.419 117.328 468.086 125.553C467.433 141.671 474.091 146.805 472.906 159.773C472.081 168.809 466.355 173.132 457.353 173.187C446.324 173.255 442.136 165.225 442.63 154.947C443.016 146.925 444.787 145.565 445.927 139.333C440.542 139.439 437.677 134.257 434.744 121.694C432.582 121.714 430.422 121.554 428.287 121.214V121.214Z" fill="#0F1011"/>
<path d="M433.959 129.705C433.954 130.156 434.037 130.603 434.206 131.022C434.375 131.44 434.625 131.821 434.943 132.142C435.26 132.463 435.638 132.718 436.054 132.892C436.471 133.066 436.918 133.155 437.369 133.155C437.821 133.155 438.268 133.066 438.685 132.892C439.101 132.718 439.479 132.463 439.796 132.142C440.113 131.821 440.364 131.44 440.533 131.022C440.701 130.603 440.785 130.156 440.779 129.705C440.787 129.255 440.704 128.809 440.535 128.392C440.367 127.975 440.116 127.596 439.798 127.278C439.479 126.961 439.1 126.71 438.683 126.541C438.266 126.373 437.819 126.29 437.369 126.297C434.94 126.417 433.959 127.823 433.959 129.705Z" fill="#E98862"/>
<path d="M549.083 330.497C551.859 329.59 554.708 330.611 557.433 332.68C553.843 323.622 552.361 315.441 558.499 315.072C562.794 314.814 566.084 318.106 568.583 322.786C569.462 314.558 571.73 308.42 576.81 310.455C582.387 312.689 583.235 320.344 582.39 328.355C584.847 324.264 587.492 321.982 589.894 324.382C597.063 331.544 579.466 351.727 579.466 351.727H575.095L572.603 354.433C573.108 355.499 573.384 356.134 573.384 356.134L570.216 362.575C570.216 362.575 537.563 334.265 549.083 330.497Z" fill="#508401"/>
<path d="M556.918 376.999H581.65L585.79 348.152H552.777L556.918 376.999Z" fill="#C58A81"/>
<path d="M186.822 354.977L192.677 377H184.411L175.111 354.977H186.822Z" fill="#69A212"/>
<path d="M80.0481 354.977L74.1934 377H82.4592L91.7588 354.977H80.0481Z" fill="#69A212"/>
<path d="M149.161 354.977L155.017 377H146.751L137.451 354.977H149.161Z" fill="#508401"/>
<path d="M42.3885 354.977L36.5332 377H44.7996L54.0992 354.977H42.3885Z" fill="#508401"/>
<path d="M33.6201 323.251H140.138L132.914 244.739C132.741 242.86 131.872 241.114 130.477 239.843C129.083 238.572 127.263 237.867 125.375 237.867H34.0637C33.011 237.867 31.9698 238.086 31.0067 238.511C30.0436 238.936 29.1797 239.556 28.4702 240.333C27.7607 241.11 27.2212 242.027 26.8861 243.024C26.551 244.021 26.4276 245.077 26.524 246.124L33.6201 323.251Z" fill="#83AF40"/>
<path d="M128.201 358.902H200.617V286.551H128.201V358.902Z" fill="#83AF40"/>
<path d="M54.2646 323.251H156.855L149.631 244.739C149.458 242.861 148.589 241.114 147.194 239.843C145.799 238.572 143.979 237.867 142.091 237.867H54.7082C53.6555 237.867 52.6143 238.086 51.6512 238.511C50.6882 238.936 49.8243 239.556 49.1148 240.333C48.4053 241.11 47.8657 242.027 47.5306 243.024C47.1955 244.021 47.0722 245.077 47.1685 246.124L54.2646 323.251Z" fill="#DEE8F5"/>
<g opacity="0.48">
<path opacity="0.48" d="M54.2646 323.251H156.855L149.631 244.739C149.458 242.861 148.589 241.114 147.194 239.843C145.799 238.572 143.979 237.867 142.091 237.867H54.7082C53.6555 237.867 52.6143 238.086 51.6512 238.511C50.6882 238.936 49.8243 239.556 49.1148 240.333C48.4053 241.11 47.8657 242.027 47.5306 243.024C47.1955 244.021 47.0722 245.077 47.1685 246.124L54.2646 323.251Z" fill="#93C742"/>
</g>
<path d="M90.4727 362.141H28.7971C27.3866 362.141 25.9899 361.863 24.6868 361.324C23.3836 360.784 22.1996 359.994 21.2022 358.998C20.2048 358.001 19.4137 356.818 18.8739 355.516C18.3341 354.214 18.0563 352.819 18.0563 351.409L18.0563 297.283C18.0563 295.873 18.3341 294.478 18.8739 293.176C19.4137 291.874 20.2048 290.691 21.2022 289.695C22.1996 288.698 23.3836 287.908 24.6868 287.368C25.9899 286.829 27.3866 286.551 28.7971 286.551H90.4727L90.4727 362.141Z" fill="#83AF40"/>
<path d="M90.4734 362.14H200.618C203.744 362.14 206.741 360.9 208.951 358.692C211.161 356.484 212.402 353.49 212.402 350.367V298.324C212.402 295.202 211.161 292.207 208.951 289.999C206.741 287.791 203.744 286.551 200.618 286.551C197.493 286.551 194.496 287.791 192.286 289.999C190.076 292.207 188.834 295.202 188.834 298.324V338.593H102.257V298.324C102.257 295.202 101.016 292.207 98.8059 289.999C96.596 287.791 93.5987 286.551 90.4734 286.551C87.3481 286.551 84.3508 287.791 82.1409 289.999C79.931 292.207 78.6895 295.202 78.6895 298.324V350.367C78.6895 353.49 79.931 356.484 82.1409 358.692C84.3508 360.9 87.3481 362.14 90.4734 362.14V362.14Z" fill="#93C742"/>
<path d="M195.003 340.535H102.096V315.35H195.003C195.992 315.35 196.971 315.544 197.885 315.922C198.799 316.301 199.63 316.855 200.329 317.554C201.029 318.252 201.583 319.082 201.962 319.995C202.34 320.908 202.535 321.887 202.535 322.875V333.011C202.535 333.999 202.34 334.977 201.962 335.89C201.583 336.803 201.028 337.633 200.329 338.332C199.629 339.03 198.799 339.585 197.885 339.963C196.971 340.341 195.992 340.535 195.003 340.535Z" fill="#F3F5FD"/>
<path opacity="0.15" d="M195.003 340.535H102.096V315.35H195.003C195.992 315.35 196.971 315.544 197.885 315.922C198.799 316.301 199.63 316.855 200.329 317.554C201.029 318.252 201.583 319.082 201.962 319.995C202.34 320.908 202.535 321.887 202.535 322.875L202.535 333.011C202.535 333.999 202.34 334.977 201.962 335.89C201.583 336.803 201.028 337.633 200.329 338.332C199.629 339.03 198.799 339.585 197.885 339.963C196.971 340.341 195.992 340.535 195.003 340.535Z" fill="#83AF40"/>
</g>
<defs>
<clipPath id="clip0_2917_73116">
<rect width="635" height="377" fill="white"/>
</clipPath>
</defs>
</svg>
