<svg width="115" height="118" viewBox="0 0 115 118" fill="none" xmlns="http://www.w3.org/2000/svg">
<path d="M107.478 103.125V63.2668C107.478 58.4312 105.136 53.8915 101.187 51.0705L86.5526 40.6172H70.1406V77.4799C70.1406 82.1072 72.6741 86.3673 76.7513 88.5968C77.6086 89.0656 78.1413 89.9613 78.1413 90.9344V103.125H107.478Z" fill="#FED2A4"/>
<path d="M107.479 63.2651V103.125H102.589V65.6976C102.589 60.8622 100.246 56.3231 96.298 53.5006L79.668 40.6152H86.5524L101.188 51.0681C105.138 53.8904 107.479 58.4295 107.479 63.2651Z" fill="#FFBD86"/>
<path d="M89.5716 69.2979H6.04731C3.78844 69.2979 1.95703 67.4769 1.95703 65.2303V6.48943C1.95703 4.24311 3.78821 2.42188 6.04731 2.42188H89.5716C91.8304 2.42188 93.6618 4.24288 93.6618 6.48943V65.2303C93.6618 67.4766 91.8304 69.2979 89.5716 69.2979Z" fill="#F3EAE6"/>
<path d="M93.6605 6.48995V65.2311C93.6605 67.4767 91.8286 69.2982 89.5706 69.2982H6.04686C3.78638 69.2982 1.95703 67.4767 1.95703 65.2311V63.5714H84.0686C86.3268 63.5714 88.1585 61.7522 88.1585 59.5043V2.42285H89.5706C91.8288 2.42285 93.6605 4.24203 93.6605 6.48995Z" fill="#E8DCD9"/>
<path d="M1.95703 27.7705H93.6618V43.9484H1.95703V27.7705Z" fill="#D94E4E"/>
<path d="M88.1562 27.7705H93.6585V43.9484H88.1562V27.7705Z" fill="#BD2C2C"/>
<path d="M68.1856 35.8586C68.1856 38.3587 64.1571 40.0441 63.2505 42.218C62.3106 44.4716 63.9253 48.4882 62.2175 50.1866C60.5096 51.8849 56.4708 50.2792 54.2044 51.2136C52.0183 52.115 50.3235 56.1213 47.8095 56.1213C45.2955 56.1213 43.6007 52.1152 41.4146 51.2136C39.1484 50.279 35.1093 51.8847 33.4015 50.1863C31.6937 48.488 33.3084 44.4716 32.3688 42.2178C31.4623 40.0438 27.4336 38.3585 27.4336 35.8584C27.4336 33.3583 31.4621 31.673 32.3688 29.499C33.3086 27.2454 31.6939 23.2288 33.4017 21.5305C35.1096 19.8321 39.1484 21.4378 41.4148 20.5034C43.6009 19.602 45.2957 15.5957 47.8097 15.5957C50.3238 15.5957 52.0185 19.6018 54.2046 20.5034C56.4708 21.4381 60.5099 19.8323 62.2177 21.5307C63.9255 23.229 62.3108 27.2454 63.2505 29.4992C64.1569 31.6732 68.1856 33.3586 68.1856 35.8586Z" fill="#C43939"/>
<path d="M68.1819 35.8605C68.1819 38.3592 64.1538 40.0462 63.2483 42.2188C62.3085 44.4735 63.9222 48.4883 62.2144 50.1867C60.5066 51.8852 56.4671 50.2802 54.202 51.2148C52.015 52.1153 50.3209 56.1232 47.8057 56.1232C46.4073 56.1232 45.2633 54.883 44.1445 53.6268C46.2904 52.9953 48.1472 48.6613 50.1257 47.8472C52.3908 46.9126 55.8684 47.9137 57.5765 46.2151C59.2843 44.5168 57.9525 42.0795 58.8923 39.8248C59.7979 37.6522 61.1816 37.5996 61.9389 35.3751C62.4643 33.832 59.8576 32.4315 58.9518 30.2564C58.2388 28.5488 58.9335 22.6784 58.5987 20.7222C60.0384 20.6631 61.3956 20.7177 62.2139 21.5315C63.9218 23.2298 62.308 27.2468 63.2478 29.4993C64.1538 31.6746 68.1819 33.3596 68.1819 35.8605Z" fill="#BD2C2C"/>
<path d="M90.6652 77.5916H87.6692C85.476 77.5916 83.6982 75.8236 83.6982 73.6426V69.0997C83.6982 68.062 83.2874 67.0659 82.5547 66.327L74.8258 58.533C72.353 56.0391 72.41 52.0154 74.9528 49.5921C77.4133 47.2472 81.3013 47.2675 83.7369 49.638L97.0668 62.6119V77.5918H90.6652V77.5916Z" fill="#FED2A4"/>
<path d="M110.679 115.408H73.9675C72.9908 115.408 72.1992 114.62 72.1992 113.649V104.008C72.1992 103.037 72.991 102.25 73.9675 102.25H110.679C111.656 102.25 112.448 103.037 112.448 104.008V113.649C112.448 114.62 111.656 115.408 110.679 115.408Z" fill="#FEA613"/>
<path d="M112.448 104.009V113.65C112.448 114.619 111.656 115.407 110.679 115.407H73.9659C72.9912 115.407 72.1992 114.619 72.1992 113.65V111.87H106.734C107.711 111.87 108.501 111.082 108.501 110.112V102.25H110.679C111.656 102.25 112.448 103.038 112.448 104.009Z" fill="#FE9901"/>
<path d="M110.685 100.543H109.199V93.7323C109.199 92.7895 108.431 92.0255 107.482 92.0255C106.534 92.0255 105.766 92.7895 105.766 93.7323V100.543H79.8622V90.9334C79.8622 89.3382 78.989 87.8695 77.5827 87.1003C74.0536 85.1707 71.8613 81.4839 71.8613 77.4789V71.0044H81.9824V73.6432C81.9824 76.7618 84.5335 79.2992 87.6698 79.2992H90.6657C91.6138 79.2992 92.382 78.5353 92.382 77.5925C92.382 76.6497 91.6138 75.8857 90.6657 75.8857H87.6698C86.4265 75.8857 85.415 74.8799 85.415 73.6432V69.1003C85.415 67.6047 84.8333 66.1943 83.7772 65.1295L76.0486 57.3355C75.1776 56.4573 74.7078 55.2942 74.7254 54.0608C74.7428 52.8276 75.2456 51.6781 76.1413 50.8247C77.9432 49.1073 80.7531 49.1216 82.5373 50.8582L95.8673 63.8321C96.5449 64.4914 97.6314 64.4795 98.2943 63.8061C98.9571 63.1325 98.9456 62.0518 98.2682 61.3926L95.3798 58.5812V49.0197L100.19 52.4559C103.682 54.9499 105.766 58.991 105.766 63.2661V85.8054C105.766 86.7482 106.534 87.5122 107.482 87.5122C108.431 87.5122 109.199 86.7482 109.199 85.8054V63.2661C109.199 57.8946 106.58 52.8171 102.193 49.6833L95.3798 44.8165V6.48917C95.3796 3.30526 92.7747 0.714844 89.573 0.714844H6.04877C2.84707 0.714844 0.242188 3.30526 0.242188 6.48917V49.7736C0.242188 50.7164 1.0104 51.4804 1.95849 51.4804C2.90657 51.4804 3.67478 50.7164 3.67478 49.7736V45.6551H30.9205C30.9191 45.679 30.9179 45.7029 30.9166 45.7265C30.8063 47.68 30.6811 49.894 32.1894 51.3941C33.6981 52.894 35.9247 52.7695 37.8886 52.6598C38.993 52.5979 40.1354 52.5342 40.7587 52.7909C41.324 53.024 42.0858 53.8812 42.7579 54.6374C44.0874 56.1332 45.5943 57.8286 47.8109 57.8286C50.0274 57.8286 51.5343 56.1332 52.8639 54.6372C53.5362 53.8812 54.298 53.024 54.863 52.7909C55.4862 52.5342 56.6286 52.5977 57.7329 52.6598C59.6982 52.7695 61.9239 52.894 63.432 51.3941C64.9407 49.894 64.8155 47.68 64.705 45.7265C64.7036 45.7026 64.7025 45.6787 64.7011 45.6551H91.947V55.2402L84.9381 48.4186C81.8218 45.3861 76.9145 45.3601 73.7659 48.3602C72.2018 49.851 71.3235 51.8583 71.2928 54.0127C71.2622 56.1669 72.0833 58.1982 73.6046 59.732L81.3332 67.5262C81.3538 67.5469 81.3716 67.5695 81.3913 67.5908H6.04877C4.73958 67.5908 3.67478 66.532 3.67478 65.23V57.7765C3.67478 56.8337 2.90657 56.0697 1.95849 56.0697C1.0104 56.0697 0.242188 56.8337 0.242188 57.7765V65.23C0.242188 68.4139 2.84707 71.0044 6.04877 71.0044H68.4289V77.4789C68.4289 82.7289 71.3029 87.562 75.9289 90.0914C76.2378 90.2605 76.4296 90.583 76.4296 90.9334V100.543H73.9726C72.0512 100.543 70.488 102.097 70.488 104.008V113.649C70.488 115.559 72.0512 117.114 73.9726 117.114H110.685C112.606 117.114 114.169 115.56 114.169 113.649V104.008C114.169 102.097 112.606 100.543 110.685 100.543ZM3.67478 42.2415V29.4772H30.3548C29.974 29.9139 29.4293 30.3934 28.9277 30.8344C27.4236 32.1566 25.7187 33.6551 25.7187 35.8594C25.7187 38.0636 27.4236 39.5621 28.9277 40.8843C29.4293 41.3253 29.974 41.8046 30.3548 42.2415H3.67478ZM64.4205 38.3269C63.3308 39.2845 62.204 40.2749 61.6662 41.565C61.1074 42.9051 61.1941 44.4369 61.2779 45.9181C61.3445 47.0956 61.4273 48.5604 61.0051 48.9803C60.5831 49.4006 59.1096 49.3178 57.9261 49.2515C56.4368 49.1687 54.8962 49.0818 53.5484 49.6377C52.2511 50.1727 51.2552 51.2931 50.2922 52.3765C49.4853 53.2848 48.4805 54.4151 47.8111 54.4151C47.1418 54.4151 46.1374 53.2847 45.33 52.3767C44.3669 51.2931 43.3709 50.1725 42.0736 49.6377C41.2164 49.2841 40.2814 49.1903 39.331 49.1903C38.787 49.1903 38.2383 49.2213 37.6959 49.2515C36.5122 49.3178 35.0393 49.4002 34.6169 48.9805C34.1945 48.5604 34.2775 47.0956 34.3441 45.9181C34.4279 44.4369 34.5146 42.9051 33.9558 41.5652C33.4178 40.2747 32.2912 39.2845 31.2015 38.3267C30.2884 37.524 29.1518 36.525 29.1518 35.8594C29.1518 35.1937 30.2884 34.1949 31.2015 33.3921C32.2912 32.4345 33.418 31.4439 33.9558 30.154C34.5146 28.8139 34.4279 27.2821 34.3441 25.8006C34.2775 24.6234 34.1947 23.1583 34.6167 22.7385C35.0393 22.3186 36.5126 22.4008 37.6962 22.4674C39.1852 22.5507 40.7258 22.637 42.0736 22.0812C43.3712 21.5462 44.3669 20.4259 45.3298 19.3422C46.1369 18.4342 47.1415 17.3039 47.8111 17.3039C48.4807 17.3039 49.4851 18.4342 50.2924 19.3425C51.2554 20.4259 52.2513 21.5462 53.5486 22.0812C54.8965 22.6372 56.437 22.5505 57.9263 22.4674C59.1105 22.4008 60.5836 22.3191 61.0056 22.7387C61.428 23.1586 61.3449 24.6234 61.2781 25.8006C61.1944 27.2821 61.1076 28.8139 61.6665 30.154C62.2047 31.4441 63.331 32.4345 64.4208 33.3921C65.3341 34.1947 66.4707 35.1937 66.4707 35.8594C66.4707 36.525 65.3338 37.5243 64.4205 38.3269ZM65.2668 42.2415C65.6476 41.8048 66.1922 41.3253 66.6938 40.8845C68.1982 39.5621 69.9031 38.0636 69.9031 35.8594C69.9031 33.6551 68.198 32.1566 66.6938 30.8344C66.1922 30.3934 65.6476 29.9142 65.2668 29.4772H71.6231C72.5711 29.4772 73.3394 28.7133 73.3394 27.7705C73.3394 26.8276 72.5711 26.0637 71.6231 26.0637H64.7011C64.7025 26.04 64.7036 26.0161 64.705 25.9925C64.8155 24.039 64.9409 21.825 63.4324 20.3249C61.9237 18.8247 59.6973 18.9492 57.7329 19.0591C56.6279 19.1208 55.4857 19.185 54.863 18.9281C54.2978 18.695 53.536 17.8378 52.8641 17.0818C51.5346 15.5858 50.0274 13.8904 47.8109 13.8904C45.5943 13.8904 44.0874 15.5858 42.7576 17.0816C42.0855 17.8378 41.3237 18.695 40.7585 18.9281C40.1354 19.1848 38.9928 19.1206 37.8889 19.0591C35.9238 18.9488 33.6979 18.8247 32.1894 20.3249C30.6811 21.825 30.8063 24.039 30.9166 25.9925C30.9179 26.0161 30.9191 26.04 30.9205 26.0637H3.67478V6.48917C3.67478 5.18725 4.73958 4.12837 6.04877 4.12837H89.573C90.8822 4.12837 91.947 5.18725 91.947 6.48917V26.0639H79.518C78.5699 26.0639 77.8017 26.8279 77.8017 27.7707C77.8017 28.7135 78.5699 29.4774 79.518 29.4774H91.947V42.2418L65.2668 42.2415ZM110.737 113.649C110.737 113.677 110.713 113.701 110.684 113.701H73.9726C73.9439 113.701 73.9206 113.677 73.9206 113.649V104.008C73.9206 103.98 73.9439 103.956 73.9726 103.956H110.685C110.713 103.956 110.737 103.98 110.737 104.008L110.737 113.649Z" fill="black"/>
</svg>
