<svg width="146" height="143" viewBox="0 0 146 143" fill="none" xmlns="http://www.w3.org/2000/svg">
<path d="M102.77 129.617C101.671 127.737 100.579 125.862 98.8949 124.3C98.0804 123.518 97.0929 122.883 95.9902 122.434C90.2205 120.15 85.167 116.712 81.2502 112.406C78.736 109.661 77.0182 106.414 75.0014 103.364C73.7596 101.482 72.5605 99.581 71.3034 97.7011C71.0912 97.3915 70.9542 97.0481 70.9007 96.6915C71.0371 94.2257 70.1003 91.8047 68.2736 89.903C68.0048 89.6033 67.6412 89.3768 67.2266 89.2509C66.812 89.125 66.364 89.1049 65.9365 89.1931C65.1828 88.3045 65.4391 87.7444 66.7237 87.4736C72.6764 86.2195 77.3782 88.3912 80.0541 92.6005C81.1861 94.3831 82.2479 96.2077 83.6911 97.822C84.1731 98.3479 84.6522 99.2602 85.5889 98.9868C86.5256 98.7133 86.2937 97.7773 86.2998 97.078C86.3181 94.7249 85.6163 92.4691 84.9115 90.2264C83.7887 86.6507 82.4706 83.1276 81.1067 79.6151C81.0067 79.4049 80.8915 79.2003 80.762 79.0025C80.626 78.1215 80.3273 77.2649 79.8771 76.4653L76.0144 65.5175C75.8771 64.7445 75.6879 63.9741 75.6177 63.1959C75.4987 61.8392 75.2058 60.4353 76.7345 59.4125C78.9709 57.9218 81.778 58.466 83.0412 60.6377C83.7002 61.7683 84.0847 63.004 84.9359 64.0556L85.0976 64.3343C85.8635 66.3956 86.9924 68.3149 88.1061 70.2447C90.4432 74.9509 92.9086 79.6072 95.6302 84.1583C95.6714 84.2672 95.7473 84.3639 95.8493 84.4374C95.9512 84.5108 96.0752 84.5581 96.2069 84.5737C96.2596 83.9093 96.3513 83.2477 96.4815 82.5913C97.052 80.3696 98.065 79.6992 100.683 79.6729C101.879 79.6729 103.035 79.7728 104.094 80.3039C104.93 80.7219 105.379 81.395 105.754 82.1312C105.873 82.3625 106.035 82.6281 106.398 82.6228C106.761 82.6176 106.767 82.3441 106.871 82.1364C107.719 80.4695 108.134 80.1882 110.251 80.296C112.369 80.4038 114.373 80.6825 115.438 82.586C115.618 82.9147 115.868 82.9672 116.235 82.6701C119.032 80.4038 121.507 80.3907 124.442 82.4993C126.489 83.9716 127.359 85.9172 127.597 88.0941C128.161 93.2815 128.845 98.4688 128.943 103.68C129.046 106.55 128.312 109.397 126.807 111.959C126.096 113.137 126.343 114.346 127.145 115.427C128.271 116.941 129.48 118.408 130.651 119.897C128.848 120.365 126.959 120.393 125.116 120.67C118.98 121.557 113.112 123.492 107.856 126.362C106.062 127.337 104.564 128.641 102.77 129.617ZM76.4477 61.9418C76.6399 63.8243 77.6223 66.1011 79.3432 65.9565C81.5614 65.7725 83.1388 64.9233 83.1052 63.5508C83.0625 61.529 81.2318 59.402 79.5446 59.4073C77.781 59.4178 76.4324 60.5194 76.4477 61.9418Z" fill="#FDBD76"/>
<path d="M75.3739 79.5632C73.0825 82.1924 70.1198 84.0775 66.7483 85.5314C65.0522 86.2743 63.2481 86.8181 61.3844 87.1484C56.1975 88.0423 52.9907 90.8292 51.0929 94.957C50.3332 96.6055 49.848 98.3249 49.2134 100.008C45.2533 97.0486 40.7761 94.6467 35.947 92.8905C31.6771 91.3606 27.2003 90.3006 22.6227 89.7355C20.8286 89.5199 19.0315 89.3332 17.2344 89.1334C19.4587 84.5244 20.3862 79.7209 20.3099 74.7308C20.2611 71.3865 20.1787 68.0396 20.4015 64.69C20.6824 61.1875 21.4528 57.7271 22.6959 54.3837C23.5533 51.9753 23.8615 49.5092 24.0811 47.022C24.5144 42.1291 25.7593 37.3703 27.1964 32.6431C27.4191 31.9148 27.6388 31.1839 27.8615 30.4556C30.0797 28.1892 31.6327 25.681 31.6724 22.6286C31.6937 20.7408 31.3307 20.2965 29.3962 19.7496C29.619 18.6033 29.9149 18.393 31.1751 18.5796C31.6918 18.6797 32.2013 18.8061 32.7006 18.9582L35.7518 20.9748C36.0569 21.7241 36.6671 22.3131 36.9936 23.0781C39.8861 30.0849 39.7671 37.2204 38.214 44.406C37.8082 46.27 37.1614 48.0868 36.6274 49.9272C36.5146 50.3111 36.3528 50.716 36.8075 51.0157C38.6565 52.1988 39.9715 53.8236 41.5581 55.2224C42.2538 56.1426 42.9484 57.0645 43.642 57.9882L43.819 58.1959C45.1157 60.578 46.3697 62.9758 47.2302 65.5103C48.118 69.2595 48.7924 73.0245 48.1455 76.8683C48.0021 77.3416 47.8404 77.8095 47.7153 78.2881C47.4102 79.4975 47.4102 79.5001 48.8076 79.5001C56.6104 79.5001 64.4122 79.5001 72.2129 79.5001C73.2473 79.508 74.3121 79.5448 75.3739 79.5632Z" fill="#FDBD76"/>
<path d="M17.2382 89.1443C19.0353 89.3441 20.8325 89.5307 22.6265 89.7463C27.2042 90.3114 31.6809 91.3715 35.9509 92.9013C40.78 94.6575 45.2572 97.0595 49.2172 100.018C49.2942 100.131 49.3898 100.234 49.501 100.323C51.3927 101.399 51.6978 102.845 51.3317 104.722C50.7062 107.951 50.3553 111.221 49.98 114.482C49.8763 115.389 49.2081 115.312 48.5582 115.37C43.5233 115.791 38.4622 115.933 33.4062 115.796C25.6136 115.623 17.9552 114.744 10.5959 112.404C7.05376 111.283 3.7345 109.695 0.755928 107.698C-0.0892391 107.13 -0.25095 106.689 0.398944 105.858C4.4529 100.664 8.46413 95.4385 12.4327 90.1801C13.0246 89.3914 13.6531 89.0365 14.7332 89.1285C15.5671 89.1758 16.4036 89.1811 17.2382 89.1443Z" fill="#FE7978"/>
<path d="M102.769 129.617C104.563 128.653 106.061 127.348 107.852 126.368C113.108 123.499 118.976 121.565 125.112 120.678C126.943 120.402 128.844 120.373 130.647 119.905C131.517 120.084 132.395 119.971 133.265 119.945C133.599 119.91 133.937 119.96 134.238 120.09C134.539 120.22 134.788 120.424 134.955 120.676C138.452 125.203 141.98 129.717 145.54 134.218C146.122 134.952 145.723 135.244 145.149 135.636C141.845 137.889 138.095 139.372 134.089 140.402C128.514 141.835 122.799 142.464 117.002 142.621C112.557 142.766 108.104 142.645 103.678 142.261C102.979 142.198 102.723 141.998 102.65 141.388C102.259 138.194 101.817 135.002 101.368 131.813C101.314 131.571 101.338 131.32 101.436 131.089C101.534 130.857 101.704 130.653 101.927 130.498C102.259 130.256 102.662 130.028 102.769 129.617Z" fill="#FE7978"/>
<path d="M35.7426 20.99L32.6914 18.9734L32.7341 18.9392L32.7829 18.9655C32.9935 18.8866 32.9263 18.8288 32.7829 18.7762C32.7829 15.4635 32.5755 12.1376 32.8043 8.83532C33.1399 3.81098 37.8326 0.0644146 43.6877 0.0381229C54.8366 -0.0127076 65.9896 -0.0127076 77.1466 0.0381229C83.3435 0.0696729 88.0819 4.26583 88.149 9.60567C88.149 10.3287 88.149 11.0517 88.1734 11.7721C88.1734 15.8964 88.1836 20.0233 88.2039 24.1529C88.2039 25.5831 88.2039 27.0125 88.2039 28.441C88.2039 32.0482 88.2039 35.6555 88.2039 39.2627C88.2039 40.3862 88.2039 41.5106 88.2039 42.6359C88.2039 51.2105 88.1958 59.786 88.1795 68.3623C88.1582 68.9881 88.1338 69.6138 88.1124 70.2369C86.9987 68.3097 85.8698 66.3904 85.104 64.3292C85.104 64.1977 85.104 64.0663 85.104 63.9322C85.1192 63.7034 85.1467 63.4747 85.1467 63.2459V14.7378C85.1467 14.5091 85.1162 14.2803 85.1009 14.0542C85.1009 12.4452 85.1986 10.8335 85.1192 9.22969C85.02 7.64187 84.2894 6.13188 83.0504 4.95355C81.8113 3.77522 80.1392 3.00039 78.3152 2.75931C76.6492 2.54372 74.9589 2.6594 73.2991 2.65677C63.5517 2.64626 53.8043 2.64626 44.0569 2.65677C39.6633 2.65677 36.0904 5.36482 35.8188 8.9326C35.6907 10.631 35.8188 12.3505 35.8188 14.049C35.7883 16.3626 35.7629 18.6763 35.7426 20.99Z" fill="#2E3638"/>
<path d="M88.1758 68.3563C88.1758 59.7799 88.1839 51.2045 88.2002 42.6299C91.1934 43.7736 92.8776 45.8112 93.5916 48.5113C93.7838 49.2344 93.9699 49.9574 94.156 50.683C93.9695 51.8865 93.9582 53.1054 94.1225 54.3113C94.2811 55.5444 94.333 56.901 95.8525 57.6424C95.7731 58.8124 94.6778 59.6222 93.2651 59.3198C91.9745 59.0438 92.0874 59.4276 92.124 60.311C92.2002 62.0752 91.8951 63.8446 91.9745 65.6193C91.9738 66.0781 92.052 66.5343 92.2063 66.9734C92.606 67.9803 92.1148 68.5509 90.8608 68.6823C89.918 68.7822 89.0911 68.3826 88.1758 68.3563Z" fill="#FABC76"/>
<path d="M75.3776 79.5631C74.3158 79.5446 73.2418 79.5078 72.1892 79.5078C64.3884 79.5078 56.5866 79.5078 48.7838 79.5078C47.3834 79.5078 47.3773 79.5078 47.6915 78.2958C47.8166 77.8173 47.9783 77.3493 48.1217 76.876C57.5111 76.876 66.8985 76.8822 76.2838 76.8945C77.5005 76.9187 78.7136 76.7713 79.875 76.458C80.3252 77.2576 80.6239 78.1142 80.7598 78.9952C79.0237 79.5552 77.193 79.471 75.3776 79.5631Z" fill="#2E3637"/>
<path d="M88.2032 24.1531C88.1849 20.0253 88.1758 15.8983 88.1758 11.7723C89.2528 11.4752 90.2017 10.8994 91.3734 10.7811C93.3871 10.576 95.8494 11.8801 95.9898 13.3629C96.0329 14.3196 95.7678 15.2678 95.2239 16.1025C93.4329 19.1419 90.9737 21.75 88.2032 24.1531Z" fill="#FABC76"/>
<path d="M88.1758 39.2631C88.1758 35.6558 88.1758 32.0486 88.1758 28.4414C89.4359 28.9173 90.1316 29.8769 90.8821 30.7866C91.3246 32.188 92.2521 33.3764 93.14 34.5726C94.2445 36.066 94.6198 36.1501 96.5878 35.6427C97.6526 36.3605 97.1217 37.6645 96.1484 38.3192C94.3665 39.5128 92.3284 39.6706 90.2078 39.4182C89.5344 39.3339 88.856 39.2821 88.1758 39.2631Z" fill="#FABC76"/>
<path d="M29.4019 19.7656C31.3363 20.3125 31.6994 20.7568 31.6781 22.6446C31.6384 25.697 30.0854 28.2053 27.8672 30.4716C27.9587 29.0413 28.3401 27.6452 28.5384 26.2255C28.813 24.2825 28.871 22.3291 29.1487 20.3914C29.1975 20.1653 29.1517 19.926 29.4019 19.7656Z" fill="#FEE6CC"/>
<path d="M65.9297 89.183C66.3572 89.0948 66.8052 89.1148 67.2198 89.2408C67.6344 89.3667 67.998 89.5931 68.2669 89.8928C70.0935 91.7946 71.0304 94.2155 70.8939 96.6813C69.9419 96.3212 69.8321 95.4404 69.4202 94.7831C68.2485 92.919 66.8328 91.168 65.9297 89.183Z" fill="#FEE6CC"/>
<path d="M96.608 35.6422C94.64 36.168 94.2647 36.0655 93.1602 34.5721C92.2723 33.3759 91.3448 32.1875 90.9023 30.7861C91.6895 30.9807 92.0953 31.5749 92.6079 32.0376C93.9443 33.2391 95.476 34.275 96.608 35.6422Z" fill="#FEE6CC"/>
<path d="M95.8492 57.6489C94.3236 56.9074 94.2779 55.5455 94.1192 54.3177C93.955 53.1118 93.9662 51.8929 94.1527 50.6895C94.8789 51.4151 94.8911 52.359 95.1169 53.2213C95.5014 54.6858 96.0445 56.1213 95.8492 57.6489Z" fill="#FEE6CC"/>
<path d="M32.7695 18.7764C32.9282 18.829 32.9953 18.8868 32.7695 18.9657C32.7817 18.9026 32.7756 18.8395 32.7695 18.7764Z" fill="#2E3637"/>
<path d="M35.7461 20.9898C35.7664 18.6762 35.7888 16.3625 35.8132 14.0488H85.0831C85.0831 14.2749 85.1289 14.5037 85.1289 14.7324V63.2406C85.1289 63.4693 85.1014 63.698 85.0861 63.9268C85.0521 63.9349 85.0208 63.9498 84.9948 63.9704C84.9688 63.991 84.9489 64.0166 84.9366 64.0451C84.0854 62.9934 83.7009 61.7525 83.0419 60.6272C81.7787 58.4555 78.9716 57.9112 76.7352 59.402C75.2096 60.4247 75.4994 61.8287 75.6184 63.1854C75.6886 63.9741 75.8778 64.7339 76.0151 65.5069H47.2001C46.3397 62.9724 45.0856 60.5746 43.7889 58.1926C54.3662 58.1926 64.9435 58.1926 75.5208 58.1926C77.8763 58.1926 79.1822 57.0436 79.2035 55.0113C79.2035 52.5162 79.112 50.0159 79.234 47.526C79.3652 44.8732 77.4583 43.8084 74.9106 43.8189C65.211 43.8557 55.5083 43.8347 45.8057 43.8347C42.9468 43.8347 41.5616 45.0441 41.5524 47.5418C41.5524 50.1026 41.5524 52.6634 41.5524 55.2242C39.9658 53.8229 38.6508 52.1981 36.8018 51.0176C36.3472 50.7257 36.4967 50.3129 36.6218 49.9291C37.1557 48.0887 37.8026 46.264 38.2084 44.4078C39.7767 37.2223 39.8956 30.0868 36.9879 23.08C36.6767 22.3281 36.0421 21.7391 35.7461 20.9898ZM70.0684 24.8889C69.2538 24.016 68.7656 22.9801 68.1279 22.0205C67.6977 21.3684 67.0173 21.5367 66.4101 21.5814C65.69 21.6366 65.9829 22.1861 65.9768 22.5226C65.9433 23.9003 65.9768 25.2806 65.9555 26.6583C65.9555 27.1237 65.9555 27.4891 66.7091 27.476C67.4627 27.4628 67.481 27.1 67.478 26.6373C67.478 25.654 67.478 24.6707 67.478 23.5401C68.2682 24.7785 69.0036 25.8775 69.6809 27.0054C70.0654 27.6521 70.7122 27.4944 71.2706 27.426C71.8808 27.3524 71.6336 26.8502 71.6397 26.5321C71.6642 25.186 71.6581 23.8399 71.6397 22.4937C71.6397 22.0678 71.835 21.5446 70.9349 21.542C70.1233 21.542 70.1264 21.9547 70.1203 22.4464C70.1203 23.2641 70.0776 24.0817 70.0532 24.8994L70.0684 24.8889ZM52.4816 23.4691C52.7257 23.8109 52.8264 23.9345 52.9118 24.0686C53.5221 25.0466 54.1628 26.0168 54.7425 27.0133C55.1209 27.66 55.7769 27.4812 56.3383 27.4313C56.9668 27.3761 56.7349 26.8792 56.741 26.5584C56.7624 25.115 56.741 23.6663 56.741 22.2308C56.741 21.705 56.4878 21.5472 55.9111 21.5472C55.3344 21.5472 55.1971 21.7707 55.2063 22.2098C55.2276 23.1089 55.2063 24.0081 55.2063 25.2018C54.4038 23.9529 53.7509 22.9696 53.1346 21.9705C52.741 21.3343 52.0789 21.5683 51.5144 21.5788C50.8523 21.5788 51.0628 22.0888 51.0598 22.4096C51.0384 23.8188 51.0598 25.2307 51.0598 26.6399C51.0598 27.0842 51.0171 27.4865 51.789 27.4734C52.4816 27.4734 52.4786 27.1211 52.4755 26.7004C52.4816 25.7039 52.4816 24.7127 52.4816 23.4691ZM43.5418 24.5366C43.5418 26.3454 44.8293 27.5812 46.7394 27.589C48.6494 27.5969 50.0956 26.2745 50.12 24.5155C50.1444 22.7566 48.7958 21.5157 46.8706 21.5104C44.8538 21.5025 43.5479 22.6856 43.5418 24.5366ZM72.8663 24.6417C73.0036 25.4463 72.3415 26.7661 73.1318 27.2919C73.8549 27.7731 75.3103 27.4366 76.4453 27.4628C76.5216 27.4628 76.5979 27.4628 76.6741 27.4628C77.0799 27.4812 77.321 27.355 77.324 26.9659C77.3271 26.5768 77.2111 26.3192 76.7138 26.3192C76.2592 26.3192 75.7985 26.2955 75.3469 26.3192C74.7672 26.3454 74.5322 26.1456 74.5444 25.6329C74.5566 25.1203 74.8495 25.0177 75.3347 25.0361C75.6764 25.0361 76.0181 25.0361 76.3599 25.0361C76.8267 25.0519 77.0555 24.8863 77.0708 24.4656C77.086 24.0449 76.8694 23.8661 76.3904 23.8951C76.2019 23.9148 76.0113 23.9148 75.8229 23.8951C75.3408 23.8162 74.5749 24.1843 74.5597 23.3377C74.5414 22.4122 75.3713 22.8118 75.8808 22.7277C76.0693 22.708 76.2599 22.708 76.4483 22.7277C76.906 22.7487 77.1501 22.6173 77.1623 22.1756C77.1623 21.6892 76.9182 21.5525 76.4056 21.563C75.4903 21.5814 74.5749 21.5893 73.6596 21.563C73.0738 21.5446 72.8358 21.7234 72.8602 22.2387C72.8907 22.9749 72.8663 23.7294 72.8663 24.6417ZM68.4269 33.1261L68.6374 33.0814C69.147 33.8701 69.6657 34.6589 70.163 35.4476C70.4345 35.8736 70.8678 35.892 71.3407 35.8499C71.7374 35.8157 71.8137 35.587 71.8137 35.2899C71.8137 34.0752 71.8137 32.8623 71.8137 31.6511C71.8137 31.2488 71.6092 31.0595 71.1272 31.0569C70.5688 31.0569 70.5352 31.3514 70.5413 31.709C70.5413 32.3373 70.5413 32.9683 70.5413 33.8649C69.8823 32.8816 69.3819 32.1585 68.909 31.425C68.6039 30.9333 68.0699 31.0359 67.597 31.0885C67.0569 31.1463 67.1576 31.5512 67.1546 31.8772C67.1546 32.9289 67.1546 33.9806 67.1546 35.0322C67.1546 35.4161 67.0508 35.8709 67.7648 35.8788C68.5581 35.8788 68.4147 35.3872 68.4208 34.977C68.433 34.3381 68.4269 33.7334 68.4269 33.1261ZM43.5662 33.389V34.0752C43.5662 35.9577 44.1001 36.2916 46.2634 35.7552C46.5197 35.6979 46.7653 35.6094 46.9926 35.4923C47.4411 35.2452 47.789 34.8114 47.6028 34.4196C47.2459 33.6309 47.0933 32.8658 47.3954 32.0271C47.493 31.751 47.1787 31.4697 46.8584 31.333C46.4033 31.1261 45.9021 31.0055 45.3885 30.9792C44.8749 30.9529 44.3607 31.0216 43.8804 31.1805C43.1604 31.4434 43.676 32.2453 43.5753 32.7974C43.5522 32.994 43.5492 33.1919 43.5662 33.389ZM50.8126 35.9025C52.387 35.8867 53.5282 34.8271 53.5221 33.389C53.516 31.9508 52.4053 31.0043 50.8035 31.0227C49.2016 31.0411 48.149 32.0744 48.1826 33.5704C48.21 34.9481 49.3023 35.9104 50.8126 35.892V35.9025ZM77.3576 34.4669C77.3576 34.0989 77.3576 33.8044 77.3576 33.5099C77.3576 33.0945 77.0525 33.0051 76.6741 33.0498C76.2195 33.1024 75.6215 32.8079 75.3438 33.3127C75.3022 33.3783 75.28 33.4518 75.2791 33.5265C75.2782 33.6013 75.2988 33.6751 75.3389 33.7414C75.379 33.8077 75.4375 33.8644 75.5091 33.9066C75.5808 33.9488 75.6634 33.9751 75.7496 33.9832C76.2165 34.091 76.1005 34.4617 75.9968 34.7193C75.8656 35.048 75.4903 34.9612 75.2096 34.8955C74.8091 34.836 74.4502 34.6469 74.2063 34.3668C73.9624 34.0867 73.852 33.7369 73.8976 33.389C73.9342 32.6002 74.3797 32.0744 75.3225 31.9903C75.7396 31.9701 76.1579 31.9789 76.5734 32.0166C76.9213 32.035 77.0464 31.8588 77.0921 31.6064C77.1379 31.354 76.9945 31.2594 76.7657 31.1568C75.7649 30.7046 73.7603 31.1568 73.0402 32.0271C72.2103 33.0209 72.3476 34.488 73.3453 35.2636C74.1417 35.8814 75.9114 36.0865 76.9213 35.6895C77.6597 35.395 77.2203 34.8219 77.3484 34.4564L77.3576 34.4669ZM56.6098 31.028C55.1117 31.028 53.9462 32.0797 53.9126 33.4389C53.8942 33.7502 53.9479 34.0615 54.0707 34.3546C54.1935 34.6478 54.3828 34.9169 54.6277 35.1463C54.8726 35.3757 55.1681 35.5607 55.4969 35.6905C55.8257 35.8203 56.1812 35.8924 56.5427 35.9025C58.1049 35.9182 59.2887 34.835 59.2582 33.4127C59.2246 31.9167 58.2239 31.0227 56.6068 31.0227L56.6098 31.028ZM61.3665 32.6423C61.333 32.1743 61.3116 31.8299 61.2811 31.4855C61.2506 31.1411 60.9974 31.0569 60.6495 31.0595C60.3017 31.0622 60.021 31.099 60.021 31.4618C60.021 32.7746 60.021 34.0892 60.021 35.4056C60.021 35.8131 60.3658 35.863 60.7319 35.8657C60.8081 35.8739 60.8854 35.867 60.9579 35.8454C61.0305 35.8238 61.0963 35.7881 61.1503 35.7411C61.2042 35.6941 61.2449 35.637 61.2692 35.5742C61.2935 35.5115 61.3007 35.4448 61.2903 35.3793C61.2903 35.2478 61.2903 35.1164 61.2903 34.9849C61.3269 34.6747 61.1377 34.1961 61.5496 34.1094C62.0439 34.0016 62.0866 34.5511 62.3155 34.8166C62.5443 35.0822 62.6602 35.4082 62.9013 35.6553C63.0541 35.8057 63.2659 35.9022 63.4961 35.9265C63.7263 35.9507 63.9588 35.901 64.1492 35.7868C64.5702 35.5528 64.1095 35.2452 63.9295 35.0638C62.6602 33.7807 62.5168 32.5713 64.1248 31.4092C64.1858 31.3645 64.1644 31.2357 64.1766 31.1752C62.529 30.5153 62.3673 32.0586 61.3635 32.6318L61.3665 32.6423ZM57.9737 24.4314C57.9737 25.2202 57.9737 26.0089 57.9737 26.7977C57.9737 27.1447 57.9737 27.4681 58.5381 27.4628C59.603 27.4628 60.6739 27.4628 61.7327 27.4628C62.2117 27.4628 62.2697 27.1999 62.2727 26.8687C62.2758 26.5374 62.1568 26.2981 61.6961 26.3086C61.2353 26.3192 60.857 26.2771 60.442 26.3086C59.7372 26.3717 59.5267 26.122 59.542 25.5199C59.5908 24.4393 59.5267 23.3535 59.5664 22.2729C59.5877 21.7129 59.3589 21.5341 58.7151 21.5341C58.0713 21.5341 57.9493 21.797 57.9676 22.2624C57.995 22.988 57.9737 23.711 57.9737 24.4314ZM64.6435 24.5182C64.6435 23.7294 64.6282 22.9407 64.6435 22.1519C64.6435 21.6655 64.3811 21.5393 63.8746 21.5498C63.4322 21.5498 63.1454 21.6392 63.1484 22.0757C63.1606 23.6795 63.1606 25.2841 63.1484 26.8897C63.1484 27.3314 63.4047 27.4366 63.8593 27.4418C64.3139 27.4471 64.6587 27.3577 64.6404 26.8529C64.6282 26.0904 64.6465 25.3043 64.6465 24.5182H64.6435ZM66.169 33.3969C66.169 32.7738 66.169 32.1507 66.169 31.5302C66.169 31.1936 65.9982 31.0569 65.6198 31.0569C65.2415 31.0569 64.9028 31.099 64.8998 31.5012C64.8998 32.779 64.8998 34.0568 64.8998 35.3346C64.8998 35.7289 65.2629 35.7684 65.6381 35.7658C66.0134 35.7631 66.1538 35.5765 66.1507 35.2662C66.1721 34.6431 66.1751 34.02 66.1782 33.389L66.169 33.3969Z" fill="#FEFCFC"/>
<path d="M47.1953 65.5146H76.0103L79.8731 76.4625C78.7092 76.7737 77.494 76.9185 76.2758 76.891C66.8904 76.8753 57.5031 76.8691 48.1137 76.8726C48.7575 73.0288 48.0832 69.2638 47.1953 65.5146Z" fill="#DDF7F8"/>
<path d="M76.4454 61.9408C76.4302 60.5184 77.7788 59.4141 79.5423 59.4062C81.2296 59.4062 83.0603 61.528 83.103 63.5498C83.1366 64.9222 81.5591 65.7715 79.341 65.9555C77.6201 66.1001 76.6377 63.8233 76.4454 61.9408Z" fill="#FEE6CC"/>
<path d="M84.9336 64.05C84.9459 64.0214 84.9658 63.9958 84.9918 63.9753C85.0178 63.9547 85.0491 63.9397 85.0831 63.9316C85.0831 64.0631 85.0831 64.1946 85.0831 64.3286C85.0404 64.2366 84.9855 64.1499 84.9336 64.05Z" fill="#DDF6F7"/>
<path d="M41.5352 55.2364C41.5352 52.6756 41.5352 50.1148 41.5352 47.554C41.5352 45.0562 42.9295 43.8468 45.7884 43.8468C55.4911 43.8468 65.1937 43.8679 74.8933 43.8311C77.441 43.8311 79.348 44.8827 79.2168 47.5382C79.0947 50.028 79.1985 52.5336 79.1863 55.0234C79.1863 57.0558 77.859 58.2047 75.5035 58.2047C64.9262 58.2047 54.3489 58.2047 43.7716 58.2047C43.7137 58.1364 43.6557 58.0654 43.5947 57.997C42.9194 57.0786 42.2329 56.1583 41.5352 55.2364ZM53.1539 51.0639C53.1539 52.9359 54.3408 54.0717 56.3301 54.0822C58.3866 54.0822 59.7779 52.836 59.7627 50.9903C59.7474 49.2629 58.3317 47.9694 56.4644 47.972C54.5147 47.9746 53.1631 49.2393 53.1539 51.0639ZM66.8841 51.0455C66.8841 49.2761 65.5721 48.0009 63.7109 47.9746C61.8497 47.9483 60.257 49.4023 60.2692 51.1296C60.2692 52.8018 61.6635 54.069 63.4912 54.0874C65.6331 54.1032 66.8749 52.9911 66.8841 51.0455ZM47.4117 51.0192C47.4117 51.8079 47.4117 52.5967 47.4117 53.3854C47.4117 53.743 47.4544 54.0454 47.9883 54.0638C49.0928 54.1032 50.1973 54.14 51.25 53.8009C52.3026 53.4617 52.9007 52.2917 52.2081 51.5634C51.6772 51.0034 51.3263 50.68 52.0952 50.0622C52.4338 49.7993 52.3148 49.2577 52.0006 48.8712C51.4636 48.2165 49.0196 47.7511 47.8419 48.1955C46.9601 48.5267 47.5368 49.2971 47.4269 49.8597C47.3833 50.2451 47.3782 50.633 47.4117 51.0192ZM73.444 53.9113C72.7544 52.9253 72.1381 51.9867 71.4577 51.0876C71.3237 50.9517 71.2575 50.7756 71.2735 50.5978C71.2895 50.42 71.3864 50.2549 71.5431 50.1384C72.1168 49.5442 72.6385 48.9159 73.2396 48.2375C72.0435 47.9983 71.2106 48.0956 70.6492 49.0473C70.3715 49.5206 70.0755 50.0622 69.4043 50.4276C69.4043 49.8229 69.3829 49.3313 69.4043 48.8501C69.4256 48.369 69.2609 48.1245 68.6507 48.1113C68.0404 48.0982 67.7872 48.3059 67.7994 48.8554C67.8269 50.2646 67.7994 51.6739 67.7994 53.0831C67.7994 53.6089 67.7994 54.0506 68.6659 54.0559C69.5324 54.0611 69.389 53.5774 69.4134 53.1278C69.4379 52.6782 69.1938 51.9762 69.8772 51.8421C70.4722 51.7264 70.5912 52.4153 70.8078 52.7939C71.3357 53.7325 71.9764 54.4003 73.444 53.8955V53.9113Z" fill="#85D3DB"/>
<path d="M43.6289 58.0029C43.6899 58.0713 43.7479 58.1423 43.8059 58.2106C43.7357 58.1423 43.6777 58.0713 43.6289 58.0029Z" fill="#FEFCFC"/>
<path d="M85.0834 14.0536H35.8136C35.8136 12.3473 35.6793 10.6357 35.8136 8.93729C36.079 5.3695 39.6519 2.67198 44.0517 2.66146C53.799 2.64218 63.5464 2.64218 73.2938 2.66146C74.9658 2.66146 76.6501 2.54841 78.3099 2.764C80.1339 3.00508 81.806 3.77991 83.0451 4.95824C84.2842 6.13657 85.0147 7.64656 85.1139 9.23438C85.1811 10.8329 85.0956 12.4446 85.0834 14.0536Z" fill="#DDF6F7"/>
<path d="M70.0546 24.9C70.079 24.0823 70.1156 23.2647 70.1217 22.447C70.1217 21.9553 70.1217 21.5426 70.9364 21.5426C71.8365 21.5426 71.6351 22.0684 71.6412 22.4943C71.6412 23.8405 71.6595 25.1866 71.6412 26.5327C71.6412 26.8509 71.8822 27.353 71.272 27.4266C70.7136 27.495 70.0668 27.6528 69.6823 27.006C69.008 25.8781 68.2697 24.7791 67.4794 23.5407C67.4794 24.6713 67.4794 25.6441 67.4794 26.6379C67.4794 27.1006 67.4428 27.4635 66.7105 27.4766C65.9783 27.4897 65.9539 27.1243 65.9569 26.6589C65.9722 25.2812 65.9569 23.9009 65.9783 22.5232C65.9783 22.1867 65.6915 21.6372 66.4115 21.582C67.0218 21.5373 67.6991 21.369 68.1293 22.0211C68.767 22.9807 69.2552 24.0166 70.0698 24.8895C70.0749 24.9187 70.0852 24.9471 70.1003 24.9736C70.1003 24.9736 70.1461 24.9736 70.1675 24.9736L70.0546 24.9Z" fill="#FD807F"/>
<path d="M52.4817 23.4688C52.4817 24.7071 52.4817 25.7036 52.4817 26.7C52.4817 27.1207 52.4817 27.4625 51.7952 27.473C51.0232 27.473 51.0629 27.0839 51.066 26.6396C51.066 25.2303 51.066 23.8185 51.066 22.4092C51.066 22.0885 50.8585 21.5916 51.5206 21.5784C52.085 21.5784 52.741 21.3339 53.1407 21.9702C53.751 22.9692 54.41 23.9525 55.2125 25.2014C55.2125 24.0078 55.2125 23.0981 55.2125 22.2094C55.2125 21.7703 55.3498 21.5469 55.9173 21.5469C56.4848 21.5469 56.7533 21.7178 56.7472 22.2304C56.7319 23.6739 56.7472 25.1225 56.7472 26.5581C56.7472 26.8788 56.973 27.3757 56.3444 27.4309C55.783 27.4809 55.124 27.6597 54.7487 27.0129C54.1659 26.0164 53.5282 25.0463 52.918 24.0682C52.8234 23.9236 52.7227 23.8106 52.4817 23.4688Z" fill="#FD807F"/>
<path d="M43.5391 24.537C43.5391 22.6965 44.845 21.5029 46.8679 21.5108C48.7932 21.5108 50.1357 22.757 50.1174 24.5159C50.0991 26.2748 48.6589 27.5973 46.7367 27.5894C44.8145 27.5815 43.533 26.3458 43.5391 24.537ZM48.3935 24.5133C48.3935 24.3503 48.3935 24.1846 48.3599 24.0243C48.244 23.2723 47.8321 22.686 46.9167 22.5887C45.9312 22.4862 45.504 23.1146 45.2721 23.806C45.0479 24.441 45.1179 25.126 45.4674 25.7175C46.0319 26.6797 47.35 26.7271 48.0365 25.8305C48.3098 25.4335 48.4344 24.9735 48.3935 24.5133Z" fill="#FD807F"/>
<path d="M72.863 24.6418C72.863 23.7294 72.8874 22.9749 72.863 22.2229C72.8386 21.6971 73.0766 21.5288 73.6624 21.5472C74.5777 21.5788 75.4931 21.5709 76.4084 21.5472C76.921 21.5472 77.1773 21.6734 77.1651 22.1598C77.1651 22.6015 76.9088 22.733 76.4511 22.712C76.2627 22.6922 76.0721 22.6922 75.8836 22.712C75.3741 22.7961 74.5442 22.3965 74.5625 23.3219C74.5777 24.1685 75.3436 23.8004 75.8257 23.8793C76.0141 23.899 76.2047 23.899 76.3932 23.8793C76.8722 23.8504 77.0858 24.0239 77.0736 24.4498C77.0614 24.8758 76.8295 25.0361 76.3627 25.0204C76.0209 25.0204 75.6792 25.0204 75.3375 25.0204C74.8462 25.002 74.5564 25.1229 74.5472 25.6172C74.5381 26.1115 74.77 26.3297 75.3497 26.3034C75.8043 26.2797 76.265 26.3034 76.7166 26.3034C77.2261 26.3034 77.3421 26.5663 77.3268 26.9502C77.3116 27.334 77.0827 27.476 76.6769 27.4471C76.6006 27.4471 76.5244 27.4471 76.4481 27.4471C75.3131 27.4208 73.8577 27.7573 73.1346 27.2762C72.3382 26.7661 73.0003 25.4463 72.863 24.6418Z" fill="#FD807F"/>
<path d="M68.4255 33.1268C68.4255 33.7342 68.4255 34.3389 68.4255 34.9436C68.4255 35.3537 68.5628 35.8559 67.7695 35.8454C67.0585 35.8454 67.1592 35.3827 67.1592 34.9988C67.1592 33.9471 67.1592 32.8955 67.1592 31.8438C67.1592 31.5309 67.0616 31.126 67.6016 31.0551C68.0746 31.0025 68.5963 30.8999 68.9136 31.3916C69.3866 32.1251 69.887 32.8481 70.546 33.8314C70.546 32.9349 70.546 32.3039 70.546 31.6755C70.546 31.318 70.5735 31.0209 71.1318 31.0235C71.6139 31.0235 71.8214 31.2154 71.8183 31.6177C71.8183 32.8289 71.8183 34.0418 71.8183 35.2565C71.8183 35.5404 71.742 35.7823 71.3454 35.8165C70.8725 35.8585 70.4301 35.8401 70.1677 35.4142C69.6703 34.6255 69.1516 33.8367 68.6421 33.048L68.4255 33.1268Z" fill="#FD807F"/>
<path d="M43.5587 33.3911C43.5389 33.1952 43.5389 32.9981 43.5587 32.8022C43.6747 32.2501 43.159 31.4455 43.8639 31.1852C44.3442 31.0263 44.8584 30.9577 45.3719 30.984C45.8855 31.0103 46.3867 31.1309 46.8418 31.3377C47.1469 31.4745 47.4764 31.7558 47.3788 32.0318C47.0737 32.8705 47.2293 33.6251 47.5862 34.4244C47.7602 34.8161 47.4123 35.2499 46.976 35.4971C46.7487 35.6141 46.5031 35.7026 46.2468 35.76C44.0835 36.2858 43.5496 35.9624 43.5496 34.08L43.5587 33.3911ZM45.4169 33.7671C44.7731 33.7671 44.9165 34.1536 44.8921 34.4586C44.8677 34.8082 45.008 35.0265 45.4718 34.9844C45.9356 34.9423 46.3109 34.8004 46.2804 34.3429C46.2498 33.8854 45.841 33.7776 45.4169 33.7566V33.7671ZM45.4657 32.9547C45.7708 32.9179 46.1461 32.8022 46.1675 32.4288C46.1888 32.0555 45.8135 31.903 45.4077 31.8583C45.0019 31.8136 44.8829 32.0371 44.8921 32.3421C44.9012 32.6471 44.8463 32.9336 45.4566 32.9442L45.4657 32.9547Z" fill="#FD807F"/>
<path d="M50.8106 35.8905C49.3002 35.9089 48.214 34.9467 48.1805 33.5637C48.1469 32.0598 49.1965 31.0397 50.8014 31.0161C52.4063 30.9924 53.5139 31.9547 53.52 33.3823C53.5261 34.8099 52.3849 35.8748 50.8106 35.8905ZM52.0737 33.4165C52.0737 32.7829 51.9639 32.0388 50.896 31.881C50.1912 31.7759 49.4986 32.5567 49.5382 33.4217C49.5687 34.1211 49.7091 34.8467 50.7587 34.9519C51.5367 35.0282 52.0341 34.4629 52.0737 33.4165Z" fill="#FD807F"/>
<path d="M77.3454 34.4561C77.2173 34.8216 77.6505 35.3947 76.9122 35.6866C75.9022 36.0836 74.1326 35.8785 73.3362 35.2607C72.3385 34.4719 72.2012 33.018 73.0311 32.0241C73.7512 31.1618 75.7558 30.7096 76.7565 31.1539C76.9854 31.2564 77.1257 31.3747 77.083 31.6035C77.0403 31.8322 76.9122 32.032 76.5643 32.0136C76.1488 31.976 75.7305 31.9672 75.3134 31.9873C74.3706 32.0794 73.9251 32.5894 73.8885 33.3861C73.8429 33.734 73.9533 34.0838 74.1972 34.3639C74.4411 34.6439 74.8 34.8331 75.2005 34.8926C75.4812 34.9583 75.8565 35.0451 75.9877 34.7164C76.0914 34.4535 76.2073 34.088 75.7405 33.9802C75.6543 33.9721 75.5717 33.9458 75.5 33.9036C75.4284 33.8615 75.3699 33.8047 75.3298 33.7384C75.2897 33.6721 75.2691 33.5984 75.27 33.5236C75.2708 33.4488 75.2931 33.3754 75.3347 33.3098C75.6124 32.784 76.2104 33.0916 76.665 33.0469C77.0373 33.0022 77.3546 33.0916 77.3485 33.507C77.3424 33.7936 77.3454 34.088 77.3454 34.4561Z" fill="#FD807F"/>
<path d="M56.607 31.0225C58.2241 31.0225 59.2249 31.9216 59.2554 33.4071C59.2828 34.8295 58.1021 35.9127 56.5399 35.8969C56.1784 35.8869 55.8228 35.8148 55.494 35.685C55.1652 35.5551 54.8698 35.3701 54.6249 35.1408C54.38 34.9114 54.1907 34.6423 54.0679 34.3491C53.9451 34.056 53.8914 33.7447 53.9098 33.4334C53.9434 32.0741 55.1089 31.0225 56.607 31.0225ZM55.2798 33.4544C55.2798 34.33 55.89 35.0319 56.6558 34.9583C57.6932 34.8716 57.8458 34.1433 57.9037 33.4597C57.9739 32.6341 57.2935 31.8822 56.5948 31.8822C55.8961 31.8822 55.2828 32.6 55.2798 33.4492V33.4544Z" fill="#FD807F"/>
<path d="M61.3637 32.6322C62.3676 32.059 62.5293 30.5157 64.183 31.1572C64.183 31.2177 64.183 31.3465 64.1311 31.3912C62.5232 32.5533 62.6666 33.7575 63.9359 35.0458C64.1159 35.2272 64.5766 35.5348 64.1555 35.7688C63.9652 35.883 63.7327 35.9327 63.5024 35.9084C63.2722 35.8842 63.0605 35.7877 62.9076 35.6373C62.6666 35.3902 62.5445 35.0589 62.3218 34.7986C62.0991 34.5383 62.0503 33.9836 61.556 34.0914C61.1441 34.1808 61.3332 34.6566 61.2966 34.9669C61.2966 35.0983 61.2966 35.2298 61.2966 35.3613C61.3071 35.4268 61.2999 35.4935 61.2756 35.5562C61.2513 35.619 61.2106 35.6761 61.1566 35.7231C61.1026 35.7701 61.0368 35.8058 60.9643 35.8274C60.8918 35.849 60.8144 35.8559 60.7383 35.8476C60.3721 35.8476 60.0304 35.7951 60.0273 35.3875C60.0273 34.0765 60.0273 32.7619 60.0273 31.4438C60.0273 31.081 60.3325 31.0441 60.6559 31.0415C60.9793 31.0389 61.2661 31.1335 61.2875 31.4674C61.3088 31.8013 61.3302 32.1642 61.3637 32.6322Z" fill="#FD807F"/>
<path d="M57.9704 24.4312C57.9704 23.7108 57.9887 22.9878 57.9704 22.2674C57.9521 21.7967 58.0772 21.5417 58.7179 21.5391C59.3587 21.5365 59.5906 21.7179 59.5692 22.2779C59.5296 23.3585 59.5936 24.4443 59.5448 25.5249C59.5204 26.1217 59.7401 26.3715 60.4449 26.3137C60.8599 26.2769 61.2809 26.3137 61.6989 26.3137C62.1169 26.3137 62.2817 26.5266 62.2756 26.8737C62.2695 27.2207 62.2146 27.4679 61.7355 27.4679C60.6707 27.4679 59.5997 27.4679 58.541 27.4679C57.9796 27.4679 57.9735 27.1497 57.9765 26.8027C57.9704 26.006 57.9704 25.2199 57.9704 24.4312Z" fill="#FD807F"/>
<path d="M64.6461 24.5186C64.6461 25.3073 64.6277 26.0961 64.6461 26.8848C64.6644 27.3896 64.3562 27.479 63.865 27.4738C63.3737 27.4685 63.1602 27.3423 63.1602 26.9111C63.1724 25.3073 63.1724 23.7027 63.1602 22.0971C63.1602 21.6475 63.4439 21.5713 63.8863 21.5713C64.3928 21.5713 64.6674 21.687 64.6552 22.1734C64.6308 22.9463 64.6461 23.7325 64.6461 24.5186Z" fill="#FE7978"/>
<path d="M66.1755 33.3898C66.1755 34.0129 66.1755 34.636 66.1755 35.2591C66.1755 35.5693 66.0626 35.7534 65.6629 35.7586C65.2632 35.7639 64.9307 35.7218 64.9246 35.3275C64.9001 34.0497 64.9001 32.7719 64.9246 31.4941C64.9246 31.0919 65.2724 31.0498 65.6446 31.0498C66.0169 31.0498 66.1999 31.1865 66.1938 31.5231C66.1664 32.1514 66.1755 32.7745 66.1755 33.3898Z" fill="#FE7978"/>
<path d="M53.1524 51.0646C53.1524 49.2399 54.5132 47.9753 56.4629 47.9727C58.3302 47.9727 59.7459 49.2636 59.7612 50.9909C59.7612 52.8314 58.3851 54.0907 56.3286 54.0828C54.3393 54.0723 53.1432 52.9365 53.1524 51.0646ZM57.9732 51.1487C57.9885 49.9603 57.4087 49.1742 56.4903 49.14C55.5079 49.1058 54.7878 49.9419 54.797 51.1119C54.797 52.1925 55.4316 52.8945 56.4049 52.9102C57.4484 52.9286 57.9702 52.3581 57.9702 51.1487H57.9732Z" fill="#F7F7F8"/>
<path d="M66.8805 51.0458C66.8805 52.9914 65.6295 54.1035 63.4876 54.0798C61.6569 54.0614 60.2778 52.7942 60.2656 51.122C60.2656 49.4025 61.8461 47.946 63.7073 47.967C65.5685 47.9881 66.8866 49.2764 66.8805 51.0458ZM62.0597 50.9511C62.0312 52.3867 62.6282 53.0378 63.8507 52.9046C64.7661 52.8021 65.2848 52.0712 65.2451 50.9459C65.2054 49.8206 64.5738 49.137 63.6402 49.1396C62.7065 49.1423 62.078 49.8495 62.0597 50.9511Z" fill="#F7F7F8"/>
<path d="M47.4085 51.0202C47.3738 50.628 47.3789 50.2339 47.4237 49.8424C47.5366 49.2797 46.9569 48.5094 47.8387 48.1781C49.0164 47.7338 51.4604 48.1991 51.9974 48.8538C52.3025 49.2403 52.4307 49.774 52.092 50.0448C51.3231 50.6627 51.674 50.986 52.2049 51.5461C52.8975 52.2743 52.3391 53.4233 51.2468 53.7835C50.1545 54.1437 49.0897 54.0964 47.9851 54.0464C47.4512 54.028 47.4054 53.7256 47.4085 53.3681C47.4115 52.582 47.4085 51.8063 47.4085 51.0202ZM48.8608 52.1797C48.8608 52.6188 48.8273 53.0762 49.5717 53.0578C50.2003 53.0447 50.7617 52.8449 50.7922 52.2533C50.8105 51.5881 50.1423 51.4225 49.529 51.3752C48.8425 51.32 48.8578 51.7774 48.8608 52.1797ZM48.8608 49.7346C48.8273 50.1263 48.9035 50.5233 49.5443 50.4628C50.0355 50.4234 50.5634 50.3025 50.5908 49.7714C50.6244 49.1667 50.0569 49.0536 49.5229 49.0089C48.989 48.9642 48.8425 49.2929 48.8669 49.7346H48.8608Z" fill="#F7F7F8"/>
<path d="M73.444 53.8969C71.9764 54.3938 71.3357 53.726 70.8017 52.7927C70.5851 52.4141 70.4661 51.7252 69.8711 51.8409C69.1876 51.975 69.4317 52.656 69.4073 53.1266C69.3829 53.5972 69.5263 54.0573 68.6598 54.0547C67.7933 54.052 67.7902 53.613 67.7933 53.0819C67.7933 51.6726 67.8177 50.2634 67.7933 48.8542C67.7933 48.3047 67.9977 48.1022 68.6445 48.1101C69.2914 48.118 69.4409 48.3441 69.4134 48.8279C69.386 49.3116 69.4134 49.8086 69.4134 50.4054C70.0847 50.0399 70.3806 49.4983 70.6583 49.0251C71.2197 48.0733 72.0527 47.9734 73.2487 48.2153C72.6385 48.8936 72.1259 49.5299 71.5523 50.1162C71.3956 50.2326 71.2987 50.3978 71.2827 50.5756C71.2667 50.7534 71.3329 50.9294 71.4669 51.0653C72.1381 51.9803 72.7544 52.9189 73.444 53.8969Z" fill="#F7F7F8"/>
<path d="M70.0469 24.8995L70.1689 24.9757C70.1476 24.9757 70.1109 24.9757 70.1018 24.9757C70.0866 24.9492 70.0764 24.9208 70.0713 24.8916L70.0469 24.8995Z" fill="#FEFCFC"/>
<path d="M48.3987 24.5135C48.4391 24.9729 48.3144 25.4318 48.0417 25.8281C47.3552 26.7247 46.0371 26.6773 45.4727 25.7151C45.1232 25.1236 45.0532 24.4386 45.2774 23.8036C45.5093 23.1043 45.9365 22.4891 46.922 22.5863C47.8373 22.6836 48.2492 23.2699 48.3652 24.0219C48.3926 24.1875 48.3865 24.3505 48.3987 24.5135Z" fill="#FDF6F6"/>
<path d="M45.4193 33.7532C45.8435 33.7743 46.2554 33.8768 46.2828 34.3343C46.3103 34.7918 45.9411 34.939 45.4743 34.9758C45.0074 35.0126 44.864 34.7944 44.8945 34.45C44.919 34.1397 44.7755 33.7401 45.4193 33.7532Z" fill="#FDF6F6"/>
<path d="M45.4569 32.9425C44.8467 32.9425 44.8924 32.606 44.8833 32.3168C44.8741 32.0275 44.9992 31.7909 45.3989 31.833C45.7986 31.8751 46.18 32.0091 46.1586 32.4035C46.1373 32.7979 45.762 32.9057 45.4569 32.9425Z" fill="#FDF6F6"/>
<path d="M52.0753 33.419C52.0357 34.4707 51.5383 35.0307 50.7572 34.9544C49.7107 34.8493 49.5703 34.1236 49.5368 33.4242C49.4971 32.5593 50.1897 31.7784 50.8945 31.8836C51.9655 32.0413 52.0601 32.7854 52.0753 33.419Z" fill="#FDF6F6"/>
<path d="M55.2774 33.4496C55.2774 32.5872 55.8876 31.8721 56.5924 31.8721C57.2972 31.8721 57.9715 32.6345 57.9013 33.4496C57.8434 34.1332 57.6908 34.8614 56.6534 34.9482C55.8784 35.0165 55.2743 34.3251 55.2774 33.4496Z" fill="#FDF6F6"/>
<path d="M57.9692 51.1493C57.9509 52.3588 57.4444 52.9293 56.4009 52.9109C55.4276 52.8951 54.7991 52.1931 54.793 51.1125C54.793 49.9426 55.5039 49.1065 56.4864 49.1407C57.4078 49.1643 57.9875 49.9531 57.9692 51.1493Z" fill="#85D3DB"/>
<path d="M62.0672 50.9512C62.0856 49.8495 62.7019 49.1423 63.6477 49.1397C64.5936 49.137 65.2191 49.8522 65.2526 50.9459C65.2862 52.0396 64.7706 52.8021 63.8583 52.9046C62.6378 53.0396 62.0408 52.3884 62.0672 50.9512Z" fill="#85D3DB"/>
<path d="M48.8638 52.1828C48.8638 51.7779 48.8455 51.3204 49.5198 51.3756C50.1301 51.423 50.8013 51.5886 50.783 52.2538C50.7647 52.8454 50.2033 53.0425 49.5625 53.0583C48.8181 53.0767 48.8638 52.6192 48.8638 52.1828Z" fill="#85D3DB"/>
<path d="M48.8698 49.736C48.8454 49.2943 48.9736 48.963 49.5319 49.0104C50.0903 49.0577 50.6334 49.1681 50.5998 49.7728C50.5724 50.2987 50.0445 50.4249 49.5533 50.4643C48.9126 50.5169 48.8363 50.1278 48.8698 49.736Z" fill="#85D3DB"/>
</svg>
