<svg width="41" height="40" viewBox="0 0 41 40" fill="none" xmlns="http://www.w3.org/2000/svg">
<path d="M34.9987 39.5H34.7437C5.26866 37.805 1.08366 12.935 0.498662 5.345C0.451525 4.75487 0.521295 4.16124 0.703975 3.59812C0.886654 3.035 1.17865 2.51346 1.56324 2.06338C1.94782 1.6133 2.41744 1.24353 2.94518 0.975259C3.47292 0.706987 4.0484 0.545483 4.63866 0.500001H12.9037C13.5045 0.49942 14.0917 0.679266 14.5891 1.01624C15.0866 1.35322 15.4714 1.83181 15.6937 2.39L17.9737 8C18.1932 8.54532 18.2477 9.14312 18.1303 9.71914C18.013 10.2952 17.729 10.824 17.3137 11.24L14.1187 14.465C14.6177 17.3011 15.9759 19.9155 18.0095 21.9544C20.0431 23.9934 22.6539 25.3585 25.4887 25.865L28.7437 22.64C29.1659 22.2292 29.6997 21.9519 30.2786 21.8425C30.8574 21.7331 31.4557 21.7966 31.9987 22.025L37.6537 24.29C38.2034 24.5193 38.6725 24.9071 39.0011 25.404C39.3297 25.9009 39.5029 26.4843 39.4987 27.08V35C39.4987 36.1935 39.0246 37.3381 38.1806 38.182C37.3367 39.0259 36.1921 39.5 34.9987 39.5ZM4.99866 3.5C4.60084 3.5 4.21931 3.65804 3.938 3.93934C3.6567 4.22065 3.49866 4.60218 3.49866 5V5.12C4.18866 14 8.61366 35 34.9087 36.5C35.1057 36.5122 35.3033 36.4853 35.4899 36.421C35.6766 36.3567 35.8487 36.2561 35.9964 36.1251C36.1441 35.9941 36.2646 35.8353 36.3507 35.6576C36.4369 35.48 36.4872 35.2871 36.4987 35.09V27.08L30.8437 24.815L26.5387 29.09L25.8187 29C12.7687 27.365 10.9987 14.315 10.9987 14.18L10.9087 13.46L15.1687 9.155L12.9187 3.5H4.99866Z" fill="black"/>
<path d="M35.5143 39H35.2593C5.78429 37.305 1.59929 12.435 1.01429 4.845C0.96715 4.25487 1.03692 3.66124 1.2196 3.09812C1.40228 2.535 1.69428 2.01346 2.07886 1.56338C2.46345 1.1133 2.93307 0.743532 3.4608 0.475259C3.98854 0.206987 4.56403 0.0454827 5.15429 1.40639e-06H13.4193C14.0201 -0.000580239 14.6073 0.179266 15.1047 0.516244C15.6022 0.853222 15.987 1.33181 16.2093 1.89L18.4893 7.5C18.7088 8.04532 18.7633 8.64312 18.646 9.21914C18.5286 9.79516 18.2446 10.324 17.8293 10.74L14.6343 13.965C15.1334 16.8011 16.4916 19.4155 18.5251 21.4544C20.5587 23.4934 23.1695 24.8585 26.0043 25.365L29.2593 22.14C29.6815 21.7292 30.2154 21.4519 30.7942 21.3425C31.3731 21.2331 31.9713 21.2966 32.5143 21.525L38.1693 23.79C38.7191 24.0193 39.1881 24.4071 39.5167 24.904C39.8453 25.4009 40.0185 25.9843 40.0143 26.58V34.5C40.0143 35.6935 39.5402 36.8381 38.6963 37.682C37.8524 38.5259 36.7078 39 35.5143 39ZM5.51429 3C5.11646 3 4.73493 3.15804 4.45363 3.43934C4.17232 3.72065 4.01429 4.10218 4.01429 4.5V4.62C4.70429 13.5 9.12929 34.5 35.4243 36C35.6213 36.0122 35.8189 35.9853 36.0055 35.921C36.1922 35.8567 36.3643 35.7561 36.5121 35.6251C36.6598 35.4941 36.7802 35.3353 36.8664 35.1576C36.9525 34.98 37.0028 34.7871 37.0143 34.59V26.58L31.3593 24.315L27.0543 28.59L26.3343 28.5C13.2843 26.865 11.5143 13.815 11.5143 13.68L11.4243 12.96L15.6843 8.655L13.4343 3H5.51429Z" fill="black"/>
</svg>
