<svg width="23" height="22" viewBox="0 0 23 22" fill="none" xmlns="http://www.w3.org/2000/svg">
<path d="M1.6736 0.268575L22.4028 10.4827C22.5159 10.5384 22.6111 10.6246 22.6776 10.7316C22.7442 10.8386 22.7795 10.9621 22.7795 11.0882C22.7795 11.2142 22.7442 11.3377 22.6776 11.4447C22.6111 11.5517 22.5159 11.6379 22.4028 11.6936L1.67225 21.9077C1.55611 21.9648 1.42602 21.9872 1.29747 21.9725C1.16893 21.9577 1.04734 21.9062 0.947194 21.8243C0.847048 21.7424 0.772563 21.6334 0.73261 21.5103C0.692658 21.3872 0.688922 21.2553 0.721846 21.1301L2.7752 13.3744C2.80848 13.2489 2.87726 13.1356 2.97327 13.0482C3.06929 12.9608 3.18848 12.903 3.31655 12.8816L12.6059 11.3332C12.6613 11.324 12.7134 11.3012 12.7578 11.2668C12.8021 11.2324 12.8371 11.1874 12.8597 11.1361L12.884 11.0551C12.8966 10.98 12.8835 10.9029 12.8467 10.8362C12.8099 10.7695 12.7517 10.7173 12.6815 10.6879L12.6059 10.6663L3.26525 9.10973C3.13742 9.08812 3.01853 9.03016 2.92277 8.94278C2.82701 8.8554 2.75843 8.74229 2.72525 8.61697L0.721846 1.04753C0.688579 0.922299 0.692057 0.790143 0.731865 0.66684C0.771672 0.543536 0.846127 0.434296 0.946339 0.352162C1.04655 0.270028 1.16828 0.218472 1.297 0.20365C1.42572 0.188828 1.55599 0.211367 1.67225 0.268575H1.6736Z" fill="white"/>
</svg>
