<svg width="367" height="183" viewBox="0 0 367 183" fill="none" xmlns="http://www.w3.org/2000/svg">
<mask id="mask0" style="mask-type:alpha" maskUnits="userSpaceOnUse" x="0" y="0" width="367" height="183">
<rect x="0.851562" y="0.861816" width="365.437" height="181.856" rx="10" fill="#90C63E"/>
</mask>
<g mask="url(#mask0)">
<rect x="0.851562" y="0.861816" width="365.437" height="181.856" rx="10" fill="#FD375F"/>
<path d="M260.999 93.5H172.999L178.039 85.2485L172.999 77H260.999L255.962 85.2485L260.999 93.5Z" fill="white"/>
<path d="M195.397 87.9062C194.996 88.0469 194.599 88.1172 194.206 88.1172C193.815 88.1172 193.473 88.0612 193.179 87.9492C192.887 87.8346 192.629 87.6693 192.405 87.4531C191.929 86.9974 191.645 86.3659 191.554 85.5586C191.515 85.2201 191.382 84.9961 191.155 84.8867C191.382 84.7799 191.516 84.556 191.558 84.2148C191.599 83.8711 191.698 83.5547 191.854 83.2656C192.011 82.974 192.211 82.7266 192.456 82.5234C192.956 82.112 193.582 81.9062 194.335 81.9062C194.853 81.9062 195.288 82.0247 195.64 82.2617C195.965 82.4805 196.167 82.7656 196.245 83.1172C196.287 83.3151 196.34 83.4375 196.405 83.4844C196.431 83.5052 196.464 83.5247 196.503 83.543C196.349 83.7721 196.193 83.8672 196.034 83.8281C195.995 83.8203 195.959 83.8099 195.925 83.7969C195.868 83.9115 195.793 84.0065 195.702 84.082C195.611 84.1576 195.509 84.2018 195.397 84.2148C195.288 84.2253 195.219 84.2174 195.19 84.1914C195.256 84.0951 195.288 83.9727 195.288 83.8242C195.288 83.806 195.284 83.7826 195.276 83.7539C195.263 83.7591 195.252 83.7617 195.241 83.7617C195.231 83.7617 195.211 83.763 195.183 83.7656C195.154 83.7656 195.114 83.7552 195.062 83.7344C195.009 83.7135 194.961 83.6849 194.917 83.6484C194.818 83.5703 194.766 83.4844 194.761 83.3906C194.761 83.3698 194.765 83.349 194.772 83.3281C194.934 83.3776 195.088 83.3411 195.233 83.2188C195.332 83.1328 195.379 83.0417 195.374 82.9453C195.369 82.849 195.341 82.7695 195.292 82.707C195.245 82.6419 195.177 82.5859 195.089 82.5391C194.891 82.4349 194.637 82.3828 194.327 82.3828C193.621 82.3828 193.269 82.7917 193.269 83.6094V84.2578C193.269 84.5521 193.412 84.7617 193.698 84.8867C193.412 85.0247 193.269 85.25 193.269 85.5625V86.6094C193.269 86.9401 193.331 87.1862 193.456 87.3477C193.581 87.5065 193.779 87.5859 194.05 87.5859C194.37 87.5859 194.582 87.4427 194.687 87.1562C194.72 87.0625 194.737 86.9544 194.737 86.832V85.9297C194.688 85.8802 194.619 85.8555 194.53 85.8555C194.442 85.8555 194.369 85.8776 194.312 85.9219C194.283 85.8932 194.269 85.8385 194.269 85.7578C194.269 85.6771 194.302 85.6016 194.37 85.5312C194.438 85.4583 194.541 85.4219 194.679 85.4219C194.819 85.4219 194.935 85.4596 195.026 85.5352C195.151 85.4596 195.285 85.4219 195.429 85.4219C195.572 85.4219 195.702 85.4609 195.819 85.5391C195.929 85.4609 196.032 85.4219 196.128 85.4219C196.224 85.4219 196.3 85.431 196.354 85.4492C196.409 85.4674 196.457 85.4922 196.499 85.5234C196.593 85.5938 196.64 85.681 196.64 85.7852C196.64 85.8477 196.625 85.8932 196.597 85.9219C196.537 85.8776 196.46 85.8555 196.366 85.8555C196.272 85.8555 196.181 85.944 196.093 86.1211V87.4023C196.142 87.5638 196.25 87.6445 196.417 87.6445C196.479 87.6445 196.539 87.6224 196.597 87.5781C196.625 87.6172 196.64 87.6628 196.64 87.7148C196.64 87.8216 196.581 87.9089 196.464 87.9766C196.347 88.0443 196.179 88.0781 195.96 88.0781C195.744 88.0781 195.556 88.0208 195.397 87.9062ZM192.437 86.9648C192.476 86.9492 192.495 86.9219 192.495 86.8828C192.495 86.8255 192.468 86.7357 192.413 86.6133C192.358 86.4883 192.308 86.2786 192.261 85.9844C192.216 85.6875 192.194 85.3438 192.194 84.9531C192.194 84.3203 192.271 83.7799 192.425 83.332C192.443 83.2669 192.452 83.2174 192.452 83.1836C192.452 83.1497 192.435 83.1276 192.401 83.1172C192.279 83.2708 192.192 83.4232 192.14 83.5742C192.043 83.8503 191.966 84.224 191.909 84.6953C191.901 84.763 191.825 84.8268 191.679 84.8867C191.825 84.9518 191.901 85.0182 191.909 85.0859C192.003 85.8932 192.121 86.4323 192.265 86.7031C192.317 86.7995 192.374 86.8867 192.437 86.9648ZM195.14 87.1992C195.291 87.1055 195.366 86.9401 195.366 86.7031V86.4805C195.366 86.2591 195.291 86.1146 195.14 86.0469V87.1992ZM196.062 87.2695L196.05 87.1914L196.062 87.2695ZM198.222 82.832C198.089 82.832 197.96 82.7969 197.835 82.7266C197.713 82.6562 197.619 82.5625 197.554 82.4453C197.483 82.3255 197.39 82.2344 197.272 82.1719C197.236 82.1536 197.194 82.1341 197.147 82.1133L197.28 82.0312C197.405 81.9531 197.498 81.8581 197.558 81.7461C197.618 81.6341 197.707 81.5469 197.827 81.4844C197.95 81.4193 198.081 81.3867 198.222 81.3867C198.513 81.3867 198.724 81.5091 198.854 81.7539C198.943 81.9154 199.08 82.0352 199.265 82.1133C199.226 82.1367 199.187 82.1576 199.147 82.1758C199.111 82.194 199.076 82.2148 199.042 82.2383C198.966 82.2904 198.899 82.3672 198.839 82.4688C198.782 82.5703 198.697 82.6562 198.585 82.7266C198.476 82.7969 198.354 82.832 198.222 82.832ZM198.015 82.3555C197.999 82.3268 197.986 82.2943 197.976 82.2578C197.968 82.2188 197.964 82.151 197.964 82.0547C197.964 81.9583 198.013 81.8359 198.112 81.6875C198.016 81.6875 197.948 81.7057 197.909 81.7422C197.87 81.776 197.84 81.806 197.819 81.832C197.801 81.8555 197.784 81.8802 197.769 81.9062C197.756 81.9297 197.739 81.9557 197.718 81.9844C197.668 82.0547 197.628 82.0977 197.597 82.1133C197.638 82.1367 197.676 82.1745 197.71 82.2266C197.746 82.276 197.788 82.3281 197.835 82.3828C197.905 82.4688 197.998 82.5117 198.112 82.5117C198.097 82.4831 198.08 82.457 198.062 82.4336C198.046 82.4076 198.03 82.3815 198.015 82.3555ZM197.831 87.9531C197.711 88.0365 197.575 88.0781 197.421 88.0781C197.27 88.0781 197.157 88.0443 197.081 87.9766C197.008 87.9089 196.972 87.8438 196.972 87.7812C196.972 87.6953 196.99 87.6276 197.026 87.5781C197.084 87.6224 197.168 87.6445 197.28 87.6445C197.392 87.6445 197.489 87.5716 197.569 87.4258V86.1797C197.569 86.0651 197.546 85.9818 197.499 85.9297C197.424 85.8516 197.288 85.7643 197.093 85.668C197.275 85.5846 197.391 85.5182 197.44 85.4688C197.526 85.3828 197.569 85.2773 197.569 85.1523V84.582C197.569 84.3607 197.494 84.2409 197.343 84.2227C197.299 84.2174 197.243 84.2148 197.175 84.2148C197.107 84.2148 197.045 84.237 196.987 84.2812C196.951 84.2318 196.933 84.181 196.933 84.1289C196.933 84.0742 196.946 84.0143 196.972 83.9492C197 83.8815 197.043 83.8177 197.101 83.7578C197.236 83.6172 197.392 83.5469 197.569 83.5469C197.746 83.5469 197.907 83.5781 198.05 83.6406C198.177 83.474 198.323 83.3906 198.487 83.3906C198.756 83.3906 198.89 83.5312 198.89 83.8125V85.1523C198.89 85.2773 198.917 85.3672 198.972 85.4219C199.052 85.5026 199.184 85.5846 199.366 85.668C199.171 85.7643 199.049 85.8372 198.999 85.8867C198.926 85.9674 198.89 86.0651 198.89 86.1797V87.4375C198.976 87.5755 199.073 87.6445 199.183 87.6445C199.292 87.6445 199.375 87.6224 199.433 87.5781C199.469 87.6276 199.487 87.6901 199.487 87.7656C199.487 87.8385 199.45 87.9089 199.374 87.9766C199.301 88.0443 199.19 88.0781 199.042 88.0781C198.894 88.0781 198.756 88.0365 198.628 87.9531C198.521 88.0365 198.392 88.0781 198.241 88.0781C198.09 88.0781 197.953 88.0365 197.831 87.9531ZM198.167 86.1016C198.17 86.013 198.171 85.9388 198.171 85.8789C198.174 85.819 198.175 85.7708 198.175 85.7344V85.6289C198.175 85.5898 198.174 85.5391 198.171 85.4766C198.171 85.4141 198.17 85.3451 198.167 85.2695C198.167 85.194 198.166 85.1198 198.163 85.0469C198.153 84.8672 198.14 84.7435 198.124 84.6758C198.093 84.5247 198.033 84.4206 197.944 84.3633V84.6172C197.944 85.0573 197.934 85.3164 197.913 85.3945C197.895 85.4701 197.864 85.5273 197.819 85.5664C197.778 85.6029 197.715 85.6354 197.632 85.6641C197.788 85.7188 197.877 85.7852 197.897 85.8633C197.929 85.9883 197.944 86.2708 197.944 86.7109V86.9648C198.064 86.8867 198.132 86.7266 198.147 86.4844C198.16 86.3177 198.167 86.1901 198.167 86.1016ZM200.679 87.9531C200.559 88.0365 200.422 88.0781 200.269 88.0781C200.118 88.0781 200.004 88.0443 199.929 87.9766C199.856 87.9089 199.819 87.8438 199.819 87.7812C199.819 87.6953 199.838 87.6276 199.874 87.5781C199.931 87.6224 200.004 87.6445 200.093 87.6445C200.244 87.6445 200.352 87.5573 200.417 87.3828V86.1797C200.417 86.0651 200.392 85.9818 200.343 85.9297C200.27 85.8516 200.136 85.7643 199.94 85.668C200.123 85.5846 200.239 85.5182 200.288 85.4688C200.374 85.3828 200.417 85.2773 200.417 85.1523V84.1055H199.788C199.767 84.0742 199.757 84.0091 199.757 83.9102C199.757 83.8086 199.793 83.7279 199.866 83.668C199.939 83.6055 200.032 83.5742 200.144 83.5742H200.417V83.3359C200.417 82.7318 200.573 82.2292 200.886 81.8281C201.219 81.4036 201.663 81.1914 202.218 81.1914C202.801 81.1914 203.205 81.3776 203.429 81.75C203.499 81.8646 203.543 81.9805 203.562 82.0977C203.58 82.2122 203.608 82.2878 203.647 82.3242C203.689 82.3607 203.743 82.3919 203.808 82.418C203.727 82.5456 203.611 82.6094 203.46 82.6094C203.429 82.6094 203.392 82.6042 203.351 82.5938C203.249 82.7474 203.125 82.8242 202.979 82.8242C202.711 82.8242 202.569 82.7812 202.554 82.6953C202.65 82.6849 202.698 82.6289 202.698 82.5273V82.5195C202.654 82.5352 202.604 82.543 202.55 82.543C202.495 82.543 202.447 82.5378 202.405 82.5273C202.366 82.5143 202.331 82.4948 202.3 82.4688C202.227 82.4089 202.196 82.332 202.206 82.2383C202.438 82.2383 202.593 82.1966 202.671 82.1133C202.7 82.0846 202.714 82.0417 202.714 81.9844C202.714 81.9245 202.675 81.8646 202.597 81.8047C202.519 81.7448 202.416 81.7148 202.288 81.7148C202.163 81.7148 202.063 81.7292 201.987 81.7578C201.912 81.7839 201.847 81.8307 201.792 81.8984C201.677 82.0443 201.62 82.2839 201.62 82.6172C201.62 82.7448 201.636 82.9193 201.667 83.1406C201.701 83.362 201.722 83.5065 201.729 83.5742H202.897C202.918 83.6159 202.929 83.6862 202.929 83.7852C202.929 83.8815 202.891 83.9596 202.815 84.0195C202.74 84.0768 202.649 84.1055 202.542 84.1055H201.737V85.1523C201.737 85.2773 201.765 85.3672 201.819 85.4219C201.9 85.5026 202.032 85.5846 202.214 85.668C202.019 85.7643 201.896 85.8372 201.847 85.8867C201.774 85.9674 201.737 86.0651 201.737 86.1797V87.3594C201.815 87.5495 201.95 87.6445 202.14 87.6445C202.254 87.6445 202.34 87.6224 202.397 87.5781C202.434 87.6276 202.452 87.6797 202.452 87.7344C202.452 87.7891 202.44 87.8359 202.417 87.875C202.396 87.9115 202.364 87.9453 202.319 87.9766C202.228 88.0443 202.103 88.0781 201.944 88.0781C201.785 88.0781 201.631 88.0339 201.479 87.9453C201.373 88.0339 201.243 88.0781 201.089 88.0781C200.938 88.0781 200.801 88.0365 200.679 87.9531ZM200.745 85.4648C200.745 85.5378 200.657 85.6042 200.479 85.6641C200.636 85.7188 200.724 85.7852 200.745 85.8633C200.776 85.9883 200.792 86.2708 200.792 86.7109V86.9648C200.927 86.8867 200.999 86.6667 201.007 86.3047C201.009 86.099 201.011 85.9154 201.011 85.7539V85.3516C201.011 84.4531 201.016 83.9805 201.026 83.9336C201.037 83.8867 201.043 83.8607 201.046 83.8555C201.051 83.8477 201.056 83.8229 201.062 83.7812C200.952 83.8333 200.879 83.9102 200.843 84.0117C200.778 84.194 200.745 84.4701 200.745 84.8398V85.4648ZM205.757 87.4297C205.806 87.3776 205.845 87.3125 205.874 87.2344C205.903 87.1536 205.917 87.0703 205.917 86.9844C205.917 86.8958 205.912 86.8151 205.901 86.7422C205.92 86.7031 205.969 86.6732 206.05 86.6523C206.131 86.6289 206.184 86.6172 206.21 86.6172C206.309 86.6172 206.388 86.6549 206.448 86.7305C206.508 86.8034 206.538 86.9062 206.538 87.0391C206.538 87.1693 206.499 87.2982 206.421 87.4258C206.345 87.5534 206.244 87.6667 206.116 87.7656C205.832 87.987 205.502 88.0977 205.124 88.0977C204.405 88.0977 203.929 87.8255 203.694 87.2812C203.608 87.0807 203.565 86.8294 203.565 86.5273V86.0508C203.565 85.9284 203.431 85.7995 203.163 85.6641C203.431 85.5104 203.565 85.3034 203.565 85.043V84.582C203.565 84.2852 203.444 84.1367 203.202 84.1367C203.114 84.1367 203.041 84.1589 202.983 84.2031C202.947 84.1536 202.929 84.1029 202.929 84.0508C202.929 83.9961 202.938 83.9375 202.956 83.875C202.977 83.8099 203.012 83.7513 203.062 83.6992C203.187 83.5638 203.381 83.5169 203.644 83.5586V83.4336C203.644 83.1602 203.713 82.9193 203.851 82.7109C203.973 82.5234 204.081 82.4297 204.175 82.4297C204.271 82.4297 204.345 82.4622 204.397 82.5273C204.442 82.3216 204.5 82.1732 204.573 82.082C204.646 81.9909 204.75 81.9453 204.886 81.9453V83.5742H206.155C206.176 83.6159 206.187 83.6862 206.187 83.7852C206.187 83.8815 206.149 83.9596 206.073 84.0195C205.998 84.0768 205.907 84.1055 205.8 84.1055H204.886V86.75C204.886 87.2031 204.989 87.4688 205.194 87.5469C205.254 87.5677 205.318 87.5781 205.386 87.5781C205.456 87.5781 205.522 87.5664 205.585 87.543C205.65 87.5169 205.707 87.4792 205.757 87.4297ZM203.94 86.9648C204.063 86.8867 204.132 86.724 204.147 86.4766C204.158 86.2995 204.163 86.1615 204.163 86.0625C204.166 85.9635 204.167 85.8841 204.167 85.8242C204.17 85.7617 204.171 85.7135 204.171 85.6797V85.5234C204.171 85.4479 204.17 85.3516 204.167 85.2344C204.167 85.1146 204.166 84.9857 204.163 84.8477C204.163 84.707 204.16 84.5729 204.155 84.4453C204.147 84.138 204.136 83.9505 204.12 83.8828C204.089 83.7318 204.029 83.6276 203.94 83.5703V84.7891C203.94 85.151 203.934 85.3424 203.921 85.3633C203.91 85.3841 203.901 85.4089 203.894 85.4375C203.87 85.5156 203.782 85.5807 203.628 85.6328C203.784 85.6875 203.873 85.7539 203.894 85.832C203.925 85.957 203.94 86.25 203.94 86.7109V86.9648ZM214.128 82.4648C214.06 82.4206 213.979 82.3984 213.886 82.3984C213.701 82.3984 213.534 82.5 213.386 82.7031C212.99 83.7578 212.785 84.3229 212.772 84.3984C212.759 84.474 212.753 84.5286 212.753 84.5625C212.753 84.724 212.841 84.832 213.019 84.8867C212.826 84.9648 212.693 85.043 212.62 85.1211C212.506 85.2487 212.403 85.444 212.312 85.707L211.597 87.6602C211.464 88.0378 211.366 88.2474 211.304 88.2891C211.28 88.3021 211.253 88.3086 211.222 88.3086C211.19 88.3086 211.164 88.2995 211.144 88.2812L209.874 85.4414C209.822 85.319 209.754 85.2253 209.671 85.1602C209.535 85.056 209.362 84.9648 209.151 84.8867C209.378 84.7617 209.489 84.6458 209.483 84.5391C209.483 84.4896 209.463 84.4102 209.421 84.3008L208.737 82.543C208.599 82.4466 208.473 82.3984 208.358 82.3984C208.275 82.3984 208.2 82.4206 208.132 82.4648C208.103 82.444 208.089 82.4049 208.089 82.3477C208.089 82.2904 208.098 82.2383 208.116 82.1914C208.134 82.1419 208.163 82.099 208.202 82.0625C208.285 81.9844 208.405 81.9453 208.562 81.9453C208.718 81.9453 208.856 81.987 208.976 82.0703C209.108 81.987 209.263 81.9453 209.44 81.9453C209.62 81.9453 209.775 81.9857 209.905 82.0664C210.043 81.9857 210.17 81.9453 210.284 81.9453C210.399 81.9453 210.493 81.9544 210.565 81.9727C210.638 81.9883 210.702 82.013 210.757 82.0469C210.874 82.1146 210.935 82.2083 210.94 82.3281C210.94 82.401 210.926 82.4466 210.897 82.4648C210.827 82.4206 210.756 82.3984 210.683 82.3984C210.519 82.3984 210.391 82.4297 210.3 82.4922L211.581 86.1484L212.784 82.668C212.771 82.5794 212.736 82.5091 212.679 82.457C212.624 82.4049 212.539 82.3789 212.425 82.3789C212.31 82.3789 212.215 82.401 212.14 82.4453C212.114 82.4062 212.101 82.3451 212.101 82.2617C212.101 82.1784 212.136 82.1055 212.206 82.043C212.276 81.9779 212.373 81.9453 212.495 81.9453C212.62 81.9453 212.731 81.9753 212.827 82.0352C212.91 81.9753 213.015 81.9453 213.14 81.9453C213.265 81.9453 213.368 81.974 213.448 82.0312C213.563 81.974 213.677 81.9453 213.792 81.9453C213.907 81.9453 213.998 81.9831 214.065 82.0586C214.136 82.1315 214.171 82.2266 214.171 82.3438C214.171 82.4036 214.157 82.444 214.128 82.4648ZM212.78 82.8359C212.775 82.8516 212.772 82.862 212.772 82.8672L212.78 82.8359ZM209.601 83.1172C209.543 83.1589 209.515 83.2135 209.515 83.2812C209.515 83.3464 209.516 83.3958 209.519 83.4297C209.524 83.4635 209.534 83.5078 209.55 83.5625C209.565 83.6146 209.589 83.6823 209.62 83.7656L209.835 84.3203C209.887 84.4557 209.916 84.5573 209.921 84.625C209.934 84.7396 209.861 84.8268 209.702 84.8867C209.809 84.9076 209.896 84.9336 209.964 84.9648C210.034 84.9935 210.097 85.0677 210.151 85.1875C210.206 85.3047 210.278 85.474 210.366 85.6953L210.694 86.4922C210.793 86.7344 210.903 86.8802 211.022 86.9297C211.056 86.9453 211.09 86.957 211.124 86.9648L209.601 83.1172ZM215.124 87.5625C214.96 87.3958 214.83 87.1979 214.733 86.9688C214.64 86.7396 214.582 86.543 214.562 86.3789C214.541 86.2148 214.522 86.1094 214.507 86.0625C214.494 86.0156 214.47 85.9714 214.437 85.9297C214.369 85.8438 214.245 85.7565 214.065 85.668C214.292 85.5664 214.437 85.4036 214.499 85.1797C214.517 85.1172 214.532 85.0547 214.542 84.9922C214.61 84.526 214.835 84.1367 215.218 83.8242C215.601 83.5091 216.047 83.3516 216.558 83.3516C217.089 83.3516 217.546 83.5104 217.929 83.8281C218.301 84.138 218.521 84.526 218.589 84.9922C218.612 85.1562 218.647 85.276 218.694 85.3516C218.783 85.4896 218.907 85.5951 219.065 85.668C218.888 85.7539 218.774 85.8294 218.722 85.8945C218.651 85.9857 218.607 86.0938 218.589 86.2188C218.506 86.8333 218.292 87.3008 217.948 87.6211C217.604 87.9388 217.146 88.0977 216.573 88.0977C215.959 88.0977 215.476 87.9193 215.124 87.5625ZM217.229 84.8789C217.229 84.2279 217.008 83.9023 216.565 83.9023C216.123 83.9023 215.901 84.2279 215.901 84.8789V86.6094C215.901 87.2344 216.121 87.5469 216.562 87.5469C217.007 87.5469 217.229 87.2344 217.229 86.6094V84.8789ZM217.604 86.9648C217.735 86.9154 217.806 86.7448 217.819 86.4531C217.835 86.1615 217.843 85.9453 217.843 85.8047C217.843 85.6615 217.841 85.543 217.839 85.4492C217.839 85.3529 217.838 85.2539 217.835 85.1523C217.825 84.7721 217.795 84.5508 217.745 84.4883C217.696 84.4258 217.649 84.3841 217.604 84.3633V86.9648ZM215.265 86.9648C215.301 86.9362 215.319 86.9036 215.319 86.8672C215.319 86.8099 215.308 86.737 215.284 86.6484C215.177 86.2396 215.124 85.9557 215.124 85.7969C215.124 85.6354 215.129 85.5104 215.14 85.4219C215.15 85.3307 215.163 85.2396 215.179 85.1484C215.213 84.9714 215.248 84.8151 215.284 84.6797C215.308 84.5911 215.319 84.5312 215.319 84.5C215.319 84.4375 215.301 84.3919 215.265 84.3633C215.155 84.4935 215.072 84.668 215.015 84.8867C214.957 85.1055 214.91 85.2982 214.874 85.4648C214.861 85.5352 214.784 85.6029 214.644 85.668C214.784 85.7331 214.861 85.7982 214.874 85.8633C214.97 86.3034 215.05 86.5833 215.112 86.7031C215.175 86.8229 215.226 86.9102 215.265 86.9648ZM223.272 88.0781C222.905 88.0781 222.707 87.8242 222.679 87.3164C222.546 87.556 222.366 87.7461 222.14 87.8867C221.916 88.0273 221.674 88.0977 221.413 88.0977C221.155 88.0977 220.946 88.0625 220.784 87.9922C220.623 87.9219 220.489 87.8203 220.382 87.6875C220.174 87.4271 220.069 87.0573 220.069 86.5781V86.3359C220.069 86.0339 219.91 85.8099 219.593 85.6641C219.78 85.5729 219.9 85.4961 219.952 85.4336C220.03 85.3372 220.069 85.2292 220.069 85.1094V84.582C220.069 84.3607 219.994 84.2409 219.843 84.2227C219.799 84.2174 219.743 84.2148 219.675 84.2148C219.607 84.2148 219.545 84.237 219.487 84.2812C219.451 84.2318 219.433 84.181 219.433 84.1289C219.433 84.0742 219.446 84.0143 219.472 83.9492C219.5 83.8815 219.543 83.8177 219.601 83.7578C219.736 83.6172 219.894 83.5469 220.073 83.5469C220.253 83.5469 220.422 83.5768 220.581 83.6367C220.696 83.4727 220.831 83.3906 220.987 83.3906C221.256 83.3906 221.39 83.5312 221.39 83.8125V86.3555C221.39 86.8503 221.504 87.1471 221.733 87.2461C221.806 87.2773 221.887 87.293 221.976 87.293C222.067 87.293 222.149 87.2747 222.222 87.2383C222.295 87.1992 222.358 87.1471 222.413 87.082C222.515 86.9544 222.58 86.7799 222.608 86.5586V84.582C222.608 84.2852 222.487 84.1367 222.245 84.1367C222.157 84.1367 222.084 84.1589 222.026 84.2031C221.99 84.1536 221.972 84.1029 221.972 84.0508C221.972 83.9961 221.985 83.9401 222.011 83.8828C222.039 83.8229 222.082 83.7682 222.14 83.7188C222.267 83.6042 222.422 83.5469 222.604 83.5469C222.789 83.5469 222.961 83.5768 223.12 83.6367C223.235 83.4727 223.37 83.3906 223.526 83.3906C223.795 83.3906 223.929 83.5312 223.929 83.8125V85.1094C223.929 85.2292 223.952 85.3177 223.999 85.375C224.082 85.4766 224.218 85.5729 224.405 85.6641C224.088 85.8099 223.929 86.0339 223.929 86.3359V87.3438C223.978 87.5443 224.086 87.6445 224.253 87.6445C224.341 87.6445 224.414 87.6224 224.472 87.5781C224.508 87.6276 224.526 87.6901 224.526 87.7656C224.526 87.8385 224.489 87.9089 224.413 87.9766C224.34 88.0443 224.224 88.0781 224.065 88.0781C223.909 88.0781 223.761 88.0365 223.62 87.9531C223.516 88.0365 223.4 88.0781 223.272 88.0781ZM222.979 86.9648C223.131 86.9049 223.21 86.6172 223.218 86.1016C223.218 85.9922 223.218 85.8672 223.218 85.7266C223.218 85.5859 223.216 85.4661 223.214 85.3672C223.214 85.2656 223.213 85.1693 223.21 85.0781C223.2 84.75 223.17 84.5547 223.12 84.4922C223.071 84.4271 223.024 84.3841 222.979 84.3633V86.9648ZM220.644 85.6641L220.655 85.1484C220.655 84.9167 220.647 84.763 220.632 84.6875C220.588 84.4896 220.525 84.3815 220.444 84.3633V84.6172C220.444 85.0573 220.434 85.3164 220.413 85.3945C220.395 85.4701 220.364 85.5273 220.319 85.5664C220.278 85.6029 220.215 85.6354 220.132 85.6641C220.288 85.7188 220.377 85.7852 220.397 85.8633C220.429 85.9883 220.444 86.2708 220.444 86.7109V86.9648C220.522 86.9466 220.586 86.8307 220.636 86.6172C220.649 86.5573 220.655 86.4115 220.655 86.1797L220.644 85.6641ZM228.3 86.8203C228.357 86.7109 228.463 86.6562 228.616 86.6562C228.72 86.6562 228.801 86.6992 228.858 86.7852C228.905 86.8529 228.929 86.9362 228.929 87.0352C228.929 87.1315 228.904 87.2292 228.854 87.3281C228.808 87.4271 228.744 87.5169 228.663 87.5977C228.582 87.6784 228.489 87.75 228.382 87.8125C228.278 87.875 228.166 87.9271 228.046 87.9688C227.804 88.0547 227.551 88.0977 227.288 88.0977C227.025 88.0977 226.776 88.0521 226.542 87.9609C226.308 87.8672 226.106 87.737 225.937 87.5703C225.595 87.2344 225.39 86.7839 225.319 86.2188C225.301 86.0911 225.271 86 225.229 85.9453C225.151 85.849 225.022 85.7565 224.843 85.668C225.119 85.543 225.278 85.3177 225.319 84.9922C225.387 84.4948 225.608 84.1016 225.983 83.8125C226.343 83.5312 226.78 83.3906 227.296 83.3906C227.741 83.3906 228.116 83.526 228.421 83.7969C228.71 84.0521 228.854 84.3477 228.854 84.6836C228.854 84.8737 228.921 84.9948 229.054 85.0469C228.976 85.1745 228.866 85.2383 228.726 85.2383C228.676 85.2383 228.631 85.2331 228.589 85.2227C228.498 85.3555 228.366 85.4453 228.194 85.4922C228.14 85.5052 228.088 85.5117 228.038 85.5117C227.989 85.5117 227.93 85.5026 227.862 85.4844C227.795 85.4635 227.748 85.4362 227.722 85.4023C227.797 85.3711 227.841 85.293 227.854 85.168C227.839 85.1706 227.825 85.1719 227.812 85.1719H227.78C227.603 85.1719 227.494 85.0703 227.452 84.8672C227.645 84.8672 227.785 84.793 227.874 84.6445C227.905 84.5924 227.921 84.5286 227.921 84.4531C227.921 84.2865 227.868 84.1562 227.761 84.0625C227.654 83.9661 227.506 83.918 227.315 83.918C226.875 83.918 226.655 84.2018 226.655 84.7695V86.668C226.655 87.1107 226.825 87.3906 227.163 87.5078C227.262 87.5443 227.374 87.5625 227.499 87.5625C227.624 87.5625 227.737 87.5469 227.839 87.5156C227.943 87.4844 228.03 87.4414 228.101 87.3867C228.244 87.2747 228.315 87.1328 228.315 86.9609C228.315 86.9089 228.31 86.862 228.3 86.8203ZM226.003 86.9648C226.039 86.9362 226.058 86.9036 226.058 86.8672C226.058 86.8099 226.046 86.737 226.022 86.6484C225.916 86.2396 225.862 85.9557 225.862 85.7969C225.862 85.6354 225.868 85.5104 225.878 85.4219C225.888 85.3307 225.903 85.2396 225.921 85.1484C225.952 84.9714 225.986 84.8151 226.022 84.6797C226.046 84.5911 226.058 84.5312 226.058 84.5C226.058 84.4375 226.039 84.3919 226.003 84.3633C225.894 84.4935 225.81 84.668 225.753 84.8867C225.696 85.1055 225.649 85.2982 225.612 85.4648C225.599 85.5326 225.522 85.599 225.382 85.6641C225.522 85.7292 225.599 85.7956 225.612 85.8633C225.709 86.3034 225.788 86.5833 225.851 86.7031C225.913 86.8229 225.964 86.9102 226.003 86.9648ZM230.155 87.9531C230.035 88.0365 229.899 88.0781 229.745 88.0781C229.594 88.0781 229.481 88.0443 229.405 87.9766C229.332 87.9089 229.296 87.8438 229.296 87.7812C229.296 87.6953 229.314 87.6276 229.351 87.5781C229.408 87.6224 229.481 87.6445 229.569 87.6445C229.72 87.6445 229.828 87.5573 229.894 87.3828V86.1797C229.894 86.0495 229.869 85.9609 229.819 85.9141C229.759 85.8516 229.625 85.7695 229.417 85.668C229.599 85.5846 229.715 85.5182 229.765 85.4688C229.851 85.3828 229.894 85.2773 229.894 85.1523V82.9414C229.894 82.6445 229.772 82.4961 229.53 82.4961C229.442 82.4961 229.369 82.5182 229.312 82.5625C229.275 82.513 229.257 82.4622 229.257 82.4102C229.257 82.3555 229.27 82.3034 229.296 82.2539C229.325 82.2044 229.366 82.1589 229.421 82.1172C229.546 82.0286 229.702 81.9844 229.89 81.9844C230.077 81.9844 230.223 81.9961 230.327 82.0195C230.47 81.8398 230.632 81.75 230.812 81.75C231.08 81.75 231.214 81.8906 231.214 82.1719V84.0977C231.466 83.6263 231.879 83.3906 232.452 83.3906C233.108 83.3906 233.526 83.681 233.706 84.2617C233.763 84.4466 233.792 84.6562 233.792 84.8906V85.1523C233.792 85.2747 233.819 85.3633 233.874 85.418C233.955 85.4987 234.086 85.5807 234.269 85.6641C234.071 85.7604 233.948 85.8346 233.901 85.8867C233.828 85.9674 233.792 86.0651 233.792 86.1797V87.4023C233.841 87.5638 233.95 87.6445 234.116 87.6445C234.205 87.6445 234.278 87.6224 234.335 87.5781C234.364 87.6172 234.378 87.6745 234.378 87.75C234.378 87.8255 234.343 87.8997 234.272 87.9727C234.205 88.043 234.095 88.0781 233.944 88.0781C233.793 88.0781 233.654 88.0365 233.526 87.9531C233.409 88.0365 233.276 88.0781 233.128 88.0781C232.982 88.0781 232.854 88.0391 232.745 87.9609C232.644 88.0391 232.529 88.0781 232.401 88.0781C232.276 88.0781 232.176 88.0456 232.101 87.9805C232.025 87.9154 231.987 87.8216 231.987 87.6992C231.987 87.6419 232.007 87.5964 232.046 87.5625C232.106 87.6094 232.166 87.6328 232.226 87.6328C232.34 87.6328 232.422 87.569 232.472 87.4414V85.1133C232.472 84.6055 232.348 84.3125 232.101 84.2344C232.022 84.2083 231.938 84.1953 231.847 84.1953C231.576 84.1953 231.387 84.3385 231.28 84.625C231.246 84.7135 231.224 84.8099 231.214 84.9141V87.4414C231.263 87.569 231.345 87.6328 231.46 87.6328C231.52 87.6328 231.58 87.6094 231.64 87.5625C231.679 87.5964 231.698 87.6589 231.698 87.75C231.698 87.8385 231.66 87.9154 231.585 87.9805C231.509 88.0456 231.408 88.0781 231.28 88.0781C231.153 88.0781 231.038 88.0391 230.937 87.9609C230.83 88.0391 230.703 88.0781 230.558 88.0781C230.412 88.0781 230.278 88.0365 230.155 87.9531ZM230.261 86.9609C230.378 86.8854 230.447 86.7201 230.468 86.4648C230.476 86.3529 230.481 86.2279 230.483 86.0898C230.486 85.9518 230.487 85.8542 230.487 85.7969C230.49 85.737 230.491 85.6927 230.491 85.6641V85.3125C230.491 85.2161 230.491 85.1068 230.491 84.9844L230.483 84.6016C230.478 83.9115 230.466 83.5273 230.448 83.4492C230.412 83.2852 230.349 83.1745 230.261 83.1172V84.4336C230.261 84.9727 230.254 85.2734 230.241 85.3359C230.231 85.3958 230.222 85.4401 230.214 85.4688C230.19 85.5495 230.102 85.6159 229.948 85.668C230.104 85.7227 230.193 85.7878 230.214 85.8633C230.245 85.9883 230.261 86.2695 230.261 86.707V86.9609ZM232.843 86.9648C232.973 86.9154 233.046 86.7448 233.062 86.4531C233.075 86.1615 233.081 85.8945 233.081 85.6523C233.081 85.4076 233.073 85.2083 233.058 85.0547C233.042 84.901 233.016 84.7799 232.979 84.6914C232.946 84.6003 232.901 84.5326 232.847 84.4883C232.792 84.4414 232.726 84.3984 232.647 84.3594C232.746 84.5938 232.804 84.8073 232.819 85C232.835 85.1927 232.843 85.3789 232.843 85.5586V86.9648ZM238.245 86.8203C238.302 86.7109 238.408 86.6562 238.562 86.6562C238.666 86.6562 238.746 86.6992 238.804 86.7852C238.851 86.8529 238.874 86.9362 238.874 87.0352C238.874 87.1315 238.849 87.2292 238.8 87.3281C238.75 87.4271 238.683 87.5169 238.597 87.5977C238.511 87.6784 238.412 87.75 238.3 87.8125C238.19 87.875 238.073 87.9271 237.948 87.9688C237.69 88.0547 237.422 88.0977 237.144 88.0977C236.865 88.0977 236.603 88.0521 236.358 87.9609C236.116 87.8672 235.908 87.737 235.733 87.5703C235.392 87.2422 235.184 86.7917 235.108 86.2188C235.09 86.0911 235.06 86 235.019 85.9453C234.94 85.849 234.812 85.7565 234.632 85.668C234.858 85.5664 235.003 85.4036 235.065 85.1797C235.084 85.1172 235.098 85.0547 235.108 84.9922C235.174 84.5339 235.405 84.1432 235.804 83.8203C236.189 83.5078 236.62 83.3516 237.097 83.3516C237.591 83.3516 238.02 83.526 238.382 83.875C238.757 84.2344 238.944 84.6758 238.944 85.1992C238.944 85.2174 238.943 85.2357 238.94 85.2539C238.94 85.2721 238.942 85.2891 238.944 85.3047C238.95 85.3385 238.97 85.3581 239.007 85.3633C239.054 85.4232 239.077 85.487 239.077 85.5547C239.077 85.7109 238.994 85.8034 238.827 85.832C238.785 85.8398 238.72 85.8503 238.632 85.8633L236.429 86.2148V86.5898C236.429 86.8919 236.52 87.1315 236.702 87.3086C236.874 87.4779 237.091 87.5625 237.354 87.5625C237.633 87.5625 237.857 87.5052 238.026 87.3906C238.185 87.2812 238.265 87.138 238.265 86.9609C238.265 86.9193 238.258 86.8724 238.245 86.8203ZM237.562 85.5586V84.4648C237.562 84.293 237.528 84.1667 237.46 84.0859C237.34 83.9479 237.222 83.8789 237.104 83.8789C236.987 83.8789 236.89 83.8971 236.812 83.9336C236.733 83.9674 236.666 84.0221 236.608 84.0977C236.489 84.2565 236.429 84.5039 236.429 84.8398V85.7422L237.562 85.5586ZM238.14 85.4609V85.3398C238.14 84.8555 238.099 84.5625 238.019 84.4609C237.982 84.4167 237.942 84.3841 237.897 84.3633V85.5L238.14 85.4609ZM235.792 86.9648C235.828 86.9362 235.847 86.9036 235.847 86.8672C235.847 86.8099 235.835 86.737 235.812 86.6484C235.705 86.2396 235.651 85.9557 235.651 85.7969C235.651 85.6354 235.657 85.5104 235.667 85.4219C235.677 85.3307 235.692 85.2396 235.71 85.1484C235.741 84.9714 235.775 84.8151 235.812 84.6797C235.835 84.5911 235.847 84.5312 235.847 84.5C235.847 84.4375 235.828 84.3919 235.792 84.3633C235.683 84.4935 235.599 84.668 235.542 84.8867C235.485 85.1055 235.438 85.2982 235.401 85.4648C235.388 85.5352 235.312 85.6029 235.171 85.668C235.312 85.7331 235.388 85.7982 235.401 85.8633C235.498 86.3034 235.577 86.5833 235.64 86.7031C235.702 86.8229 235.753 86.9102 235.792 86.9648ZM240.315 87.9531C240.196 88.0365 240.059 88.0781 239.905 88.0781C239.752 88.0781 239.64 88.043 239.569 87.9727C239.502 87.8997 239.468 87.8307 239.468 87.7656C239.468 87.6797 239.482 87.6172 239.511 87.5781C239.568 87.6224 239.641 87.6445 239.729 87.6445C239.896 87.6445 240.004 87.5638 240.054 87.4023V86.2188C240.054 86.099 240.03 86.0104 239.983 85.9531C239.9 85.8516 239.765 85.7552 239.577 85.6641C239.895 85.5182 240.054 85.2943 240.054 84.9922V84.582C240.054 84.3607 239.978 84.2409 239.827 84.2227C239.783 84.2174 239.727 84.2148 239.659 84.2148C239.591 84.2148 239.529 84.237 239.472 84.2812C239.435 84.2318 239.417 84.181 239.417 84.1289C239.417 84.0742 239.43 84.0143 239.456 83.9492C239.485 83.8815 239.528 83.8177 239.585 83.7578C239.72 83.6172 239.878 83.5469 240.058 83.5469C240.24 83.5469 240.391 83.5755 240.511 83.6328C240.654 83.4714 240.808 83.3906 240.972 83.3906C241.227 83.3906 241.354 83.5312 241.354 83.8125V84.3477C241.615 83.707 242.029 83.3867 242.597 83.3867C242.852 83.3867 243.059 83.4648 243.218 83.6211C243.382 83.7799 243.464 84 243.464 84.2812V84.3359C243.464 84.3542 243.461 84.3919 243.456 84.4492C243.451 84.5039 243.452 84.5599 243.46 84.6172C243.47 84.6745 243.486 84.7214 243.507 84.7578C243.535 84.8125 243.589 84.8555 243.667 84.8867C243.649 84.957 243.606 85.0208 243.538 85.0781C243.473 85.1328 243.4 85.1602 243.319 85.1602H243.245C243.144 85.2878 243.002 85.3776 242.819 85.4297C242.767 85.4453 242.71 85.4531 242.647 85.4531C242.588 85.4531 242.534 85.4401 242.487 85.4141C242.443 85.3854 242.418 85.3555 242.413 85.3242C242.463 85.3008 242.487 85.2539 242.487 85.1836V85.1641C242.466 85.1693 242.448 85.1719 242.433 85.1719H242.394C242.308 85.1719 242.229 85.1393 242.159 85.0742C242.091 85.0091 242.047 84.9271 242.026 84.8281C242.167 84.8333 242.289 84.7812 242.394 84.6719C242.487 84.5755 242.534 84.4766 242.534 84.375C242.534 84.1354 242.43 84.0156 242.222 84.0156C242.042 84.0156 241.861 84.1589 241.679 84.4453C241.507 84.7083 241.399 84.9805 241.354 85.2617V87.375C241.383 87.4661 241.427 87.5339 241.487 87.5781C241.547 87.6224 241.629 87.6445 241.733 87.6445C241.838 87.6445 241.918 87.6224 241.976 87.5781C242.004 87.6172 242.019 87.6745 242.019 87.75C242.019 87.8255 241.983 87.8997 241.913 87.9727C241.845 88.043 241.729 88.0781 241.565 88.0781C241.404 88.0781 241.249 88.0339 241.101 87.9453C240.996 88.0339 240.87 88.0781 240.722 88.0781C240.573 88.0781 240.438 88.0365 240.315 87.9531ZM240.651 86.1016C240.654 86.013 240.655 85.9388 240.655 85.8789C240.658 85.819 240.659 85.7708 240.659 85.7344V85.6289C240.659 85.5898 240.658 85.5404 240.655 85.4805C240.655 85.418 240.654 85.349 240.651 85.2734C240.651 85.1953 240.65 85.1198 240.647 85.0469C240.632 84.776 240.602 84.6029 240.558 84.5273C240.516 84.4492 240.473 84.3958 240.429 84.3672V84.6211C240.429 85.0586 240.418 85.3164 240.397 85.3945C240.379 85.4701 240.348 85.5273 240.304 85.5664C240.262 85.6029 240.2 85.6354 240.116 85.6641C240.272 85.7188 240.361 85.7852 240.382 85.8633C240.413 85.9883 240.429 86.2695 240.429 86.707V86.9609C240.549 86.8828 240.616 86.724 240.632 86.4844C240.645 86.3151 240.651 86.1875 240.651 86.1016Z" fill="#FD375F"/>
<path d="M130.499 161C139.499 154.834 162.899 145.5 184.499 157.5C211.499 172.5 240.999 174 262.499 157.5C283.999 141 305.999 142 333.499 161C355.499 176.2 372.332 161 377.999 151.5" stroke="white" stroke-width="2"/>
<path d="M334.115 202.5C327.948 193.5 318.615 170.1 330.615 148.5C345.615 121.5 347.115 92 330.615 70.5C314.115 49 315.115 27 334.115 -0.500001C349.315 -22.5 334.115 -39.3333 324.615 -45" stroke="white" stroke-width="2"/>
<path opacity="0.07" d="M357.577 10.9908C356.626 10.5847 355.604 10.3694 354.568 10.3572C353.532 10.3449 352.503 10.5359 351.54 10.9193C350.576 11.3027 349.697 11.8709 348.953 12.5915C348.209 13.3122 347.614 14.1711 347.202 15.1192L346.348 17.0862L344.375 16.2441C342.456 15.4246 340.284 15.3991 338.338 16.1733C336.393 16.9475 334.832 18.458 334.001 20.3725C333.169 22.287 333.134 24.4486 333.903 26.3818C334.672 28.3151 336.183 29.8616 338.103 30.6812L340.075 31.5232L354.552 37.7035L360.824 23.2665L361.679 21.2995C362.091 20.3516 362.312 19.3329 362.329 18.3018C362.346 17.2706 362.158 16.2472 361.777 15.2898C361.396 14.3325 360.829 13.4601 360.109 12.7225C359.388 11.9848 358.528 11.3964 357.577 10.9908Z" fill="white"/>
<path opacity="0.07" d="M166.345 18.6995C166.259 17.6694 165.971 16.6651 165.497 15.7438C165.023 14.8226 164.373 14.0025 163.584 13.3303C162.794 12.6582 161.881 12.1472 160.896 11.8266C159.911 11.506 158.873 11.382 157.843 11.4617L155.704 11.6267L155.526 9.48948C155.352 7.40938 154.359 5.47824 152.764 4.12089C151.17 2.76355 149.105 2.09119 147.023 2.25172C144.942 2.41226 143.015 3.39253 141.667 4.9769C140.318 6.56128 139.658 8.61996 139.832 10.7001L140.01 12.8372L141.321 28.5234L157.015 27.3128L159.153 27.1478C160.184 27.0686 161.187 26.7872 162.106 26.3197C163.026 25.8521 163.843 25.2077 164.51 24.4232C165.178 23.6386 165.684 22.7293 165.999 21.7472C166.314 20.7651 166.431 19.7295 166.345 18.6995Z" fill="white"/>
<path opacity="0.15" d="M280.874 16.2494C280.705 15.7544 280.44 15.2971 280.093 14.9034C279.747 14.5097 279.327 14.1875 278.856 13.955C278.386 13.7226 277.875 13.5845 277.352 13.5487C276.829 13.5129 276.304 13.5801 275.808 13.7463L274.779 14.0911L274.428 13.0643C274.086 12.0649 273.36 11.2397 272.41 10.7703C271.46 10.3008 270.364 10.2257 269.362 10.5612C268.36 10.8968 267.536 11.6157 267.069 12.5597C266.603 13.5037 266.533 14.5955 266.875 15.5949L267.226 16.6217L269.805 24.1584L277.358 21.6278L278.387 21.283C278.883 21.117 279.341 20.855 279.734 20.5122C280.128 20.1693 280.449 19.7522 280.68 19.2848C280.911 18.8173 281.047 18.3087 281.08 17.7878C281.114 17.267 281.044 16.7442 280.874 16.2494Z" fill="white"/>
<path opacity="0.2" d="M30.9033 162.233C30.7325 161.94 30.5054 161.684 30.2351 161.478C29.9649 161.273 29.6567 161.122 29.3282 161.035C28.9997 160.947 28.6573 160.925 28.3206 160.97C27.984 161.014 27.6596 161.124 27.366 161.293L26.7568 161.644L26.4021 161.037C26.0569 160.446 25.4903 160.015 24.8269 159.839C24.1635 159.662 23.4577 159.755 22.8648 160.097C22.2718 160.438 21.8403 161 21.6651 161.659C21.4899 162.319 21.5855 163.021 21.9307 163.612L22.2854 164.219L24.8886 168.673L29.36 166.099L29.9692 165.748C30.2629 165.579 30.52 165.354 30.7259 165.086C30.9318 164.818 31.0824 164.512 31.1691 164.185C31.2559 163.859 31.2771 163.518 31.2314 163.183C31.1858 162.848 31.0743 162.525 30.9033 162.233Z" fill="#FF224E"/>
<path opacity="0.15" d="M228.679 167.355C228.146 166.354 227.421 165.467 226.544 164.744C225.667 164.021 224.657 163.477 223.57 163.142C222.483 162.807 221.341 162.688 220.21 162.792C219.079 162.895 217.98 163.22 216.976 163.747L214.893 164.84L213.787 162.764C212.71 160.744 210.872 159.228 208.678 158.552C206.483 157.875 204.111 158.093 202.083 159.156C200.056 160.22 198.54 162.043 197.867 164.224C197.195 166.405 197.422 168.765 198.499 170.785L199.605 172.861L207.723 188.098L223.011 180.077L225.094 178.984C226.098 178.457 226.987 177.739 227.711 176.869C228.435 176 228.978 174.997 229.311 173.917C229.644 172.837 229.76 171.701 229.651 170.575C229.543 169.45 229.212 168.355 228.679 167.355Z" fill="white"/>
<path opacity="0.15" d="M186.37 119.318C186.082 118.477 185.632 117.7 185.043 117.031C184.455 116.362 183.741 115.814 182.942 115.419C182.142 115.024 181.274 114.79 180.385 114.729C179.496 114.668 178.605 114.782 177.762 115.065L176.014 115.65L175.417 113.906C174.836 112.208 173.603 110.805 171.988 110.008C170.374 109.21 168.511 109.083 166.809 109.653C165.108 110.223 163.706 111.444 162.914 113.048C162.121 114.652 162.003 116.507 162.584 118.206L163.18 119.95L167.562 132.756L180.395 128.456L182.144 127.87C182.987 127.588 183.765 127.143 184.433 126.561C185.102 125.978 185.648 125.269 186.04 124.475C186.433 123.681 186.664 122.817 186.72 121.932C186.777 121.047 186.658 120.158 186.37 119.318Z" fill="white"/>
<path opacity="0.08" d="M254.417 130.083C253.971 130.851 253.679 131.701 253.56 132.584C253.44 133.467 253.495 134.365 253.72 135.227C253.946 136.09 254.338 136.9 254.875 137.611C255.411 138.322 256.082 138.92 256.847 139.371L258.436 140.308L257.51 141.902C256.608 143.454 256.358 145.304 256.813 147.046C257.269 148.788 258.394 150.279 259.94 151.19C261.486 152.102 263.327 152.359 265.058 151.907C266.789 151.454 268.268 150.327 269.169 148.775L270.095 147.181L276.894 135.478L265.235 128.605L263.646 127.668C262.881 127.217 262.035 126.921 261.157 126.798C260.279 126.675 259.385 126.727 258.528 126.951C257.671 127.176 256.867 127.568 256.162 128.105C255.456 128.642 254.864 129.314 254.417 130.083Z" fill="white"/>
<path opacity="0.08" d="M291.427 70.7941C290.541 70.7243 289.649 70.8297 288.802 71.1043C287.954 71.3788 287.169 71.8171 286.489 72.3941C285.809 72.9711 285.249 73.6755 284.841 74.4671C284.432 75.2587 284.183 76.122 284.108 77.0076L283.952 78.845L282.114 78.7007C280.325 78.5602 278.548 79.136 277.176 80.3012C275.803 81.4665 274.947 83.1258 274.795 84.9142C274.643 86.7025 275.208 88.4735 276.366 89.8373C277.524 91.2012 279.18 92.0463 280.969 92.1868L282.807 92.3311L296.3 93.3902L297.445 79.9041L297.602 78.0666C297.677 77.1811 297.577 76.2905 297.307 75.4457C297.038 74.6009 296.604 73.8184 296.031 73.1431C295.457 72.4677 294.756 71.9126 293.966 71.5096C293.176 71.1065 292.314 70.8634 291.427 70.7941Z" fill="white"/>
<path d="M118.5 213.5C178.5 67.1 58.1667 -1.83333 -9.5 -18L-15 173C4.5 247.5 58.5 359.9 118.5 213.5Z" fill="#FE0033"/>
<path d="M118.5 213.5C178.5 67.1 58.1667 -1.83333 -9.5 -18L-15 173C4.5 247.5 58.5 359.9 118.5 213.5Z" fill="white"/>
<path opacity="0.22" d="M33.4568 19.7039C33.2536 19.1097 32.9351 18.5605 32.5194 18.0879C32.1038 17.6152 31.5991 17.2283 31.0343 16.9492C30.4695 16.6701 29.8556 16.5043 29.2276 16.4614C28.5996 16.4184 27.97 16.499 27.3745 16.6987L26.139 17.1126L25.7172 15.8797C25.3066 14.6798 24.4351 13.689 23.2945 13.1254C22.1538 12.5619 20.8375 12.4716 19.6349 12.8745C18.4324 13.2774 17.4422 14.1405 16.8822 15.2739C16.3221 16.4073 16.2382 17.7182 16.6487 18.9181L17.0706 20.151L20.1667 29.1999L29.2351 26.1615L30.4706 25.7475C31.0661 25.5482 31.6158 25.2337 32.0882 24.822C32.5606 24.4103 32.9465 23.9096 33.2238 23.3483C33.5011 22.7871 33.6644 22.1764 33.7044 21.551C33.7444 20.9257 33.6602 20.2981 33.4568 19.7039Z" fill="#FF224E"/>
<path opacity="0.25" d="M79.5622 38.512C79.2606 38.3576 78.9312 38.2638 78.5927 38.2362C78.2543 38.2086 77.9134 38.2476 77.5896 38.351C77.2659 38.4544 76.9655 38.6202 76.7057 38.8388C76.4459 39.0575 76.2318 39.3248 76.0755 39.6255L75.7512 40.2492L75.1255 39.9289C74.5164 39.6171 73.8069 39.5593 73.153 39.7681C72.4991 39.9769 71.9545 40.4353 71.6388 41.0423C71.3232 41.6494 71.2624 42.3555 71.4699 43.0052C71.6774 43.6549 72.1361 44.1951 72.7452 44.5068L73.371 44.8271L77.964 47.1782L80.3443 42.6002L80.6686 41.9765C80.8249 41.6759 80.9204 41.3479 80.9494 41.0111C80.9784 40.6743 80.9405 40.3353 80.8377 40.0136C80.735 39.6918 80.5694 39.3936 80.3506 39.136C80.1317 38.8784 79.8638 38.6663 79.5622 38.512Z" fill="#FF224E"/>
<path opacity="0.25" d="M28.0971 151.707C27.9545 151.399 27.7526 151.123 27.5029 150.892C27.2532 150.662 26.9605 150.483 26.6417 150.365C26.3229 150.248 25.9841 150.193 25.6448 150.206C25.3054 150.218 24.9721 150.297 24.6639 150.438L24.0244 150.73L23.7284 150.092C23.4404 149.471 22.9168 148.989 22.273 148.751C21.6291 148.513 20.9177 148.539 20.2953 148.823C19.6728 149.107 19.1903 149.626 18.9539 150.266C18.7174 150.906 18.7464 151.614 19.0345 152.235L19.3305 152.872L21.5029 157.552L26.1968 155.41L26.8363 155.118C27.1446 154.977 27.4217 154.777 27.6519 154.53C27.8821 154.282 28.0609 153.992 28.178 153.675C28.2951 153.358 28.3482 153.021 28.3343 152.684C28.3204 152.346 28.2398 152.014 28.0971 151.707Z" fill="#FF224E"/>
<path opacity="0.12" d="M98.8872 156.25C98.4283 156.1 97.9437 156.042 97.4613 156.079C96.9788 156.116 96.5079 156.248 96.0755 156.466C95.6431 156.684 95.2575 156.984 94.941 157.35C94.6244 157.716 94.383 158.14 94.2306 158.598L93.914 159.549L92.9617 159.238C92.0347 158.936 91.0234 159.014 90.1501 159.454C89.2768 159.894 88.6131 160.662 88.305 161.587C87.9969 162.512 88.0697 163.519 88.5073 164.386C88.9449 165.254 89.7114 165.911 90.6384 166.214L91.5907 166.524L98.5808 168.803L100.904 161.828L101.221 160.877C101.373 160.419 101.434 159.936 101.399 159.456C101.365 158.975 101.235 158.507 101.019 158.077C100.802 157.647 100.502 157.265 100.136 156.951C99.7708 156.638 99.3463 156.4 98.8872 156.25Z" fill="#FF224E"/>
<path opacity="0.12" d="M120.275 135.569C120.081 135.505 119.877 135.481 119.673 135.497C119.47 135.512 119.271 135.568 119.089 135.66C118.906 135.751 118.744 135.878 118.61 136.033C118.477 136.187 118.375 136.366 118.311 136.559L118.177 136.96L117.776 136.829C117.385 136.701 116.958 136.734 116.59 136.92C116.221 137.106 115.942 137.429 115.812 137.819C115.682 138.209 115.712 138.634 115.897 139C116.081 139.366 116.405 139.643 116.796 139.771L117.197 139.902L120.145 140.863L121.125 137.921L121.259 137.52C121.323 137.327 121.349 137.123 121.334 136.921C121.32 136.718 121.265 136.52 121.174 136.339C121.082 136.158 120.956 135.997 120.802 135.864C120.647 135.732 120.468 135.632 120.275 135.569Z" fill="#FF224E"/>
<path opacity="0.15" d="M21.4818 63.4747C21.5824 63.2977 21.6472 63.1024 21.6726 62.8999C21.698 62.6974 21.6835 62.4917 21.6298 62.2946C21.5762 62.0976 21.4845 61.9129 21.3599 61.7512C21.2354 61.5896 21.0805 61.454 20.904 61.3524L20.538 61.1415L20.7466 60.7741C20.9496 60.4165 21.0028 59.992 20.8945 59.594C20.7861 59.196 20.5251 58.8571 20.1688 58.6517C19.8126 58.4464 19.3902 58.3916 18.9948 58.4992C18.5993 58.6069 18.263 58.8683 18.06 59.2258L17.8514 59.5932L16.3203 62.2896L19.0069 63.8379L19.3729 64.0488C19.5493 64.1505 19.7438 64.2164 19.9453 64.2426C20.1467 64.2688 20.3512 64.2548 20.5471 64.2015C20.7429 64.1482 20.9263 64.0566 21.0866 63.9319C21.247 63.8072 21.3813 63.6518 21.4818 63.4747Z" fill="#FF224E"/>
<path d="M124.284 197.58C185.293 54.8472 78.5125 -33.5058 17.4959 -59.8408C21.6219 -65.7783 31.3458 -75.401 37.2339 -66.3915C177.356 14.0474 153.651 143.106 124.284 197.58Z" fill="white" fill-opacity="0.15"/>
<path d="M156.28 45.3255C157.077 42.9268 158.034 40.4744 159.153 37.9772C160.272 35.48 161.632 32.9202 163.226 30.3067C164.828 27.6931 166.492 25.3839 168.229 23.379C169.965 21.3831 171.89 19.7362 174.002 18.4563C176.114 17.1764 178.209 16.5319 180.276 16.5319C182.576 16.5319 184.304 17.4628 185.449 19.3334C186.595 21.2041 187.222 23.4327 187.32 26.0373C187.32 26.1716 187.213 26.2969 186.998 26.4132C186.783 26.5296 186.568 26.5833 186.345 26.5654C186.121 26.5475 186.022 26.4759 186.022 26.3416C185.951 23.8444 185.476 21.8127 184.599 20.2643C183.713 18.7158 182.209 17.955 180.07 17.9908C177.931 18.0267 175.738 18.9217 173.474 20.6939C171.209 22.4571 169.16 24.7037 167.325 27.4157C165.49 30.1366 163.754 33.126 162.098 36.393C160.442 39.6599 159.081 42.7836 157.998 45.7641C156.915 48.7446 156.092 51.4387 155.528 53.8374L155.474 54.0343C155.376 54.5982 155.278 55.0546 155.17 55.3858C155.134 55.6543 154.284 55.4395 152.619 54.7324C151.187 54.097 150.534 53.6136 150.668 53.2825V53.1303C150.632 53.0945 150.614 53.0497 150.614 52.9781H150.668C150.668 52.5485 150.695 51.4208 150.74 49.6038C150.784 47.7869 150.82 46.0326 150.838 44.332C150.856 42.6314 150.847 40.6355 150.811 38.3531C150.775 36.0707 150.65 34.0569 150.435 32.3026C150.221 30.5483 149.916 28.9373 149.531 27.4515C149.146 25.9657 148.6 24.9364 147.884 24.3546C147.168 23.7728 146.327 23.746 145.36 24.283C142.998 25.554 141.27 27.4515 140.187 29.9844C139.104 32.5174 138.961 34.7998 139.757 36.8315C140.554 38.8633 142.156 39.8657 144.555 39.8299C144.689 39.8299 144.761 39.9284 144.779 40.1253C144.797 40.3222 144.761 40.5281 144.68 40.725C144.6 40.9219 144.492 41.0203 144.358 41.0203C142.595 41.0203 141.154 40.546 140.062 39.5972C138.961 38.6485 138.307 37.4223 138.111 35.9186C137.914 34.4149 137.976 32.8396 138.307 31.1659C138.639 29.5011 139.364 27.8721 140.482 26.2879C141.601 24.7037 142.944 23.4506 144.51 22.5108C146.309 21.4099 147.893 20.8818 149.263 20.9087C150.632 20.9445 151.706 21.4368 152.485 22.3855C153.273 23.3343 153.935 24.5515 154.481 26.0373C155.036 27.5231 155.385 29.17 155.555 30.9869C155.725 32.8038 155.859 34.6029 155.976 36.384C156.092 38.1652 156.119 39.8299 156.047 41.3605C155.976 42.891 155.976 44.1083 156.047 45.0122L155.994 46.0594L156.28 45.3255Z" fill="white"/>
<path d="M175.479 32.8759C175.541 32.4732 176.508 32.4732 178.379 32.8759C180.545 33.3414 181.646 33.9231 181.681 34.6302C181.681 34.7287 181.628 34.845 181.529 34.9793C180.661 35.9817 179.775 38.2462 178.88 41.7816C178.549 43.1152 178.307 44.3414 178.155 45.4603C178.003 46.5791 177.985 47.5457 178.101 48.3602C178.218 49.1747 178.513 49.6222 178.978 49.6849C179.515 49.7833 180.133 49.3179 180.849 48.2886C181.565 47.2593 182.192 46.042 182.72 44.6368C182.89 44.3056 183.203 44.234 183.668 44.4399C183.937 44.5384 184.035 44.6726 183.964 44.8427C182.765 47.8769 181.574 50.1234 180.393 51.5913C179.211 53.0592 177.887 53.7573 176.419 53.6947C175.148 53.6231 174.163 53.0234 173.447 51.8956C172.731 50.7589 172.427 49.6491 172.525 48.5482C170.995 52.0478 169.043 53.7663 166.672 53.6947C162.671 53.5604 161.525 49.5238 163.226 41.5937C163.655 39.3292 164.515 37.2885 165.803 35.4716C167.092 33.6546 168.632 32.7148 170.431 32.6432C171.263 32.6432 172.096 32.8938 172.928 33.3951C173.76 33.8963 174.36 34.7645 174.727 35.9907C174.79 35.6595 174.906 35.1404 175.076 34.4423C175.246 33.7262 175.38 33.2071 175.479 32.8759ZM172.722 35.8743C172.454 35.8385 172.185 35.9191 171.926 36.0981C171.657 36.286 171.415 36.5635 171.201 36.9484C170.986 37.3333 170.789 37.7002 170.628 38.0493C170.458 38.3984 170.297 38.8459 170.126 39.4008C169.956 39.9468 169.831 40.3764 169.751 40.6718C169.67 40.9671 169.563 41.3699 169.428 41.8711L169.231 42.6677C168.766 44.5026 168.542 46.1673 168.56 47.671C168.578 49.1747 168.918 49.9355 169.589 49.9713C170.323 49.9713 171.353 48.3244 172.686 45.0217C172.749 44.6189 173.053 43.2226 173.59 40.8239C173.653 40.4211 173.725 40.1079 173.787 39.8752C173.921 38.7385 173.877 37.7987 173.662 37.0468C173.438 36.295 173.125 35.9012 172.722 35.8743Z" fill="white"/>
<path d="M183.276 39.7765C183.473 38.9083 184.413 35.3461 186.078 29.0718C187.743 22.8065 188.683 19.2353 188.879 18.3671C188.978 17.9643 189.962 17.9643 191.833 18.3671C193.963 18.7967 195.046 19.3695 195.082 20.0677C195.082 20.1661 195.028 20.2825 194.93 20.4167C194.366 21.0164 193.355 23.7821 191.905 28.7138C190.455 33.6455 189.345 37.6463 188.575 40.7163C187.304 45.7465 187.34 48.3869 188.674 48.6196C189.202 48.718 189.828 48.2526 190.544 47.2233C191.26 46.194 191.869 44.9768 192.37 43.5715C192.433 43.4015 192.585 43.312 192.818 43.2941C193.05 43.2762 193.256 43.3209 193.444 43.4194C193.632 43.5178 193.704 43.6342 193.668 43.7684C192.469 46.8027 191.278 49.0492 190.097 50.5171C188.915 51.985 187.573 52.6831 186.069 52.6204C185.272 52.5846 184.592 52.3788 184.046 51.9939C183.491 51.609 183.106 51.0899 182.874 50.4186C182.641 49.7473 182.471 49.0582 182.372 48.3421C182.274 47.6261 182.265 46.8026 182.346 45.8629C182.426 44.932 182.525 44.1354 182.623 43.491C182.722 42.8376 182.847 42.1126 182.999 41.316C183.151 40.5194 183.241 40.0093 183.276 39.7765Z" fill="white"/>
<path d="M206.476 43.2222C206.539 43.0253 206.682 42.9268 206.897 42.9268C207.111 42.9268 207.308 42.9895 207.469 43.1058C207.64 43.2222 207.702 43.3296 207.666 43.428C206.897 46.2922 205.644 48.6193 203.889 50.4004C202.135 52.1816 199.88 53.0229 197.114 52.9244C195.181 52.826 193.722 51.7698 192.737 49.747C191.752 47.7332 191.699 44.5379 192.558 40.1701C193.086 37.5028 194.098 35.31 195.583 33.5915C197.069 31.873 198.904 31.0854 201.106 31.2196C202.574 31.3181 203.603 31.8641 204.203 32.8486C204.802 33.8332 205.035 35.0236 204.901 36.4198C204.605 39.0871 203.8 41.2889 202.502 43.0163C201.204 44.7527 199.817 46.0326 198.349 46.865C198.814 49.1295 199.817 50.0514 201.347 49.6128C202.744 49.21 204.077 47.8764 205.348 45.6119C205.814 44.8511 206.181 44.0546 206.476 43.2222ZM203.075 36.3751C203.137 35.4711 202.86 34.8714 202.225 34.576C201.356 34.1464 200.542 34.7729 199.772 36.4735C199.172 37.7713 198.689 39.6241 198.322 42.0228C198.125 43.1237 198.054 44.2246 198.125 45.3255C199.36 44.5558 200.461 43.3743 201.428 41.7722C202.395 40.1701 202.95 38.371 203.075 36.3751Z" fill="white"/>
<path d="M225.731 33.9228C224.899 34.9252 224.013 37.1897 223.082 40.7251C222.751 42.0587 222.509 43.2849 222.357 44.4037C222.205 45.5225 222.187 46.4892 222.303 47.3037C222.42 48.1182 222.715 48.5657 223.18 48.6283C223.708 48.7268 224.344 48.2614 225.078 47.2321C225.812 46.2028 226.429 44.9855 226.931 43.5803C227.101 43.2491 227.414 43.1775 227.879 43.3834C228.148 43.4818 228.246 43.6161 228.184 43.7861C227.02 46.8203 225.839 49.0669 224.657 50.5348C223.476 52.0027 222.133 52.7008 220.629 52.6381C216.897 52.4412 215.975 47.9213 217.882 39.0872C218.213 36.6526 217.882 36.053 216.879 37.2881C215.644 38.7918 213.827 42.184 211.428 47.4916C210.927 50.2573 210.659 51.6715 210.632 51.7431C210.569 52.1101 210.336 52.3696 209.934 52.5218C209.531 52.6739 209.083 52.7187 208.582 52.6739C208.081 52.6292 207.58 52.5397 207.079 52.4233C206.577 52.307 206.166 52.1548 205.825 51.9758C205.494 51.7878 205.342 51.6357 205.378 51.5014L209.325 31.8462C209.388 31.4435 210.345 31.4614 212.171 31.9C214.302 32.3654 215.402 32.9471 215.474 33.6542C215.474 33.7885 215.42 33.9227 215.322 34.057C214.319 35.1221 213.505 37.2076 212.869 40.3044C215.501 34.9073 217.953 32.0074 220.218 31.6046C221.05 31.4345 222.285 31.6225 223.914 32.1595C225.633 32.6518 226.232 33.2515 225.731 33.9228Z" fill="white"/>
<path d="M234.832 33.1715C235.7 33.2073 236.568 33.2073 237.428 33.1715C237.66 33.1357 237.642 33.3684 237.374 33.8696C237.105 34.4335 236.738 34.7199 236.273 34.7199H234.375C234.008 36.0177 233.507 38.0226 232.872 40.7167C232.505 42.0503 232.245 43.2766 232.093 44.3954C231.941 45.5142 231.923 46.4808 232.039 47.2953C232.156 48.1098 232.451 48.5573 232.916 48.62C233.454 48.7184 234.08 48.253 234.814 47.2237C235.548 46.1944 236.166 44.9771 236.667 43.5719C236.837 43.2408 237.15 43.1691 237.615 43.375C237.884 43.4735 237.982 43.6077 237.911 43.7778C236.747 46.812 235.566 49.0585 234.384 50.5264C233.203 51.9943 231.86 52.6924 230.357 52.6298C229.426 52.594 228.665 52.3076 228.083 51.7526C227.501 51.1977 227.099 50.5622 226.884 49.8283C226.669 49.0943 226.571 48.1903 226.589 47.1073C226.606 46.0243 226.66 45.1024 226.768 44.3327C226.866 43.563 227.009 42.6769 227.197 41.6565C227.376 40.6362 227.493 40.0186 227.519 39.7859C227.519 39.7501 227.672 39.1235 227.967 37.8884C228.271 36.6532 228.531 35.606 228.763 34.7378C228.593 34.7378 228.253 34.7468 227.734 34.7647C227.215 34.7826 226.741 34.7915 226.311 34.7915C225.881 34.7915 225.792 34.4067 226.06 33.6369C226.392 32.7329 226.911 32.2228 227.609 32.0885C227.842 32.0527 228.092 32.0885 228.361 32.1869C228.763 32.3212 229.077 32.4197 229.309 32.4913C229.506 31.5873 229.829 30.2716 230.258 28.5441C230.688 26.8077 230.956 25.7158 231.055 25.2414C231.117 24.8386 232.084 24.8386 233.955 25.2414C236.121 25.7068 237.222 26.2886 237.257 26.9957C237.257 27.0941 237.213 27.2105 237.105 27.3448C236.595 27.8549 235.834 29.8061 234.832 33.1715Z" fill="white"/>
<path d="M238.982 31.8198C239.045 31.4171 240.012 31.4171 241.882 31.8198C244.048 32.2852 245.149 32.867 245.185 33.5741C245.185 33.6726 245.14 33.7889 245.033 33.9232C244.165 34.9256 243.279 37.1901 242.384 40.7255C242.052 42.0591 241.811 43.2853 241.659 44.4041C241.506 45.523 241.488 46.4896 241.605 47.3041C241.721 48.1186 242.017 48.5661 242.482 48.6288C243.01 48.7272 243.637 48.2618 244.353 47.2325C245.069 46.2032 245.695 44.9859 246.223 43.5807C246.286 43.4107 246.438 43.3211 246.671 43.3032C246.904 43.2853 247.1 43.3301 247.27 43.4286C247.441 43.527 247.503 43.6434 247.467 43.7776C246.268 46.8118 245.078 49.0584 243.896 50.5263C242.715 51.9941 241.39 52.6923 239.922 52.6296C238.92 52.5938 238.123 52.2626 237.523 51.6272C236.924 50.9917 236.548 50.1235 236.396 49.0226C236.244 47.9217 236.181 46.785 236.199 45.5946C236.217 44.4131 236.378 43.0705 236.673 41.5669C236.969 40.0632 237.246 38.7743 237.497 37.6913C237.747 36.6083 238.034 35.4448 238.374 34.1917C238.723 32.9476 238.92 32.1599 238.982 31.8198ZM242.133 22.8246C242.267 22.4219 243.314 22.3592 245.283 22.6277C247.449 22.9589 248.55 23.4422 248.586 24.0777C248.586 24.1761 248.532 24.2925 248.434 24.4268C248.166 24.5968 247.736 25.0443 247.136 25.7783C246.537 26.5122 245.883 27.1656 245.185 27.7295C244.487 28.2934 243.771 28.5798 243.037 28.5798C242.571 28.5798 242.222 28.4724 241.99 28.2575C241.757 28.0427 241.587 27.5057 241.488 26.6554C241.39 25.7962 241.605 24.5252 242.133 22.8246Z" fill="white"/>
<path d="M265.574 33.9228C264.742 34.9252 263.856 37.1897 262.925 40.7251C262.594 42.0587 262.352 43.2849 262.2 44.4037C262.048 45.5225 262.03 46.4892 262.146 47.3037C262.263 48.1182 262.558 48.5657 263.023 48.6283C263.551 48.7268 264.187 48.2614 264.921 47.2321C265.655 46.2028 266.272 44.9855 266.774 43.5803C266.944 43.2491 267.257 43.1775 267.722 43.3834C267.991 43.4818 268.089 43.6161 268.027 43.7861C266.863 46.8203 265.682 49.0669 264.5 50.5348C263.319 52.0027 261.976 52.7008 260.472 52.6381C256.74 52.4412 255.818 47.9213 257.725 39.0872C258.056 36.6526 257.725 36.053 256.722 37.2881C255.487 38.7918 253.67 42.184 251.271 47.4916C250.77 50.2573 250.502 51.6715 250.475 51.7431C250.412 52.1101 250.179 52.3696 249.777 52.5218C249.374 52.6739 248.926 52.7187 248.425 52.6739C247.924 52.6292 247.423 52.5397 246.922 52.4233C246.42 52.307 246.009 52.1548 245.668 51.9758C245.337 51.7878 245.185 51.6357 245.221 51.5014L249.168 31.8462C249.231 31.4435 250.188 31.4614 252.014 31.9C254.145 32.3654 255.245 32.9471 255.317 33.6542C255.317 33.7885 255.263 33.9227 255.165 34.057C254.162 35.1221 253.348 37.2076 252.712 40.3044C255.344 34.9073 257.796 32.0074 260.061 31.6046C260.893 31.4345 262.128 31.6225 263.757 32.1595C265.476 32.6518 266.075 33.2515 265.574 33.9228Z" fill="white"/>
<path d="M280.822 43.2222C280.885 43.0253 281.028 42.9268 281.243 42.9268C281.458 42.9268 281.655 42.9895 281.816 43.1058C281.986 43.2222 282.048 43.3296 282.013 43.428C281.243 46.2922 279.99 48.6193 278.236 50.4004C276.481 52.1816 274.226 53.0229 271.46 52.9244C269.527 52.826 268.068 51.7698 267.083 49.747C266.099 47.7332 266.045 44.5379 266.904 40.1701C267.441 37.5028 268.444 35.31 269.929 33.5915C271.415 31.873 273.25 31.0854 275.452 31.2196C276.92 31.3181 277.949 31.8641 278.549 32.8486C279.148 33.8332 279.381 35.0236 279.247 36.4198C278.952 39.0871 278.146 41.2889 276.848 43.0163C275.55 44.7527 274.163 46.0326 272.695 46.865C273.161 49.1295 274.163 50.0514 275.694 49.6128C277.09 49.21 278.423 47.8764 279.694 45.6119C280.16 44.8511 280.527 44.0546 280.822 43.2222ZM277.421 36.3751C277.484 35.4711 277.206 34.8714 276.571 34.576C275.703 34.1464 274.888 34.7729 274.118 36.4735C273.519 37.7713 273.035 39.6241 272.668 42.0228C272.471 43.1237 272.4 44.2246 272.471 45.3255C273.707 44.5558 274.807 43.3743 275.774 41.7722C276.741 40.1701 277.287 38.371 277.421 36.3751Z" fill="white"/>
<path d="M287.231 22.4214C287.365 22.0186 288.412 21.9559 290.381 22.2245C292.547 22.5556 293.648 23.039 293.684 23.6744C293.684 23.7729 293.63 23.8893 293.532 24.0235C293.236 24.1936 292.601 25.026 291.634 26.5207C290.668 28.0154 289.638 29.4475 288.537 30.799C287.436 32.1505 286.524 32.8218 285.79 32.8218C285.62 32.8218 285.646 32.5264 285.861 31.9178C286.076 31.3181 286.38 30.5394 286.756 29.5907C287.141 28.6419 287.383 27.8632 287.481 27.2636C287.517 27.1651 287.472 27.0846 287.356 27.013C287.24 26.9503 287.096 26.9056 286.935 26.8876C286.765 26.8697 286.622 26.8429 286.506 26.816C286.389 26.7802 286.327 26.7176 286.327 26.6191C286.532 25.2229 286.837 23.8176 287.231 22.4214Z" fill="white"/>
<path d="M306.784 33.1705C305.781 33.7701 305.191 34.692 305.012 35.9182C304.833 37.1445 305.083 38.317 305.79 39.4179C307.554 42.2552 308.243 44.6449 307.84 46.5961C307.437 48.5473 306.533 50.0242 305.119 51.0266C303.705 52.0291 302.058 52.5571 300.196 52.6287C298.729 52.7003 297.458 52.4318 296.375 51.8321C295.292 51.2325 294.567 50.3106 294.2 49.0575C293.833 47.8044 294.146 46.2202 295.148 44.278C295.283 44.0452 295.515 44.0094 295.846 44.1795C297.377 40.7157 298.532 37.1803 299.292 33.5822C299.292 33.4837 299.31 33.3674 299.346 33.2331C299.382 33.0989 299.409 33.0004 299.445 32.9288C299.641 32.0606 299.964 31.2998 300.393 30.6285C300.796 29.7961 302.031 29.8319 304.09 30.727C305.719 31.4251 306.659 32.0964 306.891 32.7229C306.981 32.9199 306.945 33.072 306.784 33.1705ZM296.983 45.2267C297.153 45.5937 297.135 45.9965 296.929 46.4261C295.793 47.9298 295.73 49.0127 296.733 49.6751C297.601 50.239 298.63 50.2211 299.829 49.6214C301.458 48.789 302.165 47.3748 301.933 45.3699C301.798 44.2332 301.315 42.9891 300.483 41.6197C300.08 40.9215 299.749 39.9907 299.48 38.8182C298.549 41.4228 297.717 43.553 296.983 45.2267Z" fill="white"/>
<path d="M205.449 11.332L205.422 16.4427L204.24 16.4517L204.249 14.3573L201.931 14.3752L201.922 16.4696L200.741 16.4785L200.768 11.3678L201.949 11.3589L201.94 13.3727L204.258 13.3548L204.267 11.341L205.449 11.332Z" fill="white"/>
<path d="M214.373 15.2692L212.001 15.2871L211.544 16.388L210.336 16.397L212.645 11.2684L213.809 11.2594L216.064 16.3433L214.82 16.3522L214.373 15.2692ZM214.006 14.3742L213.209 12.423L212.386 14.3831L214.006 14.3742Z" fill="white"/>
<path d="M224.386 11.394C224.717 11.5461 224.976 11.752 225.155 12.0294C225.334 12.3069 225.424 12.6291 225.415 13.014C225.415 13.3899 225.316 13.7121 225.137 13.9985C224.958 14.285 224.699 14.4997 224.368 14.643C224.037 14.7951 223.643 14.8667 223.186 14.8757L222.157 14.8846L222.148 16.2898L220.967 16.2988L221.002 11.197L223.213 11.1791C223.661 11.1791 224.054 11.2507 224.386 11.394ZM223.938 13.6763C224.126 13.5242 224.216 13.3004 224.216 13.0229C224.216 12.7365 224.126 12.5217 223.938 12.3695C223.75 12.2174 223.482 12.1458 223.133 12.1458L222.166 12.1547L222.157 13.9269L223.124 13.918C223.482 13.918 223.75 13.8374 223.938 13.6763Z" fill="white"/>
<path d="M234.031 11.322C234.362 11.4741 234.622 11.68 234.792 11.9574C234.962 12.2349 235.06 12.5571 235.06 12.942C235.06 13.3179 234.962 13.6491 234.783 13.9265C234.604 14.204 234.344 14.4278 234.013 14.571C233.682 14.7231 233.288 14.8037 232.832 14.8037L231.802 14.8126L231.794 16.2179L230.612 16.2268L230.639 11.1161L232.85 11.0982C233.306 11.0982 233.7 11.1698 234.031 11.322ZM233.584 13.6043C233.772 13.4522 233.861 13.2284 233.861 12.9509C233.861 12.6645 233.772 12.4408 233.584 12.2886C233.396 12.1365 233.127 12.0649 232.778 12.0649L231.811 12.0738L231.802 13.846L232.769 13.837C233.127 13.837 233.396 13.7565 233.584 13.6043Z" fill="white"/>
<path d="M242.718 14.3206L242.709 16.1286L241.528 16.1376L241.537 14.3117L239.577 11.0448L240.83 11.0358L242.181 13.2913L243.56 11.0089L244.714 11L242.718 14.3206Z" fill="white"/>
<path d="M207.605 60.4425L209.923 60.4246C210.478 60.4246 210.971 60.5231 211.391 60.7289C211.812 60.9348 212.143 61.2302 212.376 61.615C212.609 61.9999 212.725 62.4385 212.725 62.9576C212.725 63.4678 212.6 63.9153 212.367 64.3002C212.134 64.685 211.794 64.9893 211.373 65.2042C210.953 65.419 210.452 65.5264 209.906 65.5353L207.587 65.5532L207.605 60.4425ZM209.834 64.5597C210.344 64.5597 210.756 64.4076 211.06 64.1212C211.364 63.8347 211.526 63.4499 211.526 62.9576C211.526 62.4743 211.382 62.0894 211.078 61.803C210.774 61.5255 210.371 61.3823 209.861 61.3913L208.778 61.4002L208.76 64.5687L209.834 64.5597Z" fill="white"/>
<path d="M221.258 64.3355L218.886 64.3534L218.43 65.4543L217.222 65.4632L219.531 60.3346L220.694 60.3257L222.95 65.4095L221.706 65.4185L221.258 64.3355ZM220.9 63.4404L220.104 61.4892L219.28 63.4494L220.9 63.4404Z" fill="white"/>
<path d="M230.009 63.5481L230 65.3561L228.818 65.365L228.827 63.5391L226.867 60.2722L228.12 60.2633L229.472 62.5188L230.85 60.2364L232.005 60.2275L230.009 63.5481Z" fill="white"/>
<path opacity="0.1" d="M67.87 180.418C95.8152 180.418 118.469 177.624 118.469 174.177C118.469 170.731 95.8152 167.936 67.87 167.936C39.9248 167.936 17.2708 170.731 17.2708 174.177C17.2708 177.624 39.9248 180.418 67.87 180.418Z" fill="#2E363B"/>
<path d="M60.7111 131.636C60.7111 131.636 62.6567 161.897 51.5485 166.051C51.5485 166.051 52.6997 172.217 50.155 174.352L47.8593 163.513C47.8593 163.513 58.449 164.61 47.7583 132.686L60.7111 131.636Z" fill="#EA9E80"/>
<path d="M52.1605 168.522C52.6654 168.367 53.4463 168.118 53.8839 167.882C54.5706 167.518 53.6146 165.465 53.0491 165.054C52.8673 164.92 52.5846 164.96 52.2884 165.075L51.4603 162.732C51.0968 161.715 50.0735 161.109 49.0232 161.291C48.7136 161.345 48.4241 161.392 48.1683 161.433C47.3065 161.567 46.7612 162.442 47.0036 163.291L50.1744 174.23C50.3428 174.816 51.1708 174.762 51.2651 174.163L52.1605 168.522Z" fill="#2F3334"/>
<path d="M48.1291 132.013C48.1291 132.013 46.85 164.913 45.8738 169.511C45.8738 169.511 48.2368 174.204 47.2 174.533C46.1633 174.863 41.9422 175.59 41.8008 174.385C41.6594 173.18 43.8609 169.578 43.8609 169.578C43.8609 169.578 34.5368 135.527 35.9034 134.349C37.27 133.171 48.1291 132.013 48.1291 132.013Z" fill="#EA9E80"/>
<path d="M34.8662 129.549C34.8662 129.549 34.1997 136.813 34.7383 139.97L48.2902 139.782L48.6537 137.055L49.8723 140.644L62.3066 140.381L60.4755 127.758L34.8662 129.549Z" fill="#EEDFD5"/>
<path d="M60.1778 101.327C58.9525 99.5834 57.2291 98.3581 55.3508 98.0215C53.3984 97.6714 51.5 98.2975 52.6714 102.828C53.863 107.42 58.0706 119.814 59.6459 119.948C61.2213 120.083 66.4589 120.319 65.9002 115.128C65.4356 110.759 62.9851 105.319 60.1778 101.327Z" fill="#EA9E80"/>
<path d="M45.9648 97.4226C32.6418 96.8638 34.345 107.386 33.5708 118.01C32.8909 127.347 34.0017 132.74 33.6516 133.433L61.3816 133.642C63.3137 133.662 59.3013 110.624 59.3013 110.624C59.1936 103.239 57.3019 96.2647 45.9648 97.4226Z" fill="#F05856"/>
<path opacity="0.35" d="M61.3816 133.648C62.6001 133.662 61.4624 124.56 60.4525 117.801C52.4345 130.37 40.8551 123.772 33.6112 117.457C33.5977 117.639 33.5843 117.828 33.5708 118.016C32.8909 127.354 34.0017 132.746 33.6516 133.44L61.3816 133.648Z" fill="#BE4141"/>
<path d="M63.248 98.2905C59.4645 101.051 50.5847 114.017 52.1062 130.316L56.7985 129.481C56.7985 129.481 60.3935 109.816 68.0278 103.158C69.3473 102.007 69.4012 99.9937 68.1894 98.7281C66.8766 97.3547 64.7762 97.173 63.248 98.2905Z" fill="#EA9E80"/>
<path d="M50.4968 127.374C50.618 113.021 58.4543 100.142 61.9146 97.6176C63.4429 96.5001 66.8763 97.3551 68.1958 98.7284C69.4076 99.9941 69.3537 102.007 68.0342 103.158C61.9147 108.497 59.8681 122.278 58.7168 127.502L50.4968 127.374Z" fill="#081F38"/>
<path d="M58.9792 130.578C59.3024 132.234 57.9492 133.911 55.9565 134.314C53.957 134.718 52.0787 133.702 51.7489 132.046C51.4257 130.39 52.7789 128.713 54.7784 128.309C56.7711 127.899 58.6561 128.915 58.9792 130.578Z" fill="#EA9E80"/>
<path d="M60.486 131.521L57.443 129.097L56.4399 130.356L59.4829 132.78C59.8262 133.063 60.3244 133.009 60.6004 132.665C60.8765 132.315 60.8293 131.804 60.486 131.521Z" fill="#EA9E80"/>
<path d="M58.6558 135.311L56.7371 131.905L55.3435 132.679L57.2622 136.085C57.4709 136.476 57.9556 136.624 58.3393 136.408C58.7298 136.2 58.8712 135.708 58.6558 135.311Z" fill="#EA9E80"/>
<path d="M56.5759 135.856L55.3843 132.12L53.8628 132.591L55.0544 136.328C55.1823 136.758 55.6266 137.001 56.044 136.866C56.4614 136.738 56.7038 136.287 56.5759 135.856Z" fill="#EA9E80"/>
<path d="M54.4162 135.877L54.1132 131.958L52.5244 132.053L52.8274 135.971C52.8543 136.415 53.2313 136.759 53.6689 136.732C54.1065 136.705 54.4431 136.321 54.4162 135.877Z" fill="#EA9E80"/>
<path d="M52.5355 134.523L53.9156 130.854L52.4412 130.242L51.0611 133.911C50.8995 134.328 51.0948 134.799 51.4987 134.968C51.9026 135.136 52.3739 134.941 52.5355 134.523Z" fill="#EA9E80"/>
<path d="M31.5044 107.655C31.5919 105.521 32.3796 103.528 33.7664 102.202C35.2138 100.822 37.1393 100.297 38.5934 104.74C40.061 109.244 43.205 121.961 41.9528 122.951C40.7073 123.941 36.4458 127.051 34.1232 122.392C32.1709 118.474 31.3024 112.556 31.5044 107.655Z" fill="#EA9E80"/>
<path d="M53.1858 118.844C54.8823 118.817 56.2961 120.622 56.3567 122.877C56.4105 125.132 55.0843 126.977 53.3878 127.004C51.6913 127.031 50.2775 125.226 50.2169 122.971C50.1631 120.716 51.496 118.871 53.1858 118.844Z" fill="#EA9E80"/>
<path d="M56.1756 117.841L54.5397 118.878C54.1357 119.127 54.0078 119.652 54.2434 120.069C54.4858 120.5 55.0244 120.642 55.4418 120.386L57.044 119.369C57.4345 119.14 57.549 118.615 57.3133 118.191C57.071 117.767 56.5593 117.612 56.1756 117.841Z" fill="#EA9E80"/>
<path d="M52.9557 125.994L54.6186 126.983C55.0225 127.232 55.5409 127.105 55.79 126.701C56.0525 126.283 55.9179 125.731 55.5072 125.475L53.878 124.506C53.501 124.264 52.9827 124.398 52.7268 124.809C52.471 125.22 52.5787 125.751 52.9557 125.994Z" fill="#EA9E80"/>
<path d="M53.9604 124.553L55.6232 125.543C56.0272 125.792 56.5455 125.664 56.7946 125.26C57.0572 124.843 56.9225 124.291 56.5119 124.035L54.8827 123.066C54.5057 122.823 53.9873 122.958 53.7315 123.368C53.4756 123.779 53.5834 124.311 53.9604 124.553Z" fill="#EA9E80"/>
<path d="M54.7216 122.91L56.3845 123.9C56.7884 124.149 57.3068 124.021 57.5559 123.617C57.8184 123.2 57.6838 122.648 57.2731 122.392L55.6439 121.423C55.2669 121.18 54.7485 121.315 54.4927 121.726C54.2436 122.143 54.3379 122.668 54.7216 122.91Z" fill="#EA9E80"/>
<path d="M54.8825 121.349L56.5454 122.338C56.9493 122.587 57.4677 122.459 57.7168 122.056C57.9793 121.638 57.8447 121.086 57.434 120.83L55.8048 119.861C55.4278 119.618 54.9095 119.753 54.6536 120.164C54.3978 120.574 54.4988 121.106 54.8825 121.349Z" fill="#EA9E80"/>
<path d="M38.1399 126.034C41.8763 126.694 46.4609 126.748 52.0554 125.745L50.6685 120.662C50.6685 120.662 45.3097 120.81 39.4392 119.019C37.9312 118.562 36.3693 119.228 35.6692 120.669L35.6018 120.81C34.5651 122.944 35.8644 125.63 38.1399 126.034Z" fill="#EA9E80"/>
<path d="M52.3276 98.9979C50.4358 97.9678 48.2613 97.3956 45.9657 97.4225C44.3095 97.4427 42.7342 97.7793 41.2868 98.3651C41.1252 101.509 43.6969 103.246 46.5514 103.273C49.1298 103.3 53.876 100.95 52.3276 98.9979Z" fill="#EA9E80"/>
<path d="M44.2623 99.7518C44.9692 99.9605 45.7568 100.068 46.5849 100.055C47.5543 100.035 48.4632 99.8461 49.2509 99.5296L49.1768 95.7731L44.1882 95.8673L44.2623 99.7518Z" fill="#EA9E80"/>
<path d="M49.2172 97.7995L49.1768 95.7731L44.1882 95.8673L44.2286 97.8331C44.9288 98.0014 45.7164 98.1091 46.5445 98.1159C47.5139 98.1293 48.4228 98.0082 49.2172 97.7995Z" fill="#E48068"/>
<path d="M40.4715 70.6756L43.427 70.1909C49.0888 69.2619 54.4274 73.0992 55.3564 78.7543L55.7267 81.0096C56.4605 82.1204 57.1539 83.5005 57.0934 84.6921C57.053 85.4192 57.2751 86.0116 56.5144 86.3415C56.8106 92.9794 52.1317 96.4196 46.369 97.3621C39.8926 98.4258 33.7797 94.0364 32.716 87.56L31.9014 82.5984C30.9791 76.9433 34.8097 71.6047 40.4715 70.6756Z" fill="#EA9E80"/>
<path d="M53.9553 75.1527C53.9553 75.1527 49.5323 71.3086 46.5095 72.7021C46.5095 72.7021 52.7503 85.4799 38.3905 88.2603C38.3905 88.2603 39.1041 94.4606 41.3055 97.1939C43.5069 99.9272 42.5846 105.784 40.2553 108.618C37.9259 111.453 37.5085 111.675 38.4578 114.576C39.4003 117.478 39.8379 121.605 37.9731 122.48C36.1015 123.355 30.3118 123.315 28.1306 119.754C25.9493 116.192 29.7194 101.543 30.1906 97.6517C30.6619 93.7605 19.5133 82.6187 27.767 74.3179C32.0555 70.0025 37.1652 69.6457 40.464 70.6757C40.464 70.6757 41.8172 67.249 45.8632 67.7068C48.9735 68.0569 53.9419 66.3941 53.9553 75.1527Z" fill="#8A3C2B"/>
<path d="M55.8939 88.7718L51.5247 88.287C51.5247 88.287 53.0933 92.9457 55.8939 88.7718Z" fill="#E2E9E8"/>
<path d="M51.815 84.9209C52.4619 84.9209 52.9864 84.3965 52.9864 83.7495C52.9864 83.1026 52.4619 82.5781 51.815 82.5781C51.168 82.5781 50.6436 83.1026 50.6436 83.7495C50.6436 84.3965 51.168 84.9209 51.815 84.9209Z" fill="#221F1F"/>
<path d="M49.9838 81.0366C49.8828 80.323 50.5089 79.6497 51.3774 79.5218C52.2459 79.3939 53.0335 79.8786 53.1345 80.5923" stroke="#221F1F" stroke-width="1.0045" stroke-miterlimit="10" stroke-linecap="round" stroke-linejoin="round"/>
<path d="M55.6665 80.7472C55.6665 80.7472 58.4469 85.5675 56.6629 86.3484" stroke="#221F1F" stroke-width="1.0045" stroke-miterlimit="10" stroke-linecap="round" stroke-linejoin="round"/>
<path opacity="0.44" d="M48.5697 90.5558C50.0792 90.5558 51.303 89.3321 51.303 87.8225C51.303 86.313 50.0792 85.0892 48.5697 85.0892C47.0602 85.0892 45.8364 86.313 45.8364 87.8225C45.8364 89.3321 47.0602 90.5558 48.5697 90.5558Z" fill="#F5918A"/>
<path d="M39.4883 92.3403C41.6411 92.3403 43.3862 90.5952 43.3862 88.4424C43.3862 86.2896 41.6411 84.5444 39.4883 84.5444C37.3355 84.5444 35.5903 86.2896 35.5903 88.4424C35.5903 90.5952 37.3355 92.3403 39.4883 92.3403Z" fill="#EA9E80"/>
<path d="M39.3178 87.6508C38.235 86.8766 36.8769 86.9209 36.2844 87.7496C35.6919 88.5784 36.0893 89.8778 37.1722 90.652C38.255 91.4261 39.6131 91.3819 40.2056 90.5531C40.7982 89.7243 40.4007 88.4249 39.3178 87.6508Z" fill="#E48068"/>
<path d="M37.2998 87.0893C37.2998 87.0893 39.2925 86.7998 39.7638 88.9137" stroke="#221F1F" stroke-width="1.0045" stroke-miterlimit="10" stroke-linecap="round" stroke-linejoin="round"/>
<path d="M29.5698 94.676C28.082 95.3963 23.6522 83.6352 23.2012 83.7766C22.7568 83.9179 21.4037 85.3788 20.9997 82.1137C20.6025 78.8486 22.2182 66.6565 38.4025 65.7679C46.3263 65.3303 53.1258 67.424 51.8467 68.178C30.9499 80.4778 31.0644 93.9556 29.5698 94.676Z" fill="#F49566"/>
<path opacity="0.35" d="M49.8276 69.4235C50.4806 69.0061 51.1606 68.5954 51.8607 68.1848C52.8638 67.5923 48.8986 66.1786 43.3176 65.8083C39.2378 68.3127 27.342 76.4654 25.0598 87.4187C26.1841 89.8692 27.5979 92.8718 28.6279 94.1172C28.85 93.9085 29.0587 93.646 29.1934 93.3296C29.631 92.2591 35.1043 75.8729 49.8276 69.4235Z" fill="#BE4141"/>
<path d="M52.3511 69.7398C52.3511 69.7398 54.4852 68.2116 53.1657 67.195C51.8461 66.1784 48.0963 64.3473 46.7566 64.7714C45.4169 65.1955 45.8545 65.8687 45.8545 65.8687C45.8545 65.8687 28.2296 75.4352 26.0551 89.1891L25.0789 87.5128C25.0789 87.5128 24.4191 89.8017 24.7355 91.1347C25.052 92.4677 27.3409 95.3895 28.5594 95.7396C28.5594 95.7396 29.8991 95.3154 30.3569 94.2113C30.8147 93.1005 36.6112 75.7449 52.3511 69.7398Z" fill="#F3773C"/>
<path d="M66.6039 130.667C66.6039 130.667 66.3481 162.847 78.2641 166.038C78.2641 166.038 76.9783 171.269 79.8193 173.201L81.8726 162.537C81.8726 162.537 66.4895 158.982 78.4122 130.492L66.6039 130.667Z" fill="#EA9E80"/>
<path d="M79.2341 161.258L77.1067 165.614C77.477 165.782 77.8674 165.923 78.2646 166.031C78.2646 166.031 76.9788 171.262 79.8198 173.194L81.8731 162.53C81.8731 162.537 80.6882 162.268 79.2341 161.258Z" fill="#08304D"/>
<path d="M74.2127 165.041C75.2764 163.924 77.148 159.366 77.8212 157.878C75.8487 155.535 73.4452 150.675 78.4136 130.498L65.7032 130.411C65.7032 130.411 65.4676 132.955 65.2724 136.665C64.9492 145.632 65.9186 162.604 74.2127 165.041Z" fill="#874849"/>
<path opacity="0.35" d="M65.2781 136.544L75.6928 138.705C75.9958 138.765 76.2987 138.819 76.6017 138.866C77.046 136.416 77.6451 133.642 78.4193 130.498L65.7089 130.411C65.7022 130.411 65.4733 132.902 65.2781 136.544Z" fill="#BE4141"/>
<path d="M78.9106 128.23C78.9106 128.23 82.1892 162.941 83.6299 167.539C83.6299 167.539 80.6004 172.783 81.7045 173.019C82.8086 173.255 88.4704 173.699 88.4973 172.46C88.5242 171.222 86.5921 167.835 86.5921 167.835C86.5921 167.835 91.9375 131.656 90.4093 130.586C88.881 129.509 78.9106 128.23 78.9106 128.23Z" fill="#EA9E80"/>
<path d="M86.5939 167.835C86.5939 167.835 86.6006 167.808 86.6006 167.768C86.4054 167.768 86.2102 167.761 86.0217 167.754C86.0957 167.431 86.163 167.108 86.1832 166.893C86.2438 166.267 84.7829 166.482 84.1299 166.691C83.8202 166.792 83.8337 167.256 83.928 167.721C83.7933 167.721 83.6587 167.714 83.5308 167.714C83.0191 168.623 80.7234 172.81 81.7063 173.019C82.8104 173.255 88.4722 173.699 88.4991 172.46C88.5261 171.222 86.5939 167.835 86.5939 167.835Z" fill="#08304D"/>
<path d="M88.504 172.46C88.5107 172.238 88.4501 171.942 88.3491 171.605C85.9659 172.568 82.9634 171.955 81.6775 171.612C81.4284 172.366 81.3611 172.945 81.7112 173.019C82.8153 173.248 88.4703 173.699 88.504 172.46Z" fill="#081F38"/>
<path d="M90.41 130.579C89.9185 130.229 88.5384 129.866 86.9025 129.522L79.0527 130.236C79.4836 136.611 79.5509 156.101 80.7156 164.092L88.8212 163.648C90.0262 155.529 91.6824 131.475 90.41 130.579Z" fill="#874849"/>
<path opacity="0.35" d="M79.0476 130.243C79.1823 132.188 79.2765 135.352 79.3842 139.042C80.0238 139.028 80.6633 138.974 81.2962 138.88L90.8424 137.487C90.93 133.629 90.829 130.876 90.4183 130.586C89.9269 130.236 88.5468 129.872 86.9108 129.529L79.0476 130.243Z" fill="#BE4141"/>
<path d="M89.1932 100.089C93.3874 102.122 104.307 113.149 105.539 129.172L100.773 129.165C100.773 129.165 93.9327 110.753 85.2953 105.609C83.8007 104.721 83.4103 102.782 84.3932 101.355C85.4636 99.7927 87.5034 99.2676 89.1932 100.089Z" fill="#EA9E80"/>
<path d="M106.637 126.055C104.113 112.193 94.2366 101.065 90.3993 99.2071C88.7028 98.3857 85.4646 99.7928 84.3941 101.348C83.4112 102.782 83.8017 104.714 85.2963 105.603C92.2237 109.73 96.5458 122.716 98.5587 127.57L106.637 126.055Z" fill="#081F38"/>
<path d="M102.567 127.674C100.531 127.621 98.8446 128.925 98.8017 130.587C98.7588 132.248 100.375 133.638 102.412 133.691C104.449 133.743 106.135 132.439 106.178 130.777C106.221 129.116 104.604 127.726 102.567 127.674Z" fill="#EA9E80"/>
<path d="M97.4793 131.757L100.071 128.903L101.27 129.946L98.6776 132.801C98.3881 133.131 97.89 133.164 97.5533 132.875C97.2167 132.585 97.1965 132.094 97.4793 131.757Z" fill="#EA9E80"/>
<path d="M99.9163 135.117L101.236 131.495L102.737 132.013L101.418 135.635C101.276 136.053 100.825 136.268 100.408 136.127C99.9904 135.985 99.775 135.527 99.9163 135.117Z" fill="#EA9E80"/>
<path d="M102.064 135.292L102.61 131.474L104.185 131.67L103.64 135.487C103.586 135.924 103.189 136.234 102.751 136.18C102.32 136.12 102.011 135.723 102.064 135.292Z" fill="#EA9E80"/>
<path d="M104.193 134.942L103.836 131.104L105.418 130.929L105.775 134.766C105.822 135.204 105.512 135.595 105.075 135.648C104.637 135.689 104.247 135.379 104.193 134.942Z" fill="#EA9E80"/>
<path d="M105.814 133.312L103.841 130L105.188 129.159L107.16 132.471C107.389 132.841 107.275 133.333 106.904 133.568C106.541 133.804 106.049 133.689 105.814 133.312Z" fill="#EA9E80"/>
<path d="M76.9868 94.3869C90.7743 92.5624 90.909 101.247 92.7065 112.005C94.2885 121.457 93.9991 133.649 94.4232 134.329L81.2886 136.248C79.4238 136.517 77.5253 136.463 75.6807 136.079L64.1484 133.683C62.1422 133.885 64.3571 109.103 64.3571 109.103C63.7916 101.557 69.4399 94.9658 76.9868 94.3869Z" fill="#0F3759"/>
<path opacity="0.35" d="M93.9527 125.402C81.6866 140.536 68.8281 130.249 63.3885 124.473C63.2202 129.482 63.3212 133.763 64.1627 133.683L75.695 136.079C77.5396 136.463 79.4381 136.517 81.3029 136.248L94.4374 134.329C94.1951 133.959 94.1749 130.236 93.9527 125.402Z" fill="#BE4141"/>
<path d="M76.6037 103.563C76.6037 103.563 71.9584 102.459 68.1615 101.119C65.4215 100.15 61.5841 99.7659 62.7555 96.3055C64.3847 91.492 85.7056 85.4936 90.2229 97.4163C91.3337 100.352 88.688 98.7493 86.5943 100.008C82.9252 102.223 79.2898 103.421 76.6037 103.563Z" fill="#081F38"/>
<path d="M70.5239 96.5883C72.3955 95.3563 74.5969 94.5686 76.9868 94.3868C78.7035 94.2522 80.3731 94.4474 81.935 94.912C81.7128 96.8104 79.8884 100.116 76.9262 100.412C74.2468 100.675 69.0967 98.7291 70.5239 96.5883Z" fill="#EA9E80"/>
<path d="M78.9746 96.6017C78.2543 96.8844 77.4532 97.0662 76.5914 97.1268C75.5816 97.2008 74.6189 97.0931 73.7707 96.844L73.4946 93.0067L78.6852 92.6364L78.9746 96.6017Z" fill="#EA9E80"/>
<path d="M73.6427 95.0735L73.4946 93.0067L78.6852 92.6364L78.8265 94.6426C78.1129 94.885 77.3118 95.06 76.4501 95.1475C75.447 95.2485 74.4843 95.2149 73.6427 95.0735Z" fill="#E48068"/>
<path d="M65.365 64.8117C65.365 64.8117 51.739 72.6413 64.106 83.6148C76.4731 94.5883 65.365 64.8117 65.365 64.8117Z" fill="#8A3C2B"/>
<path d="M74.5129 64.1451L71.241 64.3538C64.9734 64.7578 60.2137 70.1637 60.6109 76.4314L60.7725 78.9291C60.2608 80.2957 59.8569 81.9384 60.2204 83.1973C60.4359 83.9648 60.3551 84.6447 61.2437 84.8197C62.5632 91.9761 68.4068 94.5007 74.7822 94.09C81.9587 93.6322 87.3983 87.4453 86.9406 80.2688L86.5905 74.7686C86.1866 68.5009 80.7806 63.7479 74.5129 64.1451Z" fill="#EA9E80"/>
<path d="M81.381 82.8204C81.381 82.8204 73.5918 80.1881 75.9009 69.5512C75.9009 69.5512 59.2455 77.7511 60.6188 69.4839C61.8576 62.0381 66.6038 59.5337 74.4602 61.1966C74.4602 61.1966 88.4296 60.9205 90.5368 71.9479C92.3073 81.2114 90.0184 89.2497 82.8486 90.5086L81.381 82.8204Z" fill="#8A3C2B"/>
<path d="M62.4976 87.2635L67.0418 85.668C67.0418 85.668 66.5167 91.0268 62.4976 87.2635Z" fill="#E2E9E8"/>
<path d="M65.6137 82.1876C66.3239 82.1876 66.8996 81.6119 66.8996 80.9018C66.8996 80.1916 66.3239 79.6159 65.6137 79.6159C64.9036 79.6159 64.3279 80.1916 64.3279 80.9018C64.3279 81.6119 64.9036 82.1876 65.6137 82.1876Z" fill="#221F1F"/>
<path d="M66.9061 77.5492C66.8388 76.7616 66.004 76.1961 65.048 76.2768C64.0921 76.3576 63.365 77.0645 63.439 77.8522" stroke="#221F1F" stroke-width="1.0045" stroke-miterlimit="10" stroke-linecap="round" stroke-linejoin="round"/>
<path d="M60.7667 78.6396C60.7667 78.6396 58.9826 84.4697 61.0831 84.8601" stroke="#221F1F" stroke-width="1.0045" stroke-miterlimit="10" stroke-linecap="round" stroke-linejoin="round"/>
<path opacity="0.44" d="M71.0409 86.4626C72.6917 86.4626 74.03 85.1243 74.03 83.4735C74.03 81.8226 72.6917 80.4844 71.0409 80.4844C69.39 80.4844 68.0518 81.8226 68.0518 83.4735C68.0518 85.1243 69.39 86.4626 71.0409 86.4626Z" fill="#F5918A"/>
<path d="M79.933 87.1425C82.2903 87.1425 84.2012 85.2316 84.2012 82.8743C84.2012 80.517 82.2903 78.6061 79.933 78.6061C77.5757 78.6061 75.6648 80.517 75.6648 82.8743C75.6648 85.2316 77.5757 87.1425 79.933 87.1425Z" fill="#EA9E80"/>
<path d="M82.9533 84.6638C83.9183 83.5715 84.023 82.0874 83.1871 81.3489C82.3512 80.6104 80.8913 80.8971 79.9263 81.9894C78.9612 83.0816 78.8566 84.5657 79.6925 85.3043C80.5284 86.0428 81.9883 85.756 82.9533 84.6638Z" fill="#E48068"/>
<path d="M81.9382 80.8885C81.9382 80.8885 79.7368 81.0703 79.757 83.4468" stroke="#221F1F" stroke-width="1.0045" stroke-miterlimit="10" stroke-linecap="round" stroke-linejoin="round"/>
<path d="M59.057 72.6484C59.057 72.6484 67.654 69.6997 78.9439 73.1466C86.181 75.3547 88.6854 82.437 90.4493 82.2283C92.2131 82.0196 98.6087 70.8442 96.2457 67.2424C96.2457 67.2424 98.6491 67.404 97.6393 65.142C96.6294 62.8732 85.1308 52.1758 70.3536 57.1509C56.7209 61.7422 59.057 72.6484 59.057 72.6484Z" fill="#1D5571"/>
<path opacity="0.35" d="M94.7128 72.0427L94.5041 72.8101C94.5041 72.8101 76.3069 57.1308 63.3407 61.0355C60.2641 63.7822 59.261 66.9598 58.9917 69.2892C59.0792 70.2115 59.2475 70.9251 59.4966 71.1809C60.3449 72.0494 67.1175 67.5253 76.2531 71.6724C77.3841 72.184 78.4545 72.7361 79.4576 73.3083C82.7631 74.4595 85.0386 76.6206 86.7015 78.5325C88.6269 80.2559 89.8521 81.6697 90.3099 82.2218C90.3571 82.2285 90.4042 82.2285 90.4513 82.2218C91.5217 82.0938 94.2954 77.9333 95.7832 73.8738C95.588 73.2208 95.2446 72.6014 94.7128 72.0427Z" fill="#BE4141"/>
<path d="M61.6439 62.9541C61.6439 62.9541 62.6335 61.8702 62.0343 61.8635C61.4352 61.8568 60.4657 62.4963 59.3751 63.964C58.2778 65.4316 58.2037 71.7801 59.052 72.6485C59.9002 73.517 66.6728 68.9929 75.8084 73.14C84.944 77.287 90.0673 83.9452 90.0673 83.9452C90.0673 83.9452 89.2661 85.1839 90.0538 85.2983C91.7974 85.5407 98.2536 77.664 94.2614 73.5102L94.0527 74.2777C94.0662 74.2777 74.6505 57.5482 61.6439 62.9541Z" fill="#08304D"/>
<path d="M58.5127 65.4855C58.2636 65.8894 58.4387 69.2959 58.4387 69.2959L63.5484 68.3938L64.087 64.7516C64.0937 64.7516 58.7618 65.0815 58.5127 65.4855Z" fill="#F0DCD2"/>
<path d="M63.7368 112.766C62.2692 111.924 60.1687 112.786 59.0512 114.698C57.9336 116.61 58.2231 118.838 59.6907 119.68C61.1583 120.521 63.2588 119.66 64.3763 117.748C65.4939 115.842 65.2111 113.607 63.7368 112.766Z" fill="#EA9E80"/>
<path d="M61.6019 110.456L62.5377 112.139C62.7733 112.543 62.6386 113.062 62.2347 113.304C61.8173 113.553 61.2787 113.419 61.0364 112.994L60.1208 111.345C59.8919 110.961 60.0333 110.45 60.4439 110.201C60.8546 109.965 61.373 110.073 61.6019 110.456Z" fill="#EA9E80"/>
<path d="M60.5509 119.02L58.6255 119.067C58.1543 119.08 57.7638 118.724 57.7301 118.252C57.7032 117.768 58.0735 117.357 58.5582 117.337L60.4432 117.29C60.8875 117.263 61.278 117.633 61.3049 118.104C61.3386 118.589 60.9953 119 60.5509 119.02Z" fill="#EA9E80"/>
<path d="M60.3564 117.296L58.4309 117.344C57.9597 117.357 57.5692 117 57.5356 116.529C57.5086 116.044 57.8789 115.634 58.3636 115.613L60.2486 115.566C60.693 115.539 61.0834 115.91 61.1104 116.381C61.1373 116.866 60.8007 117.276 60.3564 117.296Z" fill="#EA9E80"/>
<path d="M60.4721 115.526L58.5467 115.573C58.0754 115.586 57.6782 115.23 57.6513 114.758C57.6244 114.274 57.9946 113.863 58.4793 113.843L60.3644 113.796C60.8087 113.769 61.1992 114.139 61.2261 114.61C61.253 115.095 60.9164 115.499 60.4721 115.526Z" fill="#EA9E80"/>
<path d="M61.069 114.099L59.1436 114.146C58.6723 114.166 58.2751 113.802 58.2482 113.331C58.2213 112.846 58.5916 112.436 59.0763 112.416L60.9613 112.368C61.4056 112.341 61.7961 112.712 61.823 113.183C61.8567 113.668 61.5201 114.078 61.069 114.099Z" fill="#EA9E80"/>
<path d="M78.6549 167.041C78.6549 167.041 76.5477 167.155 76.6016 166.152C76.6555 165.149 77.1536 163.762 77.6586 163.823C78.1567 163.876 79.1598 165.432 79.1598 165.432" fill="#08304D"/>
<path d="M46.5417 169.558C46.5417 169.558 46.5417 169.532 46.5485 169.484C46.3398 169.484 46.1311 169.491 45.9156 169.491C45.983 169.128 46.0436 168.771 46.0638 168.535C46.1109 167.842 44.5355 168.131 43.8354 168.38C43.5055 168.502 43.5325 169.013 43.6536 169.525C43.5055 169.525 43.3574 169.532 43.2228 169.532C42.6977 170.548 40.3481 175.24 41.4253 175.442C42.6303 175.665 48.7701 175.974 48.7634 174.601C48.7566 173.228 46.5417 169.558 46.5417 169.558Z" fill="#2F3334"/>
<path d="M111.125 82.5383C111.125 82.5383 113.165 80.5253 115.11 82.7402C116.531 84.356 114.619 86.6651 111.32 88.5434C110.324 89.1089 109.071 88.8733 108.338 87.9913C106.884 86.2342 104.945 83.2519 106.648 81.4005C109.051 78.7952 111.125 82.5383 111.125 82.5383Z" fill="#EE4252"/>
<path d="M11.5818 93.9965C11.5818 93.9965 13.0225 90.2197 16.8195 91.923C19.5864 93.1684 18.4823 97.2481 15.3518 101.584C14.4093 102.89 12.6522 103.321 11.2048 102.614C8.30994 101.207 4.07538 98.5138 5.17946 95.1409C6.72787 90.4082 11.5818 93.9965 11.5818 93.9965Z" fill="#EE4252"/>
<path d="M55.469 52.0952C55.469 52.0952 56.4586 50.2371 58.31 51.3614C59.6632 52.1827 58.8284 54.2226 56.9299 56.2624C56.3577 56.8751 55.4219 56.9895 54.7217 56.5317C53.3147 55.6229 51.3018 53.9533 52.0895 52.2837C53.1935 49.9274 55.469 52.0952 55.469 52.0952Z" fill="#EE4252"/>
<path d="M108.908 102.21C108.908 102.21 109.649 100.816 111.036 101.658C112.046 102.27 111.426 103.799 110.006 105.327C109.575 105.785 108.881 105.872 108.35 105.529C107.299 104.849 105.791 103.597 106.377 102.351C107.205 100.587 108.908 102.21 108.908 102.21Z" fill="#EE4252"/>
<path d="M351.99 127.014C337.499 116.052 328.523 130.725 326.999 133.507C325.475 130.725 316.499 116.05 302.008 127.012C297.174 130.673 289.33 146.711 306.781 161.413C310.972 164.944 319.685 171.097 324.231 175.722C325.154 176.607 326.038 177.622 326.845 178.765C326.9 178.843 326.946 178.922 326.999 179C327.052 178.922 327.1 178.843 327.154 178.765C327.962 177.62 328.848 176.603 329.773 175.716C334.321 171.091 343.027 164.942 347.217 161.413C364.668 146.711 356.824 130.673 351.99 127.014Z" fill="#FFFAFB"/>
<path d="M222.023 168.529C222.137 168.455 222.251 168.385 222.365 168.32C223.21 167.81 224.365 167.277 225.455 166.797C225.821 166.636 226.178 166.481 226.517 166.334C227.218 166.031 227.843 165.76 228.311 165.533L222.023 168.529ZM222.023 168.529C221.957 168.411 221.889 168.298 221.818 168.187C221.306 167.343 220.53 166.335 219.787 165.404C219.537 165.092 219.293 164.789 219.06 164.501C218.58 163.907 218.151 163.377 217.841 162.959C216.01 160.486 215.922 158.433 216.381 156.963C216.86 155.43 217.947 154.467 218.531 154.221L222.023 168.529ZM224.474 158.561L224.119 157.262C224.008 156.856 223.607 155.619 222.73 154.731C222.304 154.3 221.78 153.966 221.128 153.834C220.477 153.703 219.629 153.758 218.531 154.221L224.474 158.561ZM224.474 158.561L225.391 157.575M224.474 158.561L225.391 157.575M225.391 157.575C225.678 157.267 226.607 156.356 227.795 155.977M225.391 157.575L227.795 155.977M227.795 155.977C228.373 155.793 228.992 155.74 229.631 155.926M227.795 155.977L229.631 155.926M229.631 155.926C230.269 156.111 230.994 156.553 231.752 157.472M229.631 155.926L231.752 157.472M231.752 157.472C232.155 157.961 232.671 159.318 232.385 160.898C232.11 162.414 231.081 164.192 228.311 165.533L231.752 157.472Z" stroke="white" stroke-width="1.5"/>
<path d="M164.168 151.259C164.204 151.28 164.24 151.301 164.276 151.323C164.298 151.287 164.319 151.253 164.341 151.218C164.737 150.565 165.334 149.791 165.898 149.084C166.09 148.843 166.278 148.612 166.455 148.392C166.819 147.942 167.141 147.544 167.374 147.229C168.737 145.389 168.788 143.887 168.458 142.829C168.108 141.708 167.315 141.02 166.924 140.855C166.116 140.514 165.508 140.48 165.054 140.571C164.6 140.663 164.232 140.896 163.928 141.204C163.294 141.845 162.999 142.749 162.917 143.05L162.561 144.349L161.644 143.363C161.432 143.135 160.751 142.47 159.892 142.196C159.48 142.065 159.046 142.029 158.601 142.159C158.157 142.288 157.634 142.6 157.076 143.277C156.806 143.604 156.423 144.581 156.632 145.737C156.83 146.827 157.572 148.135 159.633 149.133C159.985 149.304 160.455 149.507 160.985 149.737C161.244 149.849 161.518 149.967 161.799 150.091C162.627 150.456 163.514 150.865 164.168 151.259Z" stroke="white" stroke-width="1.5"/>
<path d="M326.667 63.9139C326.627 63.9242 326.587 63.935 326.547 63.9464C326.535 63.9067 326.523 63.8674 326.511 63.8284C326.301 63.0942 325.93 62.19 325.572 61.3593C325.45 61.0767 325.33 60.8037 325.217 60.5451C324.984 60.0154 324.779 59.5465 324.637 59.1811C323.807 57.0467 324.154 55.5839 324.752 54.6507C325.385 53.6623 326.331 53.2071 326.751 53.1508C327.621 53.0352 328.217 53.1622 328.63 53.3703C329.044 53.5786 329.337 53.8998 329.55 54.2773C329.992 55.0628 330.038 56.0129 330.038 56.3247L330.039 57.6715L331.184 56.962C331.449 56.7978 332.28 56.3364 333.181 56.2984C333.614 56.2801 334.041 56.3604 334.437 56.6024C334.831 56.844 335.253 57.2831 335.613 58.0832C335.787 58.4698 335.899 59.5137 335.392 60.5729C334.914 61.5727 333.854 62.6383 331.603 63.0581C331.218 63.1299 330.711 63.2022 330.139 63.2839C329.859 63.3238 329.564 63.3659 329.26 63.4113C328.366 63.5447 327.402 63.7054 326.667 63.9139Z" stroke="white" stroke-width="1.5"/>
<path d="M341.688 109.367C341.729 109.362 341.77 109.359 341.812 109.355C341.809 109.314 341.806 109.273 341.804 109.232C341.745 108.471 341.779 107.494 341.825 106.591C341.841 106.283 341.858 105.986 341.874 105.704C341.907 105.126 341.937 104.615 341.943 104.223C341.977 101.933 341.143 100.683 340.257 100.016C339.32 99.3103 338.274 99.213 337.86 99.3067C337.005 99.5013 336.491 99.8277 336.176 100.167C335.86 100.506 335.697 100.909 335.629 101.337C335.488 102.228 335.776 103.134 335.884 103.427L336.353 104.689L335.033 104.423C334.727 104.361 333.787 104.218 332.93 104.496C332.517 104.63 332.145 104.854 331.858 105.219C331.573 105.583 331.33 106.141 331.271 107.016C331.243 107.439 331.501 108.457 332.345 109.274C333.141 110.044 334.506 110.674 336.763 110.283C337.149 110.217 337.649 110.108 338.214 109.985C338.49 109.925 338.781 109.862 339.082 109.799C339.967 109.612 340.926 109.427 341.688 109.367Z" stroke="white" stroke-width="1.5"/>
</g>
</svg>
