<svg width="31" height="32" viewBox="0 0 31 32" fill="none" xmlns="http://www.w3.org/2000/svg">
<path d="M8.7404 10.2099C8.61944 10.4661 8.4131 10.5333 8.13877 10.5325C6.08802 10.5254 4.03726 10.5325 1.98651 10.5254C1.74933 10.5254 1.69874 10.5894 1.69874 10.8179C1.70559 15.7274 1.70743 20.6371 1.70427 25.5471C1.70427 26.1005 1.91535 26.3132 2.47429 26.3132H9.95631H10.2053C10.2185 26.2949 10.2256 26.2729 10.2256 26.2503C10.2256 26.2278 10.2185 26.2058 10.2053 26.1875C9.4788 24.7889 9.55628 23.4347 10.554 22.2148C11.5311 21.0187 12.8372 20.7198 14.3132 21.074C14.4175 21.0993 14.5211 21.1317 14.6231 21.1673C14.8247 21.2369 15.0539 21.4045 15.2176 21.357C15.3812 21.3096 15.4864 21.0408 15.6247 20.8724C16.3655 19.9893 17.262 19.3751 18.4424 19.2589C19.2651 19.1792 20.0877 19.412 20.7467 19.9108C21.4058 20.4096 21.8532 21.1381 21.9999 21.9516C22.2 23.0331 21.9778 24.0466 21.49 25.0111C21.275 25.438 21.0291 25.8499 20.7722 26.3132H24.1029C24.4737 26.3132 24.6729 26.4713 24.6705 26.7622C24.6681 27.0532 24.4721 27.201 24.095 27.2018C22.8925 27.2018 21.6893 27.2065 20.4868 27.197C20.4111 27.1886 20.3347 27.2043 20.2685 27.2419C20.2024 27.2796 20.1498 27.3372 20.1184 27.4065C19.4907 28.5091 18.8582 29.6086 18.221 30.7048C17.9664 31.1444 17.7134 31.2124 17.2723 30.9578C15.5072 29.9438 13.7437 28.9268 11.9818 27.907C11.7879 27.8099 11.607 27.6888 11.4434 27.5465C11.1477 27.2524 10.8109 27.1955 10.4061 27.1978C7.76404 27.2121 5.12193 27.2057 2.47983 27.2049C1.41887 27.2041 0.8125 26.5994 0.8125 25.5392C0.8125 18.9437 0.8125 12.3479 0.8125 5.75186C0.8125 4.71146 1.42203 4.10272 2.4648 4.09955C3.30282 4.09955 4.14083 4.08849 4.97884 4.10588C5.22075 4.11062 5.27056 4.03235 5.26028 3.81099C5.24368 3.43784 5.25554 3.06232 5.25554 2.68758C5.25633 1.58552 5.50615 1.21316 6.49833 0.817871H9.33729C9.34598 0.833683 9.35152 0.861353 9.36417 0.864515C10.1547 1.08588 10.5651 1.61082 10.5706 2.42353C10.5706 2.90578 10.5785 3.38883 10.5666 3.87108C10.5666 4.04738 10.603 4.10825 10.7912 4.10351C14.1985 4.09718 17.6054 4.09718 21.0117 4.10351C21.192 4.10351 21.2489 4.06002 21.2418 3.87582C21.2291 3.36432 21.2291 2.84807 21.2418 2.33973C21.2536 1.60845 21.6948 1.06058 22.411 0.868468C22.4332 0.862934 22.4506 0.835264 22.4703 0.817871H25.3101C26.3031 1.21316 26.5513 1.58552 26.5513 2.68837C26.5513 3.05362 26.5679 3.41887 26.5458 3.78253C26.53 4.03394 26.59 4.11378 26.862 4.10667C27.6992 4.08611 28.5372 4.0956 29.3752 4.10034C30.3793 4.10509 30.9967 4.72253 30.9975 5.7234C30.9975 12.3484 30.9975 18.9732 30.9975 25.5977C30.9975 26.578 30.3698 27.2018 29.3903 27.2042C28.4107 27.2065 27.4193 27.2042 26.4335 27.2042C26.1015 27.2042 25.8746 27.0539 25.8698 26.8381C25.8627 26.4855 26.0382 26.3179 26.4232 26.3171C27.4091 26.3171 28.3941 26.3171 29.38 26.3171C29.8749 26.3171 30.1057 26.0886 30.1057 25.5953C30.1057 20.6558 30.1084 15.7168 30.1136 10.7783C30.1136 10.5182 29.9982 10.5269 29.8148 10.5277C23.3974 10.5277 16.9803 10.5296 10.5635 10.5333C10.2844 10.5333 10.0567 10.4882 9.93101 10.2131C9.91836 10.0281 9.94524 9.8589 10.1049 9.73874C10.2496 9.62805 10.4212 9.6407 10.5864 9.6407C16.9943 9.6407 23.4019 9.64281 29.8093 9.64703C30.0575 9.64703 30.116 9.58457 30.1136 9.34029C30.0994 8.13782 30.1081 6.93456 30.1065 5.73209C30.1065 5.23245 29.8875 4.99765 29.395 4.9937C28.5183 4.98579 27.6407 4.9937 26.7632 4.98737C26.5956 4.98737 26.5434 5.03481 26.5481 5.20241C26.5592 5.61667 26.5545 6.03093 26.5481 6.44519C26.5418 7.31483 25.9686 7.9631 25.1006 8.00105C24.2942 8.03583 23.4831 8.03662 22.6767 8.00105C21.826 7.96231 21.2473 7.31957 21.2331 6.46812C21.2268 6.08311 21.2173 5.6981 21.2331 5.31467C21.2465 5.06643 21.1928 4.9763 20.9169 4.98421C20.1389 5.00555 19.3594 4.99132 18.5807 4.99132C16.0074 4.99132 13.4348 4.99528 10.8615 4.98579C10.6101 4.98579 10.5453 5.05457 10.5579 5.29728C10.5785 5.70047 10.573 6.10525 10.5579 6.50923C10.5334 7.31957 9.96896 7.95361 9.16178 7.99393C8.31534 8.03663 7.4673 8.03663 6.62086 7.99393C5.81922 7.95282 5.25554 7.29981 5.24447 6.49184C5.23894 6.06809 5.23577 5.64434 5.24447 5.22059C5.24922 5.0435 5.20573 4.98342 5.01758 4.98342C4.14794 4.99449 3.27831 4.98342 2.415 4.99449C1.9035 4.99923 1.69004 5.22692 1.68925 5.74712C1.68925 6.94958 1.69557 8.15284 1.68292 9.35531C1.68292 9.59248 1.74775 9.64387 1.97544 9.64307C4.0254 9.63517 6.07616 9.64307 8.12691 9.64307C8.58703 9.63833 8.73328 9.78064 8.7404 10.2099ZM21.1785 22.588C21.158 21.7761 20.818 20.9459 19.9207 20.4463C19.0234 19.9467 18.1158 20.07 17.2589 20.5926C16.6746 20.9483 16.2461 21.4622 15.8817 22.0322C15.6208 22.4433 15.3947 22.5065 14.9662 22.282C14.5294 22.054 14.0556 21.9052 13.5669 21.8425C11.8276 21.6211 10.3405 23.2078 10.6828 24.9178C10.8916 25.9566 11.5651 26.6302 12.4379 27.1385C14.0713 28.0872 15.7109 29.0264 17.3395 29.9775C17.5111 30.0771 17.5767 30.0447 17.67 29.8826C18.6076 28.2509 19.5492 26.627 20.4892 24.9984C20.8868 24.3075 21.1675 23.5786 21.1785 22.588ZM25.6651 4.42764C25.6651 3.75723 25.6651 3.08366 25.6651 2.41642C25.6651 1.9484 25.4208 1.70885 24.9535 1.7049C24.2531 1.7049 23.5532 1.7049 22.8538 1.7049C22.385 1.7049 22.1359 1.94207 22.1343 2.41009C22.1285 3.74142 22.1285 5.07249 22.1343 6.40329C22.1343 6.86104 22.3668 7.10058 22.8253 7.11007C23.5347 7.12324 24.2444 7.12535 24.9543 7.11639C25.4429 7.11007 25.6658 6.86657 25.6658 6.37404C25.6666 5.72893 25.6651 5.07829 25.6651 4.42764ZM6.14652 4.39681C6.14652 5.06722 6.14652 5.74079 6.14652 6.40804C6.14652 6.85313 6.36788 7.10295 6.80428 7.11323C7.53319 7.1301 8.26263 7.13221 8.99259 7.11956C9.44718 7.11244 9.67961 6.86499 9.68119 6.40804C9.68698 5.07671 9.68698 3.74564 9.68119 2.41484C9.68119 1.94998 9.42899 1.70727 8.96413 1.70332C8.27475 1.70332 7.58458 1.70332 6.8944 1.70332C6.37104 1.70332 6.14731 1.93417 6.14573 2.4678C6.14494 3.11529 6.14652 3.75644 6.14652 4.39681Z" fill="#030303"/>
<path d="M8.74178 10.2101C8.73466 9.78078 8.58841 9.63848 8.14331 9.63768C6.09256 9.63768 4.0418 9.63215 1.99184 9.63768C1.76415 9.63768 1.69616 9.5863 1.69932 9.34992C1.71197 8.14745 1.70407 6.94419 1.70565 5.74172C1.70565 5.22152 1.91989 4.99384 2.4314 4.9891C3.30103 4.9804 4.16671 4.9891 5.03397 4.97803C5.22213 4.97803 5.26561 5.03732 5.26087 5.2152C5.24901 5.63895 5.25217 6.0627 5.26087 6.48645C5.27194 7.29204 5.83562 7.94506 6.63726 7.98854C7.4837 8.03124 8.33174 8.03124 9.17818 7.98854C9.98535 7.94822 10.5498 7.31418 10.5743 6.50384C10.5862 6.09986 10.5917 5.69508 10.5743 5.29189C10.5617 5.04918 10.6265 4.97566 10.8779 4.9804C13.4512 4.98989 16.0238 4.98593 18.5971 4.98593C19.3758 4.98593 20.1553 5.00016 20.9333 4.97882C21.2084 4.97091 21.2621 5.05788 21.2495 5.30928C21.2297 5.69271 21.2392 6.07772 21.2495 6.46273C21.2637 7.31418 21.8424 7.95692 22.6931 7.99566C23.4995 8.03202 24.3106 8.03123 25.117 7.99566C25.9866 7.95771 26.5582 7.3126 26.5645 6.4398C26.5645 6.02554 26.5724 5.61128 26.5645 5.19702C26.5598 5.02941 26.612 4.9804 26.7796 4.98198C27.6571 4.98989 28.5346 4.98198 29.4114 4.9883C29.9031 4.9883 30.1229 5.22548 30.1229 5.7267C30.1229 6.92917 30.1158 8.13243 30.13 9.33489C30.13 9.57918 30.0739 9.64164 29.8257 9.64164C23.4183 9.63373 17.0107 9.63162 10.6028 9.63531C10.4352 9.63531 10.266 9.62266 10.1213 9.73334C9.96322 9.85588 9.93476 10.0251 9.94741 10.2077L8.74178 10.2101Z" fill="#90C63E"/>
<path d="M13.6346 15.6366C13.6346 15.0357 13.6346 14.4357 13.6346 13.8356C13.6346 13.4475 13.7872 13.302 14.1706 13.2988C14.505 13.2988 14.8394 13.2988 15.1738 13.2988C16.1605 13.3107 16.785 14.2633 16.3826 15.1606C16.3075 15.3282 16.3376 15.4089 16.453 15.5338C16.8562 15.9678 16.9661 16.4825 16.7597 17.0359C16.5534 17.5893 16.1273 17.9395 15.524 17.9846C15.0544 18.0209 14.5809 18.0146 14.1089 18.0067C13.7864 18.0012 13.6346 17.8328 13.6346 17.4928C13.6306 16.8762 13.6346 16.2564 13.6346 15.6366ZM14.5263 16.5236C14.5263 16.6706 14.5263 16.8185 14.5263 16.9663C14.5263 17.0541 14.5422 17.1244 14.652 17.1197C14.9461 17.1126 15.2434 17.1497 15.5343 17.0881C15.6637 17.0548 15.7774 16.9776 15.8559 16.8696C15.9345 16.7616 15.973 16.6297 15.9649 16.4964C15.9568 16.3631 15.9025 16.2368 15.8113 16.1392C15.7202 16.0416 15.598 15.9788 15.4655 15.9615C15.348 15.9523 15.23 15.9494 15.1122 15.9528C14.5263 15.952 14.5263 15.9528 14.5263 16.5236ZM14.5263 14.6017V14.9266C14.5263 15.0057 14.5485 15.0626 14.641 15.0594C14.8564 15.066 15.072 15.057 15.2861 15.0326C15.5233 14.9915 15.6324 14.8167 15.6118 14.578C15.6091 14.478 15.5686 14.3828 15.4985 14.3115C15.4284 14.2402 15.3338 14.1981 15.2339 14.1938C15.0394 14.174 14.8386 14.1898 14.6441 14.1859C14.5564 14.1859 14.5208 14.2191 14.5248 14.3068C14.5287 14.3946 14.5263 14.5037 14.5271 14.6017H14.5263Z" fill="#030303"/>
<path d="M23.8289 14.9175C23.8289 15.1246 23.8289 15.3317 23.8289 15.5381C23.8242 15.7673 23.7704 15.9958 24.1159 16.0614C24.2819 16.0923 24.3436 16.2923 24.3246 16.4765C24.3056 16.6607 24.2076 16.8188 24.0305 16.8378C23.8099 16.8623 23.8178 16.9848 23.821 17.139C23.8291 17.2866 23.8257 17.4346 23.8107 17.5817C23.8075 17.6387 23.793 17.6944 23.768 17.7456C23.743 17.7969 23.708 17.8426 23.665 17.8802C23.6221 17.9178 23.5721 17.9464 23.518 17.9643C23.4639 17.9823 23.4067 17.9893 23.3498 17.9849C23.1047 17.9754 22.9498 17.8126 22.9316 17.543C22.9316 17.5335 22.9316 17.5232 22.9316 17.5137C22.915 17.3105 23.0257 17.0449 22.8913 16.9176C22.7569 16.7903 22.4786 16.8789 22.2644 16.8726C21.9892 16.8639 21.711 16.8726 21.4374 16.8686C21.0034 16.8552 20.805 16.5334 21.0224 16.1658C21.4967 15.361 21.9861 14.5657 22.4699 13.7672C22.5019 13.7176 22.5371 13.6701 22.5751 13.6249C22.802 13.3505 23.0763 13.2541 23.353 13.349C23.6297 13.4438 23.8068 13.696 23.8273 14.0312C23.8273 14.051 23.8273 14.0708 23.8273 14.0905V14.9175H23.8289ZM22.1576 15.9768H22.7775C22.8565 15.9768 22.9356 15.9863 22.9356 15.8646C22.9356 15.5001 22.9356 15.1349 22.9356 14.7696L22.8858 14.7641C22.6533 15.1546 22.4185 15.5452 22.1576 15.9768Z" fill="#030303"/>
<path d="M10.5241 15.6511C10.5241 15.0502 10.5241 14.4494 10.5241 13.8485C10.5241 13.4746 10.6894 13.3133 11.0681 13.3094C11.5313 13.3054 11.9946 13.3094 12.4571 13.3094C12.8057 13.3094 13.0034 13.4738 13.0105 13.7497C13.0176 14.0256 12.82 14.194 12.4737 14.1988C12.1978 14.2027 11.9203 14.2098 11.6468 14.1988C11.4728 14.1901 11.3906 14.2296 11.4096 14.4225C11.4365 14.6747 11.306 14.9996 11.4602 15.1625C11.6017 15.3127 11.9258 15.1933 12.1717 15.2068C12.28 15.2123 12.3899 15.1996 12.4966 15.2147C12.554 15.219 12.61 15.2348 12.6612 15.2612C12.7124 15.2876 12.7578 15.324 12.7946 15.3682C12.8315 15.4124 12.8591 15.4636 12.8758 15.5187C12.8925 15.5738 12.898 15.6317 12.8919 15.689C12.8666 15.9373 12.7219 16.0843 12.469 16.0946C12.1836 16.1056 11.8974 16.1072 11.612 16.0946C11.4539 16.0882 11.4183 16.146 11.4135 16.2962C11.3882 17.1026 11.3835 17.1026 12.1828 17.1034C12.32 17.0958 12.4575 17.096 12.5947 17.1041C12.7094 17.1101 12.8173 17.1607 12.8952 17.2453C12.9731 17.3298 13.0148 17.4415 13.0113 17.5564C13.012 17.6132 13.0011 17.6696 12.9795 17.7222C12.9578 17.7747 12.9257 17.8224 12.8852 17.8622C12.8447 17.9021 12.7965 17.9334 12.7436 17.9542C12.6907 17.975 12.6341 17.9849 12.5773 17.9833C12.0455 17.9943 11.5134 17.9943 10.9811 17.9833C10.6815 17.9777 10.5305 17.8038 10.5281 17.482C10.521 16.8733 10.5241 16.2622 10.5241 15.6511Z" fill="#030303"/>
<path d="M7.47016 15.6299C7.47016 15.0393 7.47016 14.444 7.47016 13.8574C7.47016 13.4621 7.62827 13.308 8.03067 13.304C8.47419 13.304 8.91691 13.3001 9.36042 13.304C9.69642 13.304 9.90039 13.4866 9.89485 13.7617C9.88932 14.0369 9.69879 14.1887 9.3707 14.1934C9.09479 14.1934 8.8173 14.2013 8.54376 14.1934C8.39908 14.1887 8.36509 14.2432 8.35718 14.3808C8.3137 15.1713 8.30975 15.1713 9.08926 15.1713C9.56993 15.1713 9.77627 15.3089 9.76994 15.6243C9.76362 15.9256 9.55253 16.0615 9.09953 16.0655C8.86236 16.0655 8.55404 15.9864 8.41568 16.1082C8.25204 16.2489 8.37458 16.5691 8.36351 16.811C8.35244 17.0529 8.36904 17.2853 8.35718 17.5225C8.34137 17.8285 8.16823 17.9969 7.89865 17.9882C7.64329 17.9811 7.47727 17.8158 7.47332 17.5209C7.46304 16.8885 7.47332 16.2608 7.47332 15.6299H7.47016Z" fill="#030303"/>
<path d="M20.2692 15.6503C20.2692 16.2606 20.2763 16.8717 20.2692 17.482C20.262 17.8955 19.9102 18.1145 19.5916 17.9248C19.4051 17.8117 19.3798 17.6346 19.3805 17.4394C19.3805 16.4543 19.3726 15.47 19.3869 14.4858C19.3869 14.2486 19.3205 14.1853 19.0904 14.194C18.7267 14.2083 18.5149 14.0272 18.5196 13.7505C18.5244 13.4738 18.737 13.3118 19.1031 13.3086C19.3102 13.3086 19.5165 13.3086 19.7237 13.3086C20.1008 13.3149 20.2668 13.4722 20.2707 13.8478C20.2731 14.4494 20.2692 15.0487 20.2692 15.6503Z" fill="#030303"/>
<path d="M21.1786 22.5881C21.1675 23.5786 20.8869 24.3076 20.4892 24.9985C19.5516 26.6271 18.6077 28.2525 17.6732 29.8827C17.5807 30.0448 17.5151 30.0772 17.3427 29.9776C15.711 29.0289 14.0713 28.0889 12.4412 27.1386C11.5715 26.6303 10.8948 25.9567 10.6861 24.9179C10.3438 23.2079 11.8332 21.6212 13.5701 21.8425C14.0569 21.9059 14.5288 22.0547 14.9639 22.2821C15.3924 22.5035 15.6185 22.4402 15.8794 22.0323C16.2438 21.4599 16.6699 20.9484 17.2566 20.5926C18.1135 20.0701 19.0132 19.9428 19.9184 20.4464C20.8236 20.95 21.158 21.7761 21.1786 22.5881Z" fill="#90C63E"/>
<path d="M25.6601 4.42799C25.6601 5.07863 25.6601 5.72927 25.6601 6.37992C25.6601 6.87245 25.434 7.11595 24.9485 7.12227C24.2386 7.13123 23.5289 7.12912 22.8195 7.11595C22.361 7.10646 22.1309 6.86691 22.1286 6.40917C22.1238 5.07784 22.1238 3.74677 22.1286 2.41597C22.1286 1.95111 22.3792 1.71315 22.848 1.71077C23.5479 1.70709 24.2478 1.70709 24.9478 1.71077C25.4174 1.71077 25.6593 1.9519 25.6593 2.42229C25.6624 3.08717 25.6601 3.75758 25.6601 4.42799Z" fill="#90C63E"/>
<path d="M6.14573 4.39729C6.14573 3.75692 6.14573 3.11576 6.14573 2.4746C6.14573 1.94096 6.37104 1.71249 6.8944 1.71012C7.58458 1.71012 8.27475 1.70537 8.96413 1.71012C9.42899 1.71012 9.67565 1.9544 9.68119 2.42163C9.68698 3.75297 9.68698 5.08403 9.68119 6.41484C9.68119 6.87021 9.44401 7.11766 8.99259 7.12636C8.26263 7.13848 7.53319 7.13637 6.80428 7.12003C6.36788 7.10975 6.14889 6.85993 6.14652 6.41484C6.14257 5.7381 6.14573 5.06769 6.14573 4.39729Z" fill="#90C63E"/>
</svg>
