<svg width="251" height="144" viewBox="0 0 251 144" fill="none" xmlns="http://www.w3.org/2000/svg">
<path opacity="0.25" d="M237.413 62.5594C233.637 44.6059 219.174 28.4762 200.928 27.175C189.105 26.3289 177.705 31.0824 166.467 34.8619C155.229 38.6414 142.708 41.4694 131.744 36.9416C119.343 31.8195 112.294 18.7699 101.716 10.5039C87.2453 -0.800739 66.0852 -2.04177 49.7699 6.36714C33.4545 14.776 22.3401 31.9775 20.004 50.2243C17.6679 68.4712 23.7238 87.3649 35.1532 101.753C35.2657 101.896 35.3819 102.039 35.4981 102.186C50.9998 121.538 73.9335 133.43 98.6334 135.084L145.555 138.232C182.512 137.589 198.58 127.743 214.029 117.917C229.471 108.09 242.453 86.5225 237.413 62.5594Z" fill="#E0E0E0"/>
<path d="M204.702 127.079C203.974 128.121 202.561 127.775 201.908 127.139C201.252 126.504 200.974 125.582 200.723 124.702C200.146 122.694 199.568 120.588 199.996 118.546C200.123 117.933 200.352 117.324 200.779 116.872C201.207 116.417 201.867 116.15 202.467 116.308C203.179 116.496 203.622 117.196 203.94 117.862C204.882 119.817 205.38 121.987 205.388 124.161C205.392 125.176 205.272 126.24 204.702 127.079Z" fill="#90C63E"/>
<g opacity="0.2">
<g opacity="0.2">
<path opacity="0.2" d="M204.702 127.079C203.974 128.121 202.561 127.775 201.908 127.139C201.252 126.504 200.974 125.582 200.723 124.702C200.146 122.694 199.568 120.588 199.996 118.546C200.123 117.933 200.352 117.324 200.779 116.872C201.207 116.417 201.867 116.15 202.467 116.308C203.179 116.496 203.622 117.196 203.94 117.862C204.882 119.817 205.38 121.987 205.388 124.161C205.392 125.176 205.272 126.24 204.702 127.079Z" fill="black"/>
</g>
</g>
<path d="M201.981 132.352C200.792 131.735 199.393 131.656 198.073 131.874C197.365 131.991 196.626 132.205 196.142 132.739C195.658 133.273 195.568 134.213 196.123 134.672C196.453 134.946 196.915 134.988 197.342 134.98C198.377 134.969 199.521 134.785 200.346 135.409C200.818 135.766 201.129 136.357 201.692 136.53C202.243 136.703 202.866 136.375 203.158 135.875C203.451 135.375 203.458 134.755 203.323 134.191C203.319 134.194 203.177 132.968 201.981 132.352Z" fill="#90C63E"/>
<path d="M206.693 128.571C205.901 127.631 205.755 126.262 206.104 125.085C206.456 123.908 207.248 122.907 208.163 122.091C209.235 121.132 210.495 120.388 211.849 119.91C212.381 119.722 212.944 119.575 213.506 119.628C214.069 119.681 214.635 119.97 214.897 120.474C215.287 121.215 214.912 122.118 214.511 122.851C213.802 124.145 212.992 125.382 212.089 126.548C211.361 127.488 210.532 128.413 209.426 128.834C208.32 129.255 207.173 129.21 206.584 128.439" fill="#90C63E"/>
<path d="M204.75 142.784C204.735 142.784 204.713 142.615 204.683 142.31C204.649 141.964 204.608 141.532 204.559 141.02C204.499 140.475 204.42 139.832 204.27 139.125C204.12 138.422 203.884 137.662 203.584 136.891C203.273 136.124 202.89 135.428 202.444 134.868C202.002 134.307 201.488 133.901 201.004 133.668C200.524 133.431 200.089 133.333 199.793 133.288C199.493 133.258 199.324 133.232 199.324 133.22C199.324 133.205 199.493 133.205 199.804 133.213C200.112 133.232 200.562 133.311 201.068 133.544C201.578 133.77 202.122 134.183 202.587 134.755C203.055 135.323 203.449 136.037 203.768 136.819C204.075 137.605 204.308 138.373 204.45 139.091C204.593 139.809 204.66 140.46 204.701 141.009C204.743 141.558 204.758 142.002 204.765 142.306C204.769 142.615 204.765 142.784 204.75 142.784Z" fill="#263238"/>
<path d="M204.659 141.79C204.652 141.79 204.648 141.715 204.648 141.572C204.648 141.407 204.648 141.2 204.648 140.944C204.648 140.399 204.648 139.613 204.622 138.639C204.573 136.691 204.408 134.002 204.086 131.05C203.759 128.094 203.328 125.435 202.934 123.528C202.841 123.051 202.747 122.618 202.661 122.242C202.578 121.866 202.503 121.539 202.436 121.276C202.376 121.027 202.327 120.824 202.289 120.666C202.259 120.527 202.244 120.452 202.252 120.448C202.259 120.448 202.286 120.516 202.327 120.655C202.376 120.813 202.436 121.012 202.507 121.257C202.586 121.516 202.672 121.84 202.766 122.216C202.863 122.592 202.968 123.021 203.069 123.498C203.497 125.405 203.951 128.064 204.277 131.027C204.599 133.987 204.746 136.683 204.761 138.635C204.772 139.613 204.753 140.402 204.727 140.948C204.712 141.203 204.701 141.41 204.689 141.576C204.678 141.715 204.667 141.79 204.659 141.79Z" fill="#263238"/>
<path d="M204.654 136.591C204.639 136.591 204.643 136.358 204.658 135.936C204.68 135.515 204.74 134.906 204.857 134.161C204.98 133.417 205.157 132.533 205.434 131.574C205.697 130.611 206.057 129.57 206.514 128.509C207.41 126.381 208.625 124.639 209.683 123.56C209.93 123.274 210.208 123.067 210.429 122.864C210.541 122.767 210.646 122.673 210.747 122.594C210.852 122.522 210.946 122.454 211.036 122.394C211.385 122.154 211.58 122.029 211.587 122.041C211.617 122.082 210.807 122.563 209.784 123.654C208.764 124.745 207.583 126.475 206.694 128.588C206.24 129.637 205.877 130.668 205.61 131.623C205.329 132.574 205.138 133.451 204.999 134.188C204.864 134.925 204.785 135.53 204.74 135.948C204.695 136.361 204.669 136.595 204.654 136.591Z" fill="#263238"/>
<path d="M178.055 69.9717V136.171C178.055 139.793 175.126 142.73 171.515 142.73H75.6217C72.0106 142.73 69.082 139.793 69.082 136.171V69.9717C69.082 66.3502 72.0106 63.4131 75.6217 63.4131H171.511C175.126 63.4131 178.055 66.3502 178.055 69.9717Z" fill="#90C63E"/>
<path d="M178.054 69.9724C178.054 69.9724 178.047 69.8934 178.039 69.7354C178.024 69.5775 178.032 69.3406 177.972 69.0322C177.886 68.4192 177.664 67.4941 177.012 66.4636C176.682 65.9559 176.251 65.4219 175.673 64.9443C175.096 64.4705 174.38 64.0455 173.54 63.771C173.33 63.6995 173.108 63.6544 172.887 63.5942C172.662 63.5491 172.43 63.5228 172.193 63.4814C171.957 63.4701 171.714 63.4588 171.47 63.4476C171.222 63.4476 170.971 63.4476 170.716 63.4476C169.692 63.4476 168.605 63.4513 167.45 63.4513C158.214 63.4588 144.858 63.4701 128.351 63.4814C120.098 63.4852 111.057 63.4889 101.352 63.4927C96.5002 63.4927 91.4792 63.4964 86.312 63.4964C83.7284 63.4964 81.1035 63.4965 78.4449 63.5002C77.7812 63.5002 77.1138 63.5002 76.4463 63.5002C75.7751 63.5077 75.1076 63.4776 74.4552 63.613C73.8027 63.7409 73.1652 63.9553 72.5765 64.2711C71.9916 64.5946 71.4516 65.0082 70.9829 65.4896C70.5066 65.9672 70.1317 66.5426 69.8317 67.1481C69.5354 67.7573 69.3254 68.4154 69.2467 69.0924C69.1567 69.7655 69.1867 70.4612 69.183 71.1607C69.183 71.8565 69.183 72.556 69.183 73.2554C69.183 76.0572 69.183 78.8927 69.183 81.7546C69.183 87.4821 69.183 93.3338 69.1867 99.287C69.1867 111.197 69.1867 123.528 69.1905 136.157C69.1942 137.714 69.7679 139.256 70.7916 140.418C71.8003 141.587 73.2402 142.369 74.7626 142.561C75.5164 142.659 76.3001 142.618 77.0763 142.629C77.8525 142.629 78.6249 142.629 79.3974 142.629C80.9423 142.629 82.4797 142.629 84.0134 142.629C90.148 142.629 96.1927 142.629 102.132 142.629C114.012 142.629 125.467 142.633 136.383 142.636C147.299 142.64 157.667 142.644 167.375 142.644C168.59 142.644 169.79 142.644 170.982 142.644C171.582 142.648 172.163 142.636 172.741 142.527C173.311 142.407 173.873 142.242 174.387 141.971C174.653 141.858 174.89 141.685 175.137 141.542C175.362 141.365 175.61 141.211 175.812 141.008C176.251 140.636 176.611 140.184 176.929 139.718C177.544 138.763 177.923 137.661 177.972 136.544C178.013 132.035 177.987 127.691 177.998 123.555C178.013 107 178.021 93.6046 178.028 84.3457C178.036 79.7163 178.043 76.1249 178.047 73.6842C178.051 72.4657 178.054 71.5368 178.058 70.9125C178.047 70.292 178.054 69.9724 178.054 69.9724C178.054 69.9724 178.062 70.292 178.066 70.9163C178.069 71.5443 178.069 72.4695 178.077 73.6879C178.081 76.1286 178.088 79.7201 178.096 84.3495C178.103 93.6083 178.114 107.008 178.126 123.558C178.118 127.699 178.148 132.031 178.111 136.555C178.062 137.699 177.676 138.827 177.046 139.805C176.716 140.282 176.352 140.745 175.902 141.128C175.692 141.335 175.441 141.493 175.208 141.677C174.953 141.824 174.713 142.001 174.44 142.117C173.915 142.396 173.337 142.565 172.752 142.689C172.163 142.802 171.556 142.813 170.964 142.809C169.771 142.809 168.567 142.809 167.356 142.809C157.652 142.813 147.28 142.817 136.364 142.817C125.449 142.817 113.993 142.821 102.114 142.821C96.174 142.821 90.1293 142.821 83.9946 142.821C82.461 142.821 80.9236 142.821 79.3786 142.821C78.6062 142.821 77.8337 142.821 77.0575 142.821C76.2851 142.813 75.5051 142.855 74.7176 142.753C73.1502 142.554 71.6653 141.749 70.6266 140.546C69.5767 139.35 68.9805 137.763 68.9805 136.157C68.9805 123.528 68.9805 111.197 68.9805 99.287C68.9805 93.3338 68.9805 87.4821 68.9842 81.7546C68.9842 78.889 68.9842 76.0572 68.9842 73.2554C68.9842 72.556 68.9842 71.8565 68.9842 71.1607C68.988 70.465 68.958 69.7693 69.0517 69.0698C69.1342 68.3741 69.3517 67.6971 69.6554 67.0691C69.9629 66.4448 70.3491 65.8582 70.8404 65.3655C71.3241 64.8691 71.8753 64.4479 72.479 64.1132C73.0865 63.7898 73.7427 63.5679 74.4102 63.4363L74.9164 63.3573L75.4264 63.331C75.7676 63.3122 76.0976 63.3272 76.4351 63.3235C77.1025 63.3235 77.77 63.3235 78.4337 63.3235C81.0923 63.3235 83.7134 63.3235 86.3008 63.3272C91.4717 63.3272 96.4889 63.331 101.341 63.331C111.046 63.3347 120.086 63.3385 128.34 63.3423C144.846 63.3535 158.203 63.3648 167.439 63.3723C168.594 63.3723 169.681 63.3761 170.705 63.3761C170.96 63.3761 171.211 63.3761 171.459 63.3761C171.706 63.3874 171.95 63.4024 172.19 63.4137C172.426 63.4513 172.662 63.4814 172.887 63.5265C173.108 63.5905 173.333 63.6318 173.543 63.707C174.391 63.9891 175.111 64.4178 175.692 64.8992C176.27 65.3843 176.701 65.9259 177.031 66.4373C177.679 67.479 177.897 68.4117 177.976 69.0247C178.032 69.333 178.021 69.57 178.032 69.7279C178.054 69.8934 178.054 69.9724 178.054 69.9724Z" fill="#263238"/>
<path d="M175.363 68.4016C175.985 68.4016 176.488 68.3578 176.488 68.3038C176.488 68.2498 175.985 68.2061 175.363 68.2061C174.742 68.2061 174.238 68.2498 174.238 68.3038C174.238 68.3578 174.742 68.4016 175.363 68.4016Z" fill="#263238"/>
<path d="M167.35 68.4016C168.617 68.4016 169.644 68.3578 169.644 68.3038C169.644 68.2498 168.617 68.2061 167.35 68.2061C166.082 68.2061 165.055 68.2498 165.055 68.3038C165.055 68.3578 166.082 68.4016 167.35 68.4016Z" fill="#263238"/>
<path d="M158.174 68.4006C159.441 68.4006 160.469 68.3569 160.469 68.3029C160.469 68.2489 159.441 68.2051 158.174 68.2051C156.906 68.2051 155.879 68.2489 155.879 68.3029C155.879 68.3569 156.906 68.4006 158.174 68.4006Z" fill="#263238"/>
<path d="M148.998 68.4016C150.265 68.4016 151.293 68.3578 151.293 68.3038C151.293 68.2498 150.265 68.2061 148.998 68.2061C147.731 68.2061 146.703 68.2498 146.703 68.3038C146.703 68.3578 147.731 68.4016 148.998 68.4016Z" fill="#263238"/>
<path d="M139.818 68.4006C141.086 68.4006 142.113 68.3569 142.113 68.3029C142.113 68.2489 141.086 68.2051 139.818 68.2051C138.551 68.2051 137.523 68.2489 137.523 68.3029C137.523 68.3569 138.551 68.4006 139.818 68.4006Z" fill="#263238"/>
<path d="M130.639 68.4006C131.906 68.4006 132.933 68.3569 132.933 68.3029C132.933 68.2489 131.906 68.2051 130.639 68.2051C129.371 68.2051 128.344 68.2489 128.344 68.3029C128.344 68.3569 129.371 68.4006 130.639 68.4006Z" fill="#263238"/>
<path d="M121.459 68.4016C122.726 68.4016 123.754 68.3578 123.754 68.3038C123.754 68.2498 122.726 68.2061 121.459 68.2061C120.192 68.2061 119.164 68.2498 119.164 68.3038C119.164 68.3578 120.192 68.4016 121.459 68.4016Z" fill="#263238"/>
<path d="M112.287 68.4006C113.554 68.4006 114.582 68.3569 114.582 68.3029C114.582 68.2489 113.554 68.2051 112.287 68.2051C111.02 68.2051 109.992 68.2489 109.992 68.3029C109.992 68.3569 111.02 68.4006 112.287 68.4006Z" fill="#263238"/>
<path d="M103.107 68.4016C104.375 68.4016 105.402 68.3578 105.402 68.3038C105.402 68.2498 104.375 68.2061 103.107 68.2061C101.84 68.2061 100.812 68.2498 100.812 68.3038C100.812 68.3578 101.84 68.4016 103.107 68.4016Z" fill="#263238"/>
<path d="M93.9277 68.4016C95.1951 68.4016 96.2226 68.3578 96.2226 68.3038C96.2226 68.2498 95.1951 68.2061 93.9277 68.2061C92.6603 68.2061 91.6328 68.2498 91.6328 68.3038C91.6328 68.3578 92.6603 68.4016 93.9277 68.4016Z" fill="#263238"/>
<path d="M84.7519 68.4006C86.0193 68.4006 87.0468 68.3569 87.0468 68.3029C87.0468 68.2489 86.0193 68.2051 84.7519 68.2051C83.4845 68.2051 82.457 68.2489 82.457 68.3029C82.457 68.3569 83.4845 68.4006 84.7519 68.4006Z" fill="#263238"/>
<path d="M75.6209 70.5591C75.5684 70.5591 75.5234 69.5475 75.5234 68.3027C75.7184 68.1071 75.5797 68.25 75.6209 68.2049H75.6247H75.6322H75.6472H75.6772H75.7334H75.8459C75.9209 68.2049 75.9959 68.2049 76.0709 68.2049C76.2134 68.2087 76.3559 68.2087 76.4946 68.2124C76.7421 68.22 76.9784 68.2275 77.2109 68.235C77.6196 68.2538 77.8708 68.2764 77.8708 68.3027C77.8708 68.329 77.6196 68.3553 77.2109 68.3704C76.9784 68.3779 76.7421 68.3854 76.4946 68.393C76.3559 68.393 76.2171 68.3967 76.0709 68.4005C75.9959 68.4005 75.9209 68.4005 75.8459 68.4005H75.7334H75.6772H75.6472H75.6322H75.6247H75.6209C75.6659 68.3553 75.5234 68.4982 75.7184 68.3027C75.7184 69.5512 75.6734 70.5591 75.6209 70.5591Z" fill="#263238"/>
<path d="M75.6209 78.9949C75.6748 78.9949 75.7184 78.0503 75.7184 76.8851C75.7184 75.72 75.6748 74.7754 75.6209 74.7754C75.5671 74.7754 75.5234 75.72 75.5234 76.8851C75.5234 78.0503 75.5671 78.9949 75.6209 78.9949Z" fill="#263238"/>
<path d="M75.6209 87.4295C75.6748 87.4295 75.7184 86.4849 75.7184 85.3197C75.7184 84.1545 75.6748 83.21 75.6209 83.21C75.5671 83.21 75.5234 84.1545 75.5234 85.3197C75.5234 86.4849 75.5671 87.4295 75.6209 87.4295Z" fill="#263238"/>
<path d="M75.6209 95.865C75.6748 95.865 75.7184 94.9204 75.7184 93.7553C75.7184 92.5901 75.6748 91.6455 75.6209 91.6455C75.5671 91.6455 75.5234 92.5901 75.5234 93.7553C75.5234 94.9204 75.5671 95.865 75.6209 95.865Z" fill="#263238"/>
<path d="M75.6209 104.3C75.6748 104.3 75.7184 103.355 75.7184 102.19C75.7184 101.025 75.6748 100.08 75.6209 100.08C75.5671 100.08 75.5234 101.025 75.5234 102.19C75.5234 103.355 75.5671 104.3 75.6209 104.3Z" fill="#263238"/>
<path d="M75.6209 112.735C75.6748 112.735 75.7184 111.791 75.7184 110.625C75.7184 109.46 75.6748 108.516 75.6209 108.516C75.5671 108.516 75.5234 109.46 75.5234 110.625C75.5234 111.791 75.5671 112.735 75.6209 112.735Z" fill="#263238"/>
<path d="M75.6209 121.171C75.6748 121.171 75.7184 120.226 75.7184 119.061C75.7184 117.896 75.6748 116.951 75.6209 116.951C75.5671 116.951 75.5234 117.896 75.5234 119.061C75.5234 120.226 75.5671 121.171 75.6209 121.171Z" fill="#263238"/>
<path d="M75.6209 129.602C75.6748 129.602 75.7184 128.658 75.7184 127.493C75.7184 126.327 75.6748 125.383 75.6209 125.383C75.5671 125.383 75.5234 126.327 75.5234 127.493C75.5234 128.658 75.5671 129.602 75.6209 129.602Z" fill="#263238"/>
<path d="M77.8677 136.078C77.8677 136.13 76.859 136.175 75.6178 136.175C75.4228 135.98 75.5653 136.119 75.5203 136.078V136.074V136.066V136.051V136.021V135.965V135.852C75.5203 135.777 75.5203 135.702 75.5203 135.626C75.5241 135.484 75.5241 135.341 75.5278 135.201C75.5353 134.953 75.5428 134.716 75.5503 134.483C75.5691 134.073 75.5916 133.821 75.6178 133.821C75.6441 133.821 75.6703 134.073 75.6853 134.483C75.6928 134.716 75.7003 134.953 75.7078 135.201C75.7078 135.341 75.7116 135.48 75.7153 135.626C75.7153 135.702 75.7153 135.773 75.7153 135.852V135.965V136.021V136.051V136.066V136.074V136.078C75.6703 136.033 75.8128 136.175 75.6178 135.98C76.859 135.98 77.8677 136.021 77.8677 136.078Z" fill="#263238"/>
<path d="M84.6518 136.177C85.9005 136.177 86.9129 136.133 86.9129 136.079C86.9129 136.025 85.9005 135.981 84.6518 135.981C83.403 135.981 82.3906 136.025 82.3906 136.079C82.3906 136.133 83.403 136.177 84.6518 136.177Z" fill="#263238"/>
<path d="M93.6986 136.176C94.9474 136.176 95.9598 136.132 95.9598 136.078C95.9598 136.024 94.9474 135.98 93.6986 135.98C92.4498 135.98 91.4375 136.024 91.4375 136.078C91.4375 136.132 92.4498 136.176 93.6986 136.176Z" fill="#263238"/>
<path d="M102.742 136.176C103.99 136.176 105.003 136.132 105.003 136.078C105.003 136.024 103.99 135.98 102.742 135.98C101.493 135.98 100.48 136.024 100.48 136.078C100.48 136.132 101.493 136.176 102.742 136.176Z" fill="#263238"/>
<path d="M111.788 136.177C113.037 136.177 114.05 136.133 114.05 136.079C114.05 136.025 113.037 135.981 111.788 135.981C110.54 135.981 109.527 136.025 109.527 136.079C109.527 136.133 110.54 136.177 111.788 136.177Z" fill="#263238"/>
<path d="M120.828 136.177C122.076 136.177 123.089 136.133 123.089 136.079C123.089 136.025 122.076 135.981 120.828 135.981C119.579 135.981 118.566 136.025 118.566 136.079C118.566 136.133 119.579 136.177 120.828 136.177Z" fill="#263238"/>
<path d="M129.878 136.176C131.127 136.176 132.139 136.132 132.139 136.078C132.139 136.024 131.127 135.98 129.878 135.98C128.63 135.98 127.617 136.024 127.617 136.078C127.617 136.132 128.63 136.176 129.878 136.176Z" fill="#263238"/>
<path d="M138.921 136.176C140.17 136.176 141.182 136.132 141.182 136.078C141.182 136.024 140.17 135.98 138.921 135.98C137.672 135.98 136.66 136.024 136.66 136.078C136.66 136.132 137.672 136.176 138.921 136.176Z" fill="#263238"/>
<path d="M147.968 136.177C149.217 136.177 150.229 136.133 150.229 136.079C150.229 136.025 149.217 135.981 147.968 135.981C146.719 135.981 145.707 136.025 145.707 136.079C145.707 136.133 146.719 136.177 147.968 136.177Z" fill="#263238"/>
<path d="M157.007 136.177C158.256 136.177 159.268 136.133 159.268 136.079C159.268 136.025 158.256 135.981 157.007 135.981C155.758 135.981 154.746 136.025 154.746 136.079C154.746 136.133 155.758 136.177 157.007 136.177Z" fill="#263238"/>
<path d="M166.054 136.177C167.303 136.177 168.315 136.133 168.315 136.079C168.315 136.025 167.303 135.981 166.054 135.981C164.805 135.981 163.793 136.025 163.793 136.079C163.793 136.133 164.805 136.177 166.054 136.177Z" fill="#263238"/>
<path d="M173.965 136.176C174.586 136.176 175.09 136.132 175.09 136.078C175.09 136.024 174.586 135.98 173.965 135.98C173.343 135.98 172.84 136.024 172.84 136.078C172.84 136.132 173.343 136.176 173.965 136.176Z" fill="#263238"/>
<g opacity="0.3">
<path opacity="0.3" d="M106.685 107.406C106.685 107.406 106.708 111.167 105.575 113.442C104.443 115.717 104.06 116.59 101.679 117.466C99.298 118.342 69.0859 121.663 69.0859 121.663V111.43L106.685 107.406Z" fill="black"/>
</g>
<g opacity="0.3">
<path opacity="0.3" d="M106.141 93.229C106.141 93.229 106.486 89.3931 96.883 87.9678C85.8998 86.3356 69.082 84.335 69.082 84.335V91.5969L106.141 93.229Z" fill="black"/>
</g>
<path d="M70.0808 114.532H101.317C104.283 114.532 106.683 112.121 106.683 109.15V95.1267C106.683 92.152 104.279 89.7451 101.317 89.7451H70.0808C67.1147 89.7451 64.7148 92.1557 64.7148 95.1267V109.15C64.7148 112.121 67.1185 114.532 70.0808 114.532Z" fill="#90C63E"/>
<path d="M70.0796 114.533C70.0796 114.533 69.9709 114.533 69.7571 114.526C69.5434 114.526 69.2284 114.488 68.8234 114.398C68.4184 114.315 67.931 114.134 67.3985 113.841C66.8698 113.544 66.3036 113.1 65.8161 112.476C65.3361 111.852 64.9086 111.047 64.7511 110.092C64.6537 109.618 64.6649 109.106 64.6612 108.591C64.6612 108.072 64.6574 107.531 64.6574 106.97C64.6537 104.733 64.6499 102.183 64.6424 99.37C64.6424 97.9597 64.6274 96.4893 64.6461 94.9474C64.6874 93.3942 65.4449 91.7809 66.7985 90.773C67.466 90.2691 68.261 89.8968 69.1159 89.7539C69.5396 89.6749 69.9859 89.6599 70.4133 89.6636C70.8483 89.6636 71.2833 89.6636 71.722 89.6636C73.4807 89.6636 75.2918 89.6599 77.148 89.6599C84.5763 89.6561 92.7396 89.6561 101.308 89.6523C101.852 89.6636 102.395 89.7388 102.917 89.893C103.434 90.0585 103.925 90.2954 104.375 90.5925C104.818 90.9009 105.215 91.2694 105.556 91.6831C105.894 92.1006 106.16 92.5706 106.37 93.0595C106.573 93.5522 106.689 94.0749 106.753 94.6014C106.79 95.1317 106.775 95.6469 106.779 96.1621C106.779 97.1925 106.779 98.2154 106.779 99.2271C106.779 101.254 106.779 103.243 106.775 105.195C106.775 106.169 106.775 107.136 106.775 108.087C106.768 108.565 106.794 109.031 106.756 109.516C106.756 109.757 106.7 109.99 106.67 110.227C106.614 110.456 106.565 110.693 106.483 110.915C105.886 112.724 104.319 114.086 102.575 114.477C102.362 114.541 102.137 114.552 101.919 114.593C101.698 114.612 101.477 114.62 101.259 114.627C100.824 114.627 100.397 114.627 99.9692 114.627C99.1142 114.627 98.2743 114.627 97.4493 114.623C94.1458 114.62 91.0709 114.616 88.2623 114.612C82.6489 114.597 78.1042 114.589 74.9581 114.582C73.3907 114.574 72.172 114.567 71.3395 114.563C70.9308 114.559 70.6158 114.556 70.3983 114.552C70.1883 114.541 70.0796 114.533 70.0796 114.533C70.0796 114.533 70.1883 114.526 70.3983 114.522C70.6158 114.518 70.9308 114.518 71.3395 114.511C72.172 114.507 73.3907 114.499 74.9581 114.492C78.1042 114.484 82.6489 114.473 88.2623 114.462C91.0709 114.458 94.1458 114.454 97.4493 114.45C98.2743 114.45 99.1142 114.45 99.9692 114.447C100.824 114.424 101.698 114.518 102.538 114.296C104.225 113.913 105.74 112.593 106.314 110.844C106.64 109.975 106.595 109.031 106.595 108.076C106.595 107.121 106.595 106.158 106.595 105.184C106.595 103.236 106.595 101.243 106.591 99.2158C106.591 98.2004 106.591 97.1812 106.591 96.1508C106.588 95.6356 106.603 95.1129 106.565 94.6089C106.505 94.1012 106.393 93.6011 106.198 93.1235C105.995 92.6534 105.74 92.1983 105.414 91.7959C105.084 91.3973 104.701 91.0438 104.274 90.7467C103.839 90.4609 103.367 90.2315 102.868 90.0735C102.365 89.9231 101.844 89.8517 101.315 89.8404C92.7471 89.8366 84.58 89.8366 77.1555 89.8329C75.2993 89.8329 73.4882 89.8291 71.7295 89.8291C71.2908 89.8291 70.8521 89.8291 70.4208 89.8291C69.9859 89.8253 69.5659 89.8404 69.1497 89.9156C68.3209 90.051 67.5485 90.412 66.8998 90.9009C65.5836 91.8749 64.8411 93.4394 64.7999 94.9512C64.7811 96.4818 64.7924 97.9635 64.7849 99.37C64.7811 102.187 64.7736 104.733 64.7699 106.97C64.7699 107.531 64.7661 108.068 64.7661 108.591C64.7661 109.11 64.7549 109.61 64.8486 110.077C64.9986 111.017 65.4149 111.814 65.8836 112.431C66.3598 113.051 66.9148 113.495 67.4322 113.792C67.9572 114.086 68.4372 114.274 68.8384 114.36C69.2396 114.454 69.5509 114.499 69.7646 114.507C69.9709 114.522 70.0796 114.533 70.0796 114.533Z" fill="#263238"/>
<path d="M94.0392 112.084C99.0012 112.084 103.024 108.05 103.024 103.073C103.024 98.0967 99.0012 94.0625 94.0392 94.0625C89.0772 94.0625 85.0547 98.0967 85.0547 103.073C85.0547 108.05 89.0772 112.084 94.0392 112.084Z" fill="#263238"/>
<path d="M96.3441 110.433C96.3216 110.384 97.2704 110.192 98.4853 109.308C99.089 108.872 99.7415 108.244 100.3 107.428C100.859 106.616 101.309 105.6 101.493 104.476C101.661 103.348 101.549 102.246 101.271 101.298C100.994 100.35 100.566 99.5532 100.128 98.9478C99.2427 97.7255 98.4028 97.2517 98.4403 97.2103C98.444 97.2066 98.4965 97.2329 98.5865 97.293C98.6765 97.357 98.8228 97.4397 98.984 97.5751C99.3215 97.8308 99.7752 98.2558 100.236 98.8613C100.698 99.4667 101.148 100.272 101.444 101.242C101.74 102.208 101.864 103.34 101.688 104.502C101.496 105.661 101.028 106.699 100.45 107.526C99.869 108.357 99.194 108.985 98.5678 109.414C97.9416 109.846 97.3791 110.109 96.9779 110.249C96.7829 110.328 96.6179 110.361 96.5129 110.392C96.4041 110.429 96.3479 110.44 96.3441 110.433Z" fill="#FAFAFA"/>
<g opacity="0.3">
<path opacity="0.3" d="M209.121 86.2783C209.485 86.8951 209.736 87.5344 209.901 88.1436C210.062 88.7566 210.133 89.347 210.148 89.8848C210.171 90.9641 209.95 91.8141 209.747 92.3706C209.541 92.9272 209.357 93.2017 209.327 93.1905C209.286 93.1717 209.399 92.867 209.537 92.3067C209.672 91.7501 209.822 90.919 209.751 89.9036C209.714 89.3959 209.624 88.8431 209.455 88.2752" fill="black"/>
</g>
<path d="M209.251 93.3838C209.258 93.3875 209.224 93.4628 209.156 93.5981L209.251 93.3838Z" fill="#263238"/>
<path d="M172.805 16.4881C171.703 16.7439 171.167 18.015 171.062 19.1432C170.957 20.2714 171.099 21.4673 170.627 22.4977C170.094 23.6598 168.823 24.5135 168.778 25.7883C168.752 26.5668 169.213 27.3001 169.191 28.0748C169.153 29.3535 167.856 30.32 167.785 31.5948C167.736 32.5162 168.347 33.3962 168.201 34.3063C168.085 35.0133 167.537 35.5699 167.305 36.2506C166.843 37.6007 167.766 39.0899 168.973 39.8496C170.316 40.6957 172.037 40.9176 173.548 40.4325C175.059 39.9473 176.334 38.7702 176.938 37.296C177.605 35.6714 177.459 33.8437 177.313 32.0912C176.859 26.6345 176.525 21.1702 176.304 15.7021" fill="#263238"/>
<path d="M169.603 35.7338C169.58 35.7112 169.903 35.6172 170.105 35.1321C170.203 34.8952 170.255 34.5793 170.233 34.2145C170.221 33.8459 170.094 33.4473 169.959 32.996C169.835 32.5485 169.67 32.0295 169.764 31.4541C169.858 30.8675 170.278 30.3861 170.656 29.916C170.848 29.6753 171.043 29.4271 171.163 29.1451C171.29 28.8668 171.316 28.5434 171.223 28.2425C171.028 27.6295 170.428 27.1745 170.154 26.4675C170.019 26.1139 170.015 25.7228 170.094 25.3693C170.169 25.0158 170.311 24.6924 170.454 24.384C170.746 23.771 171.073 23.2107 171.2 22.6127C171.463 21.4206 171.339 20.2811 171.519 19.3447C171.68 18.4083 172.078 17.7013 172.468 17.3403C172.659 17.1522 172.843 17.0544 172.962 16.9867C173.09 16.9303 173.157 16.9078 173.161 16.9115C173.172 16.9341 172.884 17.0206 172.52 17.3929C172.16 17.7577 171.796 18.4497 171.654 19.3673C171.579 19.8223 171.568 20.3375 171.549 20.8866C171.53 21.4356 171.511 22.0336 171.373 22.6503C171.241 23.2746 170.911 23.8613 170.626 24.4592C170.345 25.0497 170.086 25.7416 170.334 26.3885C170.57 27.0278 171.178 27.4828 171.403 28.1748C171.515 28.5208 171.478 28.9006 171.331 29.209C171.193 29.5211 170.99 29.7806 170.795 30.0213C170.401 30.4952 170.011 30.9502 169.921 31.4767C169.828 31.9994 169.974 32.5034 170.09 32.9509C170.214 33.3984 170.338 33.8196 170.341 34.2032C170.353 34.583 170.289 34.914 170.173 35.1584C170.06 35.4029 169.906 35.557 169.79 35.6323C169.678 35.7188 169.603 35.7338 169.603 35.7338Z" fill="#455A64"/>
<path d="M166.648 44.6523L163.262 54.4377L149.148 55.1973L146.793 60.4473L161.53 61.944C164.469 63.1625 167.826 61.6695 168.898 58.6684L172.832 47.6571L166.648 44.6523Z" fill="#FFBE9D"/>
<path d="M195.843 136.913C195.843 136.913 185.498 103.962 185.28 102.894C185.081 101.928 189.034 78.2166 189.532 72.0791L175.557 72.6018C175.557 72.6018 175.557 72.6394 175.557 72.7034L169.617 73.0343L174.938 140.422H181.369L180.732 118.065C184.699 128.745 190.38 139.625 190.38 139.625L195.843 136.913Z" fill="#FFBE9D"/>
<path d="M180.995 126.076C180.999 125.872 180.916 118.584 180.916 118.584C180.838 119.02 178.449 112.259 178.509 111.845C178.539 111.634 180.995 126.076 180.995 126.076Z" fill="#EB996E"/>
<path d="M178.235 108.645C178.22 108.645 178.205 108.791 178.194 109.054C178.179 109.318 178.179 109.701 178.202 110.171C178.209 110.408 178.235 110.664 178.265 110.942C178.299 111.217 178.337 111.514 178.4 111.819C178.517 112.435 178.697 113.101 178.925 113.782C179.394 115.143 179.908 116.335 180.275 117.204C180.448 117.599 180.598 117.937 180.721 118.223C180.83 118.46 180.898 118.592 180.913 118.584C180.928 118.58 180.886 118.437 180.8 118.189C180.714 117.941 180.583 117.584 180.414 117.144C180.084 116.264 179.589 115.064 179.128 113.71C178.899 113.033 178.719 112.379 178.592 111.777C178.524 111.476 178.479 111.187 178.438 110.916C178.4 110.645 178.367 110.389 178.348 110.156C178.303 109.69 178.284 109.31 178.273 109.051C178.262 108.791 178.25 108.648 178.235 108.645Z" fill="#EB996E"/>
<path d="M174.817 140.753L174.813 140.148L181.401 139.858L181.42 142.359L181.015 142.386C179.208 142.491 171.813 142.799 170.602 142.434C169.252 142.028 174.817 140.753 174.817 140.753Z" fill="#455A64"/>
<path d="M181.509 142.21C181.509 142.214 181.471 142.217 181.396 142.221C181.299 142.229 181.194 142.236 181.074 142.244C180.751 142.259 180.354 142.278 179.881 142.3C178.876 142.341 177.485 142.375 175.948 142.383C174.41 142.39 173.019 142.364 172.014 142.334C171.545 142.315 171.148 142.3 170.822 142.289C170.702 142.281 170.597 142.278 170.499 142.27C170.424 142.266 170.387 142.263 170.387 142.259C170.387 142.255 170.424 142.255 170.499 142.255C170.597 142.255 170.702 142.255 170.822 142.259C171.144 142.263 171.545 142.27 172.014 142.278C173.019 142.293 174.41 142.311 175.948 142.304C177.481 142.296 178.873 142.27 179.881 142.244C180.35 142.232 180.747 142.221 181.074 142.214C181.194 142.21 181.299 142.21 181.396 142.21C181.471 142.206 181.509 142.206 181.509 142.21Z" fill="#263238"/>
<path d="M172.681 142.419C172.655 142.423 172.636 142.137 172.456 141.851C172.28 141.562 172.036 141.415 172.047 141.396C172.051 141.378 172.332 141.498 172.523 141.81C172.715 142.118 172.7 142.423 172.681 142.419Z" fill="#263238"/>
<path d="M174.413 141.182C174.509 141.333 174.602 141.445 174.621 141.433C174.64 141.42 174.578 141.288 174.482 141.138C174.386 140.987 174.293 140.875 174.274 140.888C174.255 140.9 174.317 141.032 174.413 141.182Z" fill="#263238"/>
<path d="M174.919 140.992C175.032 141.092 175.136 141.16 175.151 141.143C175.166 141.126 175.087 141.031 174.974 140.93C174.861 140.829 174.757 140.761 174.742 140.778C174.727 140.795 174.806 140.891 174.919 140.992Z" fill="#263238"/>
<path d="M175.139 140.565C175.328 140.562 175.48 140.541 175.48 140.518C175.48 140.496 175.326 140.479 175.138 140.482C174.95 140.485 174.797 140.506 174.797 140.529C174.798 140.551 174.951 140.568 175.139 140.565Z" fill="#263238"/>
<path d="M175.589 140.088C175.596 140.107 175.431 140.182 175.206 140.201C174.985 140.22 174.809 140.171 174.813 140.148C174.816 140.126 174.989 140.137 175.199 140.118C175.413 140.103 175.581 140.066 175.589 140.088Z" fill="#263238"/>
<path d="M174.391 140.855C174.391 140.862 174.23 140.885 173.971 140.855C173.84 140.84 173.686 140.81 173.521 140.757C173.439 140.727 173.353 140.708 173.263 140.652C173.221 140.625 173.173 140.584 173.158 140.52C173.139 140.456 173.173 140.385 173.221 140.351C173.623 140.14 174.028 140.366 174.178 140.573C174.26 140.678 174.298 140.783 174.316 140.855C174.335 140.926 174.331 140.968 174.328 140.968C174.313 140.971 174.298 140.802 174.136 140.607C174.054 140.513 173.934 140.419 173.776 140.373C173.626 140.328 173.416 140.317 173.274 140.411C173.206 140.46 173.233 140.539 173.308 140.584C173.379 140.629 173.465 140.656 173.544 140.686C173.705 140.738 173.851 140.776 173.979 140.798C174.23 140.844 174.391 140.844 174.391 140.855Z" fill="#263238"/>
<path d="M174.279 140.878C174.271 140.882 174.211 140.777 174.23 140.585C174.241 140.491 174.275 140.382 174.343 140.277C174.418 140.183 174.511 140.055 174.691 140.059C174.789 140.07 174.838 140.183 174.823 140.254C174.815 140.329 174.781 140.393 174.751 140.442C174.688 140.548 174.62 140.634 174.553 140.698C174.421 140.83 174.316 140.878 174.313 140.871C174.305 140.86 174.395 140.796 174.511 140.66C174.568 140.593 174.631 140.51 174.688 140.405C174.744 140.314 174.785 140.153 174.676 140.138C174.571 140.126 174.463 140.232 174.399 140.318C174.331 140.408 174.298 140.51 174.279 140.593C174.253 140.766 174.29 140.875 174.279 140.878Z" fill="#263238"/>
<path d="M181.372 140.407C181.372 140.422 181.185 140.392 180.889 140.425C180.596 140.459 180.188 140.58 179.835 140.865C179.483 141.151 179.273 141.524 179.179 141.806C179.081 142.088 179.07 142.276 179.055 142.276C179.051 142.276 179.048 142.227 179.055 142.144C179.063 142.058 179.081 141.937 179.126 141.791C179.213 141.497 179.419 141.106 179.786 140.809C180.154 140.512 180.581 140.395 180.885 140.373C181.039 140.361 181.162 140.369 181.245 140.38C181.327 140.392 181.372 140.403 181.372 140.407Z" fill="#263238"/>
<path d="M178.217 141.683C178.221 141.701 177.793 141.773 177.261 141.773C176.728 141.777 176.301 141.713 176.301 141.694C176.305 141.671 176.732 141.698 177.257 141.694C177.786 141.694 178.213 141.66 178.217 141.683Z" fill="#263238"/>
<path d="M179.5 141.671C179.515 141.686 179.467 141.762 179.422 141.859C179.377 141.957 179.354 142.047 179.332 142.044C179.309 142.044 179.298 141.938 179.347 141.826C179.399 141.713 179.485 141.656 179.5 141.671Z" fill="#263238"/>
<path d="M179.881 141.208C179.95 141.138 179.992 141.069 179.975 141.053C179.959 141.037 179.891 141.08 179.823 141.15C179.754 141.22 179.712 141.289 179.729 141.305C179.745 141.321 179.813 141.278 179.881 141.208Z" fill="#263238"/>
<path d="M180.676 140.784C180.672 140.806 180.586 140.806 180.488 140.84C180.391 140.87 180.323 140.927 180.304 140.911C180.286 140.9 180.342 140.806 180.462 140.765C180.582 140.723 180.683 140.765 180.676 140.784Z" fill="#263238"/>
<path d="M181.073 140.728C181.127 140.707 181.164 140.672 181.156 140.651C181.148 140.63 181.097 140.63 181.043 140.651C180.989 140.672 180.952 140.707 180.96 140.728C180.969 140.749 181.019 140.749 181.073 140.728Z" fill="#263238"/>
<path d="M190.251 140.169L190 139.616L195.89 136.646L196.929 138.917L196.569 139.109C194.964 139.947 188.342 143.264 187.09 143.43C185.695 143.618 190.251 140.169 190.251 140.169Z" fill="#455A64"/>
<path d="M196.956 138.744C196.956 138.748 196.922 138.767 196.859 138.801C196.772 138.846 196.679 138.895 196.574 138.951C196.285 139.098 195.929 139.278 195.509 139.493C194.609 139.944 193.353 140.546 191.954 141.185C190.555 141.82 189.277 142.369 188.343 142.757C187.908 142.934 187.537 143.084 187.237 143.204C187.124 143.249 187.023 143.287 186.933 143.321C186.862 143.347 186.828 143.359 186.824 143.355C186.824 143.351 186.858 143.336 186.925 143.306C187.015 143.268 187.113 143.223 187.222 143.174C187.518 143.046 187.885 142.888 188.317 142.704C189.243 142.306 190.518 141.749 191.916 141.113C193.315 140.478 194.571 139.88 195.479 139.444C195.902 139.241 196.262 139.068 196.555 138.925C196.664 138.872 196.761 138.827 196.847 138.786C196.919 138.759 196.952 138.744 196.956 138.744Z" fill="#263238"/>
<path d="M188.986 142.566C188.963 142.577 188.832 142.325 188.547 142.137C188.27 141.946 187.985 141.912 187.988 141.889C187.985 141.87 188.292 141.867 188.592 142.073C188.892 142.276 189.005 142.566 188.986 142.566Z" fill="#263238"/>
<path d="M190.045 140.719C190.194 140.817 190.325 140.881 190.337 140.861C190.35 140.842 190.239 140.748 190.09 140.65C189.941 140.552 189.81 140.488 189.798 140.507C189.785 140.526 189.896 140.621 190.045 140.719Z" fill="#263238"/>
<path d="M190.443 140.357C190.587 140.403 190.71 140.422 190.717 140.4C190.723 140.379 190.612 140.324 190.468 140.278C190.324 140.232 190.201 140.213 190.195 140.235C190.188 140.257 190.299 140.311 190.443 140.357Z" fill="#263238"/>
<path d="M190.477 139.873C190.648 139.793 190.778 139.711 190.769 139.69C190.759 139.67 190.613 139.718 190.442 139.798C190.271 139.878 190.141 139.959 190.15 139.98C190.16 140.001 190.306 139.953 190.477 139.873Z" fill="#263238"/>
<path d="M190.691 139.244C190.706 139.259 190.586 139.399 190.391 139.504C190.196 139.613 190.016 139.639 190.012 139.62C190.004 139.598 190.169 139.538 190.353 139.436C190.537 139.331 190.672 139.226 190.691 139.244Z" fill="#263238"/>
<path d="M189.906 140.44C189.909 140.448 189.771 140.534 189.519 140.613C189.396 140.651 189.242 140.688 189.069 140.707C188.983 140.715 188.897 140.73 188.792 140.719C188.743 140.711 188.683 140.692 188.642 140.643C188.601 140.594 188.601 140.516 188.631 140.463C188.912 140.106 189.373 140.147 189.594 140.275C189.714 140.339 189.789 140.418 189.834 140.474C189.879 140.534 189.894 140.572 189.891 140.572C189.879 140.583 189.797 140.433 189.568 140.324C189.456 140.271 189.306 140.237 189.144 140.26C188.991 140.282 188.792 140.358 188.702 140.5C188.661 140.572 188.717 140.636 188.803 140.643C188.886 140.655 188.979 140.643 189.062 140.64C189.231 140.625 189.381 140.594 189.504 140.564C189.756 140.493 189.902 140.429 189.906 140.44Z" fill="#263238"/>
<path d="M189.812 140.505C189.808 140.512 189.707 140.437 189.647 140.257C189.617 140.166 189.602 140.053 189.624 139.929C189.654 139.813 189.688 139.655 189.857 139.587C189.95 139.557 190.172 139.749 190.187 139.82C190.209 139.892 190.074 139.854 190.07 139.914C190.055 140.035 190.029 140.144 189.995 140.23C189.928 140.403 189.853 140.49 189.845 140.486C189.834 140.478 189.89 140.381 189.943 140.211C189.969 140.129 189.992 140.023 189.999 139.907C190.014 139.802 189.984 139.64 189.879 139.666C189.778 139.7 189.725 139.839 189.699 139.944C189.677 140.053 189.684 140.159 189.703 140.245C189.744 140.411 189.823 140.497 189.812 140.505Z" fill="#263238"/>
<path d="M196.095 137.161C196.098 137.176 195.915 137.221 195.66 137.375C195.405 137.526 195.082 137.804 194.876 138.21C194.67 138.616 194.632 139.041 194.658 139.335C194.685 139.632 194.752 139.809 194.737 139.812C194.733 139.812 194.711 139.771 194.681 139.692C194.651 139.613 194.621 139.493 194.598 139.339C194.557 139.038 194.583 138.594 194.801 138.173C195.015 137.752 195.36 137.466 195.626 137.327C195.761 137.255 195.877 137.21 195.96 137.184C196.046 137.165 196.091 137.157 196.095 137.161Z" fill="#263238"/>
<path d="M193.736 139.62C193.747 139.639 193.383 139.876 192.9 140.098C192.416 140.32 192 140.436 191.992 140.418C191.985 140.395 192.386 140.245 192.866 140.026C193.346 139.808 193.725 139.602 193.736 139.62Z" fill="#263238"/>
<path d="M194.904 139.083C194.926 139.091 194.907 139.181 194.911 139.286C194.911 139.395 194.926 139.482 194.904 139.493C194.885 139.5 194.828 139.414 194.828 139.286C194.828 139.162 194.881 139.072 194.904 139.083Z" fill="#263238"/>
<path d="M195.076 138.502C195.11 138.411 195.12 138.33 195.098 138.322C195.077 138.314 195.032 138.382 194.998 138.474C194.965 138.565 194.955 138.646 194.976 138.654C194.998 138.662 195.043 138.594 195.076 138.502Z" fill="#263238"/>
<path d="M195.611 137.793C195.614 137.816 195.536 137.849 195.461 137.921C195.386 137.989 195.344 138.068 195.322 138.06C195.299 138.056 195.314 137.947 195.404 137.861C195.498 137.774 195.607 137.77 195.611 137.793Z" fill="#263238"/>
<path d="M195.953 137.567C195.994 137.525 196.014 137.478 195.997 137.462C195.981 137.446 195.935 137.467 195.894 137.509C195.853 137.55 195.834 137.597 195.85 137.613C195.866 137.629 195.912 137.608 195.953 137.567Z" fill="#263238"/>
<path d="M188.637 60.9239L187.538 47.4982L193.174 47.5997C193.174 47.5997 193.437 45.6216 192.604 41.278C192.094 38.6154 190.328 36.9833 188.344 36.013V35.9792L188.172 35.9341C185.648 34.7495 183.008 34.584 183.008 34.584L176.09 34.663C176.09 34.663 170.807 34.0011 167.882 37.7806C166.757 39.236 163.27 49.198 163.27 49.198L171.572 53.2069L170.78 47.6825C170.78 47.6825 170.938 51.6876 171.448 52.955C171.733 53.662 172.554 55.8582 172.554 55.8582L172.445 62.4846L188.637 60.9239Z" fill="#90C63E"/>
<path d="M184.817 45.55L183.789 49.935H193.475L192.837 42.5791L184.817 45.55Z" fill="#90C63E"/>
<path d="M193.478 49.9353C193.478 49.9052 192.99 49.8563 192.195 49.8074C191.4 49.7623 190.302 49.7209 189.091 49.7284C187.876 49.736 186.777 49.7886 185.986 49.8488C185.195 49.9089 184.703 49.9804 184.707 50.0067C184.711 50.0368 185.202 50.0255 185.993 49.9992C186.788 49.9766 187.883 49.9466 189.091 49.939C190.302 49.9353 191.397 49.9503 192.192 49.9578C192.983 49.9691 193.478 49.9654 193.478 49.9353Z" fill="#263238"/>
<path d="M184.395 42.5459C184.365 42.5459 184.354 42.9746 184.362 43.6628C184.369 44.351 184.395 45.3025 184.433 46.3517C184.474 47.4009 184.523 48.3524 184.568 49.0368C184.613 49.7251 184.658 50.1463 184.688 50.1463C184.718 50.1463 184.729 49.7175 184.722 49.0293C184.714 48.3411 184.692 47.3897 184.65 46.3404C184.609 45.2912 184.56 44.3435 184.515 43.6553C184.47 42.9671 184.425 42.5459 184.395 42.5459Z" fill="#263238"/>
<g opacity="0.3">
<path opacity="0.3" d="M175.586 46.3447C175.586 46.3447 177.738 62.354 183.79 61.929C183.79 61.929 186.517 61.8952 187.39 60.0788V59.3642L175.586 46.3447Z" fill="black"/>
</g>
<g opacity="0.3">
<path opacity="0.3" d="M184.393 43.4893L183.234 51.3378L183.984 52.7142L185.222 50.0216L184.697 50.0065L184.393 43.4893Z" fill="black"/>
</g>
<path d="M172.551 55.8534C172.54 55.8571 172.48 55.7255 172.386 55.4773C172.292 55.2329 172.169 54.8718 172.022 54.4281C171.734 53.533 171.377 52.2845 171.096 50.8742C170.819 49.464 170.68 48.1703 170.639 47.2301C170.616 46.76 170.609 46.3802 170.616 46.117C170.62 45.8537 170.631 45.7108 170.646 45.707C170.676 45.707 170.699 46.2862 170.777 47.2188C170.856 48.1515 171.014 49.4339 171.291 50.8366C171.569 52.2356 171.902 53.4841 172.157 54.3867C172.277 54.8041 172.379 55.1614 172.461 55.4547C172.528 55.7067 172.562 55.8496 172.551 55.8534Z" fill="#263238"/>
<path d="M174.656 59.6819C174.789 60.1233 174.939 60.4684 174.99 60.4528C175.042 60.4371 174.976 60.0667 174.842 59.6253C174.709 59.184 174.56 58.8388 174.508 58.8545C174.457 58.8701 174.523 59.2406 174.656 59.6819Z" fill="#263238"/>
<path d="M175.831 60.3937C175.782 60.405 175.617 59.8898 175.61 59.2241C175.599 58.5585 175.745 58.0358 175.797 58.0471C175.854 58.0583 175.794 58.5773 175.805 59.2204C175.812 59.8635 175.888 60.3824 175.831 60.3937Z" fill="#263238"/>
<path d="M167.413 51.3283C169.773 52.5111 171.705 53.4307 171.729 53.3824C171.754 53.3341 169.86 52.3361 167.5 51.1533C165.14 49.9706 163.207 49.0509 163.183 49.0992C163.159 49.1475 165.053 50.1455 167.413 51.3283Z" fill="#263238"/>
<path d="M175.142 35.9557C175.187 34.0528 175.195 32.0483 175.195 32.0483C175.195 32.0483 172.761 31.5783 172.337 28.3666C171.933 25.3054 173.065 18.1187 173.065 18.1187C176.62 16.7724 180.313 17.9909 182.747 20.8791L182.143 36.3242C182.072 38.1181 180.478 39.487 178.566 39.3967C176.631 39.3102 175.101 37.7684 175.142 35.9557Z" fill="#FFBE9D"/>
<path d="M172.876 23.8666C172.861 24.0847 173.033 24.2728 173.258 24.2916C173.483 24.3104 173.675 24.1486 173.69 23.9343C173.705 23.7162 173.532 23.5281 173.307 23.5093C173.082 23.4905 172.891 23.6485 172.876 23.8666Z" fill="#263238"/>
<path d="M172.726 23.3283C172.774 23.3847 173.089 23.1628 173.532 23.1741C173.97 23.1816 174.289 23.4148 174.338 23.3621C174.36 23.3396 174.312 23.2418 174.177 23.1365C174.042 23.0312 173.805 22.9259 173.532 22.9184C173.258 22.9109 173.026 23.0086 172.891 23.1064C172.748 23.2079 172.699 23.302 172.726 23.3283Z" fill="#263238"/>
<path d="M177.337 24.1439C177.322 24.362 177.494 24.5501 177.719 24.5689C177.944 24.5877 178.136 24.426 178.151 24.2116C178.166 23.9935 177.993 23.8054 177.768 23.7866C177.543 23.7678 177.352 23.9295 177.337 24.1439Z" fill="#263238"/>
<path d="M177.306 23.6083C177.355 23.6647 177.67 23.4428 178.112 23.4541C178.551 23.4616 178.87 23.6948 178.918 23.6421C178.941 23.6195 178.892 23.5218 178.753 23.4165C178.618 23.3112 178.386 23.2059 178.109 23.1984C177.835 23.1946 177.602 23.2886 177.467 23.3864C177.332 23.4879 177.284 23.5819 177.306 23.6083Z" fill="#263238"/>
<path d="M175.639 26.8387C175.643 26.8124 175.369 26.7597 174.927 26.692C174.814 26.677 174.709 26.6506 174.691 26.5754C174.664 26.4927 174.717 26.3723 174.773 26.2445C174.886 25.9737 175.006 25.6917 175.129 25.3946C175.621 24.1836 175.981 23.187 175.932 23.1682C175.883 23.1494 175.444 24.1122 174.949 25.3231C174.829 25.6202 174.717 25.906 174.608 26.1768C174.563 26.3047 174.484 26.4476 174.537 26.6168C174.567 26.7033 174.646 26.7635 174.717 26.786C174.788 26.8086 174.852 26.8124 174.908 26.8161C175.358 26.8537 175.636 26.865 175.639 26.8387Z" fill="#263238"/>
<path d="M175.188 32.0529C175.188 32.0529 177.329 32.2484 179.489 31.0225C179.489 31.0225 178.397 33.1924 175.214 32.8088L175.188 32.0529Z" fill="#EB996E"/>
<path d="M178.724 22.331C178.634 22.4701 178.3 22.4062 177.925 22.3385C177.55 22.2633 177.216 22.1956 177.186 22.0339C177.149 21.8797 177.535 21.6653 178.037 21.7594C178.532 21.8609 178.814 22.2031 178.724 22.331Z" fill="#263238"/>
<path d="M174.351 21.6855C174.317 21.8472 173.957 21.9036 173.544 21.9262C173.132 21.9412 172.768 21.9187 172.719 21.7607C172.671 21.6103 173.019 21.3621 173.518 21.3395C174.017 21.317 174.384 21.5313 174.351 21.6855Z" fill="#263238"/>
<path d="M175.637 27.8933C175.543 27.867 175.438 27.9197 175.393 28.0062C175.337 28.1077 175.363 28.2431 175.449 28.3183C175.535 28.3935 175.678 28.3935 175.768 28.3221C175.858 28.2506 175.888 28.1115 175.835 28.0099C175.783 27.9084 175.655 27.852 175.543 27.8858" fill="#A36957"/>
<path d="M175.738 27.9383C175.757 27.9195 175.667 27.8104 175.475 27.8556C175.385 27.8744 175.269 27.9571 175.235 28.0925C175.202 28.2204 175.232 28.3896 175.367 28.4911C175.509 28.5889 175.678 28.5701 175.79 28.4949C175.91 28.4159 175.944 28.273 175.925 28.1828C175.888 27.9834 175.742 27.9533 175.738 27.9797C175.723 28.006 175.79 28.0737 175.775 28.1903C175.768 28.2467 175.742 28.3031 175.685 28.3294C175.633 28.3595 175.543 28.3595 175.494 28.3219C175.442 28.2843 175.415 28.2016 175.427 28.1414C175.434 28.0775 175.475 28.0323 175.528 28.0022C175.633 27.9346 175.727 27.9646 175.738 27.9383Z" fill="#263238"/>
<path d="M181.271 24.6587C180.892 25.5387 179.966 26.2194 180.093 27.1709C180.176 27.7839 180.57 28.3593 180.491 28.9722C180.393 29.7432 179.595 30.281 179.482 31.0519C179.343 31.9958 180.258 32.7292 180.626 33.6129C181.158 34.8953 180.476 36.3394 180.461 37.7309C180.435 39.8595 182.242 41.8489 184.357 42.0256C185.212 42.0971 186.176 41.8376 186.622 41.1005C186.989 40.4912 186.914 39.7203 187.136 39.0434C187.462 38.0355 188.418 37.3022 188.62 36.2605C188.988 34.3651 186.704 32.7969 186.854 30.8752C186.918 30.0516 187.424 29.337 187.638 28.5398C187.919 27.4981 187.661 26.3247 186.967 25.4974C186.404 24.8242 185.587 24.3842 185.107 23.6509C184.563 22.8198 184.544 21.763 184.338 20.789C183.839 18.416 182.062 16.3551 179.793 15.5165C177.525 14.6779 174.836 15.0878 172.92 16.5657C172.92 16.5657 172.376 19.044 174.911 19.4577C177.446 19.8714 178.624 19.3938 178.909 20.4129C178.909 20.4129 178.62 21.605 179.67 22.7408C180.723 23.8765 181.71 23.6358 181.271 24.6587Z" fill="#263238"/>
<path d="M185.321 41.8497C185.321 41.8572 185.242 41.8497 185.088 41.8271C184.938 41.8045 184.717 41.7519 184.443 41.6541C183.903 41.4548 183.135 41.0223 182.482 40.195C182.156 39.785 181.852 39.2886 181.65 38.7057C181.44 38.1266 181.32 37.4684 181.308 36.7765C181.293 36.0845 181.391 35.3549 181.578 34.6291C181.672 34.2643 181.796 33.9033 181.938 33.5423C182.077 33.1813 182.25 32.8315 182.351 32.463C182.456 32.0944 182.445 31.7184 182.347 31.3611C182.25 31.0038 182.081 30.6654 181.92 30.3307C181.755 29.996 181.59 29.665 181.481 29.3115C181.372 28.9618 181.331 28.5819 181.402 28.2322C181.552 27.5252 181.98 26.9987 182.235 26.4609C182.501 25.9269 182.587 25.3628 182.576 24.8589C182.531 23.8359 182.096 23.0763 181.74 22.64C181.368 22.2038 181.087 22.0383 181.102 22.0195C181.102 22.0195 181.398 22.1587 181.796 22.5912C182.178 23.0236 182.647 23.7908 182.711 24.8551C182.733 25.3778 182.655 25.972 182.381 26.5324C182.122 27.0889 181.71 27.6192 181.582 28.266C181.451 28.9204 181.758 29.5936 182.092 30.2479C182.257 30.5826 182.43 30.9286 182.535 31.3122C182.64 31.692 182.655 32.1245 182.538 32.5156C182.433 32.9105 182.257 33.264 182.118 33.6175C181.98 33.971 181.856 34.3283 181.762 34.6818C181.575 35.3925 181.477 36.1033 181.488 36.7765C181.492 38.1303 181.957 39.3187 182.591 40.1122C183.213 40.9283 183.948 41.3683 184.473 41.5827C185.002 41.7932 185.324 41.8271 185.321 41.8497Z" fill="#455A64"/>
<path d="M184.945 22.8729C184.945 22.8842 184.75 22.9218 184.387 22.9557C184.027 22.9858 183.494 23.0271 182.842 22.9143C182.208 22.7977 181.402 22.4856 180.892 21.7297C180.641 21.3499 180.543 20.891 180.382 20.4661C180.228 20.0374 179.932 19.6651 179.527 19.4093C178.706 18.8866 177.742 18.8227 176.898 18.7211C176.051 18.6234 175.252 18.4428 174.712 18.0367C174.168 17.6493 173.887 17.1454 173.816 16.7806C173.775 16.6001 173.778 16.4534 173.786 16.3557C173.801 16.2579 173.808 16.209 173.816 16.209C173.838 16.209 173.79 16.4158 173.887 16.758C173.977 17.0965 174.258 17.5628 174.787 17.9201C175.308 18.2886 176.07 18.4504 176.913 18.5369C177.75 18.6309 178.751 18.6835 179.628 19.2401C180.063 19.5109 180.397 19.9358 180.554 20.3909C180.723 20.8384 180.813 21.2784 181.038 21.6244C181.496 22.3239 182.253 22.6435 182.86 22.7714C183.487 22.8993 184.015 22.8805 184.375 22.8729C184.743 22.8692 184.945 22.8579 184.945 22.8729Z" fill="#455A64"/>
<path d="M184.016 19.8105C184.02 19.8218 183.866 19.8669 183.578 19.8744C183.293 19.882 182.865 19.8331 182.393 19.6074C182.156 19.4946 181.916 19.3367 181.695 19.1223C181.47 18.9079 181.286 18.6334 181.114 18.3438C180.777 17.7722 180.45 17.0652 179.749 16.7756C179.063 16.4785 178.305 16.5462 177.649 16.5914C176.985 16.6553 176.363 16.6779 175.857 16.5763C175.347 16.4861 174.964 16.2755 174.751 16.0799C174.642 15.9821 174.571 15.8956 174.529 15.8317C174.488 15.7678 174.469 15.7339 174.473 15.7302C174.488 15.7189 174.578 15.8505 174.799 16.0197C175.017 16.189 175.388 16.3695 175.879 16.4409C176.374 16.5199 176.967 16.4898 177.634 16.4146C178.294 16.362 179.074 16.2792 179.828 16.5989C180.203 16.7568 180.507 17.0389 180.724 17.3435C180.945 17.6481 181.103 17.9678 181.271 18.2536C181.436 18.5432 181.605 18.8064 181.811 19.0095C182.014 19.2163 182.235 19.3743 182.456 19.4871C182.895 19.7165 183.304 19.788 183.581 19.803C183.859 19.8143 184.013 19.7917 184.016 19.8105Z" fill="#455A64"/>
<path d="M186.441 41.0375C186.423 41.0299 186.543 40.7855 186.681 40.3229C186.82 39.8604 186.955 39.1684 186.932 38.3072C186.902 37.4535 186.696 36.4193 186.134 35.434C185.86 34.9414 185.444 34.5014 185.103 33.9598C184.934 33.6891 184.788 33.3882 184.724 33.0535C184.66 32.7188 184.698 32.3615 184.806 32.0381C185.016 31.3875 185.395 30.8422 185.474 30.2443C185.575 29.6463 185.271 29.101 184.986 28.6121C184.844 28.3639 184.698 28.1195 184.585 27.8637C184.473 27.608 184.401 27.3373 184.371 27.0778C184.315 26.555 184.375 26.0737 184.413 25.6449C184.521 24.7875 184.443 24.0805 184.236 23.648C184.038 23.208 183.775 23.0764 183.794 23.0576C183.794 23.0538 183.809 23.0613 183.839 23.0801C183.865 23.0989 183.91 23.1215 183.959 23.1666C184.06 23.2494 184.191 23.3923 184.304 23.6142C184.54 24.0542 184.641 24.7913 184.551 25.6562C184.521 26.0887 184.473 26.5625 184.533 27.059C184.581 27.5591 184.84 28.0292 185.14 28.5181C185.286 28.7663 185.44 29.0258 185.549 29.3191C185.661 29.6087 185.71 29.9434 185.661 30.2668C185.571 30.925 185.185 31.4815 184.99 32.0908C184.889 32.3954 184.859 32.7113 184.911 33.0121C184.968 33.313 185.099 33.595 185.26 33.8545C185.583 34.3735 185.999 34.821 186.284 35.3362C186.861 36.3554 187.052 37.4197 187.064 38.2959C187.071 39.1759 186.91 39.8792 186.749 40.338C186.666 40.5674 186.595 40.7441 186.531 40.8569C186.479 40.981 186.449 41.0412 186.441 41.0375Z" fill="#455A64"/>
<path d="M171.17 111.11C171.17 111.11 168.646 87.1022 168.5 78.2307C168.354 69.3593 172.478 60.6044 172.478 60.6044L188.632 59.9199C188.632 59.9199 191.827 68.923 191.884 72.7025C191.996 80.0509 189.937 87.3053 190.174 93.1344L190.714 111.11" fill="#263238"/>
<path d="M191.249 81.5929C191.253 81.6005 191.159 81.6682 190.987 81.7923C190.942 81.8224 190.893 81.86 190.841 81.8976C190.792 81.9389 190.739 81.9953 190.683 82.048C190.571 82.1571 190.436 82.2812 190.323 82.4542C189.802 83.0935 189.419 84.2405 189.059 85.6658C188.861 86.3765 188.658 87.1701 188.242 87.9485C188.13 88.1403 188.032 88.3396 187.882 88.5164C187.811 88.6066 187.747 88.7044 187.672 88.7909L187.425 89.0391C187.087 89.3701 186.66 89.622 186.21 89.8214C185.306 90.22 184.286 90.408 183.352 90.8781C182.415 91.3369 181.71 92.2244 181.279 93.2473C180.825 94.2665 180.547 95.3345 180.169 96.3349C179.797 97.3277 179.288 98.2904 178.481 98.8997C177.683 99.5315 176.693 99.6744 175.838 99.7308C174.968 99.7797 174.162 99.7571 173.442 99.8662C172.722 99.9677 172.084 100.197 171.634 100.551C171.18 100.908 170.918 101.355 170.794 101.739C170.667 102.126 170.689 102.454 170.73 102.66C170.772 102.871 170.832 102.972 170.817 102.976C170.817 102.976 170.745 102.882 170.689 102.668C170.633 102.457 170.595 102.119 170.719 101.713C170.835 101.31 171.098 100.844 171.563 100.464C172.028 100.084 172.684 99.8398 173.419 99.727C174.154 99.6067 174.968 99.6255 175.826 99.5653C176.674 99.5051 177.619 99.3547 178.373 98.753C179.134 98.1739 179.625 97.245 179.989 96.2634C180.36 95.2743 180.637 94.2063 181.099 93.1646C181.534 92.1229 182.28 91.179 183.262 90.7051C184.234 90.2237 185.253 90.0395 186.135 89.6559C186.573 89.4641 186.982 89.2272 187.305 88.915L187.545 88.6781C187.62 88.5954 187.68 88.5013 187.747 88.4186C187.89 88.2494 187.987 88.0538 188.096 87.8733C188.508 87.1212 188.714 86.3352 188.924 85.6282C189.303 84.2066 189.708 83.0446 190.263 82.4053C190.383 82.236 190.526 82.1119 190.642 82.0066C190.702 81.954 190.754 81.9013 190.807 81.86C190.863 81.8261 190.916 81.7923 190.961 81.7622C191.148 81.6456 191.246 81.5892 191.249 81.5929Z" fill="#FAFAFA"/>
<path d="M191.346 70.4834C191.353 70.4834 191.361 70.5925 191.368 70.8068C191.372 71.0174 191.346 71.3333 191.256 71.7244C191.068 72.5067 190.498 73.5822 189.43 74.5563C188.901 75.0451 188.267 75.5152 187.536 75.9439C186.812 76.3764 186.014 76.7863 185.196 77.2489C184.382 77.7152 183.539 78.238 182.8 78.9375C182.05 79.6257 181.491 80.532 180.985 81.4947C180.475 82.4537 180.025 83.4277 179.414 84.2739C179.11 84.6951 178.769 85.0824 178.39 85.4096C178.008 85.7368 177.592 86.0038 177.172 86.2257C176.324 86.6657 175.462 86.9402 174.663 87.1922C173.861 87.4404 173.114 87.6623 172.458 87.9368C171.802 88.2076 171.236 88.5159 170.778 88.8394C170.321 89.1628 169.972 89.505 169.725 89.8134C169.226 90.4339 169.121 90.8814 169.091 90.8664C169.083 90.8626 169.121 90.7611 169.196 90.5618C169.282 90.37 169.417 90.0841 169.665 89.7645C169.908 89.4448 170.253 89.0876 170.714 88.7453C171.176 88.4069 171.746 88.0872 172.406 87.8052C173.066 87.5194 173.816 87.29 174.614 87.0342C175.409 86.7785 176.264 86.5002 177.089 86.064C177.502 85.8458 177.903 85.5864 178.27 85.2667C178.634 84.947 178.968 84.571 179.26 84.1611C179.856 83.3337 180.303 82.3672 180.816 81.4007C181.323 80.438 181.9 79.5053 182.673 78.7983C183.434 78.0838 184.289 77.5573 185.11 77.091C185.935 76.6284 186.734 76.226 187.457 75.8048C188.181 75.3911 188.811 74.9323 189.34 74.4585C190.401 73.5145 190.978 72.4728 191.185 71.7094C191.383 70.9347 191.316 70.4797 191.346 70.4834Z" fill="#FAFAFA"/>
<path d="M168.575 79.5018C168.571 79.5018 168.56 79.4793 168.541 79.4304C168.526 79.3815 168.493 79.3063 168.47 79.2047C168.425 79.0054 168.395 78.6858 168.508 78.3022C168.718 77.535 169.546 76.5835 170.881 76.1059C171.545 75.8765 172.302 75.7374 173.086 75.5305C173.862 75.32 174.71 75.0266 175.343 74.376C175.658 74.0526 175.921 73.6728 176.142 73.2516C176.356 72.8266 176.536 72.3716 176.701 71.9015C177.038 70.9651 177.32 69.9422 177.889 69.017C178.456 68.0844 179.378 67.4338 180.334 67.1103C181.287 66.7606 182.251 66.6027 183.143 66.3958C184.039 66.2003 184.875 65.9483 185.584 65.5609C186.285 65.1623 186.84 64.6321 187.234 64.0679C188.044 62.9397 188.254 61.7852 188.284 61.0218C188.303 60.2471 188.179 59.8221 188.205 59.8184C188.205 59.8184 188.355 60.232 188.363 61.0218C188.355 61.7965 188.164 62.9811 187.35 64.1469C186.953 64.7298 186.387 65.2826 185.667 65.7001C184.939 66.1025 184.084 66.3657 183.188 66.5688C182.292 66.7794 181.336 66.9411 180.409 67.2871C179.476 67.6105 178.609 68.2235 178.062 69.1186C177.511 70.0098 177.23 71.0177 176.888 71.9616C176.72 72.4355 176.536 72.8981 176.315 73.3343C176.086 73.7668 175.808 74.1654 175.475 74.5001C174.803 75.1846 173.918 75.4779 173.131 75.6847C172.332 75.8878 171.582 76.0157 170.926 76.2338C169.625 76.6776 168.8 77.5914 168.583 78.321C168.463 78.6858 168.478 78.9941 168.511 79.1935C168.553 79.3928 168.586 79.4981 168.575 79.5018Z" fill="#FAFAFA"/>
<path d="M189.962 99.8018C189.969 99.8018 189.977 99.8807 189.988 100.039C189.995 100.193 189.984 100.426 189.92 100.719C189.789 101.299 189.343 102.092 188.503 102.75C188.09 103.085 187.592 103.389 187.014 103.634C186.441 103.878 185.807 104.074 185.147 104.281C184.487 104.488 183.793 104.706 183.118 105.022C182.439 105.334 181.813 105.789 181.273 106.372C180.726 106.947 180.253 107.575 179.732 108.128C179.211 108.685 178.618 109.143 178.003 109.486C176.77 110.17 175.491 110.403 174.437 110.414C173.376 110.426 172.536 110.204 171.985 110.005C171.708 109.907 171.501 109.809 171.363 109.738C171.224 109.67 171.153 109.628 171.156 109.625C171.16 109.617 171.235 109.647 171.378 109.704C171.52 109.764 171.73 109.85 172.008 109.937C172.563 110.11 173.395 110.309 174.434 110.279C175.465 110.249 176.717 110.005 177.914 109.331C178.51 108.997 179.08 108.549 179.59 108C180.103 107.455 180.572 106.827 181.131 106.24C181.678 105.646 182.342 105.168 183.036 104.852C183.729 104.529 184.431 104.315 185.094 104.112C185.758 103.908 186.388 103.72 186.95 103.487C187.513 103.254 188.008 102.961 188.413 102.641C189.242 102.009 189.692 101.257 189.842 100.697C189.992 100.133 189.932 99.8018 189.962 99.8018Z" fill="#FAFAFA"/>
<path d="M188.12 49.9493L184.997 50.0245C184.79 51.0813 184.292 51.8033 184.292 51.8033C181.678 47.2567 179.653 41.1643 179.151 38.7161C179.226 38.4717 179.312 38.2009 179.421 37.9001C179.545 37.5503 179.44 36.8884 179.38 36.5236C179.293 35.9783 179.14 35.245 179.095 34.9066C178.956 33.8724 178.791 33.7106 178.431 33.8272C177.943 33.9852 178.633 36.7342 178.232 36.7907C178.015 36.8245 177.752 35.8806 177.677 35.1096C177.602 34.3387 177.253 31.9619 176.998 31.804C176.627 31.5708 176.301 31.9394 176.395 32.7065C176.488 33.485 176.612 35.8054 176.203 35.8354C175.802 35.8655 175.465 31.9281 175.465 31.9281C175.465 31.9281 175.528 31.0706 175.056 31.0932C174.205 31.1308 174.869 35.2826 174.944 35.6737C174.996 35.9483 174.554 35.9972 174.516 35.7001C174.475 35.3954 174.272 31.7626 173.406 31.7927C172.742 31.8153 173.92 35.2149 173.549 36.0009C173.177 36.7869 172.919 33.3271 172.281 33.3722C172.045 33.391 171.872 33.4361 172.304 35.3954C172.536 36.4484 173.222 38.3852 173.819 39.9872C174.824 45.4214 179.233 62.8071 186.144 59.6218C190.01 57.843 191.581 49.9493 191.581 49.9493H188.12Z" fill="#FFBE9D"/>
<path d="M174.796 35.9361C174.796 35.9361 174.826 35.9436 174.886 35.9248C174.938 35.9098 175.043 35.8421 175.028 35.7067C175.021 35.4735 174.983 35.1351 174.931 34.6951C174.889 34.2513 174.758 33.7211 174.758 33.093C174.754 32.7771 174.762 32.4387 174.781 32.0814C174.792 31.9009 174.796 31.7166 174.837 31.5399C174.867 31.3706 174.979 31.1751 175.111 31.1976L175.126 31.2014H175.133C175.268 31.1939 175.369 31.2992 175.414 31.4571C175.463 31.6113 175.474 31.7881 175.463 31.9611V31.9686V31.9723C175.549 32.9351 175.647 33.9881 175.864 35.1125C175.894 35.2517 175.924 35.3946 175.969 35.5375C175.992 35.6089 176.018 35.6804 176.048 35.7518C176.067 35.7895 176.082 35.8233 176.112 35.8647C176.138 35.8985 176.172 35.9549 176.269 35.9624C176.427 35.9512 176.472 35.8308 176.505 35.7669C176.539 35.6879 176.562 35.6127 176.577 35.5375C176.61 35.3833 176.625 35.2329 176.637 35.0787C176.678 34.4657 176.655 33.8376 176.61 33.1983C176.595 32.8749 176.517 32.5515 176.573 32.2582C176.599 32.1153 176.659 31.9686 176.757 31.9084C176.805 31.8783 176.858 31.8746 176.918 31.8896C176.948 31.8971 176.978 31.9122 177.008 31.9272C177.034 31.9498 177.027 31.9385 177.049 31.9836C177.173 32.2544 177.24 32.6041 177.308 32.9276C177.375 33.2585 177.432 33.6007 177.484 33.9429C177.537 34.2852 177.585 34.6312 177.627 34.9809C177.66 35.3306 177.709 35.6954 177.799 36.0489C177.844 36.2257 177.893 36.4024 177.968 36.5792C178.005 36.6657 178.047 36.7559 178.122 36.8462C178.148 36.8838 178.238 36.9553 178.347 36.9289C178.452 36.8951 178.482 36.8086 178.5 36.7597C178.56 36.5416 178.542 36.3648 178.542 36.173C178.534 35.985 178.519 35.8007 178.504 35.6165C178.478 35.3006 178.448 34.9847 178.437 34.6763C178.433 34.5221 178.433 34.3679 178.448 34.225C178.455 34.1535 178.47 34.0821 178.493 34.0294C178.504 34.0031 178.519 33.9843 178.53 33.973C178.538 33.9655 178.542 33.9693 178.545 33.9618L178.594 33.9467C178.842 33.8452 178.924 34.1912 178.992 34.4694C179.048 34.7628 179.085 35.0636 179.145 35.3607C179.243 35.9549 179.37 36.5416 179.438 37.1057C179.464 37.3877 179.487 37.6773 179.404 37.9142C179.314 38.185 179.228 38.4558 179.142 38.7228L179.134 38.7454L179.138 38.7717C179.595 40.7949 180.229 42.6038 180.814 44.2096C181.406 45.8155 182.003 47.1994 182.524 48.3351C183.045 49.4708 183.514 50.3433 183.84 50.9413C184.005 51.2233 184.133 51.449 184.23 51.6144C184.32 51.7649 184.369 51.8438 184.376 51.8401C184.384 51.8363 184.343 51.7536 184.26 51.5956C184.17 51.4264 184.05 51.197 183.9 50.9074C183.596 50.302 183.146 49.422 182.64 48.2825C182.134 47.143 181.556 45.7553 180.975 44.1495C180.401 42.5436 179.779 40.731 179.333 38.7303L179.329 38.7792C179.415 38.5159 179.502 38.2527 179.592 37.9819C179.693 37.6736 179.663 37.3765 179.637 37.0831C179.569 36.4965 179.445 35.9248 179.348 35.3269C179.292 35.0335 179.254 34.7289 179.194 34.4243C179.16 34.2701 179.127 34.1159 179.04 33.958C178.999 33.8828 178.935 33.7963 178.834 33.7474C178.729 33.7023 178.624 33.7135 178.538 33.7361L178.474 33.7549C178.444 33.7662 178.41 33.7812 178.388 33.8038C178.339 33.8452 178.313 33.8941 178.294 33.9392C178.257 34.0294 178.245 34.1122 178.23 34.1949C178.212 34.3604 178.212 34.5221 178.219 34.68C178.23 34.9997 178.26 35.3156 178.287 35.6315C178.302 35.8158 178.317 35.9963 178.324 36.1768C178.332 36.3536 178.335 36.5453 178.298 36.6807C178.29 36.7183 178.272 36.7108 178.29 36.7334C178.29 36.7221 178.294 36.7522 178.294 36.7484V36.7447C178.294 36.7409 178.294 36.7334 178.294 36.7334C178.298 36.7296 178.305 36.7183 178.298 36.7146C178.294 36.7146 178.287 36.7071 178.275 36.692C178.234 36.6431 178.193 36.5679 178.159 36.4889C178.092 36.331 178.043 36.1618 178.002 35.9888C177.915 35.6428 177.867 35.3006 177.833 34.9471C177.792 34.5936 177.743 34.2438 177.687 33.8978C177.634 33.5518 177.574 33.2096 177.507 32.8749C177.428 32.5364 177.379 32.2093 177.222 31.8708C177.21 31.837 177.147 31.7617 177.105 31.7392C177.064 31.7129 177.015 31.6941 176.967 31.679C176.865 31.6527 176.742 31.664 176.648 31.7241C176.46 31.8482 176.404 32.0438 176.37 32.213C176.34 32.3898 176.344 32.5628 176.363 32.7282C176.382 32.89 176.397 33.0479 176.412 33.2059C176.46 33.8376 176.483 34.4619 176.445 35.0561C176.434 35.2028 176.419 35.3532 176.389 35.4924C176.374 35.5638 176.355 35.6277 176.333 35.6879C176.322 35.718 176.307 35.7443 176.292 35.7594C176.277 35.7894 176.265 35.7518 176.265 35.8045C176.284 35.7669 176.265 35.7857 176.25 35.7556C176.235 35.7368 176.22 35.703 176.205 35.6766C176.179 35.6165 176.157 35.5488 176.134 35.4848C176.093 35.3532 176.059 35.2141 176.029 35.0749C175.808 33.9693 175.703 32.9125 175.606 31.9611V31.9723C175.613 31.7806 175.602 31.5963 175.546 31.412C175.516 31.3217 175.474 31.2315 175.399 31.16C175.324 31.0886 175.216 31.0547 175.122 31.0585L175.141 31.0623C174.991 31.0359 174.878 31.1262 174.818 31.2164C174.754 31.3105 174.724 31.412 174.702 31.5098C174.661 31.7053 174.661 31.8934 174.653 32.0739C174.638 32.4349 174.638 32.7771 174.646 33.093C174.657 33.7361 174.803 34.2664 174.852 34.7026C174.916 35.1388 174.964 35.4773 174.987 35.7067C175.009 35.8158 174.923 35.8835 174.878 35.9023C174.826 35.9286 174.792 35.9324 174.796 35.9361Z" fill="#EB996E"/>
<path d="M150.59 55.003C150.59 55.003 149.551 54.9541 148.418 55.2512C146.484 55.7627 143.139 57.7934 143 60.3056H145.426C145.426 60.3056 144.065 63.2088 144.466 62.9381C145.501 62.2386 147.567 60.1363 147.567 60.1363L150.59 55.003Z" fill="#FFBE9D"/>
<path d="M183.002 6.94592C183.22 9.43502 183.44 11.449 183.494 11.4443C183.548 11.4396 183.414 9.41789 183.196 6.92878C182.978 4.43968 182.757 2.42571 182.704 2.43044C182.65 2.43517 182.783 4.45681 183.002 6.94592Z" fill="#263238"/>
<path d="M190.468 7.87877C192.536 4.9646 194.176 2.57684 194.132 2.54553C194.088 2.51423 192.377 4.85124 190.31 7.76541C188.242 10.6796 186.602 13.0674 186.646 13.0987C186.69 13.13 188.401 10.7929 190.468 7.87877Z" fill="#263238"/>
<path d="M194.278 14.3515C196.65 13.8628 198.563 13.4237 198.552 13.3708C198.541 13.3179 196.61 13.6712 194.239 14.16C191.868 14.6487 189.954 15.0878 189.965 15.1407C189.976 15.1936 191.907 14.8403 194.278 14.3515Z" fill="#263238"/>
<path d="M250.092 142.74C250.092 142.793 194.104 142.838 125.052 142.838C55.9769 142.838 0 142.793 0 142.74C0 142.688 55.9769 142.643 125.052 142.643C194.104 142.643 250.092 142.688 250.092 142.74Z" fill="#263238"/>
</svg>
