<svg width="26" height="32" viewBox="0 0 26 32" fill="none" xmlns="http://www.w3.org/2000/svg">
<path d="M13.0514 0C13.2101 0.153954 13.3927 0.289978 13.522 0.46619C13.8142 0.862513 14.0661 1.28851 14.3633 1.68051C14.4839 1.83711 14.6451 1.95712 14.8289 2.02737C15.3093 2.1974 15.8038 2.32539 16.2928 2.4713C16.9564 2.66915 17.0893 3.08959 16.6641 3.64605C16.3485 4.06402 16.0195 4.47209 15.7162 4.89871C15.6256 5.02926 15.5744 5.1834 15.5685 5.34264C15.5642 5.83727 15.6041 6.3319 15.6004 6.82653C15.6004 7.01202 15.5097 7.19751 15.4913 7.3867C15.4769 7.5087 15.4982 7.6323 15.5526 7.74222C16.6224 9.62635 17.697 11.5078 18.7762 13.3866C18.8222 13.467 18.8706 13.5455 18.9141 13.6271C19.1916 14.1446 18.9582 14.5811 18.3779 14.6324C18.3081 14.6386 18.2376 14.6411 18.1181 14.6485C18.1855 14.7722 18.2358 14.8649 18.2891 14.9577C19.7063 17.4351 21.1077 19.9225 22.5513 22.3852C22.9667 23.0937 22.5685 23.6384 21.8859 23.5469C21.7919 23.544 21.6978 23.549 21.6046 23.5618C21.672 23.6854 21.7223 23.7819 21.7762 23.8765C23.0401 26.0871 24.3048 28.2975 25.5703 30.5076C25.8907 31.0678 25.8534 31.2762 25.3675 31.6546H0.428931C-0.0612613 31.3133 -0.11457 31.0727 0.183835 30.546C1.45425 28.3275 2.72405 26.1083 3.99324 23.8882C4.04839 23.7924 4.10047 23.6947 4.17216 23.5649C4.04348 23.5574 3.9479 23.5482 3.8517 23.5475C3.09558 23.5407 2.83394 23.0937 3.20893 22.439C4.37641 20.3974 5.5447 18.357 6.71381 16.3179C7.02385 15.7763 7.33329 15.2334 7.65743 14.6652C7.4877 14.6429 7.35106 14.6368 7.2138 14.6034C7.1285 14.586 7.0481 14.5497 6.9784 14.4972C6.90871 14.4446 6.85147 14.377 6.81083 14.2994C6.77019 14.2218 6.74716 14.136 6.74342 14.0482C6.73967 13.9605 6.7553 13.8731 6.78917 13.7922C6.83675 13.6785 6.89309 13.5687 6.95768 13.4639C8.04835 11.5558 9.14067 9.64882 10.2346 7.74284C10.3222 7.59074 10.3749 7.47264 10.2505 7.30261C10.1807 7.2074 10.1733 7.04912 10.1752 6.91989C10.1831 6.40486 10.2181 5.88982 10.2144 5.37417C10.2088 5.20552 10.1554 5.04202 10.0606 4.90303C9.75422 4.47023 9.41722 4.05165 9.09491 3.62565C8.70215 3.10567 8.84185 2.66174 9.45643 2.47748C9.95398 2.32724 10.4583 2.19616 10.9497 2.02552C11.1254 1.9621 11.2802 1.85081 11.397 1.70401C11.6825 1.3287 11.9264 0.921251 12.204 0.539766C12.3437 0.345624 12.522 0.179304 12.6837 0H13.0514ZM1.70159 30.397H24.0807C24.0164 30.2789 23.9698 30.1892 23.9195 30.1014C22.6557 27.8904 21.3912 25.6794 20.1261 23.4684C20.0722 23.381 20.0229 23.2908 19.9784 23.1982C19.7885 22.7654 20.0397 22.3456 20.509 22.3153C20.6769 22.3042 20.8467 22.3153 21.0795 22.3153L17.3841 15.8548C16.9772 17.113 15.9447 17.544 15.0409 17.3677C14.6052 17.2858 14.2115 17.0526 13.9282 16.7086C13.4172 16.1003 13.3363 15.4065 13.5789 14.6349H13.291C11.984 14.6349 10.6764 14.6405 9.36942 14.63C9.15619 14.63 9.04528 14.7023 8.9405 14.8853C7.59002 17.2604 6.23505 19.6327 4.87559 22.0024C4.82657 22.0884 4.7849 22.1787 4.71811 22.3116H15.3473C15.47 22.3079 15.5928 22.312 15.715 22.324C16.0054 22.3604 16.2174 22.5676 16.2468 22.8377C16.2805 23.1389 16.1549 23.3553 15.8878 23.4888C15.8265 23.5185 15.7652 23.5383 15.699 23.563C15.9643 24.4756 15.8099 25.2658 15.074 25.8637C14.4276 26.3886 13.6837 26.4819 12.9521 26.0875C11.9442 25.5471 11.6776 24.6586 11.9717 23.5624C11.9 23.5562 11.8492 23.5488 11.8014 23.5488C9.80998 23.5488 7.81858 23.5488 5.82717 23.542C5.61884 23.542 5.54715 23.6527 5.46382 23.7986C4.25958 25.9045 3.05514 28.0085 1.85049 30.1107C1.80147 30.1954 1.75858 30.2857 1.70159 30.397ZM17.3406 13.3792C17.2793 13.2623 17.2388 13.172 17.1898 13.0861C16.1702 11.3036 15.1469 9.52351 14.1341 7.73789C14.0115 7.52705 13.8547 7.42318 13.6439 7.32116C13.1286 7.07385 12.6476 7.07879 12.1335 7.32116C11.9196 7.42318 11.7658 7.52953 11.6433 7.73975C10.6353 9.51733 9.61697 11.2881 8.60227 13.062C8.54896 13.1547 8.50301 13.2524 8.43806 13.3773L17.3406 13.3792ZM12.8884 1.71452C12.6739 2.02923 12.4595 2.31611 12.2756 2.61969C12.1982 2.75239 12.0947 2.86777 11.9715 2.95877C11.8484 3.04976 11.7081 3.11447 11.5594 3.14895C11.2181 3.23551 10.8853 3.34742 10.5367 3.45067C10.8455 3.89522 11.2456 4.2662 11.3872 4.72497C11.5287 5.18374 11.419 5.72721 11.419 6.27069C11.7793 6.14332 12.0931 6.05182 12.3884 5.92383C12.5458 5.85127 12.7169 5.81372 12.8899 5.81372C13.063 5.81372 13.234 5.85127 13.3914 5.92383C13.6923 6.05305 14.0091 6.1427 14.3308 6.254C14.3308 5.84654 14.3461 5.4867 14.3265 5.12871C14.3159 4.98549 14.3338 4.84158 14.3791 4.70545C14.4245 4.56932 14.4964 4.44373 14.5906 4.33606C14.8167 4.06278 15.0195 3.77156 15.2603 3.45562C14.8651 3.33876 14.4956 3.25777 14.1543 3.11309C13.926 3.01572 13.7222 2.8678 13.5581 2.68028C13.3124 2.39154 13.1225 2.05828 12.8884 1.71452ZM13.8338 23.5469C13.7319 23.5476 13.6311 23.5689 13.5374 23.6095C13.4437 23.6501 13.359 23.7093 13.2883 23.7834C13.2176 23.8576 13.1623 23.9453 13.1257 24.0413C13.0892 24.1374 13.072 24.2398 13.0753 24.3427C13.0857 24.7235 13.457 25.0797 13.8424 25.0772C14.0425 25.0717 14.2327 24.988 14.3728 24.8437C14.5129 24.6993 14.5918 24.5057 14.593 24.3037C14.5938 24.2033 14.5746 24.1038 14.5366 24.011C14.4986 23.9183 14.4426 23.8341 14.3718 23.7636C14.301 23.693 14.2169 23.6375 14.1246 23.6003C14.0322 23.5631 13.9333 23.5449 13.8338 23.5469ZM16.1874 15.4022C16.1866 15.1999 16.1064 15.0062 15.9643 14.8634C15.8222 14.7206 15.6299 14.6405 15.4294 14.6405C15.2291 14.6447 15.038 14.7265 14.8959 14.869C14.7538 15.0116 14.6714 15.2038 14.6659 15.4059C14.6659 15.8072 15.0336 16.1744 15.4331 16.1738C15.6333 16.1687 15.8238 16.0855 15.9645 15.9416C16.1052 15.7977 16.1851 15.6043 16.1874 15.4022Z" fill="black"/>
<path d="M12.8883 1.71436C13.1224 2.05812 13.3123 2.39447 13.5562 2.67827C13.7203 2.86579 13.924 3.0137 14.1524 3.11107C14.4955 3.25575 14.865 3.33613 15.2602 3.45484C15.0213 3.77079 14.8166 4.062 14.5905 4.33528C14.4958 4.44339 14.4237 4.5696 14.3783 4.7064C14.3329 4.84321 14.3153 4.98782 14.3264 5.13164C14.346 5.48963 14.3307 5.84947 14.3307 6.25693C14.009 6.14564 13.6922 6.05598 13.3914 5.92676C13.2339 5.8542 13.0629 5.81665 12.8898 5.81665C12.7168 5.81665 12.5457 5.8542 12.3883 5.92676C12.0917 6.05475 11.7792 6.14625 11.419 6.27362C11.419 5.72953 11.5305 5.1879 11.3871 4.7279C11.2437 4.26789 10.8454 3.89506 10.5391 3.45051C10.8853 3.34726 11.2204 3.23535 11.5617 3.14879C11.7105 3.11431 11.8507 3.0496 11.9739 2.9586C12.097 2.86761 12.2005 2.75223 12.278 2.61953C12.4618 2.31595 12.6738 2.02906 12.8883 1.71436Z" fill="#90C63E"/>
<path d="M13.8371 23.547C13.9366 23.545 14.0354 23.5632 14.1278 23.6004C14.2202 23.6376 14.3043 23.6931 14.375 23.7637C14.4458 23.8342 14.5019 23.9184 14.5399 24.0111C14.5779 24.1039 14.597 24.2034 14.5963 24.3038C14.5951 24.5058 14.5161 24.6994 14.376 24.8438C14.236 24.9881 14.0458 25.0718 13.8457 25.0773C13.4603 25.0773 13.0889 24.7236 13.0785 24.3428C13.0752 24.2399 13.0924 24.1374 13.129 24.0414C13.1656 23.9454 13.2208 23.8577 13.2915 23.7835C13.3622 23.7093 13.4469 23.6502 13.5406 23.6096C13.6343 23.569 13.7351 23.5477 13.8371 23.547Z" fill="#90C63E"/>
<path d="M16.1894 15.4019C16.1871 15.604 16.1072 15.7973 15.9665 15.9412C15.8259 16.0851 15.6354 16.1684 15.4351 16.1735C15.0362 16.1735 14.6692 15.8069 14.668 15.4056C14.6734 15.2035 14.7558 15.0112 14.8979 14.8687C15.0401 14.7262 15.2311 14.6443 15.4314 14.6401C15.6319 14.6401 15.8243 14.7203 15.9663 14.8631C16.1084 15.0058 16.1886 15.1996 16.1894 15.4019Z" fill="#90C63E"/>
<path d="M5.80473 27.278C5.80231 26.882 5.91635 26.4941 6.13242 26.1635C6.3485 25.8329 6.65689 25.5744 7.0186 25.4207C7.38031 25.2669 7.77908 25.2249 8.16446 25.2999C8.54985 25.3749 8.90453 25.5635 9.18364 25.842C9.46275 26.1204 9.65375 26.4761 9.73247 26.8641C9.8112 27.2521 9.77411 27.6549 9.62591 28.0217C9.47771 28.3884 9.22504 28.7025 8.89988 28.9243C8.57472 29.1461 8.19167 29.2656 7.7992 29.2677C7.53855 29.27 7.28004 29.2202 7.03852 29.1213C6.79699 29.0224 6.57723 28.8763 6.39187 28.6914C6.20652 28.5065 6.05922 28.2864 5.95845 28.0439C5.85769 27.8013 5.80544 27.541 5.80473 27.278ZM7.79613 28.0311C7.89731 28.0326 7.99775 28.0135 8.09153 27.9752C8.18532 27.9369 8.27054 27.8799 8.34218 27.8078C8.41382 27.7357 8.47042 27.6499 8.50865 27.5553C8.54689 27.4608 8.56597 27.3595 8.56479 27.2574C8.5636 27.1553 8.54216 27.0545 8.50175 26.9609C8.46133 26.8673 8.40274 26.7828 8.32945 26.7124C8.25615 26.642 8.16963 26.5871 8.07498 26.551C7.98034 26.5149 7.87948 26.4982 7.77836 26.5021C7.58088 26.5096 7.39411 26.5946 7.25786 26.7391C7.12161 26.8835 7.04665 27.0759 7.04897 27.2753C7.05129 27.4747 7.13069 27.6653 7.27026 27.8065C7.40983 27.9477 7.59853 28.0283 7.79613 28.0311Z" fill="#90C63E"/>
<path d="M10.3453 21.1068C9.95288 21.1073 9.56916 20.9903 9.24266 20.7707C8.91616 20.5511 8.66156 20.2387 8.51106 19.873C8.36056 19.5074 8.32093 19.1049 8.39719 18.7165C8.47344 18.3281 8.66215 17.9712 8.93945 17.6911C9.21674 17.4109 9.57015 17.2201 9.95496 17.1426C10.3398 17.0652 10.7387 17.1047 11.1013 17.2561C11.4638 17.4075 11.7738 17.664 11.9918 17.9932C12.2099 18.3224 12.3263 18.7095 12.3263 19.1054C12.3223 19.6345 12.1123 20.1409 11.7418 20.5153C11.3712 20.8897 10.8696 21.1021 10.3453 21.1068ZM10.3269 19.8702C10.526 19.8717 10.7176 19.7942 10.8605 19.6543C11.0034 19.5145 11.0862 19.3236 11.0908 19.1227C11.0955 18.9219 11.0217 18.7273 10.8855 18.5809C10.7492 18.4344 10.5613 18.3479 10.3624 18.34C10.1618 18.3392 9.96863 18.4163 9.82285 18.5554C9.67707 18.6944 9.58988 18.8847 9.57934 19.0869C9.56831 19.4925 9.92064 19.8616 10.3269 19.8709V19.8702Z" fill="#90C63E"/>
<path d="M17.8207 27.2665C17.8166 27.0289 17.8595 26.7928 17.9468 26.572C18.0342 26.3513 18.1643 26.1503 18.3295 25.9809C18.4947 25.8115 18.6918 25.677 18.9091 25.5853C19.1264 25.4936 19.3596 25.4465 19.5952 25.4468C19.8308 25.4471 20.0639 25.4947 20.281 25.587C20.4981 25.6792 20.6948 25.8142 20.8596 25.984C21.0244 26.1538 21.154 26.3551 21.2408 26.576C21.3277 26.797 21.37 27.0332 21.3654 27.2708C21.3695 27.5085 21.3266 27.7446 21.2392 27.9653C21.1518 28.1861 21.0217 28.387 20.8565 28.5564C20.6913 28.7258 20.4943 28.8603 20.2769 28.9521C20.0596 29.0438 19.8264 29.0909 19.5908 29.0906C19.3553 29.0903 19.1221 29.0426 18.905 28.9504C18.6879 28.8581 18.4912 28.7232 18.3264 28.5533C18.1616 28.3835 18.032 28.1822 17.9452 27.9613C17.8583 27.7403 17.816 27.5042 17.8207 27.2665ZM19.5847 27.823C19.7299 27.8243 19.8696 27.7674 19.9731 27.6648C20.0766 27.5621 20.1355 27.4222 20.1368 27.2758C20.1381 27.1293 20.0817 26.9884 19.98 26.8839C19.8783 26.7794 19.7397 26.72 19.5945 26.7187C19.4494 26.7174 19.3097 26.7743 19.2062 26.8769C19.1027 26.9795 19.0438 27.1195 19.0425 27.2659C19.0412 27.4123 19.0976 27.5533 19.1993 27.6578C19.301 27.7622 19.4396 27.8217 19.5847 27.823Z" fill="#90C63E"/>
<path d="M17.8777 22.3206C18.2134 22.3206 18.4959 22.5914 18.4904 22.9135C18.4867 23.2548 18.192 23.5528 17.8666 23.5448C17.7072 23.5372 17.5568 23.4681 17.4464 23.3518C17.336 23.2354 17.2741 23.0808 17.2735 22.9197C17.2724 22.8398 17.2873 22.7606 17.3174 22.6867C17.3475 22.6128 17.3922 22.5458 17.4486 22.4898C17.5051 22.4338 17.5722 22.39 17.646 22.3609C17.7197 22.3318 17.7985 22.3181 17.8777 22.3206Z" fill="black"/>
<path d="M12.8805 8.64607C13.113 8.64395 13.3435 8.68828 13.5589 8.77652C13.7743 8.86475 13.9702 8.99514 14.1354 9.16016C14.3006 9.32518 14.4318 9.52157 14.5214 9.738C14.611 9.95443 14.6573 10.1866 14.6575 10.4212C14.6588 10.8948 14.4747 11.3499 14.1453 11.6873C13.8158 12.0247 13.3677 12.2172 12.8983 12.2229C11.9406 12.234 11.125 11.4191 11.1134 10.4391C11.1018 9.45912 11.9051 8.65102 12.8805 8.64607ZM12.9002 9.88265C12.7563 9.87949 12.617 9.93389 12.5128 10.034C12.4086 10.1341 12.3478 10.2717 12.3438 10.4169C12.3443 10.5619 12.4003 10.7011 12.5001 10.8055C12.5999 10.9098 12.7357 10.9713 12.8793 10.977C12.9508 10.9786 13.0218 10.9658 13.0883 10.9394C13.1549 10.9131 13.2155 10.8736 13.2668 10.8234C13.3181 10.7732 13.359 10.7132 13.3872 10.6469C13.4153 10.5806 13.4302 10.5094 13.4308 10.4373C13.4326 10.3657 13.4202 10.2944 13.3944 10.2277C13.3686 10.161 13.3298 10.1002 13.2804 10.0487C13.231 9.99732 13.1719 9.95637 13.1066 9.92827C13.0413 9.90018 12.9711 9.88551 12.9002 9.88512V9.88265Z" fill="#90C63E"/>
<path d="M7.79528 28.0306C7.64551 28.0318 7.49874 27.9882 7.3735 27.9053C7.24826 27.8224 7.15017 27.704 7.0916 27.5649C7.03303 27.4258 7.01662 27.2723 7.04443 27.1238C7.07225 26.9753 7.14304 26.8384 7.24787 26.7305C7.35271 26.6225 7.48688 26.5484 7.63346 26.5173C7.78004 26.4862 7.93246 26.4997 8.07146 26.556C8.21046 26.6123 8.32983 26.7088 8.41448 26.8335C8.49914 26.9582 8.54529 27.1054 8.54711 27.2565C8.54746 27.4593 8.46885 27.654 8.32821 27.7988C8.18757 27.9436 7.99617 28.0269 7.79528 28.0306Z" fill="#90C63E"/>
<path d="M10.3298 19.8711C9.92358 19.8618 9.57125 19.4927 9.58228 19.0877C9.59282 18.8856 9.68001 18.6953 9.82579 18.5562C9.97157 18.4172 10.1648 18.3401 10.3654 18.3408C10.5643 18.3488 10.7521 18.4353 10.8884 18.5817C11.0247 18.7282 11.0984 18.9228 11.0938 19.1236C11.0891 19.3244 11.0064 19.5153 10.8635 19.6552C10.7206 19.795 10.5289 19.8726 10.3298 19.8711Z" fill="#90C63E"/>
<path d="M19.5892 27.8186C19.5173 27.818 19.4463 27.8031 19.3802 27.7747C19.314 27.7464 19.2541 27.7052 19.2037 27.6534C19.1533 27.6017 19.1136 27.5405 19.0867 27.4732C19.0598 27.406 19.0463 27.3341 19.0469 27.2616C19.0475 27.1891 19.0623 27.1174 19.0904 27.0506C19.1185 26.9839 19.1594 26.9234 19.2106 26.8726C19.2619 26.8218 19.3226 26.7817 19.3892 26.7545C19.4558 26.7274 19.5271 26.7137 19.599 26.7144C19.7441 26.7157 19.8828 26.7751 19.9845 26.8796C20.0862 26.9841 20.1426 27.125 20.1413 27.2715C20.14 27.4179 20.0811 27.5578 19.9775 27.6604C19.874 27.763 19.7343 27.8199 19.5892 27.8186Z" fill="#90C63E"/>
<path d="M12.8987 9.88544C12.9698 9.88614 13.0401 9.90119 13.1054 9.9297C13.1707 9.95821 13.2297 9.9996 13.2789 10.0514C13.3281 10.1033 13.3665 10.1645 13.3919 10.2316C13.4174 10.2987 13.4292 10.3702 13.4268 10.4419C13.4262 10.514 13.4114 10.5853 13.3833 10.6516C13.3551 10.7179 13.3142 10.7779 13.2629 10.8281C13.2116 10.8783 13.1509 10.9177 13.0844 10.9441C13.0179 10.9705 12.9468 10.9832 12.8754 10.9817C12.7318 10.9759 12.5959 10.9145 12.4961 10.8101C12.3964 10.7057 12.3404 10.5665 12.3398 10.4215C12.3416 10.3493 12.3574 10.2781 12.3865 10.212C12.4155 10.146 12.4572 10.0863 12.5091 10.0365C12.561 9.98675 12.6221 9.94778 12.689 9.92185C12.7558 9.89592 12.8271 9.88355 12.8987 9.88544Z" fill="#90C63E"/>
</svg>
